<?xml version="1.0" encoding="utf-8" standalone="no"?>
<!DOCTYPE svg PUBLIC "-//W3C//DTD SVG 1.1//EN"
  "http://www.w3.org/Graphics/SVG/1.1/DTD/svg11.dtd">
<svg xmlns:xlink="http://www.w3.org/1999/xlink" width="731.185pt" height="224.221562pt" viewBox="0 0 731.185 224.221562" xmlns="http://www.w3.org/2000/svg" version="1.1">
 <metadata>
  <rdf:RDF xmlns:dc="http://purl.org/dc/elements/1.1/" xmlns:cc="http://creativecommons.org/ns#" xmlns:rdf="http://www.w3.org/1999/02/22-rdf-syntax-ns#">
   <cc:Work>
    <dc:type rdf:resource="http://purl.org/dc/dcmitype/StillImage"/>
    <dc:date>2023-03-24T17:35:29.531191</dc:date>
    <dc:format>image/svg+xml</dc:format>
    <dc:creator>
     <cc:Agent>
      <dc:title>Matplotlib v3.5.2, https://matplotlib.org/</dc:title>
     </cc:Agent>
    </dc:creator>
   </cc:Work>
  </rdf:RDF>
 </metadata>
 <defs>
  <style type="text/css">*{stroke-linejoin: round; stroke-linecap: butt}</style>
 </defs>
 <g id="figure_1">
  <g id="patch_1">
   <path d="M 0 224.221562 
L 731.185 224.221562 
L 731.185 -0 
L 0 -0 
z
" style="fill: #ffffff"/>
  </g>
  <g id="axes_1">
   <g id="patch_2">
    <path d="M 54.385 178.551562 
L 723.985 178.551562 
L 723.985 39.951562 
L 54.385 39.951562 
z
" style="fill: #ffffff"/>
   </g>
   <g id="matplotlib.axis_1">
    <g id="xtick_1">
     <g id="line2d_1">
      <defs>
       <path id="m62e860bb82" d="M 0 0 
L 0 -3.5 
" style="stroke: #000000; stroke-width: 0.8"/>
      </defs>
      <g>
       <use xlink:href="#m62e860bb82" x="64.530455" y="178.551562" style="stroke: #000000; stroke-width: 0.8"/>
      </g>
     </g>
     <g id="line2d_2">
      <defs>
       <path id="m12d79050d7" d="M 0 0 
L 0 3.5 
" style="stroke: #000000; stroke-width: 0.8"/>
      </defs>
      <g>
       <use xlink:href="#m12d79050d7" x="64.530455" y="39.951562" style="stroke: #000000; stroke-width: 0.8"/>
      </g>
     </g>
     <g id="text_1">
      <!-- 0 -->
      <g transform="translate(60.076705 192.689375)scale(0.14 -0.14)">
       <defs>
        <path id="DejaVuSans-30" d="M 2034 4250 
Q 1547 4250 1301 3770 
Q 1056 3291 1056 2328 
Q 1056 1369 1301 889 
Q 1547 409 2034 409 
Q 2525 409 2770 889 
Q 3016 1369 3016 2328 
Q 3016 3291 2770 3770 
Q 2525 4250 2034 4250 
z
M 2034 4750 
Q 2819 4750 3233 4129 
Q 3647 3509 3647 2328 
Q 3647 1150 3233 529 
Q 2819 -91 2034 -91 
Q 1250 -91 836 529 
Q 422 1150 422 2328 
Q 422 3509 836 4129 
Q 1250 4750 2034 4750 
z
" transform="scale(0.015625)"/>
       </defs>
       <use xlink:href="#DejaVuSans-30"/>
      </g>
     </g>
    </g>
    <g id="xtick_2">
     <g id="line2d_3">
      <g>
       <use xlink:href="#m62e860bb82" x="165.985" y="178.551562" style="stroke: #000000; stroke-width: 0.8"/>
      </g>
     </g>
     <g id="line2d_4">
      <g>
       <use xlink:href="#m12d79050d7" x="165.985" y="39.951562" style="stroke: #000000; stroke-width: 0.8"/>
      </g>
     </g>
     <g id="text_2">
      <!-- 20 -->
      <g transform="translate(157.0775 192.689375)scale(0.14 -0.14)">
       <defs>
        <path id="DejaVuSans-32" d="M 1228 531 
L 3431 531 
L 3431 0 
L 469 0 
L 469 531 
Q 828 903 1448 1529 
Q 2069 2156 2228 2338 
Q 2531 2678 2651 2914 
Q 2772 3150 2772 3378 
Q 2772 3750 2511 3984 
Q 2250 4219 1831 4219 
Q 1534 4219 1204 4116 
Q 875 4013 500 3803 
L 500 4441 
Q 881 4594 1212 4672 
Q 1544 4750 1819 4750 
Q 2544 4750 2975 4387 
Q 3406 4025 3406 3419 
Q 3406 3131 3298 2873 
Q 3191 2616 2906 2266 
Q 2828 2175 2409 1742 
Q 1991 1309 1228 531 
z
" transform="scale(0.015625)"/>
       </defs>
       <use xlink:href="#DejaVuSans-32"/>
       <use xlink:href="#DejaVuSans-30" x="63.623047"/>
      </g>
     </g>
    </g>
    <g id="xtick_3">
     <g id="line2d_5">
      <g>
       <use xlink:href="#m62e860bb82" x="267.439545" y="178.551562" style="stroke: #000000; stroke-width: 0.8"/>
      </g>
     </g>
     <g id="line2d_6">
      <g>
       <use xlink:href="#m12d79050d7" x="267.439545" y="39.951562" style="stroke: #000000; stroke-width: 0.8"/>
      </g>
     </g>
     <g id="text_3">
      <!-- 40 -->
      <g transform="translate(258.532045 192.689375)scale(0.14 -0.14)">
       <defs>
        <path id="DejaVuSans-34" d="M 2419 4116 
L 825 1625 
L 2419 1625 
L 2419 4116 
z
M 2253 4666 
L 3047 4666 
L 3047 1625 
L 3713 1625 
L 3713 1100 
L 3047 1100 
L 3047 0 
L 2419 0 
L 2419 1100 
L 313 1100 
L 313 1709 
L 2253 4666 
z
" transform="scale(0.015625)"/>
       </defs>
       <use xlink:href="#DejaVuSans-34"/>
       <use xlink:href="#DejaVuSans-30" x="63.623047"/>
      </g>
     </g>
    </g>
    <g id="xtick_4">
     <g id="line2d_7">
      <g>
       <use xlink:href="#m62e860bb82" x="368.894091" y="178.551562" style="stroke: #000000; stroke-width: 0.8"/>
      </g>
     </g>
     <g id="line2d_8">
      <g>
       <use xlink:href="#m12d79050d7" x="368.894091" y="39.951562" style="stroke: #000000; stroke-width: 0.8"/>
      </g>
     </g>
     <g id="text_4">
      <!-- 60 -->
      <g transform="translate(359.986591 192.689375)scale(0.14 -0.14)">
       <defs>
        <path id="DejaVuSans-36" d="M 2113 2584 
Q 1688 2584 1439 2293 
Q 1191 2003 1191 1497 
Q 1191 994 1439 701 
Q 1688 409 2113 409 
Q 2538 409 2786 701 
Q 3034 994 3034 1497 
Q 3034 2003 2786 2293 
Q 2538 2584 2113 2584 
z
M 3366 4563 
L 3366 3988 
Q 3128 4100 2886 4159 
Q 2644 4219 2406 4219 
Q 1781 4219 1451 3797 
Q 1122 3375 1075 2522 
Q 1259 2794 1537 2939 
Q 1816 3084 2150 3084 
Q 2853 3084 3261 2657 
Q 3669 2231 3669 1497 
Q 3669 778 3244 343 
Q 2819 -91 2113 -91 
Q 1303 -91 875 529 
Q 447 1150 447 2328 
Q 447 3434 972 4092 
Q 1497 4750 2381 4750 
Q 2619 4750 2861 4703 
Q 3103 4656 3366 4563 
z
" transform="scale(0.015625)"/>
       </defs>
       <use xlink:href="#DejaVuSans-36"/>
       <use xlink:href="#DejaVuSans-30" x="63.623047"/>
      </g>
     </g>
    </g>
    <g id="xtick_5">
     <g id="line2d_9">
      <g>
       <use xlink:href="#m62e860bb82" x="470.348636" y="178.551562" style="stroke: #000000; stroke-width: 0.8"/>
      </g>
     </g>
     <g id="line2d_10">
      <g>
       <use xlink:href="#m12d79050d7" x="470.348636" y="39.951562" style="stroke: #000000; stroke-width: 0.8"/>
      </g>
     </g>
     <g id="text_5">
      <!-- 80 -->
      <g transform="translate(461.441136 192.689375)scale(0.14 -0.14)">
       <defs>
        <path id="DejaVuSans-38" d="M 2034 2216 
Q 1584 2216 1326 1975 
Q 1069 1734 1069 1313 
Q 1069 891 1326 650 
Q 1584 409 2034 409 
Q 2484 409 2743 651 
Q 3003 894 3003 1313 
Q 3003 1734 2745 1975 
Q 2488 2216 2034 2216 
z
M 1403 2484 
Q 997 2584 770 2862 
Q 544 3141 544 3541 
Q 544 4100 942 4425 
Q 1341 4750 2034 4750 
Q 2731 4750 3128 4425 
Q 3525 4100 3525 3541 
Q 3525 3141 3298 2862 
Q 3072 2584 2669 2484 
Q 3125 2378 3379 2068 
Q 3634 1759 3634 1313 
Q 3634 634 3220 271 
Q 2806 -91 2034 -91 
Q 1263 -91 848 271 
Q 434 634 434 1313 
Q 434 1759 690 2068 
Q 947 2378 1403 2484 
z
M 1172 3481 
Q 1172 3119 1398 2916 
Q 1625 2713 2034 2713 
Q 2441 2713 2670 2916 
Q 2900 3119 2900 3481 
Q 2900 3844 2670 4047 
Q 2441 4250 2034 4250 
Q 1625 4250 1398 4047 
Q 1172 3844 1172 3481 
z
" transform="scale(0.015625)"/>
       </defs>
       <use xlink:href="#DejaVuSans-38"/>
       <use xlink:href="#DejaVuSans-30" x="63.623047"/>
      </g>
     </g>
    </g>
    <g id="xtick_6">
     <g id="line2d_11">
      <g>
       <use xlink:href="#m62e860bb82" x="571.803182" y="178.551562" style="stroke: #000000; stroke-width: 0.8"/>
      </g>
     </g>
     <g id="line2d_12">
      <g>
       <use xlink:href="#m12d79050d7" x="571.803182" y="39.951562" style="stroke: #000000; stroke-width: 0.8"/>
      </g>
     </g>
     <g id="text_6">
      <!-- 100 -->
      <g transform="translate(558.441932 192.689375)scale(0.14 -0.14)">
       <defs>
        <path id="DejaVuSans-31" d="M 794 531 
L 1825 531 
L 1825 4091 
L 703 3866 
L 703 4441 
L 1819 4666 
L 2450 4666 
L 2450 531 
L 3481 531 
L 3481 0 
L 794 0 
L 794 531 
z
" transform="scale(0.015625)"/>
       </defs>
       <use xlink:href="#DejaVuSans-31"/>
       <use xlink:href="#DejaVuSans-30" x="63.623047"/>
       <use xlink:href="#DejaVuSans-30" x="127.246094"/>
      </g>
     </g>
    </g>
    <g id="xtick_7">
     <g id="line2d_13">
      <g>
       <use xlink:href="#m62e860bb82" x="673.257727" y="178.551562" style="stroke: #000000; stroke-width: 0.8"/>
      </g>
     </g>
     <g id="line2d_14">
      <g>
       <use xlink:href="#m12d79050d7" x="673.257727" y="39.951562" style="stroke: #000000; stroke-width: 0.8"/>
      </g>
     </g>
     <g id="text_7">
      <!-- 120 -->
      <g transform="translate(659.896477 192.689375)scale(0.14 -0.14)">
       <use xlink:href="#DejaVuSans-31"/>
       <use xlink:href="#DejaVuSans-32" x="63.623047"/>
       <use xlink:href="#DejaVuSans-30" x="127.246094"/>
      </g>
     </g>
    </g>
    <g id="text_8">
     <!-- Time (s) -->
     <g transform="translate(352.592969 213.278125)scale(0.18 -0.18)">
      <defs>
       <path id="DejaVuSans-54" d="M -19 4666 
L 3928 4666 
L 3928 4134 
L 2272 4134 
L 2272 0 
L 1638 0 
L 1638 4134 
L -19 4134 
L -19 4666 
z
" transform="scale(0.015625)"/>
       <path id="DejaVuSans-69" d="M 603 3500 
L 1178 3500 
L 1178 0 
L 603 0 
L 603 3500 
z
M 603 4863 
L 1178 4863 
L 1178 4134 
L 603 4134 
L 603 4863 
z
" transform="scale(0.015625)"/>
       <path id="DejaVuSans-6d" d="M 3328 2828 
Q 3544 3216 3844 3400 
Q 4144 3584 4550 3584 
Q 5097 3584 5394 3201 
Q 5691 2819 5691 2113 
L 5691 0 
L 5113 0 
L 5113 2094 
Q 5113 2597 4934 2840 
Q 4756 3084 4391 3084 
Q 3944 3084 3684 2787 
Q 3425 2491 3425 1978 
L 3425 0 
L 2847 0 
L 2847 2094 
Q 2847 2600 2669 2842 
Q 2491 3084 2119 3084 
Q 1678 3084 1418 2786 
Q 1159 2488 1159 1978 
L 1159 0 
L 581 0 
L 581 3500 
L 1159 3500 
L 1159 2956 
Q 1356 3278 1631 3431 
Q 1906 3584 2284 3584 
Q 2666 3584 2933 3390 
Q 3200 3197 3328 2828 
z
" transform="scale(0.015625)"/>
       <path id="DejaVuSans-65" d="M 3597 1894 
L 3597 1613 
L 953 1613 
Q 991 1019 1311 708 
Q 1631 397 2203 397 
Q 2534 397 2845 478 
Q 3156 559 3463 722 
L 3463 178 
Q 3153 47 2828 -22 
Q 2503 -91 2169 -91 
Q 1331 -91 842 396 
Q 353 884 353 1716 
Q 353 2575 817 3079 
Q 1281 3584 2069 3584 
Q 2775 3584 3186 3129 
Q 3597 2675 3597 1894 
z
M 3022 2063 
Q 3016 2534 2758 2815 
Q 2500 3097 2075 3097 
Q 1594 3097 1305 2825 
Q 1016 2553 972 2059 
L 3022 2063 
z
" transform="scale(0.015625)"/>
       <path id="DejaVuSans-20" transform="scale(0.015625)"/>
       <path id="DejaVuSans-28" d="M 1984 4856 
Q 1566 4138 1362 3434 
Q 1159 2731 1159 2009 
Q 1159 1288 1364 580 
Q 1569 -128 1984 -844 
L 1484 -844 
Q 1016 -109 783 600 
Q 550 1309 550 2009 
Q 550 2706 781 3412 
Q 1013 4119 1484 4856 
L 1984 4856 
z
" transform="scale(0.015625)"/>
       <path id="DejaVuSans-73" d="M 2834 3397 
L 2834 2853 
Q 2591 2978 2328 3040 
Q 2066 3103 1784 3103 
Q 1356 3103 1142 2972 
Q 928 2841 928 2578 
Q 928 2378 1081 2264 
Q 1234 2150 1697 2047 
L 1894 2003 
Q 2506 1872 2764 1633 
Q 3022 1394 3022 966 
Q 3022 478 2636 193 
Q 2250 -91 1575 -91 
Q 1294 -91 989 -36 
Q 684 19 347 128 
L 347 722 
Q 666 556 975 473 
Q 1284 391 1588 391 
Q 1994 391 2212 530 
Q 2431 669 2431 922 
Q 2431 1156 2273 1281 
Q 2116 1406 1581 1522 
L 1381 1569 
Q 847 1681 609 1914 
Q 372 2147 372 2553 
Q 372 3047 722 3315 
Q 1072 3584 1716 3584 
Q 2034 3584 2315 3537 
Q 2597 3491 2834 3397 
z
" transform="scale(0.015625)"/>
       <path id="DejaVuSans-29" d="M 513 4856 
L 1013 4856 
Q 1481 4119 1714 3412 
Q 1947 2706 1947 2009 
Q 1947 1309 1714 600 
Q 1481 -109 1013 -844 
L 513 -844 
Q 928 -128 1133 580 
Q 1338 1288 1338 2009 
Q 1338 2731 1133 3434 
Q 928 4138 513 4856 
z
" transform="scale(0.015625)"/>
      </defs>
      <use xlink:href="#DejaVuSans-54"/>
      <use xlink:href="#DejaVuSans-69" x="57.958984"/>
      <use xlink:href="#DejaVuSans-6d" x="85.742188"/>
      <use xlink:href="#DejaVuSans-65" x="183.154297"/>
      <use xlink:href="#DejaVuSans-20" x="244.677734"/>
      <use xlink:href="#DejaVuSans-28" x="276.464844"/>
      <use xlink:href="#DejaVuSans-73" x="315.478516"/>
      <use xlink:href="#DejaVuSans-29" x="367.578125"/>
     </g>
    </g>
   </g>
   <g id="matplotlib.axis_2">
    <g id="ytick_1">
     <g id="line2d_15">
      <defs>
       <path id="m06b00108c9" d="M 0 0 
L 3.5 0 
" style="stroke: #000000; stroke-width: 0.8"/>
      </defs>
      <g>
       <use xlink:href="#m06b00108c9" x="54.385" y="172.551117" style="stroke: #000000; stroke-width: 0.8"/>
      </g>
     </g>
     <g id="line2d_16">
      <defs>
       <path id="m716fcad080" d="M 0 0 
L -3.5 0 
" style="stroke: #000000; stroke-width: 0.8"/>
      </defs>
      <g>
       <use xlink:href="#m716fcad080" x="723.985" y="172.551117" style="stroke: #000000; stroke-width: 0.8"/>
      </g>
     </g>
     <g id="text_9">
      <!-- 0.0 -->
      <g transform="translate(28.620625 177.870023)scale(0.14 -0.14)">
       <defs>
        <path id="DejaVuSans-2e" d="M 684 794 
L 1344 794 
L 1344 0 
L 684 0 
L 684 794 
z
" transform="scale(0.015625)"/>
       </defs>
       <use xlink:href="#DejaVuSans-30"/>
       <use xlink:href="#DejaVuSans-2e" x="63.623047"/>
       <use xlink:href="#DejaVuSans-30" x="95.410156"/>
      </g>
     </g>
    </g>
    <g id="ytick_2">
     <g id="line2d_17">
      <g>
       <use xlink:href="#m06b00108c9" x="54.385" y="112.640236" style="stroke: #000000; stroke-width: 0.8"/>
      </g>
     </g>
     <g id="line2d_18">
      <g>
       <use xlink:href="#m716fcad080" x="723.985" y="112.640236" style="stroke: #000000; stroke-width: 0.8"/>
      </g>
     </g>
     <g id="text_10">
      <!-- 0.2 -->
      <g transform="translate(28.620625 117.959143)scale(0.14 -0.14)">
       <use xlink:href="#DejaVuSans-30"/>
       <use xlink:href="#DejaVuSans-2e" x="63.623047"/>
       <use xlink:href="#DejaVuSans-32" x="95.410156"/>
      </g>
     </g>
    </g>
    <g id="ytick_3">
     <g id="line2d_19">
      <g>
       <use xlink:href="#m06b00108c9" x="54.385" y="52.729356" style="stroke: #000000; stroke-width: 0.8"/>
      </g>
     </g>
     <g id="line2d_20">
      <g>
       <use xlink:href="#m716fcad080" x="723.985" y="52.729356" style="stroke: #000000; stroke-width: 0.8"/>
      </g>
     </g>
     <g id="text_11">
      <!-- 0.4 -->
      <g transform="translate(28.620625 58.048262)scale(0.14 -0.14)">
       <use xlink:href="#DejaVuSans-30"/>
       <use xlink:href="#DejaVuSans-2e" x="63.623047"/>
       <use xlink:href="#DejaVuSans-34" x="95.410156"/>
      </g>
     </g>
    </g>
    <g id="text_12">
     <!-- Characteristic Time (s) -->
     <g transform="translate(20.877187 211.303125)rotate(-90)scale(0.18 -0.18)">
      <defs>
       <path id="DejaVuSans-43" d="M 4122 4306 
L 4122 3641 
Q 3803 3938 3442 4084 
Q 3081 4231 2675 4231 
Q 1875 4231 1450 3742 
Q 1025 3253 1025 2328 
Q 1025 1406 1450 917 
Q 1875 428 2675 428 
Q 3081 428 3442 575 
Q 3803 722 4122 1019 
L 4122 359 
Q 3791 134 3420 21 
Q 3050 -91 2638 -91 
Q 1578 -91 968 557 
Q 359 1206 359 2328 
Q 359 3453 968 4101 
Q 1578 4750 2638 4750 
Q 3056 4750 3426 4639 
Q 3797 4528 4122 4306 
z
" transform="scale(0.015625)"/>
       <path id="DejaVuSans-68" d="M 3513 2113 
L 3513 0 
L 2938 0 
L 2938 2094 
Q 2938 2591 2744 2837 
Q 2550 3084 2163 3084 
Q 1697 3084 1428 2787 
Q 1159 2491 1159 1978 
L 1159 0 
L 581 0 
L 581 4863 
L 1159 4863 
L 1159 2956 
Q 1366 3272 1645 3428 
Q 1925 3584 2291 3584 
Q 2894 3584 3203 3211 
Q 3513 2838 3513 2113 
z
" transform="scale(0.015625)"/>
       <path id="DejaVuSans-61" d="M 2194 1759 
Q 1497 1759 1228 1600 
Q 959 1441 959 1056 
Q 959 750 1161 570 
Q 1363 391 1709 391 
Q 2188 391 2477 730 
Q 2766 1069 2766 1631 
L 2766 1759 
L 2194 1759 
z
M 3341 1997 
L 3341 0 
L 2766 0 
L 2766 531 
Q 2569 213 2275 61 
Q 1981 -91 1556 -91 
Q 1019 -91 701 211 
Q 384 513 384 1019 
Q 384 1609 779 1909 
Q 1175 2209 1959 2209 
L 2766 2209 
L 2766 2266 
Q 2766 2663 2505 2880 
Q 2244 3097 1772 3097 
Q 1472 3097 1187 3025 
Q 903 2953 641 2809 
L 641 3341 
Q 956 3463 1253 3523 
Q 1550 3584 1831 3584 
Q 2591 3584 2966 3190 
Q 3341 2797 3341 1997 
z
" transform="scale(0.015625)"/>
       <path id="DejaVuSans-72" d="M 2631 2963 
Q 2534 3019 2420 3045 
Q 2306 3072 2169 3072 
Q 1681 3072 1420 2755 
Q 1159 2438 1159 1844 
L 1159 0 
L 581 0 
L 581 3500 
L 1159 3500 
L 1159 2956 
Q 1341 3275 1631 3429 
Q 1922 3584 2338 3584 
Q 2397 3584 2469 3576 
Q 2541 3569 2628 3553 
L 2631 2963 
z
" transform="scale(0.015625)"/>
       <path id="DejaVuSans-63" d="M 3122 3366 
L 3122 2828 
Q 2878 2963 2633 3030 
Q 2388 3097 2138 3097 
Q 1578 3097 1268 2742 
Q 959 2388 959 1747 
Q 959 1106 1268 751 
Q 1578 397 2138 397 
Q 2388 397 2633 464 
Q 2878 531 3122 666 
L 3122 134 
Q 2881 22 2623 -34 
Q 2366 -91 2075 -91 
Q 1284 -91 818 406 
Q 353 903 353 1747 
Q 353 2603 823 3093 
Q 1294 3584 2113 3584 
Q 2378 3584 2631 3529 
Q 2884 3475 3122 3366 
z
" transform="scale(0.015625)"/>
       <path id="DejaVuSans-74" d="M 1172 4494 
L 1172 3500 
L 2356 3500 
L 2356 3053 
L 1172 3053 
L 1172 1153 
Q 1172 725 1289 603 
Q 1406 481 1766 481 
L 2356 481 
L 2356 0 
L 1766 0 
Q 1100 0 847 248 
Q 594 497 594 1153 
L 594 3053 
L 172 3053 
L 172 3500 
L 594 3500 
L 594 4494 
L 1172 4494 
z
" transform="scale(0.015625)"/>
      </defs>
      <use xlink:href="#DejaVuSans-43"/>
      <use xlink:href="#DejaVuSans-68" x="69.824219"/>
      <use xlink:href="#DejaVuSans-61" x="133.203125"/>
      <use xlink:href="#DejaVuSans-72" x="194.482422"/>
      <use xlink:href="#DejaVuSans-61" x="235.595703"/>
      <use xlink:href="#DejaVuSans-63" x="296.875"/>
      <use xlink:href="#DejaVuSans-74" x="351.855469"/>
      <use xlink:href="#DejaVuSans-65" x="391.064453"/>
      <use xlink:href="#DejaVuSans-72" x="452.587891"/>
      <use xlink:href="#DejaVuSans-69" x="493.701172"/>
      <use xlink:href="#DejaVuSans-73" x="521.484375"/>
      <use xlink:href="#DejaVuSans-74" x="573.583984"/>
      <use xlink:href="#DejaVuSans-69" x="612.792969"/>
      <use xlink:href="#DejaVuSans-63" x="640.576172"/>
      <use xlink:href="#DejaVuSans-20" x="695.556641"/>
      <use xlink:href="#DejaVuSans-54" x="727.34375"/>
      <use xlink:href="#DejaVuSans-69" x="785.302734"/>
      <use xlink:href="#DejaVuSans-6d" x="813.085938"/>
      <use xlink:href="#DejaVuSans-65" x="910.498047"/>
      <use xlink:href="#DejaVuSans-20" x="972.021484"/>
      <use xlink:href="#DejaVuSans-28" x="1003.808594"/>
      <use xlink:href="#DejaVuSans-73" x="1042.822266"/>
      <use xlink:href="#DejaVuSans-29" x="1094.921875"/>
     </g>
    </g>
   </g>
   <g id="line2d_21">
    <path d="M 69.390127 108.022257 
L 74.462855 97.390785 
L 79.535582 90.05603 
L 84.608309 113.340242 
L 89.681036 127.289878 
L 94.753764 131.727092 
L 99.826491 147.054987 
L 104.899218 168.309763 
L 109.971945 169.786803 
L 115.044673 170.604187 
L 120.1174 115.942178 
L 130.273 80.632326 
L 135.335582 142.6138 
L 140.408309 143.865329 
L 145.481036 144.863724 
L 150.543618 144.515643 
L 155.626491 150.65245 
L 160.689073 146.350822 
L 167.527109 134.374762 
L 170.834527 148.164786 
L 175.907255 147.716826 
L 180.990127 145.875755 
L 186.052709 145.103547 
L 206.171145 131.172187 
L 211.254018 147.193195 
L 216.3166 117.647205 
L 226.4722 65.25477 
L 231.544927 65.301067 
L 236.617655 171.898909 
L 241.690382 170.307857 
L 246.763109 171.044169 
L 251.835836 169.708156 
L 256.908564 168.504774 
L 261.991436 170.535386 
L 267.054018 170.523318 
L 277.209618 171.888307 
L 282.2722 96.474162 
L 287.334782 130.468269 
L 292.407509 106.240039 
L 297.480236 131.717943 
L 302.552964 144.590383 
L 307.625691 142.26431 
L 312.678127 125.406074 
L 336.215582 145.943216 
L 341.257873 129.832838 
L 347.020491 130.303599 
L 351.423618 149.331771 
L 356.455764 127.694468 
L 361.569073 140.099129 
L 366.611364 120.319201 
L 371.714527 145.564369 
L 376.777109 138.272676 
L 386.932709 144.051642 
L 391.995291 125.835791 
L 397.078164 143.309566 
L 407.223618 117.044434 
L 417.358927 105.912503 
L 427.504382 121.433473 
L 447.409764 167.485487 
L 449.093909 171.899606 
L 454.156491 169.26867 
L 457.514636 121.202799 
L 459.198782 51.618226 
L 462.546782 59.8296 
L 464.241073 145.225443 
L 465.935364 148.88479 
L 467.619509 138.954106 
L 469.293509 134.833676 
L 470.9878 140.041247 
L 472.671945 146.837182 
L 476.0098 131.001324 
L 477.724382 136.253058 
L 479.408527 51.286426 
L 481.062236 87.696839 
L 482.756527 113.66064 
L 484.460964 99.749858 
L 486.145109 104.920913 
L 487.829255 117.485691 
L 489.5134 132.306726 
L 491.197545 142.557229 
L 492.891836 136.698822 
L 494.565836 114.193219 
L 496.260127 150.481579 
L 497.944273 160.769479 
L 499.618273 49.855503 
L 502.986564 112.97525 
L 504.670709 171.869931 
L 506.354855 172.251562 
L 508.039 170.034494 
L 509.723145 168.760062 
L 514.775582 165.871198 
L 516.469873 156.701228 
L 518.143873 132.990782 
L 519.828018 133.214318 
L 521.522309 152.484357 
L 524.860164 136.038954 
L 526.5646 138.608825 
L 528.248745 134.818932 
L 529.932891 103.737998 
L 531.617036 136.47774 
L 533.301182 148.428559 
L 535.0462 50.871839 
L 536.750636 52.644352 
L 538.353618 126.526389 
L 540.098636 79.705241 
L 541.803073 131.186679 
L 543.385764 114.232681 
L 545.0902 118.04283 
L 546.774345 133.030053 
L 548.458491 52.535151 
L 550.142636 122.350226 
L 551.826782 111.806353 
L 553.521073 165.029107 
L 555.205218 86.420925 
L 556.889364 165.880458 
L 558.573509 149.902903 
L 561.9418 80.30085 
L 565.310091 171.927976 
L 566.994236 172.251562 
L 570.362527 172.251562 
L 573.456891 132.260609 
L 574.471436 64.745376 
L 578.194818 46.251562 
L 581.157291 96.469887 
L 582.841436 116.387284 
L 584.525582 168.564932 
L 586.209727 139.048303 
L 587.893873 111.492901 
L 589.578018 159.20882 
L 591.262164 88.303186 
L 592.905727 129.503458 
L 594.610164 74.638466 
L 596.3146 158.864919 
L 597.998745 129.04342 
L 599.652455 65.411596 
L 601.356891 131.933087 
L 603.051182 133.57552 
L 604.735327 125.202237 
L 606.419473 83.307927 
L 608.103618 156.170284 
L 609.787764 142.889528 
L 611.482055 128.003882 
L 613.156055 105.872198 
L 614.8402 146.521719 
L 616.534491 117.44111 
L 618.178055 82.314392 
L 619.872345 132.000051 
L 621.576782 141.208884 
L 623.260927 49.589908 
L 624.924782 126.729024 
L 626.629218 128.471223 
L 628.313364 159.081552 
L 630.007655 126.539402 
L 631.681655 62.655473 
L 633.3658 154.765512 
L 635.060091 114.832185 
L 638.418236 122.744202 
L 640.112527 167.134261 
L 641.796673 141.932677 
L 643.470673 74.390466 
L 645.154818 138.329002 
L 646.838964 110.164053 
L 648.523109 122.136424 
L 650.207255 126.480924 
L 651.8914 151.235915 
L 653.585691 149.407651 
L 655.269836 147.073839 
L 656.943836 125.755067 
L 658.638127 143.117049 
L 660.322273 133.953205 
L 661.529582 168.09605 
L 662.676018 172.251562 
L 663.781873 140.504543 
L 665.364564 125.048267 
L 667.058855 126.173923 
L 670.417 115.378554 
L 672.101145 138.601322 
L 673.795436 133.254891 
L 675.469436 129.651877 
L 677.153582 147.543505 
L 678.847873 84.683206 
L 682.206018 113.989708 
L 683.900309 146.765955 
L 685.584455 131.977699 
L 688.952745 124.948933 
L 690.636891 78.766169 
L 692.321036 148.284152 
L 695.689327 125.469624 
L 697.373473 148.842824 
L 699.067764 165.332234 
L 700.741764 89.65958 
L 702.425909 163.732101 
L 702.425909 163.732101 
" clip-path="url(#p152fa43877)" style="fill: none; stroke: #000000; stroke-width: 1.5; stroke-linecap: square"/>
    <defs>
     <path id="md201feace0" d="M 0 0.75 
C 0.198902 0.75 0.389685 0.670975 0.53033 0.53033 
C 0.670975 0.389685 0.75 0.198902 0.75 0 
C 0.75 -0.198902 0.670975 -0.389685 0.53033 -0.53033 
C 0.389685 -0.670975 0.198902 -0.75 0 -0.75 
C -0.198902 -0.75 -0.389685 -0.670975 -0.53033 -0.53033 
C -0.670975 -0.389685 -0.75 -0.198902 -0.75 0 
C -0.75 0.198902 -0.670975 0.389685 -0.53033 0.53033 
C -0.389685 0.670975 -0.198902 0.75 0 0.75 
z
" style="stroke: #000000"/>
    </defs>
    <g clip-path="url(#p152fa43877)">
     <use xlink:href="#md201feace0" x="69.390127" y="108.022257" style="stroke: #000000"/>
     <use xlink:href="#md201feace0" x="74.462855" y="97.390785" style="stroke: #000000"/>
     <use xlink:href="#md201feace0" x="79.535582" y="90.05603" style="stroke: #000000"/>
     <use xlink:href="#md201feace0" x="84.608309" y="113.340242" style="stroke: #000000"/>
     <use xlink:href="#md201feace0" x="89.681036" y="127.289878" style="stroke: #000000"/>
     <use xlink:href="#md201feace0" x="94.753764" y="131.727092" style="stroke: #000000"/>
     <use xlink:href="#md201feace0" x="99.826491" y="147.054987" style="stroke: #000000"/>
     <use xlink:href="#md201feace0" x="104.899218" y="168.309763" style="stroke: #000000"/>
     <use xlink:href="#md201feace0" x="109.971945" y="169.786803" style="stroke: #000000"/>
     <use xlink:href="#md201feace0" x="115.044673" y="170.604187" style="stroke: #000000"/>
     <use xlink:href="#md201feace0" x="120.1174" y="115.942178" style="stroke: #000000"/>
     <use xlink:href="#md201feace0" x="130.273" y="80.632326" style="stroke: #000000"/>
     <use xlink:href="#md201feace0" x="135.335582" y="142.6138" style="stroke: #000000"/>
     <use xlink:href="#md201feace0" x="140.408309" y="143.865329" style="stroke: #000000"/>
     <use xlink:href="#md201feace0" x="145.481036" y="144.863724" style="stroke: #000000"/>
     <use xlink:href="#md201feace0" x="150.543618" y="144.515643" style="stroke: #000000"/>
     <use xlink:href="#md201feace0" x="155.626491" y="150.65245" style="stroke: #000000"/>
     <use xlink:href="#md201feace0" x="160.689073" y="146.350822" style="stroke: #000000"/>
     <use xlink:href="#md201feace0" x="167.527109" y="134.374762" style="stroke: #000000"/>
     <use xlink:href="#md201feace0" x="170.834527" y="148.164786" style="stroke: #000000"/>
     <use xlink:href="#md201feace0" x="175.907255" y="147.716826" style="stroke: #000000"/>
     <use xlink:href="#md201feace0" x="180.990127" y="145.875755" style="stroke: #000000"/>
     <use xlink:href="#md201feace0" x="186.052709" y="145.103547" style="stroke: #000000"/>
     <use xlink:href="#md201feace0" x="206.171145" y="131.172187" style="stroke: #000000"/>
     <use xlink:href="#md201feace0" x="211.254018" y="147.193195" style="stroke: #000000"/>
     <use xlink:href="#md201feace0" x="216.3166" y="117.647205" style="stroke: #000000"/>
     <use xlink:href="#md201feace0" x="226.4722" y="65.25477" style="stroke: #000000"/>
     <use xlink:href="#md201feace0" x="231.544927" y="65.301067" style="stroke: #000000"/>
     <use xlink:href="#md201feace0" x="236.617655" y="171.898909" style="stroke: #000000"/>
     <use xlink:href="#md201feace0" x="241.690382" y="170.307857" style="stroke: #000000"/>
     <use xlink:href="#md201feace0" x="246.763109" y="171.044169" style="stroke: #000000"/>
     <use xlink:href="#md201feace0" x="251.835836" y="169.708156" style="stroke: #000000"/>
     <use xlink:href="#md201feace0" x="256.908564" y="168.504774" style="stroke: #000000"/>
     <use xlink:href="#md201feace0" x="261.991436" y="170.535386" style="stroke: #000000"/>
     <use xlink:href="#md201feace0" x="267.054018" y="170.523318" style="stroke: #000000"/>
     <use xlink:href="#md201feace0" x="272.1166" y="171.172413" style="stroke: #000000"/>
     <use xlink:href="#md201feace0" x="277.209618" y="171.888307" style="stroke: #000000"/>
     <use xlink:href="#md201feace0" x="282.2722" y="96.474162" style="stroke: #000000"/>
     <use xlink:href="#md201feace0" x="287.334782" y="130.468269" style="stroke: #000000"/>
     <use xlink:href="#md201feace0" x="292.407509" y="106.240039" style="stroke: #000000"/>
     <use xlink:href="#md201feace0" x="297.480236" y="131.717943" style="stroke: #000000"/>
     <use xlink:href="#md201feace0" x="302.552964" y="144.590383" style="stroke: #000000"/>
     <use xlink:href="#md201feace0" x="307.625691" y="142.26431" style="stroke: #000000"/>
     <use xlink:href="#md201feace0" x="312.678127" y="125.406074" style="stroke: #000000"/>
     <use xlink:href="#md201feace0" x="336.215582" y="145.943216" style="stroke: #000000"/>
     <use xlink:href="#md201feace0" x="341.257873" y="129.832838" style="stroke: #000000"/>
     <use xlink:href="#md201feace0" x="347.020491" y="130.303599" style="stroke: #000000"/>
     <use xlink:href="#md201feace0" x="351.423618" y="149.331771" style="stroke: #000000"/>
     <use xlink:href="#md201feace0" x="356.455764" y="127.694468" style="stroke: #000000"/>
     <use xlink:href="#md201feace0" x="361.569073" y="140.099129" style="stroke: #000000"/>
     <use xlink:href="#md201feace0" x="366.611364" y="120.319201" style="stroke: #000000"/>
     <use xlink:href="#md201feace0" x="371.714527" y="145.564369" style="stroke: #000000"/>
     <use xlink:href="#md201feace0" x="376.777109" y="138.272676" style="stroke: #000000"/>
     <use xlink:href="#md201feace0" x="386.932709" y="144.051642" style="stroke: #000000"/>
     <use xlink:href="#md201feace0" x="391.995291" y="125.835791" style="stroke: #000000"/>
     <use xlink:href="#md201feace0" x="397.078164" y="143.309566" style="stroke: #000000"/>
     <use xlink:href="#md201feace0" x="407.223618" y="117.044434" style="stroke: #000000"/>
     <use xlink:href="#md201feace0" x="417.358927" y="105.912503" style="stroke: #000000"/>
     <use xlink:href="#md201feace0" x="427.504382" y="121.433473" style="stroke: #000000"/>
     <use xlink:href="#md201feace0" x="447.409764" y="167.485487" style="stroke: #000000"/>
     <use xlink:href="#md201feace0" x="449.093909" y="171.899606" style="stroke: #000000"/>
     <use xlink:href="#md201feace0" x="454.156491" y="169.26867" style="stroke: #000000"/>
     <use xlink:href="#md201feace0" x="457.514636" y="121.202799" style="stroke: #000000"/>
     <use xlink:href="#md201feace0" x="459.198782" y="51.618226" style="stroke: #000000"/>
     <use xlink:href="#md201feace0" x="462.546782" y="59.8296" style="stroke: #000000"/>
     <use xlink:href="#md201feace0" x="464.241073" y="145.225443" style="stroke: #000000"/>
     <use xlink:href="#md201feace0" x="465.935364" y="148.88479" style="stroke: #000000"/>
     <use xlink:href="#md201feace0" x="467.619509" y="138.954106" style="stroke: #000000"/>
     <use xlink:href="#md201feace0" x="469.293509" y="134.833676" style="stroke: #000000"/>
     <use xlink:href="#md201feace0" x="470.9878" y="140.041247" style="stroke: #000000"/>
     <use xlink:href="#md201feace0" x="472.671945" y="146.837182" style="stroke: #000000"/>
     <use xlink:href="#md201feace0" x="476.0098" y="131.001324" style="stroke: #000000"/>
     <use xlink:href="#md201feace0" x="477.724382" y="136.253058" style="stroke: #000000"/>
     <use xlink:href="#md201feace0" x="479.408527" y="51.286426" style="stroke: #000000"/>
     <use xlink:href="#md201feace0" x="481.062236" y="87.696839" style="stroke: #000000"/>
     <use xlink:href="#md201feace0" x="482.756527" y="113.66064" style="stroke: #000000"/>
     <use xlink:href="#md201feace0" x="484.460964" y="99.749858" style="stroke: #000000"/>
     <use xlink:href="#md201feace0" x="486.145109" y="104.920913" style="stroke: #000000"/>
     <use xlink:href="#md201feace0" x="487.829255" y="117.485691" style="stroke: #000000"/>
     <use xlink:href="#md201feace0" x="489.5134" y="132.306726" style="stroke: #000000"/>
     <use xlink:href="#md201feace0" x="491.197545" y="142.557229" style="stroke: #000000"/>
     <use xlink:href="#md201feace0" x="492.891836" y="136.698822" style="stroke: #000000"/>
     <use xlink:href="#md201feace0" x="494.565836" y="114.193219" style="stroke: #000000"/>
     <use xlink:href="#md201feace0" x="496.260127" y="150.481579" style="stroke: #000000"/>
     <use xlink:href="#md201feace0" x="497.944273" y="160.769479" style="stroke: #000000"/>
     <use xlink:href="#md201feace0" x="499.618273" y="49.855503" style="stroke: #000000"/>
     <use xlink:href="#md201feace0" x="502.986564" y="112.97525" style="stroke: #000000"/>
     <use xlink:href="#md201feace0" x="504.670709" y="171.869931" style="stroke: #000000"/>
     <use xlink:href="#md201feace0" x="506.354855" y="172.251562" style="stroke: #000000"/>
     <use xlink:href="#md201feace0" x="508.039" y="170.034494" style="stroke: #000000"/>
     <use xlink:href="#md201feace0" x="509.723145" y="168.760062" style="stroke: #000000"/>
     <use xlink:href="#md201feace0" x="514.775582" y="165.871198" style="stroke: #000000"/>
     <use xlink:href="#md201feace0" x="516.469873" y="156.701228" style="stroke: #000000"/>
     <use xlink:href="#md201feace0" x="518.143873" y="132.990782" style="stroke: #000000"/>
     <use xlink:href="#md201feace0" x="519.828018" y="133.214318" style="stroke: #000000"/>
     <use xlink:href="#md201feace0" x="521.522309" y="152.484357" style="stroke: #000000"/>
     <use xlink:href="#md201feace0" x="524.860164" y="136.038954" style="stroke: #000000"/>
     <use xlink:href="#md201feace0" x="526.5646" y="138.608825" style="stroke: #000000"/>
     <use xlink:href="#md201feace0" x="528.248745" y="134.818932" style="stroke: #000000"/>
     <use xlink:href="#md201feace0" x="529.932891" y="103.737998" style="stroke: #000000"/>
     <use xlink:href="#md201feace0" x="531.617036" y="136.47774" style="stroke: #000000"/>
     <use xlink:href="#md201feace0" x="533.301182" y="148.428559" style="stroke: #000000"/>
     <use xlink:href="#md201feace0" x="535.0462" y="50.871839" style="stroke: #000000"/>
     <use xlink:href="#md201feace0" x="536.750636" y="52.644352" style="stroke: #000000"/>
     <use xlink:href="#md201feace0" x="538.353618" y="126.526389" style="stroke: #000000"/>
     <use xlink:href="#md201feace0" x="540.098636" y="79.705241" style="stroke: #000000"/>
     <use xlink:href="#md201feace0" x="541.803073" y="131.186679" style="stroke: #000000"/>
     <use xlink:href="#md201feace0" x="543.385764" y="114.232681" style="stroke: #000000"/>
     <use xlink:href="#md201feace0" x="545.0902" y="118.04283" style="stroke: #000000"/>
     <use xlink:href="#md201feace0" x="546.774345" y="133.030053" style="stroke: #000000"/>
     <use xlink:href="#md201feace0" x="548.458491" y="52.535151" style="stroke: #000000"/>
     <use xlink:href="#md201feace0" x="550.142636" y="122.350226" style="stroke: #000000"/>
     <use xlink:href="#md201feace0" x="551.826782" y="111.806353" style="stroke: #000000"/>
     <use xlink:href="#md201feace0" x="553.521073" y="165.029107" style="stroke: #000000"/>
     <use xlink:href="#md201feace0" x="555.205218" y="86.420925" style="stroke: #000000"/>
     <use xlink:href="#md201feace0" x="556.889364" y="165.880458" style="stroke: #000000"/>
     <use xlink:href="#md201feace0" x="558.573509" y="149.902903" style="stroke: #000000"/>
     <use xlink:href="#md201feace0" x="561.9418" y="80.30085" style="stroke: #000000"/>
     <use xlink:href="#md201feace0" x="565.310091" y="171.927976" style="stroke: #000000"/>
     <use xlink:href="#md201feace0" x="566.994236" y="172.251562" style="stroke: #000000"/>
     <use xlink:href="#md201feace0" x="568.678382" y="172.251562" style="stroke: #000000"/>
     <use xlink:href="#md201feace0" x="570.362527" y="172.251562" style="stroke: #000000"/>
     <use xlink:href="#md201feace0" x="573.456891" y="132.260609" style="stroke: #000000"/>
     <use xlink:href="#md201feace0" x="574.471436" y="64.745376" style="stroke: #000000"/>
     <use xlink:href="#md201feace0" x="578.194818" y="46.251562" style="stroke: #000000"/>
     <use xlink:href="#md201feace0" x="581.157291" y="96.469887" style="stroke: #000000"/>
     <use xlink:href="#md201feace0" x="582.841436" y="116.387284" style="stroke: #000000"/>
     <use xlink:href="#md201feace0" x="584.525582" y="168.564932" style="stroke: #000000"/>
     <use xlink:href="#md201feace0" x="586.209727" y="139.048303" style="stroke: #000000"/>
     <use xlink:href="#md201feace0" x="587.893873" y="111.492901" style="stroke: #000000"/>
     <use xlink:href="#md201feace0" x="589.578018" y="159.20882" style="stroke: #000000"/>
     <use xlink:href="#md201feace0" x="591.262164" y="88.303186" style="stroke: #000000"/>
     <use xlink:href="#md201feace0" x="592.905727" y="129.503458" style="stroke: #000000"/>
     <use xlink:href="#md201feace0" x="594.610164" y="74.638466" style="stroke: #000000"/>
     <use xlink:href="#md201feace0" x="596.3146" y="158.864919" style="stroke: #000000"/>
     <use xlink:href="#md201feace0" x="597.998745" y="129.04342" style="stroke: #000000"/>
     <use xlink:href="#md201feace0" x="599.652455" y="65.411596" style="stroke: #000000"/>
     <use xlink:href="#md201feace0" x="601.356891" y="131.933087" style="stroke: #000000"/>
     <use xlink:href="#md201feace0" x="603.051182" y="133.57552" style="stroke: #000000"/>
     <use xlink:href="#md201feace0" x="604.735327" y="125.202237" style="stroke: #000000"/>
     <use xlink:href="#md201feace0" x="606.419473" y="83.307927" style="stroke: #000000"/>
     <use xlink:href="#md201feace0" x="608.103618" y="156.170284" style="stroke: #000000"/>
     <use xlink:href="#md201feace0" x="609.787764" y="142.889528" style="stroke: #000000"/>
     <use xlink:href="#md201feace0" x="611.482055" y="128.003882" style="stroke: #000000"/>
     <use xlink:href="#md201feace0" x="613.156055" y="105.872198" style="stroke: #000000"/>
     <use xlink:href="#md201feace0" x="614.8402" y="146.521719" style="stroke: #000000"/>
     <use xlink:href="#md201feace0" x="616.534491" y="117.44111" style="stroke: #000000"/>
     <use xlink:href="#md201feace0" x="618.178055" y="82.314392" style="stroke: #000000"/>
     <use xlink:href="#md201feace0" x="619.872345" y="132.000051" style="stroke: #000000"/>
     <use xlink:href="#md201feace0" x="621.576782" y="141.208884" style="stroke: #000000"/>
     <use xlink:href="#md201feace0" x="623.260927" y="49.589908" style="stroke: #000000"/>
     <use xlink:href="#md201feace0" x="624.924782" y="126.729024" style="stroke: #000000"/>
     <use xlink:href="#md201feace0" x="626.629218" y="128.471223" style="stroke: #000000"/>
     <use xlink:href="#md201feace0" x="628.313364" y="159.081552" style="stroke: #000000"/>
     <use xlink:href="#md201feace0" x="630.007655" y="126.539402" style="stroke: #000000"/>
     <use xlink:href="#md201feace0" x="631.681655" y="62.655473" style="stroke: #000000"/>
     <use xlink:href="#md201feace0" x="633.3658" y="154.765512" style="stroke: #000000"/>
     <use xlink:href="#md201feace0" x="635.060091" y="114.832185" style="stroke: #000000"/>
     <use xlink:href="#md201feace0" x="638.418236" y="122.744202" style="stroke: #000000"/>
     <use xlink:href="#md201feace0" x="640.112527" y="167.134261" style="stroke: #000000"/>
     <use xlink:href="#md201feace0" x="641.796673" y="141.932677" style="stroke: #000000"/>
     <use xlink:href="#md201feace0" x="643.470673" y="74.390466" style="stroke: #000000"/>
     <use xlink:href="#md201feace0" x="645.154818" y="138.329002" style="stroke: #000000"/>
     <use xlink:href="#md201feace0" x="646.838964" y="110.164053" style="stroke: #000000"/>
     <use xlink:href="#md201feace0" x="648.523109" y="122.136424" style="stroke: #000000"/>
     <use xlink:href="#md201feace0" x="650.207255" y="126.480924" style="stroke: #000000"/>
     <use xlink:href="#md201feace0" x="651.8914" y="151.235915" style="stroke: #000000"/>
     <use xlink:href="#md201feace0" x="653.585691" y="149.407651" style="stroke: #000000"/>
     <use xlink:href="#md201feace0" x="655.269836" y="147.073839" style="stroke: #000000"/>
     <use xlink:href="#md201feace0" x="656.943836" y="125.755067" style="stroke: #000000"/>
     <use xlink:href="#md201feace0" x="658.638127" y="143.117049" style="stroke: #000000"/>
     <use xlink:href="#md201feace0" x="660.322273" y="133.953205" style="stroke: #000000"/>
     <use xlink:href="#md201feace0" x="661.529582" y="168.09605" style="stroke: #000000"/>
     <use xlink:href="#md201feace0" x="662.676018" y="172.251562" style="stroke: #000000"/>
     <use xlink:href="#md201feace0" x="663.781873" y="140.504543" style="stroke: #000000"/>
     <use xlink:href="#md201feace0" x="665.364564" y="125.048267" style="stroke: #000000"/>
     <use xlink:href="#md201feace0" x="667.058855" y="126.173923" style="stroke: #000000"/>
     <use xlink:href="#md201feace0" x="670.417" y="115.378554" style="stroke: #000000"/>
     <use xlink:href="#md201feace0" x="672.101145" y="138.601322" style="stroke: #000000"/>
     <use xlink:href="#md201feace0" x="673.795436" y="133.254891" style="stroke: #000000"/>
     <use xlink:href="#md201feace0" x="675.469436" y="129.651877" style="stroke: #000000"/>
     <use xlink:href="#md201feace0" x="677.153582" y="147.543505" style="stroke: #000000"/>
     <use xlink:href="#md201feace0" x="678.847873" y="84.683206" style="stroke: #000000"/>
     <use xlink:href="#md201feace0" x="680.603036" y="100.180274" style="stroke: #000000"/>
     <use xlink:href="#md201feace0" x="682.206018" y="113.989708" style="stroke: #000000"/>
     <use xlink:href="#md201feace0" x="683.900309" y="146.765955" style="stroke: #000000"/>
     <use xlink:href="#md201feace0" x="685.584455" y="131.977699" style="stroke: #000000"/>
     <use xlink:href="#md201feace0" x="688.952745" y="124.948933" style="stroke: #000000"/>
     <use xlink:href="#md201feace0" x="690.636891" y="78.766169" style="stroke: #000000"/>
     <use xlink:href="#md201feace0" x="692.321036" y="148.284152" style="stroke: #000000"/>
     <use xlink:href="#md201feace0" x="695.689327" y="125.469624" style="stroke: #000000"/>
     <use xlink:href="#md201feace0" x="697.373473" y="148.842824" style="stroke: #000000"/>
     <use xlink:href="#md201feace0" x="699.067764" y="165.332234" style="stroke: #000000"/>
     <use xlink:href="#md201feace0" x="700.741764" y="89.65958" style="stroke: #000000"/>
     <use xlink:href="#md201feace0" x="702.425909" y="163.732101" style="stroke: #000000"/>
    </g>
   </g>
   <g id="line2d_22">
    <path d="M 69.390127 128.114261 
L 74.462855 116.272086 
L 79.535582 107.219839 
L 84.608309 111.960805 
L 89.681036 121.893646 
L 94.753764 137.544392 
L 99.826491 148.833704 
L 104.899218 157.496566 
L 109.971945 154.339583 
L 115.044673 141.055051 
L 120.1174 135.915859 
L 130.273 130.731564 
L 135.335582 125.583471 
L 140.408309 131.298165 
L 145.481036 145.302189 
L 150.543618 146.049594 
L 155.626491 144.15148 
L 160.689073 144.811693 
L 167.527109 145.451929 
L 170.834527 144.49659 
L 175.907255 144.247135 
L 180.990127 143.60662 
L 186.052709 143.412302 
L 206.171145 137.398378 
L 216.3166 105.313685 
L 226.4722 113.459029 
L 231.544927 118.081962 
L 236.617655 128.761355 
L 246.763109 170.292773 
L 251.835836 170.020068 
L 261.991436 170.088809 
L 267.054018 170.52484 
L 272.1166 156.118717 
L 277.209618 148.105294 
L 282.2722 135.248638 
L 287.334782 127.357744 
L 292.407509 121.898159 
L 297.480236 131.056189 
L 302.552964 130.04375 
L 307.625691 137.984385 
L 312.678127 137.607364 
L 336.215582 134.750007 
L 341.257873 136.1635 
L 347.020491 136.621179 
L 351.423618 135.452361 
L 356.455764 133.549634 
L 361.569073 136.601788 
L 366.611364 134.389968 
L 371.714527 137.661403 
L 376.777109 134.808736 
L 386.932709 139.406809 
L 391.995291 133.702822 
L 397.078164 127.230787 
L 407.223618 122.707153 
L 417.358927 131.037093 
L 427.504382 136.755101 
L 447.409764 147.199948 
L 449.093909 150.258007 
L 454.156491 136.294958 
L 457.514636 114.76378 
L 459.198782 109.428948 
L 462.546782 105.352171 
L 464.241073 108.902433 
L 467.619509 141.587853 
L 469.293509 141.9102 
L 470.9878 138.333507 
L 472.671945 137.793298 
L 476.0098 121.083847 
L 477.724382 110.614966 
L 481.062236 97.729364 
L 482.756527 91.462935 
L 484.460964 104.702788 
L 486.145109 113.624765 
L 487.829255 119.404083 
L 489.5134 126.793876 
L 491.197545 128.648338 
L 492.891836 135.247515 
L 494.565836 140.940066 
L 496.260127 122.39972 
L 497.944273 117.655006 
L 499.618273 129.190348 
L 502.986564 133.544345 
L 504.670709 135.397348 
L 506.354855 159.17826 
L 508.039 169.75745 
L 509.723145 166.723709 
L 514.775582 158.871553 
L 516.469873 151.507518 
L 518.143873 148.252377 
L 519.828018 142.285928 
L 521.522309 138.667447 
L 524.860164 139.033077 
L 526.5646 133.137813 
L 528.248745 129.93649 
L 529.932891 132.414411 
L 533.301182 98.432098 
L 535.0462 102.989776 
L 536.750636 91.635276 
L 538.353618 88.1869 
L 541.803073 113.938764 
L 543.385764 115.239497 
L 545.0902 109.805479 
L 546.774345 108.038188 
L 548.458491 107.552923 
L 550.142636 116.950178 
L 551.826782 107.628352 
L 553.521073 130.297414 
L 555.205218 135.807949 
L 556.889364 129.506849 
L 558.573509 130.886622 
L 561.9418 148.05275 
L 565.310091 149.326971 
L 566.994236 153.796703 
L 568.678382 164.188655 
L 570.362527 142.752135 
L 573.456891 117.552135 
L 574.471436 102.395799 
L 578.194818 91.222944 
L 581.157291 98.483808 
L 582.841436 113.344394 
L 586.209727 138.940448 
L 587.893873 133.323629 
L 589.578018 125.511334 
L 591.262164 112.629366 
L 592.905727 122.10377 
L 594.610164 116.07069 
L 596.3146 111.492372 
L 597.998745 111.978298 
L 599.652455 123.765708 
L 601.356891 117.033172 
L 603.051182 107.886073 
L 604.735327 126.037811 
L 606.419473 128.229099 
L 608.103618 127.114771 
L 609.787764 123.248764 
L 611.482055 135.891522 
L 613.156055 128.145687 
L 614.8402 116.03066 
L 616.534491 116.829894 
L 618.178055 123.897231 
L 619.872345 104.510869 
L 621.576782 106.368452 
L 623.260927 115.599818 
L 624.924782 121.016118 
L 626.629218 118.082222 
L 628.313364 120.695335 
L 630.007655 126.302633 
L 631.681655 123.574825 
L 633.3658 116.307355 
L 638.418236 140.281768 
L 640.112527 124.206758 
L 641.796673 128.906122 
L 643.470673 126.390092 
L 645.154818 117.390524 
L 646.838964 114.300174 
L 648.523109 129.669264 
L 650.207255 131.884993 
L 651.8914 139.266951 
L 653.585691 139.990679 
L 655.269836 143.317904 
L 656.943836 139.861362 
L 658.638127 143.599042 
L 660.322273 148.634587 
L 661.529582 151.584482 
L 662.676018 147.970725 
L 663.781873 146.414869 
L 665.364564 135.87137 
L 667.058855 129.141322 
L 670.417 127.691391 
L 672.101145 128.612113 
L 673.795436 132.88603 
L 675.469436 126.74696 
L 677.153582 119.062751 
L 678.847873 115.209714 
L 680.603036 118.63253 
L 682.206018 115.519369 
L 683.900309 123.572514 
L 685.584455 119.289693 
L 688.952745 126.148582 
L 690.636891 121.889315 
L 692.321036 125.26234 
L 695.689327 133.339 
L 697.373473 135.517683 
L 699.067764 138.607273 
L 700.741764 148.023571 
L 702.425909 152.76523 
L 702.425909 152.76523 
" clip-path="url(#p152fa43877)" style="fill: none; stroke: #ff0000; stroke-width: 1.5; stroke-linecap: square"/>
    <defs>
     <path id="m4f340ee4ff" d="M 0 0.75 
C 0.198902 0.75 0.389685 0.670975 0.53033 0.53033 
C 0.670975 0.389685 0.75 0.198902 0.75 0 
C 0.75 -0.198902 0.670975 -0.389685 0.53033 -0.53033 
C 0.389685 -0.670975 0.198902 -0.75 0 -0.75 
C -0.198902 -0.75 -0.389685 -0.670975 -0.53033 -0.53033 
C -0.670975 -0.389685 -0.75 -0.198902 -0.75 0 
C -0.75 0.198902 -0.670975 0.389685 -0.53033 0.53033 
C -0.389685 0.670975 -0.198902 0.75 0 0.75 
z
" style="stroke: #ff0000"/>
    </defs>
    <g clip-path="url(#p152fa43877)">
     <use xlink:href="#m4f340ee4ff" x="69.390127" y="128.114261" style="fill: #ff0000; stroke: #ff0000"/>
     <use xlink:href="#m4f340ee4ff" x="74.462855" y="116.272086" style="fill: #ff0000; stroke: #ff0000"/>
     <use xlink:href="#m4f340ee4ff" x="79.535582" y="107.219839" style="fill: #ff0000; stroke: #ff0000"/>
     <use xlink:href="#m4f340ee4ff" x="84.608309" y="111.960805" style="fill: #ff0000; stroke: #ff0000"/>
     <use xlink:href="#m4f340ee4ff" x="89.681036" y="121.893646" style="fill: #ff0000; stroke: #ff0000"/>
     <use xlink:href="#m4f340ee4ff" x="94.753764" y="137.544392" style="fill: #ff0000; stroke: #ff0000"/>
     <use xlink:href="#m4f340ee4ff" x="99.826491" y="148.833704" style="fill: #ff0000; stroke: #ff0000"/>
     <use xlink:href="#m4f340ee4ff" x="104.899218" y="157.496566" style="fill: #ff0000; stroke: #ff0000"/>
     <use xlink:href="#m4f340ee4ff" x="109.971945" y="154.339583" style="fill: #ff0000; stroke: #ff0000"/>
     <use xlink:href="#m4f340ee4ff" x="115.044673" y="141.055051" style="fill: #ff0000; stroke: #ff0000"/>
     <use xlink:href="#m4f340ee4ff" x="120.1174" y="135.915859" style="fill: #ff0000; stroke: #ff0000"/>
     <use xlink:href="#m4f340ee4ff" x="130.273" y="130.731564" style="fill: #ff0000; stroke: #ff0000"/>
     <use xlink:href="#m4f340ee4ff" x="135.335582" y="125.583471" style="fill: #ff0000; stroke: #ff0000"/>
     <use xlink:href="#m4f340ee4ff" x="140.408309" y="131.298165" style="fill: #ff0000; stroke: #ff0000"/>
     <use xlink:href="#m4f340ee4ff" x="145.481036" y="145.302189" style="fill: #ff0000; stroke: #ff0000"/>
     <use xlink:href="#m4f340ee4ff" x="150.543618" y="146.049594" style="fill: #ff0000; stroke: #ff0000"/>
     <use xlink:href="#m4f340ee4ff" x="155.626491" y="144.15148" style="fill: #ff0000; stroke: #ff0000"/>
     <use xlink:href="#m4f340ee4ff" x="160.689073" y="144.811693" style="fill: #ff0000; stroke: #ff0000"/>
     <use xlink:href="#m4f340ee4ff" x="167.527109" y="145.451929" style="fill: #ff0000; stroke: #ff0000"/>
     <use xlink:href="#m4f340ee4ff" x="170.834527" y="144.49659" style="fill: #ff0000; stroke: #ff0000"/>
     <use xlink:href="#m4f340ee4ff" x="175.907255" y="144.247135" style="fill: #ff0000; stroke: #ff0000"/>
     <use xlink:href="#m4f340ee4ff" x="180.990127" y="143.60662" style="fill: #ff0000; stroke: #ff0000"/>
     <use xlink:href="#m4f340ee4ff" x="186.052709" y="143.412302" style="fill: #ff0000; stroke: #ff0000"/>
     <use xlink:href="#m4f340ee4ff" x="206.171145" y="137.398378" style="fill: #ff0000; stroke: #ff0000"/>
     <use xlink:href="#m4f340ee4ff" x="211.254018" y="121.274181" style="fill: #ff0000; stroke: #ff0000"/>
     <use xlink:href="#m4f340ee4ff" x="216.3166" y="105.313685" style="fill: #ff0000; stroke: #ff0000"/>
     <use xlink:href="#m4f340ee4ff" x="226.4722" y="113.459029" style="fill: #ff0000; stroke: #ff0000"/>
     <use xlink:href="#m4f340ee4ff" x="231.544927" y="118.081962" style="fill: #ff0000; stroke: #ff0000"/>
     <use xlink:href="#m4f340ee4ff" x="236.617655" y="128.761355" style="fill: #ff0000; stroke: #ff0000"/>
     <use xlink:href="#m4f340ee4ff" x="241.690382" y="149.652032" style="fill: #ff0000; stroke: #ff0000"/>
     <use xlink:href="#m4f340ee4ff" x="246.763109" y="170.292773" style="fill: #ff0000; stroke: #ff0000"/>
     <use xlink:href="#m4f340ee4ff" x="251.835836" y="170.020068" style="fill: #ff0000; stroke: #ff0000"/>
     <use xlink:href="#m4f340ee4ff" x="256.908564" y="170.063161" style="fill: #ff0000; stroke: #ff0000"/>
     <use xlink:href="#m4f340ee4ff" x="261.991436" y="170.088809" style="fill: #ff0000; stroke: #ff0000"/>
     <use xlink:href="#m4f340ee4ff" x="267.054018" y="170.52484" style="fill: #ff0000; stroke: #ff0000"/>
     <use xlink:href="#m4f340ee4ff" x="272.1166" y="156.118717" style="fill: #ff0000; stroke: #ff0000"/>
     <use xlink:href="#m4f340ee4ff" x="277.209618" y="148.105294" style="fill: #ff0000; stroke: #ff0000"/>
     <use xlink:href="#m4f340ee4ff" x="282.2722" y="135.248638" style="fill: #ff0000; stroke: #ff0000"/>
     <use xlink:href="#m4f340ee4ff" x="287.334782" y="127.357744" style="fill: #ff0000; stroke: #ff0000"/>
     <use xlink:href="#m4f340ee4ff" x="292.407509" y="121.898159" style="fill: #ff0000; stroke: #ff0000"/>
     <use xlink:href="#m4f340ee4ff" x="297.480236" y="131.056189" style="fill: #ff0000; stroke: #ff0000"/>
     <use xlink:href="#m4f340ee4ff" x="302.552964" y="130.04375" style="fill: #ff0000; stroke: #ff0000"/>
     <use xlink:href="#m4f340ee4ff" x="307.625691" y="137.984385" style="fill: #ff0000; stroke: #ff0000"/>
     <use xlink:href="#m4f340ee4ff" x="312.678127" y="137.607364" style="fill: #ff0000; stroke: #ff0000"/>
     <use xlink:href="#m4f340ee4ff" x="336.215582" y="134.750007" style="fill: #ff0000; stroke: #ff0000"/>
     <use xlink:href="#m4f340ee4ff" x="341.257873" y="136.1635" style="fill: #ff0000; stroke: #ff0000"/>
     <use xlink:href="#m4f340ee4ff" x="347.020491" y="136.621179" style="fill: #ff0000; stroke: #ff0000"/>
     <use xlink:href="#m4f340ee4ff" x="351.423618" y="135.452361" style="fill: #ff0000; stroke: #ff0000"/>
     <use xlink:href="#m4f340ee4ff" x="356.455764" y="133.549634" style="fill: #ff0000; stroke: #ff0000"/>
     <use xlink:href="#m4f340ee4ff" x="361.569073" y="136.601788" style="fill: #ff0000; stroke: #ff0000"/>
     <use xlink:href="#m4f340ee4ff" x="366.611364" y="134.389968" style="fill: #ff0000; stroke: #ff0000"/>
     <use xlink:href="#m4f340ee4ff" x="371.714527" y="137.661403" style="fill: #ff0000; stroke: #ff0000"/>
     <use xlink:href="#m4f340ee4ff" x="376.777109" y="134.808736" style="fill: #ff0000; stroke: #ff0000"/>
     <use xlink:href="#m4f340ee4ff" x="386.932709" y="139.406809" style="fill: #ff0000; stroke: #ff0000"/>
     <use xlink:href="#m4f340ee4ff" x="391.995291" y="133.702822" style="fill: #ff0000; stroke: #ff0000"/>
     <use xlink:href="#m4f340ee4ff" x="397.078164" y="127.230787" style="fill: #ff0000; stroke: #ff0000"/>
     <use xlink:href="#m4f340ee4ff" x="407.223618" y="122.707153" style="fill: #ff0000; stroke: #ff0000"/>
     <use xlink:href="#m4f340ee4ff" x="417.358927" y="131.037093" style="fill: #ff0000; stroke: #ff0000"/>
     <use xlink:href="#m4f340ee4ff" x="427.504382" y="136.755101" style="fill: #ff0000; stroke: #ff0000"/>
     <use xlink:href="#m4f340ee4ff" x="447.409764" y="147.199948" style="fill: #ff0000; stroke: #ff0000"/>
     <use xlink:href="#m4f340ee4ff" x="449.093909" y="150.258007" style="fill: #ff0000; stroke: #ff0000"/>
     <use xlink:href="#m4f340ee4ff" x="454.156491" y="136.294958" style="fill: #ff0000; stroke: #ff0000"/>
     <use xlink:href="#m4f340ee4ff" x="457.514636" y="114.76378" style="fill: #ff0000; stroke: #ff0000"/>
     <use xlink:href="#m4f340ee4ff" x="459.198782" y="109.428948" style="fill: #ff0000; stroke: #ff0000"/>
     <use xlink:href="#m4f340ee4ff" x="462.546782" y="105.352171" style="fill: #ff0000; stroke: #ff0000"/>
     <use xlink:href="#m4f340ee4ff" x="464.241073" y="108.902433" style="fill: #ff0000; stroke: #ff0000"/>
     <use xlink:href="#m4f340ee4ff" x="465.935364" y="125.545523" style="fill: #ff0000; stroke: #ff0000"/>
     <use xlink:href="#m4f340ee4ff" x="467.619509" y="141.587853" style="fill: #ff0000; stroke: #ff0000"/>
     <use xlink:href="#m4f340ee4ff" x="469.293509" y="141.9102" style="fill: #ff0000; stroke: #ff0000"/>
     <use xlink:href="#m4f340ee4ff" x="470.9878" y="138.333507" style="fill: #ff0000; stroke: #ff0000"/>
     <use xlink:href="#m4f340ee4ff" x="472.671945" y="137.793298" style="fill: #ff0000; stroke: #ff0000"/>
     <use xlink:href="#m4f340ee4ff" x="476.0098" y="121.083847" style="fill: #ff0000; stroke: #ff0000"/>
     <use xlink:href="#m4f340ee4ff" x="477.724382" y="110.614966" style="fill: #ff0000; stroke: #ff0000"/>
     <use xlink:href="#m4f340ee4ff" x="479.408527" y="103.979657" style="fill: #ff0000; stroke: #ff0000"/>
     <use xlink:href="#m4f340ee4ff" x="481.062236" y="97.729364" style="fill: #ff0000; stroke: #ff0000"/>
     <use xlink:href="#m4f340ee4ff" x="482.756527" y="91.462935" style="fill: #ff0000; stroke: #ff0000"/>
     <use xlink:href="#m4f340ee4ff" x="484.460964" y="104.702788" style="fill: #ff0000; stroke: #ff0000"/>
     <use xlink:href="#m4f340ee4ff" x="486.145109" y="113.624765" style="fill: #ff0000; stroke: #ff0000"/>
     <use xlink:href="#m4f340ee4ff" x="487.829255" y="119.404083" style="fill: #ff0000; stroke: #ff0000"/>
     <use xlink:href="#m4f340ee4ff" x="489.5134" y="126.793876" style="fill: #ff0000; stroke: #ff0000"/>
     <use xlink:href="#m4f340ee4ff" x="491.197545" y="128.648338" style="fill: #ff0000; stroke: #ff0000"/>
     <use xlink:href="#m4f340ee4ff" x="492.891836" y="135.247515" style="fill: #ff0000; stroke: #ff0000"/>
     <use xlink:href="#m4f340ee4ff" x="494.565836" y="140.940066" style="fill: #ff0000; stroke: #ff0000"/>
     <use xlink:href="#m4f340ee4ff" x="496.260127" y="122.39972" style="fill: #ff0000; stroke: #ff0000"/>
     <use xlink:href="#m4f340ee4ff" x="497.944273" y="117.655006" style="fill: #ff0000; stroke: #ff0000"/>
     <use xlink:href="#m4f340ee4ff" x="499.618273" y="129.190348" style="fill: #ff0000; stroke: #ff0000"/>
     <use xlink:href="#m4f340ee4ff" x="502.986564" y="133.544345" style="fill: #ff0000; stroke: #ff0000"/>
     <use xlink:href="#m4f340ee4ff" x="504.670709" y="135.397348" style="fill: #ff0000; stroke: #ff0000"/>
     <use xlink:href="#m4f340ee4ff" x="506.354855" y="159.17826" style="fill: #ff0000; stroke: #ff0000"/>
     <use xlink:href="#m4f340ee4ff" x="508.039" y="169.75745" style="fill: #ff0000; stroke: #ff0000"/>
     <use xlink:href="#m4f340ee4ff" x="509.723145" y="166.723709" style="fill: #ff0000; stroke: #ff0000"/>
     <use xlink:href="#m4f340ee4ff" x="514.775582" y="158.871553" style="fill: #ff0000; stroke: #ff0000"/>
     <use xlink:href="#m4f340ee4ff" x="516.469873" y="151.507518" style="fill: #ff0000; stroke: #ff0000"/>
     <use xlink:href="#m4f340ee4ff" x="518.143873" y="148.252377" style="fill: #ff0000; stroke: #ff0000"/>
     <use xlink:href="#m4f340ee4ff" x="519.828018" y="142.285928" style="fill: #ff0000; stroke: #ff0000"/>
     <use xlink:href="#m4f340ee4ff" x="521.522309" y="138.667447" style="fill: #ff0000; stroke: #ff0000"/>
     <use xlink:href="#m4f340ee4ff" x="524.860164" y="139.033077" style="fill: #ff0000; stroke: #ff0000"/>
     <use xlink:href="#m4f340ee4ff" x="526.5646" y="133.137813" style="fill: #ff0000; stroke: #ff0000"/>
     <use xlink:href="#m4f340ee4ff" x="528.248745" y="129.93649" style="fill: #ff0000; stroke: #ff0000"/>
     <use xlink:href="#m4f340ee4ff" x="529.932891" y="132.414411" style="fill: #ff0000; stroke: #ff0000"/>
     <use xlink:href="#m4f340ee4ff" x="531.617036" y="114.867014" style="fill: #ff0000; stroke: #ff0000"/>
     <use xlink:href="#m4f340ee4ff" x="533.301182" y="98.432098" style="fill: #ff0000; stroke: #ff0000"/>
     <use xlink:href="#m4f340ee4ff" x="535.0462" y="102.989776" style="fill: #ff0000; stroke: #ff0000"/>
     <use xlink:href="#m4f340ee4ff" x="536.750636" y="91.635276" style="fill: #ff0000; stroke: #ff0000"/>
     <use xlink:href="#m4f340ee4ff" x="538.353618" y="88.1869" style="fill: #ff0000; stroke: #ff0000"/>
     <use xlink:href="#m4f340ee4ff" x="540.098636" y="100.859068" style="fill: #ff0000; stroke: #ff0000"/>
     <use xlink:href="#m4f340ee4ff" x="541.803073" y="113.938764" style="fill: #ff0000; stroke: #ff0000"/>
     <use xlink:href="#m4f340ee4ff" x="543.385764" y="115.239497" style="fill: #ff0000; stroke: #ff0000"/>
     <use xlink:href="#m4f340ee4ff" x="545.0902" y="109.805479" style="fill: #ff0000; stroke: #ff0000"/>
     <use xlink:href="#m4f340ee4ff" x="546.774345" y="108.038188" style="fill: #ff0000; stroke: #ff0000"/>
     <use xlink:href="#m4f340ee4ff" x="548.458491" y="107.552923" style="fill: #ff0000; stroke: #ff0000"/>
     <use xlink:href="#m4f340ee4ff" x="550.142636" y="116.950178" style="fill: #ff0000; stroke: #ff0000"/>
     <use xlink:href="#m4f340ee4ff" x="551.826782" y="107.628352" style="fill: #ff0000; stroke: #ff0000"/>
     <use xlink:href="#m4f340ee4ff" x="553.521073" y="130.297414" style="fill: #ff0000; stroke: #ff0000"/>
     <use xlink:href="#m4f340ee4ff" x="555.205218" y="135.807949" style="fill: #ff0000; stroke: #ff0000"/>
     <use xlink:href="#m4f340ee4ff" x="556.889364" y="129.506849" style="fill: #ff0000; stroke: #ff0000"/>
     <use xlink:href="#m4f340ee4ff" x="558.573509" y="130.886622" style="fill: #ff0000; stroke: #ff0000"/>
     <use xlink:href="#m4f340ee4ff" x="561.9418" y="148.05275" style="fill: #ff0000; stroke: #ff0000"/>
     <use xlink:href="#m4f340ee4ff" x="565.310091" y="149.326971" style="fill: #ff0000; stroke: #ff0000"/>
     <use xlink:href="#m4f340ee4ff" x="566.994236" y="153.796703" style="fill: #ff0000; stroke: #ff0000"/>
     <use xlink:href="#m4f340ee4ff" x="568.678382" y="164.188655" style="fill: #ff0000; stroke: #ff0000"/>
     <use xlink:href="#m4f340ee4ff" x="570.362527" y="142.752135" style="fill: #ff0000; stroke: #ff0000"/>
     <use xlink:href="#m4f340ee4ff" x="573.456891" y="117.552135" style="fill: #ff0000; stroke: #ff0000"/>
     <use xlink:href="#m4f340ee4ff" x="574.471436" y="102.395799" style="fill: #ff0000; stroke: #ff0000"/>
     <use xlink:href="#m4f340ee4ff" x="578.194818" y="91.222944" style="fill: #ff0000; stroke: #ff0000"/>
     <use xlink:href="#m4f340ee4ff" x="581.157291" y="98.483808" style="fill: #ff0000; stroke: #ff0000"/>
     <use xlink:href="#m4f340ee4ff" x="582.841436" y="113.344394" style="fill: #ff0000; stroke: #ff0000"/>
     <use xlink:href="#m4f340ee4ff" x="584.525582" y="126.392662" style="fill: #ff0000; stroke: #ff0000"/>
     <use xlink:href="#m4f340ee4ff" x="586.209727" y="138.940448" style="fill: #ff0000; stroke: #ff0000"/>
     <use xlink:href="#m4f340ee4ff" x="587.893873" y="133.323629" style="fill: #ff0000; stroke: #ff0000"/>
     <use xlink:href="#m4f340ee4ff" x="589.578018" y="125.511334" style="fill: #ff0000; stroke: #ff0000"/>
     <use xlink:href="#m4f340ee4ff" x="591.262164" y="112.629366" style="fill: #ff0000; stroke: #ff0000"/>
     <use xlink:href="#m4f340ee4ff" x="592.905727" y="122.10377" style="fill: #ff0000; stroke: #ff0000"/>
     <use xlink:href="#m4f340ee4ff" x="594.610164" y="116.07069" style="fill: #ff0000; stroke: #ff0000"/>
     <use xlink:href="#m4f340ee4ff" x="596.3146" y="111.492372" style="fill: #ff0000; stroke: #ff0000"/>
     <use xlink:href="#m4f340ee4ff" x="597.998745" y="111.978298" style="fill: #ff0000; stroke: #ff0000"/>
     <use xlink:href="#m4f340ee4ff" x="599.652455" y="123.765708" style="fill: #ff0000; stroke: #ff0000"/>
     <use xlink:href="#m4f340ee4ff" x="601.356891" y="117.033172" style="fill: #ff0000; stroke: #ff0000"/>
     <use xlink:href="#m4f340ee4ff" x="603.051182" y="107.886073" style="fill: #ff0000; stroke: #ff0000"/>
     <use xlink:href="#m4f340ee4ff" x="604.735327" y="126.037811" style="fill: #ff0000; stroke: #ff0000"/>
     <use xlink:href="#m4f340ee4ff" x="606.419473" y="128.229099" style="fill: #ff0000; stroke: #ff0000"/>
     <use xlink:href="#m4f340ee4ff" x="608.103618" y="127.114771" style="fill: #ff0000; stroke: #ff0000"/>
     <use xlink:href="#m4f340ee4ff" x="609.787764" y="123.248764" style="fill: #ff0000; stroke: #ff0000"/>
     <use xlink:href="#m4f340ee4ff" x="611.482055" y="135.891522" style="fill: #ff0000; stroke: #ff0000"/>
     <use xlink:href="#m4f340ee4ff" x="613.156055" y="128.145687" style="fill: #ff0000; stroke: #ff0000"/>
     <use xlink:href="#m4f340ee4ff" x="614.8402" y="116.03066" style="fill: #ff0000; stroke: #ff0000"/>
     <use xlink:href="#m4f340ee4ff" x="616.534491" y="116.829894" style="fill: #ff0000; stroke: #ff0000"/>
     <use xlink:href="#m4f340ee4ff" x="618.178055" y="123.897231" style="fill: #ff0000; stroke: #ff0000"/>
     <use xlink:href="#m4f340ee4ff" x="619.872345" y="104.510869" style="fill: #ff0000; stroke: #ff0000"/>
     <use xlink:href="#m4f340ee4ff" x="621.576782" y="106.368452" style="fill: #ff0000; stroke: #ff0000"/>
     <use xlink:href="#m4f340ee4ff" x="623.260927" y="115.599818" style="fill: #ff0000; stroke: #ff0000"/>
     <use xlink:href="#m4f340ee4ff" x="624.924782" y="121.016118" style="fill: #ff0000; stroke: #ff0000"/>
     <use xlink:href="#m4f340ee4ff" x="626.629218" y="118.082222" style="fill: #ff0000; stroke: #ff0000"/>
     <use xlink:href="#m4f340ee4ff" x="628.313364" y="120.695335" style="fill: #ff0000; stroke: #ff0000"/>
     <use xlink:href="#m4f340ee4ff" x="630.007655" y="126.302633" style="fill: #ff0000; stroke: #ff0000"/>
     <use xlink:href="#m4f340ee4ff" x="631.681655" y="123.574825" style="fill: #ff0000; stroke: #ff0000"/>
     <use xlink:href="#m4f340ee4ff" x="633.3658" y="116.307355" style="fill: #ff0000; stroke: #ff0000"/>
     <use xlink:href="#m4f340ee4ff" x="635.060091" y="124.426327" style="fill: #ff0000; stroke: #ff0000"/>
     <use xlink:href="#m4f340ee4ff" x="638.418236" y="140.281768" style="fill: #ff0000; stroke: #ff0000"/>
     <use xlink:href="#m4f340ee4ff" x="640.112527" y="124.206758" style="fill: #ff0000; stroke: #ff0000"/>
     <use xlink:href="#m4f340ee4ff" x="641.796673" y="128.906122" style="fill: #ff0000; stroke: #ff0000"/>
     <use xlink:href="#m4f340ee4ff" x="643.470673" y="126.390092" style="fill: #ff0000; stroke: #ff0000"/>
     <use xlink:href="#m4f340ee4ff" x="645.154818" y="117.390524" style="fill: #ff0000; stroke: #ff0000"/>
     <use xlink:href="#m4f340ee4ff" x="646.838964" y="114.300174" style="fill: #ff0000; stroke: #ff0000"/>
     <use xlink:href="#m4f340ee4ff" x="648.523109" y="129.669264" style="fill: #ff0000; stroke: #ff0000"/>
     <use xlink:href="#m4f340ee4ff" x="650.207255" y="131.884993" style="fill: #ff0000; stroke: #ff0000"/>
     <use xlink:href="#m4f340ee4ff" x="651.8914" y="139.266951" style="fill: #ff0000; stroke: #ff0000"/>
     <use xlink:href="#m4f340ee4ff" x="653.585691" y="139.990679" style="fill: #ff0000; stroke: #ff0000"/>
     <use xlink:href="#m4f340ee4ff" x="655.269836" y="143.317904" style="fill: #ff0000; stroke: #ff0000"/>
     <use xlink:href="#m4f340ee4ff" x="656.943836" y="139.861362" style="fill: #ff0000; stroke: #ff0000"/>
     <use xlink:href="#m4f340ee4ff" x="658.638127" y="143.599042" style="fill: #ff0000; stroke: #ff0000"/>
     <use xlink:href="#m4f340ee4ff" x="660.322273" y="148.634587" style="fill: #ff0000; stroke: #ff0000"/>
     <use xlink:href="#m4f340ee4ff" x="661.529582" y="151.584482" style="fill: #ff0000; stroke: #ff0000"/>
     <use xlink:href="#m4f340ee4ff" x="662.676018" y="147.970725" style="fill: #ff0000; stroke: #ff0000"/>
     <use xlink:href="#m4f340ee4ff" x="663.781873" y="146.414869" style="fill: #ff0000; stroke: #ff0000"/>
     <use xlink:href="#m4f340ee4ff" x="665.364564" y="135.87137" style="fill: #ff0000; stroke: #ff0000"/>
     <use xlink:href="#m4f340ee4ff" x="667.058855" y="129.141322" style="fill: #ff0000; stroke: #ff0000"/>
     <use xlink:href="#m4f340ee4ff" x="670.417" y="127.691391" style="fill: #ff0000; stroke: #ff0000"/>
     <use xlink:href="#m4f340ee4ff" x="672.101145" y="128.612113" style="fill: #ff0000; stroke: #ff0000"/>
     <use xlink:href="#m4f340ee4ff" x="673.795436" y="132.88603" style="fill: #ff0000; stroke: #ff0000"/>
     <use xlink:href="#m4f340ee4ff" x="675.469436" y="126.74696" style="fill: #ff0000; stroke: #ff0000"/>
     <use xlink:href="#m4f340ee4ff" x="677.153582" y="119.062751" style="fill: #ff0000; stroke: #ff0000"/>
     <use xlink:href="#m4f340ee4ff" x="678.847873" y="115.209714" style="fill: #ff0000; stroke: #ff0000"/>
     <use xlink:href="#m4f340ee4ff" x="680.603036" y="118.63253" style="fill: #ff0000; stroke: #ff0000"/>
     <use xlink:href="#m4f340ee4ff" x="682.206018" y="115.519369" style="fill: #ff0000; stroke: #ff0000"/>
     <use xlink:href="#m4f340ee4ff" x="683.900309" y="123.572514" style="fill: #ff0000; stroke: #ff0000"/>
     <use xlink:href="#m4f340ee4ff" x="685.584455" y="119.289693" style="fill: #ff0000; stroke: #ff0000"/>
     <use xlink:href="#m4f340ee4ff" x="688.952745" y="126.148582" style="fill: #ff0000; stroke: #ff0000"/>
     <use xlink:href="#m4f340ee4ff" x="690.636891" y="121.889315" style="fill: #ff0000; stroke: #ff0000"/>
     <use xlink:href="#m4f340ee4ff" x="692.321036" y="125.26234" style="fill: #ff0000; stroke: #ff0000"/>
     <use xlink:href="#m4f340ee4ff" x="695.689327" y="133.339" style="fill: #ff0000; stroke: #ff0000"/>
     <use xlink:href="#m4f340ee4ff" x="697.373473" y="135.517683" style="fill: #ff0000; stroke: #ff0000"/>
     <use xlink:href="#m4f340ee4ff" x="699.067764" y="138.607273" style="fill: #ff0000; stroke: #ff0000"/>
     <use xlink:href="#m4f340ee4ff" x="700.741764" y="148.023571" style="fill: #ff0000; stroke: #ff0000"/>
     <use xlink:href="#m4f340ee4ff" x="702.425909" y="152.76523" style="fill: #ff0000; stroke: #ff0000"/>
    </g>
   </g>
   <g id="patch_3">
    <path d="M 54.385 178.551562 
L 54.385 39.951562 
" style="fill: none; stroke: #000000; stroke-width: 0.8; stroke-linejoin: miter; stroke-linecap: square"/>
   </g>
   <g id="patch_4">
    <path d="M 723.985 178.551562 
L 723.985 39.951562 
" style="fill: none; stroke: #000000; stroke-width: 0.8; stroke-linejoin: miter; stroke-linecap: square"/>
   </g>
   <g id="patch_5">
    <path d="M 54.385 178.551562 
L 723.985 178.551562 
" style="fill: none; stroke: #000000; stroke-width: 0.8; stroke-linejoin: miter; stroke-linecap: square"/>
   </g>
   <g id="patch_6">
    <path d="M 54.385 39.951562 
L 723.985 39.951562 
" style="fill: none; stroke: #000000; stroke-width: 0.8; stroke-linejoin: miter; stroke-linecap: square"/>
   </g>
  </g>
 </g>
 <defs>
  <clipPath id="p152fa43877">
   <rect x="54.385" y="39.951562" width="669.6" height="138.6"/>
  </clipPath>
 </defs>
</svg>
