<?xml version="1.0" encoding="utf-8" standalone="no"?>
<!DOCTYPE svg PUBLIC "-//W3C//DTD SVG 1.1//EN"
  "http://www.w3.org/Graphics/SVG/1.1/DTD/svg11.dtd">
<svg xmlns:xlink="http://www.w3.org/1999/xlink" width="731.185pt" height="224.221562pt" viewBox="0 0 731.185 224.221562" xmlns="http://www.w3.org/2000/svg" version="1.1">
 <metadata>
  <rdf:RDF xmlns:dc="http://purl.org/dc/elements/1.1/" xmlns:cc="http://creativecommons.org/ns#" xmlns:rdf="http://www.w3.org/1999/02/22-rdf-syntax-ns#">
   <cc:Work>
    <dc:type rdf:resource="http://purl.org/dc/dcmitype/StillImage"/>
    <dc:date>2023-03-24T17:35:31.237529</dc:date>
    <dc:format>image/svg+xml</dc:format>
    <dc:creator>
     <cc:Agent>
      <dc:title>Matplotlib v3.5.2, https://matplotlib.org/</dc:title>
     </cc:Agent>
    </dc:creator>
   </cc:Work>
  </rdf:RDF>
 </metadata>
 <defs>
  <style type="text/css">*{stroke-linejoin: round; stroke-linecap: butt}</style>
 </defs>
 <g id="figure_1">
  <g id="patch_1">
   <path d="M 0 224.221562 
L 731.185 224.221562 
L 731.185 -0 
L 0 -0 
z
" style="fill: #ffffff"/>
  </g>
  <g id="axes_1">
   <g id="patch_2">
    <path d="M 54.385 178.551562 
L 723.985 178.551562 
L 723.985 39.951562 
L 54.385 39.951562 
z
" style="fill: #ffffff"/>
   </g>
   <g id="matplotlib.axis_1">
    <g id="xtick_1">
     <g id="line2d_1">
      <defs>
       <path id="mcb61038022" d="M 0 0 
L 0 -3.5 
" style="stroke: #000000; stroke-width: 0.8"/>
      </defs>
      <g>
       <use xlink:href="#mcb61038022" x="64.929882" y="178.551562" style="stroke: #000000; stroke-width: 0.8"/>
      </g>
     </g>
     <g id="line2d_2">
      <defs>
       <path id="m317bb63cec" d="M 0 0 
L 0 3.5 
" style="stroke: #000000; stroke-width: 0.8"/>
      </defs>
      <g>
       <use xlink:href="#m317bb63cec" x="64.929882" y="39.951562" style="stroke: #000000; stroke-width: 0.8"/>
      </g>
     </g>
     <g id="text_1">
      <!-- 0 -->
      <g transform="translate(60.476132 192.689375)scale(0.14 -0.14)">
       <defs>
        <path id="DejaVuSans-30" d="M 2034 4250 
Q 1547 4250 1301 3770 
Q 1056 3291 1056 2328 
Q 1056 1369 1301 889 
Q 1547 409 2034 409 
Q 2525 409 2770 889 
Q 3016 1369 3016 2328 
Q 3016 3291 2770 3770 
Q 2525 4250 2034 4250 
z
M 2034 4750 
Q 2819 4750 3233 4129 
Q 3647 3509 3647 2328 
Q 3647 1150 3233 529 
Q 2819 -91 2034 -91 
Q 1250 -91 836 529 
Q 422 1150 422 2328 
Q 422 3509 836 4129 
Q 1250 4750 2034 4750 
z
" transform="scale(0.015625)"/>
       </defs>
       <use xlink:href="#DejaVuSans-30"/>
      </g>
     </g>
    </g>
    <g id="xtick_2">
     <g id="line2d_3">
      <g>
       <use xlink:href="#mcb61038022" x="170.378701" y="178.551562" style="stroke: #000000; stroke-width: 0.8"/>
      </g>
     </g>
     <g id="line2d_4">
      <g>
       <use xlink:href="#m317bb63cec" x="170.378701" y="39.951562" style="stroke: #000000; stroke-width: 0.8"/>
      </g>
     </g>
     <g id="text_2">
      <!-- 20 -->
      <g transform="translate(161.471201 192.689375)scale(0.14 -0.14)">
       <defs>
        <path id="DejaVuSans-32" d="M 1228 531 
L 3431 531 
L 3431 0 
L 469 0 
L 469 531 
Q 828 903 1448 1529 
Q 2069 2156 2228 2338 
Q 2531 2678 2651 2914 
Q 2772 3150 2772 3378 
Q 2772 3750 2511 3984 
Q 2250 4219 1831 4219 
Q 1534 4219 1204 4116 
Q 875 4013 500 3803 
L 500 4441 
Q 881 4594 1212 4672 
Q 1544 4750 1819 4750 
Q 2544 4750 2975 4387 
Q 3406 4025 3406 3419 
Q 3406 3131 3298 2873 
Q 3191 2616 2906 2266 
Q 2828 2175 2409 1742 
Q 1991 1309 1228 531 
z
" transform="scale(0.015625)"/>
       </defs>
       <use xlink:href="#DejaVuSans-32"/>
       <use xlink:href="#DejaVuSans-30" x="63.623047"/>
      </g>
     </g>
    </g>
    <g id="xtick_3">
     <g id="line2d_5">
      <g>
       <use xlink:href="#mcb61038022" x="275.82752" y="178.551562" style="stroke: #000000; stroke-width: 0.8"/>
      </g>
     </g>
     <g id="line2d_6">
      <g>
       <use xlink:href="#m317bb63cec" x="275.82752" y="39.951562" style="stroke: #000000; stroke-width: 0.8"/>
      </g>
     </g>
     <g id="text_3">
      <!-- 40 -->
      <g transform="translate(266.92002 192.689375)scale(0.14 -0.14)">
       <defs>
        <path id="DejaVuSans-34" d="M 2419 4116 
L 825 1625 
L 2419 1625 
L 2419 4116 
z
M 2253 4666 
L 3047 4666 
L 3047 1625 
L 3713 1625 
L 3713 1100 
L 3047 1100 
L 3047 0 
L 2419 0 
L 2419 1100 
L 313 1100 
L 313 1709 
L 2253 4666 
z
" transform="scale(0.015625)"/>
       </defs>
       <use xlink:href="#DejaVuSans-34"/>
       <use xlink:href="#DejaVuSans-30" x="63.623047"/>
      </g>
     </g>
    </g>
    <g id="xtick_4">
     <g id="line2d_7">
      <g>
       <use xlink:href="#mcb61038022" x="381.276339" y="178.551562" style="stroke: #000000; stroke-width: 0.8"/>
      </g>
     </g>
     <g id="line2d_8">
      <g>
       <use xlink:href="#m317bb63cec" x="381.276339" y="39.951562" style="stroke: #000000; stroke-width: 0.8"/>
      </g>
     </g>
     <g id="text_4">
      <!-- 60 -->
      <g transform="translate(372.368839 192.689375)scale(0.14 -0.14)">
       <defs>
        <path id="DejaVuSans-36" d="M 2113 2584 
Q 1688 2584 1439 2293 
Q 1191 2003 1191 1497 
Q 1191 994 1439 701 
Q 1688 409 2113 409 
Q 2538 409 2786 701 
Q 3034 994 3034 1497 
Q 3034 2003 2786 2293 
Q 2538 2584 2113 2584 
z
M 3366 4563 
L 3366 3988 
Q 3128 4100 2886 4159 
Q 2644 4219 2406 4219 
Q 1781 4219 1451 3797 
Q 1122 3375 1075 2522 
Q 1259 2794 1537 2939 
Q 1816 3084 2150 3084 
Q 2853 3084 3261 2657 
Q 3669 2231 3669 1497 
Q 3669 778 3244 343 
Q 2819 -91 2113 -91 
Q 1303 -91 875 529 
Q 447 1150 447 2328 
Q 447 3434 972 4092 
Q 1497 4750 2381 4750 
Q 2619 4750 2861 4703 
Q 3103 4656 3366 4563 
z
" transform="scale(0.015625)"/>
       </defs>
       <use xlink:href="#DejaVuSans-36"/>
       <use xlink:href="#DejaVuSans-30" x="63.623047"/>
      </g>
     </g>
    </g>
    <g id="xtick_5">
     <g id="line2d_9">
      <g>
       <use xlink:href="#mcb61038022" x="486.725157" y="178.551562" style="stroke: #000000; stroke-width: 0.8"/>
      </g>
     </g>
     <g id="line2d_10">
      <g>
       <use xlink:href="#m317bb63cec" x="486.725157" y="39.951562" style="stroke: #000000; stroke-width: 0.8"/>
      </g>
     </g>
     <g id="text_5">
      <!-- 80 -->
      <g transform="translate(477.817657 192.689375)scale(0.14 -0.14)">
       <defs>
        <path id="DejaVuSans-38" d="M 2034 2216 
Q 1584 2216 1326 1975 
Q 1069 1734 1069 1313 
Q 1069 891 1326 650 
Q 1584 409 2034 409 
Q 2484 409 2743 651 
Q 3003 894 3003 1313 
Q 3003 1734 2745 1975 
Q 2488 2216 2034 2216 
z
M 1403 2484 
Q 997 2584 770 2862 
Q 544 3141 544 3541 
Q 544 4100 942 4425 
Q 1341 4750 2034 4750 
Q 2731 4750 3128 4425 
Q 3525 4100 3525 3541 
Q 3525 3141 3298 2862 
Q 3072 2584 2669 2484 
Q 3125 2378 3379 2068 
Q 3634 1759 3634 1313 
Q 3634 634 3220 271 
Q 2806 -91 2034 -91 
Q 1263 -91 848 271 
Q 434 634 434 1313 
Q 434 1759 690 2068 
Q 947 2378 1403 2484 
z
M 1172 3481 
Q 1172 3119 1398 2916 
Q 1625 2713 2034 2713 
Q 2441 2713 2670 2916 
Q 2900 3119 2900 3481 
Q 2900 3844 2670 4047 
Q 2441 4250 2034 4250 
Q 1625 4250 1398 4047 
Q 1172 3844 1172 3481 
z
" transform="scale(0.015625)"/>
       </defs>
       <use xlink:href="#DejaVuSans-38"/>
       <use xlink:href="#DejaVuSans-30" x="63.623047"/>
      </g>
     </g>
    </g>
    <g id="xtick_6">
     <g id="line2d_11">
      <g>
       <use xlink:href="#mcb61038022" x="592.173976" y="178.551562" style="stroke: #000000; stroke-width: 0.8"/>
      </g>
     </g>
     <g id="line2d_12">
      <g>
       <use xlink:href="#m317bb63cec" x="592.173976" y="39.951562" style="stroke: #000000; stroke-width: 0.8"/>
      </g>
     </g>
     <g id="text_6">
      <!-- 100 -->
      <g transform="translate(578.812726 192.689375)scale(0.14 -0.14)">
       <defs>
        <path id="DejaVuSans-31" d="M 794 531 
L 1825 531 
L 1825 4091 
L 703 3866 
L 703 4441 
L 1819 4666 
L 2450 4666 
L 2450 531 
L 3481 531 
L 3481 0 
L 794 0 
L 794 531 
z
" transform="scale(0.015625)"/>
       </defs>
       <use xlink:href="#DejaVuSans-31"/>
       <use xlink:href="#DejaVuSans-30" x="63.623047"/>
       <use xlink:href="#DejaVuSans-30" x="127.246094"/>
      </g>
     </g>
    </g>
    <g id="xtick_7">
     <g id="line2d_13">
      <g>
       <use xlink:href="#mcb61038022" x="697.622795" y="178.551562" style="stroke: #000000; stroke-width: 0.8"/>
      </g>
     </g>
     <g id="line2d_14">
      <g>
       <use xlink:href="#m317bb63cec" x="697.622795" y="39.951562" style="stroke: #000000; stroke-width: 0.8"/>
      </g>
     </g>
     <g id="text_7">
      <!-- 120 -->
      <g transform="translate(684.261545 192.689375)scale(0.14 -0.14)">
       <use xlink:href="#DejaVuSans-31"/>
       <use xlink:href="#DejaVuSans-32" x="63.623047"/>
       <use xlink:href="#DejaVuSans-30" x="127.246094"/>
      </g>
     </g>
    </g>
    <g id="text_8">
     <!-- Time (s) -->
     <g transform="translate(352.592969 213.278125)scale(0.18 -0.18)">
      <defs>
       <path id="DejaVuSans-54" d="M -19 4666 
L 3928 4666 
L 3928 4134 
L 2272 4134 
L 2272 0 
L 1638 0 
L 1638 4134 
L -19 4134 
L -19 4666 
z
" transform="scale(0.015625)"/>
       <path id="DejaVuSans-69" d="M 603 3500 
L 1178 3500 
L 1178 0 
L 603 0 
L 603 3500 
z
M 603 4863 
L 1178 4863 
L 1178 4134 
L 603 4134 
L 603 4863 
z
" transform="scale(0.015625)"/>
       <path id="DejaVuSans-6d" d="M 3328 2828 
Q 3544 3216 3844 3400 
Q 4144 3584 4550 3584 
Q 5097 3584 5394 3201 
Q 5691 2819 5691 2113 
L 5691 0 
L 5113 0 
L 5113 2094 
Q 5113 2597 4934 2840 
Q 4756 3084 4391 3084 
Q 3944 3084 3684 2787 
Q 3425 2491 3425 1978 
L 3425 0 
L 2847 0 
L 2847 2094 
Q 2847 2600 2669 2842 
Q 2491 3084 2119 3084 
Q 1678 3084 1418 2786 
Q 1159 2488 1159 1978 
L 1159 0 
L 581 0 
L 581 3500 
L 1159 3500 
L 1159 2956 
Q 1356 3278 1631 3431 
Q 1906 3584 2284 3584 
Q 2666 3584 2933 3390 
Q 3200 3197 3328 2828 
z
" transform="scale(0.015625)"/>
       <path id="DejaVuSans-65" d="M 3597 1894 
L 3597 1613 
L 953 1613 
Q 991 1019 1311 708 
Q 1631 397 2203 397 
Q 2534 397 2845 478 
Q 3156 559 3463 722 
L 3463 178 
Q 3153 47 2828 -22 
Q 2503 -91 2169 -91 
Q 1331 -91 842 396 
Q 353 884 353 1716 
Q 353 2575 817 3079 
Q 1281 3584 2069 3584 
Q 2775 3584 3186 3129 
Q 3597 2675 3597 1894 
z
M 3022 2063 
Q 3016 2534 2758 2815 
Q 2500 3097 2075 3097 
Q 1594 3097 1305 2825 
Q 1016 2553 972 2059 
L 3022 2063 
z
" transform="scale(0.015625)"/>
       <path id="DejaVuSans-20" transform="scale(0.015625)"/>
       <path id="DejaVuSans-28" d="M 1984 4856 
Q 1566 4138 1362 3434 
Q 1159 2731 1159 2009 
Q 1159 1288 1364 580 
Q 1569 -128 1984 -844 
L 1484 -844 
Q 1016 -109 783 600 
Q 550 1309 550 2009 
Q 550 2706 781 3412 
Q 1013 4119 1484 4856 
L 1984 4856 
z
" transform="scale(0.015625)"/>
       <path id="DejaVuSans-73" d="M 2834 3397 
L 2834 2853 
Q 2591 2978 2328 3040 
Q 2066 3103 1784 3103 
Q 1356 3103 1142 2972 
Q 928 2841 928 2578 
Q 928 2378 1081 2264 
Q 1234 2150 1697 2047 
L 1894 2003 
Q 2506 1872 2764 1633 
Q 3022 1394 3022 966 
Q 3022 478 2636 193 
Q 2250 -91 1575 -91 
Q 1294 -91 989 -36 
Q 684 19 347 128 
L 347 722 
Q 666 556 975 473 
Q 1284 391 1588 391 
Q 1994 391 2212 530 
Q 2431 669 2431 922 
Q 2431 1156 2273 1281 
Q 2116 1406 1581 1522 
L 1381 1569 
Q 847 1681 609 1914 
Q 372 2147 372 2553 
Q 372 3047 722 3315 
Q 1072 3584 1716 3584 
Q 2034 3584 2315 3537 
Q 2597 3491 2834 3397 
z
" transform="scale(0.015625)"/>
       <path id="DejaVuSans-29" d="M 513 4856 
L 1013 4856 
Q 1481 4119 1714 3412 
Q 1947 2706 1947 2009 
Q 1947 1309 1714 600 
Q 1481 -109 1013 -844 
L 513 -844 
Q 928 -128 1133 580 
Q 1338 1288 1338 2009 
Q 1338 2731 1133 3434 
Q 928 4138 513 4856 
z
" transform="scale(0.015625)"/>
      </defs>
      <use xlink:href="#DejaVuSans-54"/>
      <use xlink:href="#DejaVuSans-69" x="57.958984"/>
      <use xlink:href="#DejaVuSans-6d" x="85.742188"/>
      <use xlink:href="#DejaVuSans-65" x="183.154297"/>
      <use xlink:href="#DejaVuSans-20" x="244.677734"/>
      <use xlink:href="#DejaVuSans-28" x="276.464844"/>
      <use xlink:href="#DejaVuSans-73" x="315.478516"/>
      <use xlink:href="#DejaVuSans-29" x="367.578125"/>
     </g>
    </g>
   </g>
   <g id="matplotlib.axis_2">
    <g id="ytick_1">
     <g id="line2d_15">
      <defs>
       <path id="m19e471dea8" d="M 0 0 
L 3.5 0 
" style="stroke: #000000; stroke-width: 0.8"/>
      </defs>
      <g>
       <use xlink:href="#m19e471dea8" x="54.385" y="172.690598" style="stroke: #000000; stroke-width: 0.8"/>
      </g>
     </g>
     <g id="line2d_16">
      <defs>
       <path id="m16878fe5e3" d="M 0 0 
L -3.5 0 
" style="stroke: #000000; stroke-width: 0.8"/>
      </defs>
      <g>
       <use xlink:href="#m16878fe5e3" x="723.985" y="172.690598" style="stroke: #000000; stroke-width: 0.8"/>
      </g>
     </g>
     <g id="text_9">
      <!-- 0.0 -->
      <g transform="translate(28.620625 178.009504)scale(0.14 -0.14)">
       <defs>
        <path id="DejaVuSans-2e" d="M 684 794 
L 1344 794 
L 1344 0 
L 684 0 
L 684 794 
z
" transform="scale(0.015625)"/>
       </defs>
       <use xlink:href="#DejaVuSans-30"/>
       <use xlink:href="#DejaVuSans-2e" x="63.623047"/>
       <use xlink:href="#DejaVuSans-30" x="95.410156"/>
      </g>
     </g>
    </g>
    <g id="ytick_2">
     <g id="line2d_17">
      <g>
       <use xlink:href="#m19e471dea8" x="54.385" y="128.787027" style="stroke: #000000; stroke-width: 0.8"/>
      </g>
     </g>
     <g id="line2d_18">
      <g>
       <use xlink:href="#m16878fe5e3" x="723.985" y="128.787027" style="stroke: #000000; stroke-width: 0.8"/>
      </g>
     </g>
     <g id="text_10">
      <!-- 0.1 -->
      <g transform="translate(28.620625 134.105933)scale(0.14 -0.14)">
       <use xlink:href="#DejaVuSans-30"/>
       <use xlink:href="#DejaVuSans-2e" x="63.623047"/>
       <use xlink:href="#DejaVuSans-31" x="95.410156"/>
      </g>
     </g>
    </g>
    <g id="ytick_3">
     <g id="line2d_19">
      <g>
       <use xlink:href="#m19e471dea8" x="54.385" y="84.883455" style="stroke: #000000; stroke-width: 0.8"/>
      </g>
     </g>
     <g id="line2d_20">
      <g>
       <use xlink:href="#m16878fe5e3" x="723.985" y="84.883455" style="stroke: #000000; stroke-width: 0.8"/>
      </g>
     </g>
     <g id="text_11">
      <!-- 0.2 -->
      <g transform="translate(28.620625 90.202361)scale(0.14 -0.14)">
       <use xlink:href="#DejaVuSans-30"/>
       <use xlink:href="#DejaVuSans-2e" x="63.623047"/>
       <use xlink:href="#DejaVuSans-32" x="95.410156"/>
      </g>
     </g>
    </g>
    <g id="ytick_4">
     <g id="line2d_21">
      <g>
       <use xlink:href="#m19e471dea8" x="54.385" y="40.979883" style="stroke: #000000; stroke-width: 0.8"/>
      </g>
     </g>
     <g id="line2d_22">
      <g>
       <use xlink:href="#m16878fe5e3" x="723.985" y="40.979883" style="stroke: #000000; stroke-width: 0.8"/>
      </g>
     </g>
     <g id="text_12">
      <!-- 0.3 -->
      <g transform="translate(28.620625 46.29879)scale(0.14 -0.14)">
       <defs>
        <path id="DejaVuSans-33" d="M 2597 2516 
Q 3050 2419 3304 2112 
Q 3559 1806 3559 1356 
Q 3559 666 3084 287 
Q 2609 -91 1734 -91 
Q 1441 -91 1130 -33 
Q 819 25 488 141 
L 488 750 
Q 750 597 1062 519 
Q 1375 441 1716 441 
Q 2309 441 2620 675 
Q 2931 909 2931 1356 
Q 2931 1769 2642 2001 
Q 2353 2234 1838 2234 
L 1294 2234 
L 1294 2753 
L 1863 2753 
Q 2328 2753 2575 2939 
Q 2822 3125 2822 3475 
Q 2822 3834 2567 4026 
Q 2313 4219 1838 4219 
Q 1578 4219 1281 4162 
Q 984 4106 628 3988 
L 628 4550 
Q 988 4650 1302 4700 
Q 1616 4750 1894 4750 
Q 2613 4750 3031 4423 
Q 3450 4097 3450 3541 
Q 3450 3153 3228 2886 
Q 3006 2619 2597 2516 
z
" transform="scale(0.015625)"/>
       </defs>
       <use xlink:href="#DejaVuSans-30"/>
       <use xlink:href="#DejaVuSans-2e" x="63.623047"/>
       <use xlink:href="#DejaVuSans-33" x="95.410156"/>
      </g>
     </g>
    </g>
    <g id="text_13">
     <!-- Characteristic Time (s) -->
     <g transform="translate(20.877187 211.303125)rotate(-90)scale(0.18 -0.18)">
      <defs>
       <path id="DejaVuSans-43" d="M 4122 4306 
L 4122 3641 
Q 3803 3938 3442 4084 
Q 3081 4231 2675 4231 
Q 1875 4231 1450 3742 
Q 1025 3253 1025 2328 
Q 1025 1406 1450 917 
Q 1875 428 2675 428 
Q 3081 428 3442 575 
Q 3803 722 4122 1019 
L 4122 359 
Q 3791 134 3420 21 
Q 3050 -91 2638 -91 
Q 1578 -91 968 557 
Q 359 1206 359 2328 
Q 359 3453 968 4101 
Q 1578 4750 2638 4750 
Q 3056 4750 3426 4639 
Q 3797 4528 4122 4306 
z
" transform="scale(0.015625)"/>
       <path id="DejaVuSans-68" d="M 3513 2113 
L 3513 0 
L 2938 0 
L 2938 2094 
Q 2938 2591 2744 2837 
Q 2550 3084 2163 3084 
Q 1697 3084 1428 2787 
Q 1159 2491 1159 1978 
L 1159 0 
L 581 0 
L 581 4863 
L 1159 4863 
L 1159 2956 
Q 1366 3272 1645 3428 
Q 1925 3584 2291 3584 
Q 2894 3584 3203 3211 
Q 3513 2838 3513 2113 
z
" transform="scale(0.015625)"/>
       <path id="DejaVuSans-61" d="M 2194 1759 
Q 1497 1759 1228 1600 
Q 959 1441 959 1056 
Q 959 750 1161 570 
Q 1363 391 1709 391 
Q 2188 391 2477 730 
Q 2766 1069 2766 1631 
L 2766 1759 
L 2194 1759 
z
M 3341 1997 
L 3341 0 
L 2766 0 
L 2766 531 
Q 2569 213 2275 61 
Q 1981 -91 1556 -91 
Q 1019 -91 701 211 
Q 384 513 384 1019 
Q 384 1609 779 1909 
Q 1175 2209 1959 2209 
L 2766 2209 
L 2766 2266 
Q 2766 2663 2505 2880 
Q 2244 3097 1772 3097 
Q 1472 3097 1187 3025 
Q 903 2953 641 2809 
L 641 3341 
Q 956 3463 1253 3523 
Q 1550 3584 1831 3584 
Q 2591 3584 2966 3190 
Q 3341 2797 3341 1997 
z
" transform="scale(0.015625)"/>
       <path id="DejaVuSans-72" d="M 2631 2963 
Q 2534 3019 2420 3045 
Q 2306 3072 2169 3072 
Q 1681 3072 1420 2755 
Q 1159 2438 1159 1844 
L 1159 0 
L 581 0 
L 581 3500 
L 1159 3500 
L 1159 2956 
Q 1341 3275 1631 3429 
Q 1922 3584 2338 3584 
Q 2397 3584 2469 3576 
Q 2541 3569 2628 3553 
L 2631 2963 
z
" transform="scale(0.015625)"/>
       <path id="DejaVuSans-63" d="M 3122 3366 
L 3122 2828 
Q 2878 2963 2633 3030 
Q 2388 3097 2138 3097 
Q 1578 3097 1268 2742 
Q 959 2388 959 1747 
Q 959 1106 1268 751 
Q 1578 397 2138 397 
Q 2388 397 2633 464 
Q 2878 531 3122 666 
L 3122 134 
Q 2881 22 2623 -34 
Q 2366 -91 2075 -91 
Q 1284 -91 818 406 
Q 353 903 353 1747 
Q 353 2603 823 3093 
Q 1294 3584 2113 3584 
Q 2378 3584 2631 3529 
Q 2884 3475 3122 3366 
z
" transform="scale(0.015625)"/>
       <path id="DejaVuSans-74" d="M 1172 4494 
L 1172 3500 
L 2356 3500 
L 2356 3053 
L 1172 3053 
L 1172 1153 
Q 1172 725 1289 603 
Q 1406 481 1766 481 
L 2356 481 
L 2356 0 
L 1766 0 
Q 1100 0 847 248 
Q 594 497 594 1153 
L 594 3053 
L 172 3053 
L 172 3500 
L 594 3500 
L 594 4494 
L 1172 4494 
z
" transform="scale(0.015625)"/>
      </defs>
      <use xlink:href="#DejaVuSans-43"/>
      <use xlink:href="#DejaVuSans-68" x="69.824219"/>
      <use xlink:href="#DejaVuSans-61" x="133.203125"/>
      <use xlink:href="#DejaVuSans-72" x="194.482422"/>
      <use xlink:href="#DejaVuSans-61" x="235.595703"/>
      <use xlink:href="#DejaVuSans-63" x="296.875"/>
      <use xlink:href="#DejaVuSans-74" x="351.855469"/>
      <use xlink:href="#DejaVuSans-65" x="391.064453"/>
      <use xlink:href="#DejaVuSans-72" x="452.587891"/>
      <use xlink:href="#DejaVuSans-69" x="493.701172"/>
      <use xlink:href="#DejaVuSans-73" x="521.484375"/>
      <use xlink:href="#DejaVuSans-74" x="573.583984"/>
      <use xlink:href="#DejaVuSans-69" x="612.792969"/>
      <use xlink:href="#DejaVuSans-63" x="640.576172"/>
      <use xlink:href="#DejaVuSans-20" x="695.556641"/>
      <use xlink:href="#DejaVuSans-54" x="727.34375"/>
      <use xlink:href="#DejaVuSans-69" x="785.302734"/>
      <use xlink:href="#DejaVuSans-6d" x="813.085938"/>
      <use xlink:href="#DejaVuSans-65" x="910.498047"/>
      <use xlink:href="#DejaVuSans-20" x="972.021484"/>
      <use xlink:href="#DejaVuSans-28" x="1003.808594"/>
      <use xlink:href="#DejaVuSans-73" x="1042.822266"/>
      <use xlink:href="#DejaVuSans-29" x="1094.921875"/>
     </g>
    </g>
   </g>
   <g id="line2d_23">
    <path d="M 72.321844 152.318055 
L 77.594285 156.065392 
L 82.866726 160.735946 
L 88.139167 150.377714 
L 93.411608 155.841608 
L 98.684049 162.085425 
L 103.95649 149.160557 
L 109.228931 154.817359 
L 114.501372 170.496647 
L 119.763268 125.976653 
L 125.035709 109.007246 
L 130.30815 151.74493 
L 135.580591 103.304112 
L 140.853031 89.736381 
L 161.942795 115.38853 
L 171.338285 98.615714 
L 174.533384 172.251562 
L 183.022014 93.021702 
L 189.781283 167.509139 
L 198.828792 141.140507 
L 210.649605 150.652546 
L 216.712912 158.064054 
L 221.194487 156.433146 
L 226.466928 162.874729 
L 230.769239 168.963537 
L 234.111967 155.33097 
L 238.941523 168.057256 
L 242.28425 155.091985 
L 246.32294 169.648586 
L 249.92929 152.261438 
L 258.101573 162.058887 
L 263.374014 160.945195 
L 270.702707 172.251562 
L 273.918896 164.840014 
L 279.191337 161.329456 
L 290.685258 46.251562 
L 294.98757 93.252573 
L 313.114222 147.295789 
L 318.397208 162.110954 
L 323.659104 155.713505 
L 328.94209 152.495831 
L 334.214531 161.118199 
L 339.476427 154.710983 
L 344.759413 148.802129 
L 350.031854 153.988607 
L 355.304294 156.999484 
L 360.576735 147.915855 
L 365.849176 152.111287 
L 371.121617 157.094379 
L 376.394058 148.853951 
L 381.666499 151.8919 
L 386.93894 155.602883 
L 392.211381 148.892839 
L 397.483822 154.01273 
L 402.756263 156.615001 
L 408.028704 152.148852 
L 413.301145 151.502789 
L 418.573586 161.408971 
L 423.846027 158.544281 
L 440.327677 158.285592 
L 445.600118 164.610761 
L 450.872559 156.70348 
L 456.145 154.988709 
L 461.417441 162.139888 
L 466.689882 155.209571 
L 471.962323 159.555244 
L 477.234764 153.987064 
L 482.507205 152.911283 
L 487.779646 144.135958 
L 493.052087 146.516425 
L 498.324528 158.175807 
L 503.596969 141.253915 
L 508.869409 153.117801 
L 514.14185 153.101933 
L 519.414291 142.266619 
L 524.686732 157.510069 
L 529.959173 149.266863 
L 535.231614 146.168218 
L 540.504055 147.998091 
L 545.776496 154.786262 
L 551.048937 147.783353 
L 556.321378 151.888235 
L 561.593819 156.948807 
L 579.056143 159.011779 
L 584.328584 157.200014 
L 589.601025 160.026681 
L 594.873466 164.270049 
L 600.145907 169.80325 
L 605.407803 152.717545 
L 610.690789 168.484595 
L 615.96323 170.523816 
L 621.235671 147.053328 
L 626.508112 168.307793 
L 631.780553 170.291704 
L 637.052994 141.916193 
L 642.325435 166.441507 
L 647.587331 150.72433 
L 652.870317 139.02353 
L 658.132213 154.666059 
L 663.404654 156.879223 
L 668.677094 134.354894 
L 673.949535 151.8591 
L 679.221976 158.069152 
L 684.494417 140.852379 
L 689.766858 152.229703 
L 695.039299 153.842946 
L 700.31174 158.212836 
" clip-path="url(#pd4b2d5593b)" style="fill: none; stroke: #000000; stroke-width: 1.5; stroke-linecap: square"/>
    <defs>
     <path id="mfef528286f" d="M 0 0.75 
C 0.198902 0.75 0.389685 0.670975 0.53033 0.53033 
C 0.670975 0.389685 0.75 0.198902 0.75 0 
C 0.75 -0.198902 0.670975 -0.389685 0.53033 -0.53033 
C 0.389685 -0.670975 0.198902 -0.75 0 -0.75 
C -0.198902 -0.75 -0.389685 -0.670975 -0.53033 -0.53033 
C -0.670975 -0.389685 -0.75 -0.198902 -0.75 0 
C -0.75 0.198902 -0.670975 0.389685 -0.53033 0.53033 
C -0.389685 0.670975 -0.198902 0.75 0 0.75 
z
" style="stroke: #000000"/>
    </defs>
    <g clip-path="url(#pd4b2d5593b)">
     <use xlink:href="#mfef528286f" x="72.321844" y="152.318055" style="stroke: #000000"/>
     <use xlink:href="#mfef528286f" x="77.594285" y="156.065392" style="stroke: #000000"/>
     <use xlink:href="#mfef528286f" x="82.866726" y="160.735946" style="stroke: #000000"/>
     <use xlink:href="#mfef528286f" x="88.139167" y="150.377714" style="stroke: #000000"/>
     <use xlink:href="#mfef528286f" x="93.411608" y="155.841608" style="stroke: #000000"/>
     <use xlink:href="#mfef528286f" x="98.684049" y="162.085425" style="stroke: #000000"/>
     <use xlink:href="#mfef528286f" x="103.95649" y="149.160557" style="stroke: #000000"/>
     <use xlink:href="#mfef528286f" x="109.228931" y="154.817359" style="stroke: #000000"/>
     <use xlink:href="#mfef528286f" x="114.501372" y="170.496647" style="stroke: #000000"/>
     <use xlink:href="#mfef528286f" x="119.763268" y="125.976653" style="stroke: #000000"/>
     <use xlink:href="#mfef528286f" x="125.035709" y="109.007246" style="stroke: #000000"/>
     <use xlink:href="#mfef528286f" x="130.30815" y="151.74493" style="stroke: #000000"/>
     <use xlink:href="#mfef528286f" x="135.580591" y="103.304112" style="stroke: #000000"/>
     <use xlink:href="#mfef528286f" x="140.853031" y="89.736381" style="stroke: #000000"/>
     <use xlink:href="#mfef528286f" x="161.942795" y="115.38853" style="stroke: #000000"/>
     <use xlink:href="#mfef528286f" x="171.338285" y="98.615714" style="stroke: #000000"/>
     <use xlink:href="#mfef528286f" x="174.533384" y="172.251562" style="stroke: #000000"/>
     <use xlink:href="#mfef528286f" x="183.022014" y="93.021702" style="stroke: #000000"/>
     <use xlink:href="#mfef528286f" x="189.781283" y="167.509139" style="stroke: #000000"/>
     <use xlink:href="#mfef528286f" x="198.828792" y="141.140507" style="stroke: #000000"/>
     <use xlink:href="#mfef528286f" x="210.649605" y="150.652546" style="stroke: #000000"/>
     <use xlink:href="#mfef528286f" x="216.712912" y="158.064054" style="stroke: #000000"/>
     <use xlink:href="#mfef528286f" x="221.194487" y="156.433146" style="stroke: #000000"/>
     <use xlink:href="#mfef528286f" x="226.466928" y="162.874729" style="stroke: #000000"/>
     <use xlink:href="#mfef528286f" x="230.769239" y="168.963537" style="stroke: #000000"/>
     <use xlink:href="#mfef528286f" x="234.111967" y="155.33097" style="stroke: #000000"/>
     <use xlink:href="#mfef528286f" x="238.941523" y="168.057256" style="stroke: #000000"/>
     <use xlink:href="#mfef528286f" x="242.28425" y="155.091985" style="stroke: #000000"/>
     <use xlink:href="#mfef528286f" x="246.32294" y="169.648586" style="stroke: #000000"/>
     <use xlink:href="#mfef528286f" x="249.92929" y="152.261438" style="stroke: #000000"/>
     <use xlink:href="#mfef528286f" x="258.101573" y="162.058887" style="stroke: #000000"/>
     <use xlink:href="#mfef528286f" x="263.374014" y="160.945195" style="stroke: #000000"/>
     <use xlink:href="#mfef528286f" x="270.702707" y="172.251562" style="stroke: #000000"/>
     <use xlink:href="#mfef528286f" x="273.918896" y="164.840014" style="stroke: #000000"/>
     <use xlink:href="#mfef528286f" x="279.191337" y="161.329456" style="stroke: #000000"/>
     <use xlink:href="#mfef528286f" x="290.685258" y="46.251562" style="stroke: #000000"/>
     <use xlink:href="#mfef528286f" x="294.98757" y="93.252573" style="stroke: #000000"/>
     <use xlink:href="#mfef528286f" x="313.114222" y="147.295789" style="stroke: #000000"/>
     <use xlink:href="#mfef528286f" x="318.397208" y="162.110954" style="stroke: #000000"/>
     <use xlink:href="#mfef528286f" x="323.659104" y="155.713505" style="stroke: #000000"/>
     <use xlink:href="#mfef528286f" x="328.94209" y="152.495831" style="stroke: #000000"/>
     <use xlink:href="#mfef528286f" x="334.214531" y="161.118199" style="stroke: #000000"/>
     <use xlink:href="#mfef528286f" x="339.476427" y="154.710983" style="stroke: #000000"/>
     <use xlink:href="#mfef528286f" x="344.759413" y="148.802129" style="stroke: #000000"/>
     <use xlink:href="#mfef528286f" x="350.031854" y="153.988607" style="stroke: #000000"/>
     <use xlink:href="#mfef528286f" x="355.304294" y="156.999484" style="stroke: #000000"/>
     <use xlink:href="#mfef528286f" x="360.576735" y="147.915855" style="stroke: #000000"/>
     <use xlink:href="#mfef528286f" x="365.849176" y="152.111287" style="stroke: #000000"/>
     <use xlink:href="#mfef528286f" x="371.121617" y="157.094379" style="stroke: #000000"/>
     <use xlink:href="#mfef528286f" x="376.394058" y="148.853951" style="stroke: #000000"/>
     <use xlink:href="#mfef528286f" x="381.666499" y="151.8919" style="stroke: #000000"/>
     <use xlink:href="#mfef528286f" x="386.93894" y="155.602883" style="stroke: #000000"/>
     <use xlink:href="#mfef528286f" x="392.211381" y="148.892839" style="stroke: #000000"/>
     <use xlink:href="#mfef528286f" x="397.483822" y="154.01273" style="stroke: #000000"/>
     <use xlink:href="#mfef528286f" x="402.756263" y="156.615001" style="stroke: #000000"/>
     <use xlink:href="#mfef528286f" x="408.028704" y="152.148852" style="stroke: #000000"/>
     <use xlink:href="#mfef528286f" x="413.301145" y="151.502789" style="stroke: #000000"/>
     <use xlink:href="#mfef528286f" x="418.573586" y="161.408971" style="stroke: #000000"/>
     <use xlink:href="#mfef528286f" x="423.846027" y="158.544281" style="stroke: #000000"/>
     <use xlink:href="#mfef528286f" x="440.327677" y="158.285592" style="stroke: #000000"/>
     <use xlink:href="#mfef528286f" x="445.600118" y="164.610761" style="stroke: #000000"/>
     <use xlink:href="#mfef528286f" x="450.872559" y="156.70348" style="stroke: #000000"/>
     <use xlink:href="#mfef528286f" x="456.145" y="154.988709" style="stroke: #000000"/>
     <use xlink:href="#mfef528286f" x="461.417441" y="162.139888" style="stroke: #000000"/>
     <use xlink:href="#mfef528286f" x="466.689882" y="155.209571" style="stroke: #000000"/>
     <use xlink:href="#mfef528286f" x="471.962323" y="159.555244" style="stroke: #000000"/>
     <use xlink:href="#mfef528286f" x="477.234764" y="153.987064" style="stroke: #000000"/>
     <use xlink:href="#mfef528286f" x="482.507205" y="152.911283" style="stroke: #000000"/>
     <use xlink:href="#mfef528286f" x="487.779646" y="144.135958" style="stroke: #000000"/>
     <use xlink:href="#mfef528286f" x="493.052087" y="146.516425" style="stroke: #000000"/>
     <use xlink:href="#mfef528286f" x="498.324528" y="158.175807" style="stroke: #000000"/>
     <use xlink:href="#mfef528286f" x="503.596969" y="141.253915" style="stroke: #000000"/>
     <use xlink:href="#mfef528286f" x="508.869409" y="153.117801" style="stroke: #000000"/>
     <use xlink:href="#mfef528286f" x="514.14185" y="153.101933" style="stroke: #000000"/>
     <use xlink:href="#mfef528286f" x="519.414291" y="142.266619" style="stroke: #000000"/>
     <use xlink:href="#mfef528286f" x="524.686732" y="157.510069" style="stroke: #000000"/>
     <use xlink:href="#mfef528286f" x="529.959173" y="149.266863" style="stroke: #000000"/>
     <use xlink:href="#mfef528286f" x="535.231614" y="146.168218" style="stroke: #000000"/>
     <use xlink:href="#mfef528286f" x="540.504055" y="147.998091" style="stroke: #000000"/>
     <use xlink:href="#mfef528286f" x="545.776496" y="154.786262" style="stroke: #000000"/>
     <use xlink:href="#mfef528286f" x="551.048937" y="147.783353" style="stroke: #000000"/>
     <use xlink:href="#mfef528286f" x="556.321378" y="151.888235" style="stroke: #000000"/>
     <use xlink:href="#mfef528286f" x="561.593819" y="156.948807" style="stroke: #000000"/>
     <use xlink:href="#mfef528286f" x="579.056143" y="159.011779" style="stroke: #000000"/>
     <use xlink:href="#mfef528286f" x="584.328584" y="157.200014" style="stroke: #000000"/>
     <use xlink:href="#mfef528286f" x="589.601025" y="160.026681" style="stroke: #000000"/>
     <use xlink:href="#mfef528286f" x="594.873466" y="164.270049" style="stroke: #000000"/>
     <use xlink:href="#mfef528286f" x="600.145907" y="169.80325" style="stroke: #000000"/>
     <use xlink:href="#mfef528286f" x="605.407803" y="152.717545" style="stroke: #000000"/>
     <use xlink:href="#mfef528286f" x="610.690789" y="168.484595" style="stroke: #000000"/>
     <use xlink:href="#mfef528286f" x="615.96323" y="170.523816" style="stroke: #000000"/>
     <use xlink:href="#mfef528286f" x="621.235671" y="147.053328" style="stroke: #000000"/>
     <use xlink:href="#mfef528286f" x="626.508112" y="168.307793" style="stroke: #000000"/>
     <use xlink:href="#mfef528286f" x="631.780553" y="170.291704" style="stroke: #000000"/>
     <use xlink:href="#mfef528286f" x="637.052994" y="141.916193" style="stroke: #000000"/>
     <use xlink:href="#mfef528286f" x="642.325435" y="166.441507" style="stroke: #000000"/>
     <use xlink:href="#mfef528286f" x="647.587331" y="150.72433" style="stroke: #000000"/>
     <use xlink:href="#mfef528286f" x="652.870317" y="139.02353" style="stroke: #000000"/>
     <use xlink:href="#mfef528286f" x="658.132213" y="154.666059" style="stroke: #000000"/>
     <use xlink:href="#mfef528286f" x="663.404654" y="156.879223" style="stroke: #000000"/>
     <use xlink:href="#mfef528286f" x="668.677094" y="134.354894" style="stroke: #000000"/>
     <use xlink:href="#mfef528286f" x="673.949535" y="151.8591" style="stroke: #000000"/>
     <use xlink:href="#mfef528286f" x="679.221976" y="158.069152" style="stroke: #000000"/>
     <use xlink:href="#mfef528286f" x="684.494417" y="140.852379" style="stroke: #000000"/>
     <use xlink:href="#mfef528286f" x="689.766858" y="152.229703" style="stroke: #000000"/>
     <use xlink:href="#mfef528286f" x="695.039299" y="153.842946" style="stroke: #000000"/>
     <use xlink:href="#mfef528286f" x="700.31174" y="158.212836" style="stroke: #000000"/>
    </g>
   </g>
   <g id="line2d_24">
    <path d="M 72.321844 162.900118 
L 77.594285 158.437541 
L 82.866726 155.067743 
L 88.139167 157.021217 
L 93.411608 155.64025 
L 98.684049 154.456533 
L 103.95649 158.480319 
L 109.228931 152.507328 
L 114.501372 141.891693 
L 119.763268 142.408567 
L 125.035709 132.105918 
L 130.30815 115.953864 
L 135.580591 113.83624 
L 140.853031 111.757933 
L 161.942795 115.85926 
L 171.338285 113.802778 
L 174.533384 129.35733 
L 183.022014 134.507725 
L 189.781283 144.915091 
L 198.828792 142.07759 
L 210.649605 154.759878 
L 216.712912 153.832996 
L 221.194487 159.397602 
L 226.466928 160.333287 
L 230.769239 162.331928 
L 234.111967 162.063695 
L 238.941523 163.418467 
L 242.28425 160.078047 
L 246.32294 161.42363 
L 249.92929 160.001218 
L 258.101573 163.433134 
L 263.374014 162.471419 
L 270.702707 164.285023 
L 273.918896 141.123558 
L 279.191337 127.585034 
L 290.685258 122.593879 
L 294.98757 122.048067 
L 313.114222 120.924877 
L 318.397208 142.17373 
L 323.659104 155.746856 
L 328.94209 157.229894 
L 334.214531 154.568129 
L 339.476427 154.22315 
L 344.759413 155.12388 
L 350.031854 152.483412 
L 355.304294 151.963472 
L 360.576735 153.621922 
L 365.849176 152.594991 
L 371.121617 151.573474 
L 376.394058 153.11088 
L 381.666499 152.46719 
L 386.93894 151.850861 
L 392.211381 153.403071 
L 397.483822 153.454461 
L 402.756263 152.634442 
L 408.028704 155.137669 
L 413.301145 156.043979 
L 418.573586 156.378097 
L 423.846027 158.870479 
L 440.327677 159.910617 
L 445.600118 158.626565 
L 450.872559 159.345686 
L 456.145 158.730482 
L 461.417441 157.719379 
L 466.689882 157.176096 
L 471.962323 156.76061 
L 477.234764 153.159824 
L 482.507205 151.421195 
L 487.779646 151.145307 
L 493.052087 148.598678 
L 498.324528 148.639981 
L 503.596969 150.433176 
L 508.869409 149.583215 
L 514.14185 149.450068 
L 519.414291 151.052657 
L 524.686732 149.662741 
L 529.959173 148.641972 
L 535.231614 151.145901 
L 540.504055 149.200557 
L 545.776496 149.724832 
L 551.048937 151.880949 
L 556.321378 154.083687 
L 561.593819 154.566438 
L 579.056143 157.015103 
L 584.328584 159.491466 
L 589.601025 162.062355 
L 594.873466 160.803508 
L 600.145907 163.060424 
L 605.407803 165.159851 
L 610.690789 161.716507 
L 615.96323 161.417416 
L 621.235671 164.932247 
L 626.508112 159.618567 
L 631.780553 158.802105 
L 637.052994 159.536305 
L 642.325435 153.679453 
L 647.587331 150.554324 
L 652.870317 153.54693 
L 658.132213 147.129607 
L 663.404654 147.356561 
L 668.677094 151.165685 
L 673.949535 148.402949 
L 679.221976 147.473046 
L 684.494417 151.370656 
L 689.766858 152.641403 
L 695.039299 155.565692 
L 700.31174 161.933336 
" clip-path="url(#pd4b2d5593b)" style="fill: none; stroke: #ff0000; stroke-width: 1.5; stroke-linecap: square"/>
    <defs>
     <path id="mb70fe8d6b5" d="M 0 0.75 
C 0.198902 0.75 0.389685 0.670975 0.53033 0.53033 
C 0.670975 0.389685 0.75 0.198902 0.75 0 
C 0.75 -0.198902 0.670975 -0.389685 0.53033 -0.53033 
C 0.389685 -0.670975 0.198902 -0.75 0 -0.75 
C -0.198902 -0.75 -0.389685 -0.670975 -0.53033 -0.53033 
C -0.670975 -0.389685 -0.75 -0.198902 -0.75 0 
C -0.75 0.198902 -0.670975 0.389685 -0.53033 0.53033 
C -0.389685 0.670975 -0.198902 0.75 0 0.75 
z
" style="stroke: #ff0000"/>
    </defs>
    <g clip-path="url(#pd4b2d5593b)">
     <use xlink:href="#mb70fe8d6b5" x="72.321844" y="162.900118" style="fill: #ff0000; stroke: #ff0000"/>
     <use xlink:href="#mb70fe8d6b5" x="77.594285" y="158.437541" style="fill: #ff0000; stroke: #ff0000"/>
     <use xlink:href="#mb70fe8d6b5" x="82.866726" y="155.067743" style="fill: #ff0000; stroke: #ff0000"/>
     <use xlink:href="#mb70fe8d6b5" x="88.139167" y="157.021217" style="fill: #ff0000; stroke: #ff0000"/>
     <use xlink:href="#mb70fe8d6b5" x="93.411608" y="155.64025" style="fill: #ff0000; stroke: #ff0000"/>
     <use xlink:href="#mb70fe8d6b5" x="98.684049" y="154.456533" style="fill: #ff0000; stroke: #ff0000"/>
     <use xlink:href="#mb70fe8d6b5" x="103.95649" y="158.480319" style="fill: #ff0000; stroke: #ff0000"/>
     <use xlink:href="#mb70fe8d6b5" x="109.228931" y="152.507328" style="fill: #ff0000; stroke: #ff0000"/>
     <use xlink:href="#mb70fe8d6b5" x="114.501372" y="141.891693" style="fill: #ff0000; stroke: #ff0000"/>
     <use xlink:href="#mb70fe8d6b5" x="119.763268" y="142.408567" style="fill: #ff0000; stroke: #ff0000"/>
     <use xlink:href="#mb70fe8d6b5" x="125.035709" y="132.105918" style="fill: #ff0000; stroke: #ff0000"/>
     <use xlink:href="#mb70fe8d6b5" x="130.30815" y="115.953864" style="fill: #ff0000; stroke: #ff0000"/>
     <use xlink:href="#mb70fe8d6b5" x="135.580591" y="113.83624" style="fill: #ff0000; stroke: #ff0000"/>
     <use xlink:href="#mb70fe8d6b5" x="140.853031" y="111.757933" style="fill: #ff0000; stroke: #ff0000"/>
     <use xlink:href="#mb70fe8d6b5" x="161.942795" y="115.85926" style="fill: #ff0000; stroke: #ff0000"/>
     <use xlink:href="#mb70fe8d6b5" x="171.338285" y="113.802778" style="fill: #ff0000; stroke: #ff0000"/>
     <use xlink:href="#mb70fe8d6b5" x="174.533384" y="129.35733" style="fill: #ff0000; stroke: #ff0000"/>
     <use xlink:href="#mb70fe8d6b5" x="183.022014" y="134.507725" style="fill: #ff0000; stroke: #ff0000"/>
     <use xlink:href="#mb70fe8d6b5" x="189.781283" y="144.915091" style="fill: #ff0000; stroke: #ff0000"/>
     <use xlink:href="#mb70fe8d6b5" x="198.828792" y="142.07759" style="fill: #ff0000; stroke: #ff0000"/>
     <use xlink:href="#mb70fe8d6b5" x="210.649605" y="154.759878" style="fill: #ff0000; stroke: #ff0000"/>
     <use xlink:href="#mb70fe8d6b5" x="216.712912" y="153.832996" style="fill: #ff0000; stroke: #ff0000"/>
     <use xlink:href="#mb70fe8d6b5" x="221.194487" y="159.397602" style="fill: #ff0000; stroke: #ff0000"/>
     <use xlink:href="#mb70fe8d6b5" x="226.466928" y="160.333287" style="fill: #ff0000; stroke: #ff0000"/>
     <use xlink:href="#mb70fe8d6b5" x="230.769239" y="162.331928" style="fill: #ff0000; stroke: #ff0000"/>
     <use xlink:href="#mb70fe8d6b5" x="234.111967" y="162.063695" style="fill: #ff0000; stroke: #ff0000"/>
     <use xlink:href="#mb70fe8d6b5" x="238.941523" y="163.418467" style="fill: #ff0000; stroke: #ff0000"/>
     <use xlink:href="#mb70fe8d6b5" x="242.28425" y="160.078047" style="fill: #ff0000; stroke: #ff0000"/>
     <use xlink:href="#mb70fe8d6b5" x="246.32294" y="161.42363" style="fill: #ff0000; stroke: #ff0000"/>
     <use xlink:href="#mb70fe8d6b5" x="249.92929" y="160.001218" style="fill: #ff0000; stroke: #ff0000"/>
     <use xlink:href="#mb70fe8d6b5" x="258.101573" y="163.433134" style="fill: #ff0000; stroke: #ff0000"/>
     <use xlink:href="#mb70fe8d6b5" x="263.374014" y="162.471419" style="fill: #ff0000; stroke: #ff0000"/>
     <use xlink:href="#mb70fe8d6b5" x="270.702707" y="164.285023" style="fill: #ff0000; stroke: #ff0000"/>
     <use xlink:href="#mb70fe8d6b5" x="273.918896" y="141.123558" style="fill: #ff0000; stroke: #ff0000"/>
     <use xlink:href="#mb70fe8d6b5" x="279.191337" y="127.585034" style="fill: #ff0000; stroke: #ff0000"/>
     <use xlink:href="#mb70fe8d6b5" x="290.685258" y="122.593879" style="fill: #ff0000; stroke: #ff0000"/>
     <use xlink:href="#mb70fe8d6b5" x="294.98757" y="122.048067" style="fill: #ff0000; stroke: #ff0000"/>
     <use xlink:href="#mb70fe8d6b5" x="313.114222" y="120.924877" style="fill: #ff0000; stroke: #ff0000"/>
     <use xlink:href="#mb70fe8d6b5" x="318.397208" y="142.17373" style="fill: #ff0000; stroke: #ff0000"/>
     <use xlink:href="#mb70fe8d6b5" x="323.659104" y="155.746856" style="fill: #ff0000; stroke: #ff0000"/>
     <use xlink:href="#mb70fe8d6b5" x="328.94209" y="157.229894" style="fill: #ff0000; stroke: #ff0000"/>
     <use xlink:href="#mb70fe8d6b5" x="334.214531" y="154.568129" style="fill: #ff0000; stroke: #ff0000"/>
     <use xlink:href="#mb70fe8d6b5" x="339.476427" y="154.22315" style="fill: #ff0000; stroke: #ff0000"/>
     <use xlink:href="#mb70fe8d6b5" x="344.759413" y="155.12388" style="fill: #ff0000; stroke: #ff0000"/>
     <use xlink:href="#mb70fe8d6b5" x="350.031854" y="152.483412" style="fill: #ff0000; stroke: #ff0000"/>
     <use xlink:href="#mb70fe8d6b5" x="355.304294" y="151.963472" style="fill: #ff0000; stroke: #ff0000"/>
     <use xlink:href="#mb70fe8d6b5" x="360.576735" y="153.621922" style="fill: #ff0000; stroke: #ff0000"/>
     <use xlink:href="#mb70fe8d6b5" x="365.849176" y="152.594991" style="fill: #ff0000; stroke: #ff0000"/>
     <use xlink:href="#mb70fe8d6b5" x="371.121617" y="151.573474" style="fill: #ff0000; stroke: #ff0000"/>
     <use xlink:href="#mb70fe8d6b5" x="376.394058" y="153.11088" style="fill: #ff0000; stroke: #ff0000"/>
     <use xlink:href="#mb70fe8d6b5" x="381.666499" y="152.46719" style="fill: #ff0000; stroke: #ff0000"/>
     <use xlink:href="#mb70fe8d6b5" x="386.93894" y="151.850861" style="fill: #ff0000; stroke: #ff0000"/>
     <use xlink:href="#mb70fe8d6b5" x="392.211381" y="153.403071" style="fill: #ff0000; stroke: #ff0000"/>
     <use xlink:href="#mb70fe8d6b5" x="397.483822" y="153.454461" style="fill: #ff0000; stroke: #ff0000"/>
     <use xlink:href="#mb70fe8d6b5" x="402.756263" y="152.634442" style="fill: #ff0000; stroke: #ff0000"/>
     <use xlink:href="#mb70fe8d6b5" x="408.028704" y="155.137669" style="fill: #ff0000; stroke: #ff0000"/>
     <use xlink:href="#mb70fe8d6b5" x="413.301145" y="156.043979" style="fill: #ff0000; stroke: #ff0000"/>
     <use xlink:href="#mb70fe8d6b5" x="418.573586" y="156.378097" style="fill: #ff0000; stroke: #ff0000"/>
     <use xlink:href="#mb70fe8d6b5" x="423.846027" y="158.870479" style="fill: #ff0000; stroke: #ff0000"/>
     <use xlink:href="#mb70fe8d6b5" x="440.327677" y="159.910617" style="fill: #ff0000; stroke: #ff0000"/>
     <use xlink:href="#mb70fe8d6b5" x="445.600118" y="158.626565" style="fill: #ff0000; stroke: #ff0000"/>
     <use xlink:href="#mb70fe8d6b5" x="450.872559" y="159.345686" style="fill: #ff0000; stroke: #ff0000"/>
     <use xlink:href="#mb70fe8d6b5" x="456.145" y="158.730482" style="fill: #ff0000; stroke: #ff0000"/>
     <use xlink:href="#mb70fe8d6b5" x="461.417441" y="157.719379" style="fill: #ff0000; stroke: #ff0000"/>
     <use xlink:href="#mb70fe8d6b5" x="466.689882" y="157.176096" style="fill: #ff0000; stroke: #ff0000"/>
     <use xlink:href="#mb70fe8d6b5" x="471.962323" y="156.76061" style="fill: #ff0000; stroke: #ff0000"/>
     <use xlink:href="#mb70fe8d6b5" x="477.234764" y="153.159824" style="fill: #ff0000; stroke: #ff0000"/>
     <use xlink:href="#mb70fe8d6b5" x="482.507205" y="151.421195" style="fill: #ff0000; stroke: #ff0000"/>
     <use xlink:href="#mb70fe8d6b5" x="487.779646" y="151.145307" style="fill: #ff0000; stroke: #ff0000"/>
     <use xlink:href="#mb70fe8d6b5" x="493.052087" y="148.598678" style="fill: #ff0000; stroke: #ff0000"/>
     <use xlink:href="#mb70fe8d6b5" x="498.324528" y="148.639981" style="fill: #ff0000; stroke: #ff0000"/>
     <use xlink:href="#mb70fe8d6b5" x="503.596969" y="150.433176" style="fill: #ff0000; stroke: #ff0000"/>
     <use xlink:href="#mb70fe8d6b5" x="508.869409" y="149.583215" style="fill: #ff0000; stroke: #ff0000"/>
     <use xlink:href="#mb70fe8d6b5" x="514.14185" y="149.450068" style="fill: #ff0000; stroke: #ff0000"/>
     <use xlink:href="#mb70fe8d6b5" x="519.414291" y="151.052657" style="fill: #ff0000; stroke: #ff0000"/>
     <use xlink:href="#mb70fe8d6b5" x="524.686732" y="149.662741" style="fill: #ff0000; stroke: #ff0000"/>
     <use xlink:href="#mb70fe8d6b5" x="529.959173" y="148.641972" style="fill: #ff0000; stroke: #ff0000"/>
     <use xlink:href="#mb70fe8d6b5" x="535.231614" y="151.145901" style="fill: #ff0000; stroke: #ff0000"/>
     <use xlink:href="#mb70fe8d6b5" x="540.504055" y="149.200557" style="fill: #ff0000; stroke: #ff0000"/>
     <use xlink:href="#mb70fe8d6b5" x="545.776496" y="149.724832" style="fill: #ff0000; stroke: #ff0000"/>
     <use xlink:href="#mb70fe8d6b5" x="551.048937" y="151.880949" style="fill: #ff0000; stroke: #ff0000"/>
     <use xlink:href="#mb70fe8d6b5" x="556.321378" y="154.083687" style="fill: #ff0000; stroke: #ff0000"/>
     <use xlink:href="#mb70fe8d6b5" x="561.593819" y="154.566438" style="fill: #ff0000; stroke: #ff0000"/>
     <use xlink:href="#mb70fe8d6b5" x="579.056143" y="157.015103" style="fill: #ff0000; stroke: #ff0000"/>
     <use xlink:href="#mb70fe8d6b5" x="584.328584" y="159.491466" style="fill: #ff0000; stroke: #ff0000"/>
     <use xlink:href="#mb70fe8d6b5" x="589.601025" y="162.062355" style="fill: #ff0000; stroke: #ff0000"/>
     <use xlink:href="#mb70fe8d6b5" x="594.873466" y="160.803508" style="fill: #ff0000; stroke: #ff0000"/>
     <use xlink:href="#mb70fe8d6b5" x="600.145907" y="163.060424" style="fill: #ff0000; stroke: #ff0000"/>
     <use xlink:href="#mb70fe8d6b5" x="605.407803" y="165.159851" style="fill: #ff0000; stroke: #ff0000"/>
     <use xlink:href="#mb70fe8d6b5" x="610.690789" y="161.716507" style="fill: #ff0000; stroke: #ff0000"/>
     <use xlink:href="#mb70fe8d6b5" x="615.96323" y="161.417416" style="fill: #ff0000; stroke: #ff0000"/>
     <use xlink:href="#mb70fe8d6b5" x="621.235671" y="164.932247" style="fill: #ff0000; stroke: #ff0000"/>
     <use xlink:href="#mb70fe8d6b5" x="626.508112" y="159.618567" style="fill: #ff0000; stroke: #ff0000"/>
     <use xlink:href="#mb70fe8d6b5" x="631.780553" y="158.802105" style="fill: #ff0000; stroke: #ff0000"/>
     <use xlink:href="#mb70fe8d6b5" x="637.052994" y="159.536305" style="fill: #ff0000; stroke: #ff0000"/>
     <use xlink:href="#mb70fe8d6b5" x="642.325435" y="153.679453" style="fill: #ff0000; stroke: #ff0000"/>
     <use xlink:href="#mb70fe8d6b5" x="647.587331" y="150.554324" style="fill: #ff0000; stroke: #ff0000"/>
     <use xlink:href="#mb70fe8d6b5" x="652.870317" y="153.54693" style="fill: #ff0000; stroke: #ff0000"/>
     <use xlink:href="#mb70fe8d6b5" x="658.132213" y="147.129607" style="fill: #ff0000; stroke: #ff0000"/>
     <use xlink:href="#mb70fe8d6b5" x="663.404654" y="147.356561" style="fill: #ff0000; stroke: #ff0000"/>
     <use xlink:href="#mb70fe8d6b5" x="668.677094" y="151.165685" style="fill: #ff0000; stroke: #ff0000"/>
     <use xlink:href="#mb70fe8d6b5" x="673.949535" y="148.402949" style="fill: #ff0000; stroke: #ff0000"/>
     <use xlink:href="#mb70fe8d6b5" x="679.221976" y="147.473046" style="fill: #ff0000; stroke: #ff0000"/>
     <use xlink:href="#mb70fe8d6b5" x="684.494417" y="151.370656" style="fill: #ff0000; stroke: #ff0000"/>
     <use xlink:href="#mb70fe8d6b5" x="689.766858" y="152.641403" style="fill: #ff0000; stroke: #ff0000"/>
     <use xlink:href="#mb70fe8d6b5" x="695.039299" y="155.565692" style="fill: #ff0000; stroke: #ff0000"/>
     <use xlink:href="#mb70fe8d6b5" x="700.31174" y="161.933336" style="fill: #ff0000; stroke: #ff0000"/>
    </g>
   </g>
   <g id="patch_3">
    <path d="M 54.385 178.551562 
L 54.385 39.951562 
" style="fill: none; stroke: #000000; stroke-width: 0.8; stroke-linejoin: miter; stroke-linecap: square"/>
   </g>
   <g id="patch_4">
    <path d="M 723.985 178.551562 
L 723.985 39.951562 
" style="fill: none; stroke: #000000; stroke-width: 0.8; stroke-linejoin: miter; stroke-linecap: square"/>
   </g>
   <g id="patch_5">
    <path d="M 54.385 178.551562 
L 723.985 178.551562 
" style="fill: none; stroke: #000000; stroke-width: 0.8; stroke-linejoin: miter; stroke-linecap: square"/>
   </g>
   <g id="patch_6">
    <path d="M 54.385 39.951562 
L 723.985 39.951562 
" style="fill: none; stroke: #000000; stroke-width: 0.8; stroke-linejoin: miter; stroke-linecap: square"/>
   </g>
  </g>
 </g>
 <defs>
  <clipPath id="pd4b2d5593b">
   <rect x="54.385" y="39.951562" width="669.6" height="138.6"/>
  </clipPath>
 </defs>
</svg>
