<?xml version="1.0" encoding="utf-8" standalone="no"?>
<!DOCTYPE svg PUBLIC "-//W3C//DTD SVG 1.1//EN"
  "http://www.w3.org/Graphics/SVG/1.1/DTD/svg11.dtd">
<svg xmlns:xlink="http://www.w3.org/1999/xlink" width="731.185pt" height="224.221562pt" viewBox="0 0 731.185 224.221562" xmlns="http://www.w3.org/2000/svg" version="1.1">
 <metadata>
  <rdf:RDF xmlns:dc="http://purl.org/dc/elements/1.1/" xmlns:cc="http://creativecommons.org/ns#" xmlns:rdf="http://www.w3.org/1999/02/22-rdf-syntax-ns#">
   <cc:Work>
    <dc:type rdf:resource="http://purl.org/dc/dcmitype/StillImage"/>
    <dc:date>2023-03-24T17:35:30.464948</dc:date>
    <dc:format>image/svg+xml</dc:format>
    <dc:creator>
     <cc:Agent>
      <dc:title>Matplotlib v3.5.2, https://matplotlib.org/</dc:title>
     </cc:Agent>
    </dc:creator>
   </cc:Work>
  </rdf:RDF>
 </metadata>
 <defs>
  <style type="text/css">*{stroke-linejoin: round; stroke-linecap: butt}</style>
 </defs>
 <g id="figure_1">
  <g id="patch_1">
   <path d="M 0 224.221562 
L 731.185 224.221562 
L 731.185 -0 
L 0 -0 
z
" style="fill: #ffffff"/>
  </g>
  <g id="axes_1">
   <g id="patch_2">
    <path d="M 54.385 178.551562 
L 723.985 178.551562 
L 723.985 39.951562 
L 54.385 39.951562 
z
" style="fill: #ffffff"/>
   </g>
   <g id="matplotlib.axis_1">
    <g id="xtick_1">
     <g id="line2d_1">
      <defs>
       <path id="m8c41b694cd" d="M 0 0 
L 0 -3.5 
" style="stroke: #000000; stroke-width: 0.8"/>
      </defs>
      <g>
       <use xlink:href="#m8c41b694cd" x="65.831154" y="178.551562" style="stroke: #000000; stroke-width: 0.8"/>
      </g>
     </g>
     <g id="line2d_2">
      <defs>
       <path id="m909de35b61" d="M 0 0 
L 0 3.5 
" style="stroke: #000000; stroke-width: 0.8"/>
      </defs>
      <g>
       <use xlink:href="#m909de35b61" x="65.831154" y="39.951562" style="stroke: #000000; stroke-width: 0.8"/>
      </g>
     </g>
     <g id="text_1">
      <!-- 0 -->
      <g transform="translate(61.377404 192.689375)scale(0.14 -0.14)">
       <defs>
        <path id="DejaVuSans-30" d="M 2034 4250 
Q 1547 4250 1301 3770 
Q 1056 3291 1056 2328 
Q 1056 1369 1301 889 
Q 1547 409 2034 409 
Q 2525 409 2770 889 
Q 3016 1369 3016 2328 
Q 3016 3291 2770 3770 
Q 2525 4250 2034 4250 
z
M 2034 4750 
Q 2819 4750 3233 4129 
Q 3647 3509 3647 2328 
Q 3647 1150 3233 529 
Q 2819 -91 2034 -91 
Q 1250 -91 836 529 
Q 422 1150 422 2328 
Q 422 3509 836 4129 
Q 1250 4750 2034 4750 
z
" transform="scale(0.015625)"/>
       </defs>
       <use xlink:href="#DejaVuSans-30"/>
      </g>
     </g>
    </g>
    <g id="xtick_2">
     <g id="line2d_3">
      <g>
       <use xlink:href="#m8c41b694cd" x="180.292692" y="178.551562" style="stroke: #000000; stroke-width: 0.8"/>
      </g>
     </g>
     <g id="line2d_4">
      <g>
       <use xlink:href="#m909de35b61" x="180.292692" y="39.951562" style="stroke: #000000; stroke-width: 0.8"/>
      </g>
     </g>
     <g id="text_2">
      <!-- 20 -->
      <g transform="translate(171.385192 192.689375)scale(0.14 -0.14)">
       <defs>
        <path id="DejaVuSans-32" d="M 1228 531 
L 3431 531 
L 3431 0 
L 469 0 
L 469 531 
Q 828 903 1448 1529 
Q 2069 2156 2228 2338 
Q 2531 2678 2651 2914 
Q 2772 3150 2772 3378 
Q 2772 3750 2511 3984 
Q 2250 4219 1831 4219 
Q 1534 4219 1204 4116 
Q 875 4013 500 3803 
L 500 4441 
Q 881 4594 1212 4672 
Q 1544 4750 1819 4750 
Q 2544 4750 2975 4387 
Q 3406 4025 3406 3419 
Q 3406 3131 3298 2873 
Q 3191 2616 2906 2266 
Q 2828 2175 2409 1742 
Q 1991 1309 1228 531 
z
" transform="scale(0.015625)"/>
       </defs>
       <use xlink:href="#DejaVuSans-32"/>
       <use xlink:href="#DejaVuSans-30" x="63.623047"/>
      </g>
     </g>
    </g>
    <g id="xtick_3">
     <g id="line2d_5">
      <g>
       <use xlink:href="#m8c41b694cd" x="294.754231" y="178.551562" style="stroke: #000000; stroke-width: 0.8"/>
      </g>
     </g>
     <g id="line2d_6">
      <g>
       <use xlink:href="#m909de35b61" x="294.754231" y="39.951562" style="stroke: #000000; stroke-width: 0.8"/>
      </g>
     </g>
     <g id="text_3">
      <!-- 40 -->
      <g transform="translate(285.846731 192.689375)scale(0.14 -0.14)">
       <defs>
        <path id="DejaVuSans-34" d="M 2419 4116 
L 825 1625 
L 2419 1625 
L 2419 4116 
z
M 2253 4666 
L 3047 4666 
L 3047 1625 
L 3713 1625 
L 3713 1100 
L 3047 1100 
L 3047 0 
L 2419 0 
L 2419 1100 
L 313 1100 
L 313 1709 
L 2253 4666 
z
" transform="scale(0.015625)"/>
       </defs>
       <use xlink:href="#DejaVuSans-34"/>
       <use xlink:href="#DejaVuSans-30" x="63.623047"/>
      </g>
     </g>
    </g>
    <g id="xtick_4">
     <g id="line2d_7">
      <g>
       <use xlink:href="#m8c41b694cd" x="409.215769" y="178.551562" style="stroke: #000000; stroke-width: 0.8"/>
      </g>
     </g>
     <g id="line2d_8">
      <g>
       <use xlink:href="#m909de35b61" x="409.215769" y="39.951562" style="stroke: #000000; stroke-width: 0.8"/>
      </g>
     </g>
     <g id="text_4">
      <!-- 60 -->
      <g transform="translate(400.308269 192.689375)scale(0.14 -0.14)">
       <defs>
        <path id="DejaVuSans-36" d="M 2113 2584 
Q 1688 2584 1439 2293 
Q 1191 2003 1191 1497 
Q 1191 994 1439 701 
Q 1688 409 2113 409 
Q 2538 409 2786 701 
Q 3034 994 3034 1497 
Q 3034 2003 2786 2293 
Q 2538 2584 2113 2584 
z
M 3366 4563 
L 3366 3988 
Q 3128 4100 2886 4159 
Q 2644 4219 2406 4219 
Q 1781 4219 1451 3797 
Q 1122 3375 1075 2522 
Q 1259 2794 1537 2939 
Q 1816 3084 2150 3084 
Q 2853 3084 3261 2657 
Q 3669 2231 3669 1497 
Q 3669 778 3244 343 
Q 2819 -91 2113 -91 
Q 1303 -91 875 529 
Q 447 1150 447 2328 
Q 447 3434 972 4092 
Q 1497 4750 2381 4750 
Q 2619 4750 2861 4703 
Q 3103 4656 3366 4563 
z
" transform="scale(0.015625)"/>
       </defs>
       <use xlink:href="#DejaVuSans-36"/>
       <use xlink:href="#DejaVuSans-30" x="63.623047"/>
      </g>
     </g>
    </g>
    <g id="xtick_5">
     <g id="line2d_9">
      <g>
       <use xlink:href="#m8c41b694cd" x="523.677308" y="178.551562" style="stroke: #000000; stroke-width: 0.8"/>
      </g>
     </g>
     <g id="line2d_10">
      <g>
       <use xlink:href="#m909de35b61" x="523.677308" y="39.951562" style="stroke: #000000; stroke-width: 0.8"/>
      </g>
     </g>
     <g id="text_5">
      <!-- 80 -->
      <g transform="translate(514.769808 192.689375)scale(0.14 -0.14)">
       <defs>
        <path id="DejaVuSans-38" d="M 2034 2216 
Q 1584 2216 1326 1975 
Q 1069 1734 1069 1313 
Q 1069 891 1326 650 
Q 1584 409 2034 409 
Q 2484 409 2743 651 
Q 3003 894 3003 1313 
Q 3003 1734 2745 1975 
Q 2488 2216 2034 2216 
z
M 1403 2484 
Q 997 2584 770 2862 
Q 544 3141 544 3541 
Q 544 4100 942 4425 
Q 1341 4750 2034 4750 
Q 2731 4750 3128 4425 
Q 3525 4100 3525 3541 
Q 3525 3141 3298 2862 
Q 3072 2584 2669 2484 
Q 3125 2378 3379 2068 
Q 3634 1759 3634 1313 
Q 3634 634 3220 271 
Q 2806 -91 2034 -91 
Q 1263 -91 848 271 
Q 434 634 434 1313 
Q 434 1759 690 2068 
Q 947 2378 1403 2484 
z
M 1172 3481 
Q 1172 3119 1398 2916 
Q 1625 2713 2034 2713 
Q 2441 2713 2670 2916 
Q 2900 3119 2900 3481 
Q 2900 3844 2670 4047 
Q 2441 4250 2034 4250 
Q 1625 4250 1398 4047 
Q 1172 3844 1172 3481 
z
" transform="scale(0.015625)"/>
       </defs>
       <use xlink:href="#DejaVuSans-38"/>
       <use xlink:href="#DejaVuSans-30" x="63.623047"/>
      </g>
     </g>
    </g>
    <g id="xtick_6">
     <g id="line2d_11">
      <g>
       <use xlink:href="#m8c41b694cd" x="638.138846" y="178.551562" style="stroke: #000000; stroke-width: 0.8"/>
      </g>
     </g>
     <g id="line2d_12">
      <g>
       <use xlink:href="#m909de35b61" x="638.138846" y="39.951562" style="stroke: #000000; stroke-width: 0.8"/>
      </g>
     </g>
     <g id="text_6">
      <!-- 100 -->
      <g transform="translate(624.777596 192.689375)scale(0.14 -0.14)">
       <defs>
        <path id="DejaVuSans-31" d="M 794 531 
L 1825 531 
L 1825 4091 
L 703 3866 
L 703 4441 
L 1819 4666 
L 2450 4666 
L 2450 531 
L 3481 531 
L 3481 0 
L 794 0 
L 794 531 
z
" transform="scale(0.015625)"/>
       </defs>
       <use xlink:href="#DejaVuSans-31"/>
       <use xlink:href="#DejaVuSans-30" x="63.623047"/>
       <use xlink:href="#DejaVuSans-30" x="127.246094"/>
      </g>
     </g>
    </g>
    <g id="text_7">
     <!-- Time (s) -->
     <g transform="translate(352.592969 213.278125)scale(0.18 -0.18)">
      <defs>
       <path id="DejaVuSans-54" d="M -19 4666 
L 3928 4666 
L 3928 4134 
L 2272 4134 
L 2272 0 
L 1638 0 
L 1638 4134 
L -19 4134 
L -19 4666 
z
" transform="scale(0.015625)"/>
       <path id="DejaVuSans-69" d="M 603 3500 
L 1178 3500 
L 1178 0 
L 603 0 
L 603 3500 
z
M 603 4863 
L 1178 4863 
L 1178 4134 
L 603 4134 
L 603 4863 
z
" transform="scale(0.015625)"/>
       <path id="DejaVuSans-6d" d="M 3328 2828 
Q 3544 3216 3844 3400 
Q 4144 3584 4550 3584 
Q 5097 3584 5394 3201 
Q 5691 2819 5691 2113 
L 5691 0 
L 5113 0 
L 5113 2094 
Q 5113 2597 4934 2840 
Q 4756 3084 4391 3084 
Q 3944 3084 3684 2787 
Q 3425 2491 3425 1978 
L 3425 0 
L 2847 0 
L 2847 2094 
Q 2847 2600 2669 2842 
Q 2491 3084 2119 3084 
Q 1678 3084 1418 2786 
Q 1159 2488 1159 1978 
L 1159 0 
L 581 0 
L 581 3500 
L 1159 3500 
L 1159 2956 
Q 1356 3278 1631 3431 
Q 1906 3584 2284 3584 
Q 2666 3584 2933 3390 
Q 3200 3197 3328 2828 
z
" transform="scale(0.015625)"/>
       <path id="DejaVuSans-65" d="M 3597 1894 
L 3597 1613 
L 953 1613 
Q 991 1019 1311 708 
Q 1631 397 2203 397 
Q 2534 397 2845 478 
Q 3156 559 3463 722 
L 3463 178 
Q 3153 47 2828 -22 
Q 2503 -91 2169 -91 
Q 1331 -91 842 396 
Q 353 884 353 1716 
Q 353 2575 817 3079 
Q 1281 3584 2069 3584 
Q 2775 3584 3186 3129 
Q 3597 2675 3597 1894 
z
M 3022 2063 
Q 3016 2534 2758 2815 
Q 2500 3097 2075 3097 
Q 1594 3097 1305 2825 
Q 1016 2553 972 2059 
L 3022 2063 
z
" transform="scale(0.015625)"/>
       <path id="DejaVuSans-20" transform="scale(0.015625)"/>
       <path id="DejaVuSans-28" d="M 1984 4856 
Q 1566 4138 1362 3434 
Q 1159 2731 1159 2009 
Q 1159 1288 1364 580 
Q 1569 -128 1984 -844 
L 1484 -844 
Q 1016 -109 783 600 
Q 550 1309 550 2009 
Q 550 2706 781 3412 
Q 1013 4119 1484 4856 
L 1984 4856 
z
" transform="scale(0.015625)"/>
       <path id="DejaVuSans-73" d="M 2834 3397 
L 2834 2853 
Q 2591 2978 2328 3040 
Q 2066 3103 1784 3103 
Q 1356 3103 1142 2972 
Q 928 2841 928 2578 
Q 928 2378 1081 2264 
Q 1234 2150 1697 2047 
L 1894 2003 
Q 2506 1872 2764 1633 
Q 3022 1394 3022 966 
Q 3022 478 2636 193 
Q 2250 -91 1575 -91 
Q 1294 -91 989 -36 
Q 684 19 347 128 
L 347 722 
Q 666 556 975 473 
Q 1284 391 1588 391 
Q 1994 391 2212 530 
Q 2431 669 2431 922 
Q 2431 1156 2273 1281 
Q 2116 1406 1581 1522 
L 1381 1569 
Q 847 1681 609 1914 
Q 372 2147 372 2553 
Q 372 3047 722 3315 
Q 1072 3584 1716 3584 
Q 2034 3584 2315 3537 
Q 2597 3491 2834 3397 
z
" transform="scale(0.015625)"/>
       <path id="DejaVuSans-29" d="M 513 4856 
L 1013 4856 
Q 1481 4119 1714 3412 
Q 1947 2706 1947 2009 
Q 1947 1309 1714 600 
Q 1481 -109 1013 -844 
L 513 -844 
Q 928 -128 1133 580 
Q 1338 1288 1338 2009 
Q 1338 2731 1133 3434 
Q 928 4138 513 4856 
z
" transform="scale(0.015625)"/>
      </defs>
      <use xlink:href="#DejaVuSans-54"/>
      <use xlink:href="#DejaVuSans-69" x="57.958984"/>
      <use xlink:href="#DejaVuSans-6d" x="85.742188"/>
      <use xlink:href="#DejaVuSans-65" x="183.154297"/>
      <use xlink:href="#DejaVuSans-20" x="244.677734"/>
      <use xlink:href="#DejaVuSans-28" x="276.464844"/>
      <use xlink:href="#DejaVuSans-73" x="315.478516"/>
      <use xlink:href="#DejaVuSans-29" x="367.578125"/>
     </g>
    </g>
   </g>
   <g id="matplotlib.axis_2">
    <g id="ytick_1">
     <g id="line2d_13">
      <defs>
       <path id="m8b3420c679" d="M 0 0 
L 3.5 0 
" style="stroke: #000000; stroke-width: 0.8"/>
      </defs>
      <g>
       <use xlink:href="#m8b3420c679" x="54.385" y="172.501701" style="stroke: #000000; stroke-width: 0.8"/>
      </g>
     </g>
     <g id="line2d_14">
      <defs>
       <path id="m6864c2c6f0" d="M 0 0 
L -3.5 0 
" style="stroke: #000000; stroke-width: 0.8"/>
      </defs>
      <g>
       <use xlink:href="#m6864c2c6f0" x="723.985" y="172.501701" style="stroke: #000000; stroke-width: 0.8"/>
      </g>
     </g>
     <g id="text_8">
      <!-- 0.0 -->
      <g transform="translate(28.620625 177.820607)scale(0.14 -0.14)">
       <defs>
        <path id="DejaVuSans-2e" d="M 684 794 
L 1344 794 
L 1344 0 
L 684 0 
L 684 794 
z
" transform="scale(0.015625)"/>
       </defs>
       <use xlink:href="#DejaVuSans-30"/>
       <use xlink:href="#DejaVuSans-2e" x="63.623047"/>
       <use xlink:href="#DejaVuSans-30" x="95.410156"/>
      </g>
     </g>
    </g>
    <g id="ytick_2">
     <g id="line2d_15">
      <g>
       <use xlink:href="#m8b3420c679" x="54.385" y="122.474049" style="stroke: #000000; stroke-width: 0.8"/>
      </g>
     </g>
     <g id="line2d_16">
      <g>
       <use xlink:href="#m6864c2c6f0" x="723.985" y="122.474049" style="stroke: #000000; stroke-width: 0.8"/>
      </g>
     </g>
     <g id="text_9">
      <!-- 0.2 -->
      <g transform="translate(28.620625 127.792955)scale(0.14 -0.14)">
       <use xlink:href="#DejaVuSans-30"/>
       <use xlink:href="#DejaVuSans-2e" x="63.623047"/>
       <use xlink:href="#DejaVuSans-32" x="95.410156"/>
      </g>
     </g>
    </g>
    <g id="ytick_3">
     <g id="line2d_17">
      <g>
       <use xlink:href="#m8b3420c679" x="54.385" y="72.446397" style="stroke: #000000; stroke-width: 0.8"/>
      </g>
     </g>
     <g id="line2d_18">
      <g>
       <use xlink:href="#m6864c2c6f0" x="723.985" y="72.446397" style="stroke: #000000; stroke-width: 0.8"/>
      </g>
     </g>
     <g id="text_10">
      <!-- 0.4 -->
      <g transform="translate(28.620625 77.765303)scale(0.14 -0.14)">
       <use xlink:href="#DejaVuSans-30"/>
       <use xlink:href="#DejaVuSans-2e" x="63.623047"/>
       <use xlink:href="#DejaVuSans-34" x="95.410156"/>
      </g>
     </g>
    </g>
    <g id="text_11">
     <!-- Characteristic Time (s) -->
     <g transform="translate(20.877187 211.303125)rotate(-90)scale(0.18 -0.18)">
      <defs>
       <path id="DejaVuSans-43" d="M 4122 4306 
L 4122 3641 
Q 3803 3938 3442 4084 
Q 3081 4231 2675 4231 
Q 1875 4231 1450 3742 
Q 1025 3253 1025 2328 
Q 1025 1406 1450 917 
Q 1875 428 2675 428 
Q 3081 428 3442 575 
Q 3803 722 4122 1019 
L 4122 359 
Q 3791 134 3420 21 
Q 3050 -91 2638 -91 
Q 1578 -91 968 557 
Q 359 1206 359 2328 
Q 359 3453 968 4101 
Q 1578 4750 2638 4750 
Q 3056 4750 3426 4639 
Q 3797 4528 4122 4306 
z
" transform="scale(0.015625)"/>
       <path id="DejaVuSans-68" d="M 3513 2113 
L 3513 0 
L 2938 0 
L 2938 2094 
Q 2938 2591 2744 2837 
Q 2550 3084 2163 3084 
Q 1697 3084 1428 2787 
Q 1159 2491 1159 1978 
L 1159 0 
L 581 0 
L 581 4863 
L 1159 4863 
L 1159 2956 
Q 1366 3272 1645 3428 
Q 1925 3584 2291 3584 
Q 2894 3584 3203 3211 
Q 3513 2838 3513 2113 
z
" transform="scale(0.015625)"/>
       <path id="DejaVuSans-61" d="M 2194 1759 
Q 1497 1759 1228 1600 
Q 959 1441 959 1056 
Q 959 750 1161 570 
Q 1363 391 1709 391 
Q 2188 391 2477 730 
Q 2766 1069 2766 1631 
L 2766 1759 
L 2194 1759 
z
M 3341 1997 
L 3341 0 
L 2766 0 
L 2766 531 
Q 2569 213 2275 61 
Q 1981 -91 1556 -91 
Q 1019 -91 701 211 
Q 384 513 384 1019 
Q 384 1609 779 1909 
Q 1175 2209 1959 2209 
L 2766 2209 
L 2766 2266 
Q 2766 2663 2505 2880 
Q 2244 3097 1772 3097 
Q 1472 3097 1187 3025 
Q 903 2953 641 2809 
L 641 3341 
Q 956 3463 1253 3523 
Q 1550 3584 1831 3584 
Q 2591 3584 2966 3190 
Q 3341 2797 3341 1997 
z
" transform="scale(0.015625)"/>
       <path id="DejaVuSans-72" d="M 2631 2963 
Q 2534 3019 2420 3045 
Q 2306 3072 2169 3072 
Q 1681 3072 1420 2755 
Q 1159 2438 1159 1844 
L 1159 0 
L 581 0 
L 581 3500 
L 1159 3500 
L 1159 2956 
Q 1341 3275 1631 3429 
Q 1922 3584 2338 3584 
Q 2397 3584 2469 3576 
Q 2541 3569 2628 3553 
L 2631 2963 
z
" transform="scale(0.015625)"/>
       <path id="DejaVuSans-63" d="M 3122 3366 
L 3122 2828 
Q 2878 2963 2633 3030 
Q 2388 3097 2138 3097 
Q 1578 3097 1268 2742 
Q 959 2388 959 1747 
Q 959 1106 1268 751 
Q 1578 397 2138 397 
Q 2388 397 2633 464 
Q 2878 531 3122 666 
L 3122 134 
Q 2881 22 2623 -34 
Q 2366 -91 2075 -91 
Q 1284 -91 818 406 
Q 353 903 353 1747 
Q 353 2603 823 3093 
Q 1294 3584 2113 3584 
Q 2378 3584 2631 3529 
Q 2884 3475 3122 3366 
z
" transform="scale(0.015625)"/>
       <path id="DejaVuSans-74" d="M 1172 4494 
L 1172 3500 
L 2356 3500 
L 2356 3053 
L 1172 3053 
L 1172 1153 
Q 1172 725 1289 603 
Q 1406 481 1766 481 
L 2356 481 
L 2356 0 
L 1766 0 
Q 1100 0 847 248 
Q 594 497 594 1153 
L 594 3053 
L 172 3053 
L 172 3500 
L 594 3500 
L 594 4494 
L 1172 4494 
z
" transform="scale(0.015625)"/>
      </defs>
      <use xlink:href="#DejaVuSans-43"/>
      <use xlink:href="#DejaVuSans-68" x="69.824219"/>
      <use xlink:href="#DejaVuSans-61" x="133.203125"/>
      <use xlink:href="#DejaVuSans-72" x="194.482422"/>
      <use xlink:href="#DejaVuSans-61" x="235.595703"/>
      <use xlink:href="#DejaVuSans-63" x="296.875"/>
      <use xlink:href="#DejaVuSans-74" x="351.855469"/>
      <use xlink:href="#DejaVuSans-65" x="391.064453"/>
      <use xlink:href="#DejaVuSans-72" x="452.587891"/>
      <use xlink:href="#DejaVuSans-69" x="493.701172"/>
      <use xlink:href="#DejaVuSans-73" x="521.484375"/>
      <use xlink:href="#DejaVuSans-74" x="573.583984"/>
      <use xlink:href="#DejaVuSans-69" x="612.792969"/>
      <use xlink:href="#DejaVuSans-63" x="640.576172"/>
      <use xlink:href="#DejaVuSans-20" x="695.556641"/>
      <use xlink:href="#DejaVuSans-54" x="727.34375"/>
      <use xlink:href="#DejaVuSans-69" x="785.302734"/>
      <use xlink:href="#DejaVuSans-6d" x="813.085938"/>
      <use xlink:href="#DejaVuSans-65" x="910.498047"/>
      <use xlink:href="#DejaVuSans-20" x="972.021484"/>
      <use xlink:href="#DejaVuSans-28" x="1003.808594"/>
      <use xlink:href="#DejaVuSans-73" x="1042.822266"/>
      <use xlink:href="#DejaVuSans-29" x="1094.921875"/>
     </g>
    </g>
   </g>
   <g id="line2d_19">
    <path d="M 73.809123 164.711996 
L 79.520754 161.115373 
L 90.9898 170.883503 
L 96.701431 170.772293 
L 108.159031 166.553133 
L 113.882108 162.585311 
L 119.536508 126.86924 
L 125.248138 118.808948 
L 128.956692 150.344002 
L 133.535154 157.644558 
L 145.519277 167.354439 
L 151.219462 106.559337 
L 169.132692 158.218939 
L 174.913 135.964518 
L 180.498723 135.712758 
L 186.301923 154.958477 
L 192.025 154.496943 
L 201.525308 111.484302 
L 205.336877 171.224784 
L 209.194231 165.300346 
L 214.848631 171.624504 
L 220.560262 170.185371 
L 226.363462 171.921138 
L 232.086538 168.231972 
L 243.544138 170.29502 
L 247.172569 133.978827 
L 253.044446 171.803084 
L 257.153615 172.251562 
L 261.331462 171.9224 
L 268.988938 123.214155 
L 272.480015 116.827647 
L 276.531954 168.871297 
L 294.239154 155.304806 
L 300.580323 159.825464 
L 306.921492 157.944273 
L 311.545738 151.851724 
L 317.131462 152.932037 
L 320.988815 171.357135 
L 324.674477 155.492195 
L 328.726415 147.59199 
L 334.312138 149.870852 
L 340.264138 89.709338 
L 347.177615 113.897054 
L 351.481369 152.091585 
L 357.204446 148.471205 
L 365.308323 169.678205 
L 368.787954 126.746702 
L 374.373677 139.207396 
L 380.325677 132.447687 
L 385.533677 127.663008 
L 391.554354 147.65144 
L 397.265985 118.770993 
L 401.317923 126.58168 
L 404.797554 169.359531 
L 408.723585 147.362797 
L 420.661923 163.755462 
L 422.573431 168.052829 
L 424.290354 168.20711 
L 435.736508 172.251562 
L 437.636569 166.350793 
L 439.548077 163.030729 
L 441.448138 165.072891 
L 443.359646 159.801952 
L 445.191031 122.248921 
L 447.102538 101.687564 
L 449.0026 148.763262 
L 450.914108 153.880408 
L 452.814169 164.254668 
L 454.714231 142.929 
L 456.866108 116.139382 
L 458.010723 172.251562 
L 459.212569 148.978553 
L 461.112631 156.880754 
L 462.268692 128.867711 
L 464.409123 52.734869 
L 466.309185 46.251562 
L 469.411092 93.863241 
L 470.944877 161.513173 
L 472.272631 156.960583 
L 475.614908 142.518351 
L 477.526415 144.543485 
L 479.426477 153.440824 
L 481.337985 159.087203 
L 486.980938 100.279096 
L 488.881 136.587468 
L 490.792508 150.252571 
L 492.704015 150.931318 
L 494.615523 143.260277 
L 496.515585 168.276586 
L 498.415646 169.332807 
L 500.327154 170.791456 
L 502.238662 170.617975 
L 504.138723 166.755105 
L 506.050231 155.397042 
L 507.950292 164.84728 
L 509.8618 163.58944 
L 511.693185 172.251562 
L 513.604692 126.586391 
L 515.5162 76.609136 
L 517.416262 131.46445 
L 519.316323 162.220286 
L 521.216385 164.663224 
L 523.127892 149.275013 
L 525.279769 172.251562 
L 526.859338 98.057478 
L 528.770846 114.613408 
L 530.670908 133.869646 
L 536.634354 102.278734 
L 538.213923 135.673432 
L 540.113985 143.721844 
L 542.117062 101.829293 
L 545.928631 144.695412 
L 549.7402 161.673347 
L 553.620446 103.574529 
L 561.999031 134.218418 
L 563.899092 48.690134 
L 565.8106 159.393282 
L 567.710662 170.598577 
L 569.622169 169.291676 
L 571.522231 169.644282 
L 573.433738 170.140079 
L 575.3338 170.350802 
L 577.245308 170.319161 
L 579.145369 170.438538 
L 581.056877 169.984532 
L 582.968385 113.187919 
L 584.868446 159.409135 
L 586.779954 148.240928 
L 590.522846 133.813864 
L 592.422908 128.911158 
L 594.334415 152.406597 
L 596.234477 161.988702 
L 598.134538 163.45224 
L 600.046046 158.742445 
L 603.914846 126.085638 
L 605.494415 108.615381 
L 607.589062 154.367208 
L 609.500569 145.550872 
L 611.641 109.343654 
L 616.654415 162.571094 
L 617.993615 159.34227 
L 621.095523 99.635672 
L 622.995585 94.387176 
L 624.758292 136.455013 
L 626.6698 144.965799 
L 630.5386 89.980308 
L 634.224262 109.771573 
L 636.124323 147.28692 
L 638.035831 160.163998 
L 639.935892 162.377944 
L 641.835954 163.91476 
L 643.747462 163.539084 
L 645.658969 167.744359 
L 647.570477 148.411201 
L 649.481985 125.447635 
L 651.382046 91.960371 
L 653.293554 138.687058 
L 657.036446 158.196617 
L 658.936508 132.119656 
L 660.848015 112.288011 
L 662.748077 150.366801 
L 664.648138 159.127192 
L 666.559646 163.70909 
L 668.459708 163.420628 
L 670.359769 110.872687 
L 672.2026 117.92328 
L 674.114108 149.436856 
L 676.014169 159.41993 
L 677.925677 150.201179 
L 680.066108 93.202762 
L 681.737246 146.383181 
L 685.079523 168.560576 
L 686.224138 132.644659 
L 689.509185 115.906946 
L 691.420692 110.428212 
L 693.320754 133.055551 
L 694.717185 168.948845 
L 695.850354 160.62383 
L 695.850354 160.62383 
" clip-path="url(#p325f50c624)" style="fill: none; stroke: #000000; stroke-width: 1.5; stroke-linecap: square"/>
    <defs>
     <path id="m2f1513e50e" d="M 0 0.75 
C 0.198902 0.75 0.389685 0.670975 0.53033 0.53033 
C 0.670975 0.389685 0.75 0.198902 0.75 0 
C 0.75 -0.198902 0.670975 -0.389685 0.53033 -0.53033 
C 0.389685 -0.670975 0.198902 -0.75 0 -0.75 
C -0.198902 -0.75 -0.389685 -0.670975 -0.53033 -0.53033 
C -0.670975 -0.389685 -0.75 -0.198902 -0.75 0 
C -0.75 0.198902 -0.670975 0.389685 -0.53033 0.53033 
C -0.389685 0.670975 -0.198902 0.75 0 0.75 
z
" style="stroke: #000000"/>
    </defs>
    <g clip-path="url(#p325f50c624)">
     <use xlink:href="#m2f1513e50e" x="73.809123" y="164.711996" style="stroke: #000000"/>
     <use xlink:href="#m2f1513e50e" x="79.520754" y="161.115373" style="stroke: #000000"/>
     <use xlink:href="#m2f1513e50e" x="90.9898" y="170.883503" style="stroke: #000000"/>
     <use xlink:href="#m2f1513e50e" x="96.701431" y="170.772293" style="stroke: #000000"/>
     <use xlink:href="#m2f1513e50e" x="108.159031" y="166.553133" style="stroke: #000000"/>
     <use xlink:href="#m2f1513e50e" x="113.882108" y="162.585311" style="stroke: #000000"/>
     <use xlink:href="#m2f1513e50e" x="119.536508" y="126.86924" style="stroke: #000000"/>
     <use xlink:href="#m2f1513e50e" x="125.248138" y="118.808948" style="stroke: #000000"/>
     <use xlink:href="#m2f1513e50e" x="128.956692" y="150.344002" style="stroke: #000000"/>
     <use xlink:href="#m2f1513e50e" x="133.535154" y="157.644558" style="stroke: #000000"/>
     <use xlink:href="#m2f1513e50e" x="145.519277" y="167.354439" style="stroke: #000000"/>
     <use xlink:href="#m2f1513e50e" x="151.219462" y="106.559337" style="stroke: #000000"/>
     <use xlink:href="#m2f1513e50e" x="169.132692" y="158.218939" style="stroke: #000000"/>
     <use xlink:href="#m2f1513e50e" x="174.913" y="135.964518" style="stroke: #000000"/>
     <use xlink:href="#m2f1513e50e" x="180.498723" y="135.712758" style="stroke: #000000"/>
     <use xlink:href="#m2f1513e50e" x="186.301923" y="154.958477" style="stroke: #000000"/>
     <use xlink:href="#m2f1513e50e" x="192.025" y="154.496943" style="stroke: #000000"/>
     <use xlink:href="#m2f1513e50e" x="201.525308" y="111.484302" style="stroke: #000000"/>
     <use xlink:href="#m2f1513e50e" x="205.336877" y="171.224784" style="stroke: #000000"/>
     <use xlink:href="#m2f1513e50e" x="209.194231" y="165.300346" style="stroke: #000000"/>
     <use xlink:href="#m2f1513e50e" x="214.848631" y="171.624504" style="stroke: #000000"/>
     <use xlink:href="#m2f1513e50e" x="220.560262" y="170.185371" style="stroke: #000000"/>
     <use xlink:href="#m2f1513e50e" x="226.363462" y="171.921138" style="stroke: #000000"/>
     <use xlink:href="#m2f1513e50e" x="232.086538" y="168.231972" style="stroke: #000000"/>
     <use xlink:href="#m2f1513e50e" x="243.544138" y="170.29502" style="stroke: #000000"/>
     <use xlink:href="#m2f1513e50e" x="247.172569" y="133.978827" style="stroke: #000000"/>
     <use xlink:href="#m2f1513e50e" x="253.044446" y="171.803084" style="stroke: #000000"/>
     <use xlink:href="#m2f1513e50e" x="257.153615" y="172.251562" style="stroke: #000000"/>
     <use xlink:href="#m2f1513e50e" x="261.331462" y="171.9224" style="stroke: #000000"/>
     <use xlink:href="#m2f1513e50e" x="268.988938" y="123.214155" style="stroke: #000000"/>
     <use xlink:href="#m2f1513e50e" x="272.480015" y="116.827647" style="stroke: #000000"/>
     <use xlink:href="#m2f1513e50e" x="276.531954" y="168.871297" style="stroke: #000000"/>
     <use xlink:href="#m2f1513e50e" x="294.239154" y="155.304806" style="stroke: #000000"/>
     <use xlink:href="#m2f1513e50e" x="300.580323" y="159.825464" style="stroke: #000000"/>
     <use xlink:href="#m2f1513e50e" x="306.921492" y="157.944273" style="stroke: #000000"/>
     <use xlink:href="#m2f1513e50e" x="311.545738" y="151.851724" style="stroke: #000000"/>
     <use xlink:href="#m2f1513e50e" x="317.131462" y="152.932037" style="stroke: #000000"/>
     <use xlink:href="#m2f1513e50e" x="320.988815" y="171.357135" style="stroke: #000000"/>
     <use xlink:href="#m2f1513e50e" x="324.674477" y="155.492195" style="stroke: #000000"/>
     <use xlink:href="#m2f1513e50e" x="328.726415" y="147.59199" style="stroke: #000000"/>
     <use xlink:href="#m2f1513e50e" x="334.312138" y="149.870852" style="stroke: #000000"/>
     <use xlink:href="#m2f1513e50e" x="340.264138" y="89.709338" style="stroke: #000000"/>
     <use xlink:href="#m2f1513e50e" x="347.177615" y="113.897054" style="stroke: #000000"/>
     <use xlink:href="#m2f1513e50e" x="351.481369" y="152.091585" style="stroke: #000000"/>
     <use xlink:href="#m2f1513e50e" x="357.204446" y="148.471205" style="stroke: #000000"/>
     <use xlink:href="#m2f1513e50e" x="365.308323" y="169.678205" style="stroke: #000000"/>
     <use xlink:href="#m2f1513e50e" x="368.787954" y="126.746702" style="stroke: #000000"/>
     <use xlink:href="#m2f1513e50e" x="374.373677" y="139.207396" style="stroke: #000000"/>
     <use xlink:href="#m2f1513e50e" x="380.325677" y="132.447687" style="stroke: #000000"/>
     <use xlink:href="#m2f1513e50e" x="385.533677" y="127.663008" style="stroke: #000000"/>
     <use xlink:href="#m2f1513e50e" x="391.554354" y="147.65144" style="stroke: #000000"/>
     <use xlink:href="#m2f1513e50e" x="397.265985" y="118.770993" style="stroke: #000000"/>
     <use xlink:href="#m2f1513e50e" x="401.317923" y="126.58168" style="stroke: #000000"/>
     <use xlink:href="#m2f1513e50e" x="404.797554" y="169.359531" style="stroke: #000000"/>
     <use xlink:href="#m2f1513e50e" x="408.723585" y="147.362797" style="stroke: #000000"/>
     <use xlink:href="#m2f1513e50e" x="420.661923" y="163.755462" style="stroke: #000000"/>
     <use xlink:href="#m2f1513e50e" x="422.573431" y="168.052829" style="stroke: #000000"/>
     <use xlink:href="#m2f1513e50e" x="424.290354" y="168.20711" style="stroke: #000000"/>
     <use xlink:href="#m2f1513e50e" x="435.736508" y="172.251562" style="stroke: #000000"/>
     <use xlink:href="#m2f1513e50e" x="437.636569" y="166.350793" style="stroke: #000000"/>
     <use xlink:href="#m2f1513e50e" x="439.548077" y="163.030729" style="stroke: #000000"/>
     <use xlink:href="#m2f1513e50e" x="441.448138" y="165.072891" style="stroke: #000000"/>
     <use xlink:href="#m2f1513e50e" x="443.359646" y="159.801952" style="stroke: #000000"/>
     <use xlink:href="#m2f1513e50e" x="445.191031" y="122.248921" style="stroke: #000000"/>
     <use xlink:href="#m2f1513e50e" x="447.102538" y="101.687564" style="stroke: #000000"/>
     <use xlink:href="#m2f1513e50e" x="449.0026" y="148.763262" style="stroke: #000000"/>
     <use xlink:href="#m2f1513e50e" x="450.914108" y="153.880408" style="stroke: #000000"/>
     <use xlink:href="#m2f1513e50e" x="452.814169" y="164.254668" style="stroke: #000000"/>
     <use xlink:href="#m2f1513e50e" x="454.714231" y="142.929" style="stroke: #000000"/>
     <use xlink:href="#m2f1513e50e" x="456.866108" y="116.139382" style="stroke: #000000"/>
     <use xlink:href="#m2f1513e50e" x="458.010723" y="172.251562" style="stroke: #000000"/>
     <use xlink:href="#m2f1513e50e" x="459.212569" y="148.978553" style="stroke: #000000"/>
     <use xlink:href="#m2f1513e50e" x="461.112631" y="156.880754" style="stroke: #000000"/>
     <use xlink:href="#m2f1513e50e" x="462.268692" y="128.867711" style="stroke: #000000"/>
     <use xlink:href="#m2f1513e50e" x="464.409123" y="52.734869" style="stroke: #000000"/>
     <use xlink:href="#m2f1513e50e" x="466.309185" y="46.251562" style="stroke: #000000"/>
     <use xlink:href="#m2f1513e50e" x="468.220692" y="75.517832" style="stroke: #000000"/>
     <use xlink:href="#m2f1513e50e" x="469.411092" y="93.863241" style="stroke: #000000"/>
     <use xlink:href="#m2f1513e50e" x="470.944877" y="161.513173" style="stroke: #000000"/>
     <use xlink:href="#m2f1513e50e" x="472.272631" y="156.960583" style="stroke: #000000"/>
     <use xlink:href="#m2f1513e50e" x="475.614908" y="142.518351" style="stroke: #000000"/>
     <use xlink:href="#m2f1513e50e" x="477.526415" y="144.543485" style="stroke: #000000"/>
     <use xlink:href="#m2f1513e50e" x="479.426477" y="153.440824" style="stroke: #000000"/>
     <use xlink:href="#m2f1513e50e" x="481.337985" y="159.087203" style="stroke: #000000"/>
     <use xlink:href="#m2f1513e50e" x="486.980938" y="100.279096" style="stroke: #000000"/>
     <use xlink:href="#m2f1513e50e" x="488.881" y="136.587468" style="stroke: #000000"/>
     <use xlink:href="#m2f1513e50e" x="490.792508" y="150.252571" style="stroke: #000000"/>
     <use xlink:href="#m2f1513e50e" x="492.704015" y="150.931318" style="stroke: #000000"/>
     <use xlink:href="#m2f1513e50e" x="494.615523" y="143.260277" style="stroke: #000000"/>
     <use xlink:href="#m2f1513e50e" x="496.515585" y="168.276586" style="stroke: #000000"/>
     <use xlink:href="#m2f1513e50e" x="498.415646" y="169.332807" style="stroke: #000000"/>
     <use xlink:href="#m2f1513e50e" x="500.327154" y="170.791456" style="stroke: #000000"/>
     <use xlink:href="#m2f1513e50e" x="502.238662" y="170.617975" style="stroke: #000000"/>
     <use xlink:href="#m2f1513e50e" x="504.138723" y="166.755105" style="stroke: #000000"/>
     <use xlink:href="#m2f1513e50e" x="506.050231" y="155.397042" style="stroke: #000000"/>
     <use xlink:href="#m2f1513e50e" x="507.950292" y="164.84728" style="stroke: #000000"/>
     <use xlink:href="#m2f1513e50e" x="509.8618" y="163.58944" style="stroke: #000000"/>
     <use xlink:href="#m2f1513e50e" x="511.693185" y="172.251562" style="stroke: #000000"/>
     <use xlink:href="#m2f1513e50e" x="513.604692" y="126.586391" style="stroke: #000000"/>
     <use xlink:href="#m2f1513e50e" x="515.5162" y="76.609136" style="stroke: #000000"/>
     <use xlink:href="#m2f1513e50e" x="517.416262" y="131.46445" style="stroke: #000000"/>
     <use xlink:href="#m2f1513e50e" x="519.316323" y="162.220286" style="stroke: #000000"/>
     <use xlink:href="#m2f1513e50e" x="521.216385" y="164.663224" style="stroke: #000000"/>
     <use xlink:href="#m2f1513e50e" x="523.127892" y="149.275013" style="stroke: #000000"/>
     <use xlink:href="#m2f1513e50e" x="525.279769" y="172.251562" style="stroke: #000000"/>
     <use xlink:href="#m2f1513e50e" x="526.859338" y="98.057478" style="stroke: #000000"/>
     <use xlink:href="#m2f1513e50e" x="528.770846" y="114.613408" style="stroke: #000000"/>
     <use xlink:href="#m2f1513e50e" x="530.670908" y="133.869646" style="stroke: #000000"/>
     <use xlink:href="#m2f1513e50e" x="536.634354" y="102.278734" style="stroke: #000000"/>
     <use xlink:href="#m2f1513e50e" x="538.213923" y="135.673432" style="stroke: #000000"/>
     <use xlink:href="#m2f1513e50e" x="540.113985" y="143.721844" style="stroke: #000000"/>
     <use xlink:href="#m2f1513e50e" x="542.117062" y="101.829293" style="stroke: #000000"/>
     <use xlink:href="#m2f1513e50e" x="545.928631" y="144.695412" style="stroke: #000000"/>
     <use xlink:href="#m2f1513e50e" x="547.840138" y="153.288389" style="stroke: #000000"/>
     <use xlink:href="#m2f1513e50e" x="549.7402" y="161.673347" style="stroke: #000000"/>
     <use xlink:href="#m2f1513e50e" x="553.620446" y="103.574529" style="stroke: #000000"/>
     <use xlink:href="#m2f1513e50e" x="561.999031" y="134.218418" style="stroke: #000000"/>
     <use xlink:href="#m2f1513e50e" x="563.899092" y="48.690134" style="stroke: #000000"/>
     <use xlink:href="#m2f1513e50e" x="565.8106" y="159.393282" style="stroke: #000000"/>
     <use xlink:href="#m2f1513e50e" x="567.710662" y="170.598577" style="stroke: #000000"/>
     <use xlink:href="#m2f1513e50e" x="569.622169" y="169.291676" style="stroke: #000000"/>
     <use xlink:href="#m2f1513e50e" x="571.522231" y="169.644282" style="stroke: #000000"/>
     <use xlink:href="#m2f1513e50e" x="573.433738" y="170.140079" style="stroke: #000000"/>
     <use xlink:href="#m2f1513e50e" x="575.3338" y="170.350802" style="stroke: #000000"/>
     <use xlink:href="#m2f1513e50e" x="577.245308" y="170.319161" style="stroke: #000000"/>
     <use xlink:href="#m2f1513e50e" x="579.145369" y="170.438538" style="stroke: #000000"/>
     <use xlink:href="#m2f1513e50e" x="581.056877" y="169.984532" style="stroke: #000000"/>
     <use xlink:href="#m2f1513e50e" x="582.968385" y="113.187919" style="stroke: #000000"/>
     <use xlink:href="#m2f1513e50e" x="584.868446" y="159.409135" style="stroke: #000000"/>
     <use xlink:href="#m2f1513e50e" x="586.779954" y="148.240928" style="stroke: #000000"/>
     <use xlink:href="#m2f1513e50e" x="590.522846" y="133.813864" style="stroke: #000000"/>
     <use xlink:href="#m2f1513e50e" x="592.422908" y="128.911158" style="stroke: #000000"/>
     <use xlink:href="#m2f1513e50e" x="594.334415" y="152.406597" style="stroke: #000000"/>
     <use xlink:href="#m2f1513e50e" x="596.234477" y="161.988702" style="stroke: #000000"/>
     <use xlink:href="#m2f1513e50e" x="598.134538" y="163.45224" style="stroke: #000000"/>
     <use xlink:href="#m2f1513e50e" x="600.046046" y="158.742445" style="stroke: #000000"/>
     <use xlink:href="#m2f1513e50e" x="603.914846" y="126.085638" style="stroke: #000000"/>
     <use xlink:href="#m2f1513e50e" x="605.494415" y="108.615381" style="stroke: #000000"/>
     <use xlink:href="#m2f1513e50e" x="607.589062" y="154.367208" style="stroke: #000000"/>
     <use xlink:href="#m2f1513e50e" x="609.500569" y="145.550872" style="stroke: #000000"/>
     <use xlink:href="#m2f1513e50e" x="611.641" y="109.343654" style="stroke: #000000"/>
     <use xlink:href="#m2f1513e50e" x="616.654415" y="162.571094" style="stroke: #000000"/>
     <use xlink:href="#m2f1513e50e" x="617.993615" y="159.34227" style="stroke: #000000"/>
     <use xlink:href="#m2f1513e50e" x="621.095523" y="99.635672" style="stroke: #000000"/>
     <use xlink:href="#m2f1513e50e" x="622.995585" y="94.387176" style="stroke: #000000"/>
     <use xlink:href="#m2f1513e50e" x="624.758292" y="136.455013" style="stroke: #000000"/>
     <use xlink:href="#m2f1513e50e" x="626.6698" y="144.965799" style="stroke: #000000"/>
     <use xlink:href="#m2f1513e50e" x="630.5386" y="89.980308" style="stroke: #000000"/>
     <use xlink:href="#m2f1513e50e" x="634.224262" y="109.771573" style="stroke: #000000"/>
     <use xlink:href="#m2f1513e50e" x="636.124323" y="147.28692" style="stroke: #000000"/>
     <use xlink:href="#m2f1513e50e" x="638.035831" y="160.163998" style="stroke: #000000"/>
     <use xlink:href="#m2f1513e50e" x="639.935892" y="162.377944" style="stroke: #000000"/>
     <use xlink:href="#m2f1513e50e" x="641.835954" y="163.91476" style="stroke: #000000"/>
     <use xlink:href="#m2f1513e50e" x="643.747462" y="163.539084" style="stroke: #000000"/>
     <use xlink:href="#m2f1513e50e" x="645.658969" y="167.744359" style="stroke: #000000"/>
     <use xlink:href="#m2f1513e50e" x="647.570477" y="148.411201" style="stroke: #000000"/>
     <use xlink:href="#m2f1513e50e" x="649.481985" y="125.447635" style="stroke: #000000"/>
     <use xlink:href="#m2f1513e50e" x="651.382046" y="91.960371" style="stroke: #000000"/>
     <use xlink:href="#m2f1513e50e" x="653.293554" y="138.687058" style="stroke: #000000"/>
     <use xlink:href="#m2f1513e50e" x="657.036446" y="158.196617" style="stroke: #000000"/>
     <use xlink:href="#m2f1513e50e" x="658.936508" y="132.119656" style="stroke: #000000"/>
     <use xlink:href="#m2f1513e50e" x="660.848015" y="112.288011" style="stroke: #000000"/>
     <use xlink:href="#m2f1513e50e" x="662.748077" y="150.366801" style="stroke: #000000"/>
     <use xlink:href="#m2f1513e50e" x="664.648138" y="159.127192" style="stroke: #000000"/>
     <use xlink:href="#m2f1513e50e" x="666.559646" y="163.70909" style="stroke: #000000"/>
     <use xlink:href="#m2f1513e50e" x="668.459708" y="163.420628" style="stroke: #000000"/>
     <use xlink:href="#m2f1513e50e" x="670.359769" y="110.872687" style="stroke: #000000"/>
     <use xlink:href="#m2f1513e50e" x="672.2026" y="117.92328" style="stroke: #000000"/>
     <use xlink:href="#m2f1513e50e" x="674.114108" y="149.436856" style="stroke: #000000"/>
     <use xlink:href="#m2f1513e50e" x="676.014169" y="159.41993" style="stroke: #000000"/>
     <use xlink:href="#m2f1513e50e" x="677.925677" y="150.201179" style="stroke: #000000"/>
     <use xlink:href="#m2f1513e50e" x="680.066108" y="93.202762" style="stroke: #000000"/>
     <use xlink:href="#m2f1513e50e" x="681.737246" y="146.383181" style="stroke: #000000"/>
     <use xlink:href="#m2f1513e50e" x="685.079523" y="168.560576" style="stroke: #000000"/>
     <use xlink:href="#m2f1513e50e" x="686.224138" y="132.644659" style="stroke: #000000"/>
     <use xlink:href="#m2f1513e50e" x="689.509185" y="115.906946" style="stroke: #000000"/>
     <use xlink:href="#m2f1513e50e" x="691.420692" y="110.428212" style="stroke: #000000"/>
     <use xlink:href="#m2f1513e50e" x="693.320754" y="133.055551" style="stroke: #000000"/>
     <use xlink:href="#m2f1513e50e" x="694.717185" y="168.948845" style="stroke: #000000"/>
     <use xlink:href="#m2f1513e50e" x="695.850354" y="160.62383" style="stroke: #000000"/>
    </g>
   </g>
   <g id="line2d_20">
    <path d="M 73.809123 168.342855 
L 79.520754 167.996973 
L 90.9898 166.80726 
L 96.701431 166.381922 
L 108.159031 159.532696 
L 113.882108 149.117785 
L 119.536508 145.032127 
L 125.248138 143.250412 
L 128.956692 144.204238 
L 133.535154 140.142257 
L 145.519277 148.024255 
L 151.219462 145.148358 
L 169.132692 140.761998 
L 174.913 138.282806 
L 180.498723 147.870327 
L 186.301923 138.5234 
L 192.025 145.575453 
L 201.525308 151.49297 
L 205.336877 154.826176 
L 209.194231 157.963862 
L 214.848631 170.051229 
L 220.560262 169.452666 
L 226.363462 170.451601 
L 232.086538 162.922466 
L 247.172569 163.312093 
L 253.044446 164.050179 
L 257.153615 154.634006 
L 261.331462 151.20377 
L 268.988938 150.617412 
L 272.480015 147.228061 
L 276.531954 144.808674 
L 294.239154 151.754698 
L 300.580323 158.759513 
L 306.921492 155.571661 
L 311.545738 158.782127 
L 317.131462 157.915473 
L 320.988815 155.845016 
L 324.674477 155.448842 
L 328.726415 142.804302 
L 334.312138 131.312286 
L 340.264138 130.632164 
L 347.177615 130.808007 
L 351.481369 134.769477 
L 357.204446 142.17695 
L 365.308323 147.239019 
L 368.787954 143.310239 
L 380.325677 134.743247 
L 385.533677 133.148105 
L 391.554354 130.622962 
L 397.265985 138.00533 
L 401.317923 141.945288 
L 404.797554 145.166093 
L 408.723585 155.02246 
L 420.661923 163.347546 
L 422.573431 163.925952 
L 424.290354 167.723551 
L 435.736508 167.578605 
L 437.636569 166.982617 
L 439.548077 165.301586 
L 441.448138 155.301057 
L 443.359646 142.368411 
L 445.191031 139.514918 
L 447.102538 137.276422 
L 449.0026 138.166965 
L 450.914108 142.30298 
L 452.814169 145.193344 
L 454.714231 149.891004 
L 456.866108 148.910633 
L 458.010723 147.43585 
L 459.212569 144.623592 
L 461.112631 131.94269 
L 462.268692 106.74269 
L 466.309185 79.447043 
L 468.220692 85.976136 
L 469.411092 106.821278 
L 470.944877 126.074636 
L 472.272631 139.879767 
L 475.614908 151.795283 
L 477.526415 151.310089 
L 479.426477 139.973792 
L 481.337985 138.787615 
L 486.980938 139.929432 
L 488.881 139.427531 
L 490.792508 136.262146 
L 492.704015 149.861644 
L 494.615523 156.410712 
L 498.415646 164.45582 
L 500.327154 169.154786 
L 502.238662 166.578877 
L 504.138723 165.681772 
L 506.050231 164.241369 
L 507.950292 164.568086 
L 509.8618 156.534343 
L 511.693185 140.776762 
L 513.604692 134.100196 
L 515.5162 133.826365 
L 517.416262 132.308697 
L 519.316323 136.846422 
L 521.216385 155.974907 
L 523.127892 149.293513 
L 525.279769 139.772137 
L 526.859338 133.613421 
L 528.770846 124.214165 
L 530.670908 116.898539 
L 536.634354 126.031413 
L 538.213923 123.47459 
L 540.113985 125.639743 
L 542.117062 135.841674 
L 545.928631 141.041657 
L 547.840138 133.012194 
L 549.7402 139.490019 
L 553.620446 120.288963 
L 561.999031 121.509942 
L 563.899092 123.294988 
L 565.8106 136.438417 
L 567.710662 143.52359 
L 569.622169 167.813579 
L 571.522231 170.005083 
L 573.433738 169.9492 
L 575.3338 170.178573 
L 577.245308 170.246623 
L 579.145369 158.856191 
L 581.056877 156.667857 
L 582.968385 152.25221 
L 584.868446 144.927276 
L 586.779954 136.712601 
L 590.522846 144.556337 
L 592.422908 145.07225 
L 594.334415 148.114512 
L 596.234477 153.100229 
L 598.134538 152.535125 
L 600.046046 143.776881 
L 603.914846 142.252582 
L 605.494415 138.672309 
L 607.589062 128.792551 
L 609.500569 136.089642 
L 611.641 146.23502 
L 616.654415 135.288712 
L 617.993615 125.055973 
L 621.095523 130.478245 
L 622.995585 126.957186 
L 624.758292 113.084794 
L 626.6698 115.111974 
L 630.5386 125.691922 
L 634.224262 130.433719 
L 636.124323 133.916148 
L 638.035831 148.703039 
L 639.935892 159.456541 
L 641.835954 163.548029 
L 643.747462 161.197469 
L 645.658969 153.811408 
L 647.570477 139.42053 
L 649.481985 134.450125 
L 651.382046 132.540576 
L 653.293554 129.282267 
L 657.036446 126.650343 
L 658.936508 138.331629 
L 660.848015 142.419656 
L 662.748077 143.52215 
L 664.648138 149.782345 
L 666.559646 149.49928 
L 668.459708 143.010575 
L 670.359769 141.072508 
L 672.2026 140.214676 
L 674.114108 137.570786 
L 676.014169 134.036801 
L 677.925677 139.728782 
L 680.066108 143.553526 
L 681.737246 138.198471 
L 685.079523 131.339625 
L 686.224138 134.784715 
L 689.509185 132.119189 
L 691.420692 132.196842 
L 693.320754 137.792677 
L 694.717185 149.111628 
L 695.850354 161.526325 
L 695.850354 161.526325 
" clip-path="url(#p325f50c624)" style="fill: none; stroke: #ff0000; stroke-width: 1.5; stroke-linecap: square"/>
    <defs>
     <path id="m26f8c35c7e" d="M 0 0.75 
C 0.198902 0.75 0.389685 0.670975 0.53033 0.53033 
C 0.670975 0.389685 0.75 0.198902 0.75 0 
C 0.75 -0.198902 0.670975 -0.389685 0.53033 -0.53033 
C 0.389685 -0.670975 0.198902 -0.75 0 -0.75 
C -0.198902 -0.75 -0.389685 -0.670975 -0.53033 -0.53033 
C -0.670975 -0.389685 -0.75 -0.198902 -0.75 0 
C -0.75 0.198902 -0.670975 0.389685 -0.53033 0.53033 
C -0.389685 0.670975 -0.198902 0.75 0 0.75 
z
" style="stroke: #ff0000"/>
    </defs>
    <g clip-path="url(#p325f50c624)">
     <use xlink:href="#m26f8c35c7e" x="73.809123" y="168.342855" style="fill: #ff0000; stroke: #ff0000"/>
     <use xlink:href="#m26f8c35c7e" x="79.520754" y="167.996973" style="fill: #ff0000; stroke: #ff0000"/>
     <use xlink:href="#m26f8c35c7e" x="90.9898" y="166.80726" style="fill: #ff0000; stroke: #ff0000"/>
     <use xlink:href="#m26f8c35c7e" x="96.701431" y="166.381922" style="fill: #ff0000; stroke: #ff0000"/>
     <use xlink:href="#m26f8c35c7e" x="108.159031" y="159.532696" style="fill: #ff0000; stroke: #ff0000"/>
     <use xlink:href="#m26f8c35c7e" x="113.882108" y="149.117785" style="fill: #ff0000; stroke: #ff0000"/>
     <use xlink:href="#m26f8c35c7e" x="119.536508" y="145.032127" style="fill: #ff0000; stroke: #ff0000"/>
     <use xlink:href="#m26f8c35c7e" x="125.248138" y="143.250412" style="fill: #ff0000; stroke: #ff0000"/>
     <use xlink:href="#m26f8c35c7e" x="128.956692" y="144.204238" style="fill: #ff0000; stroke: #ff0000"/>
     <use xlink:href="#m26f8c35c7e" x="133.535154" y="140.142257" style="fill: #ff0000; stroke: #ff0000"/>
     <use xlink:href="#m26f8c35c7e" x="145.519277" y="148.024255" style="fill: #ff0000; stroke: #ff0000"/>
     <use xlink:href="#m26f8c35c7e" x="151.219462" y="145.148358" style="fill: #ff0000; stroke: #ff0000"/>
     <use xlink:href="#m26f8c35c7e" x="169.132692" y="140.761998" style="fill: #ff0000; stroke: #ff0000"/>
     <use xlink:href="#m26f8c35c7e" x="174.913" y="138.282806" style="fill: #ff0000; stroke: #ff0000"/>
     <use xlink:href="#m26f8c35c7e" x="180.498723" y="147.870327" style="fill: #ff0000; stroke: #ff0000"/>
     <use xlink:href="#m26f8c35c7e" x="186.301923" y="138.5234" style="fill: #ff0000; stroke: #ff0000"/>
     <use xlink:href="#m26f8c35c7e" x="192.025" y="145.575453" style="fill: #ff0000; stroke: #ff0000"/>
     <use xlink:href="#m26f8c35c7e" x="201.525308" y="151.49297" style="fill: #ff0000; stroke: #ff0000"/>
     <use xlink:href="#m26f8c35c7e" x="205.336877" y="154.826176" style="fill: #ff0000; stroke: #ff0000"/>
     <use xlink:href="#m26f8c35c7e" x="209.194231" y="157.963862" style="fill: #ff0000; stroke: #ff0000"/>
     <use xlink:href="#m26f8c35c7e" x="214.848631" y="170.051229" style="fill: #ff0000; stroke: #ff0000"/>
     <use xlink:href="#m26f8c35c7e" x="220.560262" y="169.452666" style="fill: #ff0000; stroke: #ff0000"/>
     <use xlink:href="#m26f8c35c7e" x="226.363462" y="170.451601" style="fill: #ff0000; stroke: #ff0000"/>
     <use xlink:href="#m26f8c35c7e" x="232.086538" y="162.922466" style="fill: #ff0000; stroke: #ff0000"/>
     <use xlink:href="#m26f8c35c7e" x="243.544138" y="163.246008" style="fill: #ff0000; stroke: #ff0000"/>
     <use xlink:href="#m26f8c35c7e" x="247.172569" y="163.312093" style="fill: #ff0000; stroke: #ff0000"/>
     <use xlink:href="#m26f8c35c7e" x="253.044446" y="164.050179" style="fill: #ff0000; stroke: #ff0000"/>
     <use xlink:href="#m26f8c35c7e" x="257.153615" y="154.634006" style="fill: #ff0000; stroke: #ff0000"/>
     <use xlink:href="#m26f8c35c7e" x="261.331462" y="151.20377" style="fill: #ff0000; stroke: #ff0000"/>
     <use xlink:href="#m26f8c35c7e" x="268.988938" y="150.617412" style="fill: #ff0000; stroke: #ff0000"/>
     <use xlink:href="#m26f8c35c7e" x="272.480015" y="147.228061" style="fill: #ff0000; stroke: #ff0000"/>
     <use xlink:href="#m26f8c35c7e" x="276.531954" y="144.808674" style="fill: #ff0000; stroke: #ff0000"/>
     <use xlink:href="#m26f8c35c7e" x="294.239154" y="151.754698" style="fill: #ff0000; stroke: #ff0000"/>
     <use xlink:href="#m26f8c35c7e" x="300.580323" y="158.759513" style="fill: #ff0000; stroke: #ff0000"/>
     <use xlink:href="#m26f8c35c7e" x="306.921492" y="155.571661" style="fill: #ff0000; stroke: #ff0000"/>
     <use xlink:href="#m26f8c35c7e" x="311.545738" y="158.782127" style="fill: #ff0000; stroke: #ff0000"/>
     <use xlink:href="#m26f8c35c7e" x="317.131462" y="157.915473" style="fill: #ff0000; stroke: #ff0000"/>
     <use xlink:href="#m26f8c35c7e" x="320.988815" y="155.845016" style="fill: #ff0000; stroke: #ff0000"/>
     <use xlink:href="#m26f8c35c7e" x="324.674477" y="155.448842" style="fill: #ff0000; stroke: #ff0000"/>
     <use xlink:href="#m26f8c35c7e" x="328.726415" y="142.804302" style="fill: #ff0000; stroke: #ff0000"/>
     <use xlink:href="#m26f8c35c7e" x="334.312138" y="131.312286" style="fill: #ff0000; stroke: #ff0000"/>
     <use xlink:href="#m26f8c35c7e" x="340.264138" y="130.632164" style="fill: #ff0000; stroke: #ff0000"/>
     <use xlink:href="#m26f8c35c7e" x="347.177615" y="130.808007" style="fill: #ff0000; stroke: #ff0000"/>
     <use xlink:href="#m26f8c35c7e" x="351.481369" y="134.769477" style="fill: #ff0000; stroke: #ff0000"/>
     <use xlink:href="#m26f8c35c7e" x="357.204446" y="142.17695" style="fill: #ff0000; stroke: #ff0000"/>
     <use xlink:href="#m26f8c35c7e" x="365.308323" y="147.239019" style="fill: #ff0000; stroke: #ff0000"/>
     <use xlink:href="#m26f8c35c7e" x="368.787954" y="143.310239" style="fill: #ff0000; stroke: #ff0000"/>
     <use xlink:href="#m26f8c35c7e" x="374.373677" y="139.1486" style="fill: #ff0000; stroke: #ff0000"/>
     <use xlink:href="#m26f8c35c7e" x="380.325677" y="134.743247" style="fill: #ff0000; stroke: #ff0000"/>
     <use xlink:href="#m26f8c35c7e" x="385.533677" y="133.148105" style="fill: #ff0000; stroke: #ff0000"/>
     <use xlink:href="#m26f8c35c7e" x="391.554354" y="130.622962" style="fill: #ff0000; stroke: #ff0000"/>
     <use xlink:href="#m26f8c35c7e" x="397.265985" y="138.00533" style="fill: #ff0000; stroke: #ff0000"/>
     <use xlink:href="#m26f8c35c7e" x="401.317923" y="141.945288" style="fill: #ff0000; stroke: #ff0000"/>
     <use xlink:href="#m26f8c35c7e" x="404.797554" y="145.166093" style="fill: #ff0000; stroke: #ff0000"/>
     <use xlink:href="#m26f8c35c7e" x="408.723585" y="155.02246" style="fill: #ff0000; stroke: #ff0000"/>
     <use xlink:href="#m26f8c35c7e" x="420.661923" y="163.347546" style="fill: #ff0000; stroke: #ff0000"/>
     <use xlink:href="#m26f8c35c7e" x="422.573431" y="163.925952" style="fill: #ff0000; stroke: #ff0000"/>
     <use xlink:href="#m26f8c35c7e" x="424.290354" y="167.723551" style="fill: #ff0000; stroke: #ff0000"/>
     <use xlink:href="#m26f8c35c7e" x="435.736508" y="167.578605" style="fill: #ff0000; stroke: #ff0000"/>
     <use xlink:href="#m26f8c35c7e" x="437.636569" y="166.982617" style="fill: #ff0000; stroke: #ff0000"/>
     <use xlink:href="#m26f8c35c7e" x="439.548077" y="165.301586" style="fill: #ff0000; stroke: #ff0000"/>
     <use xlink:href="#m26f8c35c7e" x="441.448138" y="155.301057" style="fill: #ff0000; stroke: #ff0000"/>
     <use xlink:href="#m26f8c35c7e" x="443.359646" y="142.368411" style="fill: #ff0000; stroke: #ff0000"/>
     <use xlink:href="#m26f8c35c7e" x="445.191031" y="139.514918" style="fill: #ff0000; stroke: #ff0000"/>
     <use xlink:href="#m26f8c35c7e" x="447.102538" y="137.276422" style="fill: #ff0000; stroke: #ff0000"/>
     <use xlink:href="#m26f8c35c7e" x="449.0026" y="138.166965" style="fill: #ff0000; stroke: #ff0000"/>
     <use xlink:href="#m26f8c35c7e" x="450.914108" y="142.30298" style="fill: #ff0000; stroke: #ff0000"/>
     <use xlink:href="#m26f8c35c7e" x="452.814169" y="145.193344" style="fill: #ff0000; stroke: #ff0000"/>
     <use xlink:href="#m26f8c35c7e" x="454.714231" y="149.891004" style="fill: #ff0000; stroke: #ff0000"/>
     <use xlink:href="#m26f8c35c7e" x="456.866108" y="148.910633" style="fill: #ff0000; stroke: #ff0000"/>
     <use xlink:href="#m26f8c35c7e" x="458.010723" y="147.43585" style="fill: #ff0000; stroke: #ff0000"/>
     <use xlink:href="#m26f8c35c7e" x="459.212569" y="144.623592" style="fill: #ff0000; stroke: #ff0000"/>
     <use xlink:href="#m26f8c35c7e" x="461.112631" y="131.94269" style="fill: #ff0000; stroke: #ff0000"/>
     <use xlink:href="#m26f8c35c7e" x="462.268692" y="106.74269" style="fill: #ff0000; stroke: #ff0000"/>
     <use xlink:href="#m26f8c35c7e" x="464.409123" y="92.050546" style="fill: #ff0000; stroke: #ff0000"/>
     <use xlink:href="#m26f8c35c7e" x="466.309185" y="79.447043" style="fill: #ff0000; stroke: #ff0000"/>
     <use xlink:href="#m26f8c35c7e" x="468.220692" y="85.976136" style="fill: #ff0000; stroke: #ff0000"/>
     <use xlink:href="#m26f8c35c7e" x="469.411092" y="106.821278" style="fill: #ff0000; stroke: #ff0000"/>
     <use xlink:href="#m26f8c35c7e" x="470.944877" y="126.074636" style="fill: #ff0000; stroke: #ff0000"/>
     <use xlink:href="#m26f8c35c7e" x="472.272631" y="139.879767" style="fill: #ff0000; stroke: #ff0000"/>
     <use xlink:href="#m26f8c35c7e" x="475.614908" y="151.795283" style="fill: #ff0000; stroke: #ff0000"/>
     <use xlink:href="#m26f8c35c7e" x="477.526415" y="151.310089" style="fill: #ff0000; stroke: #ff0000"/>
     <use xlink:href="#m26f8c35c7e" x="479.426477" y="139.973792" style="fill: #ff0000; stroke: #ff0000"/>
     <use xlink:href="#m26f8c35c7e" x="481.337985" y="138.787615" style="fill: #ff0000; stroke: #ff0000"/>
     <use xlink:href="#m26f8c35c7e" x="486.980938" y="139.929432" style="fill: #ff0000; stroke: #ff0000"/>
     <use xlink:href="#m26f8c35c7e" x="488.881" y="139.427531" style="fill: #ff0000; stroke: #ff0000"/>
     <use xlink:href="#m26f8c35c7e" x="490.792508" y="136.262146" style="fill: #ff0000; stroke: #ff0000"/>
     <use xlink:href="#m26f8c35c7e" x="492.704015" y="149.861644" style="fill: #ff0000; stroke: #ff0000"/>
     <use xlink:href="#m26f8c35c7e" x="494.615523" y="156.410712" style="fill: #ff0000; stroke: #ff0000"/>
     <use xlink:href="#m26f8c35c7e" x="496.515585" y="160.518489" style="fill: #ff0000; stroke: #ff0000"/>
     <use xlink:href="#m26f8c35c7e" x="498.415646" y="164.45582" style="fill: #ff0000; stroke: #ff0000"/>
     <use xlink:href="#m26f8c35c7e" x="500.327154" y="169.154786" style="fill: #ff0000; stroke: #ff0000"/>
     <use xlink:href="#m26f8c35c7e" x="502.238662" y="166.578877" style="fill: #ff0000; stroke: #ff0000"/>
     <use xlink:href="#m26f8c35c7e" x="504.138723" y="165.681772" style="fill: #ff0000; stroke: #ff0000"/>
     <use xlink:href="#m26f8c35c7e" x="506.050231" y="164.241369" style="fill: #ff0000; stroke: #ff0000"/>
     <use xlink:href="#m26f8c35c7e" x="507.950292" y="164.568086" style="fill: #ff0000; stroke: #ff0000"/>
     <use xlink:href="#m26f8c35c7e" x="509.8618" y="156.534343" style="fill: #ff0000; stroke: #ff0000"/>
     <use xlink:href="#m26f8c35c7e" x="511.693185" y="140.776762" style="fill: #ff0000; stroke: #ff0000"/>
     <use xlink:href="#m26f8c35c7e" x="513.604692" y="134.100196" style="fill: #ff0000; stroke: #ff0000"/>
     <use xlink:href="#m26f8c35c7e" x="515.5162" y="133.826365" style="fill: #ff0000; stroke: #ff0000"/>
     <use xlink:href="#m26f8c35c7e" x="517.416262" y="132.308697" style="fill: #ff0000; stroke: #ff0000"/>
     <use xlink:href="#m26f8c35c7e" x="519.316323" y="136.846422" style="fill: #ff0000; stroke: #ff0000"/>
     <use xlink:href="#m26f8c35c7e" x="521.216385" y="155.974907" style="fill: #ff0000; stroke: #ff0000"/>
     <use xlink:href="#m26f8c35c7e" x="523.127892" y="149.293513" style="fill: #ff0000; stroke: #ff0000"/>
     <use xlink:href="#m26f8c35c7e" x="525.279769" y="139.772137" style="fill: #ff0000; stroke: #ff0000"/>
     <use xlink:href="#m26f8c35c7e" x="526.859338" y="133.613421" style="fill: #ff0000; stroke: #ff0000"/>
     <use xlink:href="#m26f8c35c7e" x="528.770846" y="124.214165" style="fill: #ff0000; stroke: #ff0000"/>
     <use xlink:href="#m26f8c35c7e" x="530.670908" y="116.898539" style="fill: #ff0000; stroke: #ff0000"/>
     <use xlink:href="#m26f8c35c7e" x="536.634354" y="126.031413" style="fill: #ff0000; stroke: #ff0000"/>
     <use xlink:href="#m26f8c35c7e" x="538.213923" y="123.47459" style="fill: #ff0000; stroke: #ff0000"/>
     <use xlink:href="#m26f8c35c7e" x="540.113985" y="125.639743" style="fill: #ff0000; stroke: #ff0000"/>
     <use xlink:href="#m26f8c35c7e" x="542.117062" y="135.841674" style="fill: #ff0000; stroke: #ff0000"/>
     <use xlink:href="#m26f8c35c7e" x="545.928631" y="141.041657" style="fill: #ff0000; stroke: #ff0000"/>
     <use xlink:href="#m26f8c35c7e" x="547.840138" y="133.012194" style="fill: #ff0000; stroke: #ff0000"/>
     <use xlink:href="#m26f8c35c7e" x="549.7402" y="139.490019" style="fill: #ff0000; stroke: #ff0000"/>
     <use xlink:href="#m26f8c35c7e" x="553.620446" y="120.288963" style="fill: #ff0000; stroke: #ff0000"/>
     <use xlink:href="#m26f8c35c7e" x="561.999031" y="121.509942" style="fill: #ff0000; stroke: #ff0000"/>
     <use xlink:href="#m26f8c35c7e" x="563.899092" y="123.294988" style="fill: #ff0000; stroke: #ff0000"/>
     <use xlink:href="#m26f8c35c7e" x="565.8106" y="136.438417" style="fill: #ff0000; stroke: #ff0000"/>
     <use xlink:href="#m26f8c35c7e" x="567.710662" y="143.52359" style="fill: #ff0000; stroke: #ff0000"/>
     <use xlink:href="#m26f8c35c7e" x="569.622169" y="167.813579" style="fill: #ff0000; stroke: #ff0000"/>
     <use xlink:href="#m26f8c35c7e" x="571.522231" y="170.005083" style="fill: #ff0000; stroke: #ff0000"/>
     <use xlink:href="#m26f8c35c7e" x="573.433738" y="169.9492" style="fill: #ff0000; stroke: #ff0000"/>
     <use xlink:href="#m26f8c35c7e" x="575.3338" y="170.178573" style="fill: #ff0000; stroke: #ff0000"/>
     <use xlink:href="#m26f8c35c7e" x="577.245308" y="170.246623" style="fill: #ff0000; stroke: #ff0000"/>
     <use xlink:href="#m26f8c35c7e" x="579.145369" y="158.856191" style="fill: #ff0000; stroke: #ff0000"/>
     <use xlink:href="#m26f8c35c7e" x="581.056877" y="156.667857" style="fill: #ff0000; stroke: #ff0000"/>
     <use xlink:href="#m26f8c35c7e" x="582.968385" y="152.25221" style="fill: #ff0000; stroke: #ff0000"/>
     <use xlink:href="#m26f8c35c7e" x="584.868446" y="144.927276" style="fill: #ff0000; stroke: #ff0000"/>
     <use xlink:href="#m26f8c35c7e" x="586.779954" y="136.712601" style="fill: #ff0000; stroke: #ff0000"/>
     <use xlink:href="#m26f8c35c7e" x="590.522846" y="144.556337" style="fill: #ff0000; stroke: #ff0000"/>
     <use xlink:href="#m26f8c35c7e" x="592.422908" y="145.07225" style="fill: #ff0000; stroke: #ff0000"/>
     <use xlink:href="#m26f8c35c7e" x="594.334415" y="148.114512" style="fill: #ff0000; stroke: #ff0000"/>
     <use xlink:href="#m26f8c35c7e" x="596.234477" y="153.100229" style="fill: #ff0000; stroke: #ff0000"/>
     <use xlink:href="#m26f8c35c7e" x="598.134538" y="152.535125" style="fill: #ff0000; stroke: #ff0000"/>
     <use xlink:href="#m26f8c35c7e" x="600.046046" y="143.776881" style="fill: #ff0000; stroke: #ff0000"/>
     <use xlink:href="#m26f8c35c7e" x="603.914846" y="142.252582" style="fill: #ff0000; stroke: #ff0000"/>
     <use xlink:href="#m26f8c35c7e" x="605.494415" y="138.672309" style="fill: #ff0000; stroke: #ff0000"/>
     <use xlink:href="#m26f8c35c7e" x="607.589062" y="128.792551" style="fill: #ff0000; stroke: #ff0000"/>
     <use xlink:href="#m26f8c35c7e" x="609.500569" y="136.089642" style="fill: #ff0000; stroke: #ff0000"/>
     <use xlink:href="#m26f8c35c7e" x="611.641" y="146.23502" style="fill: #ff0000; stroke: #ff0000"/>
     <use xlink:href="#m26f8c35c7e" x="616.654415" y="135.288712" style="fill: #ff0000; stroke: #ff0000"/>
     <use xlink:href="#m26f8c35c7e" x="617.993615" y="125.055973" style="fill: #ff0000; stroke: #ff0000"/>
     <use xlink:href="#m26f8c35c7e" x="621.095523" y="130.478245" style="fill: #ff0000; stroke: #ff0000"/>
     <use xlink:href="#m26f8c35c7e" x="622.995585" y="126.957186" style="fill: #ff0000; stroke: #ff0000"/>
     <use xlink:href="#m26f8c35c7e" x="624.758292" y="113.084794" style="fill: #ff0000; stroke: #ff0000"/>
     <use xlink:href="#m26f8c35c7e" x="626.6698" y="115.111974" style="fill: #ff0000; stroke: #ff0000"/>
     <use xlink:href="#m26f8c35c7e" x="630.5386" y="125.691922" style="fill: #ff0000; stroke: #ff0000"/>
     <use xlink:href="#m26f8c35c7e" x="634.224262" y="130.433719" style="fill: #ff0000; stroke: #ff0000"/>
     <use xlink:href="#m26f8c35c7e" x="636.124323" y="133.916148" style="fill: #ff0000; stroke: #ff0000"/>
     <use xlink:href="#m26f8c35c7e" x="638.035831" y="148.703039" style="fill: #ff0000; stroke: #ff0000"/>
     <use xlink:href="#m26f8c35c7e" x="639.935892" y="159.456541" style="fill: #ff0000; stroke: #ff0000"/>
     <use xlink:href="#m26f8c35c7e" x="641.835954" y="163.548029" style="fill: #ff0000; stroke: #ff0000"/>
     <use xlink:href="#m26f8c35c7e" x="643.747462" y="161.197469" style="fill: #ff0000; stroke: #ff0000"/>
     <use xlink:href="#m26f8c35c7e" x="645.658969" y="153.811408" style="fill: #ff0000; stroke: #ff0000"/>
     <use xlink:href="#m26f8c35c7e" x="647.570477" y="139.42053" style="fill: #ff0000; stroke: #ff0000"/>
     <use xlink:href="#m26f8c35c7e" x="649.481985" y="134.450125" style="fill: #ff0000; stroke: #ff0000"/>
     <use xlink:href="#m26f8c35c7e" x="651.382046" y="132.540576" style="fill: #ff0000; stroke: #ff0000"/>
     <use xlink:href="#m26f8c35c7e" x="653.293554" y="129.282267" style="fill: #ff0000; stroke: #ff0000"/>
     <use xlink:href="#m26f8c35c7e" x="657.036446" y="126.650343" style="fill: #ff0000; stroke: #ff0000"/>
     <use xlink:href="#m26f8c35c7e" x="658.936508" y="138.331629" style="fill: #ff0000; stroke: #ff0000"/>
     <use xlink:href="#m26f8c35c7e" x="660.848015" y="142.419656" style="fill: #ff0000; stroke: #ff0000"/>
     <use xlink:href="#m26f8c35c7e" x="662.748077" y="143.52215" style="fill: #ff0000; stroke: #ff0000"/>
     <use xlink:href="#m26f8c35c7e" x="664.648138" y="149.782345" style="fill: #ff0000; stroke: #ff0000"/>
     <use xlink:href="#m26f8c35c7e" x="666.559646" y="149.49928" style="fill: #ff0000; stroke: #ff0000"/>
     <use xlink:href="#m26f8c35c7e" x="668.459708" y="143.010575" style="fill: #ff0000; stroke: #ff0000"/>
     <use xlink:href="#m26f8c35c7e" x="670.359769" y="141.072508" style="fill: #ff0000; stroke: #ff0000"/>
     <use xlink:href="#m26f8c35c7e" x="672.2026" y="140.214676" style="fill: #ff0000; stroke: #ff0000"/>
     <use xlink:href="#m26f8c35c7e" x="674.114108" y="137.570786" style="fill: #ff0000; stroke: #ff0000"/>
     <use xlink:href="#m26f8c35c7e" x="676.014169" y="134.036801" style="fill: #ff0000; stroke: #ff0000"/>
     <use xlink:href="#m26f8c35c7e" x="677.925677" y="139.728782" style="fill: #ff0000; stroke: #ff0000"/>
     <use xlink:href="#m26f8c35c7e" x="680.066108" y="143.553526" style="fill: #ff0000; stroke: #ff0000"/>
     <use xlink:href="#m26f8c35c7e" x="681.737246" y="138.198471" style="fill: #ff0000; stroke: #ff0000"/>
     <use xlink:href="#m26f8c35c7e" x="685.079523" y="131.339625" style="fill: #ff0000; stroke: #ff0000"/>
     <use xlink:href="#m26f8c35c7e" x="686.224138" y="134.784715" style="fill: #ff0000; stroke: #ff0000"/>
     <use xlink:href="#m26f8c35c7e" x="689.509185" y="132.119189" style="fill: #ff0000; stroke: #ff0000"/>
     <use xlink:href="#m26f8c35c7e" x="691.420692" y="132.196842" style="fill: #ff0000; stroke: #ff0000"/>
     <use xlink:href="#m26f8c35c7e" x="693.320754" y="137.792677" style="fill: #ff0000; stroke: #ff0000"/>
     <use xlink:href="#m26f8c35c7e" x="694.717185" y="149.111628" style="fill: #ff0000; stroke: #ff0000"/>
     <use xlink:href="#m26f8c35c7e" x="695.850354" y="161.526325" style="fill: #ff0000; stroke: #ff0000"/>
    </g>
   </g>
   <g id="patch_3">
    <path d="M 54.385 178.551562 
L 54.385 39.951562 
" style="fill: none; stroke: #000000; stroke-width: 0.8; stroke-linejoin: miter; stroke-linecap: square"/>
   </g>
   <g id="patch_4">
    <path d="M 723.985 178.551562 
L 723.985 39.951562 
" style="fill: none; stroke: #000000; stroke-width: 0.8; stroke-linejoin: miter; stroke-linecap: square"/>
   </g>
   <g id="patch_5">
    <path d="M 54.385 178.551562 
L 723.985 178.551562 
" style="fill: none; stroke: #000000; stroke-width: 0.8; stroke-linejoin: miter; stroke-linecap: square"/>
   </g>
   <g id="patch_6">
    <path d="M 54.385 39.951562 
L 723.985 39.951562 
" style="fill: none; stroke: #000000; stroke-width: 0.8; stroke-linejoin: miter; stroke-linecap: square"/>
   </g>
  </g>
 </g>
 <defs>
  <clipPath id="p325f50c624">
   <rect x="54.385" y="39.951562" width="669.6" height="138.6"/>
  </clipPath>
 </defs>
</svg>
