<?xml version="1.0" encoding="utf-8" standalone="no"?>
<!DOCTYPE svg PUBLIC "-//W3C//DTD SVG 1.1//EN"
  "http://www.w3.org/Graphics/SVG/1.1/DTD/svg11.dtd">
<svg xmlns:xlink="http://www.w3.org/1999/xlink" width="742.916562pt" height="268.886312pt" viewBox="0 0 742.916562 268.886312" xmlns="http://www.w3.org/2000/svg" version="1.1">
 <metadata>
  <rdf:RDF xmlns:dc="http://purl.org/dc/elements/1.1/" xmlns:cc="http://creativecommons.org/ns#" xmlns:rdf="http://www.w3.org/1999/02/22-rdf-syntax-ns#">
   <cc:Work>
    <dc:type rdf:resource="http://purl.org/dc/dcmitype/StillImage"/>
    <dc:date>2023-03-07T17:02:16.652071</dc:date>
    <dc:format>image/svg+xml</dc:format>
    <dc:creator>
     <cc:Agent>
      <dc:title>Matplotlib v3.5.1, https://matplotlib.org/</dc:title>
     </cc:Agent>
    </dc:creator>
   </cc:Work>
  </rdf:RDF>
 </metadata>
 <defs>
  <style type="text/css">*{stroke-linejoin: round; stroke-linecap: butt}</style>
 </defs>
 <g id="figure_1">
  <g id="patch_1">
   <path d="M 0 268.886312 
L 742.916562 268.886312 
L 742.916562 0 
L 0 0 
z
" style="fill: #ffffff"/>
  </g>
  <g id="axes_1">
   <g id="patch_2">
    <path d="M 66.116563 228.96 
L 735.716563 228.96 
L 735.716563 7.2 
L 66.116563 7.2 
z
" style="fill: #ffffff"/>
   </g>
   <g id="PolyCollection_1">
    <defs>
     <path id="m17eaeec8c0" d="M 178.599141 -56.201161 
L 176.833984 -56.201161 
L 176.53006 -57.967689 
L 176.145435 -59.734217 
L 175.666936 -61.500746 
L 175.081693 -63.267274 
L 174.377913 -65.033802 
L 173.545741 -66.80033 
L 172.578151 -68.566858 
L 171.471829 -70.333387 
L 170.227957 -72.099915 
L 168.852842 -73.866443 
L 167.358349 -75.632971 
L 165.762064 -77.399499 
L 164.087201 -79.166028 
L 162.362209 -80.932556 
L 160.620108 -82.699084 
L 158.897559 -84.465612 
L 157.233707 -86.23214 
L 155.668821 -87.998669 
L 154.242781 -89.765197 
L 152.993462 -91.531725 
L 151.955078 -93.298253 
L 151.156579 -95.064781 
L 150.62017 -96.83131 
L 150.360077 -98.597838 
L 150.381655 -100.364366 
L 150.680934 -102.130894 
L 151.244667 -103.897423 
L 152.050914 -105.663951 
L 153.070158 -107.430479 
L 154.266861 -109.197007 
L 155.601374 -110.963535 
L 157.032035 -112.730064 
L 158.517297 -114.496592 
L 160.017714 -116.26312 
L 161.49764 -118.029648 
L 162.926537 -119.796176 
L 164.279821 -121.562705 
L 165.53924 -123.329233 
L 166.692805 -125.095761 
L 167.734356 -126.862289 
L 168.662846 -128.628817 
L 169.481439 -130.395346 
L 170.196537 -132.161874 
L 170.816794 -133.928402 
L 171.352209 -135.69493 
L 171.813321 -137.461458 
L 172.210548 -139.227987 
L 172.553665 -140.994515 
L 172.851427 -142.761043 
L 173.111328 -144.527571 
L 173.339462 -146.294099 
L 173.540495 -148.060628 
L 173.717707 -149.827156 
L 173.8731 -151.593684 
L 174.007546 -153.360212 
L 174.120974 -155.12674 
L 174.212564 -156.893269 
L 174.280966 -158.659797 
L 174.324514 -160.426325 
L 174.341452 -162.192853 
L 174.330153 -163.959382 
L 174.289355 -165.72591 
L 174.218388 -167.492438 
L 174.117404 -169.258966 
L 173.987589 -171.025494 
L 173.831356 -172.792023 
L 173.652478 -174.558551 
L 173.456166 -176.325079 
L 173.249042 -178.091607 
L 173.039019 -179.858135 
L 172.835048 -181.624664 
L 172.646759 -183.391192 
L 172.483999 -185.15772 
L 172.356296 -186.924248 
L 172.27228 -188.690776 
L 172.239133 -190.457305 
L 172.262082 -192.223833 
L 172.344022 -193.990361 
L 172.485272 -195.756889 
L 172.683519 -197.523417 
L 172.933943 -199.289946 
L 173.229516 -201.056474 
L 173.561455 -202.823002 
L 173.919781 -204.58953 
L 174.293932 -206.356058 
L 174.673393 -208.122587 
L 175.048262 -209.889115 
L 175.40974 -211.655643 
L 175.750489 -213.422171 
L 176.064861 -215.1887 
L 176.348976 -216.955228 
L 176.600682 -218.721756 
L 176.819399 -220.488284 
L 177.005887 -222.254812 
L 177.161972 -224.021341 
L 177.290246 -225.787869 
L 177.393778 -227.554397 
L 177.475865 -229.320925 
L 177.539807 -231.087453 
L 177.893318 -231.087453 
L 177.893318 -231.087453 
L 177.95726 -229.320925 
L 178.039347 -227.554397 
L 178.142879 -225.787869 
L 178.271153 -224.021341 
L 178.427238 -222.254812 
L 178.613726 -220.488284 
L 178.832443 -218.721756 
L 179.084149 -216.955228 
L 179.368264 -215.1887 
L 179.682636 -213.422171 
L 180.023385 -211.655643 
L 180.384863 -209.889115 
L 180.759732 -208.122587 
L 181.139193 -206.356058 
L 181.513344 -204.58953 
L 181.87167 -202.823002 
L 182.203609 -201.056474 
L 182.499182 -199.289946 
L 182.749606 -197.523417 
L 182.947853 -195.756889 
L 183.089103 -193.990361 
L 183.171043 -192.223833 
L 183.193992 -190.457305 
L 183.160845 -188.690776 
L 183.076829 -186.924248 
L 182.949126 -185.15772 
L 182.786366 -183.391192 
L 182.598077 -181.624664 
L 182.394106 -179.858135 
L 182.184083 -178.091607 
L 181.976959 -176.325079 
L 181.780647 -174.558551 
L 181.601769 -172.792023 
L 181.445536 -171.025494 
L 181.315721 -169.258966 
L 181.214737 -167.492438 
L 181.14377 -165.72591 
L 181.102972 -163.959382 
L 181.091673 -162.192853 
L 181.108611 -160.426325 
L 181.152159 -158.659797 
L 181.220561 -156.893269 
L 181.312151 -155.12674 
L 181.425579 -153.360212 
L 181.560025 -151.593684 
L 181.715418 -149.827156 
L 181.89263 -148.060628 
L 182.093663 -146.294099 
L 182.321797 -144.527571 
L 182.581698 -142.761043 
L 182.87946 -140.994515 
L 183.222577 -139.227987 
L 183.619804 -137.461458 
L 184.080916 -135.69493 
L 184.616331 -133.928402 
L 185.236588 -132.161874 
L 185.951686 -130.395346 
L 186.770279 -128.628817 
L 187.698769 -126.862289 
L 188.74032 -125.095761 
L 189.893885 -123.329233 
L 191.153304 -121.562705 
L 192.506588 -119.796176 
L 193.935485 -118.029648 
L 195.415411 -116.26312 
L 196.915828 -114.496592 
L 198.40109 -112.730064 
L 199.831751 -110.963535 
L 201.166264 -109.197007 
L 202.362967 -107.430479 
L 203.382211 -105.663951 
L 204.188458 -103.897423 
L 204.752191 -102.130894 
L 205.05147 -100.364366 
L 205.073048 -98.597838 
L 204.812955 -96.83131 
L 204.276546 -95.064781 
L 203.478047 -93.298253 
L 202.439663 -91.531725 
L 201.190344 -89.765197 
L 199.764304 -87.998669 
L 198.199418 -86.23214 
L 196.535566 -84.465612 
L 194.813017 -82.699084 
L 193.070916 -80.932556 
L 191.345924 -79.166028 
L 189.671061 -77.399499 
L 188.074776 -75.632971 
L 186.580283 -73.866443 
L 185.205168 -72.099915 
L 183.961296 -70.333387 
L 182.854974 -68.566858 
L 181.887384 -66.80033 
L 181.055212 -65.033802 
L 180.351432 -63.267274 
L 179.766189 -61.500746 
L 179.28769 -59.734217 
L 178.903065 -57.967689 
L 178.599141 -56.201161 
z
" style="stroke: #373737; stroke-width: 0.8"/>
    </defs>
    <g clip-path="url(#p2187c69cc4)">
     <use xlink:href="#m17eaeec8c0" x="0" y="268.886312" style="fill: #2b8e70; stroke: #373737; stroke-width: 0.8"/>
    </g>
   </g>
   <g id="PolyCollection_2">
    <defs>
     <path id="m8648ec0fc7" d="M 402.040437 -50.006313 
L 399.792688 -50.006313 
L 399.424519 -52.042676 
L 398.96361 -54.07904 
L 398.396148 -56.115403 
L 397.709212 -58.151767 
L 396.891793 -60.188131 
L 395.935941 -62.224494 
L 394.837968 -64.260858 
L 393.599597 -66.297222 
L 392.228952 -68.333585 
L 390.741274 -70.369949 
L 389.159245 -72.406313 
L 387.512827 -74.442676 
L 385.838563 -76.47904 
L 384.178327 -78.515403 
L 382.577555 -80.551767 
L 381.083075 -82.588131 
L 379.740653 -84.624494 
L 378.592461 -86.660858 
L 377.674645 -88.697222 
L 377.015221 -90.733585 
L 376.632453 -92.769949 
L 376.533856 -94.806313 
L 376.715916 -96.842676 
L 377.164525 -98.87904 
L 377.856094 -100.915403 
L 378.759232 -102.951767 
L 379.836831 -104.988131 
L 381.048389 -107.024494 
L 382.352357 -109.060858 
L 383.708353 -111.097222 
L 385.079073 -113.133585 
L 386.431788 -115.169949 
L 387.739359 -117.206313 
L 388.980754 -119.242676 
L 390.141084 -121.27904 
L 391.211232 -123.315403 
L 392.187153 -125.351767 
L 393.06896 -127.388131 
L 393.859901 -129.424494 
L 394.565328 -131.460858 
L 395.191734 -133.497222 
L 395.745947 -135.533585 
L 396.234489 -137.569949 
L 396.663142 -139.606313 
L 397.0367 -141.642676 
L 397.358904 -143.67904 
L 397.632509 -145.715403 
L 397.859455 -147.751767 
L 398.041107 -149.788131 
L 398.178516 -151.824494 
L 398.27268 -153.860858 
L 398.324766 -155.897222 
L 398.336297 -157.933585 
L 398.309274 -159.969949 
L 398.246242 -162.006313 
L 398.150299 -164.042676 
L 398.025064 -166.07904 
L 397.874607 -168.115403 
L 397.703352 -170.151767 
L 397.515981 -172.188131 
L 397.317331 -174.224494 
L 397.112308 -176.260858 
L 396.905806 -178.297222 
L 396.70265 -180.333585 
L 396.507541 -182.369949 
L 396.325011 -184.406313 
L 396.159382 -186.442676 
L 396.014709 -188.47904 
L 395.894728 -190.515403 
L 395.802779 -192.551767 
L 395.741733 -194.588131 
L 395.713908 -196.624494 
L 395.720993 -198.660858 
L 395.763975 -200.697222 
L 395.843085 -202.733585 
L 395.957764 -204.769949 
L 396.106654 -206.806313 
L 396.287614 -208.842676 
L 396.497762 -210.87904 
L 396.733548 -212.915403 
L 396.990848 -214.951767 
L 397.265082 -216.988131 
L 397.551353 -219.024494 
L 397.844596 -221.060858 
L 398.139744 -223.097222 
L 398.431893 -225.133585 
L 398.716459 -227.169949 
L 398.989327 -229.206313 
L 399.246972 -231.242676 
L 399.486558 -233.27904 
L 399.70599 -235.315403 
L 399.903937 -237.351767 
L 400.079813 -239.388131 
L 400.233718 -241.424494 
L 400.366357 -243.460858 
L 400.478931 -245.497222 
L 400.573018 -247.533585 
L 400.650449 -249.569949 
L 400.713194 -251.606313 
L 401.119931 -251.606313 
L 401.119931 -251.606313 
L 401.182676 -249.569949 
L 401.260107 -247.533585 
L 401.354194 -245.497222 
L 401.466768 -243.460858 
L 401.599407 -241.424494 
L 401.753312 -239.388131 
L 401.929188 -237.351767 
L 402.127135 -235.315403 
L 402.346567 -233.27904 
L 402.586153 -231.242676 
L 402.843798 -229.206313 
L 403.116666 -227.169949 
L 403.401232 -225.133585 
L 403.693381 -223.097222 
L 403.988529 -221.060858 
L 404.281772 -219.024494 
L 404.568043 -216.988131 
L 404.842277 -214.951767 
L 405.099577 -212.915403 
L 405.335363 -210.87904 
L 405.545511 -208.842676 
L 405.726471 -206.806313 
L 405.875361 -204.769949 
L 405.99004 -202.733585 
L 406.06915 -200.697222 
L 406.112132 -198.660858 
L 406.119217 -196.624494 
L 406.091392 -194.588131 
L 406.030346 -192.551767 
L 405.938397 -190.515403 
L 405.818416 -188.47904 
L 405.673743 -186.442676 
L 405.508114 -184.406313 
L 405.325584 -182.369949 
L 405.130475 -180.333585 
L 404.927319 -178.297222 
L 404.720817 -176.260858 
L 404.515794 -174.224494 
L 404.317144 -172.188131 
L 404.129773 -170.151767 
L 403.958518 -168.115403 
L 403.808061 -166.07904 
L 403.682826 -164.042676 
L 403.586883 -162.006313 
L 403.523851 -159.969949 
L 403.496828 -157.933585 
L 403.508359 -155.897222 
L 403.560445 -153.860858 
L 403.654609 -151.824494 
L 403.792018 -149.788131 
L 403.97367 -147.751767 
L 404.200616 -145.715403 
L 404.474221 -143.67904 
L 404.796425 -141.642676 
L 405.169983 -139.606313 
L 405.598636 -137.569949 
L 406.087178 -135.533585 
L 406.641391 -133.497222 
L 407.267797 -131.460858 
L 407.973224 -129.424494 
L 408.764165 -127.388131 
L 409.645972 -125.351767 
L 410.621893 -123.315403 
L 411.692041 -121.27904 
L 412.852371 -119.242676 
L 414.093766 -117.206313 
L 415.401337 -115.169949 
L 416.754052 -113.133585 
L 418.124772 -111.097222 
L 419.480768 -109.060858 
L 420.784736 -107.024494 
L 421.996294 -104.988131 
L 423.073893 -102.951767 
L 423.977031 -100.915403 
L 424.6686 -98.87904 
L 425.117209 -96.842676 
L 425.299269 -94.806313 
L 425.200672 -92.769949 
L 424.817904 -90.733585 
L 424.15848 -88.697222 
L 423.240664 -86.660858 
L 422.092472 -84.624494 
L 420.75005 -82.588131 
L 419.25557 -80.551767 
L 417.654798 -78.515403 
L 415.994562 -76.47904 
L 414.320298 -74.442676 
L 412.67388 -72.406313 
L 411.091851 -70.369949 
L 409.604173 -68.333585 
L 408.233528 -66.297222 
L 406.995157 -64.260858 
L 405.897184 -62.224494 
L 404.941332 -60.188131 
L 404.123913 -58.151767 
L 403.436977 -56.115403 
L 402.869515 -54.07904 
L 402.408606 -52.042676 
L 402.040437 -50.006313 
z
" style="stroke: #373737; stroke-width: 0.8"/>
    </defs>
    <g clip-path="url(#p2187c69cc4)">
     <use xlink:href="#m8648ec0fc7" x="0" y="268.886312" style="fill: #be631d; stroke: #373737; stroke-width: 0.8"/>
    </g>
   </g>
   <g id="PolyCollection_3">
    <defs>
     <path id="m4df727883b" d="M 628.185658 -70.394331 
L 620.047467 -70.394331 
L 617.952007 -71.49125 
L 615.054052 -72.588169 
L 611.188089 -73.685088 
L 606.218433 -74.782007 
L 600.07073 -75.878926 
L 592.765356 -76.975845 
L 584.446583 -78.072764 
L 575.400246 -79.169683 
L 566.05301 -80.266602 
L 556.948637 -81.36352 
L 548.700754 -82.460439 
L 541.926658 -83.557358 
L 537.171642 -84.654277 
L 534.836563 -85.751196 
L 535.121992 -86.848115 
L 537.999758 -87.945034 
L 543.217469 -89.041953 
L 550.335037 -90.138872 
L 558.785861 -91.235791 
L 567.950906 -92.33271 
L 577.232316 -93.429629 
L 586.114687 -94.526548 
L 594.20596 -95.623467 
L 601.254884 -96.720386 
L 607.146816 -97.817305 
L 611.88311 -98.914224 
L 615.551075 -100.011143 
L 618.291399 -101.108062 
L 620.268505 -102.204981 
L 621.647242 -103.3019 
L 622.577197 -104.398819 
L 623.184251 -105.495738 
L 623.567952 -106.592657 
L 623.802887 -107.689576 
L 623.942279 -108.786495 
L 624.022442 -109.883414 
L 624.067127 -110.980333 
L 624.091249 -112.077252 
L 624.10381 -113.174171 
L 624.110023 -114.27109 
L 624.112762 -115.368009 
L 624.113499 -116.464928 
L 624.112871 -117.561847 
L 624.111007 -118.658765 
L 624.107708 -119.755684 
L 624.102537 -120.852603 
L 624.094883 -121.949522 
L 624.084018 -123.046441 
L 624.069162 -124.14336 
L 624.049587 -125.240279 
L 624.024732 -126.337198 
L 623.994325 -127.434117 
L 623.958486 -128.531036 
L 623.917762 -129.627955 
L 623.873069 -130.724874 
L 623.825514 -131.821793 
L 623.776085 -132.918712 
L 623.725258 -134.015631 
L 623.672563 -135.11255 
L 623.616221 -136.209469 
L 623.552933 -137.306388 
L 623.477924 -138.403307 
L 623.385286 -139.500226 
L 623.268612 -140.597145 
L 623.121852 -141.694064 
L 622.940264 -142.790983 
L 622.721293 -143.887902 
L 622.465209 -144.984821 
L 622.175379 -146.08174 
L 621.858094 -147.178659 
L 621.522 -148.275578 
L 621.17722 -149.372497 
L 620.83436 -150.469416 
L 620.503607 -151.566335 
L 620.194081 -152.663254 
L 619.913565 -153.760173 
L 619.668609 -154.857092 
L 619.464918 -155.95401 
L 619.307837 -157.050929 
L 619.202724 -158.147848 
L 619.155032 -159.244767 
L 619.169986 -160.341686 
L 619.251864 -161.438605 
L 619.403026 -162.535524 
L 619.622889 -163.632443 
L 619.907136 -164.729362 
L 620.247355 -165.826281 
L 620.631287 -166.9232 
L 621.04367 -168.020119 
L 621.467577 -169.117038 
L 621.886024 -170.213957 
L 622.283561 -171.310876 
L 622.647606 -172.407795 
L 622.969311 -173.504714 
L 623.243872 -174.601633 
L 623.470323 -175.698552 
L 623.650905 -176.795471 
L 623.790193 -177.89239 
L 623.894141 -178.989309 
L 624.338984 -178.989309 
L 624.338984 -178.989309 
L 624.442932 -177.89239 
L 624.58222 -176.795471 
L 624.762802 -175.698552 
L 624.989253 -174.601633 
L 625.263814 -173.504714 
L 625.585519 -172.407795 
L 625.949564 -171.310876 
L 626.347101 -170.213957 
L 626.765548 -169.117038 
L 627.189455 -168.020119 
L 627.601838 -166.9232 
L 627.98577 -165.826281 
L 628.325989 -164.729362 
L 628.610236 -163.632443 
L 628.830099 -162.535524 
L 628.981261 -161.438605 
L 629.063139 -160.341686 
L 629.078093 -159.244767 
L 629.030401 -158.147848 
L 628.925288 -157.050929 
L 628.768207 -155.95401 
L 628.564516 -154.857092 
L 628.31956 -153.760173 
L 628.039044 -152.663254 
L 627.729518 -151.566335 
L 627.398765 -150.469416 
L 627.055905 -149.372497 
L 626.711125 -148.275578 
L 626.375031 -147.178659 
L 626.057746 -146.08174 
L 625.767916 -144.984821 
L 625.511832 -143.887902 
L 625.292861 -142.790983 
L 625.111273 -141.694064 
L 624.964513 -140.597145 
L 624.847839 -139.500226 
L 624.755201 -138.403307 
L 624.680192 -137.306388 
L 624.616904 -136.209469 
L 624.560562 -135.11255 
L 624.507867 -134.015631 
L 624.45704 -132.918712 
L 624.407611 -131.821793 
L 624.360056 -130.724874 
L 624.315363 -129.627955 
L 624.274639 -128.531036 
L 624.2388 -127.434117 
L 624.208393 -126.337198 
L 624.183538 -125.240279 
L 624.163963 -124.14336 
L 624.149107 -123.046441 
L 624.138242 -121.949522 
L 624.130588 -120.852603 
L 624.125417 -119.755684 
L 624.122118 -118.658765 
L 624.120254 -117.561847 
L 624.119626 -116.464928 
L 624.120363 -115.368009 
L 624.123102 -114.27109 
L 624.129315 -113.174171 
L 624.141876 -112.077252 
L 624.165998 -110.980333 
L 624.210683 -109.883414 
L 624.290846 -108.786495 
L 624.430238 -107.689576 
L 624.665173 -106.592657 
L 625.048874 -105.495738 
L 625.655928 -104.398819 
L 626.585883 -103.3019 
L 627.96462 -102.204981 
L 629.941726 -101.108062 
L 632.68205 -100.011143 
L 636.350015 -98.914224 
L 641.086309 -97.817305 
L 646.978241 -96.720386 
L 654.027165 -95.623467 
L 662.118438 -94.526548 
L 671.000809 -93.429629 
L 680.282219 -92.33271 
L 689.447264 -91.235791 
L 697.898088 -90.138872 
L 705.015656 -89.041953 
L 710.233367 -87.945034 
L 713.111133 -86.848115 
L 713.396562 -85.751196 
L 711.061483 -84.654277 
L 706.306467 -83.557358 
L 699.532371 -82.460439 
L 691.284488 -81.36352 
L 682.180115 -80.266602 
L 672.832879 -79.169683 
L 663.786542 -78.072764 
L 655.467769 -76.975845 
L 648.162395 -75.878926 
L 642.014692 -74.782007 
L 637.045036 -73.685088 
L 633.179073 -72.588169 
L 630.281118 -71.49125 
L 628.185658 -70.394331 
z
" style="stroke: #373737; stroke-width: 0.8"/>
    </defs>
    <g clip-path="url(#p2187c69cc4)">
     <use xlink:href="#m4df727883b" x="0" y="268.886312" style="fill: #7c78ab; stroke: #373737; stroke-width: 0.8"/>
    </g>
   </g>
   <g id="matplotlib.axis_1">
    <g id="xtick_1">
     <g id="line2d_1">
      <defs>
       <path id="mce7270e7bc" d="M 0 0 
L 0 -3.5 
" style="stroke: #000000; stroke-width: 0.8"/>
      </defs>
      <g>
       <use xlink:href="#mce7270e7bc" x="177.716563" y="228.96" style="stroke: #000000; stroke-width: 0.8"/>
      </g>
     </g>
     <g id="line2d_2">
      <defs>
       <path id="mef2a332b01" d="M 0 0 
L 0 3.5 
" style="stroke: #000000; stroke-width: 0.8"/>
      </defs>
      <g>
       <use xlink:href="#mef2a332b01" x="177.716563" y="7.2" style="stroke: #000000; stroke-width: 0.8"/>
      </g>
     </g>
     <g id="text_1">
      <!-- Treated substrate -->
      <g transform="translate(116.300313 243.097812)scale(0.14 -0.14)">
       <defs>
        <path id="DejaVuSans-54" d="M -19 4666 
L 3928 4666 
L 3928 4134 
L 2272 4134 
L 2272 0 
L 1638 0 
L 1638 4134 
L -19 4134 
L -19 4666 
z
" transform="scale(0.015625)"/>
        <path id="DejaVuSans-72" d="M 2631 2963 
Q 2534 3019 2420 3045 
Q 2306 3072 2169 3072 
Q 1681 3072 1420 2755 
Q 1159 2438 1159 1844 
L 1159 0 
L 581 0 
L 581 3500 
L 1159 3500 
L 1159 2956 
Q 1341 3275 1631 3429 
Q 1922 3584 2338 3584 
Q 2397 3584 2469 3576 
Q 2541 3569 2628 3553 
L 2631 2963 
z
" transform="scale(0.015625)"/>
        <path id="DejaVuSans-65" d="M 3597 1894 
L 3597 1613 
L 953 1613 
Q 991 1019 1311 708 
Q 1631 397 2203 397 
Q 2534 397 2845 478 
Q 3156 559 3463 722 
L 3463 178 
Q 3153 47 2828 -22 
Q 2503 -91 2169 -91 
Q 1331 -91 842 396 
Q 353 884 353 1716 
Q 353 2575 817 3079 
Q 1281 3584 2069 3584 
Q 2775 3584 3186 3129 
Q 3597 2675 3597 1894 
z
M 3022 2063 
Q 3016 2534 2758 2815 
Q 2500 3097 2075 3097 
Q 1594 3097 1305 2825 
Q 1016 2553 972 2059 
L 3022 2063 
z
" transform="scale(0.015625)"/>
        <path id="DejaVuSans-61" d="M 2194 1759 
Q 1497 1759 1228 1600 
Q 959 1441 959 1056 
Q 959 750 1161 570 
Q 1363 391 1709 391 
Q 2188 391 2477 730 
Q 2766 1069 2766 1631 
L 2766 1759 
L 2194 1759 
z
M 3341 1997 
L 3341 0 
L 2766 0 
L 2766 531 
Q 2569 213 2275 61 
Q 1981 -91 1556 -91 
Q 1019 -91 701 211 
Q 384 513 384 1019 
Q 384 1609 779 1909 
Q 1175 2209 1959 2209 
L 2766 2209 
L 2766 2266 
Q 2766 2663 2505 2880 
Q 2244 3097 1772 3097 
Q 1472 3097 1187 3025 
Q 903 2953 641 2809 
L 641 3341 
Q 956 3463 1253 3523 
Q 1550 3584 1831 3584 
Q 2591 3584 2966 3190 
Q 3341 2797 3341 1997 
z
" transform="scale(0.015625)"/>
        <path id="DejaVuSans-74" d="M 1172 4494 
L 1172 3500 
L 2356 3500 
L 2356 3053 
L 1172 3053 
L 1172 1153 
Q 1172 725 1289 603 
Q 1406 481 1766 481 
L 2356 481 
L 2356 0 
L 1766 0 
Q 1100 0 847 248 
Q 594 497 594 1153 
L 594 3053 
L 172 3053 
L 172 3500 
L 594 3500 
L 594 4494 
L 1172 4494 
z
" transform="scale(0.015625)"/>
        <path id="DejaVuSans-64" d="M 2906 2969 
L 2906 4863 
L 3481 4863 
L 3481 0 
L 2906 0 
L 2906 525 
Q 2725 213 2448 61 
Q 2172 -91 1784 -91 
Q 1150 -91 751 415 
Q 353 922 353 1747 
Q 353 2572 751 3078 
Q 1150 3584 1784 3584 
Q 2172 3584 2448 3432 
Q 2725 3281 2906 2969 
z
M 947 1747 
Q 947 1113 1208 752 
Q 1469 391 1925 391 
Q 2381 391 2643 752 
Q 2906 1113 2906 1747 
Q 2906 2381 2643 2742 
Q 2381 3103 1925 3103 
Q 1469 3103 1208 2742 
Q 947 2381 947 1747 
z
" transform="scale(0.015625)"/>
        <path id="DejaVuSans-20" transform="scale(0.015625)"/>
        <path id="DejaVuSans-73" d="M 2834 3397 
L 2834 2853 
Q 2591 2978 2328 3040 
Q 2066 3103 1784 3103 
Q 1356 3103 1142 2972 
Q 928 2841 928 2578 
Q 928 2378 1081 2264 
Q 1234 2150 1697 2047 
L 1894 2003 
Q 2506 1872 2764 1633 
Q 3022 1394 3022 966 
Q 3022 478 2636 193 
Q 2250 -91 1575 -91 
Q 1294 -91 989 -36 
Q 684 19 347 128 
L 347 722 
Q 666 556 975 473 
Q 1284 391 1588 391 
Q 1994 391 2212 530 
Q 2431 669 2431 922 
Q 2431 1156 2273 1281 
Q 2116 1406 1581 1522 
L 1381 1569 
Q 847 1681 609 1914 
Q 372 2147 372 2553 
Q 372 3047 722 3315 
Q 1072 3584 1716 3584 
Q 2034 3584 2315 3537 
Q 2597 3491 2834 3397 
z
" transform="scale(0.015625)"/>
        <path id="DejaVuSans-75" d="M 544 1381 
L 544 3500 
L 1119 3500 
L 1119 1403 
Q 1119 906 1312 657 
Q 1506 409 1894 409 
Q 2359 409 2629 706 
Q 2900 1003 2900 1516 
L 2900 3500 
L 3475 3500 
L 3475 0 
L 2900 0 
L 2900 538 
Q 2691 219 2414 64 
Q 2138 -91 1772 -91 
Q 1169 -91 856 284 
Q 544 659 544 1381 
z
M 1991 3584 
L 1991 3584 
z
" transform="scale(0.015625)"/>
        <path id="DejaVuSans-62" d="M 3116 1747 
Q 3116 2381 2855 2742 
Q 2594 3103 2138 3103 
Q 1681 3103 1420 2742 
Q 1159 2381 1159 1747 
Q 1159 1113 1420 752 
Q 1681 391 2138 391 
Q 2594 391 2855 752 
Q 3116 1113 3116 1747 
z
M 1159 2969 
Q 1341 3281 1617 3432 
Q 1894 3584 2278 3584 
Q 2916 3584 3314 3078 
Q 3713 2572 3713 1747 
Q 3713 922 3314 415 
Q 2916 -91 2278 -91 
Q 1894 -91 1617 61 
Q 1341 213 1159 525 
L 1159 0 
L 581 0 
L 581 4863 
L 1159 4863 
L 1159 2969 
z
" transform="scale(0.015625)"/>
       </defs>
       <use xlink:href="#DejaVuSans-54"/>
       <use xlink:href="#DejaVuSans-72" x="46.333984"/>
       <use xlink:href="#DejaVuSans-65" x="85.197266"/>
       <use xlink:href="#DejaVuSans-61" x="146.720703"/>
       <use xlink:href="#DejaVuSans-74" x="208"/>
       <use xlink:href="#DejaVuSans-65" x="247.208984"/>
       <use xlink:href="#DejaVuSans-64" x="308.732422"/>
       <use xlink:href="#DejaVuSans-20" x="372.208984"/>
       <use xlink:href="#DejaVuSans-73" x="403.996094"/>
       <use xlink:href="#DejaVuSans-75" x="456.095703"/>
       <use xlink:href="#DejaVuSans-62" x="519.474609"/>
       <use xlink:href="#DejaVuSans-73" x="582.951172"/>
       <use xlink:href="#DejaVuSans-74" x="635.050781"/>
       <use xlink:href="#DejaVuSans-72" x="674.259766"/>
       <use xlink:href="#DejaVuSans-61" x="715.373047"/>
       <use xlink:href="#DejaVuSans-74" x="776.652344"/>
       <use xlink:href="#DejaVuSans-65" x="815.861328"/>
      </g>
      <!-- (step width=0.43±0.04μm) -->
      <g transform="translate(81.418437 258.77475)scale(0.14 -0.14)">
       <defs>
        <path id="DejaVuSans-28" d="M 1984 4856 
Q 1566 4138 1362 3434 
Q 1159 2731 1159 2009 
Q 1159 1288 1364 580 
Q 1569 -128 1984 -844 
L 1484 -844 
Q 1016 -109 783 600 
Q 550 1309 550 2009 
Q 550 2706 781 3412 
Q 1013 4119 1484 4856 
L 1984 4856 
z
" transform="scale(0.015625)"/>
        <path id="DejaVuSans-70" d="M 1159 525 
L 1159 -1331 
L 581 -1331 
L 581 3500 
L 1159 3500 
L 1159 2969 
Q 1341 3281 1617 3432 
Q 1894 3584 2278 3584 
Q 2916 3584 3314 3078 
Q 3713 2572 3713 1747 
Q 3713 922 3314 415 
Q 2916 -91 2278 -91 
Q 1894 -91 1617 61 
Q 1341 213 1159 525 
z
M 3116 1747 
Q 3116 2381 2855 2742 
Q 2594 3103 2138 3103 
Q 1681 3103 1420 2742 
Q 1159 2381 1159 1747 
Q 1159 1113 1420 752 
Q 1681 391 2138 391 
Q 2594 391 2855 752 
Q 3116 1113 3116 1747 
z
" transform="scale(0.015625)"/>
        <path id="DejaVuSans-77" d="M 269 3500 
L 844 3500 
L 1563 769 
L 2278 3500 
L 2956 3500 
L 3675 769 
L 4391 3500 
L 4966 3500 
L 4050 0 
L 3372 0 
L 2619 2869 
L 1863 0 
L 1184 0 
L 269 3500 
z
" transform="scale(0.015625)"/>
        <path id="DejaVuSans-69" d="M 603 3500 
L 1178 3500 
L 1178 0 
L 603 0 
L 603 3500 
z
M 603 4863 
L 1178 4863 
L 1178 4134 
L 603 4134 
L 603 4863 
z
" transform="scale(0.015625)"/>
        <path id="DejaVuSans-68" d="M 3513 2113 
L 3513 0 
L 2938 0 
L 2938 2094 
Q 2938 2591 2744 2837 
Q 2550 3084 2163 3084 
Q 1697 3084 1428 2787 
Q 1159 2491 1159 1978 
L 1159 0 
L 581 0 
L 581 4863 
L 1159 4863 
L 1159 2956 
Q 1366 3272 1645 3428 
Q 1925 3584 2291 3584 
Q 2894 3584 3203 3211 
Q 3513 2838 3513 2113 
z
" transform="scale(0.015625)"/>
        <path id="DejaVuSans-3d" d="M 678 2906 
L 4684 2906 
L 4684 2381 
L 678 2381 
L 678 2906 
z
M 678 1631 
L 4684 1631 
L 4684 1100 
L 678 1100 
L 678 1631 
z
" transform="scale(0.015625)"/>
        <path id="DejaVuSans-30" d="M 2034 4250 
Q 1547 4250 1301 3770 
Q 1056 3291 1056 2328 
Q 1056 1369 1301 889 
Q 1547 409 2034 409 
Q 2525 409 2770 889 
Q 3016 1369 3016 2328 
Q 3016 3291 2770 3770 
Q 2525 4250 2034 4250 
z
M 2034 4750 
Q 2819 4750 3233 4129 
Q 3647 3509 3647 2328 
Q 3647 1150 3233 529 
Q 2819 -91 2034 -91 
Q 1250 -91 836 529 
Q 422 1150 422 2328 
Q 422 3509 836 4129 
Q 1250 4750 2034 4750 
z
" transform="scale(0.015625)"/>
        <path id="DejaVuSans-2e" d="M 684 794 
L 1344 794 
L 1344 0 
L 684 0 
L 684 794 
z
" transform="scale(0.015625)"/>
        <path id="DejaVuSans-34" d="M 2419 4116 
L 825 1625 
L 2419 1625 
L 2419 4116 
z
M 2253 4666 
L 3047 4666 
L 3047 1625 
L 3713 1625 
L 3713 1100 
L 3047 1100 
L 3047 0 
L 2419 0 
L 2419 1100 
L 313 1100 
L 313 1709 
L 2253 4666 
z
" transform="scale(0.015625)"/>
        <path id="DejaVuSans-33" d="M 2597 2516 
Q 3050 2419 3304 2112 
Q 3559 1806 3559 1356 
Q 3559 666 3084 287 
Q 2609 -91 1734 -91 
Q 1441 -91 1130 -33 
Q 819 25 488 141 
L 488 750 
Q 750 597 1062 519 
Q 1375 441 1716 441 
Q 2309 441 2620 675 
Q 2931 909 2931 1356 
Q 2931 1769 2642 2001 
Q 2353 2234 1838 2234 
L 1294 2234 
L 1294 2753 
L 1863 2753 
Q 2328 2753 2575 2939 
Q 2822 3125 2822 3475 
Q 2822 3834 2567 4026 
Q 2313 4219 1838 4219 
Q 1578 4219 1281 4162 
Q 984 4106 628 3988 
L 628 4550 
Q 988 4650 1302 4700 
Q 1616 4750 1894 4750 
Q 2613 4750 3031 4423 
Q 3450 4097 3450 3541 
Q 3450 3153 3228 2886 
Q 3006 2619 2597 2516 
z
" transform="scale(0.015625)"/>
        <path id="DejaVuSans-b1" d="M 2944 4013 
L 2944 2803 
L 4684 2803 
L 4684 2272 
L 2944 2272 
L 2944 1063 
L 2419 1063 
L 2419 2272 
L 678 2272 
L 678 2803 
L 2419 2803 
L 2419 4013 
L 2944 4013 
z
M 678 531 
L 4684 531 
L 4684 0 
L 678 0 
L 678 531 
z
" transform="scale(0.015625)"/>
        <path id="DejaVuSans-3bc" d="M 544 -1331 
L 544 3500 
L 1119 3500 
L 1119 1325 
Q 1119 872 1334 640 
Q 1550 409 1972 409 
Q 2434 409 2667 671 
Q 2900 934 2900 1459 
L 2900 3500 
L 3475 3500 
L 3475 806 
Q 3475 619 3529 530 
Q 3584 441 3700 441 
Q 3728 441 3778 458 
Q 3828 475 3916 513 
L 3916 50 
Q 3788 -22 3673 -56 
Q 3559 -91 3450 -91 
Q 3234 -91 3106 31 
Q 2978 153 2931 403 
Q 2775 156 2548 32 
Q 2322 -91 2016 -91 
Q 1697 -91 1473 31 
Q 1250 153 1119 397 
L 1119 -1331 
L 544 -1331 
z
" transform="scale(0.015625)"/>
        <path id="DejaVuSans-6d" d="M 3328 2828 
Q 3544 3216 3844 3400 
Q 4144 3584 4550 3584 
Q 5097 3584 5394 3201 
Q 5691 2819 5691 2113 
L 5691 0 
L 5113 0 
L 5113 2094 
Q 5113 2597 4934 2840 
Q 4756 3084 4391 3084 
Q 3944 3084 3684 2787 
Q 3425 2491 3425 1978 
L 3425 0 
L 2847 0 
L 2847 2094 
Q 2847 2600 2669 2842 
Q 2491 3084 2119 3084 
Q 1678 3084 1418 2786 
Q 1159 2488 1159 1978 
L 1159 0 
L 581 0 
L 581 3500 
L 1159 3500 
L 1159 2956 
Q 1356 3278 1631 3431 
Q 1906 3584 2284 3584 
Q 2666 3584 2933 3390 
Q 3200 3197 3328 2828 
z
" transform="scale(0.015625)"/>
        <path id="DejaVuSans-29" d="M 513 4856 
L 1013 4856 
Q 1481 4119 1714 3412 
Q 1947 2706 1947 2009 
Q 1947 1309 1714 600 
Q 1481 -109 1013 -844 
L 513 -844 
Q 928 -128 1133 580 
Q 1338 1288 1338 2009 
Q 1338 2731 1133 3434 
Q 928 4138 513 4856 
z
" transform="scale(0.015625)"/>
       </defs>
       <use xlink:href="#DejaVuSans-28"/>
       <use xlink:href="#DejaVuSans-73" x="39.013672"/>
       <use xlink:href="#DejaVuSans-74" x="91.113281"/>
       <use xlink:href="#DejaVuSans-65" x="130.322266"/>
       <use xlink:href="#DejaVuSans-70" x="191.845703"/>
       <use xlink:href="#DejaVuSans-20" x="255.322266"/>
       <use xlink:href="#DejaVuSans-77" x="287.109375"/>
       <use xlink:href="#DejaVuSans-69" x="368.896484"/>
       <use xlink:href="#DejaVuSans-64" x="396.679688"/>
       <use xlink:href="#DejaVuSans-74" x="460.15625"/>
       <use xlink:href="#DejaVuSans-68" x="499.365234"/>
       <use xlink:href="#DejaVuSans-3d" x="562.744141"/>
       <use xlink:href="#DejaVuSans-30" x="646.533203"/>
       <use xlink:href="#DejaVuSans-2e" x="710.15625"/>
       <use xlink:href="#DejaVuSans-34" x="741.943359"/>
       <use xlink:href="#DejaVuSans-33" x="805.566406"/>
       <use xlink:href="#DejaVuSans-b1" x="869.189453"/>
       <use xlink:href="#DejaVuSans-30" x="952.978516"/>
       <use xlink:href="#DejaVuSans-2e" x="1016.601562"/>
       <use xlink:href="#DejaVuSans-30" x="1048.388672"/>
       <use xlink:href="#DejaVuSans-34" x="1112.011719"/>
       <use xlink:href="#DejaVuSans-3bc" x="1175.634766"/>
       <use xlink:href="#DejaVuSans-6d" x="1239.257812"/>
       <use xlink:href="#DejaVuSans-29" x="1336.669922"/>
      </g>
     </g>
    </g>
    <g id="xtick_2">
     <g id="line2d_3">
      <g>
       <use xlink:href="#mce7270e7bc" x="400.916562" y="228.96" style="stroke: #000000; stroke-width: 0.8"/>
      </g>
     </g>
     <g id="line2d_4">
      <g>
       <use xlink:href="#mef2a332b01" x="400.916562" y="7.2" style="stroke: #000000; stroke-width: 0.8"/>
      </g>
     </g>
     <g id="text_2">
      <!-- Treated substrate -->
      <g transform="translate(339.500313 243.097812)scale(0.14 -0.14)">
       <use xlink:href="#DejaVuSans-54"/>
       <use xlink:href="#DejaVuSans-72" x="46.333984"/>
       <use xlink:href="#DejaVuSans-65" x="85.197266"/>
       <use xlink:href="#DejaVuSans-61" x="146.720703"/>
       <use xlink:href="#DejaVuSans-74" x="208"/>
       <use xlink:href="#DejaVuSans-65" x="247.208984"/>
       <use xlink:href="#DejaVuSans-64" x="308.732422"/>
       <use xlink:href="#DejaVuSans-20" x="372.208984"/>
       <use xlink:href="#DejaVuSans-73" x="403.996094"/>
       <use xlink:href="#DejaVuSans-75" x="456.095703"/>
       <use xlink:href="#DejaVuSans-62" x="519.474609"/>
       <use xlink:href="#DejaVuSans-73" x="582.951172"/>
       <use xlink:href="#DejaVuSans-74" x="635.050781"/>
       <use xlink:href="#DejaVuSans-72" x="674.259766"/>
       <use xlink:href="#DejaVuSans-61" x="715.373047"/>
       <use xlink:href="#DejaVuSans-74" x="776.652344"/>
       <use xlink:href="#DejaVuSans-65" x="815.861328"/>
      </g>
      <!-- (step width=0.11±0.01μm) -->
      <g transform="translate(304.618437 258.77475)scale(0.14 -0.14)">
       <defs>
        <path id="DejaVuSans-31" d="M 794 531 
L 1825 531 
L 1825 4091 
L 703 3866 
L 703 4441 
L 1819 4666 
L 2450 4666 
L 2450 531 
L 3481 531 
L 3481 0 
L 794 0 
L 794 531 
z
" transform="scale(0.015625)"/>
       </defs>
       <use xlink:href="#DejaVuSans-28"/>
       <use xlink:href="#DejaVuSans-73" x="39.013672"/>
       <use xlink:href="#DejaVuSans-74" x="91.113281"/>
       <use xlink:href="#DejaVuSans-65" x="130.322266"/>
       <use xlink:href="#DejaVuSans-70" x="191.845703"/>
       <use xlink:href="#DejaVuSans-20" x="255.322266"/>
       <use xlink:href="#DejaVuSans-77" x="287.109375"/>
       <use xlink:href="#DejaVuSans-69" x="368.896484"/>
       <use xlink:href="#DejaVuSans-64" x="396.679688"/>
       <use xlink:href="#DejaVuSans-74" x="460.15625"/>
       <use xlink:href="#DejaVuSans-68" x="499.365234"/>
       <use xlink:href="#DejaVuSans-3d" x="562.744141"/>
       <use xlink:href="#DejaVuSans-30" x="646.533203"/>
       <use xlink:href="#DejaVuSans-2e" x="710.15625"/>
       <use xlink:href="#DejaVuSans-31" x="741.943359"/>
       <use xlink:href="#DejaVuSans-31" x="805.566406"/>
       <use xlink:href="#DejaVuSans-b1" x="869.189453"/>
       <use xlink:href="#DejaVuSans-30" x="952.978516"/>
       <use xlink:href="#DejaVuSans-2e" x="1016.601562"/>
       <use xlink:href="#DejaVuSans-30" x="1048.388672"/>
       <use xlink:href="#DejaVuSans-31" x="1112.011719"/>
       <use xlink:href="#DejaVuSans-3bc" x="1175.634766"/>
       <use xlink:href="#DejaVuSans-6d" x="1239.257812"/>
       <use xlink:href="#DejaVuSans-29" x="1336.669922"/>
      </g>
     </g>
    </g>
    <g id="xtick_3">
     <g id="line2d_5">
      <g>
       <use xlink:href="#mce7270e7bc" x="624.116562" y="228.96" style="stroke: #000000; stroke-width: 0.8"/>
      </g>
     </g>
     <g id="line2d_6">
      <g>
       <use xlink:href="#mef2a332b01" x="624.116562" y="7.2" style="stroke: #000000; stroke-width: 0.8"/>
      </g>
     </g>
     <g id="text_3">
      <!-- Untreated substrate -->
      <g transform="translate(553.639688 243.097812)scale(0.14 -0.14)">
       <defs>
        <path id="DejaVuSans-55" d="M 556 4666 
L 1191 4666 
L 1191 1831 
Q 1191 1081 1462 751 
Q 1734 422 2344 422 
Q 2950 422 3222 751 
Q 3494 1081 3494 1831 
L 3494 4666 
L 4128 4666 
L 4128 1753 
Q 4128 841 3676 375 
Q 3225 -91 2344 -91 
Q 1459 -91 1007 375 
Q 556 841 556 1753 
L 556 4666 
z
" transform="scale(0.015625)"/>
        <path id="DejaVuSans-6e" d="M 3513 2113 
L 3513 0 
L 2938 0 
L 2938 2094 
Q 2938 2591 2744 2837 
Q 2550 3084 2163 3084 
Q 1697 3084 1428 2787 
Q 1159 2491 1159 1978 
L 1159 0 
L 581 0 
L 581 3500 
L 1159 3500 
L 1159 2956 
Q 1366 3272 1645 3428 
Q 1925 3584 2291 3584 
Q 2894 3584 3203 3211 
Q 3513 2838 3513 2113 
z
" transform="scale(0.015625)"/>
       </defs>
       <use xlink:href="#DejaVuSans-55"/>
       <use xlink:href="#DejaVuSans-6e" x="73.193359"/>
       <use xlink:href="#DejaVuSans-74" x="136.572266"/>
       <use xlink:href="#DejaVuSans-72" x="175.78125"/>
       <use xlink:href="#DejaVuSans-65" x="214.644531"/>
       <use xlink:href="#DejaVuSans-61" x="276.167969"/>
       <use xlink:href="#DejaVuSans-74" x="337.447266"/>
       <use xlink:href="#DejaVuSans-65" x="376.65625"/>
       <use xlink:href="#DejaVuSans-64" x="438.179688"/>
       <use xlink:href="#DejaVuSans-20" x="501.65625"/>
       <use xlink:href="#DejaVuSans-73" x="533.443359"/>
       <use xlink:href="#DejaVuSans-75" x="585.542969"/>
       <use xlink:href="#DejaVuSans-62" x="648.921875"/>
       <use xlink:href="#DejaVuSans-73" x="712.398438"/>
       <use xlink:href="#DejaVuSans-74" x="764.498047"/>
       <use xlink:href="#DejaVuSans-72" x="803.707031"/>
       <use xlink:href="#DejaVuSans-61" x="844.820312"/>
       <use xlink:href="#DejaVuSans-74" x="906.099609"/>
       <use xlink:href="#DejaVuSans-65" x="945.308594"/>
      </g>
      <!-- (step width=0.28±0.03μm) -->
      <g transform="translate(527.818437 258.77475)scale(0.14 -0.14)">
       <defs>
        <path id="DejaVuSans-32" d="M 1228 531 
L 3431 531 
L 3431 0 
L 469 0 
L 469 531 
Q 828 903 1448 1529 
Q 2069 2156 2228 2338 
Q 2531 2678 2651 2914 
Q 2772 3150 2772 3378 
Q 2772 3750 2511 3984 
Q 2250 4219 1831 4219 
Q 1534 4219 1204 4116 
Q 875 4013 500 3803 
L 500 4441 
Q 881 4594 1212 4672 
Q 1544 4750 1819 4750 
Q 2544 4750 2975 4387 
Q 3406 4025 3406 3419 
Q 3406 3131 3298 2873 
Q 3191 2616 2906 2266 
Q 2828 2175 2409 1742 
Q 1991 1309 1228 531 
z
" transform="scale(0.015625)"/>
        <path id="DejaVuSans-38" d="M 2034 2216 
Q 1584 2216 1326 1975 
Q 1069 1734 1069 1313 
Q 1069 891 1326 650 
Q 1584 409 2034 409 
Q 2484 409 2743 651 
Q 3003 894 3003 1313 
Q 3003 1734 2745 1975 
Q 2488 2216 2034 2216 
z
M 1403 2484 
Q 997 2584 770 2862 
Q 544 3141 544 3541 
Q 544 4100 942 4425 
Q 1341 4750 2034 4750 
Q 2731 4750 3128 4425 
Q 3525 4100 3525 3541 
Q 3525 3141 3298 2862 
Q 3072 2584 2669 2484 
Q 3125 2378 3379 2068 
Q 3634 1759 3634 1313 
Q 3634 634 3220 271 
Q 2806 -91 2034 -91 
Q 1263 -91 848 271 
Q 434 634 434 1313 
Q 434 1759 690 2068 
Q 947 2378 1403 2484 
z
M 1172 3481 
Q 1172 3119 1398 2916 
Q 1625 2713 2034 2713 
Q 2441 2713 2670 2916 
Q 2900 3119 2900 3481 
Q 2900 3844 2670 4047 
Q 2441 4250 2034 4250 
Q 1625 4250 1398 4047 
Q 1172 3844 1172 3481 
z
" transform="scale(0.015625)"/>
       </defs>
       <use xlink:href="#DejaVuSans-28"/>
       <use xlink:href="#DejaVuSans-73" x="39.013672"/>
       <use xlink:href="#DejaVuSans-74" x="91.113281"/>
       <use xlink:href="#DejaVuSans-65" x="130.322266"/>
       <use xlink:href="#DejaVuSans-70" x="191.845703"/>
       <use xlink:href="#DejaVuSans-20" x="255.322266"/>
       <use xlink:href="#DejaVuSans-77" x="287.109375"/>
       <use xlink:href="#DejaVuSans-69" x="368.896484"/>
       <use xlink:href="#DejaVuSans-64" x="396.679688"/>
       <use xlink:href="#DejaVuSans-74" x="460.15625"/>
       <use xlink:href="#DejaVuSans-68" x="499.365234"/>
       <use xlink:href="#DejaVuSans-3d" x="562.744141"/>
       <use xlink:href="#DejaVuSans-30" x="646.533203"/>
       <use xlink:href="#DejaVuSans-2e" x="710.15625"/>
       <use xlink:href="#DejaVuSans-32" x="741.943359"/>
       <use xlink:href="#DejaVuSans-38" x="805.566406"/>
       <use xlink:href="#DejaVuSans-b1" x="869.189453"/>
       <use xlink:href="#DejaVuSans-30" x="952.978516"/>
       <use xlink:href="#DejaVuSans-2e" x="1016.601562"/>
       <use xlink:href="#DejaVuSans-30" x="1048.388672"/>
       <use xlink:href="#DejaVuSans-33" x="1112.011719"/>
       <use xlink:href="#DejaVuSans-3bc" x="1175.634766"/>
       <use xlink:href="#DejaVuSans-6d" x="1239.257812"/>
       <use xlink:href="#DejaVuSans-29" x="1336.669922"/>
      </g>
     </g>
    </g>
   </g>
   <g id="matplotlib.axis_2">
    <g id="ytick_1">
     <g id="line2d_7">
      <defs>
       <path id="m0208aac91c" d="M 0 0 
L 3.5 0 
" style="stroke: #000000; stroke-width: 0.8"/>
      </defs>
      <g>
       <use xlink:href="#m0208aac91c" x="66.116563" y="220.302203" style="stroke: #000000; stroke-width: 0.8"/>
      </g>
     </g>
     <g id="line2d_8">
      <defs>
       <path id="me145169208" d="M 0 0 
L -3.5 0 
" style="stroke: #000000; stroke-width: 0.8"/>
      </defs>
      <g>
       <use xlink:href="#me145169208" x="735.716563" y="220.302203" style="stroke: #000000; stroke-width: 0.8"/>
      </g>
     </g>
     <g id="text_4">
      <!-- −0.2 -->
      <g transform="translate(28.620625 225.621109)scale(0.14 -0.14)">
       <defs>
        <path id="DejaVuSans-2212" d="M 678 2272 
L 4684 2272 
L 4684 1741 
L 678 1741 
L 678 2272 
z
" transform="scale(0.015625)"/>
       </defs>
       <use xlink:href="#DejaVuSans-2212"/>
       <use xlink:href="#DejaVuSans-30" x="83.789062"/>
       <use xlink:href="#DejaVuSans-2e" x="147.412109"/>
       <use xlink:href="#DejaVuSans-32" x="179.199219"/>
      </g>
     </g>
    </g>
    <g id="ytick_2">
     <g id="line2d_9">
      <g>
       <use xlink:href="#m0208aac91c" x="66.116563" y="186.239887" style="stroke: #000000; stroke-width: 0.8"/>
      </g>
     </g>
     <g id="line2d_10">
      <g>
       <use xlink:href="#me145169208" x="735.716563" y="186.239887" style="stroke: #000000; stroke-width: 0.8"/>
      </g>
     </g>
     <g id="text_5">
      <!-- 0.0 -->
      <g transform="translate(40.352187 191.558793)scale(0.14 -0.14)">
       <use xlink:href="#DejaVuSans-30"/>
       <use xlink:href="#DejaVuSans-2e" x="63.623047"/>
       <use xlink:href="#DejaVuSans-30" x="95.410156"/>
      </g>
     </g>
    </g>
    <g id="ytick_3">
     <g id="line2d_11">
      <g>
       <use xlink:href="#m0208aac91c" x="66.116563" y="152.177571" style="stroke: #000000; stroke-width: 0.8"/>
      </g>
     </g>
     <g id="line2d_12">
      <g>
       <use xlink:href="#me145169208" x="735.716563" y="152.177571" style="stroke: #000000; stroke-width: 0.8"/>
      </g>
     </g>
     <g id="text_6">
      <!-- 0.2 -->
      <g transform="translate(40.352187 157.496477)scale(0.14 -0.14)">
       <use xlink:href="#DejaVuSans-30"/>
       <use xlink:href="#DejaVuSans-2e" x="63.623047"/>
       <use xlink:href="#DejaVuSans-32" x="95.410156"/>
      </g>
     </g>
    </g>
    <g id="ytick_4">
     <g id="line2d_13">
      <g>
       <use xlink:href="#m0208aac91c" x="66.116563" y="118.115255" style="stroke: #000000; stroke-width: 0.8"/>
      </g>
     </g>
     <g id="line2d_14">
      <g>
       <use xlink:href="#me145169208" x="735.716563" y="118.115255" style="stroke: #000000; stroke-width: 0.8"/>
      </g>
     </g>
     <g id="text_7">
      <!-- 0.4 -->
      <g transform="translate(40.352187 123.434162)scale(0.14 -0.14)">
       <use xlink:href="#DejaVuSans-30"/>
       <use xlink:href="#DejaVuSans-2e" x="63.623047"/>
       <use xlink:href="#DejaVuSans-34" x="95.410156"/>
      </g>
     </g>
    </g>
    <g id="ytick_5">
     <g id="line2d_15">
      <g>
       <use xlink:href="#m0208aac91c" x="66.116563" y="84.05294" style="stroke: #000000; stroke-width: 0.8"/>
      </g>
     </g>
     <g id="line2d_16">
      <g>
       <use xlink:href="#me145169208" x="735.716563" y="84.05294" style="stroke: #000000; stroke-width: 0.8"/>
      </g>
     </g>
     <g id="text_8">
      <!-- 0.6 -->
      <g transform="translate(40.352187 89.371846)scale(0.14 -0.14)">
       <defs>
        <path id="DejaVuSans-36" d="M 2113 2584 
Q 1688 2584 1439 2293 
Q 1191 2003 1191 1497 
Q 1191 994 1439 701 
Q 1688 409 2113 409 
Q 2538 409 2786 701 
Q 3034 994 3034 1497 
Q 3034 2003 2786 2293 
Q 2538 2584 2113 2584 
z
M 3366 4563 
L 3366 3988 
Q 3128 4100 2886 4159 
Q 2644 4219 2406 4219 
Q 1781 4219 1451 3797 
Q 1122 3375 1075 2522 
Q 1259 2794 1537 2939 
Q 1816 3084 2150 3084 
Q 2853 3084 3261 2657 
Q 3669 2231 3669 1497 
Q 3669 778 3244 343 
Q 2819 -91 2113 -91 
Q 1303 -91 875 529 
Q 447 1150 447 2328 
Q 447 3434 972 4092 
Q 1497 4750 2381 4750 
Q 2619 4750 2861 4703 
Q 3103 4656 3366 4563 
z
" transform="scale(0.015625)"/>
       </defs>
       <use xlink:href="#DejaVuSans-30"/>
       <use xlink:href="#DejaVuSans-2e" x="63.623047"/>
       <use xlink:href="#DejaVuSans-36" x="95.410156"/>
      </g>
     </g>
    </g>
    <g id="ytick_6">
     <g id="line2d_17">
      <g>
       <use xlink:href="#m0208aac91c" x="66.116563" y="49.990624" style="stroke: #000000; stroke-width: 0.8"/>
      </g>
     </g>
     <g id="line2d_18">
      <g>
       <use xlink:href="#me145169208" x="735.716563" y="49.990624" style="stroke: #000000; stroke-width: 0.8"/>
      </g>
     </g>
     <g id="text_9">
      <!-- 0.8 -->
      <g transform="translate(40.352187 55.30953)scale(0.14 -0.14)">
       <use xlink:href="#DejaVuSans-30"/>
       <use xlink:href="#DejaVuSans-2e" x="63.623047"/>
       <use xlink:href="#DejaVuSans-38" x="95.410156"/>
      </g>
     </g>
    </g>
    <g id="ytick_7">
     <g id="line2d_19">
      <g>
       <use xlink:href="#m0208aac91c" x="66.116563" y="15.928308" style="stroke: #000000; stroke-width: 0.8"/>
      </g>
     </g>
     <g id="line2d_20">
      <g>
       <use xlink:href="#me145169208" x="735.716563" y="15.928308" style="stroke: #000000; stroke-width: 0.8"/>
      </g>
     </g>
     <g id="text_10">
      <!-- 1.0 -->
      <g transform="translate(40.352187 21.247214)scale(0.14 -0.14)">
       <use xlink:href="#DejaVuSans-31"/>
       <use xlink:href="#DejaVuSans-2e" x="63.623047"/>
       <use xlink:href="#DejaVuSans-30" x="95.410156"/>
      </g>
     </g>
    </g>
    <g id="text_11">
     <!-- Characteristic Time (s) -->
     <g transform="translate(20.877187 220.131562)rotate(-90)scale(0.18 -0.18)">
      <defs>
       <path id="DejaVuSans-43" d="M 4122 4306 
L 4122 3641 
Q 3803 3938 3442 4084 
Q 3081 4231 2675 4231 
Q 1875 4231 1450 3742 
Q 1025 3253 1025 2328 
Q 1025 1406 1450 917 
Q 1875 428 2675 428 
Q 3081 428 3442 575 
Q 3803 722 4122 1019 
L 4122 359 
Q 3791 134 3420 21 
Q 3050 -91 2638 -91 
Q 1578 -91 968 557 
Q 359 1206 359 2328 
Q 359 3453 968 4101 
Q 1578 4750 2638 4750 
Q 3056 4750 3426 4639 
Q 3797 4528 4122 4306 
z
" transform="scale(0.015625)"/>
       <path id="DejaVuSans-63" d="M 3122 3366 
L 3122 2828 
Q 2878 2963 2633 3030 
Q 2388 3097 2138 3097 
Q 1578 3097 1268 2742 
Q 959 2388 959 1747 
Q 959 1106 1268 751 
Q 1578 397 2138 397 
Q 2388 397 2633 464 
Q 2878 531 3122 666 
L 3122 134 
Q 2881 22 2623 -34 
Q 2366 -91 2075 -91 
Q 1284 -91 818 406 
Q 353 903 353 1747 
Q 353 2603 823 3093 
Q 1294 3584 2113 3584 
Q 2378 3584 2631 3529 
Q 2884 3475 3122 3366 
z
" transform="scale(0.015625)"/>
      </defs>
      <use xlink:href="#DejaVuSans-43"/>
      <use xlink:href="#DejaVuSans-68" x="69.824219"/>
      <use xlink:href="#DejaVuSans-61" x="133.203125"/>
      <use xlink:href="#DejaVuSans-72" x="194.482422"/>
      <use xlink:href="#DejaVuSans-61" x="235.595703"/>
      <use xlink:href="#DejaVuSans-63" x="296.875"/>
      <use xlink:href="#DejaVuSans-74" x="351.855469"/>
      <use xlink:href="#DejaVuSans-65" x="391.064453"/>
      <use xlink:href="#DejaVuSans-72" x="452.587891"/>
      <use xlink:href="#DejaVuSans-69" x="493.701172"/>
      <use xlink:href="#DejaVuSans-73" x="521.484375"/>
      <use xlink:href="#DejaVuSans-74" x="573.583984"/>
      <use xlink:href="#DejaVuSans-69" x="612.792969"/>
      <use xlink:href="#DejaVuSans-63" x="640.576172"/>
      <use xlink:href="#DejaVuSans-20" x="695.556641"/>
      <use xlink:href="#DejaVuSans-54" x="727.34375"/>
      <use xlink:href="#DejaVuSans-69" x="785.302734"/>
      <use xlink:href="#DejaVuSans-6d" x="813.085938"/>
      <use xlink:href="#DejaVuSans-65" x="910.498047"/>
      <use xlink:href="#DejaVuSans-20" x="972.021484"/>
      <use xlink:href="#DejaVuSans-28" x="1003.808594"/>
      <use xlink:href="#DejaVuSans-73" x="1042.822266"/>
      <use xlink:href="#DejaVuSans-29" x="1094.921875"/>
     </g>
    </g>
   </g>
   <g id="line2d_21">
    <path d="M 177.716563 186.069575 
L 177.716563 97.700955 
" clip-path="url(#p2187c69cc4)" style="fill: none; stroke: #373737; stroke-width: 0.8; stroke-linecap: square"/>
   </g>
   <g id="line2d_22">
    <path d="M 177.716563 173.730455 
L 177.716563 142.107345 
" clip-path="url(#p2187c69cc4)" style="fill: none; stroke: #373737; stroke-width: 2.4; stroke-linecap: square"/>
   </g>
   <g id="line2d_23">
    <path d="M 400.916562 186.069575 
L 400.916562 85.823422 
" clip-path="url(#p2187c69cc4)" style="fill: none; stroke: #373737; stroke-width: 0.8; stroke-linecap: square"/>
   </g>
   <g id="line2d_24">
    <path d="M 400.916562 178.162711 
L 400.916562 139.266125 
" clip-path="url(#p2187c69cc4)" style="fill: none; stroke: #373737; stroke-width: 2.4; stroke-linecap: square"/>
   </g>
   <g id="line2d_25">
    <path d="M 624.116562 186.069575 
L 624.116562 179.309568 
" clip-path="url(#p2187c69cc4)" style="fill: none; stroke: #373737; stroke-width: 0.8; stroke-linecap: square"/>
   </g>
   <g id="line2d_26">
    <path d="M 624.116562 183.52482 
L 624.116562 181.513356 
" clip-path="url(#p2187c69cc4)" style="fill: none; stroke: #373737; stroke-width: 2.4; stroke-linecap: square"/>
   </g>
   <g id="patch_3">
    <path d="M 66.116563 228.96 
L 66.116563 7.2 
" style="fill: none; stroke: #000000; stroke-width: 0.8; stroke-linejoin: miter; stroke-linecap: square"/>
   </g>
   <g id="patch_4">
    <path d="M 735.716563 228.96 
L 735.716563 7.2 
" style="fill: none; stroke: #000000; stroke-width: 0.8; stroke-linejoin: miter; stroke-linecap: square"/>
   </g>
   <g id="patch_5">
    <path d="M 66.116563 228.96 
L 735.716563 228.96 
" style="fill: none; stroke: #000000; stroke-width: 0.8; stroke-linejoin: miter; stroke-linecap: square"/>
   </g>
   <g id="patch_6">
    <path d="M 66.116563 7.2 
L 735.716563 7.2 
" style="fill: none; stroke: #000000; stroke-width: 0.8; stroke-linejoin: miter; stroke-linecap: square"/>
   </g>
   <g id="PathCollection_1">
    <defs>
     <path id="mfdbe5cb51d" d="M 0 0.8 
C 0.212162 0.8 0.415664 0.715707 0.565685 0.565685 
C 0.715707 0.415664 0.8 0.212162 0.8 0 
C 0.8 -0.212162 0.715707 -0.415664 0.565685 -0.565685 
C 0.415664 -0.715707 0.212162 -0.8 0 -0.8 
C -0.212162 -0.8 -0.415664 -0.715707 -0.565685 -0.565685 
C -0.715707 -0.415664 -0.8 -0.212162 -0.8 0 
C -0.8 0.212162 -0.715707 0.415664 -0.565685 0.565685 
C -0.415664 0.715707 -0.212162 0.8 0 0.8 
z
" style="stroke: #373737"/>
    </defs>
    <g clip-path="url(#p2187c69cc4)">
     <use xlink:href="#mfdbe5cb51d" x="177.716563" y="165.306261" style="fill: #ffffff; stroke: #373737"/>
    </g>
   </g>
   <g id="PathCollection_2">
    <g clip-path="url(#p2187c69cc4)">
     <use xlink:href="#mfdbe5cb51d" x="400.916562" y="170.950006" style="fill: #ffffff; stroke: #373737"/>
    </g>
   </g>
   <g id="PathCollection_3">
    <g clip-path="url(#p2187c69cc4)">
     <use xlink:href="#mfdbe5cb51d" x="624.116562" y="182.773626" style="fill: #ffffff; stroke: #373737"/>
    </g>
   </g>
   <g id="text_12">
    <!-- 1.229e-01 -->
    <g transform="translate(182.180563 171.586349)scale(0.14 -0.14)">
     <defs>
      <path id="DejaVuSans-Bold-31" d="M 750 831 
L 1813 831 
L 1813 3847 
L 722 3622 
L 722 4441 
L 1806 4666 
L 2950 4666 
L 2950 831 
L 4013 831 
L 4013 0 
L 750 0 
L 750 831 
z
" transform="scale(0.015625)"/>
      <path id="DejaVuSans-Bold-2e" d="M 653 1209 
L 1778 1209 
L 1778 0 
L 653 0 
L 653 1209 
z
" transform="scale(0.015625)"/>
      <path id="DejaVuSans-Bold-32" d="M 1844 884 
L 3897 884 
L 3897 0 
L 506 0 
L 506 884 
L 2209 2388 
Q 2438 2594 2547 2791 
Q 2656 2988 2656 3200 
Q 2656 3528 2436 3728 
Q 2216 3928 1850 3928 
Q 1569 3928 1234 3808 
Q 900 3688 519 3450 
L 519 4475 
Q 925 4609 1322 4679 
Q 1719 4750 2100 4750 
Q 2938 4750 3402 4381 
Q 3866 4013 3866 3353 
Q 3866 2972 3669 2642 
Q 3472 2313 2841 1759 
L 1844 884 
z
" transform="scale(0.015625)"/>
      <path id="DejaVuSans-Bold-39" d="M 641 103 
L 641 966 
Q 928 831 1190 764 
Q 1453 697 1709 697 
Q 2247 697 2547 995 
Q 2847 1294 2900 1881 
Q 2688 1725 2447 1647 
Q 2206 1569 1925 1569 
Q 1209 1569 770 1986 
Q 331 2403 331 3084 
Q 331 3838 820 4291 
Q 1309 4744 2131 4744 
Q 3044 4744 3544 4128 
Q 4044 3513 4044 2388 
Q 4044 1231 3459 570 
Q 2875 -91 1856 -91 
Q 1528 -91 1228 -42 
Q 928 6 641 103 
z
M 2125 2350 
Q 2441 2350 2600 2554 
Q 2759 2759 2759 3169 
Q 2759 3575 2600 3781 
Q 2441 3988 2125 3988 
Q 1809 3988 1650 3781 
Q 1491 3575 1491 3169 
Q 1491 2759 1650 2554 
Q 1809 2350 2125 2350 
z
" transform="scale(0.015625)"/>
      <path id="DejaVuSans-Bold-65" d="M 4031 1759 
L 4031 1441 
L 1416 1441 
Q 1456 1047 1700 850 
Q 1944 653 2381 653 
Q 2734 653 3104 758 
Q 3475 863 3866 1075 
L 3866 213 
Q 3469 63 3072 -14 
Q 2675 -91 2278 -91 
Q 1328 -91 801 392 
Q 275 875 275 1747 
Q 275 2603 792 3093 
Q 1309 3584 2216 3584 
Q 3041 3584 3536 3087 
Q 4031 2591 4031 1759 
z
M 2881 2131 
Q 2881 2450 2695 2645 
Q 2509 2841 2209 2841 
Q 1884 2841 1681 2658 
Q 1478 2475 1428 2131 
L 2881 2131 
z
" transform="scale(0.015625)"/>
      <path id="DejaVuSans-Bold-2d" d="M 347 2297 
L 2309 2297 
L 2309 1388 
L 347 1388 
L 347 2297 
z
" transform="scale(0.015625)"/>
      <path id="DejaVuSans-Bold-30" d="M 2944 2338 
Q 2944 3213 2780 3570 
Q 2616 3928 2228 3928 
Q 1841 3928 1675 3570 
Q 1509 3213 1509 2338 
Q 1509 1453 1675 1090 
Q 1841 728 2228 728 
Q 2613 728 2778 1090 
Q 2944 1453 2944 2338 
z
M 4147 2328 
Q 4147 1169 3647 539 
Q 3147 -91 2228 -91 
Q 1306 -91 806 539 
Q 306 1169 306 2328 
Q 306 3491 806 4120 
Q 1306 4750 2228 4750 
Q 3147 4750 3647 4120 
Q 4147 3491 4147 2328 
z
" transform="scale(0.015625)"/>
     </defs>
     <use xlink:href="#DejaVuSans-Bold-31"/>
     <use xlink:href="#DejaVuSans-Bold-2e" x="69.580078"/>
     <use xlink:href="#DejaVuSans-Bold-32" x="107.568359"/>
     <use xlink:href="#DejaVuSans-Bold-32" x="177.148438"/>
     <use xlink:href="#DejaVuSans-Bold-39" x="246.728516"/>
     <use xlink:href="#DejaVuSans-Bold-65" x="316.308594"/>
     <use xlink:href="#DejaVuSans-Bold-2d" x="384.130859"/>
     <use xlink:href="#DejaVuSans-Bold-30" x="425.634766"/>
     <use xlink:href="#DejaVuSans-Bold-31" x="495.214844"/>
    </g>
   </g>
   <g id="text_13">
    <!-- 0.0898 -->
    <g transform="translate(405.380562 175.53697)scale(0.14 -0.14)">
     <defs>
      <path id="DejaVuSans-Bold-38" d="M 2228 2088 
Q 1891 2088 1709 1903 
Q 1528 1719 1528 1375 
Q 1528 1031 1709 848 
Q 1891 666 2228 666 
Q 2563 666 2741 848 
Q 2919 1031 2919 1375 
Q 2919 1722 2741 1905 
Q 2563 2088 2228 2088 
z
M 1350 2484 
Q 925 2613 709 2878 
Q 494 3144 494 3541 
Q 494 4131 934 4440 
Q 1375 4750 2228 4750 
Q 3075 4750 3515 4442 
Q 3956 4134 3956 3541 
Q 3956 3144 3739 2878 
Q 3522 2613 3097 2484 
Q 3572 2353 3814 2058 
Q 4056 1763 4056 1313 
Q 4056 619 3595 264 
Q 3134 -91 2228 -91 
Q 1319 -91 855 264 
Q 391 619 391 1313 
Q 391 1763 633 2058 
Q 875 2353 1350 2484 
z
M 1631 3419 
Q 1631 3141 1786 2991 
Q 1941 2841 2228 2841 
Q 2509 2841 2662 2991 
Q 2816 3141 2816 3419 
Q 2816 3697 2662 3845 
Q 2509 3994 2228 3994 
Q 1941 3994 1786 3844 
Q 1631 3694 1631 3419 
z
" transform="scale(0.015625)"/>
     </defs>
     <use xlink:href="#DejaVuSans-Bold-30"/>
     <use xlink:href="#DejaVuSans-Bold-2e" x="69.580078"/>
     <use xlink:href="#DejaVuSans-Bold-30" x="107.568359"/>
     <use xlink:href="#DejaVuSans-Bold-38" x="177.148438"/>
     <use xlink:href="#DejaVuSans-Bold-39" x="246.728516"/>
     <use xlink:href="#DejaVuSans-Bold-38" x="316.308594"/>
    </g>
   </g>
   <g id="text_14">
    <!-- 0.0204 -->
    <g transform="translate(628.580563 183.813504)scale(0.14 -0.14)">
     <defs>
      <path id="DejaVuSans-Bold-34" d="M 2356 3675 
L 1038 1722 
L 2356 1722 
L 2356 3675 
z
M 2156 4666 
L 3494 4666 
L 3494 1722 
L 4159 1722 
L 4159 850 
L 3494 850 
L 3494 0 
L 2356 0 
L 2356 850 
L 288 850 
L 288 1881 
L 2156 4666 
z
" transform="scale(0.015625)"/>
     </defs>
     <use xlink:href="#DejaVuSans-Bold-30"/>
     <use xlink:href="#DejaVuSans-Bold-2e" x="69.580078"/>
     <use xlink:href="#DejaVuSans-Bold-30" x="107.568359"/>
     <use xlink:href="#DejaVuSans-Bold-32" x="177.148438"/>
     <use xlink:href="#DejaVuSans-Bold-30" x="246.728516"/>
     <use xlink:href="#DejaVuSans-Bold-34" x="316.308594"/>
    </g>
   </g>
  </g>
 </g>
 <defs>
  <clipPath id="p2187c69cc4">
   <rect x="66.116563" y="7.2" width="669.6" height="221.76"/>
  </clipPath>
 </defs>
</svg>
