<?xml version="1.0" encoding="utf-8" standalone="no"?>
<!DOCTYPE svg PUBLIC "-//W3C//DTD SVG 1.1//EN"
  "http://www.w3.org/Graphics/SVG/1.1/DTD/svg11.dtd">
<!-- Created with matplotlib (https://matplotlib.org/) -->
<svg height="280.648187pt" version="1.1" viewBox="0 0 751.824062 280.648187" width="751.824062pt" xmlns="http://www.w3.org/2000/svg" xmlns:xlink="http://www.w3.org/1999/xlink">
 <metadata>
  <rdf:RDF xmlns:cc="http://creativecommons.org/ns#" xmlns:dc="http://purl.org/dc/elements/1.1/" xmlns:rdf="http://www.w3.org/1999/02/22-rdf-syntax-ns#">
   <cc:Work>
    <dc:type rdf:resource="http://purl.org/dc/dcmitype/StillImage"/>
    <dc:date>2022-12-06T11:23:13.175908</dc:date>
    <dc:format>image/svg+xml</dc:format>
    <dc:creator>
     <cc:Agent>
      <dc:title>Matplotlib v3.3.4, https://matplotlib.org/</dc:title>
     </cc:Agent>
    </dc:creator>
   </cc:Work>
  </rdf:RDF>
 </metadata>
 <defs>
  <style type="text/css">*{stroke-linecap:butt;stroke-linejoin:round;}</style>
 </defs>
 <g id="figure_1">
  <g id="patch_1">
   <path d="M 0 280.648187 
L 751.824062 280.648187 
L 751.824062 0 
L 0 0 
z
" style="fill:#ffffff;"/>
  </g>
  <g id="axes_1">
   <g id="patch_2">
    <path d="M 75.024063 240.721875 
L 744.624063 240.721875 
L 744.624063 18.961875 
L 75.024063 18.961875 
z
" style="fill:#ffffff;"/>
   </g>
   <g id="PolyCollection_1">
    <defs>
     <path d="M 196.658089 -72.534344 
L 176.590036 -72.534344 
L 173.89371 -73.294645 
L 170.69478 -74.054947 
L 166.965664 -74.815248 
L 162.696283 -75.57555 
L 157.898674 -76.335852 
L 152.610938 -77.096153 
L 146.900046 -77.856455 
L 140.863021 -78.616756 
L 134.626094 -79.377058 
L 128.341587 -80.13736 
L 122.182467 -80.897661 
L 116.334731 -81.657963 
L 110.988028 -82.418265 
L 106.325161 -83.178566 
L 102.511245 -83.938868 
L 99.683426 -84.699169 
L 97.942049 -85.459471 
L 97.344063 -86.219773 
L 97.899267 -86.980074 
L 99.56974 -87.740376 
L 102.272483 -88.500677 
L 105.885009 -89.260979 
L 110.253341 -90.021281 
L 115.201671 -90.781582 
L 120.542805 -91.541884 
L 126.088526 -92.302186 
L 131.659051 -93.062487 
L 137.09093 -93.822789 
L 142.242954 -94.58309 
L 146.999832 -95.343392 
L 151.273688 -96.103694 
L 155.003582 -96.863995 
L 158.153418 -97.624297 
L 160.708726 -98.384598 
L 162.672794 -99.1449 
L 164.06262 -99.905202 
L 164.905095 -100.665503 
L 165.233703 -101.425805 
L 165.085935 -102.186106 
L 164.501475 -102.946408 
L 163.521141 -103.70671 
L 162.186456 -104.467011 
L 160.539695 -105.227313 
L 158.624193 -105.987615 
L 156.48474 -106.747916 
L 154.167873 -107.508218 
L 151.721933 -108.268519 
L 149.196801 -109.028821 
L 146.643288 -109.789123 
L 144.112198 -110.549424 
L 141.653138 -111.309726 
L 139.313193 -112.070027 
L 137.135566 -112.830329 
L 135.158358 -113.590631 
L 133.413568 -114.350932 
L 131.926434 -115.111234 
L 130.715163 -115.871535 
L 129.791066 -116.631837 
L 129.15907 -117.392139 
L 128.818533 -118.15244 
L 128.764273 -118.912742 
L 128.987682 -119.673044 
L 129.477814 -120.433345 
L 130.222332 -121.193647 
L 131.20823 -121.953948 
L 132.422282 -122.71425 
L 133.851194 -123.474552 
L 135.481501 -124.234853 
L 137.299241 -124.995155 
L 139.289511 -125.755456 
L 141.435973 -126.515758 
L 143.720428 -127.27606 
L 146.122509 -128.036361 
L 148.619581 -128.796663 
L 151.186858 -129.556964 
L 153.797757 -130.317266 
L 156.424462 -131.077568 
L 159.038644 -131.837869 
L 161.612299 -132.598171 
L 164.11861 -133.358473 
L 166.532796 -134.118774 
L 168.832852 -134.879076 
L 171.000168 -135.639377 
L 173.019963 -136.399679 
L 174.881536 -137.159981 
L 176.57832 -137.920282 
L 178.107757 -138.680584 
L 179.471016 -139.440885 
L 180.672583 -140.201187 
L 181.719752 -140.961489 
L 182.62207 -141.72179 
L 183.390754 -142.482092 
L 184.038119 -143.242393 
L 184.577045 -144.002695 
L 185.020501 -144.762997 
L 185.381141 -145.523298 
L 185.670982 -146.2836 
L 185.901162 -147.043902 
L 186.081777 -147.804203 
L 187.166348 -147.804203 
L 187.166348 -147.804203 
L 187.346963 -147.043902 
L 187.577143 -146.2836 
L 187.866984 -145.523298 
L 188.227624 -144.762997 
L 188.67108 -144.002695 
L 189.210006 -143.242393 
L 189.857371 -142.482092 
L 190.626055 -141.72179 
L 191.528373 -140.961489 
L 192.575542 -140.201187 
L 193.777109 -139.440885 
L 195.140368 -138.680584 
L 196.669805 -137.920282 
L 198.366589 -137.159981 
L 200.228162 -136.399679 
L 202.247957 -135.639377 
L 204.415273 -134.879076 
L 206.715329 -134.118774 
L 209.129515 -133.358473 
L 211.635826 -132.598171 
L 214.209481 -131.837869 
L 216.823663 -131.077568 
L 219.450368 -130.317266 
L 222.061267 -129.556964 
L 224.628544 -128.796663 
L 227.125616 -128.036361 
L 229.527697 -127.27606 
L 231.812152 -126.515758 
L 233.958614 -125.755456 
L 235.948884 -124.995155 
L 237.766624 -124.234853 
L 239.396931 -123.474552 
L 240.825843 -122.71425 
L 242.039895 -121.953948 
L 243.025793 -121.193647 
L 243.770311 -120.433345 
L 244.260443 -119.673044 
L 244.483852 -118.912742 
L 244.429592 -118.15244 
L 244.089055 -117.392139 
L 243.457059 -116.631837 
L 242.532962 -115.871535 
L 241.321691 -115.111234 
L 239.834557 -114.350932 
L 238.089767 -113.590631 
L 236.112559 -112.830329 
L 233.934932 -112.070027 
L 231.594987 -111.309726 
L 229.135927 -110.549424 
L 226.604837 -109.789123 
L 224.051324 -109.028821 
L 221.526192 -108.268519 
L 219.080252 -107.508218 
L 216.763385 -106.747916 
L 214.623932 -105.987615 
L 212.70843 -105.227313 
L 211.061669 -104.467011 
L 209.726984 -103.70671 
L 208.74665 -102.946408 
L 208.16219 -102.186106 
L 208.014422 -101.425805 
L 208.34303 -100.665503 
L 209.185505 -99.905202 
L 210.575331 -99.1449 
L 212.539399 -98.384598 
L 215.094707 -97.624297 
L 218.244543 -96.863995 
L 221.974437 -96.103694 
L 226.248293 -95.343392 
L 231.005171 -94.58309 
L 236.157195 -93.822789 
L 241.589074 -93.062487 
L 247.159599 -92.302186 
L 252.70532 -91.541884 
L 258.046454 -90.781582 
L 262.994784 -90.021281 
L 267.363116 -89.260979 
L 270.975642 -88.500677 
L 273.678385 -87.740376 
L 275.348858 -86.980074 
L 275.904063 -86.219773 
L 275.306076 -85.459471 
L 273.564699 -84.699169 
L 270.73688 -83.938868 
L 266.922964 -83.178566 
L 262.260097 -82.418265 
L 256.913394 -81.657963 
L 251.065658 -80.897661 
L 244.906538 -80.13736 
L 238.622031 -79.377058 
L 232.385104 -78.616756 
L 226.348079 -77.856455 
L 220.637187 -77.096153 
L 215.349451 -76.335852 
L 210.551842 -75.57555 
L 206.282461 -74.815248 
L 202.553345 -74.054947 
L 199.354415 -73.294645 
L 196.658089 -72.534344 
z
" id="m9486fb1afa" style="stroke:#373737;stroke-width:0.8;"/>
    </defs>
    <g clip-path="url(#p6ce633fe58)">
     <use style="fill:#2b8e70;stroke:#373737;stroke-width:0.8;" x="0" xlink:href="#m9486fb1afa" y="280.648187"/>
    </g>
   </g>
   <g id="PolyCollection_2">
    <defs>
     <path d="M 417.017568 -72.981057 
L 402.630557 -72.981057 
L 400.214174 -73.861283 
L 397.233649 -74.741509 
L 393.645539 -75.621734 
L 389.432334 -76.50196 
L 384.610678 -77.382186 
L 379.237962 -78.262412 
L 373.416062 -79.142638 
L 367.291115 -80.022864 
L 361.048596 -80.903089 
L 354.903526 -81.783315 
L 349.086292 -82.663541 
L 343.825298 -83.543767 
L 339.328203 -84.423993 
L 335.763929 -85.304218 
L 333.247605 -86.184444 
L 331.830366 -87.06467 
L 331.495313 -87.944896 
L 332.160107 -88.825122 
L 333.685818 -89.705348 
L 335.890823 -90.585573 
L 338.567965 -91.465799 
L 341.502883 -92.346025 
L 344.491468 -93.226251 
L 347.354679 -94.106477 
L 349.949505 -94.986702 
L 352.175428 -95.866928 
L 353.976351 -96.747154 
L 355.338441 -97.62738 
L 356.284679 -98.507606 
L 356.867099 -99.387832 
L 357.157764 -100.268057 
L 357.239445 -101.148283 
L 357.196867 -102.028509 
L 357.109239 -102.908735 
L 357.044543 -103.788961 
L 357.055925 -104.669186 
L 357.180245 -105.549412 
L 357.438663 -106.429638 
L 357.83891 -107.309864 
L 358.37871 -108.19009 
L 359.049722 -109.070316 
L 359.84133 -109.950541 
L 360.743693 -110.830767 
L 361.749618 -111.710993 
L 362.855087 -112.591219 
L 364.058468 -113.471445 
L 365.358743 -114.35167 
L 366.753217 -115.231896 
L 368.235245 -116.112122 
L 369.792528 -116.992348 
L 371.406339 -117.872574 
L 373.051896 -118.7528 
L 374.699858 -119.633025 
L 376.318703 -120.513251 
L 377.877621 -121.393477 
L 379.349467 -122.273703 
L 380.71332 -123.153929 
L 381.956301 -124.034155 
L 383.074421 -124.91438 
L 384.072401 -125.794606 
L 384.962547 -126.674832 
L 385.762909 -127.555058 
L 386.495007 -128.435284 
L 387.181442 -129.315509 
L 387.843694 -130.195735 
L 388.500326 -131.075961 
L 389.165761 -131.956187 
L 389.849682 -132.836413 
L 390.557031 -133.716639 
L 391.288532 -134.596864 
L 392.041583 -135.47709 
L 392.81137 -136.357316 
L 393.592046 -137.237542 
L 394.377803 -138.117768 
L 395.163749 -138.997993 
L 395.946483 -139.878219 
L 396.724333 -140.758445 
L 397.497266 -141.638671 
L 398.266494 -142.518897 
L 399.03388 -143.399123 
L 399.801212 -144.279348 
L 400.56949 -145.159574 
L 401.338307 -146.0398 
L 402.105434 -146.920026 
L 402.866662 -147.800252 
L 403.615925 -148.680477 
L 404.345683 -149.560703 
L 405.047507 -150.440929 
L 405.712798 -151.321155 
L 406.33352 -152.201381 
L 406.902871 -153.081607 
L 407.415813 -153.961832 
L 407.869396 -154.842058 
L 408.262867 -155.722284 
L 408.597571 -156.60251 
L 408.876677 -157.482736 
L 409.104784 -158.362961 
L 409.287469 -159.243187 
L 409.430821 -160.123413 
L 410.217304 -160.123413 
L 410.217304 -160.123413 
L 410.360656 -159.243187 
L 410.543341 -158.362961 
L 410.771448 -157.482736 
L 411.050554 -156.60251 
L 411.385258 -155.722284 
L 411.778729 -154.842058 
L 412.232312 -153.961832 
L 412.745254 -153.081607 
L 413.314605 -152.201381 
L 413.935327 -151.321155 
L 414.600618 -150.440929 
L 415.302442 -149.560703 
L 416.0322 -148.680477 
L 416.781463 -147.800252 
L 417.542691 -146.920026 
L 418.309818 -146.0398 
L 419.078635 -145.159574 
L 419.846913 -144.279348 
L 420.614245 -143.399123 
L 421.381631 -142.518897 
L 422.150859 -141.638671 
L 422.923792 -140.758445 
L 423.701642 -139.878219 
L 424.484376 -138.997993 
L 425.270322 -138.117768 
L 426.056079 -137.237542 
L 426.836755 -136.357316 
L 427.606542 -135.47709 
L 428.359593 -134.596864 
L 429.091094 -133.716639 
L 429.798443 -132.836413 
L 430.482364 -131.956187 
L 431.147799 -131.075961 
L 431.804431 -130.195735 
L 432.466683 -129.315509 
L 433.153118 -128.435284 
L 433.885216 -127.555058 
L 434.685578 -126.674832 
L 435.575724 -125.794606 
L 436.573704 -124.91438 
L 437.691824 -124.034155 
L 438.934805 -123.153929 
L 440.298658 -122.273703 
L 441.770504 -121.393477 
L 443.329422 -120.513251 
L 444.948267 -119.633025 
L 446.596229 -118.7528 
L 448.241786 -117.872574 
L 449.855597 -116.992348 
L 451.41288 -116.112122 
L 452.894908 -115.231896 
L 454.289382 -114.35167 
L 455.589657 -113.471445 
L 456.793038 -112.591219 
L 457.898507 -111.710993 
L 458.904432 -110.830767 
L 459.806795 -109.950541 
L 460.598403 -109.070316 
L 461.269415 -108.19009 
L 461.809215 -107.309864 
L 462.209462 -106.429638 
L 462.46788 -105.549412 
L 462.5922 -104.669186 
L 462.603582 -103.788961 
L 462.538886 -102.908735 
L 462.451258 -102.028509 
L 462.40868 -101.148283 
L 462.490361 -100.268057 
L 462.781026 -99.387832 
L 463.363446 -98.507606 
L 464.309684 -97.62738 
L 465.671774 -96.747154 
L 467.472697 -95.866928 
L 469.69862 -94.986702 
L 472.293446 -94.106477 
L 475.156657 -93.226251 
L 478.145242 -92.346025 
L 481.08016 -91.465799 
L 483.757302 -90.585573 
L 485.962307 -89.705348 
L 487.488018 -88.825122 
L 488.152812 -87.944896 
L 487.817759 -87.06467 
L 486.40052 -86.184444 
L 483.884196 -85.304218 
L 480.319922 -84.423993 
L 475.822827 -83.543767 
L 470.561833 -82.663541 
L 464.744599 -81.783315 
L 458.599529 -80.903089 
L 452.35701 -80.022864 
L 446.232063 -79.142638 
L 440.410163 -78.262412 
L 435.037447 -77.382186 
L 430.215791 -76.50196 
L 426.002586 -75.621734 
L 422.414476 -74.741509 
L 419.433951 -73.861283 
L 417.017568 -72.981057 
z
" id="m506a0eb60c" style="stroke:#373737;stroke-width:0.8;"/>
    </defs>
    <g clip-path="url(#p6ce633fe58)">
     <use style="fill:#be631d;stroke:#373737;stroke-width:0.8;" x="0" xlink:href="#m506a0eb60c" y="280.648187"/>
    </g>
   </g>
   <g id="PolyCollection_3">
    <defs>
     <path d="M 637.826246 -50.006313 
L 628.221879 -50.006313 
L 627.003316 -52.042676 
L 625.57382 -54.07904 
L 623.924782 -56.115403 
L 622.054993 -58.151767 
L 619.972283 -60.188131 
L 617.694842 -62.224494 
L 615.252055 -64.260858 
L 612.684683 -66.297222 
L 610.044271 -68.333585 
L 607.391703 -70.369949 
L 604.794919 -72.406312 
L 602.325874 -74.442676 
L 600.05691 -76.47904 
L 598.056785 -78.515403 
L 596.386661 -80.551767 
L 595.096375 -82.588131 
L 594.221312 -84.624494 
L 593.780164 -86.660858 
L 593.77378 -88.697222 
L 594.185203 -90.733585 
L 594.980922 -92.769949 
L 596.113203 -94.806313 
L 597.523298 -96.842676 
L 599.145257 -98.87904 
L 600.910004 -100.915403 
L 602.749352 -102.951767 
L 604.599642 -104.988131 
L 606.404758 -107.024494 
L 608.118337 -109.060858 
L 609.705088 -111.097222 
L 611.141209 -113.133585 
L 612.41399 -115.169949 
L 613.520724 -117.206312 
L 614.46712 -119.242676 
L 615.265396 -121.27904 
L 615.932271 -123.315403 
L 616.486999 -125.351767 
L 616.949617 -127.388131 
L 617.33949 -129.424494 
L 617.674216 -131.460858 
L 617.968915 -133.497222 
L 618.235875 -135.533585 
L 618.484519 -137.569949 
L 618.721625 -139.606313 
L 618.951726 -141.642676 
L 619.177608 -143.67904 
L 619.400847 -145.715403 
L 619.622315 -147.751767 
L 619.842602 -149.788131 
L 620.062338 -151.824494 
L 620.282391 -153.860858 
L 620.503942 -155.897222 
L 620.728449 -157.933585 
L 620.957537 -159.969949 
L 621.192818 -162.006312 
L 621.435701 -164.042676 
L 621.687198 -166.07904 
L 621.947773 -168.115403 
L 622.217238 -170.151767 
L 622.494718 -172.188131 
L 622.778682 -174.224494 
L 623.06705 -176.260858 
L 623.357352 -178.297222 
L 623.646934 -180.333585 
L 623.933191 -182.369949 
L 624.213803 -184.406312 
L 624.486957 -186.442676 
L 624.751533 -188.47904 
L 625.007238 -190.515403 
L 625.254675 -192.551767 
L 625.49533 -194.588131 
L 625.731491 -196.624494 
L 625.96609 -198.660858 
L 626.20248 -200.697222 
L 626.444172 -202.733585 
L 626.694542 -204.769949 
L 626.956547 -206.806312 
L 627.232456 -208.842676 
L 627.523635 -210.87904 
L 627.8304 -212.915403 
L 628.151945 -214.951767 
L 628.486359 -216.988131 
L 628.830727 -219.024494 
L 629.1813 -221.060858 
L 629.533719 -223.097222 
L 629.883287 -225.133585 
L 630.225238 -227.169949 
L 630.555007 -229.206312 
L 630.868467 -231.242676 
L 631.16212 -233.27904 
L 631.433231 -235.315403 
L 631.679907 -237.351767 
L 631.901106 -239.388131 
L 632.096605 -241.424494 
L 632.266914 -243.460858 
L 632.413162 -245.497222 
L 632.536968 -247.533585 
L 632.640296 -249.569949 
L 632.725322 -251.606313 
L 633.322803 -251.606313 
L 633.322803 -251.606313 
L 633.407829 -249.569949 
L 633.511157 -247.533585 
L 633.634963 -245.497222 
L 633.781211 -243.460858 
L 633.95152 -241.424494 
L 634.147019 -239.388131 
L 634.368218 -237.351767 
L 634.614894 -235.315403 
L 634.886005 -233.27904 
L 635.179658 -231.242676 
L 635.493118 -229.206312 
L 635.822887 -227.169949 
L 636.164838 -225.133585 
L 636.514406 -223.097222 
L 636.866825 -221.060858 
L 637.217398 -219.024494 
L 637.561766 -216.988131 
L 637.89618 -214.951767 
L 638.217725 -212.915403 
L 638.52449 -210.87904 
L 638.815669 -208.842676 
L 639.091578 -206.806312 
L 639.353583 -204.769949 
L 639.603953 -202.733585 
L 639.845645 -200.697222 
L 640.082035 -198.660858 
L 640.316634 -196.624494 
L 640.552795 -194.588131 
L 640.79345 -192.551767 
L 641.040887 -190.515403 
L 641.296592 -188.47904 
L 641.561168 -186.442676 
L 641.834322 -184.406312 
L 642.114934 -182.369949 
L 642.401191 -180.333585 
L 642.690773 -178.297222 
L 642.981075 -176.260858 
L 643.269443 -174.224494 
L 643.553407 -172.188131 
L 643.830887 -170.151767 
L 644.100352 -168.115403 
L 644.360927 -166.07904 
L 644.612424 -164.042676 
L 644.855307 -162.006312 
L 645.090588 -159.969949 
L 645.319676 -157.933585 
L 645.544183 -155.897222 
L 645.765734 -153.860858 
L 645.985787 -151.824494 
L 646.205523 -149.788131 
L 646.42581 -147.751767 
L 646.647278 -145.715403 
L 646.870517 -143.67904 
L 647.096399 -141.642676 
L 647.3265 -139.606313 
L 647.563606 -137.569949 
L 647.81225 -135.533585 
L 648.07921 -133.497222 
L 648.373909 -131.460858 
L 648.708635 -129.424494 
L 649.098508 -127.388131 
L 649.561126 -125.351767 
L 650.115854 -123.315403 
L 650.782729 -121.27904 
L 651.581005 -119.242676 
L 652.527401 -117.206312 
L 653.634135 -115.169949 
L 654.906916 -113.133585 
L 656.343037 -111.097222 
L 657.929788 -109.060858 
L 659.643367 -107.024494 
L 661.448483 -104.988131 
L 663.298773 -102.951767 
L 665.138121 -100.915403 
L 666.902868 -98.87904 
L 668.524827 -96.842676 
L 669.934922 -94.806313 
L 671.067203 -92.769949 
L 671.862922 -90.733585 
L 672.274345 -88.697222 
L 672.267961 -86.660858 
L 671.826813 -84.624494 
L 670.95175 -82.588131 
L 669.661464 -80.551767 
L 667.99134 -78.515403 
L 665.991215 -76.47904 
L 663.722251 -74.442676 
L 661.253206 -72.406312 
L 658.656422 -70.369949 
L 656.003854 -68.333585 
L 653.363442 -66.297222 
L 650.79607 -64.260858 
L 648.353283 -62.224494 
L 646.075842 -60.188131 
L 643.993132 -58.151767 
L 642.123343 -56.115403 
L 640.474305 -54.07904 
L 639.044809 -52.042676 
L 637.826246 -50.006313 
z
" id="m720da6b97a" style="stroke:#373737;stroke-width:0.8;"/>
    </defs>
    <g clip-path="url(#p6ce633fe58)">
     <use style="fill:#7c78ab;stroke:#373737;stroke-width:0.8;" x="0" xlink:href="#m720da6b97a" y="280.648187"/>
    </g>
   </g>
   <g id="matplotlib.axis_1">
    <g id="xtick_1">
     <g id="line2d_1">
      <defs>
       <path d="M 0 0 
L 0 -3.5 
" id="m324b6450a7" style="stroke:#000000;stroke-width:0.8;"/>
      </defs>
      <g>
       <use style="stroke:#000000;stroke-width:0.8;" x="186.624063" xlink:href="#m324b6450a7" y="240.721875"/>
      </g>
     </g>
     <g id="line2d_2">
      <defs>
       <path d="M 0 0 
L 0 3.5 
" id="mdf207b5e1d" style="stroke:#000000;stroke-width:0.8;"/>
      </defs>
      <g>
       <use style="stroke:#000000;stroke-width:0.8;" x="186.624063" xlink:href="#mdf207b5e1d" y="18.961875"/>
      </g>
     </g>
     <g id="text_1">
      <!-- Treated substrate -->
      <g transform="translate(125.207813 254.859687)scale(0.14 -0.14)">
       <defs>
        <path d="M -0.296875 72.90625 
L 61.375 72.90625 
L 61.375 64.59375 
L 35.5 64.59375 
L 35.5 0 
L 25.59375 0 
L 25.59375 64.59375 
L -0.296875 64.59375 
z
" id="DejaVuSans-84"/>
        <path d="M 41.109375 46.296875 
Q 39.59375 47.171875 37.8125 47.578125 
Q 36.03125 48 33.890625 48 
Q 26.265625 48 22.1875 43.046875 
Q 18.109375 38.09375 18.109375 28.8125 
L 18.109375 0 
L 9.078125 0 
L 9.078125 54.6875 
L 18.109375 54.6875 
L 18.109375 46.1875 
Q 20.953125 51.171875 25.484375 53.578125 
Q 30.03125 56 36.53125 56 
Q 37.453125 56 38.578125 55.875 
Q 39.703125 55.765625 41.0625 55.515625 
z
" id="DejaVuSans-114"/>
        <path d="M 56.203125 29.59375 
L 56.203125 25.203125 
L 14.890625 25.203125 
Q 15.484375 15.921875 20.484375 11.0625 
Q 25.484375 6.203125 34.421875 6.203125 
Q 39.59375 6.203125 44.453125 7.46875 
Q 49.3125 8.734375 54.109375 11.28125 
L 54.109375 2.78125 
Q 49.265625 0.734375 44.1875 -0.34375 
Q 39.109375 -1.421875 33.890625 -1.421875 
Q 20.796875 -1.421875 13.15625 6.1875 
Q 5.515625 13.8125 5.515625 26.8125 
Q 5.515625 40.234375 12.765625 48.109375 
Q 20.015625 56 32.328125 56 
Q 43.359375 56 49.78125 48.890625 
Q 56.203125 41.796875 56.203125 29.59375 
z
M 47.21875 32.234375 
Q 47.125 39.59375 43.09375 43.984375 
Q 39.0625 48.390625 32.421875 48.390625 
Q 24.90625 48.390625 20.390625 44.140625 
Q 15.875 39.890625 15.1875 32.171875 
z
" id="DejaVuSans-101"/>
        <path d="M 34.28125 27.484375 
Q 23.390625 27.484375 19.1875 25 
Q 14.984375 22.515625 14.984375 16.5 
Q 14.984375 11.71875 18.140625 8.90625 
Q 21.296875 6.109375 26.703125 6.109375 
Q 34.1875 6.109375 38.703125 11.40625 
Q 43.21875 16.703125 43.21875 25.484375 
L 43.21875 27.484375 
z
M 52.203125 31.203125 
L 52.203125 0 
L 43.21875 0 
L 43.21875 8.296875 
Q 40.140625 3.328125 35.546875 0.953125 
Q 30.953125 -1.421875 24.3125 -1.421875 
Q 15.921875 -1.421875 10.953125 3.296875 
Q 6 8.015625 6 15.921875 
Q 6 25.140625 12.171875 29.828125 
Q 18.359375 34.515625 30.609375 34.515625 
L 43.21875 34.515625 
L 43.21875 35.40625 
Q 43.21875 41.609375 39.140625 45 
Q 35.0625 48.390625 27.6875 48.390625 
Q 23 48.390625 18.546875 47.265625 
Q 14.109375 46.140625 10.015625 43.890625 
L 10.015625 52.203125 
Q 14.9375 54.109375 19.578125 55.046875 
Q 24.21875 56 28.609375 56 
Q 40.484375 56 46.34375 49.84375 
Q 52.203125 43.703125 52.203125 31.203125 
z
" id="DejaVuSans-97"/>
        <path d="M 18.3125 70.21875 
L 18.3125 54.6875 
L 36.8125 54.6875 
L 36.8125 47.703125 
L 18.3125 47.703125 
L 18.3125 18.015625 
Q 18.3125 11.328125 20.140625 9.421875 
Q 21.96875 7.515625 27.59375 7.515625 
L 36.8125 7.515625 
L 36.8125 0 
L 27.59375 0 
Q 17.1875 0 13.234375 3.875 
Q 9.28125 7.765625 9.28125 18.015625 
L 9.28125 47.703125 
L 2.6875 47.703125 
L 2.6875 54.6875 
L 9.28125 54.6875 
L 9.28125 70.21875 
z
" id="DejaVuSans-116"/>
        <path d="M 45.40625 46.390625 
L 45.40625 75.984375 
L 54.390625 75.984375 
L 54.390625 0 
L 45.40625 0 
L 45.40625 8.203125 
Q 42.578125 3.328125 38.25 0.953125 
Q 33.9375 -1.421875 27.875 -1.421875 
Q 17.96875 -1.421875 11.734375 6.484375 
Q 5.515625 14.40625 5.515625 27.296875 
Q 5.515625 40.1875 11.734375 48.09375 
Q 17.96875 56 27.875 56 
Q 33.9375 56 38.25 53.625 
Q 42.578125 51.265625 45.40625 46.390625 
z
M 14.796875 27.296875 
Q 14.796875 17.390625 18.875 11.75 
Q 22.953125 6.109375 30.078125 6.109375 
Q 37.203125 6.109375 41.296875 11.75 
Q 45.40625 17.390625 45.40625 27.296875 
Q 45.40625 37.203125 41.296875 42.84375 
Q 37.203125 48.484375 30.078125 48.484375 
Q 22.953125 48.484375 18.875 42.84375 
Q 14.796875 37.203125 14.796875 27.296875 
z
" id="DejaVuSans-100"/>
        <path id="DejaVuSans-32"/>
        <path d="M 44.28125 53.078125 
L 44.28125 44.578125 
Q 40.484375 46.53125 36.375 47.5 
Q 32.28125 48.484375 27.875 48.484375 
Q 21.1875 48.484375 17.84375 46.4375 
Q 14.5 44.390625 14.5 40.28125 
Q 14.5 37.15625 16.890625 35.375 
Q 19.28125 33.59375 26.515625 31.984375 
L 29.59375 31.296875 
Q 39.15625 29.25 43.1875 25.515625 
Q 47.21875 21.78125 47.21875 15.09375 
Q 47.21875 7.46875 41.1875 3.015625 
Q 35.15625 -1.421875 24.609375 -1.421875 
Q 20.21875 -1.421875 15.453125 -0.5625 
Q 10.6875 0.296875 5.421875 2 
L 5.421875 11.28125 
Q 10.40625 8.6875 15.234375 7.390625 
Q 20.0625 6.109375 24.8125 6.109375 
Q 31.15625 6.109375 34.5625 8.28125 
Q 37.984375 10.453125 37.984375 14.40625 
Q 37.984375 18.0625 35.515625 20.015625 
Q 33.0625 21.96875 24.703125 23.78125 
L 21.578125 24.515625 
Q 13.234375 26.265625 9.515625 29.90625 
Q 5.8125 33.546875 5.8125 39.890625 
Q 5.8125 47.609375 11.28125 51.796875 
Q 16.75 56 26.8125 56 
Q 31.78125 56 36.171875 55.265625 
Q 40.578125 54.546875 44.28125 53.078125 
z
" id="DejaVuSans-115"/>
        <path d="M 8.5 21.578125 
L 8.5 54.6875 
L 17.484375 54.6875 
L 17.484375 21.921875 
Q 17.484375 14.15625 20.5 10.265625 
Q 23.53125 6.390625 29.59375 6.390625 
Q 36.859375 6.390625 41.078125 11.03125 
Q 45.3125 15.671875 45.3125 23.6875 
L 45.3125 54.6875 
L 54.296875 54.6875 
L 54.296875 0 
L 45.3125 0 
L 45.3125 8.40625 
Q 42.046875 3.421875 37.71875 1 
Q 33.40625 -1.421875 27.6875 -1.421875 
Q 18.265625 -1.421875 13.375 4.4375 
Q 8.5 10.296875 8.5 21.578125 
z
M 31.109375 56 
z
" id="DejaVuSans-117"/>
        <path d="M 48.6875 27.296875 
Q 48.6875 37.203125 44.609375 42.84375 
Q 40.53125 48.484375 33.40625 48.484375 
Q 26.265625 48.484375 22.1875 42.84375 
Q 18.109375 37.203125 18.109375 27.296875 
Q 18.109375 17.390625 22.1875 11.75 
Q 26.265625 6.109375 33.40625 6.109375 
Q 40.53125 6.109375 44.609375 11.75 
Q 48.6875 17.390625 48.6875 27.296875 
z
M 18.109375 46.390625 
Q 20.953125 51.265625 25.265625 53.625 
Q 29.59375 56 35.59375 56 
Q 45.5625 56 51.78125 48.09375 
Q 58.015625 40.1875 58.015625 27.296875 
Q 58.015625 14.40625 51.78125 6.484375 
Q 45.5625 -1.421875 35.59375 -1.421875 
Q 29.59375 -1.421875 25.265625 0.953125 
Q 20.953125 3.328125 18.109375 8.203125 
L 18.109375 0 
L 9.078125 0 
L 9.078125 75.984375 
L 18.109375 75.984375 
z
" id="DejaVuSans-98"/>
       </defs>
       <use xlink:href="#DejaVuSans-84"/>
       <use x="46.333984" xlink:href="#DejaVuSans-114"/>
       <use x="85.197266" xlink:href="#DejaVuSans-101"/>
       <use x="146.720703" xlink:href="#DejaVuSans-97"/>
       <use x="208" xlink:href="#DejaVuSans-116"/>
       <use x="247.208984" xlink:href="#DejaVuSans-101"/>
       <use x="308.732422" xlink:href="#DejaVuSans-100"/>
       <use x="372.208984" xlink:href="#DejaVuSans-32"/>
       <use x="403.996094" xlink:href="#DejaVuSans-115"/>
       <use x="456.095703" xlink:href="#DejaVuSans-117"/>
       <use x="519.474609" xlink:href="#DejaVuSans-98"/>
       <use x="582.951172" xlink:href="#DejaVuSans-115"/>
       <use x="635.050781" xlink:href="#DejaVuSans-116"/>
       <use x="674.259766" xlink:href="#DejaVuSans-114"/>
       <use x="715.373047" xlink:href="#DejaVuSans-97"/>
       <use x="776.652344" xlink:href="#DejaVuSans-116"/>
       <use x="815.861328" xlink:href="#DejaVuSans-101"/>
      </g>
      <!-- (step width=0.43±0.04μm) -->
      <g transform="translate(90.325937 270.536625)scale(0.14 -0.14)">
       <defs>
        <path d="M 31 75.875 
Q 24.46875 64.65625 21.28125 53.65625 
Q 18.109375 42.671875 18.109375 31.390625 
Q 18.109375 20.125 21.3125 9.0625 
Q 24.515625 -2 31 -13.1875 
L 23.1875 -13.1875 
Q 15.875 -1.703125 12.234375 9.375 
Q 8.59375 20.453125 8.59375 31.390625 
Q 8.59375 42.28125 12.203125 53.3125 
Q 15.828125 64.359375 23.1875 75.875 
z
" id="DejaVuSans-40"/>
        <path d="M 18.109375 8.203125 
L 18.109375 -20.796875 
L 9.078125 -20.796875 
L 9.078125 54.6875 
L 18.109375 54.6875 
L 18.109375 46.390625 
Q 20.953125 51.265625 25.265625 53.625 
Q 29.59375 56 35.59375 56 
Q 45.5625 56 51.78125 48.09375 
Q 58.015625 40.1875 58.015625 27.296875 
Q 58.015625 14.40625 51.78125 6.484375 
Q 45.5625 -1.421875 35.59375 -1.421875 
Q 29.59375 -1.421875 25.265625 0.953125 
Q 20.953125 3.328125 18.109375 8.203125 
z
M 48.6875 27.296875 
Q 48.6875 37.203125 44.609375 42.84375 
Q 40.53125 48.484375 33.40625 48.484375 
Q 26.265625 48.484375 22.1875 42.84375 
Q 18.109375 37.203125 18.109375 27.296875 
Q 18.109375 17.390625 22.1875 11.75 
Q 26.265625 6.109375 33.40625 6.109375 
Q 40.53125 6.109375 44.609375 11.75 
Q 48.6875 17.390625 48.6875 27.296875 
z
" id="DejaVuSans-112"/>
        <path d="M 4.203125 54.6875 
L 13.1875 54.6875 
L 24.421875 12.015625 
L 35.59375 54.6875 
L 46.1875 54.6875 
L 57.421875 12.015625 
L 68.609375 54.6875 
L 77.59375 54.6875 
L 63.28125 0 
L 52.6875 0 
L 40.921875 44.828125 
L 29.109375 0 
L 18.5 0 
z
" id="DejaVuSans-119"/>
        <path d="M 9.421875 54.6875 
L 18.40625 54.6875 
L 18.40625 0 
L 9.421875 0 
z
M 9.421875 75.984375 
L 18.40625 75.984375 
L 18.40625 64.59375 
L 9.421875 64.59375 
z
" id="DejaVuSans-105"/>
        <path d="M 54.890625 33.015625 
L 54.890625 0 
L 45.90625 0 
L 45.90625 32.71875 
Q 45.90625 40.484375 42.875 44.328125 
Q 39.84375 48.1875 33.796875 48.1875 
Q 26.515625 48.1875 22.3125 43.546875 
Q 18.109375 38.921875 18.109375 30.90625 
L 18.109375 0 
L 9.078125 0 
L 9.078125 75.984375 
L 18.109375 75.984375 
L 18.109375 46.1875 
Q 21.34375 51.125 25.703125 53.5625 
Q 30.078125 56 35.796875 56 
Q 45.21875 56 50.046875 50.171875 
Q 54.890625 44.34375 54.890625 33.015625 
z
" id="DejaVuSans-104"/>
        <path d="M 10.59375 45.40625 
L 73.1875 45.40625 
L 73.1875 37.203125 
L 10.59375 37.203125 
z
M 10.59375 25.484375 
L 73.1875 25.484375 
L 73.1875 17.1875 
L 10.59375 17.1875 
z
" id="DejaVuSans-61"/>
        <path d="M 31.78125 66.40625 
Q 24.171875 66.40625 20.328125 58.90625 
Q 16.5 51.421875 16.5 36.375 
Q 16.5 21.390625 20.328125 13.890625 
Q 24.171875 6.390625 31.78125 6.390625 
Q 39.453125 6.390625 43.28125 13.890625 
Q 47.125 21.390625 47.125 36.375 
Q 47.125 51.421875 43.28125 58.90625 
Q 39.453125 66.40625 31.78125 66.40625 
z
M 31.78125 74.21875 
Q 44.046875 74.21875 50.515625 64.515625 
Q 56.984375 54.828125 56.984375 36.375 
Q 56.984375 17.96875 50.515625 8.265625 
Q 44.046875 -1.421875 31.78125 -1.421875 
Q 19.53125 -1.421875 13.0625 8.265625 
Q 6.59375 17.96875 6.59375 36.375 
Q 6.59375 54.828125 13.0625 64.515625 
Q 19.53125 74.21875 31.78125 74.21875 
z
" id="DejaVuSans-48"/>
        <path d="M 10.6875 12.40625 
L 21 12.40625 
L 21 0 
L 10.6875 0 
z
" id="DejaVuSans-46"/>
        <path d="M 37.796875 64.3125 
L 12.890625 25.390625 
L 37.796875 25.390625 
z
M 35.203125 72.90625 
L 47.609375 72.90625 
L 47.609375 25.390625 
L 58.015625 25.390625 
L 58.015625 17.1875 
L 47.609375 17.1875 
L 47.609375 0 
L 37.796875 0 
L 37.796875 17.1875 
L 4.890625 17.1875 
L 4.890625 26.703125 
z
" id="DejaVuSans-52"/>
        <path d="M 40.578125 39.3125 
Q 47.65625 37.796875 51.625 33 
Q 55.609375 28.21875 55.609375 21.1875 
Q 55.609375 10.40625 48.1875 4.484375 
Q 40.765625 -1.421875 27.09375 -1.421875 
Q 22.515625 -1.421875 17.65625 -0.515625 
Q 12.796875 0.390625 7.625 2.203125 
L 7.625 11.71875 
Q 11.71875 9.328125 16.59375 8.109375 
Q 21.484375 6.890625 26.8125 6.890625 
Q 36.078125 6.890625 40.9375 10.546875 
Q 45.796875 14.203125 45.796875 21.1875 
Q 45.796875 27.640625 41.28125 31.265625 
Q 36.765625 34.90625 28.71875 34.90625 
L 20.21875 34.90625 
L 20.21875 43.015625 
L 29.109375 43.015625 
Q 36.375 43.015625 40.234375 45.921875 
Q 44.09375 48.828125 44.09375 54.296875 
Q 44.09375 59.90625 40.109375 62.90625 
Q 36.140625 65.921875 28.71875 65.921875 
Q 24.65625 65.921875 20.015625 65.03125 
Q 15.375 64.15625 9.8125 62.3125 
L 9.8125 71.09375 
Q 15.4375 72.65625 20.34375 73.4375 
Q 25.25 74.21875 29.59375 74.21875 
Q 40.828125 74.21875 47.359375 69.109375 
Q 53.90625 64.015625 53.90625 55.328125 
Q 53.90625 49.265625 50.4375 45.09375 
Q 46.96875 40.921875 40.578125 39.3125 
z
" id="DejaVuSans-51"/>
        <path d="M 46 62.703125 
L 46 43.796875 
L 73.1875 43.796875 
L 73.1875 35.5 
L 46 35.5 
L 46 16.609375 
L 37.796875 16.609375 
L 37.796875 35.5 
L 10.59375 35.5 
L 10.59375 43.796875 
L 37.796875 43.796875 
L 37.796875 62.703125 
z
M 10.59375 8.296875 
L 73.1875 8.296875 
L 73.1875 0 
L 10.59375 0 
z
" id="DejaVuSans-177"/>
        <path d="M 8.5 -20.796875 
L 8.5 54.6875 
L 17.484375 54.6875 
L 17.484375 20.703125 
Q 17.484375 13.625 20.84375 10 
Q 24.21875 6.390625 30.8125 6.390625 
Q 38.03125 6.390625 41.671875 10.484375 
Q 45.3125 14.59375 45.3125 22.796875 
L 45.3125 54.6875 
L 54.296875 54.6875 
L 54.296875 12.59375 
Q 54.296875 9.671875 55.140625 8.28125 
Q 56 6.890625 57.8125 6.890625 
Q 58.25 6.890625 59.03125 7.15625 
Q 59.8125 7.421875 61.1875 8.015625 
L 61.1875 0.78125 
Q 59.1875 -0.34375 57.390625 -0.875 
Q 55.609375 -1.421875 53.90625 -1.421875 
Q 50.53125 -1.421875 48.53125 0.484375 
Q 46.53125 2.390625 45.796875 6.296875 
Q 43.359375 2.4375 39.8125 0.5 
Q 36.28125 -1.421875 31.5 -1.421875 
Q 26.515625 -1.421875 23.015625 0.484375 
Q 19.53125 2.390625 17.484375 6.203125 
L 17.484375 -20.796875 
z
" id="DejaVuSans-956"/>
        <path d="M 52 44.1875 
Q 55.375 50.25 60.0625 53.125 
Q 64.75 56 71.09375 56 
Q 79.640625 56 84.28125 50.015625 
Q 88.921875 44.046875 88.921875 33.015625 
L 88.921875 0 
L 79.890625 0 
L 79.890625 32.71875 
Q 79.890625 40.578125 77.09375 44.375 
Q 74.3125 48.1875 68.609375 48.1875 
Q 61.625 48.1875 57.5625 43.546875 
Q 53.515625 38.921875 53.515625 30.90625 
L 53.515625 0 
L 44.484375 0 
L 44.484375 32.71875 
Q 44.484375 40.625 41.703125 44.40625 
Q 38.921875 48.1875 33.109375 48.1875 
Q 26.21875 48.1875 22.15625 43.53125 
Q 18.109375 38.875 18.109375 30.90625 
L 18.109375 0 
L 9.078125 0 
L 9.078125 54.6875 
L 18.109375 54.6875 
L 18.109375 46.1875 
Q 21.1875 51.21875 25.484375 53.609375 
Q 29.78125 56 35.6875 56 
Q 41.65625 56 45.828125 52.96875 
Q 50 49.953125 52 44.1875 
z
" id="DejaVuSans-109"/>
        <path d="M 8.015625 75.875 
L 15.828125 75.875 
Q 23.140625 64.359375 26.78125 53.3125 
Q 30.421875 42.28125 30.421875 31.390625 
Q 30.421875 20.453125 26.78125 9.375 
Q 23.140625 -1.703125 15.828125 -13.1875 
L 8.015625 -13.1875 
Q 14.5 -2 17.703125 9.0625 
Q 20.90625 20.125 20.90625 31.390625 
Q 20.90625 42.671875 17.703125 53.65625 
Q 14.5 64.65625 8.015625 75.875 
z
" id="DejaVuSans-41"/>
       </defs>
       <use xlink:href="#DejaVuSans-40"/>
       <use x="39.013672" xlink:href="#DejaVuSans-115"/>
       <use x="91.113281" xlink:href="#DejaVuSans-116"/>
       <use x="130.322266" xlink:href="#DejaVuSans-101"/>
       <use x="191.845703" xlink:href="#DejaVuSans-112"/>
       <use x="255.322266" xlink:href="#DejaVuSans-32"/>
       <use x="287.109375" xlink:href="#DejaVuSans-119"/>
       <use x="368.896484" xlink:href="#DejaVuSans-105"/>
       <use x="396.679688" xlink:href="#DejaVuSans-100"/>
       <use x="460.15625" xlink:href="#DejaVuSans-116"/>
       <use x="499.365234" xlink:href="#DejaVuSans-104"/>
       <use x="562.744141" xlink:href="#DejaVuSans-61"/>
       <use x="646.533203" xlink:href="#DejaVuSans-48"/>
       <use x="710.15625" xlink:href="#DejaVuSans-46"/>
       <use x="741.943359" xlink:href="#DejaVuSans-52"/>
       <use x="805.566406" xlink:href="#DejaVuSans-51"/>
       <use x="869.189453" xlink:href="#DejaVuSans-177"/>
       <use x="952.978516" xlink:href="#DejaVuSans-48"/>
       <use x="1016.601562" xlink:href="#DejaVuSans-46"/>
       <use x="1048.388672" xlink:href="#DejaVuSans-48"/>
       <use x="1112.011719" xlink:href="#DejaVuSans-52"/>
       <use x="1175.634766" xlink:href="#DejaVuSans-956"/>
       <use x="1239.257812" xlink:href="#DejaVuSans-109"/>
       <use x="1336.669922" xlink:href="#DejaVuSans-41"/>
      </g>
     </g>
    </g>
    <g id="xtick_2">
     <g id="line2d_3">
      <g>
       <use style="stroke:#000000;stroke-width:0.8;" x="409.824062" xlink:href="#m324b6450a7" y="240.721875"/>
      </g>
     </g>
     <g id="line2d_4">
      <g>
       <use style="stroke:#000000;stroke-width:0.8;" x="409.824062" xlink:href="#mdf207b5e1d" y="18.961875"/>
      </g>
     </g>
     <g id="text_2">
      <!-- Treated substrate -->
      <g transform="translate(348.407812 254.859687)scale(0.14 -0.14)">
       <use xlink:href="#DejaVuSans-84"/>
       <use x="46.333984" xlink:href="#DejaVuSans-114"/>
       <use x="85.197266" xlink:href="#DejaVuSans-101"/>
       <use x="146.720703" xlink:href="#DejaVuSans-97"/>
       <use x="208" xlink:href="#DejaVuSans-116"/>
       <use x="247.208984" xlink:href="#DejaVuSans-101"/>
       <use x="308.732422" xlink:href="#DejaVuSans-100"/>
       <use x="372.208984" xlink:href="#DejaVuSans-32"/>
       <use x="403.996094" xlink:href="#DejaVuSans-115"/>
       <use x="456.095703" xlink:href="#DejaVuSans-117"/>
       <use x="519.474609" xlink:href="#DejaVuSans-98"/>
       <use x="582.951172" xlink:href="#DejaVuSans-115"/>
       <use x="635.050781" xlink:href="#DejaVuSans-116"/>
       <use x="674.259766" xlink:href="#DejaVuSans-114"/>
       <use x="715.373047" xlink:href="#DejaVuSans-97"/>
       <use x="776.652344" xlink:href="#DejaVuSans-116"/>
       <use x="815.861328" xlink:href="#DejaVuSans-101"/>
      </g>
      <!-- (step width=0.11±0.01μm) -->
      <g transform="translate(313.525937 270.536625)scale(0.14 -0.14)">
       <defs>
        <path d="M 12.40625 8.296875 
L 28.515625 8.296875 
L 28.515625 63.921875 
L 10.984375 60.40625 
L 10.984375 69.390625 
L 28.421875 72.90625 
L 38.28125 72.90625 
L 38.28125 8.296875 
L 54.390625 8.296875 
L 54.390625 0 
L 12.40625 0 
z
" id="DejaVuSans-49"/>
       </defs>
       <use xlink:href="#DejaVuSans-40"/>
       <use x="39.013672" xlink:href="#DejaVuSans-115"/>
       <use x="91.113281" xlink:href="#DejaVuSans-116"/>
       <use x="130.322266" xlink:href="#DejaVuSans-101"/>
       <use x="191.845703" xlink:href="#DejaVuSans-112"/>
       <use x="255.322266" xlink:href="#DejaVuSans-32"/>
       <use x="287.109375" xlink:href="#DejaVuSans-119"/>
       <use x="368.896484" xlink:href="#DejaVuSans-105"/>
       <use x="396.679688" xlink:href="#DejaVuSans-100"/>
       <use x="460.15625" xlink:href="#DejaVuSans-116"/>
       <use x="499.365234" xlink:href="#DejaVuSans-104"/>
       <use x="562.744141" xlink:href="#DejaVuSans-61"/>
       <use x="646.533203" xlink:href="#DejaVuSans-48"/>
       <use x="710.15625" xlink:href="#DejaVuSans-46"/>
       <use x="741.943359" xlink:href="#DejaVuSans-49"/>
       <use x="805.566406" xlink:href="#DejaVuSans-49"/>
       <use x="869.189453" xlink:href="#DejaVuSans-177"/>
       <use x="952.978516" xlink:href="#DejaVuSans-48"/>
       <use x="1016.601562" xlink:href="#DejaVuSans-46"/>
       <use x="1048.388672" xlink:href="#DejaVuSans-48"/>
       <use x="1112.011719" xlink:href="#DejaVuSans-49"/>
       <use x="1175.634766" xlink:href="#DejaVuSans-956"/>
       <use x="1239.257812" xlink:href="#DejaVuSans-109"/>
       <use x="1336.669922" xlink:href="#DejaVuSans-41"/>
      </g>
     </g>
    </g>
    <g id="xtick_3">
     <g id="line2d_5">
      <g>
       <use style="stroke:#000000;stroke-width:0.8;" x="633.024063" xlink:href="#m324b6450a7" y="240.721875"/>
      </g>
     </g>
     <g id="line2d_6">
      <g>
       <use style="stroke:#000000;stroke-width:0.8;" x="633.024063" xlink:href="#mdf207b5e1d" y="18.961875"/>
      </g>
     </g>
     <g id="text_3">
      <!-- Untreated substrate -->
      <g transform="translate(562.547188 254.859687)scale(0.14 -0.14)">
       <defs>
        <path d="M 8.6875 72.90625 
L 18.609375 72.90625 
L 18.609375 28.609375 
Q 18.609375 16.890625 22.84375 11.734375 
Q 27.09375 6.59375 36.625 6.59375 
Q 46.09375 6.59375 50.34375 11.734375 
Q 54.59375 16.890625 54.59375 28.609375 
L 54.59375 72.90625 
L 64.5 72.90625 
L 64.5 27.390625 
Q 64.5 13.140625 57.4375 5.859375 
Q 50.390625 -1.421875 36.625 -1.421875 
Q 22.796875 -1.421875 15.734375 5.859375 
Q 8.6875 13.140625 8.6875 27.390625 
z
" id="DejaVuSans-85"/>
        <path d="M 54.890625 33.015625 
L 54.890625 0 
L 45.90625 0 
L 45.90625 32.71875 
Q 45.90625 40.484375 42.875 44.328125 
Q 39.84375 48.1875 33.796875 48.1875 
Q 26.515625 48.1875 22.3125 43.546875 
Q 18.109375 38.921875 18.109375 30.90625 
L 18.109375 0 
L 9.078125 0 
L 9.078125 54.6875 
L 18.109375 54.6875 
L 18.109375 46.1875 
Q 21.34375 51.125 25.703125 53.5625 
Q 30.078125 56 35.796875 56 
Q 45.21875 56 50.046875 50.171875 
Q 54.890625 44.34375 54.890625 33.015625 
z
" id="DejaVuSans-110"/>
       </defs>
       <use xlink:href="#DejaVuSans-85"/>
       <use x="73.193359" xlink:href="#DejaVuSans-110"/>
       <use x="136.572266" xlink:href="#DejaVuSans-116"/>
       <use x="175.78125" xlink:href="#DejaVuSans-114"/>
       <use x="214.644531" xlink:href="#DejaVuSans-101"/>
       <use x="276.167969" xlink:href="#DejaVuSans-97"/>
       <use x="337.447266" xlink:href="#DejaVuSans-116"/>
       <use x="376.65625" xlink:href="#DejaVuSans-101"/>
       <use x="438.179688" xlink:href="#DejaVuSans-100"/>
       <use x="501.65625" xlink:href="#DejaVuSans-32"/>
       <use x="533.443359" xlink:href="#DejaVuSans-115"/>
       <use x="585.542969" xlink:href="#DejaVuSans-117"/>
       <use x="648.921875" xlink:href="#DejaVuSans-98"/>
       <use x="712.398438" xlink:href="#DejaVuSans-115"/>
       <use x="764.498047" xlink:href="#DejaVuSans-116"/>
       <use x="803.707031" xlink:href="#DejaVuSans-114"/>
       <use x="844.820312" xlink:href="#DejaVuSans-97"/>
       <use x="906.099609" xlink:href="#DejaVuSans-116"/>
       <use x="945.308594" xlink:href="#DejaVuSans-101"/>
      </g>
      <!-- (step width=0.28±0.03μm) -->
      <g transform="translate(536.725937 270.536625)scale(0.14 -0.14)">
       <defs>
        <path d="M 19.1875 8.296875 
L 53.609375 8.296875 
L 53.609375 0 
L 7.328125 0 
L 7.328125 8.296875 
Q 12.9375 14.109375 22.625 23.890625 
Q 32.328125 33.6875 34.8125 36.53125 
Q 39.546875 41.84375 41.421875 45.53125 
Q 43.3125 49.21875 43.3125 52.78125 
Q 43.3125 58.59375 39.234375 62.25 
Q 35.15625 65.921875 28.609375 65.921875 
Q 23.96875 65.921875 18.8125 64.3125 
Q 13.671875 62.703125 7.8125 59.421875 
L 7.8125 69.390625 
Q 13.765625 71.78125 18.9375 73 
Q 24.125 74.21875 28.421875 74.21875 
Q 39.75 74.21875 46.484375 68.546875 
Q 53.21875 62.890625 53.21875 53.421875 
Q 53.21875 48.921875 51.53125 44.890625 
Q 49.859375 40.875 45.40625 35.40625 
Q 44.1875 33.984375 37.640625 27.21875 
Q 31.109375 20.453125 19.1875 8.296875 
z
" id="DejaVuSans-50"/>
        <path d="M 31.78125 34.625 
Q 24.75 34.625 20.71875 30.859375 
Q 16.703125 27.09375 16.703125 20.515625 
Q 16.703125 13.921875 20.71875 10.15625 
Q 24.75 6.390625 31.78125 6.390625 
Q 38.8125 6.390625 42.859375 10.171875 
Q 46.921875 13.96875 46.921875 20.515625 
Q 46.921875 27.09375 42.890625 30.859375 
Q 38.875 34.625 31.78125 34.625 
z
M 21.921875 38.8125 
Q 15.578125 40.375 12.03125 44.71875 
Q 8.5 49.078125 8.5 55.328125 
Q 8.5 64.0625 14.71875 69.140625 
Q 20.953125 74.21875 31.78125 74.21875 
Q 42.671875 74.21875 48.875 69.140625 
Q 55.078125 64.0625 55.078125 55.328125 
Q 55.078125 49.078125 51.53125 44.71875 
Q 48 40.375 41.703125 38.8125 
Q 48.828125 37.15625 52.796875 32.3125 
Q 56.78125 27.484375 56.78125 20.515625 
Q 56.78125 9.90625 50.3125 4.234375 
Q 43.84375 -1.421875 31.78125 -1.421875 
Q 19.734375 -1.421875 13.25 4.234375 
Q 6.78125 9.90625 6.78125 20.515625 
Q 6.78125 27.484375 10.78125 32.3125 
Q 14.796875 37.15625 21.921875 38.8125 
z
M 18.3125 54.390625 
Q 18.3125 48.734375 21.84375 45.5625 
Q 25.390625 42.390625 31.78125 42.390625 
Q 38.140625 42.390625 41.71875 45.5625 
Q 45.3125 48.734375 45.3125 54.390625 
Q 45.3125 60.0625 41.71875 63.234375 
Q 38.140625 66.40625 31.78125 66.40625 
Q 25.390625 66.40625 21.84375 63.234375 
Q 18.3125 60.0625 18.3125 54.390625 
z
" id="DejaVuSans-56"/>
       </defs>
       <use xlink:href="#DejaVuSans-40"/>
       <use x="39.013672" xlink:href="#DejaVuSans-115"/>
       <use x="91.113281" xlink:href="#DejaVuSans-116"/>
       <use x="130.322266" xlink:href="#DejaVuSans-101"/>
       <use x="191.845703" xlink:href="#DejaVuSans-112"/>
       <use x="255.322266" xlink:href="#DejaVuSans-32"/>
       <use x="287.109375" xlink:href="#DejaVuSans-119"/>
       <use x="368.896484" xlink:href="#DejaVuSans-105"/>
       <use x="396.679688" xlink:href="#DejaVuSans-100"/>
       <use x="460.15625" xlink:href="#DejaVuSans-116"/>
       <use x="499.365234" xlink:href="#DejaVuSans-104"/>
       <use x="562.744141" xlink:href="#DejaVuSans-61"/>
       <use x="646.533203" xlink:href="#DejaVuSans-48"/>
       <use x="710.15625" xlink:href="#DejaVuSans-46"/>
       <use x="741.943359" xlink:href="#DejaVuSans-50"/>
       <use x="805.566406" xlink:href="#DejaVuSans-56"/>
       <use x="869.189453" xlink:href="#DejaVuSans-177"/>
       <use x="952.978516" xlink:href="#DejaVuSans-48"/>
       <use x="1016.601562" xlink:href="#DejaVuSans-46"/>
       <use x="1048.388672" xlink:href="#DejaVuSans-48"/>
       <use x="1112.011719" xlink:href="#DejaVuSans-51"/>
       <use x="1175.634766" xlink:href="#DejaVuSans-956"/>
       <use x="1239.257812" xlink:href="#DejaVuSans-109"/>
       <use x="1336.669922" xlink:href="#DejaVuSans-41"/>
      </g>
     </g>
    </g>
   </g>
   <g id="matplotlib.axis_2">
    <g id="ytick_1">
     <g id="line2d_7">
      <defs>
       <path d="M 0 0 
L 3.5 0 
" id="m7dd64a647e" style="stroke:#000000;stroke-width:0.8;"/>
      </defs>
      <g>
       <use style="stroke:#000000;stroke-width:0.8;" x="75.024063" xlink:href="#m7dd64a647e" y="231.161903"/>
      </g>
     </g>
     <g id="line2d_8">
      <defs>
       <path d="M 0 0 
L -3.5 0 
" id="m669c6cfafe" style="stroke:#000000;stroke-width:0.8;"/>
      </defs>
      <g>
       <use style="stroke:#000000;stroke-width:0.8;" x="744.624063" xlink:href="#m669c6cfafe" y="231.161903"/>
      </g>
     </g>
     <g id="text_4">
      <!-- −0.25 -->
      <g transform="translate(28.620625 236.480809)scale(0.14 -0.14)">
       <defs>
        <path d="M 10.59375 35.5 
L 73.1875 35.5 
L 73.1875 27.203125 
L 10.59375 27.203125 
z
" id="DejaVuSans-8722"/>
        <path d="M 10.796875 72.90625 
L 49.515625 72.90625 
L 49.515625 64.59375 
L 19.828125 64.59375 
L 19.828125 46.734375 
Q 21.96875 47.46875 24.109375 47.828125 
Q 26.265625 48.1875 28.421875 48.1875 
Q 40.625 48.1875 47.75 41.5 
Q 54.890625 34.8125 54.890625 23.390625 
Q 54.890625 11.625 47.5625 5.09375 
Q 40.234375 -1.421875 26.90625 -1.421875 
Q 22.3125 -1.421875 17.546875 -0.640625 
Q 12.796875 0.140625 7.71875 1.703125 
L 7.71875 11.625 
Q 12.109375 9.234375 16.796875 8.0625 
Q 21.484375 6.890625 26.703125 6.890625 
Q 35.15625 6.890625 40.078125 11.328125 
Q 45.015625 15.765625 45.015625 23.390625 
Q 45.015625 31 40.078125 35.4375 
Q 35.15625 39.890625 26.703125 39.890625 
Q 22.75 39.890625 18.8125 39.015625 
Q 14.890625 38.140625 10.796875 36.28125 
z
" id="DejaVuSans-53"/>
       </defs>
       <use xlink:href="#DejaVuSans-8722"/>
       <use x="83.789062" xlink:href="#DejaVuSans-48"/>
       <use x="147.412109" xlink:href="#DejaVuSans-46"/>
       <use x="179.199219" xlink:href="#DejaVuSans-50"/>
       <use x="242.822266" xlink:href="#DejaVuSans-53"/>
      </g>
     </g>
    </g>
    <g id="ytick_2">
     <g id="line2d_9">
      <g>
       <use style="stroke:#000000;stroke-width:0.8;" x="75.024063" xlink:href="#m7dd64a647e" y="196.659408"/>
      </g>
     </g>
     <g id="line2d_10">
      <g>
       <use style="stroke:#000000;stroke-width:0.8;" x="744.624063" xlink:href="#m669c6cfafe" y="196.659408"/>
      </g>
     </g>
     <g id="text_5">
      <!-- 0.00 -->
      <g transform="translate(40.352188 201.978314)scale(0.14 -0.14)">
       <use xlink:href="#DejaVuSans-48"/>
       <use x="63.623047" xlink:href="#DejaVuSans-46"/>
       <use x="95.410156" xlink:href="#DejaVuSans-48"/>
       <use x="159.033203" xlink:href="#DejaVuSans-48"/>
      </g>
     </g>
    </g>
    <g id="ytick_3">
     <g id="line2d_11">
      <g>
       <use style="stroke:#000000;stroke-width:0.8;" x="75.024063" xlink:href="#m7dd64a647e" y="162.156912"/>
      </g>
     </g>
     <g id="line2d_12">
      <g>
       <use style="stroke:#000000;stroke-width:0.8;" x="744.624063" xlink:href="#m669c6cfafe" y="162.156912"/>
      </g>
     </g>
     <g id="text_6">
      <!-- 0.25 -->
      <g transform="translate(40.352188 167.475818)scale(0.14 -0.14)">
       <use xlink:href="#DejaVuSans-48"/>
       <use x="63.623047" xlink:href="#DejaVuSans-46"/>
       <use x="95.410156" xlink:href="#DejaVuSans-50"/>
       <use x="159.033203" xlink:href="#DejaVuSans-53"/>
      </g>
     </g>
    </g>
    <g id="ytick_4">
     <g id="line2d_13">
      <g>
       <use style="stroke:#000000;stroke-width:0.8;" x="75.024063" xlink:href="#m7dd64a647e" y="127.654417"/>
      </g>
     </g>
     <g id="line2d_14">
      <g>
       <use style="stroke:#000000;stroke-width:0.8;" x="744.624063" xlink:href="#m669c6cfafe" y="127.654417"/>
      </g>
     </g>
     <g id="text_7">
      <!-- 0.50 -->
      <g transform="translate(40.352188 132.973323)scale(0.14 -0.14)">
       <use xlink:href="#DejaVuSans-48"/>
       <use x="63.623047" xlink:href="#DejaVuSans-46"/>
       <use x="95.410156" xlink:href="#DejaVuSans-53"/>
       <use x="159.033203" xlink:href="#DejaVuSans-48"/>
      </g>
     </g>
    </g>
    <g id="ytick_5">
     <g id="line2d_15">
      <g>
       <use style="stroke:#000000;stroke-width:0.8;" x="75.024063" xlink:href="#m7dd64a647e" y="93.151921"/>
      </g>
     </g>
     <g id="line2d_16">
      <g>
       <use style="stroke:#000000;stroke-width:0.8;" x="744.624063" xlink:href="#m669c6cfafe" y="93.151921"/>
      </g>
     </g>
     <g id="text_8">
      <!-- 0.75 -->
      <g transform="translate(40.352188 98.470828)scale(0.14 -0.14)">
       <defs>
        <path d="M 8.203125 72.90625 
L 55.078125 72.90625 
L 55.078125 68.703125 
L 28.609375 0 
L 18.3125 0 
L 43.21875 64.59375 
L 8.203125 64.59375 
z
" id="DejaVuSans-55"/>
       </defs>
       <use xlink:href="#DejaVuSans-48"/>
       <use x="63.623047" xlink:href="#DejaVuSans-46"/>
       <use x="95.410156" xlink:href="#DejaVuSans-55"/>
       <use x="159.033203" xlink:href="#DejaVuSans-53"/>
      </g>
     </g>
    </g>
    <g id="ytick_6">
     <g id="line2d_17">
      <g>
       <use style="stroke:#000000;stroke-width:0.8;" x="75.024063" xlink:href="#m7dd64a647e" y="58.649426"/>
      </g>
     </g>
     <g id="line2d_18">
      <g>
       <use style="stroke:#000000;stroke-width:0.8;" x="744.624063" xlink:href="#m669c6cfafe" y="58.649426"/>
      </g>
     </g>
     <g id="text_9">
      <!-- 1.00 -->
      <g transform="translate(40.352188 63.968332)scale(0.14 -0.14)">
       <use xlink:href="#DejaVuSans-49"/>
       <use x="63.623047" xlink:href="#DejaVuSans-46"/>
       <use x="95.410156" xlink:href="#DejaVuSans-48"/>
       <use x="159.033203" xlink:href="#DejaVuSans-48"/>
      </g>
     </g>
    </g>
    <g id="ytick_7">
     <g id="line2d_19">
      <g>
       <use style="stroke:#000000;stroke-width:0.8;" x="75.024063" xlink:href="#m7dd64a647e" y="24.14693"/>
      </g>
     </g>
     <g id="line2d_20">
      <g>
       <use style="stroke:#000000;stroke-width:0.8;" x="744.624063" xlink:href="#m669c6cfafe" y="24.14693"/>
      </g>
     </g>
     <g id="text_10">
      <!-- 1.25 -->
      <g transform="translate(40.352188 29.465837)scale(0.14 -0.14)">
       <use xlink:href="#DejaVuSans-49"/>
       <use x="63.623047" xlink:href="#DejaVuSans-46"/>
       <use x="95.410156" xlink:href="#DejaVuSans-50"/>
       <use x="159.033203" xlink:href="#DejaVuSans-53"/>
      </g>
     </g>
    </g>
    <g id="text_11">
     <!-- Diffusion Time Constant (s) -->
     <g transform="translate(20.877188 252.48375)rotate(-90)scale(0.18 -0.18)">
      <defs>
       <path d="M 19.671875 64.796875 
L 19.671875 8.109375 
L 31.59375 8.109375 
Q 46.6875 8.109375 53.6875 14.9375 
Q 60.6875 21.78125 60.6875 36.53125 
Q 60.6875 51.171875 53.6875 57.984375 
Q 46.6875 64.796875 31.59375 64.796875 
z
M 9.8125 72.90625 
L 30.078125 72.90625 
Q 51.265625 72.90625 61.171875 64.09375 
Q 71.09375 55.28125 71.09375 36.53125 
Q 71.09375 17.671875 61.125 8.828125 
Q 51.171875 0 30.078125 0 
L 9.8125 0 
z
" id="DejaVuSans-68"/>
       <path d="M 37.109375 75.984375 
L 37.109375 68.5 
L 28.515625 68.5 
Q 23.6875 68.5 21.796875 66.546875 
Q 19.921875 64.59375 19.921875 59.515625 
L 19.921875 54.6875 
L 34.71875 54.6875 
L 34.71875 47.703125 
L 19.921875 47.703125 
L 19.921875 0 
L 10.890625 0 
L 10.890625 47.703125 
L 2.296875 47.703125 
L 2.296875 54.6875 
L 10.890625 54.6875 
L 10.890625 58.5 
Q 10.890625 67.625 15.140625 71.796875 
Q 19.390625 75.984375 28.609375 75.984375 
z
" id="DejaVuSans-102"/>
       <path d="M 30.609375 48.390625 
Q 23.390625 48.390625 19.1875 42.75 
Q 14.984375 37.109375 14.984375 27.296875 
Q 14.984375 17.484375 19.15625 11.84375 
Q 23.34375 6.203125 30.609375 6.203125 
Q 37.796875 6.203125 41.984375 11.859375 
Q 46.1875 17.53125 46.1875 27.296875 
Q 46.1875 37.015625 41.984375 42.703125 
Q 37.796875 48.390625 30.609375 48.390625 
z
M 30.609375 56 
Q 42.328125 56 49.015625 48.375 
Q 55.71875 40.765625 55.71875 27.296875 
Q 55.71875 13.875 49.015625 6.21875 
Q 42.328125 -1.421875 30.609375 -1.421875 
Q 18.84375 -1.421875 12.171875 6.21875 
Q 5.515625 13.875 5.515625 27.296875 
Q 5.515625 40.765625 12.171875 48.375 
Q 18.84375 56 30.609375 56 
z
" id="DejaVuSans-111"/>
       <path d="M 64.40625 67.28125 
L 64.40625 56.890625 
Q 59.421875 61.53125 53.78125 63.8125 
Q 48.140625 66.109375 41.796875 66.109375 
Q 29.296875 66.109375 22.65625 58.46875 
Q 16.015625 50.828125 16.015625 36.375 
Q 16.015625 21.96875 22.65625 14.328125 
Q 29.296875 6.6875 41.796875 6.6875 
Q 48.140625 6.6875 53.78125 8.984375 
Q 59.421875 11.28125 64.40625 15.921875 
L 64.40625 5.609375 
Q 59.234375 2.09375 53.4375 0.328125 
Q 47.65625 -1.421875 41.21875 -1.421875 
Q 24.65625 -1.421875 15.125 8.703125 
Q 5.609375 18.84375 5.609375 36.375 
Q 5.609375 53.953125 15.125 64.078125 
Q 24.65625 74.21875 41.21875 74.21875 
Q 47.75 74.21875 53.53125 72.484375 
Q 59.328125 70.75 64.40625 67.28125 
z
" id="DejaVuSans-67"/>
      </defs>
      <use xlink:href="#DejaVuSans-68"/>
      <use x="77.001953" xlink:href="#DejaVuSans-105"/>
      <use x="104.785156" xlink:href="#DejaVuSans-102"/>
      <use x="139.990234" xlink:href="#DejaVuSans-102"/>
      <use x="175.195312" xlink:href="#DejaVuSans-117"/>
      <use x="238.574219" xlink:href="#DejaVuSans-115"/>
      <use x="290.673828" xlink:href="#DejaVuSans-105"/>
      <use x="318.457031" xlink:href="#DejaVuSans-111"/>
      <use x="379.638672" xlink:href="#DejaVuSans-110"/>
      <use x="443.017578" xlink:href="#DejaVuSans-32"/>
      <use x="474.804688" xlink:href="#DejaVuSans-84"/>
      <use x="532.763672" xlink:href="#DejaVuSans-105"/>
      <use x="560.546875" xlink:href="#DejaVuSans-109"/>
      <use x="657.958984" xlink:href="#DejaVuSans-101"/>
      <use x="719.482422" xlink:href="#DejaVuSans-32"/>
      <use x="751.269531" xlink:href="#DejaVuSans-67"/>
      <use x="821.09375" xlink:href="#DejaVuSans-111"/>
      <use x="882.275391" xlink:href="#DejaVuSans-110"/>
      <use x="945.654297" xlink:href="#DejaVuSans-115"/>
      <use x="997.753906" xlink:href="#DejaVuSans-116"/>
      <use x="1036.962891" xlink:href="#DejaVuSans-97"/>
      <use x="1098.242188" xlink:href="#DejaVuSans-110"/>
      <use x="1161.621094" xlink:href="#DejaVuSans-116"/>
      <use x="1200.830078" xlink:href="#DejaVuSans-32"/>
      <use x="1232.617188" xlink:href="#DejaVuSans-40"/>
      <use x="1271.630859" xlink:href="#DejaVuSans-115"/>
      <use x="1323.730469" xlink:href="#DejaVuSans-41"/>
     </g>
    </g>
   </g>
   <g id="line2d_21">
    <path clip-path="url(#p6ce633fe58)" d="M 186.624063 195.279308 
L 186.624063 145.67852 
" style="fill:none;stroke:#373737;stroke-linecap:square;stroke-width:0.8;"/>
   </g>
   <g id="line2d_22">
    <path clip-path="url(#p6ce633fe58)" d="M 186.624063 194.934283 
L 186.624063 162.570942 
" style="fill:none;stroke:#373737;stroke-linecap:square;stroke-width:2.4;"/>
   </g>
   <g id="line2d_23">
    <path clip-path="url(#p6ce633fe58)" d="M 409.824062 195.279308 
L 409.824062 132.912597 
" style="fill:none;stroke:#373737;stroke-linecap:square;stroke-width:0.8;"/>
   </g>
   <g id="line2d_24">
    <path clip-path="url(#p6ce633fe58)" d="M 409.824062 194.164877 
L 409.824062 165.703769 
" style="fill:none;stroke:#373737;stroke-linecap:square;stroke-width:2.4;"/>
   </g>
   <g id="line2d_25">
    <path clip-path="url(#p6ce633fe58)" d="M 633.024063 195.279308 
L 633.024063 64.404442 
" style="fill:none;stroke:#373737;stroke-linecap:square;stroke-width:0.8;"/>
   </g>
   <g id="line2d_26">
    <path clip-path="url(#p6ce633fe58)" d="M 633.024063 195.279308 
L 633.024063 142.090261 
" style="fill:none;stroke:#373737;stroke-linecap:square;stroke-width:2.4;"/>
   </g>
   <g id="patch_3">
    <path d="M 75.024063 240.721875 
L 75.024063 18.961875 
" style="fill:none;stroke:#000000;stroke-linecap:square;stroke-linejoin:miter;stroke-width:0.8;"/>
   </g>
   <g id="patch_4">
    <path d="M 744.624063 240.721875 
L 744.624063 18.961875 
" style="fill:none;stroke:#000000;stroke-linecap:square;stroke-linejoin:miter;stroke-width:0.8;"/>
   </g>
   <g id="patch_5">
    <path d="M 75.024063 240.721875 
L 744.624063 240.721875 
" style="fill:none;stroke:#000000;stroke-linecap:square;stroke-linejoin:miter;stroke-width:0.8;"/>
   </g>
   <g id="patch_6">
    <path d="M 75.024063 18.961875 
L 744.624063 18.961875 
" style="fill:none;stroke:#000000;stroke-linecap:square;stroke-linejoin:miter;stroke-width:0.8;"/>
   </g>
   <g id="PathCollection_1">
    <defs>
     <path d="M 0 0.8 
C 0.212162 0.8 0.415664 0.715707 0.565685 0.565685 
C 0.715707 0.415664 0.8 0.212162 0.8 0 
C 0.8 -0.212162 0.715707 -0.415664 0.565685 -0.565685 
C 0.415664 -0.715707 0.212162 -0.8 0 -0.8 
C -0.212162 -0.8 -0.415664 -0.715707 -0.565685 -0.565685 
C -0.715707 -0.415664 -0.8 -0.212162 -0.8 0 
C -0.8 0.212162 -0.715707 0.415664 -0.565685 0.565685 
C -0.415664 0.715707 -0.212162 0.8 0 0.8 
z
" id="m181718dd69" style="stroke:#373737;"/>
    </defs>
    <g clip-path="url(#p6ce633fe58)">
     <use style="fill:#ffffff;stroke:#373737;" x="186.624063" xlink:href="#m181718dd69" y="181.450708"/>
    </g>
   </g>
   <g id="PathCollection_2">
    <g clip-path="url(#p6ce633fe58)">
     <use style="fill:#ffffff;stroke:#373737;" x="409.824062" xlink:href="#m181718dd69" y="178.869921"/>
    </g>
   </g>
   <g id="PathCollection_3">
    <g clip-path="url(#p6ce633fe58)">
     <use style="fill:#ffffff;stroke:#373737;" x="633.024063" xlink:href="#m181718dd69" y="193.37477"/>
    </g>
   </g>
   <g id="text_12">
    <!-- 0.1102 -->
    <g transform="translate(191.088063 186.013318)scale(0.14 -0.14)">
     <defs>
      <path d="M 46 36.53125 
Q 46 50.203125 43.4375 55.78125 
Q 40.875 61.375 34.8125 61.375 
Q 28.765625 61.375 26.171875 55.78125 
Q 23.578125 50.203125 23.578125 36.53125 
Q 23.578125 22.703125 26.171875 17.03125 
Q 28.765625 11.375 34.8125 11.375 
Q 40.828125 11.375 43.40625 17.03125 
Q 46 22.703125 46 36.53125 
z
M 64.796875 36.375 
Q 64.796875 18.265625 56.984375 8.421875 
Q 49.171875 -1.421875 34.8125 -1.421875 
Q 20.40625 -1.421875 12.59375 8.421875 
Q 4.78125 18.265625 4.78125 36.375 
Q 4.78125 54.546875 12.59375 64.375 
Q 20.40625 74.21875 34.8125 74.21875 
Q 49.171875 74.21875 56.984375 64.375 
Q 64.796875 54.546875 64.796875 36.375 
z
" id="DejaVuSans-Bold-48"/>
      <path d="M 10.203125 18.890625 
L 27.78125 18.890625 
L 27.78125 0 
L 10.203125 0 
z
" id="DejaVuSans-Bold-46"/>
      <path d="M 11.71875 12.984375 
L 28.328125 12.984375 
L 28.328125 60.109375 
L 11.28125 56.59375 
L 11.28125 69.390625 
L 28.21875 72.90625 
L 46.09375 72.90625 
L 46.09375 12.984375 
L 62.703125 12.984375 
L 62.703125 0 
L 11.71875 0 
z
" id="DejaVuSans-Bold-49"/>
      <path d="M 28.8125 13.8125 
L 60.890625 13.8125 
L 60.890625 0 
L 7.90625 0 
L 7.90625 13.8125 
L 34.515625 37.3125 
Q 38.09375 40.53125 39.796875 43.609375 
Q 41.5 46.6875 41.5 50 
Q 41.5 55.125 38.0625 58.25 
Q 34.625 61.375 28.90625 61.375 
Q 24.515625 61.375 19.28125 59.5 
Q 14.0625 57.625 8.109375 53.90625 
L 8.109375 69.921875 
Q 14.453125 72.015625 20.65625 73.109375 
Q 26.859375 74.21875 32.8125 74.21875 
Q 45.90625 74.21875 53.15625 68.453125 
Q 60.40625 62.703125 60.40625 52.390625 
Q 60.40625 46.4375 57.328125 41.28125 
Q 54.25 36.140625 44.390625 27.484375 
z
" id="DejaVuSans-Bold-50"/>
     </defs>
     <use xlink:href="#DejaVuSans-Bold-48"/>
     <use x="69.580078" xlink:href="#DejaVuSans-Bold-46"/>
     <use x="107.568359" xlink:href="#DejaVuSans-Bold-49"/>
     <use x="177.148438" xlink:href="#DejaVuSans-Bold-49"/>
     <use x="246.728516" xlink:href="#DejaVuSans-Bold-48"/>
     <use x="316.308594" xlink:href="#DejaVuSans-Bold-50"/>
    </g>
   </g>
   <g id="text_13">
    <!-- 0.1289 -->
    <g transform="translate(414.288063 184.206767)scale(0.14 -0.14)">
     <defs>
      <path d="M 34.8125 32.625 
Q 29.546875 32.625 26.703125 29.734375 
Q 23.875 26.859375 23.875 21.484375 
Q 23.875 16.109375 26.703125 13.25 
Q 29.546875 10.40625 34.8125 10.40625 
Q 40.046875 10.40625 42.828125 13.25 
Q 45.609375 16.109375 45.609375 21.484375 
Q 45.609375 26.90625 42.828125 29.765625 
Q 40.046875 32.625 34.8125 32.625 
z
M 21.09375 38.8125 
Q 14.453125 40.828125 11.078125 44.96875 
Q 7.71875 49.125 7.71875 55.328125 
Q 7.71875 64.546875 14.59375 69.375 
Q 21.484375 74.21875 34.8125 74.21875 
Q 48.046875 74.21875 54.921875 69.40625 
Q 61.8125 64.59375 61.8125 55.328125 
Q 61.8125 49.125 58.421875 44.96875 
Q 55.03125 40.828125 48.390625 38.8125 
Q 55.8125 36.765625 59.59375 32.15625 
Q 63.375 27.546875 63.375 20.515625 
Q 63.375 9.671875 56.171875 4.125 
Q 48.96875 -1.421875 34.8125 -1.421875 
Q 20.609375 -1.421875 13.359375 4.125 
Q 6.109375 9.671875 6.109375 20.515625 
Q 6.109375 27.546875 9.890625 32.15625 
Q 13.671875 36.765625 21.09375 38.8125 
z
M 25.484375 53.421875 
Q 25.484375 49.078125 27.90625 46.734375 
Q 30.328125 44.390625 34.8125 44.390625 
Q 39.203125 44.390625 41.59375 46.734375 
Q 44 49.078125 44 53.421875 
Q 44 57.765625 41.59375 60.078125 
Q 39.203125 62.40625 34.8125 62.40625 
Q 30.328125 62.40625 27.90625 60.0625 
Q 25.484375 57.71875 25.484375 53.421875 
z
" id="DejaVuSans-Bold-56"/>
      <path d="M 10.015625 1.609375 
L 10.015625 15.09375 
Q 14.5 12.984375 18.59375 11.9375 
Q 22.703125 10.890625 26.703125 10.890625 
Q 35.109375 10.890625 39.796875 15.546875 
Q 44.484375 20.21875 45.3125 29.390625 
Q 42 26.953125 38.234375 25.734375 
Q 34.46875 24.515625 30.078125 24.515625 
Q 18.890625 24.515625 12.03125 31.03125 
Q 5.171875 37.546875 5.171875 48.1875 
Q 5.171875 59.96875 12.8125 67.046875 
Q 20.453125 74.125 33.296875 74.125 
Q 47.5625 74.125 55.375 64.5 
Q 63.1875 54.890625 63.1875 37.3125 
Q 63.1875 19.234375 54.046875 8.90625 
Q 44.921875 -1.421875 29 -1.421875 
Q 23.875 -1.421875 19.1875 -0.65625 
Q 14.5 0.09375 10.015625 1.609375 
z
M 33.203125 36.71875 
Q 38.140625 36.71875 40.625 39.90625 
Q 43.109375 43.109375 43.109375 49.515625 
Q 43.109375 55.859375 40.625 59.078125 
Q 38.140625 62.3125 33.203125 62.3125 
Q 28.265625 62.3125 25.78125 59.078125 
Q 23.296875 55.859375 23.296875 49.515625 
Q 23.296875 43.109375 25.78125 39.90625 
Q 28.265625 36.71875 33.203125 36.71875 
z
" id="DejaVuSans-Bold-57"/>
     </defs>
     <use xlink:href="#DejaVuSans-Bold-48"/>
     <use x="69.580078" xlink:href="#DejaVuSans-Bold-46"/>
     <use x="107.568359" xlink:href="#DejaVuSans-Bold-49"/>
     <use x="177.148438" xlink:href="#DejaVuSans-Bold-50"/>
     <use x="246.728516" xlink:href="#DejaVuSans-Bold-56"/>
     <use x="316.308594" xlink:href="#DejaVuSans-Bold-57"/>
    </g>
   </g>
   <g id="text_14">
    <!-- 0.0238 -->
    <g transform="translate(637.488062 194.360161)scale(0.14 -0.14)">
     <defs>
      <path d="M 46.578125 39.3125 
Q 53.953125 37.40625 57.78125 32.6875 
Q 61.625 27.984375 61.625 20.703125 
Q 61.625 9.859375 53.3125 4.21875 
Q 45.015625 -1.421875 29.109375 -1.421875 
Q 23.484375 -1.421875 17.84375 -0.515625 
Q 12.203125 0.390625 6.6875 2.203125 
L 6.6875 16.703125 
Q 11.96875 14.0625 17.15625 12.71875 
Q 22.359375 11.375 27.390625 11.375 
Q 34.859375 11.375 38.84375 13.953125 
Q 42.828125 16.546875 42.828125 21.390625 
Q 42.828125 26.375 38.75 28.9375 
Q 34.671875 31.5 26.703125 31.5 
L 19.1875 31.5 
L 19.1875 43.609375 
L 27.09375 43.609375 
Q 34.1875 43.609375 37.640625 45.828125 
Q 41.109375 48.046875 41.109375 52.59375 
Q 41.109375 56.78125 37.734375 59.078125 
Q 34.375 61.375 28.21875 61.375 
Q 23.6875 61.375 19.046875 60.34375 
Q 14.40625 59.328125 9.8125 57.328125 
L 9.8125 71.09375 
Q 15.375 72.65625 20.84375 73.4375 
Q 26.3125 74.21875 31.59375 74.21875 
Q 45.796875 74.21875 52.84375 69.546875 
Q 59.90625 64.890625 59.90625 55.515625 
Q 59.90625 49.125 56.53125 45.046875 
Q 53.171875 40.96875 46.578125 39.3125 
z
" id="DejaVuSans-Bold-51"/>
     </defs>
     <use xlink:href="#DejaVuSans-Bold-48"/>
     <use x="69.580078" xlink:href="#DejaVuSans-Bold-46"/>
     <use x="107.568359" xlink:href="#DejaVuSans-Bold-48"/>
     <use x="177.148438" xlink:href="#DejaVuSans-Bold-50"/>
     <use x="246.728516" xlink:href="#DejaVuSans-Bold-51"/>
     <use x="316.308594" xlink:href="#DejaVuSans-Bold-56"/>
    </g>
   </g>
  </g>
 </g>
 <defs>
  <clipPath id="p6ce633fe58">
   <rect height="221.76" width="669.6" x="75.024063" y="18.961875"/>
  </clipPath>
 </defs>
</svg>
