<?xml version="1.0" encoding="utf-8" standalone="no"?>
<!DOCTYPE svg PUBLIC "-//W3C//DTD SVG 1.1//EN"
  "http://www.w3.org/Graphics/SVG/1.1/DTD/svg11.dtd">
<!-- Created with matplotlib (https://matplotlib.org/) -->
<svg height="268.886312pt" version="1.1" viewBox="0 0 717.828125 268.886312" width="717.828125pt" xmlns="http://www.w3.org/2000/svg" xmlns:xlink="http://www.w3.org/1999/xlink">
 <metadata>
  <rdf:RDF xmlns:cc="http://creativecommons.org/ns#" xmlns:dc="http://purl.org/dc/elements/1.1/" xmlns:rdf="http://www.w3.org/1999/02/22-rdf-syntax-ns#">
   <cc:Work>
    <dc:type rdf:resource="http://purl.org/dc/dcmitype/StillImage"/>
    <dc:date>2023-02-16T23:51:23.556431</dc:date>
    <dc:format>image/svg+xml</dc:format>
    <dc:creator>
     <cc:Agent>
      <dc:title>Matplotlib v3.3.4, https://matplotlib.org/</dc:title>
     </cc:Agent>
    </dc:creator>
   </cc:Work>
  </rdf:RDF>
 </metadata>
 <defs>
  <style type="text/css">*{stroke-linecap:butt;stroke-linejoin:round;}</style>
 </defs>
 <g id="figure_1">
  <g id="patch_1">
   <path d="M 0 268.886312 
L 717.828125 268.886312 
L 717.828125 0 
L 0 0 
z
" style="fill:#ffffff;"/>
  </g>
  <g id="axes_1">
   <g id="patch_2">
    <path d="M 41.028125 228.96 
L 710.628125 228.96 
L 710.628125 7.2 
L 41.028125 7.2 
z
" style="fill:#ffffff;"/>
   </g>
   <g id="PolyCollection_1">
    <defs>
     <path d="M 164.731999 -72.544916 
L 140.524251 -72.544916 
L 124.232274 -73.369778 
L 99.985604 -74.19464 
L 75.507636 -75.019502 
L 63.348125 -75.844365 
L 70.952983 -76.669227 
L 93.583968 -77.494089 
L 118.898209 -78.318951 
L 137.401456 -79.143814 
L 147.196299 -79.968676 
L 151.096903 -80.793538 
L 152.287025 -81.6184 
L 152.56808 -82.443263 
L 152.619772 -83.268125 
L 152.627207 -84.092987 
L 152.628045 -84.91785 
L 152.62812 -85.742712 
L 152.628125 -86.567574 
L 152.628125 -87.392436 
L 152.628125 -88.217299 
L 152.628125 -89.042161 
L 152.628125 -89.867023 
L 152.628125 -90.691885 
L 152.628125 -91.516748 
L 152.628125 -92.34161 
L 152.628125 -93.166472 
L 152.628125 -93.991334 
L 152.628125 -94.816197 
L 152.628125 -95.641059 
L 152.628125 -96.465921 
L 152.628125 -97.290783 
L 152.628125 -98.115646 
L 152.628125 -98.940508 
L 152.628125 -99.76537 
L 152.628125 -100.590233 
L 152.628125 -101.415095 
L 152.628125 -102.239957 
L 152.628125 -103.064819 
L 152.628125 -103.889682 
L 152.628125 -104.714544 
L 152.628125 -105.539406 
L 152.628125 -106.364268 
L 152.628125 -107.189131 
L 152.628125 -108.013993 
L 152.628125 -108.838855 
L 152.628125 -109.663717 
L 152.628125 -110.48858 
L 152.628125 -111.313442 
L 152.628125 -112.138304 
L 152.628125 -112.963166 
L 152.628125 -113.788029 
L 152.628125 -114.612891 
L 152.628125 -115.437753 
L 152.628125 -116.262615 
L 152.628125 -117.087478 
L 152.628125 -117.91234 
L 152.628125 -118.737202 
L 152.628125 -119.562065 
L 152.628125 -120.386927 
L 152.628125 -121.211789 
L 152.628125 -122.036651 
L 152.628125 -122.861514 
L 152.628125 -123.686376 
L 152.628125 -124.511238 
L 152.628125 -125.3361 
L 152.628125 -126.160963 
L 152.628125 -126.985825 
L 152.628125 -127.810687 
L 152.628125 -128.635549 
L 152.628125 -129.460412 
L 152.628125 -130.285274 
L 152.628125 -131.110136 
L 152.628125 -131.934998 
L 152.628125 -132.759861 
L 152.628125 -133.584723 
L 152.628125 -134.409585 
L 152.628125 -135.234448 
L 152.628125 -136.05931 
L 152.628125 -136.884172 
L 152.628125 -137.709034 
L 152.628125 -138.533897 
L 152.628125 -139.358759 
L 152.628125 -140.183621 
L 152.628125 -141.008483 
L 152.628125 -141.833346 
L 152.628121 -142.658208 
L 152.628087 -143.48307 
L 152.627855 -144.307932 
L 152.626589 -145.132795 
L 152.621228 -145.957657 
L 152.603657 -146.782519 
L 152.559536 -147.607381 
L 152.476188 -148.432244 
L 152.36216 -149.257106 
L 152.260219 -150.081968 
L 152.225963 -150.906831 
L 152.280735 -151.731693 
L 152.390997 -152.556555 
L 152.500216 -153.381417 
L 152.573603 -154.20628 
L 152.682647 -154.20628 
L 152.682647 -154.20628 
L 152.756034 -153.381417 
L 152.865253 -152.556555 
L 152.975515 -151.731693 
L 153.030287 -150.906831 
L 152.996031 -150.081968 
L 152.89409 -149.257106 
L 152.780062 -148.432244 
L 152.696714 -147.607381 
L 152.652593 -146.782519 
L 152.635022 -145.957657 
L 152.629661 -145.132795 
L 152.628395 -144.307932 
L 152.628163 -143.48307 
L 152.628129 -142.658208 
L 152.628125 -141.833346 
L 152.628125 -141.008483 
L 152.628125 -140.183621 
L 152.628125 -139.358759 
L 152.628125 -138.533897 
L 152.628125 -137.709034 
L 152.628125 -136.884172 
L 152.628125 -136.05931 
L 152.628125 -135.234448 
L 152.628125 -134.409585 
L 152.628125 -133.584723 
L 152.628125 -132.759861 
L 152.628125 -131.934998 
L 152.628125 -131.110136 
L 152.628125 -130.285274 
L 152.628125 -129.460412 
L 152.628125 -128.635549 
L 152.628125 -127.810687 
L 152.628125 -126.985825 
L 152.628125 -126.160963 
L 152.628125 -125.3361 
L 152.628125 -124.511238 
L 152.628125 -123.686376 
L 152.628125 -122.861514 
L 152.628125 -122.036651 
L 152.628125 -121.211789 
L 152.628125 -120.386927 
L 152.628125 -119.562065 
L 152.628125 -118.737202 
L 152.628125 -117.91234 
L 152.628125 -117.087478 
L 152.628125 -116.262615 
L 152.628125 -115.437753 
L 152.628125 -114.612891 
L 152.628125 -113.788029 
L 152.628125 -112.963166 
L 152.628125 -112.138304 
L 152.628125 -111.313442 
L 152.628125 -110.48858 
L 152.628125 -109.663717 
L 152.628125 -108.838855 
L 152.628125 -108.013993 
L 152.628125 -107.189131 
L 152.628125 -106.364268 
L 152.628125 -105.539406 
L 152.628125 -104.714544 
L 152.628125 -103.889682 
L 152.628125 -103.064819 
L 152.628125 -102.239957 
L 152.628125 -101.415095 
L 152.628125 -100.590233 
L 152.628125 -99.76537 
L 152.628125 -98.940508 
L 152.628125 -98.115646 
L 152.628125 -97.290783 
L 152.628125 -96.465921 
L 152.628125 -95.641059 
L 152.628125 -94.816197 
L 152.628125 -93.991334 
L 152.628125 -93.166472 
L 152.628125 -92.34161 
L 152.628125 -91.516748 
L 152.628125 -90.691885 
L 152.628125 -89.867023 
L 152.628125 -89.042161 
L 152.628125 -88.217299 
L 152.628125 -87.392436 
L 152.628125 -86.567574 
L 152.62813 -85.742712 
L 152.628205 -84.91785 
L 152.629043 -84.092987 
L 152.636478 -83.268125 
L 152.68817 -82.443263 
L 152.969225 -81.6184 
L 154.159347 -80.793538 
L 158.059951 -79.968676 
L 167.854794 -79.143814 
L 186.358041 -78.318951 
L 211.672282 -77.494089 
L 234.303267 -76.669227 
L 241.908125 -75.844365 
L 229.748614 -75.019502 
L 205.270646 -74.19464 
L 181.023976 -73.369778 
L 164.731999 -72.544916 
z
" id="m3f1ee581d7" style="stroke:#373737;stroke-width:0.8;"/>
    </defs>
    <g clip-path="url(#pc7f50582a6)">
     <use style="fill:#2b8e70;stroke:#373737;stroke-width:0.8;" x="0" xlink:href="#m3f1ee581d7" y="268.886312"/>
    </g>
   </g>
   <g id="PolyCollection_2">
    <defs>
     <path d="M 376.034792 -50.006313 
L 375.621458 -50.006313 
L 375.53186 -52.042676 
L 375.412309 -54.07904 
L 375.256588 -56.115403 
L 375.058593 -58.151767 
L 374.812885 -60.188131 
L 374.515331 -62.224494 
L 374.163787 -64.260858 
L 373.75876 -66.297222 
L 373.303941 -68.333585 
L 372.806546 -70.369949 
L 372.277378 -72.406313 
L 371.730567 -74.442676 
L 371.182967 -76.47904 
L 370.653239 -78.515403 
L 370.160685 -80.551767 
L 369.723942 -82.588131 
L 369.359652 -84.624494 
L 369.081258 -86.660858 
L 368.898045 -88.697222 
L 368.814534 -90.733585 
L 368.830288 -92.769949 
L 368.940139 -94.806313 
L 369.134809 -96.842676 
L 369.401822 -98.87904 
L 369.726608 -100.915403 
L 370.093661 -102.951767 
L 370.487623 -104.988131 
L 370.894203 -107.024494 
L 371.300851 -109.060858 
L 371.697171 -111.097222 
L 372.075082 -113.133585 
L 372.42877 -115.169949 
L 372.754489 -117.206312 
L 373.05027 -119.242676 
L 373.315605 -121.27904 
L 373.551127 -123.315403 
L 373.758335 -125.351767 
L 373.939344 -127.388131 
L 374.096693 -129.424494 
L 374.233166 -131.460858 
L 374.351651 -133.497222 
L 374.455008 -135.533585 
L 374.545954 -137.569949 
L 374.626955 -139.606313 
L 374.70013 -141.642676 
L 374.767178 -143.67904 
L 374.829313 -145.715403 
L 374.887244 -147.751767 
L 374.941189 -149.788131 
L 374.99094 -151.824494 
L 375.035981 -153.860858 
L 375.075665 -155.897222 
L 375.10941 -157.933585 
L 375.136912 -159.969949 
L 375.158326 -162.006312 
L 375.174383 -164.042676 
L 375.186411 -166.07904 
L 375.196257 -168.115403 
L 375.206099 -170.151767 
L 375.218187 -172.188131 
L 375.234551 -174.224494 
L 375.256721 -176.260858 
L 375.285514 -178.297222 
L 375.320914 -180.333585 
L 375.362064 -182.369949 
L 375.407358 -184.406313 
L 375.454623 -186.442676 
L 375.501338 -188.47904 
L 375.544862 -190.515403 
L 375.582641 -192.551767 
L 375.612372 -194.588131 
L 375.632123 -196.624494 
L 375.640405 -198.660858 
L 375.636239 -200.697222 
L 375.619206 -202.733585 
L 375.589501 -204.769949 
L 375.548003 -206.806312 
L 375.496322 -208.842676 
L 375.436824 -210.87904 
L 375.372592 -212.915403 
L 375.307306 -214.951767 
L 375.245032 -216.988131 
L 375.189922 -219.024494 
L 375.145858 -221.060858 
L 375.116082 -223.097222 
L 375.102863 -225.133585 
L 375.107258 -227.169949 
L 375.129005 -229.206312 
L 375.166572 -231.242676 
L 375.217346 -233.27904 
L 375.277947 -235.315403 
L 375.3446 -237.351767 
L 375.413524 -239.388131 
L 375.481279 -241.424494 
L 375.545028 -243.460858 
L 375.602686 -245.497222 
L 375.652973 -247.533585 
L 375.695357 -249.569949 
L 375.729935 -251.606313 
L 375.926315 -251.606313 
L 375.926315 -251.606313 
L 375.960893 -249.569949 
L 376.003277 -247.533585 
L 376.053564 -245.497222 
L 376.111222 -243.460858 
L 376.174971 -241.424494 
L 376.242726 -239.388131 
L 376.31165 -237.351767 
L 376.378303 -235.315403 
L 376.438904 -233.27904 
L 376.489678 -231.242676 
L 376.527245 -229.206312 
L 376.548992 -227.169949 
L 376.553387 -225.133585 
L 376.540168 -223.097222 
L 376.510392 -221.060858 
L 376.466328 -219.024494 
L 376.411218 -216.988131 
L 376.348944 -214.951767 
L 376.283658 -212.915403 
L 376.219426 -210.87904 
L 376.159928 -208.842676 
L 376.108247 -206.806312 
L 376.066749 -204.769949 
L 376.037044 -202.733585 
L 376.020011 -200.697222 
L 376.015845 -198.660858 
L 376.024127 -196.624494 
L 376.043878 -194.588131 
L 376.073609 -192.551767 
L 376.111388 -190.515403 
L 376.154912 -188.47904 
L 376.201627 -186.442676 
L 376.248892 -184.406313 
L 376.294186 -182.369949 
L 376.335336 -180.333585 
L 376.370736 -178.297222 
L 376.399529 -176.260858 
L 376.421699 -174.224494 
L 376.438063 -172.188131 
L 376.450151 -170.151767 
L 376.459993 -168.115403 
L 376.469839 -166.07904 
L 376.481867 -164.042676 
L 376.497924 -162.006312 
L 376.519338 -159.969949 
L 376.54684 -157.933585 
L 376.580585 -155.897222 
L 376.620269 -153.860858 
L 376.66531 -151.824494 
L 376.715061 -149.788131 
L 376.769006 -147.751767 
L 376.826937 -145.715403 
L 376.889072 -143.67904 
L 376.95612 -141.642676 
L 377.029295 -139.606313 
L 377.110296 -137.569949 
L 377.201242 -135.533585 
L 377.304599 -133.497222 
L 377.423084 -131.460858 
L 377.559557 -129.424494 
L 377.716906 -127.388131 
L 377.897915 -125.351767 
L 378.105123 -123.315403 
L 378.340645 -121.27904 
L 378.60598 -119.242676 
L 378.901761 -117.206312 
L 379.22748 -115.169949 
L 379.581168 -113.133585 
L 379.959079 -111.097222 
L 380.355399 -109.060858 
L 380.762047 -107.024494 
L 381.168627 -104.988131 
L 381.562589 -102.951767 
L 381.929642 -100.915403 
L 382.254428 -98.87904 
L 382.521441 -96.842676 
L 382.716111 -94.806313 
L 382.825962 -92.769949 
L 382.841716 -90.733585 
L 382.758205 -88.697222 
L 382.574992 -86.660858 
L 382.296598 -84.624494 
L 381.932308 -82.588131 
L 381.495565 -80.551767 
L 381.003011 -78.515403 
L 380.473283 -76.47904 
L 379.925683 -74.442676 
L 379.378872 -72.406313 
L 378.849704 -70.369949 
L 378.352309 -68.333585 
L 377.89749 -66.297222 
L 377.492463 -64.260858 
L 377.140919 -62.224494 
L 376.843365 -60.188131 
L 376.597657 -58.151767 
L 376.399662 -56.115403 
L 376.243941 -54.07904 
L 376.12439 -52.042676 
L 376.034792 -50.006313 
z
" id="m3d3dfea2ec" style="stroke:#373737;stroke-width:0.8;"/>
    </defs>
    <g clip-path="url(#pc7f50582a6)">
     <use style="fill:#be631d;stroke:#373737;stroke-width:0.8;" x="0" xlink:href="#m3d3dfea2ec" y="268.886312"/>
    </g>
   </g>
   <g id="PolyCollection_3">
    <defs>
     <path d="M 600.665798 -69.148318 
L 597.390452 -69.148318 
L 596.846391 -69.621364 
L 596.172949 -70.094411 
L 595.357131 -70.567457 
L 594.390205 -71.040504 
L 593.26939 -71.51355 
L 591.999394 -71.986597 
L 590.593578 -72.459643 
L 589.07458 -72.93269 
L 587.474211 -73.405736 
L 585.83256 -73.878783 
L 584.19628 -74.351829 
L 582.616161 -74.824876 
L 581.14417 -75.297922 
L 579.830219 -75.770969 
L 578.718956 -76.244016 
L 577.846876 -76.717062 
L 577.240034 -77.190109 
L 576.912546 -77.663155 
L 576.865981 -78.136202 
L 577.089678 -78.609248 
L 577.561885 -79.082295 
L 578.251589 -79.555341 
L 579.12082 -80.028388 
L 580.127218 -80.501434 
L 581.226644 -80.974481 
L 582.375626 -81.447527 
L 583.533499 -81.920574 
L 584.664117 -82.39362 
L 585.737062 -82.866667 
L 586.728351 -83.339713 
L 587.620644 -83.81276 
L 588.403014 -84.285806 
L 589.070362 -84.758853 
L 589.622583 -85.231899 
L 590.063573 -85.704946 
L 590.400213 -86.177992 
L 590.641395 -86.651039 
L 590.7972 -87.124085 
L 590.878243 -87.597132 
L 590.89524 -88.070178 
L 590.858763 -88.543225 
L 590.779155 -89.016271 
L 590.666549 -89.489318 
L 590.530929 -89.962364 
L 590.382155 -90.435411 
L 590.229928 -90.908457 
L 590.083639 -91.381504 
L 589.952118 -91.854551 
L 589.843312 -92.327597 
L 589.763921 -92.800644 
L 589.71907 -93.27369 
L 589.712082 -93.746737 
L 589.744382 -94.219783 
L 589.815589 -94.69283 
L 589.923785 -95.165876 
L 590.065927 -95.638923 
L 590.238371 -96.111969 
L 590.437409 -96.585016 
L 590.659761 -97.058062 
L 590.90294 -97.531109 
L 591.165449 -98.004155 
L 591.446764 -98.477202 
L 591.747137 -98.950248 
L 592.067232 -99.423295 
L 592.407668 -99.896341 
L 592.768539 -100.369388 
L 593.148984 -100.842434 
L 593.546879 -101.315481 
L 593.958695 -101.788527 
L 594.379542 -102.261574 
L 594.803394 -102.73462 
L 595.223464 -103.207667 
L 595.63268 -103.680713 
L 596.024206 -104.15376 
L 596.391935 -104.626806 
L 596.730909 -105.099853 
L 597.037623 -105.572899 
L 597.310177 -106.045946 
L 597.548285 -106.518992 
L 597.753138 -106.992039 
L 597.927161 -107.465086 
L 598.07368 -107.938132 
L 598.196566 -108.411179 
L 598.299871 -108.884225 
L 598.38751 -109.357272 
L 598.463001 -109.830318 
L 598.529299 -110.303365 
L 598.588702 -110.776411 
L 598.642848 -111.249458 
L 598.692773 -111.722504 
L 598.739018 -112.195551 
L 598.781759 -112.668597 
L 598.820947 -113.141644 
L 598.856427 -113.61469 
L 598.888045 -114.087737 
L 598.915714 -114.560783 
L 598.939455 -115.03383 
L 598.959408 -115.506876 
L 598.975826 -115.979923 
L 599.080424 -115.979923 
L 599.080424 -115.979923 
L 599.096842 -115.506876 
L 599.116795 -115.03383 
L 599.140536 -114.560783 
L 599.168205 -114.087737 
L 599.199823 -113.61469 
L 599.235303 -113.141644 
L 599.274491 -112.668597 
L 599.317232 -112.195551 
L 599.363477 -111.722504 
L 599.413402 -111.249458 
L 599.467548 -110.776411 
L 599.526951 -110.303365 
L 599.593249 -109.830318 
L 599.66874 -109.357272 
L 599.756379 -108.884225 
L 599.859684 -108.411179 
L 599.98257 -107.938132 
L 600.129089 -107.465086 
L 600.303112 -106.992039 
L 600.507965 -106.518992 
L 600.746073 -106.045946 
L 601.018627 -105.572899 
L 601.325341 -105.099853 
L 601.664315 -104.626806 
L 602.032044 -104.15376 
L 602.42357 -103.680713 
L 602.832786 -103.207667 
L 603.252856 -102.73462 
L 603.676708 -102.261574 
L 604.097555 -101.788527 
L 604.509371 -101.315481 
L 604.907266 -100.842434 
L 605.287711 -100.369388 
L 605.648582 -99.896341 
L 605.989018 -99.423295 
L 606.309113 -98.950248 
L 606.609486 -98.477202 
L 606.890801 -98.004155 
L 607.15331 -97.531109 
L 607.396489 -97.058062 
L 607.618841 -96.585016 
L 607.817879 -96.111969 
L 607.990323 -95.638923 
L 608.132465 -95.165876 
L 608.240661 -94.69283 
L 608.311868 -94.219783 
L 608.344168 -93.746737 
L 608.33718 -93.27369 
L 608.292329 -92.800644 
L 608.212938 -92.327597 
L 608.104132 -91.854551 
L 607.972611 -91.381504 
L 607.826322 -90.908457 
L 607.674095 -90.435411 
L 607.525321 -89.962364 
L 607.389701 -89.489318 
L 607.277095 -89.016271 
L 607.197487 -88.543225 
L 607.16101 -88.070178 
L 607.178007 -87.597132 
L 607.25905 -87.124085 
L 607.414855 -86.651039 
L 607.656037 -86.177992 
L 607.992677 -85.704946 
L 608.433667 -85.231899 
L 608.985888 -84.758853 
L 609.653236 -84.285806 
L 610.435606 -83.81276 
L 611.327899 -83.339713 
L 612.319188 -82.866667 
L 613.392133 -82.39362 
L 614.522751 -81.920574 
L 615.680624 -81.447527 
L 616.829606 -80.974481 
L 617.929032 -80.501434 
L 618.93543 -80.028388 
L 619.804661 -79.555341 
L 620.494365 -79.082295 
L 620.966572 -78.609248 
L 621.190269 -78.136202 
L 621.143704 -77.663155 
L 620.816216 -77.190109 
L 620.209374 -76.717062 
L 619.337294 -76.244016 
L 618.226031 -75.770969 
L 616.91208 -75.297922 
L 615.440089 -74.824876 
L 613.85997 -74.351829 
L 612.22369 -73.878783 
L 610.582039 -73.405736 
L 608.98167 -72.93269 
L 607.462672 -72.459643 
L 606.056856 -71.986597 
L 604.78686 -71.51355 
L 603.666045 -71.040504 
L 602.699119 -70.567457 
L 601.883301 -70.094411 
L 601.209859 -69.621364 
L 600.665798 -69.148318 
z
" id="ma6e32f42ff" style="stroke:#373737;stroke-width:0.8;"/>
    </defs>
    <g clip-path="url(#pc7f50582a6)">
     <use style="fill:#7c78ab;stroke:#373737;stroke-width:0.8;" x="0" xlink:href="#ma6e32f42ff" y="268.886312"/>
    </g>
   </g>
   <g id="matplotlib.axis_1">
    <g id="xtick_1">
     <g id="line2d_1">
      <defs>
       <path d="M 0 0 
L 0 -3.5 
" id="m04becbab29" style="stroke:#000000;stroke-width:0.8;"/>
      </defs>
      <g>
       <use style="stroke:#000000;stroke-width:0.8;" x="152.628125" xlink:href="#m04becbab29" y="228.96"/>
      </g>
     </g>
     <g id="line2d_2">
      <defs>
       <path d="M 0 0 
L 0 3.5 
" id="mf01d1a4229" style="stroke:#000000;stroke-width:0.8;"/>
      </defs>
      <g>
       <use style="stroke:#000000;stroke-width:0.8;" x="152.628125" xlink:href="#mf01d1a4229" y="7.2"/>
      </g>
     </g>
     <g id="text_1">
      <!-- Treated substrate -->
      <g transform="translate(91.211875 243.097812)scale(0.14 -0.14)">
       <defs>
        <path d="M -0.296875 72.90625 
L 61.375 72.90625 
L 61.375 64.59375 
L 35.5 64.59375 
L 35.5 0 
L 25.59375 0 
L 25.59375 64.59375 
L -0.296875 64.59375 
z
" id="DejaVuSans-84"/>
        <path d="M 41.109375 46.296875 
Q 39.59375 47.171875 37.8125 47.578125 
Q 36.03125 48 33.890625 48 
Q 26.265625 48 22.1875 43.046875 
Q 18.109375 38.09375 18.109375 28.8125 
L 18.109375 0 
L 9.078125 0 
L 9.078125 54.6875 
L 18.109375 54.6875 
L 18.109375 46.1875 
Q 20.953125 51.171875 25.484375 53.578125 
Q 30.03125 56 36.53125 56 
Q 37.453125 56 38.578125 55.875 
Q 39.703125 55.765625 41.0625 55.515625 
z
" id="DejaVuSans-114"/>
        <path d="M 56.203125 29.59375 
L 56.203125 25.203125 
L 14.890625 25.203125 
Q 15.484375 15.921875 20.484375 11.0625 
Q 25.484375 6.203125 34.421875 6.203125 
Q 39.59375 6.203125 44.453125 7.46875 
Q 49.3125 8.734375 54.109375 11.28125 
L 54.109375 2.78125 
Q 49.265625 0.734375 44.1875 -0.34375 
Q 39.109375 -1.421875 33.890625 -1.421875 
Q 20.796875 -1.421875 13.15625 6.1875 
Q 5.515625 13.8125 5.515625 26.8125 
Q 5.515625 40.234375 12.765625 48.109375 
Q 20.015625 56 32.328125 56 
Q 43.359375 56 49.78125 48.890625 
Q 56.203125 41.796875 56.203125 29.59375 
z
M 47.21875 32.234375 
Q 47.125 39.59375 43.09375 43.984375 
Q 39.0625 48.390625 32.421875 48.390625 
Q 24.90625 48.390625 20.390625 44.140625 
Q 15.875 39.890625 15.1875 32.171875 
z
" id="DejaVuSans-101"/>
        <path d="M 34.28125 27.484375 
Q 23.390625 27.484375 19.1875 25 
Q 14.984375 22.515625 14.984375 16.5 
Q 14.984375 11.71875 18.140625 8.90625 
Q 21.296875 6.109375 26.703125 6.109375 
Q 34.1875 6.109375 38.703125 11.40625 
Q 43.21875 16.703125 43.21875 25.484375 
L 43.21875 27.484375 
z
M 52.203125 31.203125 
L 52.203125 0 
L 43.21875 0 
L 43.21875 8.296875 
Q 40.140625 3.328125 35.546875 0.953125 
Q 30.953125 -1.421875 24.3125 -1.421875 
Q 15.921875 -1.421875 10.953125 3.296875 
Q 6 8.015625 6 15.921875 
Q 6 25.140625 12.171875 29.828125 
Q 18.359375 34.515625 30.609375 34.515625 
L 43.21875 34.515625 
L 43.21875 35.40625 
Q 43.21875 41.609375 39.140625 45 
Q 35.0625 48.390625 27.6875 48.390625 
Q 23 48.390625 18.546875 47.265625 
Q 14.109375 46.140625 10.015625 43.890625 
L 10.015625 52.203125 
Q 14.9375 54.109375 19.578125 55.046875 
Q 24.21875 56 28.609375 56 
Q 40.484375 56 46.34375 49.84375 
Q 52.203125 43.703125 52.203125 31.203125 
z
" id="DejaVuSans-97"/>
        <path d="M 18.3125 70.21875 
L 18.3125 54.6875 
L 36.8125 54.6875 
L 36.8125 47.703125 
L 18.3125 47.703125 
L 18.3125 18.015625 
Q 18.3125 11.328125 20.140625 9.421875 
Q 21.96875 7.515625 27.59375 7.515625 
L 36.8125 7.515625 
L 36.8125 0 
L 27.59375 0 
Q 17.1875 0 13.234375 3.875 
Q 9.28125 7.765625 9.28125 18.015625 
L 9.28125 47.703125 
L 2.6875 47.703125 
L 2.6875 54.6875 
L 9.28125 54.6875 
L 9.28125 70.21875 
z
" id="DejaVuSans-116"/>
        <path d="M 45.40625 46.390625 
L 45.40625 75.984375 
L 54.390625 75.984375 
L 54.390625 0 
L 45.40625 0 
L 45.40625 8.203125 
Q 42.578125 3.328125 38.25 0.953125 
Q 33.9375 -1.421875 27.875 -1.421875 
Q 17.96875 -1.421875 11.734375 6.484375 
Q 5.515625 14.40625 5.515625 27.296875 
Q 5.515625 40.1875 11.734375 48.09375 
Q 17.96875 56 27.875 56 
Q 33.9375 56 38.25 53.625 
Q 42.578125 51.265625 45.40625 46.390625 
z
M 14.796875 27.296875 
Q 14.796875 17.390625 18.875 11.75 
Q 22.953125 6.109375 30.078125 6.109375 
Q 37.203125 6.109375 41.296875 11.75 
Q 45.40625 17.390625 45.40625 27.296875 
Q 45.40625 37.203125 41.296875 42.84375 
Q 37.203125 48.484375 30.078125 48.484375 
Q 22.953125 48.484375 18.875 42.84375 
Q 14.796875 37.203125 14.796875 27.296875 
z
" id="DejaVuSans-100"/>
        <path id="DejaVuSans-32"/>
        <path d="M 44.28125 53.078125 
L 44.28125 44.578125 
Q 40.484375 46.53125 36.375 47.5 
Q 32.28125 48.484375 27.875 48.484375 
Q 21.1875 48.484375 17.84375 46.4375 
Q 14.5 44.390625 14.5 40.28125 
Q 14.5 37.15625 16.890625 35.375 
Q 19.28125 33.59375 26.515625 31.984375 
L 29.59375 31.296875 
Q 39.15625 29.25 43.1875 25.515625 
Q 47.21875 21.78125 47.21875 15.09375 
Q 47.21875 7.46875 41.1875 3.015625 
Q 35.15625 -1.421875 24.609375 -1.421875 
Q 20.21875 -1.421875 15.453125 -0.5625 
Q 10.6875 0.296875 5.421875 2 
L 5.421875 11.28125 
Q 10.40625 8.6875 15.234375 7.390625 
Q 20.0625 6.109375 24.8125 6.109375 
Q 31.15625 6.109375 34.5625 8.28125 
Q 37.984375 10.453125 37.984375 14.40625 
Q 37.984375 18.0625 35.515625 20.015625 
Q 33.0625 21.96875 24.703125 23.78125 
L 21.578125 24.515625 
Q 13.234375 26.265625 9.515625 29.90625 
Q 5.8125 33.546875 5.8125 39.890625 
Q 5.8125 47.609375 11.28125 51.796875 
Q 16.75 56 26.8125 56 
Q 31.78125 56 36.171875 55.265625 
Q 40.578125 54.546875 44.28125 53.078125 
z
" id="DejaVuSans-115"/>
        <path d="M 8.5 21.578125 
L 8.5 54.6875 
L 17.484375 54.6875 
L 17.484375 21.921875 
Q 17.484375 14.15625 20.5 10.265625 
Q 23.53125 6.390625 29.59375 6.390625 
Q 36.859375 6.390625 41.078125 11.03125 
Q 45.3125 15.671875 45.3125 23.6875 
L 45.3125 54.6875 
L 54.296875 54.6875 
L 54.296875 0 
L 45.3125 0 
L 45.3125 8.40625 
Q 42.046875 3.421875 37.71875 1 
Q 33.40625 -1.421875 27.6875 -1.421875 
Q 18.265625 -1.421875 13.375 4.4375 
Q 8.5 10.296875 8.5 21.578125 
z
M 31.109375 56 
z
" id="DejaVuSans-117"/>
        <path d="M 48.6875 27.296875 
Q 48.6875 37.203125 44.609375 42.84375 
Q 40.53125 48.484375 33.40625 48.484375 
Q 26.265625 48.484375 22.1875 42.84375 
Q 18.109375 37.203125 18.109375 27.296875 
Q 18.109375 17.390625 22.1875 11.75 
Q 26.265625 6.109375 33.40625 6.109375 
Q 40.53125 6.109375 44.609375 11.75 
Q 48.6875 17.390625 48.6875 27.296875 
z
M 18.109375 46.390625 
Q 20.953125 51.265625 25.265625 53.625 
Q 29.59375 56 35.59375 56 
Q 45.5625 56 51.78125 48.09375 
Q 58.015625 40.1875 58.015625 27.296875 
Q 58.015625 14.40625 51.78125 6.484375 
Q 45.5625 -1.421875 35.59375 -1.421875 
Q 29.59375 -1.421875 25.265625 0.953125 
Q 20.953125 3.328125 18.109375 8.203125 
L 18.109375 0 
L 9.078125 0 
L 9.078125 75.984375 
L 18.109375 75.984375 
z
" id="DejaVuSans-98"/>
       </defs>
       <use xlink:href="#DejaVuSans-84"/>
       <use x="46.333984" xlink:href="#DejaVuSans-114"/>
       <use x="85.197266" xlink:href="#DejaVuSans-101"/>
       <use x="146.720703" xlink:href="#DejaVuSans-97"/>
       <use x="208" xlink:href="#DejaVuSans-116"/>
       <use x="247.208984" xlink:href="#DejaVuSans-101"/>
       <use x="308.732422" xlink:href="#DejaVuSans-100"/>
       <use x="372.208984" xlink:href="#DejaVuSans-32"/>
       <use x="403.996094" xlink:href="#DejaVuSans-115"/>
       <use x="456.095703" xlink:href="#DejaVuSans-117"/>
       <use x="519.474609" xlink:href="#DejaVuSans-98"/>
       <use x="582.951172" xlink:href="#DejaVuSans-115"/>
       <use x="635.050781" xlink:href="#DejaVuSans-116"/>
       <use x="674.259766" xlink:href="#DejaVuSans-114"/>
       <use x="715.373047" xlink:href="#DejaVuSans-97"/>
       <use x="776.652344" xlink:href="#DejaVuSans-116"/>
       <use x="815.861328" xlink:href="#DejaVuSans-101"/>
      </g>
      <!-- (step width=0.43±0.04μm) -->
      <g transform="translate(56.33 258.77475)scale(0.14 -0.14)">
       <defs>
        <path d="M 31 75.875 
Q 24.46875 64.65625 21.28125 53.65625 
Q 18.109375 42.671875 18.109375 31.390625 
Q 18.109375 20.125 21.3125 9.0625 
Q 24.515625 -2 31 -13.1875 
L 23.1875 -13.1875 
Q 15.875 -1.703125 12.234375 9.375 
Q 8.59375 20.453125 8.59375 31.390625 
Q 8.59375 42.28125 12.203125 53.3125 
Q 15.828125 64.359375 23.1875 75.875 
z
" id="DejaVuSans-40"/>
        <path d="M 18.109375 8.203125 
L 18.109375 -20.796875 
L 9.078125 -20.796875 
L 9.078125 54.6875 
L 18.109375 54.6875 
L 18.109375 46.390625 
Q 20.953125 51.265625 25.265625 53.625 
Q 29.59375 56 35.59375 56 
Q 45.5625 56 51.78125 48.09375 
Q 58.015625 40.1875 58.015625 27.296875 
Q 58.015625 14.40625 51.78125 6.484375 
Q 45.5625 -1.421875 35.59375 -1.421875 
Q 29.59375 -1.421875 25.265625 0.953125 
Q 20.953125 3.328125 18.109375 8.203125 
z
M 48.6875 27.296875 
Q 48.6875 37.203125 44.609375 42.84375 
Q 40.53125 48.484375 33.40625 48.484375 
Q 26.265625 48.484375 22.1875 42.84375 
Q 18.109375 37.203125 18.109375 27.296875 
Q 18.109375 17.390625 22.1875 11.75 
Q 26.265625 6.109375 33.40625 6.109375 
Q 40.53125 6.109375 44.609375 11.75 
Q 48.6875 17.390625 48.6875 27.296875 
z
" id="DejaVuSans-112"/>
        <path d="M 4.203125 54.6875 
L 13.1875 54.6875 
L 24.421875 12.015625 
L 35.59375 54.6875 
L 46.1875 54.6875 
L 57.421875 12.015625 
L 68.609375 54.6875 
L 77.59375 54.6875 
L 63.28125 0 
L 52.6875 0 
L 40.921875 44.828125 
L 29.109375 0 
L 18.5 0 
z
" id="DejaVuSans-119"/>
        <path d="M 9.421875 54.6875 
L 18.40625 54.6875 
L 18.40625 0 
L 9.421875 0 
z
M 9.421875 75.984375 
L 18.40625 75.984375 
L 18.40625 64.59375 
L 9.421875 64.59375 
z
" id="DejaVuSans-105"/>
        <path d="M 54.890625 33.015625 
L 54.890625 0 
L 45.90625 0 
L 45.90625 32.71875 
Q 45.90625 40.484375 42.875 44.328125 
Q 39.84375 48.1875 33.796875 48.1875 
Q 26.515625 48.1875 22.3125 43.546875 
Q 18.109375 38.921875 18.109375 30.90625 
L 18.109375 0 
L 9.078125 0 
L 9.078125 75.984375 
L 18.109375 75.984375 
L 18.109375 46.1875 
Q 21.34375 51.125 25.703125 53.5625 
Q 30.078125 56 35.796875 56 
Q 45.21875 56 50.046875 50.171875 
Q 54.890625 44.34375 54.890625 33.015625 
z
" id="DejaVuSans-104"/>
        <path d="M 10.59375 45.40625 
L 73.1875 45.40625 
L 73.1875 37.203125 
L 10.59375 37.203125 
z
M 10.59375 25.484375 
L 73.1875 25.484375 
L 73.1875 17.1875 
L 10.59375 17.1875 
z
" id="DejaVuSans-61"/>
        <path d="M 31.78125 66.40625 
Q 24.171875 66.40625 20.328125 58.90625 
Q 16.5 51.421875 16.5 36.375 
Q 16.5 21.390625 20.328125 13.890625 
Q 24.171875 6.390625 31.78125 6.390625 
Q 39.453125 6.390625 43.28125 13.890625 
Q 47.125 21.390625 47.125 36.375 
Q 47.125 51.421875 43.28125 58.90625 
Q 39.453125 66.40625 31.78125 66.40625 
z
M 31.78125 74.21875 
Q 44.046875 74.21875 50.515625 64.515625 
Q 56.984375 54.828125 56.984375 36.375 
Q 56.984375 17.96875 50.515625 8.265625 
Q 44.046875 -1.421875 31.78125 -1.421875 
Q 19.53125 -1.421875 13.0625 8.265625 
Q 6.59375 17.96875 6.59375 36.375 
Q 6.59375 54.828125 13.0625 64.515625 
Q 19.53125 74.21875 31.78125 74.21875 
z
" id="DejaVuSans-48"/>
        <path d="M 10.6875 12.40625 
L 21 12.40625 
L 21 0 
L 10.6875 0 
z
" id="DejaVuSans-46"/>
        <path d="M 37.796875 64.3125 
L 12.890625 25.390625 
L 37.796875 25.390625 
z
M 35.203125 72.90625 
L 47.609375 72.90625 
L 47.609375 25.390625 
L 58.015625 25.390625 
L 58.015625 17.1875 
L 47.609375 17.1875 
L 47.609375 0 
L 37.796875 0 
L 37.796875 17.1875 
L 4.890625 17.1875 
L 4.890625 26.703125 
z
" id="DejaVuSans-52"/>
        <path d="M 40.578125 39.3125 
Q 47.65625 37.796875 51.625 33 
Q 55.609375 28.21875 55.609375 21.1875 
Q 55.609375 10.40625 48.1875 4.484375 
Q 40.765625 -1.421875 27.09375 -1.421875 
Q 22.515625 -1.421875 17.65625 -0.515625 
Q 12.796875 0.390625 7.625 2.203125 
L 7.625 11.71875 
Q 11.71875 9.328125 16.59375 8.109375 
Q 21.484375 6.890625 26.8125 6.890625 
Q 36.078125 6.890625 40.9375 10.546875 
Q 45.796875 14.203125 45.796875 21.1875 
Q 45.796875 27.640625 41.28125 31.265625 
Q 36.765625 34.90625 28.71875 34.90625 
L 20.21875 34.90625 
L 20.21875 43.015625 
L 29.109375 43.015625 
Q 36.375 43.015625 40.234375 45.921875 
Q 44.09375 48.828125 44.09375 54.296875 
Q 44.09375 59.90625 40.109375 62.90625 
Q 36.140625 65.921875 28.71875 65.921875 
Q 24.65625 65.921875 20.015625 65.03125 
Q 15.375 64.15625 9.8125 62.3125 
L 9.8125 71.09375 
Q 15.4375 72.65625 20.34375 73.4375 
Q 25.25 74.21875 29.59375 74.21875 
Q 40.828125 74.21875 47.359375 69.109375 
Q 53.90625 64.015625 53.90625 55.328125 
Q 53.90625 49.265625 50.4375 45.09375 
Q 46.96875 40.921875 40.578125 39.3125 
z
" id="DejaVuSans-51"/>
        <path d="M 46 62.703125 
L 46 43.796875 
L 73.1875 43.796875 
L 73.1875 35.5 
L 46 35.5 
L 46 16.609375 
L 37.796875 16.609375 
L 37.796875 35.5 
L 10.59375 35.5 
L 10.59375 43.796875 
L 37.796875 43.796875 
L 37.796875 62.703125 
z
M 10.59375 8.296875 
L 73.1875 8.296875 
L 73.1875 0 
L 10.59375 0 
z
" id="DejaVuSans-177"/>
        <path d="M 8.5 -20.796875 
L 8.5 54.6875 
L 17.484375 54.6875 
L 17.484375 20.703125 
Q 17.484375 13.625 20.84375 10 
Q 24.21875 6.390625 30.8125 6.390625 
Q 38.03125 6.390625 41.671875 10.484375 
Q 45.3125 14.59375 45.3125 22.796875 
L 45.3125 54.6875 
L 54.296875 54.6875 
L 54.296875 12.59375 
Q 54.296875 9.671875 55.140625 8.28125 
Q 56 6.890625 57.8125 6.890625 
Q 58.25 6.890625 59.03125 7.15625 
Q 59.8125 7.421875 61.1875 8.015625 
L 61.1875 0.78125 
Q 59.1875 -0.34375 57.390625 -0.875 
Q 55.609375 -1.421875 53.90625 -1.421875 
Q 50.53125 -1.421875 48.53125 0.484375 
Q 46.53125 2.390625 45.796875 6.296875 
Q 43.359375 2.4375 39.8125 0.5 
Q 36.28125 -1.421875 31.5 -1.421875 
Q 26.515625 -1.421875 23.015625 0.484375 
Q 19.53125 2.390625 17.484375 6.203125 
L 17.484375 -20.796875 
z
" id="DejaVuSans-956"/>
        <path d="M 52 44.1875 
Q 55.375 50.25 60.0625 53.125 
Q 64.75 56 71.09375 56 
Q 79.640625 56 84.28125 50.015625 
Q 88.921875 44.046875 88.921875 33.015625 
L 88.921875 0 
L 79.890625 0 
L 79.890625 32.71875 
Q 79.890625 40.578125 77.09375 44.375 
Q 74.3125 48.1875 68.609375 48.1875 
Q 61.625 48.1875 57.5625 43.546875 
Q 53.515625 38.921875 53.515625 30.90625 
L 53.515625 0 
L 44.484375 0 
L 44.484375 32.71875 
Q 44.484375 40.625 41.703125 44.40625 
Q 38.921875 48.1875 33.109375 48.1875 
Q 26.21875 48.1875 22.15625 43.53125 
Q 18.109375 38.875 18.109375 30.90625 
L 18.109375 0 
L 9.078125 0 
L 9.078125 54.6875 
L 18.109375 54.6875 
L 18.109375 46.1875 
Q 21.1875 51.21875 25.484375 53.609375 
Q 29.78125 56 35.6875 56 
Q 41.65625 56 45.828125 52.96875 
Q 50 49.953125 52 44.1875 
z
" id="DejaVuSans-109"/>
        <path d="M 8.015625 75.875 
L 15.828125 75.875 
Q 23.140625 64.359375 26.78125 53.3125 
Q 30.421875 42.28125 30.421875 31.390625 
Q 30.421875 20.453125 26.78125 9.375 
Q 23.140625 -1.703125 15.828125 -13.1875 
L 8.015625 -13.1875 
Q 14.5 -2 17.703125 9.0625 
Q 20.90625 20.125 20.90625 31.390625 
Q 20.90625 42.671875 17.703125 53.65625 
Q 14.5 64.65625 8.015625 75.875 
z
" id="DejaVuSans-41"/>
       </defs>
       <use xlink:href="#DejaVuSans-40"/>
       <use x="39.013672" xlink:href="#DejaVuSans-115"/>
       <use x="91.113281" xlink:href="#DejaVuSans-116"/>
       <use x="130.322266" xlink:href="#DejaVuSans-101"/>
       <use x="191.845703" xlink:href="#DejaVuSans-112"/>
       <use x="255.322266" xlink:href="#DejaVuSans-32"/>
       <use x="287.109375" xlink:href="#DejaVuSans-119"/>
       <use x="368.896484" xlink:href="#DejaVuSans-105"/>
       <use x="396.679688" xlink:href="#DejaVuSans-100"/>
       <use x="460.15625" xlink:href="#DejaVuSans-116"/>
       <use x="499.365234" xlink:href="#DejaVuSans-104"/>
       <use x="562.744141" xlink:href="#DejaVuSans-61"/>
       <use x="646.533203" xlink:href="#DejaVuSans-48"/>
       <use x="710.15625" xlink:href="#DejaVuSans-46"/>
       <use x="741.943359" xlink:href="#DejaVuSans-52"/>
       <use x="805.566406" xlink:href="#DejaVuSans-51"/>
       <use x="869.189453" xlink:href="#DejaVuSans-177"/>
       <use x="952.978516" xlink:href="#DejaVuSans-48"/>
       <use x="1016.601562" xlink:href="#DejaVuSans-46"/>
       <use x="1048.388672" xlink:href="#DejaVuSans-48"/>
       <use x="1112.011719" xlink:href="#DejaVuSans-52"/>
       <use x="1175.634766" xlink:href="#DejaVuSans-956"/>
       <use x="1239.257812" xlink:href="#DejaVuSans-109"/>
       <use x="1336.669922" xlink:href="#DejaVuSans-41"/>
      </g>
     </g>
    </g>
    <g id="xtick_2">
     <g id="line2d_3">
      <g>
       <use style="stroke:#000000;stroke-width:0.8;" x="375.828125" xlink:href="#m04becbab29" y="228.96"/>
      </g>
     </g>
     <g id="line2d_4">
      <g>
       <use style="stroke:#000000;stroke-width:0.8;" x="375.828125" xlink:href="#mf01d1a4229" y="7.2"/>
      </g>
     </g>
     <g id="text_2">
      <!-- Treated substrate -->
      <g transform="translate(314.411875 243.097812)scale(0.14 -0.14)">
       <use xlink:href="#DejaVuSans-84"/>
       <use x="46.333984" xlink:href="#DejaVuSans-114"/>
       <use x="85.197266" xlink:href="#DejaVuSans-101"/>
       <use x="146.720703" xlink:href="#DejaVuSans-97"/>
       <use x="208" xlink:href="#DejaVuSans-116"/>
       <use x="247.208984" xlink:href="#DejaVuSans-101"/>
       <use x="308.732422" xlink:href="#DejaVuSans-100"/>
       <use x="372.208984" xlink:href="#DejaVuSans-32"/>
       <use x="403.996094" xlink:href="#DejaVuSans-115"/>
       <use x="456.095703" xlink:href="#DejaVuSans-117"/>
       <use x="519.474609" xlink:href="#DejaVuSans-98"/>
       <use x="582.951172" xlink:href="#DejaVuSans-115"/>
       <use x="635.050781" xlink:href="#DejaVuSans-116"/>
       <use x="674.259766" xlink:href="#DejaVuSans-114"/>
       <use x="715.373047" xlink:href="#DejaVuSans-97"/>
       <use x="776.652344" xlink:href="#DejaVuSans-116"/>
       <use x="815.861328" xlink:href="#DejaVuSans-101"/>
      </g>
      <!-- (step width=0.11±0.01μm) -->
      <g transform="translate(279.53 258.77475)scale(0.14 -0.14)">
       <defs>
        <path d="M 12.40625 8.296875 
L 28.515625 8.296875 
L 28.515625 63.921875 
L 10.984375 60.40625 
L 10.984375 69.390625 
L 28.421875 72.90625 
L 38.28125 72.90625 
L 38.28125 8.296875 
L 54.390625 8.296875 
L 54.390625 0 
L 12.40625 0 
z
" id="DejaVuSans-49"/>
       </defs>
       <use xlink:href="#DejaVuSans-40"/>
       <use x="39.013672" xlink:href="#DejaVuSans-115"/>
       <use x="91.113281" xlink:href="#DejaVuSans-116"/>
       <use x="130.322266" xlink:href="#DejaVuSans-101"/>
       <use x="191.845703" xlink:href="#DejaVuSans-112"/>
       <use x="255.322266" xlink:href="#DejaVuSans-32"/>
       <use x="287.109375" xlink:href="#DejaVuSans-119"/>
       <use x="368.896484" xlink:href="#DejaVuSans-105"/>
       <use x="396.679688" xlink:href="#DejaVuSans-100"/>
       <use x="460.15625" xlink:href="#DejaVuSans-116"/>
       <use x="499.365234" xlink:href="#DejaVuSans-104"/>
       <use x="562.744141" xlink:href="#DejaVuSans-61"/>
       <use x="646.533203" xlink:href="#DejaVuSans-48"/>
       <use x="710.15625" xlink:href="#DejaVuSans-46"/>
       <use x="741.943359" xlink:href="#DejaVuSans-49"/>
       <use x="805.566406" xlink:href="#DejaVuSans-49"/>
       <use x="869.189453" xlink:href="#DejaVuSans-177"/>
       <use x="952.978516" xlink:href="#DejaVuSans-48"/>
       <use x="1016.601562" xlink:href="#DejaVuSans-46"/>
       <use x="1048.388672" xlink:href="#DejaVuSans-48"/>
       <use x="1112.011719" xlink:href="#DejaVuSans-49"/>
       <use x="1175.634766" xlink:href="#DejaVuSans-956"/>
       <use x="1239.257812" xlink:href="#DejaVuSans-109"/>
       <use x="1336.669922" xlink:href="#DejaVuSans-41"/>
      </g>
     </g>
    </g>
    <g id="xtick_3">
     <g id="line2d_5">
      <g>
       <use style="stroke:#000000;stroke-width:0.8;" x="599.028125" xlink:href="#m04becbab29" y="228.96"/>
      </g>
     </g>
     <g id="line2d_6">
      <g>
       <use style="stroke:#000000;stroke-width:0.8;" x="599.028125" xlink:href="#mf01d1a4229" y="7.2"/>
      </g>
     </g>
     <g id="text_3">
      <!-- Untreated substrate -->
      <g transform="translate(528.55125 243.097812)scale(0.14 -0.14)">
       <defs>
        <path d="M 8.6875 72.90625 
L 18.609375 72.90625 
L 18.609375 28.609375 
Q 18.609375 16.890625 22.84375 11.734375 
Q 27.09375 6.59375 36.625 6.59375 
Q 46.09375 6.59375 50.34375 11.734375 
Q 54.59375 16.890625 54.59375 28.609375 
L 54.59375 72.90625 
L 64.5 72.90625 
L 64.5 27.390625 
Q 64.5 13.140625 57.4375 5.859375 
Q 50.390625 -1.421875 36.625 -1.421875 
Q 22.796875 -1.421875 15.734375 5.859375 
Q 8.6875 13.140625 8.6875 27.390625 
z
" id="DejaVuSans-85"/>
        <path d="M 54.890625 33.015625 
L 54.890625 0 
L 45.90625 0 
L 45.90625 32.71875 
Q 45.90625 40.484375 42.875 44.328125 
Q 39.84375 48.1875 33.796875 48.1875 
Q 26.515625 48.1875 22.3125 43.546875 
Q 18.109375 38.921875 18.109375 30.90625 
L 18.109375 0 
L 9.078125 0 
L 9.078125 54.6875 
L 18.109375 54.6875 
L 18.109375 46.1875 
Q 21.34375 51.125 25.703125 53.5625 
Q 30.078125 56 35.796875 56 
Q 45.21875 56 50.046875 50.171875 
Q 54.890625 44.34375 54.890625 33.015625 
z
" id="DejaVuSans-110"/>
       </defs>
       <use xlink:href="#DejaVuSans-85"/>
       <use x="73.193359" xlink:href="#DejaVuSans-110"/>
       <use x="136.572266" xlink:href="#DejaVuSans-116"/>
       <use x="175.78125" xlink:href="#DejaVuSans-114"/>
       <use x="214.644531" xlink:href="#DejaVuSans-101"/>
       <use x="276.167969" xlink:href="#DejaVuSans-97"/>
       <use x="337.447266" xlink:href="#DejaVuSans-116"/>
       <use x="376.65625" xlink:href="#DejaVuSans-101"/>
       <use x="438.179688" xlink:href="#DejaVuSans-100"/>
       <use x="501.65625" xlink:href="#DejaVuSans-32"/>
       <use x="533.443359" xlink:href="#DejaVuSans-115"/>
       <use x="585.542969" xlink:href="#DejaVuSans-117"/>
       <use x="648.921875" xlink:href="#DejaVuSans-98"/>
       <use x="712.398438" xlink:href="#DejaVuSans-115"/>
       <use x="764.498047" xlink:href="#DejaVuSans-116"/>
       <use x="803.707031" xlink:href="#DejaVuSans-114"/>
       <use x="844.820312" xlink:href="#DejaVuSans-97"/>
       <use x="906.099609" xlink:href="#DejaVuSans-116"/>
       <use x="945.308594" xlink:href="#DejaVuSans-101"/>
      </g>
      <!-- (step width=0.28±0.03μm) -->
      <g transform="translate(502.73 258.77475)scale(0.14 -0.14)">
       <defs>
        <path d="M 19.1875 8.296875 
L 53.609375 8.296875 
L 53.609375 0 
L 7.328125 0 
L 7.328125 8.296875 
Q 12.9375 14.109375 22.625 23.890625 
Q 32.328125 33.6875 34.8125 36.53125 
Q 39.546875 41.84375 41.421875 45.53125 
Q 43.3125 49.21875 43.3125 52.78125 
Q 43.3125 58.59375 39.234375 62.25 
Q 35.15625 65.921875 28.609375 65.921875 
Q 23.96875 65.921875 18.8125 64.3125 
Q 13.671875 62.703125 7.8125 59.421875 
L 7.8125 69.390625 
Q 13.765625 71.78125 18.9375 73 
Q 24.125 74.21875 28.421875 74.21875 
Q 39.75 74.21875 46.484375 68.546875 
Q 53.21875 62.890625 53.21875 53.421875 
Q 53.21875 48.921875 51.53125 44.890625 
Q 49.859375 40.875 45.40625 35.40625 
Q 44.1875 33.984375 37.640625 27.21875 
Q 31.109375 20.453125 19.1875 8.296875 
z
" id="DejaVuSans-50"/>
        <path d="M 31.78125 34.625 
Q 24.75 34.625 20.71875 30.859375 
Q 16.703125 27.09375 16.703125 20.515625 
Q 16.703125 13.921875 20.71875 10.15625 
Q 24.75 6.390625 31.78125 6.390625 
Q 38.8125 6.390625 42.859375 10.171875 
Q 46.921875 13.96875 46.921875 20.515625 
Q 46.921875 27.09375 42.890625 30.859375 
Q 38.875 34.625 31.78125 34.625 
z
M 21.921875 38.8125 
Q 15.578125 40.375 12.03125 44.71875 
Q 8.5 49.078125 8.5 55.328125 
Q 8.5 64.0625 14.71875 69.140625 
Q 20.953125 74.21875 31.78125 74.21875 
Q 42.671875 74.21875 48.875 69.140625 
Q 55.078125 64.0625 55.078125 55.328125 
Q 55.078125 49.078125 51.53125 44.71875 
Q 48 40.375 41.703125 38.8125 
Q 48.828125 37.15625 52.796875 32.3125 
Q 56.78125 27.484375 56.78125 20.515625 
Q 56.78125 9.90625 50.3125 4.234375 
Q 43.84375 -1.421875 31.78125 -1.421875 
Q 19.734375 -1.421875 13.25 4.234375 
Q 6.78125 9.90625 6.78125 20.515625 
Q 6.78125 27.484375 10.78125 32.3125 
Q 14.796875 37.15625 21.921875 38.8125 
z
M 18.3125 54.390625 
Q 18.3125 48.734375 21.84375 45.5625 
Q 25.390625 42.390625 31.78125 42.390625 
Q 38.140625 42.390625 41.71875 45.5625 
Q 45.3125 48.734375 45.3125 54.390625 
Q 45.3125 60.0625 41.71875 63.234375 
Q 38.140625 66.40625 31.78125 66.40625 
Q 25.390625 66.40625 21.84375 63.234375 
Q 18.3125 60.0625 18.3125 54.390625 
z
" id="DejaVuSans-56"/>
       </defs>
       <use xlink:href="#DejaVuSans-40"/>
       <use x="39.013672" xlink:href="#DejaVuSans-115"/>
       <use x="91.113281" xlink:href="#DejaVuSans-116"/>
       <use x="130.322266" xlink:href="#DejaVuSans-101"/>
       <use x="191.845703" xlink:href="#DejaVuSans-112"/>
       <use x="255.322266" xlink:href="#DejaVuSans-32"/>
       <use x="287.109375" xlink:href="#DejaVuSans-119"/>
       <use x="368.896484" xlink:href="#DejaVuSans-105"/>
       <use x="396.679688" xlink:href="#DejaVuSans-100"/>
       <use x="460.15625" xlink:href="#DejaVuSans-116"/>
       <use x="499.365234" xlink:href="#DejaVuSans-104"/>
       <use x="562.744141" xlink:href="#DejaVuSans-61"/>
       <use x="646.533203" xlink:href="#DejaVuSans-48"/>
       <use x="710.15625" xlink:href="#DejaVuSans-46"/>
       <use x="741.943359" xlink:href="#DejaVuSans-50"/>
       <use x="805.566406" xlink:href="#DejaVuSans-56"/>
       <use x="869.189453" xlink:href="#DejaVuSans-177"/>
       <use x="952.978516" xlink:href="#DejaVuSans-48"/>
       <use x="1016.601562" xlink:href="#DejaVuSans-46"/>
       <use x="1048.388672" xlink:href="#DejaVuSans-48"/>
       <use x="1112.011719" xlink:href="#DejaVuSans-51"/>
       <use x="1175.634766" xlink:href="#DejaVuSans-956"/>
       <use x="1239.257812" xlink:href="#DejaVuSans-109"/>
       <use x="1336.669922" xlink:href="#DejaVuSans-41"/>
      </g>
     </g>
    </g>
   </g>
   <g id="matplotlib.axis_2">
    <g id="ytick_1">
     <g id="line2d_7">
      <defs>
       <path d="M 0 0 
L 3.5 0 
" id="m056b1f2160" style="stroke:#000000;stroke-width:0.8;"/>
      </defs>
      <g>
       <use style="stroke:#000000;stroke-width:0.8;" x="41.028125" xlink:href="#m056b1f2160" y="192.94143"/>
      </g>
     </g>
     <g id="line2d_8">
      <defs>
       <path d="M 0 0 
L -3.5 0 
" id="m749e02409c" style="stroke:#000000;stroke-width:0.8;"/>
      </defs>
      <g>
       <use style="stroke:#000000;stroke-width:0.8;" x="710.628125" xlink:href="#m749e02409c" y="192.94143"/>
      </g>
     </g>
     <g id="text_4">
      <!-- 0 -->
      <g transform="translate(28.620625 198.260336)scale(0.14 -0.14)">
       <use xlink:href="#DejaVuSans-48"/>
      </g>
     </g>
    </g>
    <g id="ytick_2">
     <g id="line2d_9">
      <g>
       <use style="stroke:#000000;stroke-width:0.8;" x="41.028125" xlink:href="#m056b1f2160" y="133.052286"/>
      </g>
     </g>
     <g id="line2d_10">
      <g>
       <use style="stroke:#000000;stroke-width:0.8;" x="710.628125" xlink:href="#m749e02409c" y="133.052286"/>
      </g>
     </g>
     <g id="text_5">
      <!-- 2 -->
      <g transform="translate(28.620625 138.371192)scale(0.14 -0.14)">
       <use xlink:href="#DejaVuSans-50"/>
      </g>
     </g>
    </g>
    <g id="ytick_3">
     <g id="line2d_11">
      <g>
       <use style="stroke:#000000;stroke-width:0.8;" x="41.028125" xlink:href="#m056b1f2160" y="73.163142"/>
      </g>
     </g>
     <g id="line2d_12">
      <g>
       <use style="stroke:#000000;stroke-width:0.8;" x="710.628125" xlink:href="#m749e02409c" y="73.163142"/>
      </g>
     </g>
     <g id="text_6">
      <!-- 4 -->
      <g transform="translate(28.620625 78.482048)scale(0.14 -0.14)">
       <use xlink:href="#DejaVuSans-52"/>
      </g>
     </g>
    </g>
    <g id="ytick_4">
     <g id="line2d_13">
      <g>
       <use style="stroke:#000000;stroke-width:0.8;" x="41.028125" xlink:href="#m056b1f2160" y="13.273998"/>
      </g>
     </g>
     <g id="line2d_14">
      <g>
       <use style="stroke:#000000;stroke-width:0.8;" x="710.628125" xlink:href="#m749e02409c" y="13.273998"/>
      </g>
     </g>
     <g id="text_7">
      <!-- 6 -->
      <g transform="translate(28.620625 18.592904)scale(0.14 -0.14)">
       <defs>
        <path d="M 33.015625 40.375 
Q 26.375 40.375 22.484375 35.828125 
Q 18.609375 31.296875 18.609375 23.390625 
Q 18.609375 15.53125 22.484375 10.953125 
Q 26.375 6.390625 33.015625 6.390625 
Q 39.65625 6.390625 43.53125 10.953125 
Q 47.40625 15.53125 47.40625 23.390625 
Q 47.40625 31.296875 43.53125 35.828125 
Q 39.65625 40.375 33.015625 40.375 
z
M 52.59375 71.296875 
L 52.59375 62.3125 
Q 48.875 64.0625 45.09375 64.984375 
Q 41.3125 65.921875 37.59375 65.921875 
Q 27.828125 65.921875 22.671875 59.328125 
Q 17.53125 52.734375 16.796875 39.40625 
Q 19.671875 43.65625 24.015625 45.921875 
Q 28.375 48.1875 33.59375 48.1875 
Q 44.578125 48.1875 50.953125 41.515625 
Q 57.328125 34.859375 57.328125 23.390625 
Q 57.328125 12.15625 50.6875 5.359375 
Q 44.046875 -1.421875 33.015625 -1.421875 
Q 20.359375 -1.421875 13.671875 8.265625 
Q 6.984375 17.96875 6.984375 36.375 
Q 6.984375 53.65625 15.1875 63.9375 
Q 23.390625 74.21875 37.203125 74.21875 
Q 40.921875 74.21875 44.703125 73.484375 
Q 48.484375 72.75 52.59375 71.296875 
z
" id="DejaVuSans-54"/>
       </defs>
       <use xlink:href="#DejaVuSans-54"/>
      </g>
     </g>
    </g>
    <g id="text_8">
     <!-- Characteristic Time (s) -->
     <g transform="translate(20.877187 220.131562)rotate(-90)scale(0.18 -0.18)">
      <defs>
       <path d="M 64.40625 67.28125 
L 64.40625 56.890625 
Q 59.421875 61.53125 53.78125 63.8125 
Q 48.140625 66.109375 41.796875 66.109375 
Q 29.296875 66.109375 22.65625 58.46875 
Q 16.015625 50.828125 16.015625 36.375 
Q 16.015625 21.96875 22.65625 14.328125 
Q 29.296875 6.6875 41.796875 6.6875 
Q 48.140625 6.6875 53.78125 8.984375 
Q 59.421875 11.28125 64.40625 15.921875 
L 64.40625 5.609375 
Q 59.234375 2.09375 53.4375 0.328125 
Q 47.65625 -1.421875 41.21875 -1.421875 
Q 24.65625 -1.421875 15.125 8.703125 
Q 5.609375 18.84375 5.609375 36.375 
Q 5.609375 53.953125 15.125 64.078125 
Q 24.65625 74.21875 41.21875 74.21875 
Q 47.75 74.21875 53.53125 72.484375 
Q 59.328125 70.75 64.40625 67.28125 
z
" id="DejaVuSans-67"/>
       <path d="M 48.78125 52.59375 
L 48.78125 44.1875 
Q 44.96875 46.296875 41.140625 47.34375 
Q 37.3125 48.390625 33.40625 48.390625 
Q 24.65625 48.390625 19.8125 42.84375 
Q 14.984375 37.3125 14.984375 27.296875 
Q 14.984375 17.28125 19.8125 11.734375 
Q 24.65625 6.203125 33.40625 6.203125 
Q 37.3125 6.203125 41.140625 7.25 
Q 44.96875 8.296875 48.78125 10.40625 
L 48.78125 2.09375 
Q 45.015625 0.34375 40.984375 -0.53125 
Q 36.96875 -1.421875 32.421875 -1.421875 
Q 20.0625 -1.421875 12.78125 6.34375 
Q 5.515625 14.109375 5.515625 27.296875 
Q 5.515625 40.671875 12.859375 48.328125 
Q 20.21875 56 33.015625 56 
Q 37.15625 56 41.109375 55.140625 
Q 45.0625 54.296875 48.78125 52.59375 
z
" id="DejaVuSans-99"/>
      </defs>
      <use xlink:href="#DejaVuSans-67"/>
      <use x="69.824219" xlink:href="#DejaVuSans-104"/>
      <use x="133.203125" xlink:href="#DejaVuSans-97"/>
      <use x="194.482422" xlink:href="#DejaVuSans-114"/>
      <use x="235.595703" xlink:href="#DejaVuSans-97"/>
      <use x="296.875" xlink:href="#DejaVuSans-99"/>
      <use x="351.855469" xlink:href="#DejaVuSans-116"/>
      <use x="391.064453" xlink:href="#DejaVuSans-101"/>
      <use x="452.587891" xlink:href="#DejaVuSans-114"/>
      <use x="493.701172" xlink:href="#DejaVuSans-105"/>
      <use x="521.484375" xlink:href="#DejaVuSans-115"/>
      <use x="573.583984" xlink:href="#DejaVuSans-116"/>
      <use x="612.792969" xlink:href="#DejaVuSans-105"/>
      <use x="640.576172" xlink:href="#DejaVuSans-99"/>
      <use x="695.556641" xlink:href="#DejaVuSans-32"/>
      <use x="727.34375" xlink:href="#DejaVuSans-84"/>
      <use x="785.302734" xlink:href="#DejaVuSans-105"/>
      <use x="813.085938" xlink:href="#DejaVuSans-109"/>
      <use x="910.498047" xlink:href="#DejaVuSans-101"/>
      <use x="972.021484" xlink:href="#DejaVuSans-32"/>
      <use x="1003.808594" xlink:href="#DejaVuSans-40"/>
      <use x="1042.822266" xlink:href="#DejaVuSans-115"/>
      <use x="1094.921875" xlink:href="#DejaVuSans-41"/>
     </g>
    </g>
   </g>
   <g id="line2d_15">
    <path clip-path="url(#pc7f50582a6)" d="M 152.628125 192.94143 
L 152.628125 192.94143 
" style="fill:none;stroke:#373737;stroke-linecap:square;stroke-width:0.8;"/>
   </g>
   <g id="line2d_16">
    <path clip-path="url(#pc7f50582a6)" d="M 152.628125 192.94143 
L 152.628125 192.94143 
" style="fill:none;stroke:#373737;stroke-linecap:square;stroke-width:2.4;"/>
   </g>
   <g id="line2d_17">
    <path clip-path="url(#pc7f50582a6)" d="M 375.828125 192.94143 
L 375.828125 118.08 
" style="fill:none;stroke:#373737;stroke-linecap:square;stroke-width:0.8;"/>
   </g>
   <g id="line2d_18">
    <path clip-path="url(#pc7f50582a6)" d="M 375.828125 181.861938 
L 375.828125 155.510715 
" style="fill:none;stroke:#373737;stroke-linecap:square;stroke-width:2.4;"/>
   </g>
   <g id="line2d_19">
    <path clip-path="url(#pc7f50582a6)" d="M 599.028125 192.94143 
L 599.028125 159.702955 
" style="fill:none;stroke:#373737;stroke-linecap:square;stroke-width:0.8;"/>
   </g>
   <g id="line2d_20">
    <path clip-path="url(#pc7f50582a6)" d="M 599.028125 191.36934 
L 599.028125 176.17247 
" style="fill:none;stroke:#373737;stroke-linecap:square;stroke-width:2.4;"/>
   </g>
   <g id="patch_3">
    <path d="M 41.028125 228.96 
L 41.028125 7.2 
" style="fill:none;stroke:#000000;stroke-linecap:square;stroke-linejoin:miter;stroke-width:0.8;"/>
   </g>
   <g id="patch_4">
    <path d="M 710.628125 228.96 
L 710.628125 7.2 
" style="fill:none;stroke:#000000;stroke-linecap:square;stroke-linejoin:miter;stroke-width:0.8;"/>
   </g>
   <g id="patch_5">
    <path d="M 41.028125 228.96 
L 710.628125 228.96 
" style="fill:none;stroke:#000000;stroke-linecap:square;stroke-linejoin:miter;stroke-width:0.8;"/>
   </g>
   <g id="patch_6">
    <path d="M 41.028125 7.2 
L 710.628125 7.2 
" style="fill:none;stroke:#000000;stroke-linecap:square;stroke-linejoin:miter;stroke-width:0.8;"/>
   </g>
   <g id="PathCollection_1">
    <defs>
     <path d="M 0 0.8 
C 0.212162 0.8 0.415664 0.715707 0.565685 0.565685 
C 0.715707 0.415664 0.8 0.212162 0.8 0 
C 0.8 -0.212162 0.715707 -0.415664 0.565685 -0.565685 
C 0.415664 -0.715707 0.212162 -0.8 0 -0.8 
C -0.212162 -0.8 -0.415664 -0.715707 -0.565685 -0.565685 
C -0.715707 -0.415664 -0.8 -0.212162 -0.8 0 
C -0.8 0.212162 -0.715707 0.415664 -0.565685 0.565685 
C -0.415664 0.715707 -0.212162 0.8 0 0.8 
z
" id="m3fedadcf37" style="stroke:#373737;"/>
    </defs>
    <g clip-path="url(#pc7f50582a6)">
     <use style="fill:#ffffff;stroke:#373737;" x="152.628125" xlink:href="#m3fedadcf37" y="192.94143"/>
    </g>
   </g>
   <g id="PathCollection_2">
    <g clip-path="url(#pc7f50582a6)">
     <use style="fill:#ffffff;stroke:#373737;" x="375.828125" xlink:href="#m3fedadcf37" y="174.07635"/>
    </g>
   </g>
   <g id="PathCollection_3">
    <g clip-path="url(#pc7f50582a6)">
     <use style="fill:#ffffff;stroke:#373737;" x="599.028125" xlink:href="#m3fedadcf37" y="188.449744"/>
    </g>
   </g>
   <g id="text_9">
    <!-- 0.0 -->
    <g transform="translate(157.092125 192.94143)scale(0.14 -0.14)">
     <defs>
      <path d="M 46 36.53125 
Q 46 50.203125 43.4375 55.78125 
Q 40.875 61.375 34.8125 61.375 
Q 28.765625 61.375 26.171875 55.78125 
Q 23.578125 50.203125 23.578125 36.53125 
Q 23.578125 22.703125 26.171875 17.03125 
Q 28.765625 11.375 34.8125 11.375 
Q 40.828125 11.375 43.40625 17.03125 
Q 46 22.703125 46 36.53125 
z
M 64.796875 36.375 
Q 64.796875 18.265625 56.984375 8.421875 
Q 49.171875 -1.421875 34.8125 -1.421875 
Q 20.40625 -1.421875 12.59375 8.421875 
Q 4.78125 18.265625 4.78125 36.375 
Q 4.78125 54.546875 12.59375 64.375 
Q 20.40625 74.21875 34.8125 74.21875 
Q 49.171875 74.21875 56.984375 64.375 
Q 64.796875 54.546875 64.796875 36.375 
z
" id="DejaVuSans-Bold-48"/>
      <path d="M 10.203125 18.890625 
L 27.78125 18.890625 
L 27.78125 0 
L 10.203125 0 
z
" id="DejaVuSans-Bold-46"/>
     </defs>
     <use xlink:href="#DejaVuSans-Bold-48"/>
     <use x="69.580078" xlink:href="#DejaVuSans-Bold-46"/>
     <use x="107.568359" xlink:href="#DejaVuSans-Bold-48"/>
    </g>
   </g>
   <g id="text_10">
    <!-- 0.63 -->
    <g transform="translate(380.292125 179.735874)scale(0.14 -0.14)">
     <defs>
      <path d="M 36.1875 35.984375 
Q 31.25 35.984375 28.78125 32.78125 
Q 26.3125 29.59375 26.3125 23.1875 
Q 26.3125 16.796875 28.78125 13.59375 
Q 31.25 10.40625 36.1875 10.40625 
Q 41.15625 10.40625 43.625 13.59375 
Q 46.09375 16.796875 46.09375 23.1875 
Q 46.09375 29.59375 43.625 32.78125 
Q 41.15625 35.984375 36.1875 35.984375 
z
M 59.421875 71 
L 59.421875 57.515625 
Q 54.78125 59.71875 50.671875 60.765625 
Q 46.578125 61.8125 42.671875 61.8125 
Q 34.28125 61.8125 29.59375 57.140625 
Q 24.90625 52.484375 24.125 43.3125 
Q 27.34375 45.703125 31.09375 46.890625 
Q 34.859375 48.09375 39.3125 48.09375 
Q 50.484375 48.09375 57.34375 41.546875 
Q 64.203125 35.015625 64.203125 24.421875 
Q 64.203125 12.703125 56.53125 5.640625 
Q 48.875 -1.421875 35.984375 -1.421875 
Q 21.78125 -1.421875 13.984375 8.171875 
Q 6.203125 17.78125 6.203125 35.40625 
Q 6.203125 53.46875 15.3125 63.796875 
Q 24.421875 74.125 40.28125 74.125 
Q 45.3125 74.125 50.046875 73.34375 
Q 54.78125 72.5625 59.421875 71 
z
" id="DejaVuSans-Bold-54"/>
      <path d="M 46.578125 39.3125 
Q 53.953125 37.40625 57.78125 32.6875 
Q 61.625 27.984375 61.625 20.703125 
Q 61.625 9.859375 53.3125 4.21875 
Q 45.015625 -1.421875 29.109375 -1.421875 
Q 23.484375 -1.421875 17.84375 -0.515625 
Q 12.203125 0.390625 6.6875 2.203125 
L 6.6875 16.703125 
Q 11.96875 14.0625 17.15625 12.71875 
Q 22.359375 11.375 27.390625 11.375 
Q 34.859375 11.375 38.84375 13.953125 
Q 42.828125 16.546875 42.828125 21.390625 
Q 42.828125 26.375 38.75 28.9375 
Q 34.671875 31.5 26.703125 31.5 
L 19.1875 31.5 
L 19.1875 43.609375 
L 27.09375 43.609375 
Q 34.1875 43.609375 37.640625 45.828125 
Q 41.109375 48.046875 41.109375 52.59375 
Q 41.109375 56.78125 37.734375 59.078125 
Q 34.375 61.375 28.21875 61.375 
Q 23.6875 61.375 19.046875 60.34375 
Q 14.40625 59.328125 9.8125 57.328125 
L 9.8125 71.09375 
Q 15.375 72.65625 20.84375 73.4375 
Q 26.3125 74.21875 31.59375 74.21875 
Q 45.796875 74.21875 52.84375 69.546875 
Q 59.90625 64.890625 59.90625 55.515625 
Q 59.90625 49.125 56.53125 45.046875 
Q 53.171875 40.96875 46.578125 39.3125 
z
" id="DejaVuSans-Bold-51"/>
     </defs>
     <use xlink:href="#DejaVuSans-Bold-48"/>
     <use x="69.580078" xlink:href="#DejaVuSans-Bold-46"/>
     <use x="107.568359" xlink:href="#DejaVuSans-Bold-54"/>
     <use x="177.148438" xlink:href="#DejaVuSans-Bold-51"/>
    </g>
   </g>
   <g id="text_11">
    <!-- 0.15 -->
    <g transform="translate(603.492125 189.79725)scale(0.14 -0.14)">
     <defs>
      <path d="M 11.71875 12.984375 
L 28.328125 12.984375 
L 28.328125 60.109375 
L 11.28125 56.59375 
L 11.28125 69.390625 
L 28.21875 72.90625 
L 46.09375 72.90625 
L 46.09375 12.984375 
L 62.703125 12.984375 
L 62.703125 0 
L 11.71875 0 
z
" id="DejaVuSans-Bold-49"/>
      <path d="M 10.59375 72.90625 
L 57.328125 72.90625 
L 57.328125 59.078125 
L 25.59375 59.078125 
L 25.59375 47.796875 
Q 27.734375 48.390625 29.90625 48.703125 
Q 32.078125 49.03125 34.421875 49.03125 
Q 47.75 49.03125 55.171875 42.359375 
Q 62.59375 35.6875 62.59375 23.78125 
Q 62.59375 11.96875 54.515625 5.265625 
Q 46.4375 -1.421875 32.078125 -1.421875 
Q 25.875 -1.421875 19.796875 -0.21875 
Q 13.71875 0.984375 7.71875 3.421875 
L 7.71875 18.21875 
Q 13.671875 14.796875 19.015625 13.078125 
Q 24.359375 11.375 29.109375 11.375 
Q 35.9375 11.375 39.859375 14.71875 
Q 43.796875 18.0625 43.796875 23.78125 
Q 43.796875 29.546875 39.859375 32.859375 
Q 35.9375 36.1875 29.109375 36.1875 
Q 25.046875 36.1875 20.453125 35.125 
Q 15.875 34.078125 10.59375 31.890625 
z
" id="DejaVuSans-Bold-53"/>
     </defs>
     <use xlink:href="#DejaVuSans-Bold-48"/>
     <use x="69.580078" xlink:href="#DejaVuSans-Bold-46"/>
     <use x="107.568359" xlink:href="#DejaVuSans-Bold-49"/>
     <use x="177.148438" xlink:href="#DejaVuSans-Bold-53"/>
    </g>
   </g>
  </g>
 </g>
 <defs>
  <clipPath id="pc7f50582a6">
   <rect height="221.76" width="669.6" x="41.028125" y="7.2"/>
  </clipPath>
 </defs>
</svg>
