<?xml version="1.0" encoding="utf-8" standalone="no"?>
<!DOCTYPE svg PUBLIC "-//W3C//DTD SVG 1.1//EN"
  "http://www.w3.org/Graphics/SVG/1.1/DTD/svg11.dtd">
<!-- Created with matplotlib (https://matplotlib.org/) -->
<svg height="280.648187pt" version="1.1" viewBox="0 0 742.916562 280.648187" width="742.916562pt" xmlns="http://www.w3.org/2000/svg" xmlns:xlink="http://www.w3.org/1999/xlink">
 <metadata>
  <rdf:RDF xmlns:cc="http://creativecommons.org/ns#" xmlns:dc="http://purl.org/dc/elements/1.1/" xmlns:rdf="http://www.w3.org/1999/02/22-rdf-syntax-ns#">
   <cc:Work>
    <dc:type rdf:resource="http://purl.org/dc/dcmitype/StillImage"/>
    <dc:date>2022-12-06T11:06:48.292996</dc:date>
    <dc:format>image/svg+xml</dc:format>
    <dc:creator>
     <cc:Agent>
      <dc:title>Matplotlib v3.3.4, https://matplotlib.org/</dc:title>
     </cc:Agent>
    </dc:creator>
   </cc:Work>
  </rdf:RDF>
 </metadata>
 <defs>
  <style type="text/css">*{stroke-linecap:butt;stroke-linejoin:round;}</style>
 </defs>
 <g id="figure_1">
  <g id="patch_1">
   <path d="M 0 280.648187 
L 742.916562 280.648187 
L 742.916562 0 
L 0 0 
z
" style="fill:#ffffff;"/>
  </g>
  <g id="axes_1">
   <g id="patch_2">
    <path d="M 66.116563 240.721875 
L 735.716563 240.721875 
L 735.716563 18.961875 
L 66.116563 18.961875 
z
" style="fill:#ffffff;"/>
   </g>
   <g id="PolyCollection_1">
    <defs>
     <path d="M 187.750589 -63.383454 
L 167.682536 -63.383454 
L 164.98621 -64.260957 
L 161.78728 -65.138461 
L 158.058164 -66.015965 
L 153.788783 -66.893469 
L 148.991174 -67.770972 
L 143.703438 -68.648476 
L 137.992546 -69.52598 
L 131.955521 -70.403484 
L 125.718594 -71.280988 
L 119.434087 -72.158491 
L 113.274967 -73.035995 
L 107.427231 -73.913499 
L 102.080528 -74.791003 
L 97.417661 -75.668507 
L 93.603745 -76.54601 
L 90.775926 -77.423514 
L 89.034549 -78.301018 
L 88.436563 -79.178522 
L 88.991767 -80.056025 
L 90.66224 -80.933529 
L 93.364983 -81.811033 
L 96.977509 -82.688537 
L 101.345841 -83.566041 
L 106.294171 -84.443544 
L 111.635305 -85.321048 
L 117.181026 -86.198552 
L 122.751551 -87.076056 
L 128.18343 -87.95356 
L 133.335454 -88.831063 
L 138.092332 -89.708567 
L 142.366188 -90.586071 
L 146.096082 -91.463575 
L 149.245918 -92.341078 
L 151.801226 -93.218582 
L 153.765294 -94.096086 
L 155.15512 -94.97359 
L 155.997595 -95.851094 
L 156.326203 -96.728597 
L 156.178435 -97.606101 
L 155.593975 -98.483605 
L 154.613641 -99.361109 
L 153.278956 -100.238613 
L 151.632195 -101.116116 
L 149.716693 -101.99362 
L 147.57724 -102.871124 
L 145.260373 -103.748628 
L 142.814433 -104.626131 
L 140.289301 -105.503635 
L 137.735788 -106.381139 
L 135.204698 -107.258643 
L 132.745638 -108.136147 
L 130.405693 -109.01365 
L 128.228066 -109.891154 
L 126.250858 -110.768658 
L 124.506068 -111.646162 
L 123.018934 -112.523665 
L 121.807663 -113.401169 
L 120.883566 -114.278673 
L 120.25157 -115.156177 
L 119.911033 -116.033681 
L 119.856773 -116.911184 
L 120.080182 -117.788688 
L 120.570314 -118.666192 
L 121.314832 -119.543696 
L 122.30073 -120.4212 
L 123.514782 -121.298703 
L 124.943694 -122.176207 
L 126.574001 -123.053711 
L 128.391741 -123.931215 
L 130.382011 -124.808718 
L 132.528473 -125.686222 
L 134.812928 -126.563726 
L 137.215009 -127.44123 
L 139.712081 -128.318734 
L 142.279358 -129.196237 
L 144.890257 -130.073741 
L 147.516962 -130.951245 
L 150.131144 -131.828749 
L 152.704799 -132.706253 
L 155.21111 -133.583756 
L 157.625296 -134.46126 
L 159.925352 -135.338764 
L 162.092668 -136.216268 
L 164.112463 -137.093771 
L 165.974036 -137.971275 
L 167.67082 -138.848779 
L 169.200257 -139.726283 
L 170.563516 -140.603787 
L 171.765083 -141.48129 
L 172.812252 -142.358794 
L 173.71457 -143.236298 
L 174.483254 -144.113802 
L 175.130619 -144.991305 
L 175.669545 -145.868809 
L 176.113001 -146.746313 
L 176.473641 -147.623817 
L 176.763482 -148.501321 
L 176.993662 -149.378824 
L 177.174277 -150.256328 
L 178.258848 -150.256328 
L 178.258848 -150.256328 
L 178.439463 -149.378824 
L 178.669643 -148.501321 
L 178.959484 -147.623817 
L 179.320124 -146.746313 
L 179.76358 -145.868809 
L 180.302506 -144.991305 
L 180.949871 -144.113802 
L 181.718555 -143.236298 
L 182.620873 -142.358794 
L 183.668042 -141.48129 
L 184.869609 -140.603787 
L 186.232868 -139.726283 
L 187.762305 -138.848779 
L 189.459089 -137.971275 
L 191.320662 -137.093771 
L 193.340457 -136.216268 
L 195.507773 -135.338764 
L 197.807829 -134.46126 
L 200.222015 -133.583756 
L 202.728326 -132.706253 
L 205.301981 -131.828749 
L 207.916163 -130.951245 
L 210.542868 -130.073741 
L 213.153767 -129.196237 
L 215.721044 -128.318734 
L 218.218116 -127.44123 
L 220.620197 -126.563726 
L 222.904652 -125.686222 
L 225.051114 -124.808718 
L 227.041384 -123.931215 
L 228.859124 -123.053711 
L 230.489431 -122.176207 
L 231.918343 -121.298703 
L 233.132395 -120.4212 
L 234.118293 -119.543696 
L 234.862811 -118.666192 
L 235.352943 -117.788688 
L 235.576352 -116.911184 
L 235.522092 -116.033681 
L 235.181555 -115.156177 
L 234.549559 -114.278673 
L 233.625462 -113.401169 
L 232.414191 -112.523665 
L 230.927057 -111.646162 
L 229.182267 -110.768658 
L 227.205059 -109.891154 
L 225.027432 -109.01365 
L 222.687487 -108.136147 
L 220.228427 -107.258643 
L 217.697337 -106.381139 
L 215.143824 -105.503635 
L 212.618692 -104.626131 
L 210.172752 -103.748628 
L 207.855885 -102.871124 
L 205.716432 -101.99362 
L 203.80093 -101.116116 
L 202.154169 -100.238613 
L 200.819484 -99.361109 
L 199.83915 -98.483605 
L 199.25469 -97.606101 
L 199.106922 -96.728597 
L 199.43553 -95.851094 
L 200.278005 -94.97359 
L 201.667831 -94.096086 
L 203.631899 -93.218582 
L 206.187207 -92.341078 
L 209.337043 -91.463575 
L 213.066937 -90.586071 
L 217.340793 -89.708567 
L 222.097671 -88.831063 
L 227.249695 -87.95356 
L 232.681574 -87.076056 
L 238.252099 -86.198552 
L 243.79782 -85.321048 
L 249.138954 -84.443544 
L 254.087284 -83.566041 
L 258.455616 -82.688537 
L 262.068142 -81.811033 
L 264.770885 -80.933529 
L 266.441358 -80.056025 
L 266.996562 -79.178522 
L 266.398576 -78.301018 
L 264.657199 -77.423514 
L 261.82938 -76.54601 
L 258.015464 -75.668507 
L 253.352597 -74.791003 
L 248.005894 -73.913499 
L 242.158158 -73.035995 
L 235.999038 -72.158491 
L 229.714531 -71.280988 
L 223.477604 -70.403484 
L 217.440579 -69.52598 
L 211.729687 -68.648476 
L 206.441951 -67.770972 
L 201.644342 -66.893469 
L 197.374961 -66.015965 
L 193.645845 -65.138461 
L 190.446915 -64.260957 
L 187.750589 -63.383454 
z
" id="m05bffbe104" style="stroke:#373737;stroke-width:0.8;"/>
    </defs>
    <g clip-path="url(#pd968b322a8)">
     <use style="fill:#2b8e70;stroke:#373737;stroke-width:0.8;" x="0" xlink:href="#m05bffbe104" y="280.648187"/>
    </g>
   </g>
   <g id="PolyCollection_2">
    <defs>
     <path d="M 408.110068 -63.899029 
L 393.723057 -63.899029 
L 391.306674 -64.914943 
L 388.326149 -65.930858 
L 384.738039 -66.946773 
L 380.524834 -67.962687 
L 375.703178 -68.978602 
L 370.330462 -69.994516 
L 364.508562 -71.010431 
L 358.383615 -72.026345 
L 352.141096 -73.04226 
L 345.996026 -74.058175 
L 340.178792 -75.074089 
L 334.917798 -76.090004 
L 330.420703 -77.105918 
L 326.856429 -78.121833 
L 324.340105 -79.137747 
L 322.922866 -80.153662 
L 322.587813 -81.169577 
L 323.252607 -82.185491 
L 324.778318 -83.201406 
L 326.983323 -84.21732 
L 329.660465 -85.233235 
L 332.595383 -86.249149 
L 335.583968 -87.265064 
L 338.447179 -88.280979 
L 341.042005 -89.296893 
L 343.267928 -90.312808 
L 345.068851 -91.328722 
L 346.430941 -92.344637 
L 347.377179 -93.360551 
L 347.959599 -94.376466 
L 348.250264 -95.392381 
L 348.331945 -96.408295 
L 348.289367 -97.42421 
L 348.201739 -98.440124 
L 348.137043 -99.456039 
L 348.148425 -100.471953 
L 348.272745 -101.487868 
L 348.531163 -102.503783 
L 348.93141 -103.519697 
L 349.47121 -104.535612 
L 350.142222 -105.551526 
L 350.93383 -106.567441 
L 351.836193 -107.583355 
L 352.842118 -108.59927 
L 353.947587 -109.615185 
L 355.150968 -110.631099 
L 356.451243 -111.647014 
L 357.845717 -112.662928 
L 359.327745 -113.678843 
L 360.885028 -114.694757 
L 362.498839 -115.710672 
L 364.144396 -116.726587 
L 365.792358 -117.742501 
L 367.411203 -118.758416 
L 368.970121 -119.77433 
L 370.441967 -120.790245 
L 371.80582 -121.806159 
L 373.048801 -122.822074 
L 374.166921 -123.837989 
L 375.164901 -124.853903 
L 376.055047 -125.869818 
L 376.855409 -126.885732 
L 377.587507 -127.901647 
L 378.273942 -128.917561 
L 378.936194 -129.933476 
L 379.592826 -130.949391 
L 380.258261 -131.965305 
L 380.942182 -132.98122 
L 381.649531 -133.997134 
L 382.381032 -135.013049 
L 383.134083 -136.028964 
L 383.90387 -137.044878 
L 384.684546 -138.060793 
L 385.470303 -139.076707 
L 386.256249 -140.092622 
L 387.038983 -141.108536 
L 387.816833 -142.124451 
L 388.589766 -143.140366 
L 389.358994 -144.15628 
L 390.12638 -145.172195 
L 390.893712 -146.188109 
L 391.66199 -147.204024 
L 392.430807 -148.219938 
L 393.197934 -149.235853 
L 393.959162 -150.251768 
L 394.708425 -151.267682 
L 395.438183 -152.283597 
L 396.140007 -153.299511 
L 396.805298 -154.315426 
L 397.42602 -155.33134 
L 397.995371 -156.347255 
L 398.508313 -157.36317 
L 398.961896 -158.379084 
L 399.355367 -159.394999 
L 399.690071 -160.410913 
L 399.969177 -161.426828 
L 400.197284 -162.442742 
L 400.379969 -163.458657 
L 400.523321 -164.474572 
L 401.309804 -164.474572 
L 401.309804 -164.474572 
L 401.453156 -163.458657 
L 401.635841 -162.442742 
L 401.863948 -161.426828 
L 402.143054 -160.410913 
L 402.477758 -159.394999 
L 402.871229 -158.379084 
L 403.324812 -157.36317 
L 403.837754 -156.347255 
L 404.407105 -155.33134 
L 405.027827 -154.315426 
L 405.693118 -153.299511 
L 406.394942 -152.283597 
L 407.1247 -151.267682 
L 407.873963 -150.251768 
L 408.635191 -149.235853 
L 409.402318 -148.219938 
L 410.171135 -147.204024 
L 410.939413 -146.188109 
L 411.706745 -145.172195 
L 412.474131 -144.15628 
L 413.243359 -143.140366 
L 414.016292 -142.124451 
L 414.794142 -141.108536 
L 415.576876 -140.092622 
L 416.362822 -139.076707 
L 417.148579 -138.060793 
L 417.929255 -137.044878 
L 418.699042 -136.028964 
L 419.452093 -135.013049 
L 420.183594 -133.997134 
L 420.890943 -132.98122 
L 421.574864 -131.965305 
L 422.240299 -130.949391 
L 422.896931 -129.933476 
L 423.559183 -128.917561 
L 424.245618 -127.901647 
L 424.977716 -126.885732 
L 425.778078 -125.869818 
L 426.668224 -124.853903 
L 427.666204 -123.837989 
L 428.784324 -122.822074 
L 430.027305 -121.806159 
L 431.391158 -120.790245 
L 432.863004 -119.77433 
L 434.421922 -118.758416 
L 436.040767 -117.742501 
L 437.688729 -116.726587 
L 439.334286 -115.710672 
L 440.948097 -114.694757 
L 442.50538 -113.678843 
L 443.987408 -112.662928 
L 445.381882 -111.647014 
L 446.682157 -110.631099 
L 447.885538 -109.615185 
L 448.991007 -108.59927 
L 449.996932 -107.583355 
L 450.899295 -106.567441 
L 451.690903 -105.551526 
L 452.361915 -104.535612 
L 452.901715 -103.519697 
L 453.301962 -102.503783 
L 453.56038 -101.487868 
L 453.6847 -100.471953 
L 453.696082 -99.456039 
L 453.631386 -98.440124 
L 453.543758 -97.42421 
L 453.50118 -96.408295 
L 453.582861 -95.392381 
L 453.873526 -94.376466 
L 454.455946 -93.360551 
L 455.402184 -92.344637 
L 456.764274 -91.328722 
L 458.565197 -90.312808 
L 460.79112 -89.296893 
L 463.385946 -88.280979 
L 466.249157 -87.265064 
L 469.237742 -86.249149 
L 472.17266 -85.233235 
L 474.849802 -84.21732 
L 477.054807 -83.201406 
L 478.580518 -82.185491 
L 479.245312 -81.169577 
L 478.910259 -80.153662 
L 477.49302 -79.137747 
L 474.976696 -78.121833 
L 471.412422 -77.105918 
L 466.915327 -76.090004 
L 461.654333 -75.074089 
L 455.837099 -74.058175 
L 449.692029 -73.04226 
L 443.44951 -72.026345 
L 437.324563 -71.010431 
L 431.502663 -69.994516 
L 426.129947 -68.978602 
L 421.308291 -67.962687 
L 417.095086 -66.946773 
L 413.506976 -65.930858 
L 410.526451 -64.914943 
L 408.110068 -63.899029 
z
" id="m6eb81a2303" style="stroke:#373737;stroke-width:0.8;"/>
    </defs>
    <g clip-path="url(#pd968b322a8)">
     <use style="fill:#be631d;stroke:#373737;stroke-width:0.8;" x="0" xlink:href="#m6eb81a2303" y="280.648187"/>
    </g>
   </g>
   <g id="PolyCollection_3">
    <defs>
     <path d="M 632.972262 -50.006313 
L 615.260863 -50.006313 
L 612.353658 -52.042676 
L 608.81253 -54.07904 
L 604.613492 -56.115403 
L 599.77137 -58.151767 
L 594.348858 -60.188131 
L 588.462415 -62.224494 
L 582.283429 -64.260858 
L 576.03346 -66.297222 
L 569.973058 -68.333585 
L 564.384548 -70.369949 
L 559.550147 -72.406312 
L 555.727693 -74.442676 
L 553.126848 -76.47904 
L 551.888825 -78.515403 
L 552.072384 -80.551767 
L 553.648042 -82.588131 
L 556.501304 -84.624494 
L 560.444453 -86.660858 
L 565.235223 -88.697222 
L 570.599803 -90.733585 
L 576.257143 -92.769949 
L 581.941609 -94.806313 
L 587.42154 -96.842676 
L 592.51207 -98.87904 
L 597.081589 -100.915403 
L 601.052129 -102.951767 
L 604.39473 -104.988131 
L 607.121273 -107.024494 
L 609.274456 -109.060858 
L 610.917431 -111.097222 
L 612.12432 -113.133585 
L 612.972397 -115.169949 
L 613.536302 -117.206312 
L 613.884273 -119.242676 
L 614.076132 -121.27904 
L 614.162613 -123.315403 
L 614.185566 -125.351767 
L 614.178636 -127.388131 
L 614.168102 -129.424494 
L 614.173666 -131.460858 
L 614.209123 -133.497222 
L 614.282897 -135.533585 
L 614.398535 -137.569949 
L 614.555221 -139.606313 
L 614.748427 -141.642676 
L 614.970731 -143.67904 
L 615.212808 -145.715403 
L 615.464546 -147.751767 
L 615.716186 -149.788131 
L 615.95936 -151.824494 
L 616.187901 -153.860858 
L 616.398322 -155.897222 
L 616.58991 -157.933585 
L 616.764457 -159.969949 
L 616.925667 -162.006312 
L 617.07839 -164.042676 
L 617.227795 -166.07904 
L 617.378631 -168.115403 
L 617.534683 -170.151767 
L 617.698468 -172.188131 
L 617.871177 -174.224494 
L 618.052822 -176.260858 
L 618.242491 -178.297222 
L 618.438637 -180.333585 
L 618.639328 -182.369949 
L 618.842407 -184.406313 
L 619.045566 -186.442676 
L 619.246364 -188.47904 
L 619.442228 -190.515403 
L 619.630504 -192.551767 
L 619.808582 -194.588131 
L 619.974121 -196.624494 
L 620.125336 -198.660858 
L 620.261325 -200.697222 
L 620.38235 -202.733585 
L 620.490023 -204.769949 
L 620.587342 -206.806313 
L 620.678539 -208.842676 
L 620.768755 -210.87904 
L 620.863559 -212.915403 
L 620.968383 -214.951767 
L 621.087936 -216.988131 
L 621.225686 -219.024494 
L 621.383458 -221.060858 
L 621.561231 -223.097222 
L 621.75713 -225.133585 
L 621.967614 -227.169949 
L 622.18785 -229.206312 
L 622.412182 -231.242676 
L 622.634671 -233.27904 
L 622.849609 -235.315403 
L 623.051968 -237.351767 
L 623.237729 -239.388131 
L 623.404076 -241.424494 
L 623.549456 -243.460858 
L 623.673504 -245.497222 
L 623.776881 -247.533585 
L 623.861048 -249.569949 
L 623.928015 -251.606313 
L 624.30511 -251.606313 
L 624.30511 -251.606313 
L 624.372077 -249.569949 
L 624.456244 -247.533585 
L 624.559621 -245.497222 
L 624.683669 -243.460858 
L 624.829049 -241.424494 
L 624.995396 -239.388131 
L 625.181157 -237.351767 
L 625.383516 -235.315403 
L 625.598454 -233.27904 
L 625.820943 -231.242676 
L 626.045275 -229.206312 
L 626.265511 -227.169949 
L 626.475995 -225.133585 
L 626.671894 -223.097222 
L 626.849667 -221.060858 
L 627.007439 -219.024494 
L 627.145189 -216.988131 
L 627.264742 -214.951767 
L 627.369566 -212.915403 
L 627.46437 -210.87904 
L 627.554586 -208.842676 
L 627.645783 -206.806313 
L 627.743102 -204.769949 
L 627.850775 -202.733585 
L 627.9718 -200.697222 
L 628.107789 -198.660858 
L 628.259004 -196.624494 
L 628.424543 -194.588131 
L 628.602621 -192.551767 
L 628.790897 -190.515403 
L 628.986761 -188.47904 
L 629.187559 -186.442676 
L 629.390718 -184.406313 
L 629.593797 -182.369949 
L 629.794488 -180.333585 
L 629.990634 -178.297222 
L 630.180303 -176.260858 
L 630.361948 -174.224494 
L 630.534657 -172.188131 
L 630.698442 -170.151767 
L 630.854494 -168.115403 
L 631.00533 -166.07904 
L 631.154735 -164.042676 
L 631.307458 -162.006312 
L 631.468668 -159.969949 
L 631.643215 -157.933585 
L 631.834803 -155.897222 
L 632.045224 -153.860858 
L 632.273765 -151.824494 
L 632.516939 -149.788131 
L 632.768579 -147.751767 
L 633.020317 -145.715403 
L 633.262394 -143.67904 
L 633.484698 -141.642676 
L 633.677904 -139.606313 
L 633.83459 -137.569949 
L 633.950228 -135.533585 
L 634.024002 -133.497222 
L 634.059459 -131.460858 
L 634.065023 -129.424494 
L 634.054489 -127.388131 
L 634.047559 -125.351767 
L 634.070512 -123.315403 
L 634.156993 -121.27904 
L 634.348852 -119.242676 
L 634.696823 -117.206312 
L 635.260728 -115.169949 
L 636.108805 -113.133585 
L 637.315694 -111.097222 
L 638.958669 -109.060858 
L 641.111852 -107.024494 
L 643.838395 -104.988131 
L 647.180996 -102.951767 
L 651.151536 -100.915403 
L 655.721055 -98.87904 
L 660.811585 -96.842676 
L 666.291516 -94.806313 
L 671.975982 -92.769949 
L 677.633322 -90.733585 
L 682.997902 -88.697222 
L 687.788672 -86.660858 
L 691.731821 -84.624494 
L 694.585083 -82.588131 
L 696.160741 -80.551767 
L 696.3443 -78.515403 
L 695.106277 -76.47904 
L 692.505432 -74.442676 
L 688.682978 -72.406312 
L 683.848577 -70.369949 
L 678.260067 -68.333585 
L 672.199665 -66.297222 
L 665.949696 -64.260858 
L 659.77071 -62.224494 
L 653.884267 -60.188131 
L 648.461755 -58.151767 
L 643.619633 -56.115403 
L 639.420595 -54.07904 
L 635.879467 -52.042676 
L 632.972262 -50.006313 
z
" id="m1692667f0a" style="stroke:#373737;stroke-width:0.8;"/>
    </defs>
    <g clip-path="url(#pd968b322a8)">
     <use style="fill:#7c78ab;stroke:#373737;stroke-width:0.8;" x="0" xlink:href="#m1692667f0a" y="280.648187"/>
    </g>
   </g>
   <g id="matplotlib.axis_1">
    <g id="xtick_1">
     <g id="line2d_1">
      <defs>
       <path d="M 0 0 
L 0 -3.5 
" id="mfe35d97f4f" style="stroke:#000000;stroke-width:0.8;"/>
      </defs>
      <g>
       <use style="stroke:#000000;stroke-width:0.8;" x="177.716563" xlink:href="#mfe35d97f4f" y="240.721875"/>
      </g>
     </g>
     <g id="line2d_2">
      <defs>
       <path d="M 0 0 
L 0 3.5 
" id="m7b728c9264" style="stroke:#000000;stroke-width:0.8;"/>
      </defs>
      <g>
       <use style="stroke:#000000;stroke-width:0.8;" x="177.716563" xlink:href="#m7b728c9264" y="18.961875"/>
      </g>
     </g>
     <g id="text_1">
      <!-- Treated substrate -->
      <g transform="translate(116.300313 254.859687)scale(0.14 -0.14)">
       <defs>
        <path d="M -0.296875 72.90625 
L 61.375 72.90625 
L 61.375 64.59375 
L 35.5 64.59375 
L 35.5 0 
L 25.59375 0 
L 25.59375 64.59375 
L -0.296875 64.59375 
z
" id="DejaVuSans-84"/>
        <path d="M 41.109375 46.296875 
Q 39.59375 47.171875 37.8125 47.578125 
Q 36.03125 48 33.890625 48 
Q 26.265625 48 22.1875 43.046875 
Q 18.109375 38.09375 18.109375 28.8125 
L 18.109375 0 
L 9.078125 0 
L 9.078125 54.6875 
L 18.109375 54.6875 
L 18.109375 46.1875 
Q 20.953125 51.171875 25.484375 53.578125 
Q 30.03125 56 36.53125 56 
Q 37.453125 56 38.578125 55.875 
Q 39.703125 55.765625 41.0625 55.515625 
z
" id="DejaVuSans-114"/>
        <path d="M 56.203125 29.59375 
L 56.203125 25.203125 
L 14.890625 25.203125 
Q 15.484375 15.921875 20.484375 11.0625 
Q 25.484375 6.203125 34.421875 6.203125 
Q 39.59375 6.203125 44.453125 7.46875 
Q 49.3125 8.734375 54.109375 11.28125 
L 54.109375 2.78125 
Q 49.265625 0.734375 44.1875 -0.34375 
Q 39.109375 -1.421875 33.890625 -1.421875 
Q 20.796875 -1.421875 13.15625 6.1875 
Q 5.515625 13.8125 5.515625 26.8125 
Q 5.515625 40.234375 12.765625 48.109375 
Q 20.015625 56 32.328125 56 
Q 43.359375 56 49.78125 48.890625 
Q 56.203125 41.796875 56.203125 29.59375 
z
M 47.21875 32.234375 
Q 47.125 39.59375 43.09375 43.984375 
Q 39.0625 48.390625 32.421875 48.390625 
Q 24.90625 48.390625 20.390625 44.140625 
Q 15.875 39.890625 15.1875 32.171875 
z
" id="DejaVuSans-101"/>
        <path d="M 34.28125 27.484375 
Q 23.390625 27.484375 19.1875 25 
Q 14.984375 22.515625 14.984375 16.5 
Q 14.984375 11.71875 18.140625 8.90625 
Q 21.296875 6.109375 26.703125 6.109375 
Q 34.1875 6.109375 38.703125 11.40625 
Q 43.21875 16.703125 43.21875 25.484375 
L 43.21875 27.484375 
z
M 52.203125 31.203125 
L 52.203125 0 
L 43.21875 0 
L 43.21875 8.296875 
Q 40.140625 3.328125 35.546875 0.953125 
Q 30.953125 -1.421875 24.3125 -1.421875 
Q 15.921875 -1.421875 10.953125 3.296875 
Q 6 8.015625 6 15.921875 
Q 6 25.140625 12.171875 29.828125 
Q 18.359375 34.515625 30.609375 34.515625 
L 43.21875 34.515625 
L 43.21875 35.40625 
Q 43.21875 41.609375 39.140625 45 
Q 35.0625 48.390625 27.6875 48.390625 
Q 23 48.390625 18.546875 47.265625 
Q 14.109375 46.140625 10.015625 43.890625 
L 10.015625 52.203125 
Q 14.9375 54.109375 19.578125 55.046875 
Q 24.21875 56 28.609375 56 
Q 40.484375 56 46.34375 49.84375 
Q 52.203125 43.703125 52.203125 31.203125 
z
" id="DejaVuSans-97"/>
        <path d="M 18.3125 70.21875 
L 18.3125 54.6875 
L 36.8125 54.6875 
L 36.8125 47.703125 
L 18.3125 47.703125 
L 18.3125 18.015625 
Q 18.3125 11.328125 20.140625 9.421875 
Q 21.96875 7.515625 27.59375 7.515625 
L 36.8125 7.515625 
L 36.8125 0 
L 27.59375 0 
Q 17.1875 0 13.234375 3.875 
Q 9.28125 7.765625 9.28125 18.015625 
L 9.28125 47.703125 
L 2.6875 47.703125 
L 2.6875 54.6875 
L 9.28125 54.6875 
L 9.28125 70.21875 
z
" id="DejaVuSans-116"/>
        <path d="M 45.40625 46.390625 
L 45.40625 75.984375 
L 54.390625 75.984375 
L 54.390625 0 
L 45.40625 0 
L 45.40625 8.203125 
Q 42.578125 3.328125 38.25 0.953125 
Q 33.9375 -1.421875 27.875 -1.421875 
Q 17.96875 -1.421875 11.734375 6.484375 
Q 5.515625 14.40625 5.515625 27.296875 
Q 5.515625 40.1875 11.734375 48.09375 
Q 17.96875 56 27.875 56 
Q 33.9375 56 38.25 53.625 
Q 42.578125 51.265625 45.40625 46.390625 
z
M 14.796875 27.296875 
Q 14.796875 17.390625 18.875 11.75 
Q 22.953125 6.109375 30.078125 6.109375 
Q 37.203125 6.109375 41.296875 11.75 
Q 45.40625 17.390625 45.40625 27.296875 
Q 45.40625 37.203125 41.296875 42.84375 
Q 37.203125 48.484375 30.078125 48.484375 
Q 22.953125 48.484375 18.875 42.84375 
Q 14.796875 37.203125 14.796875 27.296875 
z
" id="DejaVuSans-100"/>
        <path id="DejaVuSans-32"/>
        <path d="M 44.28125 53.078125 
L 44.28125 44.578125 
Q 40.484375 46.53125 36.375 47.5 
Q 32.28125 48.484375 27.875 48.484375 
Q 21.1875 48.484375 17.84375 46.4375 
Q 14.5 44.390625 14.5 40.28125 
Q 14.5 37.15625 16.890625 35.375 
Q 19.28125 33.59375 26.515625 31.984375 
L 29.59375 31.296875 
Q 39.15625 29.25 43.1875 25.515625 
Q 47.21875 21.78125 47.21875 15.09375 
Q 47.21875 7.46875 41.1875 3.015625 
Q 35.15625 -1.421875 24.609375 -1.421875 
Q 20.21875 -1.421875 15.453125 -0.5625 
Q 10.6875 0.296875 5.421875 2 
L 5.421875 11.28125 
Q 10.40625 8.6875 15.234375 7.390625 
Q 20.0625 6.109375 24.8125 6.109375 
Q 31.15625 6.109375 34.5625 8.28125 
Q 37.984375 10.453125 37.984375 14.40625 
Q 37.984375 18.0625 35.515625 20.015625 
Q 33.0625 21.96875 24.703125 23.78125 
L 21.578125 24.515625 
Q 13.234375 26.265625 9.515625 29.90625 
Q 5.8125 33.546875 5.8125 39.890625 
Q 5.8125 47.609375 11.28125 51.796875 
Q 16.75 56 26.8125 56 
Q 31.78125 56 36.171875 55.265625 
Q 40.578125 54.546875 44.28125 53.078125 
z
" id="DejaVuSans-115"/>
        <path d="M 8.5 21.578125 
L 8.5 54.6875 
L 17.484375 54.6875 
L 17.484375 21.921875 
Q 17.484375 14.15625 20.5 10.265625 
Q 23.53125 6.390625 29.59375 6.390625 
Q 36.859375 6.390625 41.078125 11.03125 
Q 45.3125 15.671875 45.3125 23.6875 
L 45.3125 54.6875 
L 54.296875 54.6875 
L 54.296875 0 
L 45.3125 0 
L 45.3125 8.40625 
Q 42.046875 3.421875 37.71875 1 
Q 33.40625 -1.421875 27.6875 -1.421875 
Q 18.265625 -1.421875 13.375 4.4375 
Q 8.5 10.296875 8.5 21.578125 
z
M 31.109375 56 
z
" id="DejaVuSans-117"/>
        <path d="M 48.6875 27.296875 
Q 48.6875 37.203125 44.609375 42.84375 
Q 40.53125 48.484375 33.40625 48.484375 
Q 26.265625 48.484375 22.1875 42.84375 
Q 18.109375 37.203125 18.109375 27.296875 
Q 18.109375 17.390625 22.1875 11.75 
Q 26.265625 6.109375 33.40625 6.109375 
Q 40.53125 6.109375 44.609375 11.75 
Q 48.6875 17.390625 48.6875 27.296875 
z
M 18.109375 46.390625 
Q 20.953125 51.265625 25.265625 53.625 
Q 29.59375 56 35.59375 56 
Q 45.5625 56 51.78125 48.09375 
Q 58.015625 40.1875 58.015625 27.296875 
Q 58.015625 14.40625 51.78125 6.484375 
Q 45.5625 -1.421875 35.59375 -1.421875 
Q 29.59375 -1.421875 25.265625 0.953125 
Q 20.953125 3.328125 18.109375 8.203125 
L 18.109375 0 
L 9.078125 0 
L 9.078125 75.984375 
L 18.109375 75.984375 
z
" id="DejaVuSans-98"/>
       </defs>
       <use xlink:href="#DejaVuSans-84"/>
       <use x="46.333984" xlink:href="#DejaVuSans-114"/>
       <use x="85.197266" xlink:href="#DejaVuSans-101"/>
       <use x="146.720703" xlink:href="#DejaVuSans-97"/>
       <use x="208" xlink:href="#DejaVuSans-116"/>
       <use x="247.208984" xlink:href="#DejaVuSans-101"/>
       <use x="308.732422" xlink:href="#DejaVuSans-100"/>
       <use x="372.208984" xlink:href="#DejaVuSans-32"/>
       <use x="403.996094" xlink:href="#DejaVuSans-115"/>
       <use x="456.095703" xlink:href="#DejaVuSans-117"/>
       <use x="519.474609" xlink:href="#DejaVuSans-98"/>
       <use x="582.951172" xlink:href="#DejaVuSans-115"/>
       <use x="635.050781" xlink:href="#DejaVuSans-116"/>
       <use x="674.259766" xlink:href="#DejaVuSans-114"/>
       <use x="715.373047" xlink:href="#DejaVuSans-97"/>
       <use x="776.652344" xlink:href="#DejaVuSans-116"/>
       <use x="815.861328" xlink:href="#DejaVuSans-101"/>
      </g>
      <!-- (step width=0.43±0.04μm) -->
      <g transform="translate(81.418437 270.536625)scale(0.14 -0.14)">
       <defs>
        <path d="M 31 75.875 
Q 24.46875 64.65625 21.28125 53.65625 
Q 18.109375 42.671875 18.109375 31.390625 
Q 18.109375 20.125 21.3125 9.0625 
Q 24.515625 -2 31 -13.1875 
L 23.1875 -13.1875 
Q 15.875 -1.703125 12.234375 9.375 
Q 8.59375 20.453125 8.59375 31.390625 
Q 8.59375 42.28125 12.203125 53.3125 
Q 15.828125 64.359375 23.1875 75.875 
z
" id="DejaVuSans-40"/>
        <path d="M 18.109375 8.203125 
L 18.109375 -20.796875 
L 9.078125 -20.796875 
L 9.078125 54.6875 
L 18.109375 54.6875 
L 18.109375 46.390625 
Q 20.953125 51.265625 25.265625 53.625 
Q 29.59375 56 35.59375 56 
Q 45.5625 56 51.78125 48.09375 
Q 58.015625 40.1875 58.015625 27.296875 
Q 58.015625 14.40625 51.78125 6.484375 
Q 45.5625 -1.421875 35.59375 -1.421875 
Q 29.59375 -1.421875 25.265625 0.953125 
Q 20.953125 3.328125 18.109375 8.203125 
z
M 48.6875 27.296875 
Q 48.6875 37.203125 44.609375 42.84375 
Q 40.53125 48.484375 33.40625 48.484375 
Q 26.265625 48.484375 22.1875 42.84375 
Q 18.109375 37.203125 18.109375 27.296875 
Q 18.109375 17.390625 22.1875 11.75 
Q 26.265625 6.109375 33.40625 6.109375 
Q 40.53125 6.109375 44.609375 11.75 
Q 48.6875 17.390625 48.6875 27.296875 
z
" id="DejaVuSans-112"/>
        <path d="M 4.203125 54.6875 
L 13.1875 54.6875 
L 24.421875 12.015625 
L 35.59375 54.6875 
L 46.1875 54.6875 
L 57.421875 12.015625 
L 68.609375 54.6875 
L 77.59375 54.6875 
L 63.28125 0 
L 52.6875 0 
L 40.921875 44.828125 
L 29.109375 0 
L 18.5 0 
z
" id="DejaVuSans-119"/>
        <path d="M 9.421875 54.6875 
L 18.40625 54.6875 
L 18.40625 0 
L 9.421875 0 
z
M 9.421875 75.984375 
L 18.40625 75.984375 
L 18.40625 64.59375 
L 9.421875 64.59375 
z
" id="DejaVuSans-105"/>
        <path d="M 54.890625 33.015625 
L 54.890625 0 
L 45.90625 0 
L 45.90625 32.71875 
Q 45.90625 40.484375 42.875 44.328125 
Q 39.84375 48.1875 33.796875 48.1875 
Q 26.515625 48.1875 22.3125 43.546875 
Q 18.109375 38.921875 18.109375 30.90625 
L 18.109375 0 
L 9.078125 0 
L 9.078125 75.984375 
L 18.109375 75.984375 
L 18.109375 46.1875 
Q 21.34375 51.125 25.703125 53.5625 
Q 30.078125 56 35.796875 56 
Q 45.21875 56 50.046875 50.171875 
Q 54.890625 44.34375 54.890625 33.015625 
z
" id="DejaVuSans-104"/>
        <path d="M 10.59375 45.40625 
L 73.1875 45.40625 
L 73.1875 37.203125 
L 10.59375 37.203125 
z
M 10.59375 25.484375 
L 73.1875 25.484375 
L 73.1875 17.1875 
L 10.59375 17.1875 
z
" id="DejaVuSans-61"/>
        <path d="M 31.78125 66.40625 
Q 24.171875 66.40625 20.328125 58.90625 
Q 16.5 51.421875 16.5 36.375 
Q 16.5 21.390625 20.328125 13.890625 
Q 24.171875 6.390625 31.78125 6.390625 
Q 39.453125 6.390625 43.28125 13.890625 
Q 47.125 21.390625 47.125 36.375 
Q 47.125 51.421875 43.28125 58.90625 
Q 39.453125 66.40625 31.78125 66.40625 
z
M 31.78125 74.21875 
Q 44.046875 74.21875 50.515625 64.515625 
Q 56.984375 54.828125 56.984375 36.375 
Q 56.984375 17.96875 50.515625 8.265625 
Q 44.046875 -1.421875 31.78125 -1.421875 
Q 19.53125 -1.421875 13.0625 8.265625 
Q 6.59375 17.96875 6.59375 36.375 
Q 6.59375 54.828125 13.0625 64.515625 
Q 19.53125 74.21875 31.78125 74.21875 
z
" id="DejaVuSans-48"/>
        <path d="M 10.6875 12.40625 
L 21 12.40625 
L 21 0 
L 10.6875 0 
z
" id="DejaVuSans-46"/>
        <path d="M 37.796875 64.3125 
L 12.890625 25.390625 
L 37.796875 25.390625 
z
M 35.203125 72.90625 
L 47.609375 72.90625 
L 47.609375 25.390625 
L 58.015625 25.390625 
L 58.015625 17.1875 
L 47.609375 17.1875 
L 47.609375 0 
L 37.796875 0 
L 37.796875 17.1875 
L 4.890625 17.1875 
L 4.890625 26.703125 
z
" id="DejaVuSans-52"/>
        <path d="M 40.578125 39.3125 
Q 47.65625 37.796875 51.625 33 
Q 55.609375 28.21875 55.609375 21.1875 
Q 55.609375 10.40625 48.1875 4.484375 
Q 40.765625 -1.421875 27.09375 -1.421875 
Q 22.515625 -1.421875 17.65625 -0.515625 
Q 12.796875 0.390625 7.625 2.203125 
L 7.625 11.71875 
Q 11.71875 9.328125 16.59375 8.109375 
Q 21.484375 6.890625 26.8125 6.890625 
Q 36.078125 6.890625 40.9375 10.546875 
Q 45.796875 14.203125 45.796875 21.1875 
Q 45.796875 27.640625 41.28125 31.265625 
Q 36.765625 34.90625 28.71875 34.90625 
L 20.21875 34.90625 
L 20.21875 43.015625 
L 29.109375 43.015625 
Q 36.375 43.015625 40.234375 45.921875 
Q 44.09375 48.828125 44.09375 54.296875 
Q 44.09375 59.90625 40.109375 62.90625 
Q 36.140625 65.921875 28.71875 65.921875 
Q 24.65625 65.921875 20.015625 65.03125 
Q 15.375 64.15625 9.8125 62.3125 
L 9.8125 71.09375 
Q 15.4375 72.65625 20.34375 73.4375 
Q 25.25 74.21875 29.59375 74.21875 
Q 40.828125 74.21875 47.359375 69.109375 
Q 53.90625 64.015625 53.90625 55.328125 
Q 53.90625 49.265625 50.4375 45.09375 
Q 46.96875 40.921875 40.578125 39.3125 
z
" id="DejaVuSans-51"/>
        <path d="M 46 62.703125 
L 46 43.796875 
L 73.1875 43.796875 
L 73.1875 35.5 
L 46 35.5 
L 46 16.609375 
L 37.796875 16.609375 
L 37.796875 35.5 
L 10.59375 35.5 
L 10.59375 43.796875 
L 37.796875 43.796875 
L 37.796875 62.703125 
z
M 10.59375 8.296875 
L 73.1875 8.296875 
L 73.1875 0 
L 10.59375 0 
z
" id="DejaVuSans-177"/>
        <path d="M 8.5 -20.796875 
L 8.5 54.6875 
L 17.484375 54.6875 
L 17.484375 20.703125 
Q 17.484375 13.625 20.84375 10 
Q 24.21875 6.390625 30.8125 6.390625 
Q 38.03125 6.390625 41.671875 10.484375 
Q 45.3125 14.59375 45.3125 22.796875 
L 45.3125 54.6875 
L 54.296875 54.6875 
L 54.296875 12.59375 
Q 54.296875 9.671875 55.140625 8.28125 
Q 56 6.890625 57.8125 6.890625 
Q 58.25 6.890625 59.03125 7.15625 
Q 59.8125 7.421875 61.1875 8.015625 
L 61.1875 0.78125 
Q 59.1875 -0.34375 57.390625 -0.875 
Q 55.609375 -1.421875 53.90625 -1.421875 
Q 50.53125 -1.421875 48.53125 0.484375 
Q 46.53125 2.390625 45.796875 6.296875 
Q 43.359375 2.4375 39.8125 0.5 
Q 36.28125 -1.421875 31.5 -1.421875 
Q 26.515625 -1.421875 23.015625 0.484375 
Q 19.53125 2.390625 17.484375 6.203125 
L 17.484375 -20.796875 
z
" id="DejaVuSans-956"/>
        <path d="M 52 44.1875 
Q 55.375 50.25 60.0625 53.125 
Q 64.75 56 71.09375 56 
Q 79.640625 56 84.28125 50.015625 
Q 88.921875 44.046875 88.921875 33.015625 
L 88.921875 0 
L 79.890625 0 
L 79.890625 32.71875 
Q 79.890625 40.578125 77.09375 44.375 
Q 74.3125 48.1875 68.609375 48.1875 
Q 61.625 48.1875 57.5625 43.546875 
Q 53.515625 38.921875 53.515625 30.90625 
L 53.515625 0 
L 44.484375 0 
L 44.484375 32.71875 
Q 44.484375 40.625 41.703125 44.40625 
Q 38.921875 48.1875 33.109375 48.1875 
Q 26.21875 48.1875 22.15625 43.53125 
Q 18.109375 38.875 18.109375 30.90625 
L 18.109375 0 
L 9.078125 0 
L 9.078125 54.6875 
L 18.109375 54.6875 
L 18.109375 46.1875 
Q 21.1875 51.21875 25.484375 53.609375 
Q 29.78125 56 35.6875 56 
Q 41.65625 56 45.828125 52.96875 
Q 50 49.953125 52 44.1875 
z
" id="DejaVuSans-109"/>
        <path d="M 8.015625 75.875 
L 15.828125 75.875 
Q 23.140625 64.359375 26.78125 53.3125 
Q 30.421875 42.28125 30.421875 31.390625 
Q 30.421875 20.453125 26.78125 9.375 
Q 23.140625 -1.703125 15.828125 -13.1875 
L 8.015625 -13.1875 
Q 14.5 -2 17.703125 9.0625 
Q 20.90625 20.125 20.90625 31.390625 
Q 20.90625 42.671875 17.703125 53.65625 
Q 14.5 64.65625 8.015625 75.875 
z
" id="DejaVuSans-41"/>
       </defs>
       <use xlink:href="#DejaVuSans-40"/>
       <use x="39.013672" xlink:href="#DejaVuSans-115"/>
       <use x="91.113281" xlink:href="#DejaVuSans-116"/>
       <use x="130.322266" xlink:href="#DejaVuSans-101"/>
       <use x="191.845703" xlink:href="#DejaVuSans-112"/>
       <use x="255.322266" xlink:href="#DejaVuSans-32"/>
       <use x="287.109375" xlink:href="#DejaVuSans-119"/>
       <use x="368.896484" xlink:href="#DejaVuSans-105"/>
       <use x="396.679688" xlink:href="#DejaVuSans-100"/>
       <use x="460.15625" xlink:href="#DejaVuSans-116"/>
       <use x="499.365234" xlink:href="#DejaVuSans-104"/>
       <use x="562.744141" xlink:href="#DejaVuSans-61"/>
       <use x="646.533203" xlink:href="#DejaVuSans-48"/>
       <use x="710.15625" xlink:href="#DejaVuSans-46"/>
       <use x="741.943359" xlink:href="#DejaVuSans-52"/>
       <use x="805.566406" xlink:href="#DejaVuSans-51"/>
       <use x="869.189453" xlink:href="#DejaVuSans-177"/>
       <use x="952.978516" xlink:href="#DejaVuSans-48"/>
       <use x="1016.601562" xlink:href="#DejaVuSans-46"/>
       <use x="1048.388672" xlink:href="#DejaVuSans-48"/>
       <use x="1112.011719" xlink:href="#DejaVuSans-52"/>
       <use x="1175.634766" xlink:href="#DejaVuSans-956"/>
       <use x="1239.257812" xlink:href="#DejaVuSans-109"/>
       <use x="1336.669922" xlink:href="#DejaVuSans-41"/>
      </g>
     </g>
    </g>
    <g id="xtick_2">
     <g id="line2d_3">
      <g>
       <use style="stroke:#000000;stroke-width:0.8;" x="400.916562" xlink:href="#mfe35d97f4f" y="240.721875"/>
      </g>
     </g>
     <g id="line2d_4">
      <g>
       <use style="stroke:#000000;stroke-width:0.8;" x="400.916562" xlink:href="#m7b728c9264" y="18.961875"/>
      </g>
     </g>
     <g id="text_2">
      <!-- Treated substrate -->
      <g transform="translate(339.500313 254.859687)scale(0.14 -0.14)">
       <use xlink:href="#DejaVuSans-84"/>
       <use x="46.333984" xlink:href="#DejaVuSans-114"/>
       <use x="85.197266" xlink:href="#DejaVuSans-101"/>
       <use x="146.720703" xlink:href="#DejaVuSans-97"/>
       <use x="208" xlink:href="#DejaVuSans-116"/>
       <use x="247.208984" xlink:href="#DejaVuSans-101"/>
       <use x="308.732422" xlink:href="#DejaVuSans-100"/>
       <use x="372.208984" xlink:href="#DejaVuSans-32"/>
       <use x="403.996094" xlink:href="#DejaVuSans-115"/>
       <use x="456.095703" xlink:href="#DejaVuSans-117"/>
       <use x="519.474609" xlink:href="#DejaVuSans-98"/>
       <use x="582.951172" xlink:href="#DejaVuSans-115"/>
       <use x="635.050781" xlink:href="#DejaVuSans-116"/>
       <use x="674.259766" xlink:href="#DejaVuSans-114"/>
       <use x="715.373047" xlink:href="#DejaVuSans-97"/>
       <use x="776.652344" xlink:href="#DejaVuSans-116"/>
       <use x="815.861328" xlink:href="#DejaVuSans-101"/>
      </g>
      <!-- (step width=0.11±0.01μm) -->
      <g transform="translate(304.618437 270.536625)scale(0.14 -0.14)">
       <defs>
        <path d="M 12.40625 8.296875 
L 28.515625 8.296875 
L 28.515625 63.921875 
L 10.984375 60.40625 
L 10.984375 69.390625 
L 28.421875 72.90625 
L 38.28125 72.90625 
L 38.28125 8.296875 
L 54.390625 8.296875 
L 54.390625 0 
L 12.40625 0 
z
" id="DejaVuSans-49"/>
       </defs>
       <use xlink:href="#DejaVuSans-40"/>
       <use x="39.013672" xlink:href="#DejaVuSans-115"/>
       <use x="91.113281" xlink:href="#DejaVuSans-116"/>
       <use x="130.322266" xlink:href="#DejaVuSans-101"/>
       <use x="191.845703" xlink:href="#DejaVuSans-112"/>
       <use x="255.322266" xlink:href="#DejaVuSans-32"/>
       <use x="287.109375" xlink:href="#DejaVuSans-119"/>
       <use x="368.896484" xlink:href="#DejaVuSans-105"/>
       <use x="396.679688" xlink:href="#DejaVuSans-100"/>
       <use x="460.15625" xlink:href="#DejaVuSans-116"/>
       <use x="499.365234" xlink:href="#DejaVuSans-104"/>
       <use x="562.744141" xlink:href="#DejaVuSans-61"/>
       <use x="646.533203" xlink:href="#DejaVuSans-48"/>
       <use x="710.15625" xlink:href="#DejaVuSans-46"/>
       <use x="741.943359" xlink:href="#DejaVuSans-49"/>
       <use x="805.566406" xlink:href="#DejaVuSans-49"/>
       <use x="869.189453" xlink:href="#DejaVuSans-177"/>
       <use x="952.978516" xlink:href="#DejaVuSans-48"/>
       <use x="1016.601562" xlink:href="#DejaVuSans-46"/>
       <use x="1048.388672" xlink:href="#DejaVuSans-48"/>
       <use x="1112.011719" xlink:href="#DejaVuSans-49"/>
       <use x="1175.634766" xlink:href="#DejaVuSans-956"/>
       <use x="1239.257812" xlink:href="#DejaVuSans-109"/>
       <use x="1336.669922" xlink:href="#DejaVuSans-41"/>
      </g>
     </g>
    </g>
    <g id="xtick_3">
     <g id="line2d_5">
      <g>
       <use style="stroke:#000000;stroke-width:0.8;" x="624.116562" xlink:href="#mfe35d97f4f" y="240.721875"/>
      </g>
     </g>
     <g id="line2d_6">
      <g>
       <use style="stroke:#000000;stroke-width:0.8;" x="624.116562" xlink:href="#m7b728c9264" y="18.961875"/>
      </g>
     </g>
     <g id="text_3">
      <!-- Untreated substrate -->
      <g transform="translate(553.639688 254.859687)scale(0.14 -0.14)">
       <defs>
        <path d="M 8.6875 72.90625 
L 18.609375 72.90625 
L 18.609375 28.609375 
Q 18.609375 16.890625 22.84375 11.734375 
Q 27.09375 6.59375 36.625 6.59375 
Q 46.09375 6.59375 50.34375 11.734375 
Q 54.59375 16.890625 54.59375 28.609375 
L 54.59375 72.90625 
L 64.5 72.90625 
L 64.5 27.390625 
Q 64.5 13.140625 57.4375 5.859375 
Q 50.390625 -1.421875 36.625 -1.421875 
Q 22.796875 -1.421875 15.734375 5.859375 
Q 8.6875 13.140625 8.6875 27.390625 
z
" id="DejaVuSans-85"/>
        <path d="M 54.890625 33.015625 
L 54.890625 0 
L 45.90625 0 
L 45.90625 32.71875 
Q 45.90625 40.484375 42.875 44.328125 
Q 39.84375 48.1875 33.796875 48.1875 
Q 26.515625 48.1875 22.3125 43.546875 
Q 18.109375 38.921875 18.109375 30.90625 
L 18.109375 0 
L 9.078125 0 
L 9.078125 54.6875 
L 18.109375 54.6875 
L 18.109375 46.1875 
Q 21.34375 51.125 25.703125 53.5625 
Q 30.078125 56 35.796875 56 
Q 45.21875 56 50.046875 50.171875 
Q 54.890625 44.34375 54.890625 33.015625 
z
" id="DejaVuSans-110"/>
       </defs>
       <use xlink:href="#DejaVuSans-85"/>
       <use x="73.193359" xlink:href="#DejaVuSans-110"/>
       <use x="136.572266" xlink:href="#DejaVuSans-116"/>
       <use x="175.78125" xlink:href="#DejaVuSans-114"/>
       <use x="214.644531" xlink:href="#DejaVuSans-101"/>
       <use x="276.167969" xlink:href="#DejaVuSans-97"/>
       <use x="337.447266" xlink:href="#DejaVuSans-116"/>
       <use x="376.65625" xlink:href="#DejaVuSans-101"/>
       <use x="438.179688" xlink:href="#DejaVuSans-100"/>
       <use x="501.65625" xlink:href="#DejaVuSans-32"/>
       <use x="533.443359" xlink:href="#DejaVuSans-115"/>
       <use x="585.542969" xlink:href="#DejaVuSans-117"/>
       <use x="648.921875" xlink:href="#DejaVuSans-98"/>
       <use x="712.398438" xlink:href="#DejaVuSans-115"/>
       <use x="764.498047" xlink:href="#DejaVuSans-116"/>
       <use x="803.707031" xlink:href="#DejaVuSans-114"/>
       <use x="844.820312" xlink:href="#DejaVuSans-97"/>
       <use x="906.099609" xlink:href="#DejaVuSans-116"/>
       <use x="945.308594" xlink:href="#DejaVuSans-101"/>
      </g>
      <!-- (step width=0.28±0.03μm) -->
      <g transform="translate(527.818437 270.536625)scale(0.14 -0.14)">
       <defs>
        <path d="M 19.1875 8.296875 
L 53.609375 8.296875 
L 53.609375 0 
L 7.328125 0 
L 7.328125 8.296875 
Q 12.9375 14.109375 22.625 23.890625 
Q 32.328125 33.6875 34.8125 36.53125 
Q 39.546875 41.84375 41.421875 45.53125 
Q 43.3125 49.21875 43.3125 52.78125 
Q 43.3125 58.59375 39.234375 62.25 
Q 35.15625 65.921875 28.609375 65.921875 
Q 23.96875 65.921875 18.8125 64.3125 
Q 13.671875 62.703125 7.8125 59.421875 
L 7.8125 69.390625 
Q 13.765625 71.78125 18.9375 73 
Q 24.125 74.21875 28.421875 74.21875 
Q 39.75 74.21875 46.484375 68.546875 
Q 53.21875 62.890625 53.21875 53.421875 
Q 53.21875 48.921875 51.53125 44.890625 
Q 49.859375 40.875 45.40625 35.40625 
Q 44.1875 33.984375 37.640625 27.21875 
Q 31.109375 20.453125 19.1875 8.296875 
z
" id="DejaVuSans-50"/>
        <path d="M 31.78125 34.625 
Q 24.75 34.625 20.71875 30.859375 
Q 16.703125 27.09375 16.703125 20.515625 
Q 16.703125 13.921875 20.71875 10.15625 
Q 24.75 6.390625 31.78125 6.390625 
Q 38.8125 6.390625 42.859375 10.171875 
Q 46.921875 13.96875 46.921875 20.515625 
Q 46.921875 27.09375 42.890625 30.859375 
Q 38.875 34.625 31.78125 34.625 
z
M 21.921875 38.8125 
Q 15.578125 40.375 12.03125 44.71875 
Q 8.5 49.078125 8.5 55.328125 
Q 8.5 64.0625 14.71875 69.140625 
Q 20.953125 74.21875 31.78125 74.21875 
Q 42.671875 74.21875 48.875 69.140625 
Q 55.078125 64.0625 55.078125 55.328125 
Q 55.078125 49.078125 51.53125 44.71875 
Q 48 40.375 41.703125 38.8125 
Q 48.828125 37.15625 52.796875 32.3125 
Q 56.78125 27.484375 56.78125 20.515625 
Q 56.78125 9.90625 50.3125 4.234375 
Q 43.84375 -1.421875 31.78125 -1.421875 
Q 19.734375 -1.421875 13.25 4.234375 
Q 6.78125 9.90625 6.78125 20.515625 
Q 6.78125 27.484375 10.78125 32.3125 
Q 14.796875 37.15625 21.921875 38.8125 
z
M 18.3125 54.390625 
Q 18.3125 48.734375 21.84375 45.5625 
Q 25.390625 42.390625 31.78125 42.390625 
Q 38.140625 42.390625 41.71875 45.5625 
Q 45.3125 48.734375 45.3125 54.390625 
Q 45.3125 60.0625 41.71875 63.234375 
Q 38.140625 66.40625 31.78125 66.40625 
Q 25.390625 66.40625 21.84375 63.234375 
Q 18.3125 60.0625 18.3125 54.390625 
z
" id="DejaVuSans-56"/>
       </defs>
       <use xlink:href="#DejaVuSans-40"/>
       <use x="39.013672" xlink:href="#DejaVuSans-115"/>
       <use x="91.113281" xlink:href="#DejaVuSans-116"/>
       <use x="130.322266" xlink:href="#DejaVuSans-101"/>
       <use x="191.845703" xlink:href="#DejaVuSans-112"/>
       <use x="255.322266" xlink:href="#DejaVuSans-32"/>
       <use x="287.109375" xlink:href="#DejaVuSans-119"/>
       <use x="368.896484" xlink:href="#DejaVuSans-105"/>
       <use x="396.679688" xlink:href="#DejaVuSans-100"/>
       <use x="460.15625" xlink:href="#DejaVuSans-116"/>
       <use x="499.365234" xlink:href="#DejaVuSans-104"/>
       <use x="562.744141" xlink:href="#DejaVuSans-61"/>
       <use x="646.533203" xlink:href="#DejaVuSans-48"/>
       <use x="710.15625" xlink:href="#DejaVuSans-46"/>
       <use x="741.943359" xlink:href="#DejaVuSans-50"/>
       <use x="805.566406" xlink:href="#DejaVuSans-56"/>
       <use x="869.189453" xlink:href="#DejaVuSans-177"/>
       <use x="952.978516" xlink:href="#DejaVuSans-48"/>
       <use x="1016.601562" xlink:href="#DejaVuSans-46"/>
       <use x="1048.388672" xlink:href="#DejaVuSans-48"/>
       <use x="1112.011719" xlink:href="#DejaVuSans-51"/>
       <use x="1175.634766" xlink:href="#DejaVuSans-956"/>
       <use x="1239.257812" xlink:href="#DejaVuSans-109"/>
       <use x="1336.669922" xlink:href="#DejaVuSans-41"/>
      </g>
     </g>
    </g>
   </g>
   <g id="matplotlib.axis_2">
    <g id="ytick_1">
     <g id="line2d_7">
      <defs>
       <path d="M 0 0 
L 3.5 0 
" id="mcda5bdec26" style="stroke:#000000;stroke-width:0.8;"/>
      </defs>
      <g>
       <use style="stroke:#000000;stroke-width:0.8;" x="66.116563" xlink:href="#mcda5bdec26" y="235.901476"/>
      </g>
     </g>
     <g id="line2d_8">
      <defs>
       <path d="M 0 0 
L -3.5 0 
" id="me3ddd687db" style="stroke:#000000;stroke-width:0.8;"/>
      </defs>
      <g>
       <use style="stroke:#000000;stroke-width:0.8;" x="735.716563" xlink:href="#me3ddd687db" y="235.901476"/>
      </g>
     </g>
     <g id="text_4">
      <!-- −0.2 -->
      <g transform="translate(28.620625 241.220382)scale(0.14 -0.14)">
       <defs>
        <path d="M 10.59375 35.5 
L 73.1875 35.5 
L 73.1875 27.203125 
L 10.59375 27.203125 
z
" id="DejaVuSans-8722"/>
       </defs>
       <use xlink:href="#DejaVuSans-8722"/>
       <use x="83.789062" xlink:href="#DejaVuSans-48"/>
       <use x="147.412109" xlink:href="#DejaVuSans-46"/>
       <use x="179.199219" xlink:href="#DejaVuSans-50"/>
      </g>
     </g>
    </g>
    <g id="ytick_2">
     <g id="line2d_9">
      <g>
       <use style="stroke:#000000;stroke-width:0.8;" x="66.116563" xlink:href="#mcda5bdec26" y="204.044571"/>
      </g>
     </g>
     <g id="line2d_10">
      <g>
       <use style="stroke:#000000;stroke-width:0.8;" x="735.716563" xlink:href="#me3ddd687db" y="204.044571"/>
      </g>
     </g>
     <g id="text_5">
      <!-- 0.0 -->
      <g transform="translate(40.352187 209.363477)scale(0.14 -0.14)">
       <use xlink:href="#DejaVuSans-48"/>
       <use x="63.623047" xlink:href="#DejaVuSans-46"/>
       <use x="95.410156" xlink:href="#DejaVuSans-48"/>
      </g>
     </g>
    </g>
    <g id="ytick_3">
     <g id="line2d_11">
      <g>
       <use style="stroke:#000000;stroke-width:0.8;" x="66.116563" xlink:href="#mcda5bdec26" y="172.187666"/>
      </g>
     </g>
     <g id="line2d_12">
      <g>
       <use style="stroke:#000000;stroke-width:0.8;" x="735.716563" xlink:href="#me3ddd687db" y="172.187666"/>
      </g>
     </g>
     <g id="text_6">
      <!-- 0.2 -->
      <g transform="translate(40.352187 177.506572)scale(0.14 -0.14)">
       <use xlink:href="#DejaVuSans-48"/>
       <use x="63.623047" xlink:href="#DejaVuSans-46"/>
       <use x="95.410156" xlink:href="#DejaVuSans-50"/>
      </g>
     </g>
    </g>
    <g id="ytick_4">
     <g id="line2d_13">
      <g>
       <use style="stroke:#000000;stroke-width:0.8;" x="66.116563" xlink:href="#mcda5bdec26" y="140.330761"/>
      </g>
     </g>
     <g id="line2d_14">
      <g>
       <use style="stroke:#000000;stroke-width:0.8;" x="735.716563" xlink:href="#me3ddd687db" y="140.330761"/>
      </g>
     </g>
     <g id="text_7">
      <!-- 0.4 -->
      <g transform="translate(40.352187 145.649667)scale(0.14 -0.14)">
       <use xlink:href="#DejaVuSans-48"/>
       <use x="63.623047" xlink:href="#DejaVuSans-46"/>
       <use x="95.410156" xlink:href="#DejaVuSans-52"/>
      </g>
     </g>
    </g>
    <g id="ytick_5">
     <g id="line2d_15">
      <g>
       <use style="stroke:#000000;stroke-width:0.8;" x="66.116563" xlink:href="#mcda5bdec26" y="108.473856"/>
      </g>
     </g>
     <g id="line2d_16">
      <g>
       <use style="stroke:#000000;stroke-width:0.8;" x="735.716563" xlink:href="#me3ddd687db" y="108.473856"/>
      </g>
     </g>
     <g id="text_8">
      <!-- 0.6 -->
      <g transform="translate(40.352187 113.792762)scale(0.14 -0.14)">
       <defs>
        <path d="M 33.015625 40.375 
Q 26.375 40.375 22.484375 35.828125 
Q 18.609375 31.296875 18.609375 23.390625 
Q 18.609375 15.53125 22.484375 10.953125 
Q 26.375 6.390625 33.015625 6.390625 
Q 39.65625 6.390625 43.53125 10.953125 
Q 47.40625 15.53125 47.40625 23.390625 
Q 47.40625 31.296875 43.53125 35.828125 
Q 39.65625 40.375 33.015625 40.375 
z
M 52.59375 71.296875 
L 52.59375 62.3125 
Q 48.875 64.0625 45.09375 64.984375 
Q 41.3125 65.921875 37.59375 65.921875 
Q 27.828125 65.921875 22.671875 59.328125 
Q 17.53125 52.734375 16.796875 39.40625 
Q 19.671875 43.65625 24.015625 45.921875 
Q 28.375 48.1875 33.59375 48.1875 
Q 44.578125 48.1875 50.953125 41.515625 
Q 57.328125 34.859375 57.328125 23.390625 
Q 57.328125 12.15625 50.6875 5.359375 
Q 44.046875 -1.421875 33.015625 -1.421875 
Q 20.359375 -1.421875 13.671875 8.265625 
Q 6.984375 17.96875 6.984375 36.375 
Q 6.984375 53.65625 15.1875 63.9375 
Q 23.390625 74.21875 37.203125 74.21875 
Q 40.921875 74.21875 44.703125 73.484375 
Q 48.484375 72.75 52.59375 71.296875 
z
" id="DejaVuSans-54"/>
       </defs>
       <use xlink:href="#DejaVuSans-48"/>
       <use x="63.623047" xlink:href="#DejaVuSans-46"/>
       <use x="95.410156" xlink:href="#DejaVuSans-54"/>
      </g>
     </g>
    </g>
    <g id="ytick_6">
     <g id="line2d_17">
      <g>
       <use style="stroke:#000000;stroke-width:0.8;" x="66.116563" xlink:href="#mcda5bdec26" y="76.616951"/>
      </g>
     </g>
     <g id="line2d_18">
      <g>
       <use style="stroke:#000000;stroke-width:0.8;" x="735.716563" xlink:href="#me3ddd687db" y="76.616951"/>
      </g>
     </g>
     <g id="text_9">
      <!-- 0.8 -->
      <g transform="translate(40.352187 81.935857)scale(0.14 -0.14)">
       <use xlink:href="#DejaVuSans-48"/>
       <use x="63.623047" xlink:href="#DejaVuSans-46"/>
       <use x="95.410156" xlink:href="#DejaVuSans-56"/>
      </g>
     </g>
    </g>
    <g id="ytick_7">
     <g id="line2d_19">
      <g>
       <use style="stroke:#000000;stroke-width:0.8;" x="66.116563" xlink:href="#mcda5bdec26" y="44.760046"/>
      </g>
     </g>
     <g id="line2d_20">
      <g>
       <use style="stroke:#000000;stroke-width:0.8;" x="735.716563" xlink:href="#me3ddd687db" y="44.760046"/>
      </g>
     </g>
     <g id="text_10">
      <!-- 1.0 -->
      <g transform="translate(40.352187 50.078952)scale(0.14 -0.14)">
       <use xlink:href="#DejaVuSans-49"/>
       <use x="63.623047" xlink:href="#DejaVuSans-46"/>
       <use x="95.410156" xlink:href="#DejaVuSans-48"/>
      </g>
     </g>
    </g>
    <g id="text_11">
     <!-- Diffusion Time Constant (s) -->
     <g transform="translate(20.877187 252.48375)rotate(-90)scale(0.18 -0.18)">
      <defs>
       <path d="M 19.671875 64.796875 
L 19.671875 8.109375 
L 31.59375 8.109375 
Q 46.6875 8.109375 53.6875 14.9375 
Q 60.6875 21.78125 60.6875 36.53125 
Q 60.6875 51.171875 53.6875 57.984375 
Q 46.6875 64.796875 31.59375 64.796875 
z
M 9.8125 72.90625 
L 30.078125 72.90625 
Q 51.265625 72.90625 61.171875 64.09375 
Q 71.09375 55.28125 71.09375 36.53125 
Q 71.09375 17.671875 61.125 8.828125 
Q 51.171875 0 30.078125 0 
L 9.8125 0 
z
" id="DejaVuSans-68"/>
       <path d="M 37.109375 75.984375 
L 37.109375 68.5 
L 28.515625 68.5 
Q 23.6875 68.5 21.796875 66.546875 
Q 19.921875 64.59375 19.921875 59.515625 
L 19.921875 54.6875 
L 34.71875 54.6875 
L 34.71875 47.703125 
L 19.921875 47.703125 
L 19.921875 0 
L 10.890625 0 
L 10.890625 47.703125 
L 2.296875 47.703125 
L 2.296875 54.6875 
L 10.890625 54.6875 
L 10.890625 58.5 
Q 10.890625 67.625 15.140625 71.796875 
Q 19.390625 75.984375 28.609375 75.984375 
z
" id="DejaVuSans-102"/>
       <path d="M 30.609375 48.390625 
Q 23.390625 48.390625 19.1875 42.75 
Q 14.984375 37.109375 14.984375 27.296875 
Q 14.984375 17.484375 19.15625 11.84375 
Q 23.34375 6.203125 30.609375 6.203125 
Q 37.796875 6.203125 41.984375 11.859375 
Q 46.1875 17.53125 46.1875 27.296875 
Q 46.1875 37.015625 41.984375 42.703125 
Q 37.796875 48.390625 30.609375 48.390625 
z
M 30.609375 56 
Q 42.328125 56 49.015625 48.375 
Q 55.71875 40.765625 55.71875 27.296875 
Q 55.71875 13.875 49.015625 6.21875 
Q 42.328125 -1.421875 30.609375 -1.421875 
Q 18.84375 -1.421875 12.171875 6.21875 
Q 5.515625 13.875 5.515625 27.296875 
Q 5.515625 40.765625 12.171875 48.375 
Q 18.84375 56 30.609375 56 
z
" id="DejaVuSans-111"/>
       <path d="M 64.40625 67.28125 
L 64.40625 56.890625 
Q 59.421875 61.53125 53.78125 63.8125 
Q 48.140625 66.109375 41.796875 66.109375 
Q 29.296875 66.109375 22.65625 58.46875 
Q 16.015625 50.828125 16.015625 36.375 
Q 16.015625 21.96875 22.65625 14.328125 
Q 29.296875 6.6875 41.796875 6.6875 
Q 48.140625 6.6875 53.78125 8.984375 
Q 59.421875 11.28125 64.40625 15.921875 
L 64.40625 5.609375 
Q 59.234375 2.09375 53.4375 0.328125 
Q 47.65625 -1.421875 41.21875 -1.421875 
Q 24.65625 -1.421875 15.125 8.703125 
Q 5.609375 18.84375 5.609375 36.375 
Q 5.609375 53.953125 15.125 64.078125 
Q 24.65625 74.21875 41.21875 74.21875 
Q 47.75 74.21875 53.53125 72.484375 
Q 59.328125 70.75 64.40625 67.28125 
z
" id="DejaVuSans-67"/>
      </defs>
      <use xlink:href="#DejaVuSans-68"/>
      <use x="77.001953" xlink:href="#DejaVuSans-105"/>
      <use x="104.785156" xlink:href="#DejaVuSans-102"/>
      <use x="139.990234" xlink:href="#DejaVuSans-102"/>
      <use x="175.195312" xlink:href="#DejaVuSans-117"/>
      <use x="238.574219" xlink:href="#DejaVuSans-115"/>
      <use x="290.673828" xlink:href="#DejaVuSans-105"/>
      <use x="318.457031" xlink:href="#DejaVuSans-111"/>
      <use x="379.638672" xlink:href="#DejaVuSans-110"/>
      <use x="443.017578" xlink:href="#DejaVuSans-32"/>
      <use x="474.804688" xlink:href="#DejaVuSans-84"/>
      <use x="532.763672" xlink:href="#DejaVuSans-105"/>
      <use x="560.546875" xlink:href="#DejaVuSans-109"/>
      <use x="657.958984" xlink:href="#DejaVuSans-101"/>
      <use x="719.482422" xlink:href="#DejaVuSans-32"/>
      <use x="751.269531" xlink:href="#DejaVuSans-67"/>
      <use x="821.09375" xlink:href="#DejaVuSans-111"/>
      <use x="882.275391" xlink:href="#DejaVuSans-110"/>
      <use x="945.654297" xlink:href="#DejaVuSans-115"/>
      <use x="997.753906" xlink:href="#DejaVuSans-116"/>
      <use x="1036.962891" xlink:href="#DejaVuSans-97"/>
      <use x="1098.242188" xlink:href="#DejaVuSans-110"/>
      <use x="1161.621094" xlink:href="#DejaVuSans-116"/>
      <use x="1200.830078" xlink:href="#DejaVuSans-32"/>
      <use x="1232.617188" xlink:href="#DejaVuSans-40"/>
      <use x="1271.630859" xlink:href="#DejaVuSans-115"/>
      <use x="1323.730469" xlink:href="#DejaVuSans-41"/>
     </g>
    </g>
   </g>
   <g id="line2d_21">
    <path clip-path="url(#pd968b322a8)" d="M 177.716563 202.451726 
L 177.716563 145.204867 
" style="fill:none;stroke:#373737;stroke-linecap:square;stroke-width:0.8;"/>
   </g>
   <g id="line2d_22">
    <path clip-path="url(#pd968b322a8)" d="M 177.716563 202.053514 
L 177.716563 164.701293 
" style="fill:none;stroke:#373737;stroke-linecap:square;stroke-width:2.4;"/>
   </g>
   <g id="line2d_23">
    <path clip-path="url(#pd968b322a8)" d="M 400.916562 202.451726 
L 400.916562 130.471049 
" style="fill:none;stroke:#373737;stroke-linecap:square;stroke-width:0.8;"/>
   </g>
   <g id="line2d_24">
    <path clip-path="url(#pd968b322a8)" d="M 400.916562 201.165503 
L 400.916562 168.317052 
" style="fill:none;stroke:#373737;stroke-linecap:square;stroke-width:2.4;"/>
   </g>
   <g id="line2d_25">
    <path clip-path="url(#pd968b322a8)" d="M 624.116562 202.451726 
L 624.116562 143.866877 
" style="fill:none;stroke:#373737;stroke-linecap:square;stroke-width:0.8;"/>
   </g>
   <g id="line2d_26">
    <path clip-path="url(#pd968b322a8)" d="M 624.116562 202.451726 
L 624.116562 178.722314 
" style="fill:none;stroke:#373737;stroke-linecap:square;stroke-width:2.4;"/>
   </g>
   <g id="patch_3">
    <path d="M 66.116563 240.721875 
L 66.116563 18.961875 
" style="fill:none;stroke:#000000;stroke-linecap:square;stroke-linejoin:miter;stroke-width:0.8;"/>
   </g>
   <g id="patch_4">
    <path d="M 735.716563 240.721875 
L 735.716563 18.961875 
" style="fill:none;stroke:#000000;stroke-linecap:square;stroke-linejoin:miter;stroke-width:0.8;"/>
   </g>
   <g id="patch_5">
    <path d="M 66.116563 240.721875 
L 735.716563 240.721875 
" style="fill:none;stroke:#000000;stroke-linecap:square;stroke-linejoin:miter;stroke-width:0.8;"/>
   </g>
   <g id="patch_6">
    <path d="M 66.116563 18.961875 
L 735.716563 18.961875 
" style="fill:none;stroke:#000000;stroke-linecap:square;stroke-linejoin:miter;stroke-width:0.8;"/>
   </g>
   <g id="PathCollection_1">
    <defs>
     <path d="M 0 0.8 
C 0.212162 0.8 0.415664 0.715707 0.565685 0.565685 
C 0.715707 0.415664 0.8 0.212162 0.8 0 
C 0.8 -0.212162 0.715707 -0.415664 0.565685 -0.565685 
C 0.415664 -0.715707 0.212162 -0.8 0 -0.8 
C -0.212162 -0.8 -0.415664 -0.715707 -0.565685 -0.565685 
C -0.715707 -0.415664 -0.8 -0.212162 -0.8 0 
C -0.8 0.212162 -0.715707 0.415664 -0.565685 0.565685 
C -0.415664 0.715707 -0.212162 0.8 0 0.8 
z
" id="m57e000452a" style="stroke:#373737;"/>
    </defs>
    <g clip-path="url(#pd968b322a8)">
     <use style="fill:#ffffff;stroke:#373737;" x="177.716563" xlink:href="#m57e000452a" y="186.491416"/>
    </g>
   </g>
   <g id="PathCollection_2">
    <g clip-path="url(#pd968b322a8)">
     <use style="fill:#ffffff;stroke:#373737;" x="400.916562" xlink:href="#m57e000452a" y="183.512796"/>
    </g>
   </g>
   <g id="PathCollection_3">
    <g clip-path="url(#pd968b322a8)">
     <use style="fill:#ffffff;stroke:#373737;" x="624.116562" xlink:href="#m57e000452a" y="201.766802"/>
    </g>
   </g>
   <g id="text_12">
    <!-- 0.1102 -->
    <g transform="translate(182.180563 191.757363)scale(0.14 -0.14)">
     <defs>
      <path d="M 46 36.53125 
Q 46 50.203125 43.4375 55.78125 
Q 40.875 61.375 34.8125 61.375 
Q 28.765625 61.375 26.171875 55.78125 
Q 23.578125 50.203125 23.578125 36.53125 
Q 23.578125 22.703125 26.171875 17.03125 
Q 28.765625 11.375 34.8125 11.375 
Q 40.828125 11.375 43.40625 17.03125 
Q 46 22.703125 46 36.53125 
z
M 64.796875 36.375 
Q 64.796875 18.265625 56.984375 8.421875 
Q 49.171875 -1.421875 34.8125 -1.421875 
Q 20.40625 -1.421875 12.59375 8.421875 
Q 4.78125 18.265625 4.78125 36.375 
Q 4.78125 54.546875 12.59375 64.375 
Q 20.40625 74.21875 34.8125 74.21875 
Q 49.171875 74.21875 56.984375 64.375 
Q 64.796875 54.546875 64.796875 36.375 
z
" id="DejaVuSans-Bold-48"/>
      <path d="M 10.203125 18.890625 
L 27.78125 18.890625 
L 27.78125 0 
L 10.203125 0 
z
" id="DejaVuSans-Bold-46"/>
      <path d="M 11.71875 12.984375 
L 28.328125 12.984375 
L 28.328125 60.109375 
L 11.28125 56.59375 
L 11.28125 69.390625 
L 28.21875 72.90625 
L 46.09375 72.90625 
L 46.09375 12.984375 
L 62.703125 12.984375 
L 62.703125 0 
L 11.71875 0 
z
" id="DejaVuSans-Bold-49"/>
      <path d="M 28.8125 13.8125 
L 60.890625 13.8125 
L 60.890625 0 
L 7.90625 0 
L 7.90625 13.8125 
L 34.515625 37.3125 
Q 38.09375 40.53125 39.796875 43.609375 
Q 41.5 46.6875 41.5 50 
Q 41.5 55.125 38.0625 58.25 
Q 34.625 61.375 28.90625 61.375 
Q 24.515625 61.375 19.28125 59.5 
Q 14.0625 57.625 8.109375 53.90625 
L 8.109375 69.921875 
Q 14.453125 72.015625 20.65625 73.109375 
Q 26.859375 74.21875 32.8125 74.21875 
Q 45.90625 74.21875 53.15625 68.453125 
Q 60.40625 62.703125 60.40625 52.390625 
Q 60.40625 46.4375 57.328125 41.28125 
Q 54.25 36.140625 44.390625 27.484375 
z
" id="DejaVuSans-Bold-50"/>
     </defs>
     <use xlink:href="#DejaVuSans-Bold-48"/>
     <use x="69.580078" xlink:href="#DejaVuSans-Bold-46"/>
     <use x="107.568359" xlink:href="#DejaVuSans-Bold-49"/>
     <use x="177.148438" xlink:href="#DejaVuSans-Bold-49"/>
     <use x="246.728516" xlink:href="#DejaVuSans-Bold-48"/>
     <use x="316.308594" xlink:href="#DejaVuSans-Bold-50"/>
    </g>
   </g>
   <g id="text_13">
    <!-- 0.1289 -->
    <g transform="translate(405.380562 189.672328)scale(0.14 -0.14)">
     <defs>
      <path d="M 34.8125 32.625 
Q 29.546875 32.625 26.703125 29.734375 
Q 23.875 26.859375 23.875 21.484375 
Q 23.875 16.109375 26.703125 13.25 
Q 29.546875 10.40625 34.8125 10.40625 
Q 40.046875 10.40625 42.828125 13.25 
Q 45.609375 16.109375 45.609375 21.484375 
Q 45.609375 26.90625 42.828125 29.765625 
Q 40.046875 32.625 34.8125 32.625 
z
M 21.09375 38.8125 
Q 14.453125 40.828125 11.078125 44.96875 
Q 7.71875 49.125 7.71875 55.328125 
Q 7.71875 64.546875 14.59375 69.375 
Q 21.484375 74.21875 34.8125 74.21875 
Q 48.046875 74.21875 54.921875 69.40625 
Q 61.8125 64.59375 61.8125 55.328125 
Q 61.8125 49.125 58.421875 44.96875 
Q 55.03125 40.828125 48.390625 38.8125 
Q 55.8125 36.765625 59.59375 32.15625 
Q 63.375 27.546875 63.375 20.515625 
Q 63.375 9.671875 56.171875 4.125 
Q 48.96875 -1.421875 34.8125 -1.421875 
Q 20.609375 -1.421875 13.359375 4.125 
Q 6.109375 9.671875 6.109375 20.515625 
Q 6.109375 27.546875 9.890625 32.15625 
Q 13.671875 36.765625 21.09375 38.8125 
z
M 25.484375 53.421875 
Q 25.484375 49.078125 27.90625 46.734375 
Q 30.328125 44.390625 34.8125 44.390625 
Q 39.203125 44.390625 41.59375 46.734375 
Q 44 49.078125 44 53.421875 
Q 44 57.765625 41.59375 60.078125 
Q 39.203125 62.40625 34.8125 62.40625 
Q 30.328125 62.40625 27.90625 60.0625 
Q 25.484375 57.71875 25.484375 53.421875 
z
" id="DejaVuSans-Bold-56"/>
      <path d="M 10.015625 1.609375 
L 10.015625 15.09375 
Q 14.5 12.984375 18.59375 11.9375 
Q 22.703125 10.890625 26.703125 10.890625 
Q 35.109375 10.890625 39.796875 15.546875 
Q 44.484375 20.21875 45.3125 29.390625 
Q 42 26.953125 38.234375 25.734375 
Q 34.46875 24.515625 30.078125 24.515625 
Q 18.890625 24.515625 12.03125 31.03125 
Q 5.171875 37.546875 5.171875 48.1875 
Q 5.171875 59.96875 12.8125 67.046875 
Q 20.453125 74.125 33.296875 74.125 
Q 47.5625 74.125 55.375 64.5 
Q 63.1875 54.890625 63.1875 37.3125 
Q 63.1875 19.234375 54.046875 8.90625 
Q 44.921875 -1.421875 29 -1.421875 
Q 23.875 -1.421875 19.1875 -0.65625 
Q 14.5 0.09375 10.015625 1.609375 
z
M 33.203125 36.71875 
Q 38.140625 36.71875 40.625 39.90625 
Q 43.109375 43.109375 43.109375 49.515625 
Q 43.109375 55.859375 40.625 59.078125 
Q 38.140625 62.3125 33.203125 62.3125 
Q 28.265625 62.3125 25.78125 59.078125 
Q 23.296875 55.859375 23.296875 49.515625 
Q 23.296875 43.109375 25.78125 39.90625 
Q 28.265625 36.71875 33.203125 36.71875 
z
" id="DejaVuSans-Bold-57"/>
     </defs>
     <use xlink:href="#DejaVuSans-Bold-48"/>
     <use x="69.580078" xlink:href="#DejaVuSans-Bold-46"/>
     <use x="107.568359" xlink:href="#DejaVuSans-Bold-49"/>
     <use x="177.148438" xlink:href="#DejaVuSans-Bold-50"/>
     <use x="246.728516" xlink:href="#DejaVuSans-Bold-56"/>
     <use x="316.308594" xlink:href="#DejaVuSans-Bold-57"/>
    </g>
   </g>
   <g id="text_14">
    <!-- 0.0143 -->
    <g transform="translate(628.580563 202.450133)scale(0.14 -0.14)">
     <defs>
      <path d="M 36.8125 57.421875 
L 16.21875 26.90625 
L 36.8125 26.90625 
z
M 33.6875 72.90625 
L 54.59375 72.90625 
L 54.59375 26.90625 
L 64.984375 26.90625 
L 64.984375 13.28125 
L 54.59375 13.28125 
L 54.59375 0 
L 36.8125 0 
L 36.8125 13.28125 
L 4.5 13.28125 
L 4.5 29.390625 
z
" id="DejaVuSans-Bold-52"/>
      <path d="M 46.578125 39.3125 
Q 53.953125 37.40625 57.78125 32.6875 
Q 61.625 27.984375 61.625 20.703125 
Q 61.625 9.859375 53.3125 4.21875 
Q 45.015625 -1.421875 29.109375 -1.421875 
Q 23.484375 -1.421875 17.84375 -0.515625 
Q 12.203125 0.390625 6.6875 2.203125 
L 6.6875 16.703125 
Q 11.96875 14.0625 17.15625 12.71875 
Q 22.359375 11.375 27.390625 11.375 
Q 34.859375 11.375 38.84375 13.953125 
Q 42.828125 16.546875 42.828125 21.390625 
Q 42.828125 26.375 38.75 28.9375 
Q 34.671875 31.5 26.703125 31.5 
L 19.1875 31.5 
L 19.1875 43.609375 
L 27.09375 43.609375 
Q 34.1875 43.609375 37.640625 45.828125 
Q 41.109375 48.046875 41.109375 52.59375 
Q 41.109375 56.78125 37.734375 59.078125 
Q 34.375 61.375 28.21875 61.375 
Q 23.6875 61.375 19.046875 60.34375 
Q 14.40625 59.328125 9.8125 57.328125 
L 9.8125 71.09375 
Q 15.375 72.65625 20.84375 73.4375 
Q 26.3125 74.21875 31.59375 74.21875 
Q 45.796875 74.21875 52.84375 69.546875 
Q 59.90625 64.890625 59.90625 55.515625 
Q 59.90625 49.125 56.53125 45.046875 
Q 53.171875 40.96875 46.578125 39.3125 
z
" id="DejaVuSans-Bold-51"/>
     </defs>
     <use xlink:href="#DejaVuSans-Bold-48"/>
     <use x="69.580078" xlink:href="#DejaVuSans-Bold-46"/>
     <use x="107.568359" xlink:href="#DejaVuSans-Bold-48"/>
     <use x="177.148438" xlink:href="#DejaVuSans-Bold-49"/>
     <use x="246.728516" xlink:href="#DejaVuSans-Bold-52"/>
     <use x="316.308594" xlink:href="#DejaVuSans-Bold-51"/>
    </g>
   </g>
  </g>
 </g>
 <defs>
  <clipPath id="pd968b322a8">
   <rect height="221.76" width="669.6" x="66.116563" y="18.961875"/>
  </clipPath>
 </defs>
</svg>
