<?xml version="1.0" encoding="utf-8" standalone="no"?>
<!DOCTYPE svg PUBLIC "-//W3C//DTD SVG 1.1//EN"
  "http://www.w3.org/Graphics/SVG/1.1/DTD/svg11.dtd">
<!-- Created with matplotlib (https://matplotlib.org/) -->
<svg height="280.648187pt" version="1.1" viewBox="0 0 751.824062 280.648187" width="751.824062pt" xmlns="http://www.w3.org/2000/svg" xmlns:xlink="http://www.w3.org/1999/xlink">
 <metadata>
  <rdf:RDF xmlns:cc="http://creativecommons.org/ns#" xmlns:dc="http://purl.org/dc/elements/1.1/" xmlns:rdf="http://www.w3.org/1999/02/22-rdf-syntax-ns#">
   <cc:Work>
    <dc:type rdf:resource="http://purl.org/dc/dcmitype/StillImage"/>
    <dc:date>2023-02-16T23:48:28.531340</dc:date>
    <dc:format>image/svg+xml</dc:format>
    <dc:creator>
     <cc:Agent>
      <dc:title>Matplotlib v3.3.4, https://matplotlib.org/</dc:title>
     </cc:Agent>
    </dc:creator>
   </cc:Work>
  </rdf:RDF>
 </metadata>
 <defs>
  <style type="text/css">*{stroke-linecap:butt;stroke-linejoin:round;}</style>
 </defs>
 <g id="figure_1">
  <g id="patch_1">
   <path d="M 0 280.648187 
L 751.824062 280.648187 
L 751.824062 0 
L 0 0 
z
" style="fill:#ffffff;"/>
  </g>
  <g id="axes_1">
   <g id="patch_2">
    <path d="M 75.024063 240.721875 
L 744.624063 240.721875 
L 744.624063 18.961875 
L 75.024063 18.961875 
z
" style="fill:#ffffff;"/>
   </g>
   <g id="PolyCollection_1">
    <defs>
     <path d="M 187.718525 -55.803347 
L 185.5296 -55.803347 
L 185.180907 -57.722599 
L 184.747408 -59.641851 
L 184.216618 -61.561103 
L 183.576244 -63.480355 
L 182.814605 -65.399606 
L 181.921024 -67.318858 
L 180.886126 -69.23811 
L 179.702028 -71.157362 
L 178.36239 -73.076614 
L 176.862355 -74.995866 
L 175.198414 -76.915117 
L 173.368269 -78.834369 
L 171.370797 -80.753621 
L 169.206203 -82.672873 
L 166.87646 -84.592125 
L 164.386076 -86.511376 
L 161.743197 -88.430628 
L 158.960948 -90.34988 
L 156.058899 -92.269132 
L 153.064437 -94.188384 
L 150.013802 -96.107636 
L 146.952568 -98.026887 
L 143.935337 -99.946139 
L 141.024541 -101.865391 
L 138.288296 -103.784643 
L 135.797422 -105.703895 
L 133.621804 -107.623146 
L 131.82642 -109.542398 
L 130.467368 -111.46165 
L 129.588289 -113.380902 
L 129.217506 -115.300154 
L 129.366168 -117.219406 
L 130.027543 -119.138657 
L 131.177505 -121.057909 
L 132.776136 -122.977161 
L 134.770258 -124.896413 
L 137.096634 -126.815665 
L 139.685546 -128.734917 
L 142.464443 -130.654168 
L 145.361409 -132.57342 
L 148.308209 -134.492672 
L 151.242783 -136.411924 
L 154.111091 -138.331176 
L 156.868304 -140.250427 
L 159.479358 -142.169679 
L 161.918945 -144.088931 
L 164.171037 -146.008183 
L 166.228033 -147.927435 
L 168.089636 -149.846687 
L 169.761545 -151.765938 
L 171.254046 -153.68519 
L 172.58058 -155.604442 
L 173.756333 -157.523694 
L 174.796919 -159.442946 
L 175.717177 -161.362198 
L 176.53014 -163.281449 
L 177.24618 -165.200701 
L 177.872369 -167.119953 
L 178.412048 -169.039205 
L 178.864626 -170.958457 
L 179.225593 -172.877708 
L 179.486762 -174.79696 
L 179.636723 -176.716212 
L 179.661522 -178.635464 
L 179.545574 -180.554716 
L 179.272793 -182.473968 
L 178.827963 -184.393219 
L 178.198305 -186.312471 
L 177.375212 -188.231723 
L 176.356059 -190.150975 
L 175.14597 -192.070227 
L 173.759374 -193.989479 
L 172.221163 -195.90873 
L 170.567246 -197.827982 
L 168.844315 -199.747234 
L 167.108678 -201.666486 
L 165.424122 -203.585738 
L 163.858834 -205.504989 
L 162.481555 -207.424241 
L 161.35726 -209.343493 
L 160.542717 -211.262745 
L 160.082365 -213.181997 
L 160.004926 -215.101249 
L 160.321124 -217.0205 
L 161.022771 -218.939752 
L 162.083326 -220.859004 
L 163.459895 -222.778256 
L 165.096444 -224.697508 
L 166.927913 -226.616759 
L 168.884781 -228.536011 
L 170.897665 -230.455263 
L 172.901505 -232.374515 
L 174.839009 -234.293767 
L 176.663127 -236.213019 
L 178.338447 -238.13227 
L 179.841528 -240.051522 
L 181.160323 -241.970774 
L 182.292857 -243.890026 
L 183.245441 -245.809278 
L 190.002684 -245.809278 
L 190.002684 -245.809278 
L 190.955268 -243.890026 
L 192.087802 -241.970774 
L 193.406597 -240.051522 
L 194.909678 -238.13227 
L 196.584998 -236.213019 
L 198.409116 -234.293767 
L 200.34662 -232.374515 
L 202.35046 -230.455263 
L 204.363344 -228.536011 
L 206.320212 -226.616759 
L 208.151681 -224.697508 
L 209.78823 -222.778256 
L 211.164799 -220.859004 
L 212.225354 -218.939752 
L 212.927001 -217.0205 
L 213.243199 -215.101249 
L 213.16576 -213.181997 
L 212.705408 -211.262745 
L 211.890865 -209.343493 
L 210.76657 -207.424241 
L 209.389291 -205.504989 
L 207.824003 -203.585738 
L 206.139447 -201.666486 
L 204.40381 -199.747234 
L 202.680879 -197.827982 
L 201.026962 -195.90873 
L 199.488751 -193.989479 
L 198.102155 -192.070227 
L 196.892066 -190.150975 
L 195.872913 -188.231723 
L 195.04982 -186.312471 
L 194.420162 -184.393219 
L 193.975332 -182.473968 
L 193.702551 -180.554716 
L 193.586603 -178.635464 
L 193.611402 -176.716212 
L 193.761363 -174.79696 
L 194.022532 -172.877708 
L 194.383499 -170.958457 
L 194.836077 -169.039205 
L 195.375756 -167.119953 
L 196.001945 -165.200701 
L 196.717985 -163.281449 
L 197.530948 -161.362198 
L 198.451206 -159.442946 
L 199.491792 -157.523694 
L 200.667545 -155.604442 
L 201.994079 -153.68519 
L 203.48658 -151.765938 
L 205.158489 -149.846687 
L 207.020092 -147.927435 
L 209.077088 -146.008183 
L 211.32918 -144.088931 
L 213.768767 -142.169679 
L 216.379821 -140.250427 
L 219.137034 -138.331176 
L 222.005342 -136.411924 
L 224.939916 -134.492672 
L 227.886716 -132.57342 
L 230.783682 -130.654168 
L 233.562579 -128.734917 
L 236.151491 -126.815665 
L 238.477867 -124.896413 
L 240.471989 -122.977161 
L 242.07062 -121.057909 
L 243.220582 -119.138657 
L 243.881957 -117.219406 
L 244.030619 -115.300154 
L 243.659836 -113.380902 
L 242.780757 -111.46165 
L 241.421705 -109.542398 
L 239.626321 -107.623146 
L 237.450703 -105.703895 
L 234.959829 -103.784643 
L 232.223584 -101.865391 
L 229.312788 -99.946139 
L 226.295557 -98.026887 
L 223.234323 -96.107636 
L 220.183688 -94.188384 
L 217.189226 -92.269132 
L 214.287177 -90.34988 
L 211.504928 -88.430628 
L 208.862049 -86.511376 
L 206.371665 -84.592125 
L 204.041922 -82.672873 
L 201.877328 -80.753621 
L 199.879856 -78.834369 
L 198.049711 -76.915117 
L 196.38577 -74.995866 
L 194.885735 -73.076614 
L 193.546097 -71.157362 
L 192.361999 -69.23811 
L 191.327101 -67.318858 
L 190.43352 -65.399606 
L 189.671881 -63.480355 
L 189.031507 -61.561103 
L 188.500717 -59.641851 
L 188.067218 -57.722599 
L 187.718525 -55.803347 
z
" id="m0b98290735" style="stroke:#373737;stroke-width:0.8;"/>
    </defs>
    <g clip-path="url(#p229b718414)">
     <use style="fill:#2b8e70;stroke:#373737;stroke-width:0.8;" x="0" xlink:href="#m0b98290735" y="280.648187"/>
    </g>
   </g>
   <g id="PolyCollection_2">
    <defs>
     <path d="M 412.233227 -50.006313 
L 407.414898 -50.006313 
L 406.736381 -52.042676 
L 405.911514 -54.07904 
L 404.92191 -56.115403 
L 403.750355 -58.151767 
L 402.381836 -60.188131 
L 400.804676 -62.224494 
L 399.011693 -64.260858 
L 397.001331 -66.297222 
L 394.778687 -68.333585 
L 392.356332 -70.369949 
L 389.754876 -72.406313 
L 387.003171 -74.442676 
L 384.138142 -76.47904 
L 381.204169 -78.515403 
L 378.252057 -80.551767 
L 375.337589 -82.588131 
L 372.519729 -84.624494 
L 369.858547 -86.660858 
L 367.412981 -88.697222 
L 365.23853 -90.733585 
L 363.385026 -92.769949 
L 361.894593 -94.806313 
L 360.799922 -96.842676 
L 360.122943 -98.87904 
L 359.873992 -100.915403 
L 360.051501 -102.951767 
L 360.642235 -104.988131 
L 361.622058 -107.024494 
L 362.957174 -109.060858 
L 364.605765 -111.097222 
L 366.519931 -113.133585 
L 368.647804 -115.169949 
L 370.935717 -117.206312 
L 373.330309 -119.242676 
L 375.780442 -121.27904 
L 378.238852 -123.315403 
L 380.663443 -125.351767 
L 383.018202 -127.388131 
L 385.273715 -129.424494 
L 387.407298 -131.460858 
L 389.402785 -133.497222 
L 391.250038 -135.533585 
L 392.944241 -137.569949 
L 394.485067 -139.606313 
L 395.875775 -141.642676 
L 397.122317 -143.67904 
L 398.232485 -145.715403 
L 399.215161 -147.751767 
L 400.079658 -149.788131 
L 400.835172 -151.824494 
L 401.490332 -153.860858 
L 402.052829 -155.897222 
L 402.529104 -157.933585 
L 402.92408 -159.969949 
L 403.240923 -162.006313 
L 403.480829 -164.042676 
L 403.642854 -166.07904 
L 403.723795 -168.115403 
L 403.718169 -170.151767 
L 403.618312 -172.188131 
L 403.414647 -174.224494 
L 403.096155 -176.260858 
L 402.651068 -178.297222 
L 402.067795 -180.333585 
L 401.33606 -182.369949 
L 400.448214 -184.406313 
L 399.400627 -186.442676 
L 398.19509 -188.47904 
L 396.84007 -190.515403 
L 395.351707 -192.551767 
L 393.754418 -194.588131 
L 392.080968 -196.624494 
L 390.371962 -198.660858 
L 388.674675 -200.697222 
L 387.041273 -202.733585 
L 385.526472 -204.769949 
L 384.184804 -206.806312 
L 383.067639 -208.842676 
L 382.220229 -210.87904 
L 381.678971 -212.915403 
L 381.469155 -214.951767 
L 381.603357 -216.988131 
L 382.080642 -219.024494 
L 382.886632 -221.060858 
L 383.994437 -223.097222 
L 385.366365 -225.133585 
L 386.956251 -227.169949 
L 388.712217 -229.206312 
L 390.579625 -231.242676 
L 392.503993 -233.27904 
L 394.433666 -235.315403 
L 396.322066 -237.351767 
L 398.12939 -239.388131 
L 399.823716 -241.424494 
L 401.381488 -243.460858 
L 402.787437 -245.497222 
L 404.03403 -247.533585 
L 405.120548 -249.569949 
L 406.051927 -251.606313 
L 413.596198 -251.606313 
L 413.596198 -251.606313 
L 414.527577 -249.569949 
L 415.614095 -247.533585 
L 416.860688 -245.497222 
L 418.266637 -243.460858 
L 419.824409 -241.424494 
L 421.518735 -239.388131 
L 423.326059 -237.351767 
L 425.214459 -235.315403 
L 427.144132 -233.27904 
L 429.0685 -231.242676 
L 430.935908 -229.206312 
L 432.691874 -227.169949 
L 434.28176 -225.133585 
L 435.653688 -223.097222 
L 436.761493 -221.060858 
L 437.567483 -219.024494 
L 438.044768 -216.988131 
L 438.17897 -214.951767 
L 437.969154 -212.915403 
L 437.427896 -210.87904 
L 436.580486 -208.842676 
L 435.463321 -206.806312 
L 434.121653 -204.769949 
L 432.606852 -202.733585 
L 430.97345 -200.697222 
L 429.276163 -198.660858 
L 427.567157 -196.624494 
L 425.893707 -194.588131 
L 424.296418 -192.551767 
L 422.808055 -190.515403 
L 421.453035 -188.47904 
L 420.247498 -186.442676 
L 419.199911 -184.406313 
L 418.312065 -182.369949 
L 417.58033 -180.333585 
L 416.997057 -178.297222 
L 416.55197 -176.260858 
L 416.233478 -174.224494 
L 416.029813 -172.188131 
L 415.929956 -170.151767 
L 415.92433 -168.115403 
L 416.005271 -166.07904 
L 416.167296 -164.042676 
L 416.407202 -162.006313 
L 416.724045 -159.969949 
L 417.119021 -157.933585 
L 417.595296 -155.897222 
L 418.157793 -153.860858 
L 418.812953 -151.824494 
L 419.568467 -149.788131 
L 420.432964 -147.751767 
L 421.41564 -145.715403 
L 422.525808 -143.67904 
L 423.77235 -141.642676 
L 425.163058 -139.606313 
L 426.703884 -137.569949 
L 428.398087 -135.533585 
L 430.24534 -133.497222 
L 432.240827 -131.460858 
L 434.37441 -129.424494 
L 436.629923 -127.388131 
L 438.984682 -125.351767 
L 441.409273 -123.315403 
L 443.867683 -121.27904 
L 446.317816 -119.242676 
L 448.712408 -117.206312 
L 451.000321 -115.169949 
L 453.128194 -113.133585 
L 455.04236 -111.097222 
L 456.690951 -109.060858 
L 458.026067 -107.024494 
L 459.00589 -104.988131 
L 459.596624 -102.951767 
L 459.774133 -100.915403 
L 459.525182 -98.87904 
L 458.848203 -96.842676 
L 457.753532 -94.806313 
L 456.263099 -92.769949 
L 454.409595 -90.733585 
L 452.235144 -88.697222 
L 449.789578 -86.660858 
L 447.128396 -84.624494 
L 444.310536 -82.588131 
L 441.396068 -80.551767 
L 438.443956 -78.515403 
L 435.509983 -76.47904 
L 432.644954 -74.442676 
L 429.893249 -72.406313 
L 427.291793 -70.369949 
L 424.869438 -68.333585 
L 422.646794 -66.297222 
L 420.636432 -64.260858 
L 418.843449 -62.224494 
L 417.266289 -60.188131 
L 415.89777 -58.151767 
L 414.726215 -56.115403 
L 413.736611 -54.07904 
L 412.911744 -52.042676 
L 412.233227 -50.006313 
z
" id="m1a12be7f0e" style="stroke:#373737;stroke-width:0.8;"/>
    </defs>
    <g clip-path="url(#p229b718414)">
     <use style="fill:#be631d;stroke:#373737;stroke-width:0.8;" x="0" xlink:href="#m1a12be7f0e" y="280.648187"/>
    </g>
   </g>
   <g id="PolyCollection_3">
    <defs>
     <path d="M 634.921281 -58.231982 
L 631.126844 -58.231982 
L 630.440681 -60.102171 
L 629.555644 -61.972359 
L 628.431319 -63.842548 
L 627.024307 -65.712736 
L 625.289529 -67.582925 
L 623.182036 -69.453113 
L 620.659317 -71.323302 
L 617.684132 -73.19349 
L 614.227808 -75.063679 
L 610.273928 -76.933867 
L 605.822233 -78.804056 
L 600.892509 -80.674244 
L 595.528107 -82.544433 
L 589.798717 -84.414621 
L 583.801903 -86.28481 
L 577.662952 -88.154998 
L 571.532627 -90.025187 
L 565.582561 -91.895375 
L 559.998232 -93.765564 
L 554.96976 -95.635752 
L 550.68105 -97.505941 
L 547.298094 -99.376129 
L 544.957473 -101.246318 
L 543.75621 -103.116506 
L 543.744063 -104.986695 
L 544.919184 -106.856883 
L 547.227706 -108.727072 
L 550.567404 -110.59726 
L 554.795101 -112.467449 
L 559.737069 -114.337637 
L 565.201329 -116.207825 
L 570.990592 -118.078014 
L 576.914557 -119.948202 
L 582.80046 -121.818391 
L 588.501049 -123.688579 
L 593.899529 -125.558768 
L 598.91143 -127.428956 
L 603.483684 -129.299145 
L 607.591463 -131.169333 
L 611.233498 -133.039522 
L 614.426614 -134.90971 
L 617.200183 -136.779899 
L 619.591022 -138.650087 
L 621.639115 -140.520276 
L 623.384355 -142.390464 
L 624.864324 -144.260653 
L 626.113016 -146.130841 
L 627.160344 -148.00103 
L 628.032201 -149.871218 
L 628.750898 -151.741407 
L 629.335771 -153.611595 
L 629.803832 -155.481784 
L 630.170358 -157.351972 
L 630.449348 -159.222161 
L 630.653826 -161.092349 
L 630.795985 -162.962538 
L 630.887174 -164.832726 
L 630.937751 -166.702915 
L 630.95684 -168.573103 
L 630.952005 -170.443292 
L 630.928897 -172.31348 
L 630.890893 -174.183669 
L 630.838778 -176.053857 
L 630.770516 -177.924046 
L 630.681157 -179.794234 
L 630.562928 -181.664423 
L 630.405571 -183.534611 
L 630.196953 -185.4048 
L 629.923984 -187.274988 
L 629.573831 -189.145176 
L 629.135374 -191.015365 
L 628.600834 -192.885553 
L 627.967407 -194.755742 
L 627.238745 -196.62593 
L 626.426078 -198.496119 
L 625.548772 -200.366307 
L 624.634167 -202.236496 
L 623.716593 -204.106684 
L 622.835547 -205.976873 
L 622.033146 -207.847061 
L 621.351052 -209.71725 
L 620.827168 -211.587438 
L 620.492468 -213.457627 
L 620.368309 -215.327815 
L 620.464544 -217.198004 
L 620.778671 -219.068192 
L 621.296105 -220.938381 
L 621.991539 -222.808569 
L 622.831215 -224.678758 
L 623.775821 -226.548946 
L 624.783682 -228.419135 
L 625.813881 -230.289323 
L 626.828994 -232.159512 
L 627.797217 -234.0297 
L 628.693727 -235.899889 
L 629.501265 -237.770077 
L 630.20999 -239.640266 
L 630.816759 -241.510454 
L 631.323993 -243.380643 
L 634.724132 -243.380643 
L 634.724132 -243.380643 
L 635.231366 -241.510454 
L 635.838135 -239.640266 
L 636.54686 -237.770077 
L 637.354398 -235.899889 
L 638.250908 -234.0297 
L 639.219131 -232.159512 
L 640.234244 -230.289323 
L 641.264443 -228.419135 
L 642.272304 -226.548946 
L 643.21691 -224.678758 
L 644.056586 -222.808569 
L 644.75202 -220.938381 
L 645.269454 -219.068192 
L 645.583581 -217.198004 
L 645.679816 -215.327815 
L 645.555657 -213.457627 
L 645.220957 -211.587438 
L 644.697073 -209.71725 
L 644.014979 -207.847061 
L 643.212578 -205.976873 
L 642.331532 -204.106684 
L 641.413958 -202.236496 
L 640.499353 -200.366307 
L 639.622047 -198.496119 
L 638.80938 -196.62593 
L 638.080718 -194.755742 
L 637.447291 -192.885553 
L 636.912751 -191.015365 
L 636.474294 -189.145176 
L 636.124141 -187.274988 
L 635.851172 -185.4048 
L 635.642554 -183.534611 
L 635.485197 -181.664423 
L 635.366968 -179.794234 
L 635.277609 -177.924046 
L 635.209347 -176.053857 
L 635.157232 -174.183669 
L 635.119228 -172.31348 
L 635.09612 -170.443292 
L 635.091285 -168.573103 
L 635.110374 -166.702915 
L 635.160951 -164.832726 
L 635.25214 -162.962538 
L 635.394299 -161.092349 
L 635.598777 -159.222161 
L 635.877767 -157.351972 
L 636.244293 -155.481784 
L 636.712354 -153.611595 
L 637.297227 -151.741407 
L 638.015924 -149.871218 
L 638.887781 -148.00103 
L 639.935109 -146.130841 
L 641.183801 -144.260653 
L 642.66377 -142.390464 
L 644.40901 -140.520276 
L 646.457103 -138.650087 
L 648.847942 -136.779899 
L 651.621511 -134.90971 
L 654.814627 -133.039522 
L 658.456662 -131.169333 
L 662.564441 -129.299145 
L 667.136695 -127.428956 
L 672.148596 -125.558768 
L 677.547076 -123.688579 
L 683.247665 -121.818391 
L 689.133568 -119.948202 
L 695.057533 -118.078014 
L 700.846796 -116.207825 
L 706.311056 -114.337637 
L 711.253024 -112.467449 
L 715.480721 -110.59726 
L 718.820419 -108.727072 
L 721.128941 -106.856883 
L 722.304062 -104.986695 
L 722.291915 -103.116506 
L 721.090652 -101.246318 
L 718.750031 -99.376129 
L 715.367075 -97.505941 
L 711.078365 -95.635752 
L 706.049893 -93.765564 
L 700.465564 -91.895375 
L 694.515498 -90.025187 
L 688.385173 -88.154998 
L 682.246222 -86.28481 
L 676.249408 -84.414621 
L 670.520018 -82.544433 
L 665.155616 -80.674244 
L 660.225892 -78.804056 
L 655.774197 -76.933867 
L 651.820317 -75.063679 
L 648.363993 -73.19349 
L 645.388808 -71.323302 
L 642.866089 -69.453113 
L 640.758596 -67.582925 
L 639.023818 -65.712736 
L 637.616806 -63.842548 
L 636.492481 -61.972359 
L 635.607444 -60.102171 
L 634.921281 -58.231982 
z
" id="m0ad9ef6940" style="stroke:#373737;stroke-width:0.8;"/>
    </defs>
    <g clip-path="url(#p229b718414)">
     <use style="fill:#7c78ab;stroke:#373737;stroke-width:0.8;" x="0" xlink:href="#m0ad9ef6940" y="280.648187"/>
    </g>
   </g>
   <g id="matplotlib.axis_1">
    <g id="xtick_1">
     <g id="line2d_1">
      <defs>
       <path d="M 0 0 
L 0 -3.5 
" id="m781c9a09d6" style="stroke:#000000;stroke-width:0.8;"/>
      </defs>
      <g>
       <use style="stroke:#000000;stroke-width:0.8;" x="186.624063" xlink:href="#m781c9a09d6" y="240.721875"/>
      </g>
     </g>
     <g id="line2d_2">
      <defs>
       <path d="M 0 0 
L 0 3.5 
" id="m87c1259853" style="stroke:#000000;stroke-width:0.8;"/>
      </defs>
      <g>
       <use style="stroke:#000000;stroke-width:0.8;" x="186.624063" xlink:href="#m87c1259853" y="18.961875"/>
      </g>
     </g>
     <g id="text_1">
      <!-- Treated substrate -->
      <g transform="translate(125.207813 254.859687)scale(0.14 -0.14)">
       <defs>
        <path d="M -0.296875 72.90625 
L 61.375 72.90625 
L 61.375 64.59375 
L 35.5 64.59375 
L 35.5 0 
L 25.59375 0 
L 25.59375 64.59375 
L -0.296875 64.59375 
z
" id="DejaVuSans-84"/>
        <path d="M 41.109375 46.296875 
Q 39.59375 47.171875 37.8125 47.578125 
Q 36.03125 48 33.890625 48 
Q 26.265625 48 22.1875 43.046875 
Q 18.109375 38.09375 18.109375 28.8125 
L 18.109375 0 
L 9.078125 0 
L 9.078125 54.6875 
L 18.109375 54.6875 
L 18.109375 46.1875 
Q 20.953125 51.171875 25.484375 53.578125 
Q 30.03125 56 36.53125 56 
Q 37.453125 56 38.578125 55.875 
Q 39.703125 55.765625 41.0625 55.515625 
z
" id="DejaVuSans-114"/>
        <path d="M 56.203125 29.59375 
L 56.203125 25.203125 
L 14.890625 25.203125 
Q 15.484375 15.921875 20.484375 11.0625 
Q 25.484375 6.203125 34.421875 6.203125 
Q 39.59375 6.203125 44.453125 7.46875 
Q 49.3125 8.734375 54.109375 11.28125 
L 54.109375 2.78125 
Q 49.265625 0.734375 44.1875 -0.34375 
Q 39.109375 -1.421875 33.890625 -1.421875 
Q 20.796875 -1.421875 13.15625 6.1875 
Q 5.515625 13.8125 5.515625 26.8125 
Q 5.515625 40.234375 12.765625 48.109375 
Q 20.015625 56 32.328125 56 
Q 43.359375 56 49.78125 48.890625 
Q 56.203125 41.796875 56.203125 29.59375 
z
M 47.21875 32.234375 
Q 47.125 39.59375 43.09375 43.984375 
Q 39.0625 48.390625 32.421875 48.390625 
Q 24.90625 48.390625 20.390625 44.140625 
Q 15.875 39.890625 15.1875 32.171875 
z
" id="DejaVuSans-101"/>
        <path d="M 34.28125 27.484375 
Q 23.390625 27.484375 19.1875 25 
Q 14.984375 22.515625 14.984375 16.5 
Q 14.984375 11.71875 18.140625 8.90625 
Q 21.296875 6.109375 26.703125 6.109375 
Q 34.1875 6.109375 38.703125 11.40625 
Q 43.21875 16.703125 43.21875 25.484375 
L 43.21875 27.484375 
z
M 52.203125 31.203125 
L 52.203125 0 
L 43.21875 0 
L 43.21875 8.296875 
Q 40.140625 3.328125 35.546875 0.953125 
Q 30.953125 -1.421875 24.3125 -1.421875 
Q 15.921875 -1.421875 10.953125 3.296875 
Q 6 8.015625 6 15.921875 
Q 6 25.140625 12.171875 29.828125 
Q 18.359375 34.515625 30.609375 34.515625 
L 43.21875 34.515625 
L 43.21875 35.40625 
Q 43.21875 41.609375 39.140625 45 
Q 35.0625 48.390625 27.6875 48.390625 
Q 23 48.390625 18.546875 47.265625 
Q 14.109375 46.140625 10.015625 43.890625 
L 10.015625 52.203125 
Q 14.9375 54.109375 19.578125 55.046875 
Q 24.21875 56 28.609375 56 
Q 40.484375 56 46.34375 49.84375 
Q 52.203125 43.703125 52.203125 31.203125 
z
" id="DejaVuSans-97"/>
        <path d="M 18.3125 70.21875 
L 18.3125 54.6875 
L 36.8125 54.6875 
L 36.8125 47.703125 
L 18.3125 47.703125 
L 18.3125 18.015625 
Q 18.3125 11.328125 20.140625 9.421875 
Q 21.96875 7.515625 27.59375 7.515625 
L 36.8125 7.515625 
L 36.8125 0 
L 27.59375 0 
Q 17.1875 0 13.234375 3.875 
Q 9.28125 7.765625 9.28125 18.015625 
L 9.28125 47.703125 
L 2.6875 47.703125 
L 2.6875 54.6875 
L 9.28125 54.6875 
L 9.28125 70.21875 
z
" id="DejaVuSans-116"/>
        <path d="M 45.40625 46.390625 
L 45.40625 75.984375 
L 54.390625 75.984375 
L 54.390625 0 
L 45.40625 0 
L 45.40625 8.203125 
Q 42.578125 3.328125 38.25 0.953125 
Q 33.9375 -1.421875 27.875 -1.421875 
Q 17.96875 -1.421875 11.734375 6.484375 
Q 5.515625 14.40625 5.515625 27.296875 
Q 5.515625 40.1875 11.734375 48.09375 
Q 17.96875 56 27.875 56 
Q 33.9375 56 38.25 53.625 
Q 42.578125 51.265625 45.40625 46.390625 
z
M 14.796875 27.296875 
Q 14.796875 17.390625 18.875 11.75 
Q 22.953125 6.109375 30.078125 6.109375 
Q 37.203125 6.109375 41.296875 11.75 
Q 45.40625 17.390625 45.40625 27.296875 
Q 45.40625 37.203125 41.296875 42.84375 
Q 37.203125 48.484375 30.078125 48.484375 
Q 22.953125 48.484375 18.875 42.84375 
Q 14.796875 37.203125 14.796875 27.296875 
z
" id="DejaVuSans-100"/>
        <path id="DejaVuSans-32"/>
        <path d="M 44.28125 53.078125 
L 44.28125 44.578125 
Q 40.484375 46.53125 36.375 47.5 
Q 32.28125 48.484375 27.875 48.484375 
Q 21.1875 48.484375 17.84375 46.4375 
Q 14.5 44.390625 14.5 40.28125 
Q 14.5 37.15625 16.890625 35.375 
Q 19.28125 33.59375 26.515625 31.984375 
L 29.59375 31.296875 
Q 39.15625 29.25 43.1875 25.515625 
Q 47.21875 21.78125 47.21875 15.09375 
Q 47.21875 7.46875 41.1875 3.015625 
Q 35.15625 -1.421875 24.609375 -1.421875 
Q 20.21875 -1.421875 15.453125 -0.5625 
Q 10.6875 0.296875 5.421875 2 
L 5.421875 11.28125 
Q 10.40625 8.6875 15.234375 7.390625 
Q 20.0625 6.109375 24.8125 6.109375 
Q 31.15625 6.109375 34.5625 8.28125 
Q 37.984375 10.453125 37.984375 14.40625 
Q 37.984375 18.0625 35.515625 20.015625 
Q 33.0625 21.96875 24.703125 23.78125 
L 21.578125 24.515625 
Q 13.234375 26.265625 9.515625 29.90625 
Q 5.8125 33.546875 5.8125 39.890625 
Q 5.8125 47.609375 11.28125 51.796875 
Q 16.75 56 26.8125 56 
Q 31.78125 56 36.171875 55.265625 
Q 40.578125 54.546875 44.28125 53.078125 
z
" id="DejaVuSans-115"/>
        <path d="M 8.5 21.578125 
L 8.5 54.6875 
L 17.484375 54.6875 
L 17.484375 21.921875 
Q 17.484375 14.15625 20.5 10.265625 
Q 23.53125 6.390625 29.59375 6.390625 
Q 36.859375 6.390625 41.078125 11.03125 
Q 45.3125 15.671875 45.3125 23.6875 
L 45.3125 54.6875 
L 54.296875 54.6875 
L 54.296875 0 
L 45.3125 0 
L 45.3125 8.40625 
Q 42.046875 3.421875 37.71875 1 
Q 33.40625 -1.421875 27.6875 -1.421875 
Q 18.265625 -1.421875 13.375 4.4375 
Q 8.5 10.296875 8.5 21.578125 
z
M 31.109375 56 
z
" id="DejaVuSans-117"/>
        <path d="M 48.6875 27.296875 
Q 48.6875 37.203125 44.609375 42.84375 
Q 40.53125 48.484375 33.40625 48.484375 
Q 26.265625 48.484375 22.1875 42.84375 
Q 18.109375 37.203125 18.109375 27.296875 
Q 18.109375 17.390625 22.1875 11.75 
Q 26.265625 6.109375 33.40625 6.109375 
Q 40.53125 6.109375 44.609375 11.75 
Q 48.6875 17.390625 48.6875 27.296875 
z
M 18.109375 46.390625 
Q 20.953125 51.265625 25.265625 53.625 
Q 29.59375 56 35.59375 56 
Q 45.5625 56 51.78125 48.09375 
Q 58.015625 40.1875 58.015625 27.296875 
Q 58.015625 14.40625 51.78125 6.484375 
Q 45.5625 -1.421875 35.59375 -1.421875 
Q 29.59375 -1.421875 25.265625 0.953125 
Q 20.953125 3.328125 18.109375 8.203125 
L 18.109375 0 
L 9.078125 0 
L 9.078125 75.984375 
L 18.109375 75.984375 
z
" id="DejaVuSans-98"/>
       </defs>
       <use xlink:href="#DejaVuSans-84"/>
       <use x="46.333984" xlink:href="#DejaVuSans-114"/>
       <use x="85.197266" xlink:href="#DejaVuSans-101"/>
       <use x="146.720703" xlink:href="#DejaVuSans-97"/>
       <use x="208" xlink:href="#DejaVuSans-116"/>
       <use x="247.208984" xlink:href="#DejaVuSans-101"/>
       <use x="308.732422" xlink:href="#DejaVuSans-100"/>
       <use x="372.208984" xlink:href="#DejaVuSans-32"/>
       <use x="403.996094" xlink:href="#DejaVuSans-115"/>
       <use x="456.095703" xlink:href="#DejaVuSans-117"/>
       <use x="519.474609" xlink:href="#DejaVuSans-98"/>
       <use x="582.951172" xlink:href="#DejaVuSans-115"/>
       <use x="635.050781" xlink:href="#DejaVuSans-116"/>
       <use x="674.259766" xlink:href="#DejaVuSans-114"/>
       <use x="715.373047" xlink:href="#DejaVuSans-97"/>
       <use x="776.652344" xlink:href="#DejaVuSans-116"/>
       <use x="815.861328" xlink:href="#DejaVuSans-101"/>
      </g>
      <!-- (step width=0.43±0.04μm) -->
      <g transform="translate(90.325937 270.536625)scale(0.14 -0.14)">
       <defs>
        <path d="M 31 75.875 
Q 24.46875 64.65625 21.28125 53.65625 
Q 18.109375 42.671875 18.109375 31.390625 
Q 18.109375 20.125 21.3125 9.0625 
Q 24.515625 -2 31 -13.1875 
L 23.1875 -13.1875 
Q 15.875 -1.703125 12.234375 9.375 
Q 8.59375 20.453125 8.59375 31.390625 
Q 8.59375 42.28125 12.203125 53.3125 
Q 15.828125 64.359375 23.1875 75.875 
z
" id="DejaVuSans-40"/>
        <path d="M 18.109375 8.203125 
L 18.109375 -20.796875 
L 9.078125 -20.796875 
L 9.078125 54.6875 
L 18.109375 54.6875 
L 18.109375 46.390625 
Q 20.953125 51.265625 25.265625 53.625 
Q 29.59375 56 35.59375 56 
Q 45.5625 56 51.78125 48.09375 
Q 58.015625 40.1875 58.015625 27.296875 
Q 58.015625 14.40625 51.78125 6.484375 
Q 45.5625 -1.421875 35.59375 -1.421875 
Q 29.59375 -1.421875 25.265625 0.953125 
Q 20.953125 3.328125 18.109375 8.203125 
z
M 48.6875 27.296875 
Q 48.6875 37.203125 44.609375 42.84375 
Q 40.53125 48.484375 33.40625 48.484375 
Q 26.265625 48.484375 22.1875 42.84375 
Q 18.109375 37.203125 18.109375 27.296875 
Q 18.109375 17.390625 22.1875 11.75 
Q 26.265625 6.109375 33.40625 6.109375 
Q 40.53125 6.109375 44.609375 11.75 
Q 48.6875 17.390625 48.6875 27.296875 
z
" id="DejaVuSans-112"/>
        <path d="M 4.203125 54.6875 
L 13.1875 54.6875 
L 24.421875 12.015625 
L 35.59375 54.6875 
L 46.1875 54.6875 
L 57.421875 12.015625 
L 68.609375 54.6875 
L 77.59375 54.6875 
L 63.28125 0 
L 52.6875 0 
L 40.921875 44.828125 
L 29.109375 0 
L 18.5 0 
z
" id="DejaVuSans-119"/>
        <path d="M 9.421875 54.6875 
L 18.40625 54.6875 
L 18.40625 0 
L 9.421875 0 
z
M 9.421875 75.984375 
L 18.40625 75.984375 
L 18.40625 64.59375 
L 9.421875 64.59375 
z
" id="DejaVuSans-105"/>
        <path d="M 54.890625 33.015625 
L 54.890625 0 
L 45.90625 0 
L 45.90625 32.71875 
Q 45.90625 40.484375 42.875 44.328125 
Q 39.84375 48.1875 33.796875 48.1875 
Q 26.515625 48.1875 22.3125 43.546875 
Q 18.109375 38.921875 18.109375 30.90625 
L 18.109375 0 
L 9.078125 0 
L 9.078125 75.984375 
L 18.109375 75.984375 
L 18.109375 46.1875 
Q 21.34375 51.125 25.703125 53.5625 
Q 30.078125 56 35.796875 56 
Q 45.21875 56 50.046875 50.171875 
Q 54.890625 44.34375 54.890625 33.015625 
z
" id="DejaVuSans-104"/>
        <path d="M 10.59375 45.40625 
L 73.1875 45.40625 
L 73.1875 37.203125 
L 10.59375 37.203125 
z
M 10.59375 25.484375 
L 73.1875 25.484375 
L 73.1875 17.1875 
L 10.59375 17.1875 
z
" id="DejaVuSans-61"/>
        <path d="M 31.78125 66.40625 
Q 24.171875 66.40625 20.328125 58.90625 
Q 16.5 51.421875 16.5 36.375 
Q 16.5 21.390625 20.328125 13.890625 
Q 24.171875 6.390625 31.78125 6.390625 
Q 39.453125 6.390625 43.28125 13.890625 
Q 47.125 21.390625 47.125 36.375 
Q 47.125 51.421875 43.28125 58.90625 
Q 39.453125 66.40625 31.78125 66.40625 
z
M 31.78125 74.21875 
Q 44.046875 74.21875 50.515625 64.515625 
Q 56.984375 54.828125 56.984375 36.375 
Q 56.984375 17.96875 50.515625 8.265625 
Q 44.046875 -1.421875 31.78125 -1.421875 
Q 19.53125 -1.421875 13.0625 8.265625 
Q 6.59375 17.96875 6.59375 36.375 
Q 6.59375 54.828125 13.0625 64.515625 
Q 19.53125 74.21875 31.78125 74.21875 
z
" id="DejaVuSans-48"/>
        <path d="M 10.6875 12.40625 
L 21 12.40625 
L 21 0 
L 10.6875 0 
z
" id="DejaVuSans-46"/>
        <path d="M 37.796875 64.3125 
L 12.890625 25.390625 
L 37.796875 25.390625 
z
M 35.203125 72.90625 
L 47.609375 72.90625 
L 47.609375 25.390625 
L 58.015625 25.390625 
L 58.015625 17.1875 
L 47.609375 17.1875 
L 47.609375 0 
L 37.796875 0 
L 37.796875 17.1875 
L 4.890625 17.1875 
L 4.890625 26.703125 
z
" id="DejaVuSans-52"/>
        <path d="M 40.578125 39.3125 
Q 47.65625 37.796875 51.625 33 
Q 55.609375 28.21875 55.609375 21.1875 
Q 55.609375 10.40625 48.1875 4.484375 
Q 40.765625 -1.421875 27.09375 -1.421875 
Q 22.515625 -1.421875 17.65625 -0.515625 
Q 12.796875 0.390625 7.625 2.203125 
L 7.625 11.71875 
Q 11.71875 9.328125 16.59375 8.109375 
Q 21.484375 6.890625 26.8125 6.890625 
Q 36.078125 6.890625 40.9375 10.546875 
Q 45.796875 14.203125 45.796875 21.1875 
Q 45.796875 27.640625 41.28125 31.265625 
Q 36.765625 34.90625 28.71875 34.90625 
L 20.21875 34.90625 
L 20.21875 43.015625 
L 29.109375 43.015625 
Q 36.375 43.015625 40.234375 45.921875 
Q 44.09375 48.828125 44.09375 54.296875 
Q 44.09375 59.90625 40.109375 62.90625 
Q 36.140625 65.921875 28.71875 65.921875 
Q 24.65625 65.921875 20.015625 65.03125 
Q 15.375 64.15625 9.8125 62.3125 
L 9.8125 71.09375 
Q 15.4375 72.65625 20.34375 73.4375 
Q 25.25 74.21875 29.59375 74.21875 
Q 40.828125 74.21875 47.359375 69.109375 
Q 53.90625 64.015625 53.90625 55.328125 
Q 53.90625 49.265625 50.4375 45.09375 
Q 46.96875 40.921875 40.578125 39.3125 
z
" id="DejaVuSans-51"/>
        <path d="M 46 62.703125 
L 46 43.796875 
L 73.1875 43.796875 
L 73.1875 35.5 
L 46 35.5 
L 46 16.609375 
L 37.796875 16.609375 
L 37.796875 35.5 
L 10.59375 35.5 
L 10.59375 43.796875 
L 37.796875 43.796875 
L 37.796875 62.703125 
z
M 10.59375 8.296875 
L 73.1875 8.296875 
L 73.1875 0 
L 10.59375 0 
z
" id="DejaVuSans-177"/>
        <path d="M 8.5 -20.796875 
L 8.5 54.6875 
L 17.484375 54.6875 
L 17.484375 20.703125 
Q 17.484375 13.625 20.84375 10 
Q 24.21875 6.390625 30.8125 6.390625 
Q 38.03125 6.390625 41.671875 10.484375 
Q 45.3125 14.59375 45.3125 22.796875 
L 45.3125 54.6875 
L 54.296875 54.6875 
L 54.296875 12.59375 
Q 54.296875 9.671875 55.140625 8.28125 
Q 56 6.890625 57.8125 6.890625 
Q 58.25 6.890625 59.03125 7.15625 
Q 59.8125 7.421875 61.1875 8.015625 
L 61.1875 0.78125 
Q 59.1875 -0.34375 57.390625 -0.875 
Q 55.609375 -1.421875 53.90625 -1.421875 
Q 50.53125 -1.421875 48.53125 0.484375 
Q 46.53125 2.390625 45.796875 6.296875 
Q 43.359375 2.4375 39.8125 0.5 
Q 36.28125 -1.421875 31.5 -1.421875 
Q 26.515625 -1.421875 23.015625 0.484375 
Q 19.53125 2.390625 17.484375 6.203125 
L 17.484375 -20.796875 
z
" id="DejaVuSans-956"/>
        <path d="M 52 44.1875 
Q 55.375 50.25 60.0625 53.125 
Q 64.75 56 71.09375 56 
Q 79.640625 56 84.28125 50.015625 
Q 88.921875 44.046875 88.921875 33.015625 
L 88.921875 0 
L 79.890625 0 
L 79.890625 32.71875 
Q 79.890625 40.578125 77.09375 44.375 
Q 74.3125 48.1875 68.609375 48.1875 
Q 61.625 48.1875 57.5625 43.546875 
Q 53.515625 38.921875 53.515625 30.90625 
L 53.515625 0 
L 44.484375 0 
L 44.484375 32.71875 
Q 44.484375 40.625 41.703125 44.40625 
Q 38.921875 48.1875 33.109375 48.1875 
Q 26.21875 48.1875 22.15625 43.53125 
Q 18.109375 38.875 18.109375 30.90625 
L 18.109375 0 
L 9.078125 0 
L 9.078125 54.6875 
L 18.109375 54.6875 
L 18.109375 46.1875 
Q 21.1875 51.21875 25.484375 53.609375 
Q 29.78125 56 35.6875 56 
Q 41.65625 56 45.828125 52.96875 
Q 50 49.953125 52 44.1875 
z
" id="DejaVuSans-109"/>
        <path d="M 8.015625 75.875 
L 15.828125 75.875 
Q 23.140625 64.359375 26.78125 53.3125 
Q 30.421875 42.28125 30.421875 31.390625 
Q 30.421875 20.453125 26.78125 9.375 
Q 23.140625 -1.703125 15.828125 -13.1875 
L 8.015625 -13.1875 
Q 14.5 -2 17.703125 9.0625 
Q 20.90625 20.125 20.90625 31.390625 
Q 20.90625 42.671875 17.703125 53.65625 
Q 14.5 64.65625 8.015625 75.875 
z
" id="DejaVuSans-41"/>
       </defs>
       <use xlink:href="#DejaVuSans-40"/>
       <use x="39.013672" xlink:href="#DejaVuSans-115"/>
       <use x="91.113281" xlink:href="#DejaVuSans-116"/>
       <use x="130.322266" xlink:href="#DejaVuSans-101"/>
       <use x="191.845703" xlink:href="#DejaVuSans-112"/>
       <use x="255.322266" xlink:href="#DejaVuSans-32"/>
       <use x="287.109375" xlink:href="#DejaVuSans-119"/>
       <use x="368.896484" xlink:href="#DejaVuSans-105"/>
       <use x="396.679688" xlink:href="#DejaVuSans-100"/>
       <use x="460.15625" xlink:href="#DejaVuSans-116"/>
       <use x="499.365234" xlink:href="#DejaVuSans-104"/>
       <use x="562.744141" xlink:href="#DejaVuSans-61"/>
       <use x="646.533203" xlink:href="#DejaVuSans-48"/>
       <use x="710.15625" xlink:href="#DejaVuSans-46"/>
       <use x="741.943359" xlink:href="#DejaVuSans-52"/>
       <use x="805.566406" xlink:href="#DejaVuSans-51"/>
       <use x="869.189453" xlink:href="#DejaVuSans-177"/>
       <use x="952.978516" xlink:href="#DejaVuSans-48"/>
       <use x="1016.601562" xlink:href="#DejaVuSans-46"/>
       <use x="1048.388672" xlink:href="#DejaVuSans-48"/>
       <use x="1112.011719" xlink:href="#DejaVuSans-52"/>
       <use x="1175.634766" xlink:href="#DejaVuSans-956"/>
       <use x="1239.257812" xlink:href="#DejaVuSans-109"/>
       <use x="1336.669922" xlink:href="#DejaVuSans-41"/>
      </g>
     </g>
    </g>
    <g id="xtick_2">
     <g id="line2d_3">
      <g>
       <use style="stroke:#000000;stroke-width:0.8;" x="409.824062" xlink:href="#m781c9a09d6" y="240.721875"/>
      </g>
     </g>
     <g id="line2d_4">
      <g>
       <use style="stroke:#000000;stroke-width:0.8;" x="409.824062" xlink:href="#m87c1259853" y="18.961875"/>
      </g>
     </g>
     <g id="text_2">
      <!-- Treated substrate -->
      <g transform="translate(348.407812 254.859687)scale(0.14 -0.14)">
       <use xlink:href="#DejaVuSans-84"/>
       <use x="46.333984" xlink:href="#DejaVuSans-114"/>
       <use x="85.197266" xlink:href="#DejaVuSans-101"/>
       <use x="146.720703" xlink:href="#DejaVuSans-97"/>
       <use x="208" xlink:href="#DejaVuSans-116"/>
       <use x="247.208984" xlink:href="#DejaVuSans-101"/>
       <use x="308.732422" xlink:href="#DejaVuSans-100"/>
       <use x="372.208984" xlink:href="#DejaVuSans-32"/>
       <use x="403.996094" xlink:href="#DejaVuSans-115"/>
       <use x="456.095703" xlink:href="#DejaVuSans-117"/>
       <use x="519.474609" xlink:href="#DejaVuSans-98"/>
       <use x="582.951172" xlink:href="#DejaVuSans-115"/>
       <use x="635.050781" xlink:href="#DejaVuSans-116"/>
       <use x="674.259766" xlink:href="#DejaVuSans-114"/>
       <use x="715.373047" xlink:href="#DejaVuSans-97"/>
       <use x="776.652344" xlink:href="#DejaVuSans-116"/>
       <use x="815.861328" xlink:href="#DejaVuSans-101"/>
      </g>
      <!-- (step width=0.11±0.01μm) -->
      <g transform="translate(313.525937 270.536625)scale(0.14 -0.14)">
       <defs>
        <path d="M 12.40625 8.296875 
L 28.515625 8.296875 
L 28.515625 63.921875 
L 10.984375 60.40625 
L 10.984375 69.390625 
L 28.421875 72.90625 
L 38.28125 72.90625 
L 38.28125 8.296875 
L 54.390625 8.296875 
L 54.390625 0 
L 12.40625 0 
z
" id="DejaVuSans-49"/>
       </defs>
       <use xlink:href="#DejaVuSans-40"/>
       <use x="39.013672" xlink:href="#DejaVuSans-115"/>
       <use x="91.113281" xlink:href="#DejaVuSans-116"/>
       <use x="130.322266" xlink:href="#DejaVuSans-101"/>
       <use x="191.845703" xlink:href="#DejaVuSans-112"/>
       <use x="255.322266" xlink:href="#DejaVuSans-32"/>
       <use x="287.109375" xlink:href="#DejaVuSans-119"/>
       <use x="368.896484" xlink:href="#DejaVuSans-105"/>
       <use x="396.679688" xlink:href="#DejaVuSans-100"/>
       <use x="460.15625" xlink:href="#DejaVuSans-116"/>
       <use x="499.365234" xlink:href="#DejaVuSans-104"/>
       <use x="562.744141" xlink:href="#DejaVuSans-61"/>
       <use x="646.533203" xlink:href="#DejaVuSans-48"/>
       <use x="710.15625" xlink:href="#DejaVuSans-46"/>
       <use x="741.943359" xlink:href="#DejaVuSans-49"/>
       <use x="805.566406" xlink:href="#DejaVuSans-49"/>
       <use x="869.189453" xlink:href="#DejaVuSans-177"/>
       <use x="952.978516" xlink:href="#DejaVuSans-48"/>
       <use x="1016.601562" xlink:href="#DejaVuSans-46"/>
       <use x="1048.388672" xlink:href="#DejaVuSans-48"/>
       <use x="1112.011719" xlink:href="#DejaVuSans-49"/>
       <use x="1175.634766" xlink:href="#DejaVuSans-956"/>
       <use x="1239.257812" xlink:href="#DejaVuSans-109"/>
       <use x="1336.669922" xlink:href="#DejaVuSans-41"/>
      </g>
     </g>
    </g>
    <g id="xtick_3">
     <g id="line2d_5">
      <g>
       <use style="stroke:#000000;stroke-width:0.8;" x="633.024063" xlink:href="#m781c9a09d6" y="240.721875"/>
      </g>
     </g>
     <g id="line2d_6">
      <g>
       <use style="stroke:#000000;stroke-width:0.8;" x="633.024063" xlink:href="#m87c1259853" y="18.961875"/>
      </g>
     </g>
     <g id="text_3">
      <!-- Untreated substrate -->
      <g transform="translate(562.547188 254.859687)scale(0.14 -0.14)">
       <defs>
        <path d="M 8.6875 72.90625 
L 18.609375 72.90625 
L 18.609375 28.609375 
Q 18.609375 16.890625 22.84375 11.734375 
Q 27.09375 6.59375 36.625 6.59375 
Q 46.09375 6.59375 50.34375 11.734375 
Q 54.59375 16.890625 54.59375 28.609375 
L 54.59375 72.90625 
L 64.5 72.90625 
L 64.5 27.390625 
Q 64.5 13.140625 57.4375 5.859375 
Q 50.390625 -1.421875 36.625 -1.421875 
Q 22.796875 -1.421875 15.734375 5.859375 
Q 8.6875 13.140625 8.6875 27.390625 
z
" id="DejaVuSans-85"/>
        <path d="M 54.890625 33.015625 
L 54.890625 0 
L 45.90625 0 
L 45.90625 32.71875 
Q 45.90625 40.484375 42.875 44.328125 
Q 39.84375 48.1875 33.796875 48.1875 
Q 26.515625 48.1875 22.3125 43.546875 
Q 18.109375 38.921875 18.109375 30.90625 
L 18.109375 0 
L 9.078125 0 
L 9.078125 54.6875 
L 18.109375 54.6875 
L 18.109375 46.1875 
Q 21.34375 51.125 25.703125 53.5625 
Q 30.078125 56 35.796875 56 
Q 45.21875 56 50.046875 50.171875 
Q 54.890625 44.34375 54.890625 33.015625 
z
" id="DejaVuSans-110"/>
       </defs>
       <use xlink:href="#DejaVuSans-85"/>
       <use x="73.193359" xlink:href="#DejaVuSans-110"/>
       <use x="136.572266" xlink:href="#DejaVuSans-116"/>
       <use x="175.78125" xlink:href="#DejaVuSans-114"/>
       <use x="214.644531" xlink:href="#DejaVuSans-101"/>
       <use x="276.167969" xlink:href="#DejaVuSans-97"/>
       <use x="337.447266" xlink:href="#DejaVuSans-116"/>
       <use x="376.65625" xlink:href="#DejaVuSans-101"/>
       <use x="438.179688" xlink:href="#DejaVuSans-100"/>
       <use x="501.65625" xlink:href="#DejaVuSans-32"/>
       <use x="533.443359" xlink:href="#DejaVuSans-115"/>
       <use x="585.542969" xlink:href="#DejaVuSans-117"/>
       <use x="648.921875" xlink:href="#DejaVuSans-98"/>
       <use x="712.398438" xlink:href="#DejaVuSans-115"/>
       <use x="764.498047" xlink:href="#DejaVuSans-116"/>
       <use x="803.707031" xlink:href="#DejaVuSans-114"/>
       <use x="844.820312" xlink:href="#DejaVuSans-97"/>
       <use x="906.099609" xlink:href="#DejaVuSans-116"/>
       <use x="945.308594" xlink:href="#DejaVuSans-101"/>
      </g>
      <!-- (step width=0.28±0.03μm) -->
      <g transform="translate(536.725937 270.536625)scale(0.14 -0.14)">
       <defs>
        <path d="M 19.1875 8.296875 
L 53.609375 8.296875 
L 53.609375 0 
L 7.328125 0 
L 7.328125 8.296875 
Q 12.9375 14.109375 22.625 23.890625 
Q 32.328125 33.6875 34.8125 36.53125 
Q 39.546875 41.84375 41.421875 45.53125 
Q 43.3125 49.21875 43.3125 52.78125 
Q 43.3125 58.59375 39.234375 62.25 
Q 35.15625 65.921875 28.609375 65.921875 
Q 23.96875 65.921875 18.8125 64.3125 
Q 13.671875 62.703125 7.8125 59.421875 
L 7.8125 69.390625 
Q 13.765625 71.78125 18.9375 73 
Q 24.125 74.21875 28.421875 74.21875 
Q 39.75 74.21875 46.484375 68.546875 
Q 53.21875 62.890625 53.21875 53.421875 
Q 53.21875 48.921875 51.53125 44.890625 
Q 49.859375 40.875 45.40625 35.40625 
Q 44.1875 33.984375 37.640625 27.21875 
Q 31.109375 20.453125 19.1875 8.296875 
z
" id="DejaVuSans-50"/>
        <path d="M 31.78125 34.625 
Q 24.75 34.625 20.71875 30.859375 
Q 16.703125 27.09375 16.703125 20.515625 
Q 16.703125 13.921875 20.71875 10.15625 
Q 24.75 6.390625 31.78125 6.390625 
Q 38.8125 6.390625 42.859375 10.171875 
Q 46.921875 13.96875 46.921875 20.515625 
Q 46.921875 27.09375 42.890625 30.859375 
Q 38.875 34.625 31.78125 34.625 
z
M 21.921875 38.8125 
Q 15.578125 40.375 12.03125 44.71875 
Q 8.5 49.078125 8.5 55.328125 
Q 8.5 64.0625 14.71875 69.140625 
Q 20.953125 74.21875 31.78125 74.21875 
Q 42.671875 74.21875 48.875 69.140625 
Q 55.078125 64.0625 55.078125 55.328125 
Q 55.078125 49.078125 51.53125 44.71875 
Q 48 40.375 41.703125 38.8125 
Q 48.828125 37.15625 52.796875 32.3125 
Q 56.78125 27.484375 56.78125 20.515625 
Q 56.78125 9.90625 50.3125 4.234375 
Q 43.84375 -1.421875 31.78125 -1.421875 
Q 19.734375 -1.421875 13.25 4.234375 
Q 6.78125 9.90625 6.78125 20.515625 
Q 6.78125 27.484375 10.78125 32.3125 
Q 14.796875 37.15625 21.921875 38.8125 
z
M 18.3125 54.390625 
Q 18.3125 48.734375 21.84375 45.5625 
Q 25.390625 42.390625 31.78125 42.390625 
Q 38.140625 42.390625 41.71875 45.5625 
Q 45.3125 48.734375 45.3125 54.390625 
Q 45.3125 60.0625 41.71875 63.234375 
Q 38.140625 66.40625 31.78125 66.40625 
Q 25.390625 66.40625 21.84375 63.234375 
Q 18.3125 60.0625 18.3125 54.390625 
z
" id="DejaVuSans-56"/>
       </defs>
       <use xlink:href="#DejaVuSans-40"/>
       <use x="39.013672" xlink:href="#DejaVuSans-115"/>
       <use x="91.113281" xlink:href="#DejaVuSans-116"/>
       <use x="130.322266" xlink:href="#DejaVuSans-101"/>
       <use x="191.845703" xlink:href="#DejaVuSans-112"/>
       <use x="255.322266" xlink:href="#DejaVuSans-32"/>
       <use x="287.109375" xlink:href="#DejaVuSans-119"/>
       <use x="368.896484" xlink:href="#DejaVuSans-105"/>
       <use x="396.679688" xlink:href="#DejaVuSans-100"/>
       <use x="460.15625" xlink:href="#DejaVuSans-116"/>
       <use x="499.365234" xlink:href="#DejaVuSans-104"/>
       <use x="562.744141" xlink:href="#DejaVuSans-61"/>
       <use x="646.533203" xlink:href="#DejaVuSans-48"/>
       <use x="710.15625" xlink:href="#DejaVuSans-46"/>
       <use x="741.943359" xlink:href="#DejaVuSans-50"/>
       <use x="805.566406" xlink:href="#DejaVuSans-56"/>
       <use x="869.189453" xlink:href="#DejaVuSans-177"/>
       <use x="952.978516" xlink:href="#DejaVuSans-48"/>
       <use x="1016.601562" xlink:href="#DejaVuSans-46"/>
       <use x="1048.388672" xlink:href="#DejaVuSans-48"/>
       <use x="1112.011719" xlink:href="#DejaVuSans-51"/>
       <use x="1175.634766" xlink:href="#DejaVuSans-956"/>
       <use x="1239.257812" xlink:href="#DejaVuSans-109"/>
       <use x="1336.669922" xlink:href="#DejaVuSans-41"/>
      </g>
     </g>
    </g>
   </g>
   <g id="matplotlib.axis_2">
    <g id="ytick_1">
     <g id="line2d_7">
      <defs>
       <path d="M 0 0 
L 3.5 0 
" id="mee301d1ae5" style="stroke:#000000;stroke-width:0.8;"/>
      </defs>
      <g>
       <use style="stroke:#000000;stroke-width:0.8;" x="75.024063" xlink:href="#mee301d1ae5" y="228.812929"/>
      </g>
     </g>
     <g id="line2d_8">
      <defs>
       <path d="M 0 0 
L -3.5 0 
" id="m2138a3f59b" style="stroke:#000000;stroke-width:0.8;"/>
      </defs>
      <g>
       <use style="stroke:#000000;stroke-width:0.8;" x="744.624063" xlink:href="#m2138a3f59b" y="228.812929"/>
      </g>
     </g>
     <g id="text_4">
      <!-- −0.25 -->
      <g transform="translate(28.620625 234.131835)scale(0.14 -0.14)">
       <defs>
        <path d="M 10.59375 35.5 
L 73.1875 35.5 
L 73.1875 27.203125 
L 10.59375 27.203125 
z
" id="DejaVuSans-8722"/>
        <path d="M 10.796875 72.90625 
L 49.515625 72.90625 
L 49.515625 64.59375 
L 19.828125 64.59375 
L 19.828125 46.734375 
Q 21.96875 47.46875 24.109375 47.828125 
Q 26.265625 48.1875 28.421875 48.1875 
Q 40.625 48.1875 47.75 41.5 
Q 54.890625 34.8125 54.890625 23.390625 
Q 54.890625 11.625 47.5625 5.09375 
Q 40.234375 -1.421875 26.90625 -1.421875 
Q 22.3125 -1.421875 17.546875 -0.640625 
Q 12.796875 0.140625 7.71875 1.703125 
L 7.71875 11.625 
Q 12.109375 9.234375 16.796875 8.0625 
Q 21.484375 6.890625 26.703125 6.890625 
Q 35.15625 6.890625 40.078125 11.328125 
Q 45.015625 15.765625 45.015625 23.390625 
Q 45.015625 31 40.078125 35.4375 
Q 35.15625 39.890625 26.703125 39.890625 
Q 22.75 39.890625 18.8125 39.015625 
Q 14.890625 38.140625 10.796875 36.28125 
z
" id="DejaVuSans-53"/>
       </defs>
       <use xlink:href="#DejaVuSans-8722"/>
       <use x="83.789062" xlink:href="#DejaVuSans-48"/>
       <use x="147.412109" xlink:href="#DejaVuSans-46"/>
       <use x="179.199219" xlink:href="#DejaVuSans-50"/>
       <use x="242.822266" xlink:href="#DejaVuSans-53"/>
      </g>
     </g>
    </g>
    <g id="ytick_2">
     <g id="line2d_9">
      <g>
       <use style="stroke:#000000;stroke-width:0.8;" x="75.024063" xlink:href="#mee301d1ae5" y="196.041057"/>
      </g>
     </g>
     <g id="line2d_10">
      <g>
       <use style="stroke:#000000;stroke-width:0.8;" x="744.624063" xlink:href="#m2138a3f59b" y="196.041057"/>
      </g>
     </g>
     <g id="text_5">
      <!-- 0.00 -->
      <g transform="translate(40.352188 201.359963)scale(0.14 -0.14)">
       <use xlink:href="#DejaVuSans-48"/>
       <use x="63.623047" xlink:href="#DejaVuSans-46"/>
       <use x="95.410156" xlink:href="#DejaVuSans-48"/>
       <use x="159.033203" xlink:href="#DejaVuSans-48"/>
      </g>
     </g>
    </g>
    <g id="ytick_3">
     <g id="line2d_11">
      <g>
       <use style="stroke:#000000;stroke-width:0.8;" x="75.024063" xlink:href="#mee301d1ae5" y="163.269185"/>
      </g>
     </g>
     <g id="line2d_12">
      <g>
       <use style="stroke:#000000;stroke-width:0.8;" x="744.624063" xlink:href="#m2138a3f59b" y="163.269185"/>
      </g>
     </g>
     <g id="text_6">
      <!-- 0.25 -->
      <g transform="translate(40.352188 168.588091)scale(0.14 -0.14)">
       <use xlink:href="#DejaVuSans-48"/>
       <use x="63.623047" xlink:href="#DejaVuSans-46"/>
       <use x="95.410156" xlink:href="#DejaVuSans-50"/>
       <use x="159.033203" xlink:href="#DejaVuSans-53"/>
      </g>
     </g>
    </g>
    <g id="ytick_4">
     <g id="line2d_13">
      <g>
       <use style="stroke:#000000;stroke-width:0.8;" x="75.024063" xlink:href="#mee301d1ae5" y="130.497312"/>
      </g>
     </g>
     <g id="line2d_14">
      <g>
       <use style="stroke:#000000;stroke-width:0.8;" x="744.624063" xlink:href="#m2138a3f59b" y="130.497312"/>
      </g>
     </g>
     <g id="text_7">
      <!-- 0.50 -->
      <g transform="translate(40.352188 135.816219)scale(0.14 -0.14)">
       <use xlink:href="#DejaVuSans-48"/>
       <use x="63.623047" xlink:href="#DejaVuSans-46"/>
       <use x="95.410156" xlink:href="#DejaVuSans-53"/>
       <use x="159.033203" xlink:href="#DejaVuSans-48"/>
      </g>
     </g>
    </g>
    <g id="ytick_5">
     <g id="line2d_15">
      <g>
       <use style="stroke:#000000;stroke-width:0.8;" x="75.024063" xlink:href="#mee301d1ae5" y="97.72544"/>
      </g>
     </g>
     <g id="line2d_16">
      <g>
       <use style="stroke:#000000;stroke-width:0.8;" x="744.624063" xlink:href="#m2138a3f59b" y="97.72544"/>
      </g>
     </g>
     <g id="text_8">
      <!-- 0.75 -->
      <g transform="translate(40.352188 103.044347)scale(0.14 -0.14)">
       <defs>
        <path d="M 8.203125 72.90625 
L 55.078125 72.90625 
L 55.078125 68.703125 
L 28.609375 0 
L 18.3125 0 
L 43.21875 64.59375 
L 8.203125 64.59375 
z
" id="DejaVuSans-55"/>
       </defs>
       <use xlink:href="#DejaVuSans-48"/>
       <use x="63.623047" xlink:href="#DejaVuSans-46"/>
       <use x="95.410156" xlink:href="#DejaVuSans-55"/>
       <use x="159.033203" xlink:href="#DejaVuSans-53"/>
      </g>
     </g>
    </g>
    <g id="ytick_6">
     <g id="line2d_17">
      <g>
       <use style="stroke:#000000;stroke-width:0.8;" x="75.024063" xlink:href="#mee301d1ae5" y="64.953568"/>
      </g>
     </g>
     <g id="line2d_18">
      <g>
       <use style="stroke:#000000;stroke-width:0.8;" x="744.624063" xlink:href="#m2138a3f59b" y="64.953568"/>
      </g>
     </g>
     <g id="text_9">
      <!-- 1.00 -->
      <g transform="translate(40.352188 70.272474)scale(0.14 -0.14)">
       <use xlink:href="#DejaVuSans-49"/>
       <use x="63.623047" xlink:href="#DejaVuSans-46"/>
       <use x="95.410156" xlink:href="#DejaVuSans-48"/>
       <use x="159.033203" xlink:href="#DejaVuSans-48"/>
      </g>
     </g>
    </g>
    <g id="ytick_7">
     <g id="line2d_19">
      <g>
       <use style="stroke:#000000;stroke-width:0.8;" x="75.024063" xlink:href="#mee301d1ae5" y="32.181696"/>
      </g>
     </g>
     <g id="line2d_20">
      <g>
       <use style="stroke:#000000;stroke-width:0.8;" x="744.624063" xlink:href="#m2138a3f59b" y="32.181696"/>
      </g>
     </g>
     <g id="text_10">
      <!-- 1.25 -->
      <g transform="translate(40.352188 37.500602)scale(0.14 -0.14)">
       <use xlink:href="#DejaVuSans-49"/>
       <use x="63.623047" xlink:href="#DejaVuSans-46"/>
       <use x="95.410156" xlink:href="#DejaVuSans-50"/>
       <use x="159.033203" xlink:href="#DejaVuSans-53"/>
      </g>
     </g>
    </g>
    <g id="text_11">
     <!-- Diffusion Time Constant (s) -->
     <g transform="translate(20.877188 252.48375)rotate(-90)scale(0.18 -0.18)">
      <defs>
       <path d="M 19.671875 64.796875 
L 19.671875 8.109375 
L 31.59375 8.109375 
Q 46.6875 8.109375 53.6875 14.9375 
Q 60.6875 21.78125 60.6875 36.53125 
Q 60.6875 51.171875 53.6875 57.984375 
Q 46.6875 64.796875 31.59375 64.796875 
z
M 9.8125 72.90625 
L 30.078125 72.90625 
Q 51.265625 72.90625 61.171875 64.09375 
Q 71.09375 55.28125 71.09375 36.53125 
Q 71.09375 17.671875 61.125 8.828125 
Q 51.171875 0 30.078125 0 
L 9.8125 0 
z
" id="DejaVuSans-68"/>
       <path d="M 37.109375 75.984375 
L 37.109375 68.5 
L 28.515625 68.5 
Q 23.6875 68.5 21.796875 66.546875 
Q 19.921875 64.59375 19.921875 59.515625 
L 19.921875 54.6875 
L 34.71875 54.6875 
L 34.71875 47.703125 
L 19.921875 47.703125 
L 19.921875 0 
L 10.890625 0 
L 10.890625 47.703125 
L 2.296875 47.703125 
L 2.296875 54.6875 
L 10.890625 54.6875 
L 10.890625 58.5 
Q 10.890625 67.625 15.140625 71.796875 
Q 19.390625 75.984375 28.609375 75.984375 
z
" id="DejaVuSans-102"/>
       <path d="M 30.609375 48.390625 
Q 23.390625 48.390625 19.1875 42.75 
Q 14.984375 37.109375 14.984375 27.296875 
Q 14.984375 17.484375 19.15625 11.84375 
Q 23.34375 6.203125 30.609375 6.203125 
Q 37.796875 6.203125 41.984375 11.859375 
Q 46.1875 17.53125 46.1875 27.296875 
Q 46.1875 37.015625 41.984375 42.703125 
Q 37.796875 48.390625 30.609375 48.390625 
z
M 30.609375 56 
Q 42.328125 56 49.015625 48.375 
Q 55.71875 40.765625 55.71875 27.296875 
Q 55.71875 13.875 49.015625 6.21875 
Q 42.328125 -1.421875 30.609375 -1.421875 
Q 18.84375 -1.421875 12.171875 6.21875 
Q 5.515625 13.875 5.515625 27.296875 
Q 5.515625 40.765625 12.171875 48.375 
Q 18.84375 56 30.609375 56 
z
" id="DejaVuSans-111"/>
       <path d="M 64.40625 67.28125 
L 64.40625 56.890625 
Q 59.421875 61.53125 53.78125 63.8125 
Q 48.140625 66.109375 41.796875 66.109375 
Q 29.296875 66.109375 22.65625 58.46875 
Q 16.015625 50.828125 16.015625 36.375 
Q 16.015625 21.96875 22.65625 14.328125 
Q 29.296875 6.6875 41.796875 6.6875 
Q 48.140625 6.6875 53.78125 8.984375 
Q 59.421875 11.28125 64.40625 15.921875 
L 64.40625 5.609375 
Q 59.234375 2.09375 53.4375 0.328125 
Q 47.65625 -1.421875 41.21875 -1.421875 
Q 24.65625 -1.421875 15.125 8.703125 
Q 5.609375 18.84375 5.609375 36.375 
Q 5.609375 53.953125 15.125 64.078125 
Q 24.65625 74.21875 41.21875 74.21875 
Q 47.75 74.21875 53.53125 72.484375 
Q 59.328125 70.75 64.40625 67.28125 
z
" id="DejaVuSans-67"/>
      </defs>
      <use xlink:href="#DejaVuSans-68"/>
      <use x="77.001953" xlink:href="#DejaVuSans-105"/>
      <use x="104.785156" xlink:href="#DejaVuSans-102"/>
      <use x="139.990234" xlink:href="#DejaVuSans-102"/>
      <use x="175.195312" xlink:href="#DejaVuSans-117"/>
      <use x="238.574219" xlink:href="#DejaVuSans-115"/>
      <use x="290.673828" xlink:href="#DejaVuSans-105"/>
      <use x="318.457031" xlink:href="#DejaVuSans-111"/>
      <use x="379.638672" xlink:href="#DejaVuSans-110"/>
      <use x="443.017578" xlink:href="#DejaVuSans-32"/>
      <use x="474.804688" xlink:href="#DejaVuSans-84"/>
      <use x="532.763672" xlink:href="#DejaVuSans-105"/>
      <use x="560.546875" xlink:href="#DejaVuSans-109"/>
      <use x="657.958984" xlink:href="#DejaVuSans-101"/>
      <use x="719.482422" xlink:href="#DejaVuSans-32"/>
      <use x="751.269531" xlink:href="#DejaVuSans-67"/>
      <use x="821.09375" xlink:href="#DejaVuSans-111"/>
      <use x="882.275391" xlink:href="#DejaVuSans-110"/>
      <use x="945.654297" xlink:href="#DejaVuSans-115"/>
      <use x="997.753906" xlink:href="#DejaVuSans-116"/>
      <use x="1036.962891" xlink:href="#DejaVuSans-97"/>
      <use x="1098.242188" xlink:href="#DejaVuSans-110"/>
      <use x="1161.621094" xlink:href="#DejaVuSans-116"/>
      <use x="1200.830078" xlink:href="#DejaVuSans-32"/>
      <use x="1232.617188" xlink:href="#DejaVuSans-40"/>
      <use x="1271.630859" xlink:href="#DejaVuSans-115"/>
      <use x="1323.730469" xlink:href="#DejaVuSans-41"/>
     </g>
    </g>
   </g>
   <g id="line2d_21">
    <path clip-path="url(#p229b718414)" d="M 186.624063 194.730182 
L 186.624063 64.953568 
" style="fill:none;stroke:#373737;stroke-linecap:square;stroke-width:0.8;"/>
   </g>
   <g id="line2d_22">
    <path clip-path="url(#p229b718414)" d="M 186.624063 169.761373 
L 186.624063 104.549388 
" style="fill:none;stroke:#373737;stroke-linecap:square;stroke-width:2.4;"/>
   </g>
   <g id="line2d_23">
    <path clip-path="url(#p229b718414)" d="M 409.824062 194.730182 
L 409.824062 64.953568 
" style="fill:none;stroke:#373737;stroke-linecap:square;stroke-width:0.8;"/>
   </g>
   <g id="line2d_24">
    <path clip-path="url(#p229b718414)" d="M 409.824062 182.749876 
L 409.824062 64.953568 
" style="fill:none;stroke:#373737;stroke-linecap:square;stroke-width:2.4;"/>
   </g>
   <g id="line2d_25">
    <path clip-path="url(#p229b718414)" d="M 633.024063 194.730182 
L 633.024063 151.84038 
" style="fill:none;stroke:#373737;stroke-linecap:square;stroke-width:0.8;"/>
   </g>
   <g id="line2d_26">
    <path clip-path="url(#p229b718414)" d="M 633.024063 179.571995 
L 633.024063 167.829694 
" style="fill:none;stroke:#373737;stroke-linecap:square;stroke-width:2.4;"/>
   </g>
   <g id="patch_3">
    <path d="M 75.024063 240.721875 
L 75.024063 18.961875 
" style="fill:none;stroke:#000000;stroke-linecap:square;stroke-linejoin:miter;stroke-width:0.8;"/>
   </g>
   <g id="patch_4">
    <path d="M 744.624063 240.721875 
L 744.624063 18.961875 
" style="fill:none;stroke:#000000;stroke-linecap:square;stroke-linejoin:miter;stroke-width:0.8;"/>
   </g>
   <g id="patch_5">
    <path d="M 75.024063 240.721875 
L 744.624063 240.721875 
" style="fill:none;stroke:#000000;stroke-linecap:square;stroke-linejoin:miter;stroke-width:0.8;"/>
   </g>
   <g id="patch_6">
    <path d="M 75.024063 18.961875 
L 744.624063 18.961875 
" style="fill:none;stroke:#000000;stroke-linecap:square;stroke-linejoin:miter;stroke-width:0.8;"/>
   </g>
   <g id="PathCollection_1">
    <defs>
     <path d="M 0 0.8 
C 0.212162 0.8 0.415664 0.715707 0.565685 0.565685 
C 0.715707 0.415664 0.8 0.212162 0.8 0 
C 0.8 -0.212162 0.715707 -0.415664 0.565685 -0.565685 
C 0.415664 -0.715707 0.212162 -0.8 0 -0.8 
C -0.212162 -0.8 -0.415664 -0.715707 -0.565685 -0.565685 
C -0.715707 -0.415664 -0.8 -0.212162 -0.8 0 
C -0.8 0.212162 -0.715707 0.415664 -0.565685 0.565685 
C -0.415664 0.715707 -0.212162 0.8 0 0.8 
z
" id="m788abab2b4" style="stroke:#373737;"/>
    </defs>
    <g clip-path="url(#p229b718414)">
     <use style="fill:#ffffff;stroke:#373737;" x="186.624063" xlink:href="#m788abab2b4" y="157.482351"/>
    </g>
   </g>
   <g id="PathCollection_2">
    <g clip-path="url(#p229b718414)">
     <use style="fill:#ffffff;stroke:#373737;" x="409.824062" xlink:href="#m788abab2b4" y="169.796246"/>
    </g>
   </g>
   <g id="PathCollection_3">
    <g clip-path="url(#p229b718414)">
     <use style="fill:#ffffff;stroke:#373737;" x="633.024063" xlink:href="#m788abab2b4" y="174.369428"/>
    </g>
   </g>
   <g id="text_12">
    <!-- 0.2941 -->
    <g transform="translate(191.088063 169.049963)scale(0.14 -0.14)">
     <defs>
      <path d="M 46 36.53125 
Q 46 50.203125 43.4375 55.78125 
Q 40.875 61.375 34.8125 61.375 
Q 28.765625 61.375 26.171875 55.78125 
Q 23.578125 50.203125 23.578125 36.53125 
Q 23.578125 22.703125 26.171875 17.03125 
Q 28.765625 11.375 34.8125 11.375 
Q 40.828125 11.375 43.40625 17.03125 
Q 46 22.703125 46 36.53125 
z
M 64.796875 36.375 
Q 64.796875 18.265625 56.984375 8.421875 
Q 49.171875 -1.421875 34.8125 -1.421875 
Q 20.40625 -1.421875 12.59375 8.421875 
Q 4.78125 18.265625 4.78125 36.375 
Q 4.78125 54.546875 12.59375 64.375 
Q 20.40625 74.21875 34.8125 74.21875 
Q 49.171875 74.21875 56.984375 64.375 
Q 64.796875 54.546875 64.796875 36.375 
z
" id="DejaVuSans-Bold-48"/>
      <path d="M 10.203125 18.890625 
L 27.78125 18.890625 
L 27.78125 0 
L 10.203125 0 
z
" id="DejaVuSans-Bold-46"/>
      <path d="M 28.8125 13.8125 
L 60.890625 13.8125 
L 60.890625 0 
L 7.90625 0 
L 7.90625 13.8125 
L 34.515625 37.3125 
Q 38.09375 40.53125 39.796875 43.609375 
Q 41.5 46.6875 41.5 50 
Q 41.5 55.125 38.0625 58.25 
Q 34.625 61.375 28.90625 61.375 
Q 24.515625 61.375 19.28125 59.5 
Q 14.0625 57.625 8.109375 53.90625 
L 8.109375 69.921875 
Q 14.453125 72.015625 20.65625 73.109375 
Q 26.859375 74.21875 32.8125 74.21875 
Q 45.90625 74.21875 53.15625 68.453125 
Q 60.40625 62.703125 60.40625 52.390625 
Q 60.40625 46.4375 57.328125 41.28125 
Q 54.25 36.140625 44.390625 27.484375 
z
" id="DejaVuSans-Bold-50"/>
      <path d="M 10.015625 1.609375 
L 10.015625 15.09375 
Q 14.5 12.984375 18.59375 11.9375 
Q 22.703125 10.890625 26.703125 10.890625 
Q 35.109375 10.890625 39.796875 15.546875 
Q 44.484375 20.21875 45.3125 29.390625 
Q 42 26.953125 38.234375 25.734375 
Q 34.46875 24.515625 30.078125 24.515625 
Q 18.890625 24.515625 12.03125 31.03125 
Q 5.171875 37.546875 5.171875 48.1875 
Q 5.171875 59.96875 12.8125 67.046875 
Q 20.453125 74.125 33.296875 74.125 
Q 47.5625 74.125 55.375 64.5 
Q 63.1875 54.890625 63.1875 37.3125 
Q 63.1875 19.234375 54.046875 8.90625 
Q 44.921875 -1.421875 29 -1.421875 
Q 23.875 -1.421875 19.1875 -0.65625 
Q 14.5 0.09375 10.015625 1.609375 
z
M 33.203125 36.71875 
Q 38.140625 36.71875 40.625 39.90625 
Q 43.109375 43.109375 43.109375 49.515625 
Q 43.109375 55.859375 40.625 59.078125 
Q 38.140625 62.3125 33.203125 62.3125 
Q 28.265625 62.3125 25.78125 59.078125 
Q 23.296875 55.859375 23.296875 49.515625 
Q 23.296875 43.109375 25.78125 39.90625 
Q 28.265625 36.71875 33.203125 36.71875 
z
" id="DejaVuSans-Bold-57"/>
      <path d="M 36.8125 57.421875 
L 16.21875 26.90625 
L 36.8125 26.90625 
z
M 33.6875 72.90625 
L 54.59375 72.90625 
L 54.59375 26.90625 
L 64.984375 26.90625 
L 64.984375 13.28125 
L 54.59375 13.28125 
L 54.59375 0 
L 36.8125 0 
L 36.8125 13.28125 
L 4.5 13.28125 
L 4.5 29.390625 
z
" id="DejaVuSans-Bold-52"/>
      <path d="M 11.71875 12.984375 
L 28.328125 12.984375 
L 28.328125 60.109375 
L 11.28125 56.59375 
L 11.28125 69.390625 
L 28.21875 72.90625 
L 46.09375 72.90625 
L 46.09375 12.984375 
L 62.703125 12.984375 
L 62.703125 0 
L 11.71875 0 
z
" id="DejaVuSans-Bold-49"/>
     </defs>
     <use xlink:href="#DejaVuSans-Bold-48"/>
     <use x="69.580078" xlink:href="#DejaVuSans-Bold-46"/>
     <use x="107.568359" xlink:href="#DejaVuSans-Bold-50"/>
     <use x="177.148438" xlink:href="#DejaVuSans-Bold-57"/>
     <use x="246.728516" xlink:href="#DejaVuSans-Bold-52"/>
     <use x="316.308594" xlink:href="#DejaVuSans-Bold-49"/>
    </g>
   </g>
   <g id="text_13">
    <!-- 0.2002 -->
    <g transform="translate(414.288063 177.669689)scale(0.14 -0.14)">
     <use xlink:href="#DejaVuSans-Bold-48"/>
     <use x="69.580078" xlink:href="#DejaVuSans-Bold-46"/>
     <use x="107.568359" xlink:href="#DejaVuSans-Bold-50"/>
     <use x="177.148438" xlink:href="#DejaVuSans-Bold-48"/>
     <use x="246.728516" xlink:href="#DejaVuSans-Bold-48"/>
     <use x="316.308594" xlink:href="#DejaVuSans-Bold-50"/>
    </g>
   </g>
   <g id="text_14">
    <!-- 0.1653 -->
    <g transform="translate(637.488062 180.870917)scale(0.14 -0.14)">
     <defs>
      <path d="M 36.1875 35.984375 
Q 31.25 35.984375 28.78125 32.78125 
Q 26.3125 29.59375 26.3125 23.1875 
Q 26.3125 16.796875 28.78125 13.59375 
Q 31.25 10.40625 36.1875 10.40625 
Q 41.15625 10.40625 43.625 13.59375 
Q 46.09375 16.796875 46.09375 23.1875 
Q 46.09375 29.59375 43.625 32.78125 
Q 41.15625 35.984375 36.1875 35.984375 
z
M 59.421875 71 
L 59.421875 57.515625 
Q 54.78125 59.71875 50.671875 60.765625 
Q 46.578125 61.8125 42.671875 61.8125 
Q 34.28125 61.8125 29.59375 57.140625 
Q 24.90625 52.484375 24.125 43.3125 
Q 27.34375 45.703125 31.09375 46.890625 
Q 34.859375 48.09375 39.3125 48.09375 
Q 50.484375 48.09375 57.34375 41.546875 
Q 64.203125 35.015625 64.203125 24.421875 
Q 64.203125 12.703125 56.53125 5.640625 
Q 48.875 -1.421875 35.984375 -1.421875 
Q 21.78125 -1.421875 13.984375 8.171875 
Q 6.203125 17.78125 6.203125 35.40625 
Q 6.203125 53.46875 15.3125 63.796875 
Q 24.421875 74.125 40.28125 74.125 
Q 45.3125 74.125 50.046875 73.34375 
Q 54.78125 72.5625 59.421875 71 
z
" id="DejaVuSans-Bold-54"/>
      <path d="M 10.59375 72.90625 
L 57.328125 72.90625 
L 57.328125 59.078125 
L 25.59375 59.078125 
L 25.59375 47.796875 
Q 27.734375 48.390625 29.90625 48.703125 
Q 32.078125 49.03125 34.421875 49.03125 
Q 47.75 49.03125 55.171875 42.359375 
Q 62.59375 35.6875 62.59375 23.78125 
Q 62.59375 11.96875 54.515625 5.265625 
Q 46.4375 -1.421875 32.078125 -1.421875 
Q 25.875 -1.421875 19.796875 -0.21875 
Q 13.71875 0.984375 7.71875 3.421875 
L 7.71875 18.21875 
Q 13.671875 14.796875 19.015625 13.078125 
Q 24.359375 11.375 29.109375 11.375 
Q 35.9375 11.375 39.859375 14.71875 
Q 43.796875 18.0625 43.796875 23.78125 
Q 43.796875 29.546875 39.859375 32.859375 
Q 35.9375 36.1875 29.109375 36.1875 
Q 25.046875 36.1875 20.453125 35.125 
Q 15.875 34.078125 10.59375 31.890625 
z
" id="DejaVuSans-Bold-53"/>
      <path d="M 46.578125 39.3125 
Q 53.953125 37.40625 57.78125 32.6875 
Q 61.625 27.984375 61.625 20.703125 
Q 61.625 9.859375 53.3125 4.21875 
Q 45.015625 -1.421875 29.109375 -1.421875 
Q 23.484375 -1.421875 17.84375 -0.515625 
Q 12.203125 0.390625 6.6875 2.203125 
L 6.6875 16.703125 
Q 11.96875 14.0625 17.15625 12.71875 
Q 22.359375 11.375 27.390625 11.375 
Q 34.859375 11.375 38.84375 13.953125 
Q 42.828125 16.546875 42.828125 21.390625 
Q 42.828125 26.375 38.75 28.9375 
Q 34.671875 31.5 26.703125 31.5 
L 19.1875 31.5 
L 19.1875 43.609375 
L 27.09375 43.609375 
Q 34.1875 43.609375 37.640625 45.828125 
Q 41.109375 48.046875 41.109375 52.59375 
Q 41.109375 56.78125 37.734375 59.078125 
Q 34.375 61.375 28.21875 61.375 
Q 23.6875 61.375 19.046875 60.34375 
Q 14.40625 59.328125 9.8125 57.328125 
L 9.8125 71.09375 
Q 15.375 72.65625 20.84375 73.4375 
Q 26.3125 74.21875 31.59375 74.21875 
Q 45.796875 74.21875 52.84375 69.546875 
Q 59.90625 64.890625 59.90625 55.515625 
Q 59.90625 49.125 56.53125 45.046875 
Q 53.171875 40.96875 46.578125 39.3125 
z
" id="DejaVuSans-Bold-51"/>
     </defs>
     <use xlink:href="#DejaVuSans-Bold-48"/>
     <use x="69.580078" xlink:href="#DejaVuSans-Bold-46"/>
     <use x="107.568359" xlink:href="#DejaVuSans-Bold-49"/>
     <use x="177.148438" xlink:href="#DejaVuSans-Bold-54"/>
     <use x="246.728516" xlink:href="#DejaVuSans-Bold-53"/>
     <use x="316.308594" xlink:href="#DejaVuSans-Bold-51"/>
    </g>
   </g>
  </g>
 </g>
 <defs>
  <clipPath id="p229b718414">
   <rect height="221.76" width="669.6" x="75.024063" y="18.961875"/>
  </clipPath>
 </defs>
</svg>
