<?xml version="1.0" encoding="utf-8" standalone="no"?>
<!DOCTYPE svg PUBLIC "-//W3C//DTD SVG 1.1//EN"
  "http://www.w3.org/Graphics/SVG/1.1/DTD/svg11.dtd">
<svg xmlns:xlink="http://www.w3.org/1999/xlink" width="731.185pt" height="270.225622pt" viewBox="0 0 731.185 270.225622" xmlns="http://www.w3.org/2000/svg" version="1.1">
 <metadata>
  <rdf:RDF xmlns:dc="http://purl.org/dc/elements/1.1/" xmlns:cc="http://creativecommons.org/ns#" xmlns:rdf="http://www.w3.org/1999/02/22-rdf-syntax-ns#">
   <cc:Work>
    <dc:type rdf:resource="http://purl.org/dc/dcmitype/StillImage"/>
    <dc:date>2023-03-24T15:46:10.059060</dc:date>
    <dc:format>image/svg+xml</dc:format>
    <dc:creator>
     <cc:Agent>
      <dc:title>Matplotlib v3.5.2, https://matplotlib.org/</dc:title>
     </cc:Agent>
    </dc:creator>
   </cc:Work>
  </rdf:RDF>
 </metadata>
 <defs>
  <style type="text/css">*{stroke-linejoin: round; stroke-linecap: butt}</style>
 </defs>
 <g id="figure_1">
  <g id="patch_1">
   <path d="M 0 270.225622 
L 731.185 270.225622 
L 731.185 0 
L 0 0 
z
" style="fill: #ffffff"/>
  </g>
  <g id="axes_1">
   <g id="patch_2">
    <path d="M 54.385 230.29931 
L 723.985 230.29931 
L 723.985 8.53931 
L 54.385 8.53931 
z
" style="fill: #ffffff"/>
   </g>
   <g id="PolyCollection_1">
    <defs>
     <path id="m0315bfbacf" d="M 166.941876 -50.877222 
L 165.028124 -50.877222 
L 164.654261 -52.637513 
L 164.177114 -54.397804 
L 163.585255 -56.158096 
L 162.872085 -57.918387 
L 162.037779 -59.678678 
L 161.09082 -61.438969 
L 160.048759 -63.199261 
L 158.937885 -64.959552 
L 157.791601 -66.719843 
L 156.647527 -68.480135 
L 155.543578 -70.240426 
L 154.513495 -72.000717 
L 153.582493 -73.761009 
L 152.76375 -75.5213 
L 152.05638 -77.281591 
L 151.445352 -79.041882 
L 150.903455 -80.802174 
L 150.39512 -82.562465 
L 149.881506 -84.322756 
L 149.326089 -86.083048 
L 148.699859 -87.843339 
L 147.985346 -89.60363 
L 147.178887 -91.363921 
L 146.290915 -93.124213 
L 145.344348 -94.884504 
L 144.371534 -96.644795 
L 143.410336 -98.405087 
L 142.500076 -100.165378 
L 141.677935 -101.925669 
L 140.976227 -103.685961 
L 140.42076 -105.446252 
L 140.030196 -107.206543 
L 139.81622 -108.966834 
L 139.784167 -110.727126 
L 139.93384 -112.487417 
L 140.260269 -114.247708 
L 140.754332 -116.008 
L 141.403248 -117.768291 
L 142.19103 -119.528582 
L 143.098995 -121.288874 
L 144.106417 -123.049165 
L 145.191311 -124.809456 
L 146.331295 -126.569747 
L 147.504424 -128.330039 
L 148.689898 -130.09033 
L 149.868544 -131.850621 
L 151.023078 -133.610913 
L 152.138161 -135.371204 
L 153.20035 -137.131495 
L 154.198013 -138.891787 
L 155.121325 -140.652078 
L 155.962373 -142.412369 
L 156.715384 -144.17266 
L 157.377034 -145.932952 
L 157.946764 -147.693243 
L 158.427013 -149.453534 
L 158.823286 -151.213826 
L 159.143979 -152.974117 
L 159.399939 -154.734408 
L 159.603757 -156.4947 
L 159.768844 -158.254991 
L 159.908395 -160.015282 
L 160.034326 -161.775573 
L 160.156355 -163.535865 
L 160.28132 -165.296156 
L 160.412831 -167.056447 
L 160.551325 -168.816739 
L 160.694481 -170.57703 
L 160.837958 -172.337321 
L 160.97634 -174.097612 
L 161.104146 -175.857904 
L 161.216792 -177.618195 
L 161.311382 -179.378486 
L 161.387247 -181.138778 
L 161.446202 -182.899069 
L 161.492515 -184.65936 
L 161.532599 -186.419652 
L 161.574484 -188.179943 
L 161.6271 -189.940234 
L 161.699448 -191.700525 
L 161.799705 -193.460817 
L 161.934376 -195.221108 
L 162.107549 -196.981399 
L 162.32037 -198.741691 
L 162.57081 -200.501982 
L 162.853762 -202.262273 
L 163.161481 -204.022565 
L 163.484318 -205.782856 
L 163.811644 -207.543147 
L 164.132848 -209.303438 
L 164.438268 -211.06373 
L 164.719948 -212.824021 
L 164.972121 -214.584312 
L 165.191412 -216.344604 
L 165.376751 -218.104895 
L 165.529068 -219.865186 
L 165.65084 -221.625478 
L 165.745577 -223.385769 
L 165.817326 -225.14606 
L 166.152674 -225.14606 
L 166.152674 -225.14606 
L 166.224423 -223.385769 
L 166.31916 -221.625478 
L 166.440932 -219.865186 
L 166.593249 -218.104895 
L 166.778588 -216.344604 
L 166.997879 -214.584312 
L 167.250052 -212.824021 
L 167.531732 -211.06373 
L 167.837152 -209.303438 
L 168.158356 -207.543147 
L 168.485682 -205.782856 
L 168.808519 -204.022565 
L 169.116238 -202.262273 
L 169.39919 -200.501982 
L 169.64963 -198.741691 
L 169.862451 -196.981399 
L 170.035624 -195.221108 
L 170.170295 -193.460817 
L 170.270552 -191.700525 
L 170.3429 -189.940234 
L 170.395516 -188.179943 
L 170.437401 -186.419652 
L 170.477485 -184.65936 
L 170.523798 -182.899069 
L 170.582753 -181.138778 
L 170.658618 -179.378486 
L 170.753208 -177.618195 
L 170.865854 -175.857904 
L 170.99366 -174.097612 
L 171.132042 -172.337321 
L 171.275519 -170.57703 
L 171.418675 -168.816739 
L 171.557169 -167.056447 
L 171.68868 -165.296156 
L 171.813645 -163.535865 
L 171.935674 -161.775573 
L 172.061605 -160.015282 
L 172.201156 -158.254991 
L 172.366243 -156.4947 
L 172.570061 -154.734408 
L 172.826021 -152.974117 
L 173.146714 -151.213826 
L 173.542987 -149.453534 
L 174.023236 -147.693243 
L 174.592966 -145.932952 
L 175.254616 -144.17266 
L 176.007627 -142.412369 
L 176.848675 -140.652078 
L 177.771987 -138.891787 
L 178.76965 -137.131495 
L 179.831839 -135.371204 
L 180.946922 -133.610913 
L 182.101456 -131.850621 
L 183.280102 -130.09033 
L 184.465576 -128.330039 
L 185.638705 -126.569747 
L 186.778689 -124.809456 
L 187.863583 -123.049165 
L 188.871005 -121.288874 
L 189.77897 -119.528582 
L 190.566752 -117.768291 
L 191.215668 -116.008 
L 191.709731 -114.247708 
L 192.03616 -112.487417 
L 192.185833 -110.727126 
L 192.15378 -108.966834 
L 191.939804 -107.206543 
L 191.54924 -105.446252 
L 190.993773 -103.685961 
L 190.292065 -101.925669 
L 189.469924 -100.165378 
L 188.559664 -98.405087 
L 187.598466 -96.644795 
L 186.625652 -94.884504 
L 185.679085 -93.124213 
L 184.791113 -91.363921 
L 183.984654 -89.60363 
L 183.270141 -87.843339 
L 182.643911 -86.083048 
L 182.088494 -84.322756 
L 181.57488 -82.562465 
L 181.066545 -80.802174 
L 180.524648 -79.041882 
L 179.91362 -77.281591 
L 179.20625 -75.5213 
L 178.387507 -73.761009 
L 177.456505 -72.000717 
L 176.426422 -70.240426 
L 175.322473 -68.480135 
L 174.178399 -66.719843 
L 173.032115 -64.959552 
L 171.921241 -63.199261 
L 170.87918 -61.438969 
L 169.932221 -59.678678 
L 169.097915 -57.918387 
L 168.384745 -56.158096 
L 167.792886 -54.397804 
L 167.315739 -52.637513 
L 166.941876 -50.877222 
z
" style="stroke: #373737; stroke-width: 0.8"/>
    </defs>
    <g clip-path="url(#pb36d602833)">
     <use xlink:href="#m0315bfbacf" x="0" y="270.225622" style="fill: #2b8e70; stroke: #373737; stroke-width: 0.8"/>
    </g>
   </g>
   <g id="PolyCollection_2">
    <defs>
     <path id="me902b5be02" d="M 390.510127 -50.006312 
L 387.859873 -50.006312 
L 387.243702 -52.042676 
L 386.418992 -54.07904 
L 385.35072 -56.115403 
L 384.01196 -58.151767 
L 382.389448 -60.188131 
L 380.488775 -62.224494 
L 378.338159 -64.260858 
L 375.989871 -66.297222 
L 373.518596 -68.333585 
L 371.016575 -70.369949 
L 368.585931 -72.406312 
L 366.329221 -74.442676 
L 364.339614 -76.47904 
L 362.692251 -78.515403 
L 361.438104 -80.551767 
L 360.601165 -82.588131 
L 360.179131 -84.624494 
L 360.147088 -86.660858 
L 360.46322 -88.697222 
L 361.075294 -90.733585 
L 361.926753 -92.769949 
L 362.961534 -94.806313 
L 364.12719 -96.842676 
L 365.376363 -98.87904 
L 366.667039 -100.915403 
L 367.962209 -102.951767 
L 369.229543 -104.988131 
L 370.441472 -107.024494 
L 371.575788 -109.060858 
L 372.616552 -111.097222 
L 373.554901 -113.133585 
L 374.38932 -115.169949 
L 375.12505 -117.206312 
L 375.772579 -119.242676 
L 376.345432 -121.27904 
L 376.857693 -123.315403 
L 377.321814 -125.351767 
L 377.747141 -127.388131 
L 378.139459 -129.424494 
L 378.50152 -131.460858 
L 378.834301 -133.497222 
L 379.138569 -135.533585 
L 379.416276 -137.569949 
L 379.671416 -139.606313 
L 379.910158 -141.642676 
L 380.140288 -143.67904 
L 380.370195 -145.715403 
L 380.607719 -147.751767 
L 380.859184 -149.788131 
L 381.128864 -151.824494 
L 381.418936 -153.860858 
L 381.729867 -155.897222 
L 382.061015 -157.933585 
L 382.411233 -159.969949 
L 382.77925 -162.006312 
L 383.163735 -164.042676 
L 383.563045 -166.07904 
L 383.974779 -168.115403 
L 384.395325 -170.151767 
L 384.819593 -172.188131 
L 385.241077 -174.224494 
L 385.652301 -176.260858 
L 386.045568 -178.297222 
L 386.413871 -180.333585 
L 386.751752 -182.369949 
L 387.055888 -184.406312 
L 387.325291 -186.442676 
L 387.561046 -188.47904 
L 387.765692 -190.515403 
L 387.942379 -192.551767 
L 388.094026 -194.588131 
L 388.222666 -196.624494 
L 388.329126 -198.660858 
L 388.413097 -200.697222 
L 388.473546 -202.733585 
L 388.509381 -204.769949 
L 388.520193 -206.806312 
L 388.506922 -208.842676 
L 388.472313 -210.87904 
L 388.421055 -212.915403 
L 388.359586 -214.951767 
L 388.295564 -216.988131 
L 388.237106 -219.024494 
L 388.191892 -221.060858 
L 388.166285 -223.097222 
L 388.164615 -225.133585 
L 388.188719 -227.169949 
L 388.237832 -229.206312 
L 388.308824 -231.242676 
L 388.396734 -233.27904 
L 388.495497 -235.315403 
L 388.598746 -237.351767 
L 388.700551 -239.388131 
L 388.795984 -241.424494 
L 388.881475 -243.460858 
L 388.954917 -245.497222 
L 389.015566 -247.533585 
L 389.0638 -249.569949 
L 389.100792 -251.606312 
L 389.269208 -251.606312 
L 389.269208 -251.606312 
L 389.3062 -249.569949 
L 389.354434 -247.533585 
L 389.415083 -245.497222 
L 389.488525 -243.460858 
L 389.574016 -241.424494 
L 389.669449 -239.388131 
L 389.771254 -237.351767 
L 389.874503 -235.315403 
L 389.973266 -233.27904 
L 390.061176 -231.242676 
L 390.132168 -229.206312 
L 390.181281 -227.169949 
L 390.205385 -225.133585 
L 390.203715 -223.097222 
L 390.178108 -221.060858 
L 390.132894 -219.024494 
L 390.074436 -216.988131 
L 390.010414 -214.951767 
L 389.948945 -212.915403 
L 389.897687 -210.87904 
L 389.863078 -208.842676 
L 389.849807 -206.806312 
L 389.860619 -204.769949 
L 389.896454 -202.733585 
L 389.956903 -200.697222 
L 390.040874 -198.660858 
L 390.147334 -196.624494 
L 390.275974 -194.588131 
L 390.427621 -192.551767 
L 390.604308 -190.515403 
L 390.808954 -188.47904 
L 391.044709 -186.442676 
L 391.314112 -184.406312 
L 391.618248 -182.369949 
L 391.956129 -180.333585 
L 392.324432 -178.297222 
L 392.717699 -176.260858 
L 393.128923 -174.224494 
L 393.550407 -172.188131 
L 393.974675 -170.151767 
L 394.395221 -168.115403 
L 394.806955 -166.07904 
L 395.206265 -164.042676 
L 395.59075 -162.006312 
L 395.958767 -159.969949 
L 396.308985 -157.933585 
L 396.640133 -155.897222 
L 396.951064 -153.860858 
L 397.241136 -151.824494 
L 397.510816 -149.788131 
L 397.762281 -147.751767 
L 397.999805 -145.715403 
L 398.229712 -143.67904 
L 398.459842 -141.642676 
L 398.698584 -139.606313 
L 398.953724 -137.569949 
L 399.231431 -135.533585 
L 399.535699 -133.497222 
L 399.86848 -131.460858 
L 400.230541 -129.424494 
L 400.622859 -127.388131 
L 401.048186 -125.351767 
L 401.512307 -123.315403 
L 402.024568 -121.27904 
L 402.597421 -119.242676 
L 403.24495 -117.206312 
L 403.98068 -115.169949 
L 404.815099 -113.133585 
L 405.753448 -111.097222 
L 406.794212 -109.060858 
L 407.928528 -107.024494 
L 409.140457 -104.988131 
L 410.407791 -102.951767 
L 411.702961 -100.915403 
L 412.993637 -98.87904 
L 414.24281 -96.842676 
L 415.408466 -94.806313 
L 416.443247 -92.769949 
L 417.294706 -90.733585 
L 417.90678 -88.697222 
L 418.222912 -86.660858 
L 418.190869 -84.624494 
L 417.768835 -82.588131 
L 416.931896 -80.551767 
L 415.677749 -78.515403 
L 414.030386 -76.47904 
L 412.040779 -74.442676 
L 409.784069 -72.406312 
L 407.353425 -70.369949 
L 404.851404 -68.333585 
L 402.380129 -66.297222 
L 400.031841 -64.260858 
L 397.881225 -62.224494 
L 395.980552 -60.188131 
L 394.35804 -58.151767 
L 393.01928 -56.115403 
L 391.951008 -54.07904 
L 391.126298 -52.042676 
L 390.510127 -50.006312 
z
" style="stroke: #373737; stroke-width: 0.8"/>
    </defs>
    <g clip-path="url(#pb36d602833)">
     <use xlink:href="#me902b5be02" x="0" y="270.225622" style="fill: #be631d; stroke: #373737; stroke-width: 0.8"/>
    </g>
   </g>
   <g id="PolyCollection_3">
    <defs>
     <path id="mb4cdd911c7" d="M 613.613705 -62.754767 
L 611.156295 -62.754767 
L 610.411428 -63.859435 
L 609.332032 -64.964103 
L 607.831341 -66.068772 
L 605.826843 -67.17344 
L 603.249713 -68.278108 
L 600.052591 -69.382777 
L 596.213463 -70.487445 
L 591.734571 -71.592113 
L 586.63742 -72.696781 
L 580.957199 -73.80145 
L 574.7412 -74.906118 
L 568.05519 -76.010786 
L 560.998857 -77.115455 
L 553.727121 -78.220123 
L 546.46993 -79.324791 
L 539.541 -80.429459 
L 533.327154 -81.534128 
L 528.254624 -82.638796 
L 524.735584 -83.743464 
L 523.105 -84.848133 
L 523.562127 -85.952801 
L 526.131074 -87.057469 
L 530.650492 -88.162138 
L 536.795088 -89.266806 
L 544.123575 -90.371474 
L 552.141568 -91.476142 
L 560.365387 -92.580811 
L 568.374343 -93.685479 
L 575.843729 -94.790147 
L 582.556675 -95.894816 
L 588.398144 -96.999484 
L 593.337402 -98.104152 
L 597.405725 -99.20882 
L 600.674741 -100.313489 
L 603.238395 -101.418157 
L 605.199418 -102.522825 
L 606.659831 -103.627494 
L 607.714567 -104.732162 
L 608.447501 -105.83683 
L 608.929468 -106.941499 
L 609.218052 -108.046167 
L 609.358802 -109.150835 
L 609.387352 -110.255503 
L 609.33175 -111.360172 
L 609.214388 -112.46484 
L 609.053197 -113.569508 
L 608.862116 -114.674177 
L 608.651193 -115.778845 
L 608.426761 -116.883513 
L 608.192105 -117.988181 
L 607.948817 -119.09285 
L 607.698786 -120.197518 
L 607.446519 -121.302186 
L 607.201263 -122.406855 
L 606.978326 -123.511523 
L 606.798997 -124.616191 
L 606.68868 -125.72086 
L 606.673295 -126.825528 
L 606.774486 -127.930196 
L 607.004695 -129.034864 
L 607.363386 -130.139533 
L 607.835551 -131.244201 
L 608.3931 -132.348869 
L 608.998921 -133.453538 
L 609.612661 -134.558206 
L 610.196811 -135.662874 
L 610.721695 -136.767542 
L 611.168384 -137.872211 
L 611.529231 -138.976879 
L 611.806345 -140.081547 
L 612.008794 -141.186216 
L 612.149381 -142.290884 
L 612.241741 -143.395552 
L 612.298173 -144.500221 
L 612.328327 -145.604889 
L 612.338638 -146.709557 
L 612.332327 -147.814225 
L 612.309775 -148.918894 
L 612.26919 -150.023562 
L 612.207538 -151.12823 
L 612.121753 -152.232899 
L 612.010146 -153.337567 
L 611.873866 -154.442235 
L 611.718081 -155.546903 
L 611.552489 -156.651572 
L 611.390833 -157.75624 
L 611.249272 -158.860908 
L 611.143826 -159.965577 
L 611.087422 -161.070245 
L 611.087293 -162.174913 
L 611.143456 -163.279582 
L 611.248707 -164.38425 
L 611.390143 -165.488918 
L 611.551753 -166.593586 
L 611.717381 -167.698255 
L 611.873287 -168.802923 
L 612.009797 -169.907591 
L 612.121823 -171.01226 
L 612.208407 -172.116928 
L 612.561593 -172.116928 
L 612.561593 -172.116928 
L 612.648177 -171.01226 
L 612.760203 -169.907591 
L 612.896713 -168.802923 
L 613.052619 -167.698255 
L 613.218247 -166.593586 
L 613.379857 -165.488918 
L 613.521293 -164.38425 
L 613.626544 -163.279582 
L 613.682707 -162.174913 
L 613.682578 -161.070245 
L 613.626174 -159.965577 
L 613.520728 -158.860908 
L 613.379167 -157.75624 
L 613.217511 -156.651572 
L 613.051919 -155.546903 
L 612.896134 -154.442235 
L 612.759854 -153.337567 
L 612.648247 -152.232899 
L 612.562462 -151.12823 
L 612.50081 -150.023562 
L 612.460225 -148.918894 
L 612.437673 -147.814225 
L 612.431362 -146.709557 
L 612.441673 -145.604889 
L 612.471827 -144.500221 
L 612.528259 -143.395552 
L 612.620619 -142.290884 
L 612.761206 -141.186216 
L 612.963655 -140.081547 
L 613.240769 -138.976879 
L 613.601616 -137.872211 
L 614.048305 -136.767542 
L 614.573189 -135.662874 
L 615.157339 -134.558206 
L 615.771079 -133.453538 
L 616.3769 -132.348869 
L 616.934449 -131.244201 
L 617.406614 -130.139533 
L 617.765305 -129.034864 
L 617.995514 -127.930196 
L 618.096705 -126.825528 
L 618.08132 -125.72086 
L 617.971003 -124.616191 
L 617.791674 -123.511523 
L 617.568737 -122.406855 
L 617.323481 -121.302186 
L 617.071214 -120.197518 
L 616.821183 -119.09285 
L 616.577895 -117.988181 
L 616.343239 -116.883513 
L 616.118807 -115.778845 
L 615.907884 -114.674177 
L 615.716803 -113.569508 
L 615.555612 -112.46484 
L 615.43825 -111.360172 
L 615.382648 -110.255503 
L 615.411198 -109.150835 
L 615.551948 -108.046167 
L 615.840532 -106.941499 
L 616.322499 -105.83683 
L 617.055433 -104.732162 
L 618.110169 -103.627494 
L 619.570582 -102.522825 
L 621.531605 -101.418157 
L 624.095259 -100.313489 
L 627.364275 -99.20882 
L 631.432598 -98.104152 
L 636.371856 -96.999484 
L 642.213325 -95.894816 
L 648.926271 -94.790147 
L 656.395657 -93.685479 
L 664.404613 -92.580811 
L 672.628432 -91.476142 
L 680.646425 -90.371474 
L 687.974912 -89.266806 
L 694.119508 -88.162138 
L 698.638926 -87.057469 
L 701.207873 -85.952801 
L 701.665 -84.848133 
L 700.034416 -83.743464 
L 696.515376 -82.638796 
L 691.442846 -81.534128 
L 685.229 -80.429459 
L 678.30007 -79.324791 
L 671.042879 -78.220123 
L 663.771143 -77.115455 
L 656.71481 -76.010786 
L 650.0288 -74.906118 
L 643.812801 -73.80145 
L 638.13258 -72.696781 
L 633.035429 -71.592113 
L 628.556537 -70.487445 
L 624.717409 -69.382777 
L 621.520287 -68.278108 
L 618.943157 -67.17344 
L 616.938659 -66.068772 
L 615.437968 -64.964103 
L 614.358572 -63.859435 
L 613.613705 -62.754767 
z
" style="stroke: #373737; stroke-width: 0.8"/>
    </defs>
    <g clip-path="url(#pb36d602833)">
     <use xlink:href="#mb4cdd911c7" x="0" y="270.225622" style="fill: #7c78ab; stroke: #373737; stroke-width: 0.8"/>
    </g>
   </g>
   <g id="matplotlib.axis_1">
    <g id="xtick_1">
     <g id="line2d_1">
      <defs>
       <path id="me4a5b249ef" d="M 0 0 
L 0 -3.5 
" style="stroke: #000000; stroke-width: 0.8"/>
      </defs>
      <g>
       <use xlink:href="#me4a5b249ef" x="165.985" y="230.29931" style="stroke: #000000; stroke-width: 0.8"/>
      </g>
     </g>
     <g id="line2d_2">
      <defs>
       <path id="me43e11f47c" d="M 0 0 
L 0 3.5 
" style="stroke: #000000; stroke-width: 0.8"/>
      </defs>
      <g>
       <use xlink:href="#me43e11f47c" x="165.985" y="8.53931" style="stroke: #000000; stroke-width: 0.8"/>
      </g>
     </g>
     <g id="text_1">
      <!-- Treated substrate -->
      <g transform="translate(104.56875 244.437122)scale(0.14 -0.14)">
       <defs>
        <path id="DejaVuSans-54" d="M -19 4666 
L 3928 4666 
L 3928 4134 
L 2272 4134 
L 2272 0 
L 1638 0 
L 1638 4134 
L -19 4134 
L -19 4666 
z
" transform="scale(0.015625)"/>
        <path id="DejaVuSans-72" d="M 2631 2963 
Q 2534 3019 2420 3045 
Q 2306 3072 2169 3072 
Q 1681 3072 1420 2755 
Q 1159 2438 1159 1844 
L 1159 0 
L 581 0 
L 581 3500 
L 1159 3500 
L 1159 2956 
Q 1341 3275 1631 3429 
Q 1922 3584 2338 3584 
Q 2397 3584 2469 3576 
Q 2541 3569 2628 3553 
L 2631 2963 
z
" transform="scale(0.015625)"/>
        <path id="DejaVuSans-65" d="M 3597 1894 
L 3597 1613 
L 953 1613 
Q 991 1019 1311 708 
Q 1631 397 2203 397 
Q 2534 397 2845 478 
Q 3156 559 3463 722 
L 3463 178 
Q 3153 47 2828 -22 
Q 2503 -91 2169 -91 
Q 1331 -91 842 396 
Q 353 884 353 1716 
Q 353 2575 817 3079 
Q 1281 3584 2069 3584 
Q 2775 3584 3186 3129 
Q 3597 2675 3597 1894 
z
M 3022 2063 
Q 3016 2534 2758 2815 
Q 2500 3097 2075 3097 
Q 1594 3097 1305 2825 
Q 1016 2553 972 2059 
L 3022 2063 
z
" transform="scale(0.015625)"/>
        <path id="DejaVuSans-61" d="M 2194 1759 
Q 1497 1759 1228 1600 
Q 959 1441 959 1056 
Q 959 750 1161 570 
Q 1363 391 1709 391 
Q 2188 391 2477 730 
Q 2766 1069 2766 1631 
L 2766 1759 
L 2194 1759 
z
M 3341 1997 
L 3341 0 
L 2766 0 
L 2766 531 
Q 2569 213 2275 61 
Q 1981 -91 1556 -91 
Q 1019 -91 701 211 
Q 384 513 384 1019 
Q 384 1609 779 1909 
Q 1175 2209 1959 2209 
L 2766 2209 
L 2766 2266 
Q 2766 2663 2505 2880 
Q 2244 3097 1772 3097 
Q 1472 3097 1187 3025 
Q 903 2953 641 2809 
L 641 3341 
Q 956 3463 1253 3523 
Q 1550 3584 1831 3584 
Q 2591 3584 2966 3190 
Q 3341 2797 3341 1997 
z
" transform="scale(0.015625)"/>
        <path id="DejaVuSans-74" d="M 1172 4494 
L 1172 3500 
L 2356 3500 
L 2356 3053 
L 1172 3053 
L 1172 1153 
Q 1172 725 1289 603 
Q 1406 481 1766 481 
L 2356 481 
L 2356 0 
L 1766 0 
Q 1100 0 847 248 
Q 594 497 594 1153 
L 594 3053 
L 172 3053 
L 172 3500 
L 594 3500 
L 594 4494 
L 1172 4494 
z
" transform="scale(0.015625)"/>
        <path id="DejaVuSans-64" d="M 2906 2969 
L 2906 4863 
L 3481 4863 
L 3481 0 
L 2906 0 
L 2906 525 
Q 2725 213 2448 61 
Q 2172 -91 1784 -91 
Q 1150 -91 751 415 
Q 353 922 353 1747 
Q 353 2572 751 3078 
Q 1150 3584 1784 3584 
Q 2172 3584 2448 3432 
Q 2725 3281 2906 2969 
z
M 947 1747 
Q 947 1113 1208 752 
Q 1469 391 1925 391 
Q 2381 391 2643 752 
Q 2906 1113 2906 1747 
Q 2906 2381 2643 2742 
Q 2381 3103 1925 3103 
Q 1469 3103 1208 2742 
Q 947 2381 947 1747 
z
" transform="scale(0.015625)"/>
        <path id="DejaVuSans-20" transform="scale(0.015625)"/>
        <path id="DejaVuSans-73" d="M 2834 3397 
L 2834 2853 
Q 2591 2978 2328 3040 
Q 2066 3103 1784 3103 
Q 1356 3103 1142 2972 
Q 928 2841 928 2578 
Q 928 2378 1081 2264 
Q 1234 2150 1697 2047 
L 1894 2003 
Q 2506 1872 2764 1633 
Q 3022 1394 3022 966 
Q 3022 478 2636 193 
Q 2250 -91 1575 -91 
Q 1294 -91 989 -36 
Q 684 19 347 128 
L 347 722 
Q 666 556 975 473 
Q 1284 391 1588 391 
Q 1994 391 2212 530 
Q 2431 669 2431 922 
Q 2431 1156 2273 1281 
Q 2116 1406 1581 1522 
L 1381 1569 
Q 847 1681 609 1914 
Q 372 2147 372 2553 
Q 372 3047 722 3315 
Q 1072 3584 1716 3584 
Q 2034 3584 2315 3537 
Q 2597 3491 2834 3397 
z
" transform="scale(0.015625)"/>
        <path id="DejaVuSans-75" d="M 544 1381 
L 544 3500 
L 1119 3500 
L 1119 1403 
Q 1119 906 1312 657 
Q 1506 409 1894 409 
Q 2359 409 2629 706 
Q 2900 1003 2900 1516 
L 2900 3500 
L 3475 3500 
L 3475 0 
L 2900 0 
L 2900 538 
Q 2691 219 2414 64 
Q 2138 -91 1772 -91 
Q 1169 -91 856 284 
Q 544 659 544 1381 
z
M 1991 3584 
L 1991 3584 
z
" transform="scale(0.015625)"/>
        <path id="DejaVuSans-62" d="M 3116 1747 
Q 3116 2381 2855 2742 
Q 2594 3103 2138 3103 
Q 1681 3103 1420 2742 
Q 1159 2381 1159 1747 
Q 1159 1113 1420 752 
Q 1681 391 2138 391 
Q 2594 391 2855 752 
Q 3116 1113 3116 1747 
z
M 1159 2969 
Q 1341 3281 1617 3432 
Q 1894 3584 2278 3584 
Q 2916 3584 3314 3078 
Q 3713 2572 3713 1747 
Q 3713 922 3314 415 
Q 2916 -91 2278 -91 
Q 1894 -91 1617 61 
Q 1341 213 1159 525 
L 1159 0 
L 581 0 
L 581 4863 
L 1159 4863 
L 1159 2969 
z
" transform="scale(0.015625)"/>
       </defs>
       <use xlink:href="#DejaVuSans-54"/>
       <use xlink:href="#DejaVuSans-72" x="46.333984"/>
       <use xlink:href="#DejaVuSans-65" x="85.197266"/>
       <use xlink:href="#DejaVuSans-61" x="146.720703"/>
       <use xlink:href="#DejaVuSans-74" x="208"/>
       <use xlink:href="#DejaVuSans-65" x="247.208984"/>
       <use xlink:href="#DejaVuSans-64" x="308.732422"/>
       <use xlink:href="#DejaVuSans-20" x="372.208984"/>
       <use xlink:href="#DejaVuSans-73" x="403.996094"/>
       <use xlink:href="#DejaVuSans-75" x="456.095703"/>
       <use xlink:href="#DejaVuSans-62" x="519.474609"/>
       <use xlink:href="#DejaVuSans-73" x="582.951172"/>
       <use xlink:href="#DejaVuSans-74" x="635.050781"/>
       <use xlink:href="#DejaVuSans-72" x="674.259766"/>
       <use xlink:href="#DejaVuSans-61" x="715.373047"/>
       <use xlink:href="#DejaVuSans-74" x="776.652344"/>
       <use xlink:href="#DejaVuSans-65" x="815.861328"/>
      </g>
      <!-- (step width=0.43±0.04μm) -->
      <g transform="translate(69.686875 260.11406)scale(0.14 -0.14)">
       <defs>
        <path id="DejaVuSans-28" d="M 1984 4856 
Q 1566 4138 1362 3434 
Q 1159 2731 1159 2009 
Q 1159 1288 1364 580 
Q 1569 -128 1984 -844 
L 1484 -844 
Q 1016 -109 783 600 
Q 550 1309 550 2009 
Q 550 2706 781 3412 
Q 1013 4119 1484 4856 
L 1984 4856 
z
" transform="scale(0.015625)"/>
        <path id="DejaVuSans-70" d="M 1159 525 
L 1159 -1331 
L 581 -1331 
L 581 3500 
L 1159 3500 
L 1159 2969 
Q 1341 3281 1617 3432 
Q 1894 3584 2278 3584 
Q 2916 3584 3314 3078 
Q 3713 2572 3713 1747 
Q 3713 922 3314 415 
Q 2916 -91 2278 -91 
Q 1894 -91 1617 61 
Q 1341 213 1159 525 
z
M 3116 1747 
Q 3116 2381 2855 2742 
Q 2594 3103 2138 3103 
Q 1681 3103 1420 2742 
Q 1159 2381 1159 1747 
Q 1159 1113 1420 752 
Q 1681 391 2138 391 
Q 2594 391 2855 752 
Q 3116 1113 3116 1747 
z
" transform="scale(0.015625)"/>
        <path id="DejaVuSans-77" d="M 269 3500 
L 844 3500 
L 1563 769 
L 2278 3500 
L 2956 3500 
L 3675 769 
L 4391 3500 
L 4966 3500 
L 4050 0 
L 3372 0 
L 2619 2869 
L 1863 0 
L 1184 0 
L 269 3500 
z
" transform="scale(0.015625)"/>
        <path id="DejaVuSans-69" d="M 603 3500 
L 1178 3500 
L 1178 0 
L 603 0 
L 603 3500 
z
M 603 4863 
L 1178 4863 
L 1178 4134 
L 603 4134 
L 603 4863 
z
" transform="scale(0.015625)"/>
        <path id="DejaVuSans-68" d="M 3513 2113 
L 3513 0 
L 2938 0 
L 2938 2094 
Q 2938 2591 2744 2837 
Q 2550 3084 2163 3084 
Q 1697 3084 1428 2787 
Q 1159 2491 1159 1978 
L 1159 0 
L 581 0 
L 581 4863 
L 1159 4863 
L 1159 2956 
Q 1366 3272 1645 3428 
Q 1925 3584 2291 3584 
Q 2894 3584 3203 3211 
Q 3513 2838 3513 2113 
z
" transform="scale(0.015625)"/>
        <path id="DejaVuSans-3d" d="M 678 2906 
L 4684 2906 
L 4684 2381 
L 678 2381 
L 678 2906 
z
M 678 1631 
L 4684 1631 
L 4684 1100 
L 678 1100 
L 678 1631 
z
" transform="scale(0.015625)"/>
        <path id="DejaVuSans-30" d="M 2034 4250 
Q 1547 4250 1301 3770 
Q 1056 3291 1056 2328 
Q 1056 1369 1301 889 
Q 1547 409 2034 409 
Q 2525 409 2770 889 
Q 3016 1369 3016 2328 
Q 3016 3291 2770 3770 
Q 2525 4250 2034 4250 
z
M 2034 4750 
Q 2819 4750 3233 4129 
Q 3647 3509 3647 2328 
Q 3647 1150 3233 529 
Q 2819 -91 2034 -91 
Q 1250 -91 836 529 
Q 422 1150 422 2328 
Q 422 3509 836 4129 
Q 1250 4750 2034 4750 
z
" transform="scale(0.015625)"/>
        <path id="DejaVuSans-2e" d="M 684 794 
L 1344 794 
L 1344 0 
L 684 0 
L 684 794 
z
" transform="scale(0.015625)"/>
        <path id="DejaVuSans-34" d="M 2419 4116 
L 825 1625 
L 2419 1625 
L 2419 4116 
z
M 2253 4666 
L 3047 4666 
L 3047 1625 
L 3713 1625 
L 3713 1100 
L 3047 1100 
L 3047 0 
L 2419 0 
L 2419 1100 
L 313 1100 
L 313 1709 
L 2253 4666 
z
" transform="scale(0.015625)"/>
        <path id="DejaVuSans-33" d="M 2597 2516 
Q 3050 2419 3304 2112 
Q 3559 1806 3559 1356 
Q 3559 666 3084 287 
Q 2609 -91 1734 -91 
Q 1441 -91 1130 -33 
Q 819 25 488 141 
L 488 750 
Q 750 597 1062 519 
Q 1375 441 1716 441 
Q 2309 441 2620 675 
Q 2931 909 2931 1356 
Q 2931 1769 2642 2001 
Q 2353 2234 1838 2234 
L 1294 2234 
L 1294 2753 
L 1863 2753 
Q 2328 2753 2575 2939 
Q 2822 3125 2822 3475 
Q 2822 3834 2567 4026 
Q 2313 4219 1838 4219 
Q 1578 4219 1281 4162 
Q 984 4106 628 3988 
L 628 4550 
Q 988 4650 1302 4700 
Q 1616 4750 1894 4750 
Q 2613 4750 3031 4423 
Q 3450 4097 3450 3541 
Q 3450 3153 3228 2886 
Q 3006 2619 2597 2516 
z
" transform="scale(0.015625)"/>
        <path id="DejaVuSans-b1" d="M 2944 4013 
L 2944 2803 
L 4684 2803 
L 4684 2272 
L 2944 2272 
L 2944 1063 
L 2419 1063 
L 2419 2272 
L 678 2272 
L 678 2803 
L 2419 2803 
L 2419 4013 
L 2944 4013 
z
M 678 531 
L 4684 531 
L 4684 0 
L 678 0 
L 678 531 
z
" transform="scale(0.015625)"/>
        <path id="DejaVuSans-3bc" d="M 544 -1331 
L 544 3500 
L 1119 3500 
L 1119 1325 
Q 1119 872 1334 640 
Q 1550 409 1972 409 
Q 2434 409 2667 671 
Q 2900 934 2900 1459 
L 2900 3500 
L 3475 3500 
L 3475 806 
Q 3475 619 3529 530 
Q 3584 441 3700 441 
Q 3728 441 3778 458 
Q 3828 475 3916 513 
L 3916 50 
Q 3788 -22 3673 -56 
Q 3559 -91 3450 -91 
Q 3234 -91 3106 31 
Q 2978 153 2931 403 
Q 2775 156 2548 32 
Q 2322 -91 2016 -91 
Q 1697 -91 1473 31 
Q 1250 153 1119 397 
L 1119 -1331 
L 544 -1331 
z
" transform="scale(0.015625)"/>
        <path id="DejaVuSans-6d" d="M 3328 2828 
Q 3544 3216 3844 3400 
Q 4144 3584 4550 3584 
Q 5097 3584 5394 3201 
Q 5691 2819 5691 2113 
L 5691 0 
L 5113 0 
L 5113 2094 
Q 5113 2597 4934 2840 
Q 4756 3084 4391 3084 
Q 3944 3084 3684 2787 
Q 3425 2491 3425 1978 
L 3425 0 
L 2847 0 
L 2847 2094 
Q 2847 2600 2669 2842 
Q 2491 3084 2119 3084 
Q 1678 3084 1418 2786 
Q 1159 2488 1159 1978 
L 1159 0 
L 581 0 
L 581 3500 
L 1159 3500 
L 1159 2956 
Q 1356 3278 1631 3431 
Q 1906 3584 2284 3584 
Q 2666 3584 2933 3390 
Q 3200 3197 3328 2828 
z
" transform="scale(0.015625)"/>
        <path id="DejaVuSans-29" d="M 513 4856 
L 1013 4856 
Q 1481 4119 1714 3412 
Q 1947 2706 1947 2009 
Q 1947 1309 1714 600 
Q 1481 -109 1013 -844 
L 513 -844 
Q 928 -128 1133 580 
Q 1338 1288 1338 2009 
Q 1338 2731 1133 3434 
Q 928 4138 513 4856 
z
" transform="scale(0.015625)"/>
       </defs>
       <use xlink:href="#DejaVuSans-28"/>
       <use xlink:href="#DejaVuSans-73" x="39.013672"/>
       <use xlink:href="#DejaVuSans-74" x="91.113281"/>
       <use xlink:href="#DejaVuSans-65" x="130.322266"/>
       <use xlink:href="#DejaVuSans-70" x="191.845703"/>
       <use xlink:href="#DejaVuSans-20" x="255.322266"/>
       <use xlink:href="#DejaVuSans-77" x="287.109375"/>
       <use xlink:href="#DejaVuSans-69" x="368.896484"/>
       <use xlink:href="#DejaVuSans-64" x="396.679688"/>
       <use xlink:href="#DejaVuSans-74" x="460.15625"/>
       <use xlink:href="#DejaVuSans-68" x="499.365234"/>
       <use xlink:href="#DejaVuSans-3d" x="562.744141"/>
       <use xlink:href="#DejaVuSans-30" x="646.533203"/>
       <use xlink:href="#DejaVuSans-2e" x="710.15625"/>
       <use xlink:href="#DejaVuSans-34" x="741.943359"/>
       <use xlink:href="#DejaVuSans-33" x="805.566406"/>
       <use xlink:href="#DejaVuSans-b1" x="869.189453"/>
       <use xlink:href="#DejaVuSans-30" x="952.978516"/>
       <use xlink:href="#DejaVuSans-2e" x="1016.601562"/>
       <use xlink:href="#DejaVuSans-30" x="1048.388672"/>
       <use xlink:href="#DejaVuSans-34" x="1112.011719"/>
       <use xlink:href="#DejaVuSans-3bc" x="1175.634766"/>
       <use xlink:href="#DejaVuSans-6d" x="1239.257812"/>
       <use xlink:href="#DejaVuSans-29" x="1336.669922"/>
      </g>
     </g>
    </g>
    <g id="xtick_2">
     <g id="line2d_3">
      <g>
       <use xlink:href="#me4a5b249ef" x="389.185" y="230.29931" style="stroke: #000000; stroke-width: 0.8"/>
      </g>
     </g>
     <g id="line2d_4">
      <g>
       <use xlink:href="#me43e11f47c" x="389.185" y="8.53931" style="stroke: #000000; stroke-width: 0.8"/>
      </g>
     </g>
     <g id="text_2">
      <!-- Treated substrate -->
      <g transform="translate(327.76875 244.437122)scale(0.14 -0.14)">
       <use xlink:href="#DejaVuSans-54"/>
       <use xlink:href="#DejaVuSans-72" x="46.333984"/>
       <use xlink:href="#DejaVuSans-65" x="85.197266"/>
       <use xlink:href="#DejaVuSans-61" x="146.720703"/>
       <use xlink:href="#DejaVuSans-74" x="208"/>
       <use xlink:href="#DejaVuSans-65" x="247.208984"/>
       <use xlink:href="#DejaVuSans-64" x="308.732422"/>
       <use xlink:href="#DejaVuSans-20" x="372.208984"/>
       <use xlink:href="#DejaVuSans-73" x="403.996094"/>
       <use xlink:href="#DejaVuSans-75" x="456.095703"/>
       <use xlink:href="#DejaVuSans-62" x="519.474609"/>
       <use xlink:href="#DejaVuSans-73" x="582.951172"/>
       <use xlink:href="#DejaVuSans-74" x="635.050781"/>
       <use xlink:href="#DejaVuSans-72" x="674.259766"/>
       <use xlink:href="#DejaVuSans-61" x="715.373047"/>
       <use xlink:href="#DejaVuSans-74" x="776.652344"/>
       <use xlink:href="#DejaVuSans-65" x="815.861328"/>
      </g>
      <!-- (step width=0.11±0.01μm) -->
      <g transform="translate(292.886875 260.11406)scale(0.14 -0.14)">
       <defs>
        <path id="DejaVuSans-31" d="M 794 531 
L 1825 531 
L 1825 4091 
L 703 3866 
L 703 4441 
L 1819 4666 
L 2450 4666 
L 2450 531 
L 3481 531 
L 3481 0 
L 794 0 
L 794 531 
z
" transform="scale(0.015625)"/>
       </defs>
       <use xlink:href="#DejaVuSans-28"/>
       <use xlink:href="#DejaVuSans-73" x="39.013672"/>
       <use xlink:href="#DejaVuSans-74" x="91.113281"/>
       <use xlink:href="#DejaVuSans-65" x="130.322266"/>
       <use xlink:href="#DejaVuSans-70" x="191.845703"/>
       <use xlink:href="#DejaVuSans-20" x="255.322266"/>
       <use xlink:href="#DejaVuSans-77" x="287.109375"/>
       <use xlink:href="#DejaVuSans-69" x="368.896484"/>
       <use xlink:href="#DejaVuSans-64" x="396.679688"/>
       <use xlink:href="#DejaVuSans-74" x="460.15625"/>
       <use xlink:href="#DejaVuSans-68" x="499.365234"/>
       <use xlink:href="#DejaVuSans-3d" x="562.744141"/>
       <use xlink:href="#DejaVuSans-30" x="646.533203"/>
       <use xlink:href="#DejaVuSans-2e" x="710.15625"/>
       <use xlink:href="#DejaVuSans-31" x="741.943359"/>
       <use xlink:href="#DejaVuSans-31" x="805.566406"/>
       <use xlink:href="#DejaVuSans-b1" x="869.189453"/>
       <use xlink:href="#DejaVuSans-30" x="952.978516"/>
       <use xlink:href="#DejaVuSans-2e" x="1016.601562"/>
       <use xlink:href="#DejaVuSans-30" x="1048.388672"/>
       <use xlink:href="#DejaVuSans-31" x="1112.011719"/>
       <use xlink:href="#DejaVuSans-3bc" x="1175.634766"/>
       <use xlink:href="#DejaVuSans-6d" x="1239.257812"/>
       <use xlink:href="#DejaVuSans-29" x="1336.669922"/>
      </g>
     </g>
    </g>
    <g id="xtick_3">
     <g id="line2d_5">
      <g>
       <use xlink:href="#me4a5b249ef" x="612.385" y="230.29931" style="stroke: #000000; stroke-width: 0.8"/>
      </g>
     </g>
     <g id="line2d_6">
      <g>
       <use xlink:href="#me43e11f47c" x="612.385" y="8.53931" style="stroke: #000000; stroke-width: 0.8"/>
      </g>
     </g>
     <g id="text_3">
      <!-- Untreated substrate -->
      <g transform="translate(541.908125 244.437122)scale(0.14 -0.14)">
       <defs>
        <path id="DejaVuSans-55" d="M 556 4666 
L 1191 4666 
L 1191 1831 
Q 1191 1081 1462 751 
Q 1734 422 2344 422 
Q 2950 422 3222 751 
Q 3494 1081 3494 1831 
L 3494 4666 
L 4128 4666 
L 4128 1753 
Q 4128 841 3676 375 
Q 3225 -91 2344 -91 
Q 1459 -91 1007 375 
Q 556 841 556 1753 
L 556 4666 
z
" transform="scale(0.015625)"/>
        <path id="DejaVuSans-6e" d="M 3513 2113 
L 3513 0 
L 2938 0 
L 2938 2094 
Q 2938 2591 2744 2837 
Q 2550 3084 2163 3084 
Q 1697 3084 1428 2787 
Q 1159 2491 1159 1978 
L 1159 0 
L 581 0 
L 581 3500 
L 1159 3500 
L 1159 2956 
Q 1366 3272 1645 3428 
Q 1925 3584 2291 3584 
Q 2894 3584 3203 3211 
Q 3513 2838 3513 2113 
z
" transform="scale(0.015625)"/>
       </defs>
       <use xlink:href="#DejaVuSans-55"/>
       <use xlink:href="#DejaVuSans-6e" x="73.193359"/>
       <use xlink:href="#DejaVuSans-74" x="136.572266"/>
       <use xlink:href="#DejaVuSans-72" x="175.78125"/>
       <use xlink:href="#DejaVuSans-65" x="214.644531"/>
       <use xlink:href="#DejaVuSans-61" x="276.167969"/>
       <use xlink:href="#DejaVuSans-74" x="337.447266"/>
       <use xlink:href="#DejaVuSans-65" x="376.65625"/>
       <use xlink:href="#DejaVuSans-64" x="438.179688"/>
       <use xlink:href="#DejaVuSans-20" x="501.65625"/>
       <use xlink:href="#DejaVuSans-73" x="533.443359"/>
       <use xlink:href="#DejaVuSans-75" x="585.542969"/>
       <use xlink:href="#DejaVuSans-62" x="648.921875"/>
       <use xlink:href="#DejaVuSans-73" x="712.398438"/>
       <use xlink:href="#DejaVuSans-74" x="764.498047"/>
       <use xlink:href="#DejaVuSans-72" x="803.707031"/>
       <use xlink:href="#DejaVuSans-61" x="844.820312"/>
       <use xlink:href="#DejaVuSans-74" x="906.099609"/>
       <use xlink:href="#DejaVuSans-65" x="945.308594"/>
      </g>
      <!-- (step width=0.28±0.03μm) -->
      <g transform="translate(516.086875 260.11406)scale(0.14 -0.14)">
       <defs>
        <path id="DejaVuSans-32" d="M 1228 531 
L 3431 531 
L 3431 0 
L 469 0 
L 469 531 
Q 828 903 1448 1529 
Q 2069 2156 2228 2338 
Q 2531 2678 2651 2914 
Q 2772 3150 2772 3378 
Q 2772 3750 2511 3984 
Q 2250 4219 1831 4219 
Q 1534 4219 1204 4116 
Q 875 4013 500 3803 
L 500 4441 
Q 881 4594 1212 4672 
Q 1544 4750 1819 4750 
Q 2544 4750 2975 4387 
Q 3406 4025 3406 3419 
Q 3406 3131 3298 2873 
Q 3191 2616 2906 2266 
Q 2828 2175 2409 1742 
Q 1991 1309 1228 531 
z
" transform="scale(0.015625)"/>
        <path id="DejaVuSans-38" d="M 2034 2216 
Q 1584 2216 1326 1975 
Q 1069 1734 1069 1313 
Q 1069 891 1326 650 
Q 1584 409 2034 409 
Q 2484 409 2743 651 
Q 3003 894 3003 1313 
Q 3003 1734 2745 1975 
Q 2488 2216 2034 2216 
z
M 1403 2484 
Q 997 2584 770 2862 
Q 544 3141 544 3541 
Q 544 4100 942 4425 
Q 1341 4750 2034 4750 
Q 2731 4750 3128 4425 
Q 3525 4100 3525 3541 
Q 3525 3141 3298 2862 
Q 3072 2584 2669 2484 
Q 3125 2378 3379 2068 
Q 3634 1759 3634 1313 
Q 3634 634 3220 271 
Q 2806 -91 2034 -91 
Q 1263 -91 848 271 
Q 434 634 434 1313 
Q 434 1759 690 2068 
Q 947 2378 1403 2484 
z
M 1172 3481 
Q 1172 3119 1398 2916 
Q 1625 2713 2034 2713 
Q 2441 2713 2670 2916 
Q 2900 3119 2900 3481 
Q 2900 3844 2670 4047 
Q 2441 4250 2034 4250 
Q 1625 4250 1398 4047 
Q 1172 3844 1172 3481 
z
" transform="scale(0.015625)"/>
       </defs>
       <use xlink:href="#DejaVuSans-28"/>
       <use xlink:href="#DejaVuSans-73" x="39.013672"/>
       <use xlink:href="#DejaVuSans-74" x="91.113281"/>
       <use xlink:href="#DejaVuSans-65" x="130.322266"/>
       <use xlink:href="#DejaVuSans-70" x="191.845703"/>
       <use xlink:href="#DejaVuSans-20" x="255.322266"/>
       <use xlink:href="#DejaVuSans-77" x="287.109375"/>
       <use xlink:href="#DejaVuSans-69" x="368.896484"/>
       <use xlink:href="#DejaVuSans-64" x="396.679688"/>
       <use xlink:href="#DejaVuSans-74" x="460.15625"/>
       <use xlink:href="#DejaVuSans-68" x="499.365234"/>
       <use xlink:href="#DejaVuSans-3d" x="562.744141"/>
       <use xlink:href="#DejaVuSans-30" x="646.533203"/>
       <use xlink:href="#DejaVuSans-2e" x="710.15625"/>
       <use xlink:href="#DejaVuSans-32" x="741.943359"/>
       <use xlink:href="#DejaVuSans-38" x="805.566406"/>
       <use xlink:href="#DejaVuSans-b1" x="869.189453"/>
       <use xlink:href="#DejaVuSans-30" x="952.978516"/>
       <use xlink:href="#DejaVuSans-2e" x="1016.601562"/>
       <use xlink:href="#DejaVuSans-30" x="1048.388672"/>
       <use xlink:href="#DejaVuSans-33" x="1112.011719"/>
       <use xlink:href="#DejaVuSans-3bc" x="1175.634766"/>
       <use xlink:href="#DejaVuSans-6d" x="1239.257812"/>
       <use xlink:href="#DejaVuSans-29" x="1336.669922"/>
      </g>
     </g>
    </g>
   </g>
   <g id="matplotlib.axis_2">
    <g id="ytick_1">
     <g id="line2d_7">
      <defs>
       <path id="mfac0aa3e0b" d="M 0 0 
L 3.5 0 
" style="stroke: #000000; stroke-width: 0.8"/>
      </defs>
      <g>
       <use xlink:href="#mfac0aa3e0b" x="54.385" y="197.286935" style="stroke: #000000; stroke-width: 0.8"/>
      </g>
     </g>
     <g id="line2d_8">
      <defs>
       <path id="med7f788b34" d="M 0 0 
L -3.5 0 
" style="stroke: #000000; stroke-width: 0.8"/>
      </defs>
      <g>
       <use xlink:href="#med7f788b34" x="723.985" y="197.286935" style="stroke: #000000; stroke-width: 0.8"/>
      </g>
     </g>
     <g id="text_4">
      <!-- 0.0 -->
      <g transform="translate(28.620625 202.605841)scale(0.14 -0.14)">
       <use xlink:href="#DejaVuSans-30"/>
       <use xlink:href="#DejaVuSans-2e" x="63.623047"/>
       <use xlink:href="#DejaVuSans-30" x="95.410156"/>
      </g>
     </g>
    </g>
    <g id="ytick_2">
     <g id="line2d_9">
      <g>
       <use xlink:href="#mfac0aa3e0b" x="54.385" y="135.697592" style="stroke: #000000; stroke-width: 0.8"/>
      </g>
     </g>
     <g id="line2d_10">
      <g>
       <use xlink:href="#med7f788b34" x="723.985" y="135.697592" style="stroke: #000000; stroke-width: 0.8"/>
      </g>
     </g>
     <g id="text_5">
      <!-- 0.2 -->
      <g transform="translate(28.620625 141.016498)scale(0.14 -0.14)">
       <use xlink:href="#DejaVuSans-30"/>
       <use xlink:href="#DejaVuSans-2e" x="63.623047"/>
       <use xlink:href="#DejaVuSans-32" x="95.410156"/>
      </g>
     </g>
    </g>
    <g id="ytick_3">
     <g id="line2d_11">
      <g>
       <use xlink:href="#mfac0aa3e0b" x="54.385" y="74.108249" style="stroke: #000000; stroke-width: 0.8"/>
      </g>
     </g>
     <g id="line2d_12">
      <g>
       <use xlink:href="#med7f788b34" x="723.985" y="74.108249" style="stroke: #000000; stroke-width: 0.8"/>
      </g>
     </g>
     <g id="text_6">
      <!-- 0.4 -->
      <g transform="translate(28.620625 79.427155)scale(0.14 -0.14)">
       <use xlink:href="#DejaVuSans-30"/>
       <use xlink:href="#DejaVuSans-2e" x="63.623047"/>
       <use xlink:href="#DejaVuSans-34" x="95.410156"/>
      </g>
     </g>
    </g>
    <g id="ytick_4">
     <g id="line2d_13">
      <g>
       <use xlink:href="#mfac0aa3e0b" x="54.385" y="12.518906" style="stroke: #000000; stroke-width: 0.8"/>
      </g>
     </g>
     <g id="line2d_14">
      <g>
       <use xlink:href="#med7f788b34" x="723.985" y="12.518906" style="stroke: #000000; stroke-width: 0.8"/>
      </g>
     </g>
     <g id="text_7">
      <!-- 0.6 -->
      <g transform="translate(28.620625 17.837813)scale(0.14 -0.14)">
       <defs>
        <path id="DejaVuSans-36" d="M 2113 2584 
Q 1688 2584 1439 2293 
Q 1191 2003 1191 1497 
Q 1191 994 1439 701 
Q 1688 409 2113 409 
Q 2538 409 2786 701 
Q 3034 994 3034 1497 
Q 3034 2003 2786 2293 
Q 2538 2584 2113 2584 
z
M 3366 4563 
L 3366 3988 
Q 3128 4100 2886 4159 
Q 2644 4219 2406 4219 
Q 1781 4219 1451 3797 
Q 1122 3375 1075 2522 
Q 1259 2794 1537 2939 
Q 1816 3084 2150 3084 
Q 2853 3084 3261 2657 
Q 3669 2231 3669 1497 
Q 3669 778 3244 343 
Q 2819 -91 2113 -91 
Q 1303 -91 875 529 
Q 447 1150 447 2328 
Q 447 3434 972 4092 
Q 1497 4750 2381 4750 
Q 2619 4750 2861 4703 
Q 3103 4656 3366 4563 
z
" transform="scale(0.015625)"/>
       </defs>
       <use xlink:href="#DejaVuSans-30"/>
       <use xlink:href="#DejaVuSans-2e" x="63.623047"/>
       <use xlink:href="#DejaVuSans-36" x="95.410156"/>
      </g>
     </g>
    </g>
    <g id="text_8">
     <!-- Characteristic Time (s) -->
     <g transform="translate(20.877187 221.470872)rotate(-90)scale(0.18 -0.18)">
      <defs>
       <path id="DejaVuSans-43" d="M 4122 4306 
L 4122 3641 
Q 3803 3938 3442 4084 
Q 3081 4231 2675 4231 
Q 1875 4231 1450 3742 
Q 1025 3253 1025 2328 
Q 1025 1406 1450 917 
Q 1875 428 2675 428 
Q 3081 428 3442 575 
Q 3803 722 4122 1019 
L 4122 359 
Q 3791 134 3420 21 
Q 3050 -91 2638 -91 
Q 1578 -91 968 557 
Q 359 1206 359 2328 
Q 359 3453 968 4101 
Q 1578 4750 2638 4750 
Q 3056 4750 3426 4639 
Q 3797 4528 4122 4306 
z
" transform="scale(0.015625)"/>
       <path id="DejaVuSans-63" d="M 3122 3366 
L 3122 2828 
Q 2878 2963 2633 3030 
Q 2388 3097 2138 3097 
Q 1578 3097 1268 2742 
Q 959 2388 959 1747 
Q 959 1106 1268 751 
Q 1578 397 2138 397 
Q 2388 397 2633 464 
Q 2878 531 3122 666 
L 3122 134 
Q 2881 22 2623 -34 
Q 2366 -91 2075 -91 
Q 1284 -91 818 406 
Q 353 903 353 1747 
Q 353 2603 823 3093 
Q 1294 3584 2113 3584 
Q 2378 3584 2631 3529 
Q 2884 3475 3122 3366 
z
" transform="scale(0.015625)"/>
      </defs>
      <use xlink:href="#DejaVuSans-43"/>
      <use xlink:href="#DejaVuSans-68" x="69.824219"/>
      <use xlink:href="#DejaVuSans-61" x="133.203125"/>
      <use xlink:href="#DejaVuSans-72" x="194.482422"/>
      <use xlink:href="#DejaVuSans-61" x="235.595703"/>
      <use xlink:href="#DejaVuSans-63" x="296.875"/>
      <use xlink:href="#DejaVuSans-74" x="351.855469"/>
      <use xlink:href="#DejaVuSans-65" x="391.064453"/>
      <use xlink:href="#DejaVuSans-72" x="452.587891"/>
      <use xlink:href="#DejaVuSans-69" x="493.701172"/>
      <use xlink:href="#DejaVuSans-73" x="521.484375"/>
      <use xlink:href="#DejaVuSans-74" x="573.583984"/>
      <use xlink:href="#DejaVuSans-69" x="612.792969"/>
      <use xlink:href="#DejaVuSans-63" x="640.576172"/>
      <use xlink:href="#DejaVuSans-20" x="695.556641"/>
      <use xlink:href="#DejaVuSans-54" x="727.34375"/>
      <use xlink:href="#DejaVuSans-69" x="785.302734"/>
      <use xlink:href="#DejaVuSans-6d" x="813.085938"/>
      <use xlink:href="#DejaVuSans-65" x="910.498047"/>
      <use xlink:href="#DejaVuSans-20" x="972.021484"/>
      <use xlink:href="#DejaVuSans-28" x="1003.808594"/>
      <use xlink:href="#DejaVuSans-73" x="1042.822266"/>
      <use xlink:href="#DejaVuSans-29" x="1094.921875"/>
     </g>
    </g>
   </g>
   <g id="line2d_15">
    <path d="M 165.985 196.978988 
L 165.985 86.984576 
" clip-path="url(#pb36d602833)" style="fill: none; stroke: #373737; stroke-width: 0.8; stroke-linecap: square"/>
   </g>
   <g id="line2d_16">
    <path d="M 165.985 172.414333 
L 165.985 138.231789 
" clip-path="url(#pb36d602833)" style="fill: none; stroke: #373737; stroke-width: 2.4; stroke-linecap: square"/>
   </g>
   <g id="line2d_17">
    <path d="M 389.185 196.978988 
L 389.185 79.233022 
" clip-path="url(#pb36d602833)" style="fill: none; stroke: #373737; stroke-width: 0.8; stroke-linecap: square"/>
   </g>
   <g id="line2d_18">
    <path d="M 389.185 187.259708 
L 389.185 143.608984 
" clip-path="url(#pb36d602833)" style="fill: none; stroke: #373737; stroke-width: 2.4; stroke-linecap: square"/>
   </g>
   <g id="line2d_19">
    <path d="M 612.385 196.978988 
L 612.385 170.397655 
" clip-path="url(#pb36d602833)" style="fill: none; stroke: #373737; stroke-width: 0.8; stroke-linecap: square"/>
   </g>
   <g id="line2d_20">
    <path d="M 612.385 188.238923 
L 612.385 180.688695 
" clip-path="url(#pb36d602833)" style="fill: none; stroke: #373737; stroke-width: 2.4; stroke-linecap: square"/>
   </g>
   <g id="patch_3">
    <path d="M 54.385 230.29931 
L 54.385 8.53931 
" style="fill: none; stroke: #000000; stroke-width: 0.8; stroke-linejoin: miter; stroke-linecap: square"/>
   </g>
   <g id="patch_4">
    <path d="M 723.985 230.29931 
L 723.985 8.53931 
" style="fill: none; stroke: #000000; stroke-width: 0.8; stroke-linejoin: miter; stroke-linecap: square"/>
   </g>
   <g id="patch_5">
    <path d="M 54.385 230.29931 
L 723.985 230.29931 
" style="fill: none; stroke: #000000; stroke-width: 0.8; stroke-linejoin: miter; stroke-linecap: square"/>
   </g>
   <g id="patch_6">
    <path d="M 54.385 8.53931 
L 723.985 8.53931 
" style="fill: none; stroke: #000000; stroke-width: 0.8; stroke-linejoin: miter; stroke-linecap: square"/>
   </g>
   <g id="PathCollection_1">
    <defs>
     <path id="m9959b4c6d0" d="M 0 0.8 
C 0.212162 0.8 0.415664 0.715707 0.565685 0.565685 
C 0.715707 0.415664 0.8 0.212162 0.8 0 
C 0.8 -0.212162 0.715707 -0.415664 0.565685 -0.565685 
C 0.415664 -0.715707 0.212162 -0.8 0 -0.8 
C -0.212162 -0.8 -0.415664 -0.715707 -0.565685 -0.565685 
C -0.715707 -0.415664 -0.8 -0.212162 -0.8 0 
C -0.8 0.212162 -0.715707 0.415664 -0.565685 0.565685 
C -0.415664 0.715707 -0.212162 0.8 0 0.8 
z
" style="stroke: #373737"/>
    </defs>
    <g clip-path="url(#pb36d602833)">
     <use xlink:href="#m9959b4c6d0" x="165.985" y="156.848077" style="fill: #ffffff; stroke: #373737"/>
    </g>
   </g>
   <g id="PathCollection_2">
    <g clip-path="url(#pb36d602833)">
     <use xlink:href="#m9959b4c6d0" x="389.185" y="172.353826" style="fill: #ffffff; stroke: #373737"/>
    </g>
   </g>
   <g id="PathCollection_3">
    <g clip-path="url(#pb36d602833)">
     <use xlink:href="#m9959b4c6d0" x="612.385" y="184.728545" style="fill: #ffffff; stroke: #373737"/>
    </g>
   </g>
   <g id="text_9">
    <!-- 0.1313 -->
    <g transform="translate(170.449 168.979734)scale(0.14 -0.14)">
     <defs>
      <path id="DejaVuSans-Bold-30" d="M 2944 2338 
Q 2944 3213 2780 3570 
Q 2616 3928 2228 3928 
Q 1841 3928 1675 3570 
Q 1509 3213 1509 2338 
Q 1509 1453 1675 1090 
Q 1841 728 2228 728 
Q 2613 728 2778 1090 
Q 2944 1453 2944 2338 
z
M 4147 2328 
Q 4147 1169 3647 539 
Q 3147 -91 2228 -91 
Q 1306 -91 806 539 
Q 306 1169 306 2328 
Q 306 3491 806 4120 
Q 1306 4750 2228 4750 
Q 3147 4750 3647 4120 
Q 4147 3491 4147 2328 
z
" transform="scale(0.015625)"/>
      <path id="DejaVuSans-Bold-2e" d="M 653 1209 
L 1778 1209 
L 1778 0 
L 653 0 
L 653 1209 
z
" transform="scale(0.015625)"/>
      <path id="DejaVuSans-Bold-31" d="M 750 831 
L 1813 831 
L 1813 3847 
L 722 3622 
L 722 4441 
L 1806 4666 
L 2950 4666 
L 2950 831 
L 4013 831 
L 4013 0 
L 750 0 
L 750 831 
z
" transform="scale(0.015625)"/>
      <path id="DejaVuSans-Bold-33" d="M 2981 2516 
Q 3453 2394 3698 2092 
Q 3944 1791 3944 1325 
Q 3944 631 3412 270 
Q 2881 -91 1863 -91 
Q 1503 -91 1142 -33 
Q 781 25 428 141 
L 428 1069 
Q 766 900 1098 814 
Q 1431 728 1753 728 
Q 2231 728 2486 893 
Q 2741 1059 2741 1369 
Q 2741 1688 2480 1852 
Q 2219 2016 1709 2016 
L 1228 2016 
L 1228 2791 
L 1734 2791 
Q 2188 2791 2409 2933 
Q 2631 3075 2631 3366 
Q 2631 3634 2415 3781 
Q 2200 3928 1806 3928 
Q 1516 3928 1219 3862 
Q 922 3797 628 3669 
L 628 4550 
Q 984 4650 1334 4700 
Q 1684 4750 2022 4750 
Q 2931 4750 3382 4451 
Q 3834 4153 3834 3553 
Q 3834 3144 3618 2883 
Q 3403 2622 2981 2516 
z
" transform="scale(0.015625)"/>
     </defs>
     <use xlink:href="#DejaVuSans-Bold-30"/>
     <use xlink:href="#DejaVuSans-Bold-2e" x="69.580078"/>
     <use xlink:href="#DejaVuSans-Bold-31" x="107.568359"/>
     <use xlink:href="#DejaVuSans-Bold-33" x="177.148438"/>
     <use xlink:href="#DejaVuSans-Bold-31" x="246.728516"/>
     <use xlink:href="#DejaVuSans-Bold-33" x="316.308594"/>
    </g>
   </g>
   <g id="text_10">
    <!-- 0.081 -->
    <g transform="translate(393.649 179.833758)scale(0.14 -0.14)">
     <defs>
      <path id="DejaVuSans-Bold-38" d="M 2228 2088 
Q 1891 2088 1709 1903 
Q 1528 1719 1528 1375 
Q 1528 1031 1709 848 
Q 1891 666 2228 666 
Q 2563 666 2741 848 
Q 2919 1031 2919 1375 
Q 2919 1722 2741 1905 
Q 2563 2088 2228 2088 
z
M 1350 2484 
Q 925 2613 709 2878 
Q 494 3144 494 3541 
Q 494 4131 934 4440 
Q 1375 4750 2228 4750 
Q 3075 4750 3515 4442 
Q 3956 4134 3956 3541 
Q 3956 3144 3739 2878 
Q 3522 2613 3097 2484 
Q 3572 2353 3814 2058 
Q 4056 1763 4056 1313 
Q 4056 619 3595 264 
Q 3134 -91 2228 -91 
Q 1319 -91 855 264 
Q 391 619 391 1313 
Q 391 1763 633 2058 
Q 875 2353 1350 2484 
z
M 1631 3419 
Q 1631 3141 1786 2991 
Q 1941 2841 2228 2841 
Q 2509 2841 2662 2991 
Q 2816 3141 2816 3419 
Q 2816 3697 2662 3845 
Q 2509 3994 2228 3994 
Q 1941 3994 1786 3844 
Q 1631 3694 1631 3419 
z
" transform="scale(0.015625)"/>
     </defs>
     <use xlink:href="#DejaVuSans-Bold-30"/>
     <use xlink:href="#DejaVuSans-Bold-2e" x="69.580078"/>
     <use xlink:href="#DejaVuSans-Bold-30" x="107.568359"/>
     <use xlink:href="#DejaVuSans-Bold-38" x="177.148438"/>
     <use xlink:href="#DejaVuSans-Bold-31" x="246.728516"/>
    </g>
   </g>
   <g id="text_11">
    <!-- 0.0408 -->
    <g transform="translate(616.849 188.496062)scale(0.14 -0.14)">
     <defs>
      <path id="DejaVuSans-Bold-34" d="M 2356 3675 
L 1038 1722 
L 2356 1722 
L 2356 3675 
z
M 2156 4666 
L 3494 4666 
L 3494 1722 
L 4159 1722 
L 4159 850 
L 3494 850 
L 3494 0 
L 2356 0 
L 2356 850 
L 288 850 
L 288 1881 
L 2156 4666 
z
" transform="scale(0.015625)"/>
     </defs>
     <use xlink:href="#DejaVuSans-Bold-30"/>
     <use xlink:href="#DejaVuSans-Bold-2e" x="69.580078"/>
     <use xlink:href="#DejaVuSans-Bold-30" x="107.568359"/>
     <use xlink:href="#DejaVuSans-Bold-34" x="177.148438"/>
     <use xlink:href="#DejaVuSans-Bold-30" x="246.728516"/>
     <use xlink:href="#DejaVuSans-Bold-38" x="316.308594"/>
    </g>
   </g>
  </g>
 </g>
 <defs>
  <clipPath id="pb36d602833">
   <rect x="54.385" y="8.53931" width="669.6" height="221.76"/>
  </clipPath>
 </defs>
</svg>
