<?xml version="1.0" encoding="utf-8" standalone="no"?>
<!DOCTYPE svg PUBLIC "-//W3C//DTD SVG 1.1//EN"
  "http://www.w3.org/Graphics/SVG/1.1/DTD/svg11.dtd">
<!-- Created with matplotlib (https://matplotlib.org/) -->
<svg height="280.648187pt" version="1.1" viewBox="0 0 731.185 280.648187" width="731.185pt" xmlns="http://www.w3.org/2000/svg" xmlns:xlink="http://www.w3.org/1999/xlink">
 <metadata>
  <rdf:RDF xmlns:cc="http://creativecommons.org/ns#" xmlns:dc="http://purl.org/dc/elements/1.1/" xmlns:rdf="http://www.w3.org/1999/02/22-rdf-syntax-ns#">
   <cc:Work>
    <dc:type rdf:resource="http://purl.org/dc/dcmitype/StillImage"/>
    <dc:date>2023-02-16T12:16:32.741324</dc:date>
    <dc:format>image/svg+xml</dc:format>
    <dc:creator>
     <cc:Agent>
      <dc:title>Matplotlib v3.3.4, https://matplotlib.org/</dc:title>
     </cc:Agent>
    </dc:creator>
   </cc:Work>
  </rdf:RDF>
 </metadata>
 <defs>
  <style type="text/css">*{stroke-linecap:butt;stroke-linejoin:round;}</style>
 </defs>
 <g id="figure_1">
  <g id="patch_1">
   <path d="M 0 280.648187 
L 731.185 280.648187 
L 731.185 0 
L 0 0 
z
" style="fill:#ffffff;"/>
  </g>
  <g id="axes_1">
   <g id="patch_2">
    <path d="M 54.385 240.721875 
L 723.985 240.721875 
L 723.985 18.961875 
L 54.385 18.961875 
z
" style="fill:#ffffff;"/>
   </g>
   <g id="PolyCollection_1">
    <defs>
     <path d="M 167.212563 -53.112905 
L 164.757437 -53.112905 
L 164.278722 -54.820244 
L 163.665229 -56.527583 
L 162.899888 -58.234922 
L 161.971028 -59.942261 
L 160.87514 -61.6496 
L 159.619435 -63.356939 
L 158.223777 -65.064278 
L 156.721543 -66.771617 
L 155.15907 -68.478956 
L 153.593478 -70.186295 
L 152.088905 -71.893634 
L 150.711456 -73.600973 
L 149.523389 -75.308311 
L 148.577254 -77.01565 
L 147.91074 -78.722989 
L 147.542922 -80.430328 
L 147.47238 -82.137667 
L 147.677403 -83.845006 
L 148.118121 -85.552345 
L 148.740166 -87.259684 
L 149.479223 -88.967023 
L 150.265789 -90.674362 
L 151.029503 -92.381701 
L 151.702585 -94.08904 
L 152.222162 -95.796379 
L 152.531543 -97.503718 
L 152.580667 -99.211056 
L 152.326144 -100.918395 
L 151.731303 -102.625734 
L 150.766617 -104.333073 
L 149.410718 -106.040412 
L 147.652038 -107.747751 
L 145.4909 -109.45509 
L 142.941735 -111.162429 
L 140.034991 -112.869768 
L 136.818266 -114.577107 
L 133.356295 -116.284446 
L 129.729503 -117.991785 
L 126.031072 -119.699124 
L 122.362641 -121.406463 
L 118.828984 -123.113801 
L 115.532154 -124.82114 
L 112.565662 -126.528479 
L 110.009289 -128.235818 
L 107.925001 -129.943157 
L 106.354339 -131.650496 
L 105.317393 -133.357835 
L 104.813294 -135.065174 
L 104.821972 -136.772513 
L 105.306802 -138.479852 
L 106.217754 -140.187191 
L 107.494688 -141.89453 
L 109.070597 -143.601869 
L 110.87469 -145.309208 
L 112.835363 -147.016546 
L 114.883136 -148.723885 
L 116.953624 -150.431224 
L 118.990491 -152.138563 
L 120.948245 -153.845902 
L 122.794553 -155.553241 
L 124.511731 -157.26058 
L 126.097057 -158.967919 
L 127.561686 -160.675258 
L 128.928149 -162.382597 
L 130.226657 -164.089936 
L 131.490655 -165.797275 
L 132.752227 -167.504614 
L 134.037989 -169.211953 
L 135.366067 -170.919291 
L 136.744512 -172.62663 
L 138.171329 -174.333969 
L 139.635967 -176.041308 
L 141.121906 -177.748647 
L 142.609844 -179.455986 
L 144.08088 -181.163325 
L 145.5192 -182.870664 
L 146.913871 -184.578003 
L 148.259558 -186.285342 
L 149.556182 -187.992681 
L 150.80771 -189.70002 
L 152.020395 -191.407359 
L 153.20083 -193.114698 
L 154.354169 -194.822036 
L 155.482783 -196.529375 
L 156.585537 -198.236714 
L 157.657709 -199.944053 
L 158.691518 -201.651392 
L 159.677095 -203.358731 
L 160.603722 -205.06607 
L 161.46112 -206.773409 
L 162.240621 -208.480748 
L 162.936057 -210.188087 
L 163.544308 -211.895426 
L 164.065464 -213.602765 
L 164.502642 -215.310104 
L 164.861529 -217.017443 
L 165.149737 -218.724781 
L 165.376084 -220.43212 
L 165.549887 -222.139459 
L 166.420113 -222.139459 
L 166.420113 -222.139459 
L 166.593916 -220.43212 
L 166.820263 -218.724781 
L 167.108471 -217.017443 
L 167.467358 -215.310104 
L 167.904536 -213.602765 
L 168.425692 -211.895426 
L 169.033943 -210.188087 
L 169.729379 -208.480748 
L 170.50888 -206.773409 
L 171.366278 -205.06607 
L 172.292905 -203.358731 
L 173.278482 -201.651392 
L 174.312291 -199.944053 
L 175.384463 -198.236714 
L 176.487217 -196.529375 
L 177.615831 -194.822036 
L 178.76917 -193.114698 
L 179.949605 -191.407359 
L 181.16229 -189.70002 
L 182.413818 -187.992681 
L 183.710442 -186.285342 
L 185.056129 -184.578003 
L 186.4508 -182.870664 
L 187.88912 -181.163325 
L 189.360156 -179.455986 
L 190.848094 -177.748647 
L 192.334033 -176.041308 
L 193.798671 -174.333969 
L 195.225488 -172.62663 
L 196.603933 -170.919291 
L 197.932011 -169.211953 
L 199.217773 -167.504614 
L 200.479345 -165.797275 
L 201.743343 -164.089936 
L 203.041851 -162.382597 
L 204.408314 -160.675258 
L 205.872943 -158.967919 
L 207.458269 -157.26058 
L 209.175447 -155.553241 
L 211.021755 -153.845902 
L 212.979509 -152.138563 
L 215.016376 -150.431224 
L 217.086864 -148.723885 
L 219.134637 -147.016546 
L 221.09531 -145.309208 
L 222.899403 -143.601869 
L 224.475312 -141.89453 
L 225.752246 -140.187191 
L 226.663198 -138.479852 
L 227.148028 -136.772513 
L 227.156706 -135.065174 
L 226.652607 -133.357835 
L 225.615661 -131.650496 
L 224.044999 -129.943157 
L 221.960711 -128.235818 
L 219.404338 -126.528479 
L 216.437846 -124.82114 
L 213.141016 -123.113801 
L 209.607359 -121.406463 
L 205.938928 -119.699124 
L 202.240497 -117.991785 
L 198.613705 -116.284446 
L 195.151734 -114.577107 
L 191.935009 -112.869768 
L 189.028265 -111.162429 
L 186.4791 -109.45509 
L 184.317962 -107.747751 
L 182.559282 -106.040412 
L 181.203383 -104.333073 
L 180.238697 -102.625734 
L 179.643856 -100.918395 
L 179.389333 -99.211056 
L 179.438457 -97.503718 
L 179.747838 -95.796379 
L 180.267415 -94.08904 
L 180.940497 -92.381701 
L 181.704211 -90.674362 
L 182.490777 -88.967023 
L 183.229834 -87.259684 
L 183.851879 -85.552345 
L 184.292597 -83.845006 
L 184.49762 -82.137667 
L 184.427078 -80.430328 
L 184.05926 -78.722989 
L 183.392746 -77.01565 
L 182.446611 -75.308311 
L 181.258544 -73.600973 
L 179.881095 -71.893634 
L 178.376522 -70.186295 
L 176.81093 -68.478956 
L 175.248457 -66.771617 
L 173.746223 -65.064278 
L 172.350565 -63.356939 
L 171.09486 -61.6496 
L 169.998972 -59.942261 
L 169.070112 -58.234922 
L 168.304771 -56.527583 
L 167.691278 -54.820244 
L 167.212563 -53.112905 
z
" id="maab1b97f0b" style="stroke:#373737;stroke-width:0.8;"/>
    </defs>
    <g clip-path="url(#p128c21761c)">
     <use style="fill:#2b8e70;stroke:#373737;stroke-width:0.8;" x="0" xlink:href="#maab1b97f0b" y="280.648187"/>
    </g>
   </g>
   <g id="PolyCollection_2">
    <defs>
     <path d="M 392.075409 -50.006313 
L 386.294591 -50.006313 
L 385.167023 -52.042676 
L 383.733768 -54.07904 
L 381.965311 -56.115403 
L 379.848203 -58.151767 
L 377.390518 -60.188131 
L 374.625695 -62.224494 
L 371.613706 -64.260858 
L 368.438753 -66.297222 
L 365.20324 -68.333585 
L 362.018398 -70.369949 
L 358.992714 -72.406312 
L 356.219828 -74.442676 
L 353.767913 -76.47904 
L 351.672365 -78.515403 
L 349.933169 -80.551767 
L 348.517419 -82.588131 
L 347.366522 -84.624494 
L 346.406721 -86.660858 
L 345.56101 -88.697222 
L 344.760355 -90.733585 
L 343.952436 -92.769949 
L 343.106791 -94.806313 
L 342.216073 -96.842676 
L 341.293933 -98.87904 
L 340.370598 -100.915403 
L 339.487455 -102.951767 
L 338.691825 -104.988131 
L 338.032703 -107.024494 
L 337.55774 -109.060858 
L 337.311264 -111.097222 
L 337.332833 -113.133585 
L 337.655787 -115.169949 
L 338.305402 -117.206312 
L 339.296615 -119.242676 
L 340.6316 -121.27904 
L 342.297754 -123.315403 
L 344.266687 -125.351767 
L 346.494741 -127.388131 
L 348.925235 -129.424494 
L 351.492308 -131.460858 
L 354.125915 -133.497222 
L 356.757278 -135.533585 
L 359.324039 -137.569949 
L 361.774454 -139.606313 
L 364.070121 -141.642676 
L 366.18703 -143.67904 
L 368.114956 -145.715403 
L 369.855448 -147.751767 
L 371.418836 -149.788131 
L 372.82073 -151.824494 
L 374.078536 -153.860858 
L 375.208441 -155.897222 
L 376.223217 -157.933585 
L 377.131078 -159.969949 
L 377.93564 -162.006313 
L 378.636868 -164.042676 
L 379.232777 -166.07904 
L 379.72149 -168.115403 
L 380.103282 -170.151767 
L 380.382222 -172.188131 
L 380.567121 -174.224494 
L 380.671662 -176.260858 
L 380.713711 -178.297222 
L 380.713976 -180.333585 
L 380.694263 -182.369949 
L 380.67565 -184.406313 
L 380.676843 -186.442676 
L 380.712949 -188.47904 
L 380.79479 -190.515403 
L 380.928748 -192.551767 
L 381.117089 -194.588131 
L 381.358599 -196.624494 
L 381.649388 -198.660858 
L 381.983691 -200.697222 
L 382.35457 -202.733585 
L 382.754458 -204.769949 
L 383.175555 -206.806313 
L 383.610103 -208.842676 
L 384.0506 -210.87904 
L 384.490003 -212.915403 
L 384.921934 -214.951767 
L 385.340882 -216.988131 
L 385.742377 -219.024494 
L 386.123078 -221.060858 
L 386.480769 -223.097222 
L 386.814228 -225.133585 
L 387.123019 -227.169949 
L 387.407223 -229.206312 
L 387.667187 -231.242676 
L 387.903327 -233.27904 
L 388.116028 -235.315403 
L 388.305634 -237.351767 
L 388.472526 -239.388131 
L 388.617237 -241.424494 
L 388.740568 -243.460858 
L 388.84367 -245.497222 
L 388.928065 -247.533585 
L 388.995612 -249.569949 
L 389.048409 -251.606313 
L 389.321591 -251.606313 
L 389.321591 -251.606313 
L 389.374388 -249.569949 
L 389.441935 -247.533585 
L 389.52633 -245.497222 
L 389.629432 -243.460858 
L 389.752763 -241.424494 
L 389.897474 -239.388131 
L 390.064366 -237.351767 
L 390.253972 -235.315403 
L 390.466673 -233.27904 
L 390.702813 -231.242676 
L 390.962777 -229.206312 
L 391.246981 -227.169949 
L 391.555772 -225.133585 
L 391.889231 -223.097222 
L 392.246922 -221.060858 
L 392.627623 -219.024494 
L 393.029118 -216.988131 
L 393.448066 -214.951767 
L 393.879997 -212.915403 
L 394.3194 -210.87904 
L 394.759897 -208.842676 
L 395.194445 -206.806313 
L 395.615542 -204.769949 
L 396.01543 -202.733585 
L 396.386309 -200.697222 
L 396.720612 -198.660858 
L 397.011401 -196.624494 
L 397.252911 -194.588131 
L 397.441252 -192.551767 
L 397.57521 -190.515403 
L 397.657051 -188.47904 
L 397.693157 -186.442676 
L 397.69435 -184.406313 
L 397.675737 -182.369949 
L 397.656024 -180.333585 
L 397.656289 -178.297222 
L 397.698338 -176.260858 
L 397.802879 -174.224494 
L 397.987778 -172.188131 
L 398.266718 -170.151767 
L 398.64851 -168.115403 
L 399.137223 -166.07904 
L 399.733132 -164.042676 
L 400.43436 -162.006313 
L 401.238922 -159.969949 
L 402.146783 -157.933585 
L 403.161559 -155.897222 
L 404.291464 -153.860858 
L 405.54927 -151.824494 
L 406.951164 -149.788131 
L 408.514552 -147.751767 
L 410.255044 -145.715403 
L 412.18297 -143.67904 
L 414.299879 -141.642676 
L 416.595546 -139.606313 
L 419.045961 -137.569949 
L 421.612722 -135.533585 
L 424.244085 -133.497222 
L 426.877692 -131.460858 
L 429.444765 -129.424494 
L 431.875259 -127.388131 
L 434.103313 -125.351767 
L 436.072246 -123.315403 
L 437.7384 -121.27904 
L 439.073385 -119.242676 
L 440.064598 -117.206312 
L 440.714213 -115.169949 
L 441.037167 -113.133585 
L 441.058736 -111.097222 
L 440.81226 -109.060858 
L 440.337297 -107.024494 
L 439.678175 -104.988131 
L 438.882545 -102.951767 
L 437.999402 -100.915403 
L 437.076067 -98.87904 
L 436.153927 -96.842676 
L 435.263209 -94.806313 
L 434.417564 -92.769949 
L 433.609645 -90.733585 
L 432.80899 -88.697222 
L 431.963279 -86.660858 
L 431.003478 -84.624494 
L 429.852581 -82.588131 
L 428.436831 -80.551767 
L 426.697635 -78.515403 
L 424.602087 -76.47904 
L 422.150172 -74.442676 
L 419.377286 -72.406312 
L 416.351602 -70.369949 
L 413.16676 -68.333585 
L 409.931247 -66.297222 
L 406.756294 -64.260858 
L 403.744305 -62.224494 
L 400.979482 -60.188131 
L 398.521797 -58.151767 
L 396.404689 -56.115403 
L 394.636232 -54.07904 
L 393.202977 -52.042676 
L 392.075409 -50.006313 
z
" id="m91f30ec5f7" style="stroke:#373737;stroke-width:0.8;"/>
    </defs>
    <g clip-path="url(#p128c21761c)">
     <use style="fill:#be631d;stroke:#373737;stroke-width:0.8;" x="0" xlink:href="#m91f30ec5f7" y="280.648187"/>
    </g>
   </g>
   <g id="PolyCollection_3">
    <defs>
     <path d="M 614.098572 -56.281121 
L 610.671428 -56.281121 
L 609.933309 -58.016636 
L 608.984646 -59.75215 
L 607.81145 -61.487665 
L 606.416376 -63.22318 
L 604.822539 -64.958694 
L 603.074606 -66.694209 
L 601.236247 -68.429723 
L 599.383703 -70.165238 
L 597.596117 -71.900753 
L 595.944131 -73.636267 
L 594.478808 -75.371782 
L 593.222952 -77.107296 
L 592.166406 -78.842811 
L 591.265942 -80.578326 
L 590.449343 -82.31384 
L 589.622454 -84.049355 
L 588.677641 -85.784869 
L 587.502343 -87.520384 
L 585.986957 -89.255899 
L 584.031997 -90.991413 
L 581.554957 -92.726928 
L 578.497272 -94.462442 
L 574.831459 -96.197957 
L 570.567815 -97.933472 
L 565.759546 -99.668986 
L 560.50492 -101.404501 
L 554.945351 -103.140015 
L 549.25898 -104.87553 
L 543.65027 -106.611045 
L 538.336964 -108.346559 
L 533.536158 -110.082074 
L 529.451236 -111.817588 
L 526.260824 -113.553103 
L 524.110212 -115.288618 
L 523.105 -117.024132 
L 523.30643 -118.759647 
L 524.727998 -120.495161 
L 527.333412 -122.230676 
L 531.0365 -123.966191 
L 535.703972 -125.701705 
L 541.161778 -127.43722 
L 547.205208 -129.172734 
L 553.612006 -130.908249 
L 560.157027 -132.643764 
L 566.62653 -134.379278 
L 572.830315 -136.114793 
L 578.610473 -137.850308 
L 583.846299 -139.585822 
L 588.455671 -141.321337 
L 592.393644 -143.056851 
L 595.649161 -144.792366 
L 598.240613 -146.527881 
L 600.21075 -148.263395 
L 601.621231 -149.99891 
L 602.547014 -151.734424 
L 603.070858 -153.469939 
L 603.27827 -155.205454 
L 603.25323 -156.940968 
L 603.074905 -158.676483 
L 602.815365 -160.411997 
L 602.538063 -162.147512 
L 602.296731 -163.883027 
L 602.13442 -165.618541 
L 602.082555 -167.354056 
L 602.160196 -169.08957 
L 602.373859 -170.825085 
L 602.718267 -172.5606 
L 603.178229 -174.296114 
L 603.731525 -176.031629 
L 604.352328 -177.767143 
L 605.014515 -179.502658 
L 605.694214 -181.238173 
L 606.371189 -182.973687 
L 607.02901 -184.709202 
L 607.654319 -186.444716 
L 608.235747 -188.180231 
L 608.763052 -189.915746 
L 609.226905 -191.65126 
L 609.619458 -193.386775 
L 609.935539 -195.122289 
L 610.17406 -196.857804 
L 610.339159 -198.593319 
L 610.44063 -200.328833 
L 610.493374 -202.064348 
L 610.515882 -203.799862 
L 610.52796 -205.535377 
L 610.548142 -207.270892 
L 610.591289 -209.006406 
L 610.666833 -210.741921 
L 610.777977 -212.477435 
L 610.921959 -214.21295 
L 611.091231 -215.948465 
L 611.275253 -217.683979 
L 611.462496 -219.419494 
L 611.642259 -221.155008 
L 611.806013 -222.890523 
L 611.948124 -224.626038 
L 612.065966 -226.361552 
L 612.159544 -228.097067 
L 612.610456 -228.097067 
L 612.610456 -228.097067 
L 612.704034 -226.361552 
L 612.821876 -224.626038 
L 612.963987 -222.890523 
L 613.127741 -221.155008 
L 613.307504 -219.419494 
L 613.494747 -217.683979 
L 613.678769 -215.948465 
L 613.848041 -214.21295 
L 613.992023 -212.477435 
L 614.103167 -210.741921 
L 614.178711 -209.006406 
L 614.221858 -207.270892 
L 614.24204 -205.535377 
L 614.254118 -203.799862 
L 614.276626 -202.064348 
L 614.32937 -200.328833 
L 614.430841 -198.593319 
L 614.59594 -196.857804 
L 614.834461 -195.122289 
L 615.150542 -193.386775 
L 615.543095 -191.65126 
L 616.006948 -189.915746 
L 616.534253 -188.180231 
L 617.115681 -186.444716 
L 617.74099 -184.709202 
L 618.398811 -182.973687 
L 619.075786 -181.238173 
L 619.755485 -179.502658 
L 620.417672 -177.767143 
L 621.038475 -176.031629 
L 621.591771 -174.296114 
L 622.051733 -172.5606 
L 622.396141 -170.825085 
L 622.609804 -169.08957 
L 622.687445 -167.354056 
L 622.63558 -165.618541 
L 622.473269 -163.883027 
L 622.231937 -162.147512 
L 621.954635 -160.411997 
L 621.695095 -158.676483 
L 621.51677 -156.940968 
L 621.49173 -155.205454 
L 621.699142 -153.469939 
L 622.222986 -151.734424 
L 623.148769 -149.99891 
L 624.55925 -148.263395 
L 626.529387 -146.527881 
L 629.120839 -144.792366 
L 632.376356 -143.056851 
L 636.314329 -141.321337 
L 640.923701 -139.585822 
L 646.159527 -137.850308 
L 651.939685 -136.114793 
L 658.14347 -134.379278 
L 664.612973 -132.643764 
L 671.157994 -130.908249 
L 677.564792 -129.172734 
L 683.608222 -127.43722 
L 689.066028 -125.701705 
L 693.7335 -123.966191 
L 697.436588 -122.230676 
L 700.042002 -120.495161 
L 701.46357 -118.759647 
L 701.665 -117.024132 
L 700.659788 -115.288618 
L 698.509176 -113.553103 
L 695.318764 -111.817588 
L 691.233842 -110.082074 
L 686.433036 -108.346559 
L 681.11973 -106.611045 
L 675.51102 -104.87553 
L 669.824649 -103.140015 
L 664.26508 -101.404501 
L 659.010454 -99.668986 
L 654.202185 -97.933472 
L 649.938541 -96.197957 
L 646.272728 -94.462442 
L 643.215043 -92.726928 
L 640.738003 -90.991413 
L 638.783043 -89.255899 
L 637.267657 -87.520384 
L 636.092359 -85.784869 
L 635.147546 -84.049355 
L 634.320657 -82.31384 
L 633.504058 -80.578326 
L 632.603594 -78.842811 
L 631.547048 -77.107296 
L 630.291192 -75.371782 
L 628.825869 -73.636267 
L 627.173883 -71.900753 
L 625.386297 -70.165238 
L 623.533753 -68.429723 
L 621.695394 -66.694209 
L 619.947461 -64.958694 
L 618.353624 -63.22318 
L 616.95855 -61.487665 
L 615.785354 -59.75215 
L 614.836691 -58.016636 
L 614.098572 -56.281121 
z
" id="m5a3529d9af" style="stroke:#373737;stroke-width:0.8;"/>
    </defs>
    <g clip-path="url(#p128c21761c)">
     <use style="fill:#7c78ab;stroke:#373737;stroke-width:0.8;" x="0" xlink:href="#m5a3529d9af" y="280.648187"/>
    </g>
   </g>
   <g id="matplotlib.axis_1">
    <g id="xtick_1">
     <g id="line2d_1">
      <defs>
       <path d="M 0 0 
L 0 -3.5 
" id="mbe322fd20c" style="stroke:#000000;stroke-width:0.8;"/>
      </defs>
      <g>
       <use style="stroke:#000000;stroke-width:0.8;" x="165.985" xlink:href="#mbe322fd20c" y="240.721875"/>
      </g>
     </g>
     <g id="line2d_2">
      <defs>
       <path d="M 0 0 
L 0 3.5 
" id="m4749e569b8" style="stroke:#000000;stroke-width:0.8;"/>
      </defs>
      <g>
       <use style="stroke:#000000;stroke-width:0.8;" x="165.985" xlink:href="#m4749e569b8" y="18.961875"/>
      </g>
     </g>
     <g id="text_1">
      <!-- Treated substrate -->
      <g transform="translate(104.56875 254.859687)scale(0.14 -0.14)">
       <defs>
        <path d="M -0.296875 72.90625 
L 61.375 72.90625 
L 61.375 64.59375 
L 35.5 64.59375 
L 35.5 0 
L 25.59375 0 
L 25.59375 64.59375 
L -0.296875 64.59375 
z
" id="DejaVuSans-84"/>
        <path d="M 41.109375 46.296875 
Q 39.59375 47.171875 37.8125 47.578125 
Q 36.03125 48 33.890625 48 
Q 26.265625 48 22.1875 43.046875 
Q 18.109375 38.09375 18.109375 28.8125 
L 18.109375 0 
L 9.078125 0 
L 9.078125 54.6875 
L 18.109375 54.6875 
L 18.109375 46.1875 
Q 20.953125 51.171875 25.484375 53.578125 
Q 30.03125 56 36.53125 56 
Q 37.453125 56 38.578125 55.875 
Q 39.703125 55.765625 41.0625 55.515625 
z
" id="DejaVuSans-114"/>
        <path d="M 56.203125 29.59375 
L 56.203125 25.203125 
L 14.890625 25.203125 
Q 15.484375 15.921875 20.484375 11.0625 
Q 25.484375 6.203125 34.421875 6.203125 
Q 39.59375 6.203125 44.453125 7.46875 
Q 49.3125 8.734375 54.109375 11.28125 
L 54.109375 2.78125 
Q 49.265625 0.734375 44.1875 -0.34375 
Q 39.109375 -1.421875 33.890625 -1.421875 
Q 20.796875 -1.421875 13.15625 6.1875 
Q 5.515625 13.8125 5.515625 26.8125 
Q 5.515625 40.234375 12.765625 48.109375 
Q 20.015625 56 32.328125 56 
Q 43.359375 56 49.78125 48.890625 
Q 56.203125 41.796875 56.203125 29.59375 
z
M 47.21875 32.234375 
Q 47.125 39.59375 43.09375 43.984375 
Q 39.0625 48.390625 32.421875 48.390625 
Q 24.90625 48.390625 20.390625 44.140625 
Q 15.875 39.890625 15.1875 32.171875 
z
" id="DejaVuSans-101"/>
        <path d="M 34.28125 27.484375 
Q 23.390625 27.484375 19.1875 25 
Q 14.984375 22.515625 14.984375 16.5 
Q 14.984375 11.71875 18.140625 8.90625 
Q 21.296875 6.109375 26.703125 6.109375 
Q 34.1875 6.109375 38.703125 11.40625 
Q 43.21875 16.703125 43.21875 25.484375 
L 43.21875 27.484375 
z
M 52.203125 31.203125 
L 52.203125 0 
L 43.21875 0 
L 43.21875 8.296875 
Q 40.140625 3.328125 35.546875 0.953125 
Q 30.953125 -1.421875 24.3125 -1.421875 
Q 15.921875 -1.421875 10.953125 3.296875 
Q 6 8.015625 6 15.921875 
Q 6 25.140625 12.171875 29.828125 
Q 18.359375 34.515625 30.609375 34.515625 
L 43.21875 34.515625 
L 43.21875 35.40625 
Q 43.21875 41.609375 39.140625 45 
Q 35.0625 48.390625 27.6875 48.390625 
Q 23 48.390625 18.546875 47.265625 
Q 14.109375 46.140625 10.015625 43.890625 
L 10.015625 52.203125 
Q 14.9375 54.109375 19.578125 55.046875 
Q 24.21875 56 28.609375 56 
Q 40.484375 56 46.34375 49.84375 
Q 52.203125 43.703125 52.203125 31.203125 
z
" id="DejaVuSans-97"/>
        <path d="M 18.3125 70.21875 
L 18.3125 54.6875 
L 36.8125 54.6875 
L 36.8125 47.703125 
L 18.3125 47.703125 
L 18.3125 18.015625 
Q 18.3125 11.328125 20.140625 9.421875 
Q 21.96875 7.515625 27.59375 7.515625 
L 36.8125 7.515625 
L 36.8125 0 
L 27.59375 0 
Q 17.1875 0 13.234375 3.875 
Q 9.28125 7.765625 9.28125 18.015625 
L 9.28125 47.703125 
L 2.6875 47.703125 
L 2.6875 54.6875 
L 9.28125 54.6875 
L 9.28125 70.21875 
z
" id="DejaVuSans-116"/>
        <path d="M 45.40625 46.390625 
L 45.40625 75.984375 
L 54.390625 75.984375 
L 54.390625 0 
L 45.40625 0 
L 45.40625 8.203125 
Q 42.578125 3.328125 38.25 0.953125 
Q 33.9375 -1.421875 27.875 -1.421875 
Q 17.96875 -1.421875 11.734375 6.484375 
Q 5.515625 14.40625 5.515625 27.296875 
Q 5.515625 40.1875 11.734375 48.09375 
Q 17.96875 56 27.875 56 
Q 33.9375 56 38.25 53.625 
Q 42.578125 51.265625 45.40625 46.390625 
z
M 14.796875 27.296875 
Q 14.796875 17.390625 18.875 11.75 
Q 22.953125 6.109375 30.078125 6.109375 
Q 37.203125 6.109375 41.296875 11.75 
Q 45.40625 17.390625 45.40625 27.296875 
Q 45.40625 37.203125 41.296875 42.84375 
Q 37.203125 48.484375 30.078125 48.484375 
Q 22.953125 48.484375 18.875 42.84375 
Q 14.796875 37.203125 14.796875 27.296875 
z
" id="DejaVuSans-100"/>
        <path id="DejaVuSans-32"/>
        <path d="M 44.28125 53.078125 
L 44.28125 44.578125 
Q 40.484375 46.53125 36.375 47.5 
Q 32.28125 48.484375 27.875 48.484375 
Q 21.1875 48.484375 17.84375 46.4375 
Q 14.5 44.390625 14.5 40.28125 
Q 14.5 37.15625 16.890625 35.375 
Q 19.28125 33.59375 26.515625 31.984375 
L 29.59375 31.296875 
Q 39.15625 29.25 43.1875 25.515625 
Q 47.21875 21.78125 47.21875 15.09375 
Q 47.21875 7.46875 41.1875 3.015625 
Q 35.15625 -1.421875 24.609375 -1.421875 
Q 20.21875 -1.421875 15.453125 -0.5625 
Q 10.6875 0.296875 5.421875 2 
L 5.421875 11.28125 
Q 10.40625 8.6875 15.234375 7.390625 
Q 20.0625 6.109375 24.8125 6.109375 
Q 31.15625 6.109375 34.5625 8.28125 
Q 37.984375 10.453125 37.984375 14.40625 
Q 37.984375 18.0625 35.515625 20.015625 
Q 33.0625 21.96875 24.703125 23.78125 
L 21.578125 24.515625 
Q 13.234375 26.265625 9.515625 29.90625 
Q 5.8125 33.546875 5.8125 39.890625 
Q 5.8125 47.609375 11.28125 51.796875 
Q 16.75 56 26.8125 56 
Q 31.78125 56 36.171875 55.265625 
Q 40.578125 54.546875 44.28125 53.078125 
z
" id="DejaVuSans-115"/>
        <path d="M 8.5 21.578125 
L 8.5 54.6875 
L 17.484375 54.6875 
L 17.484375 21.921875 
Q 17.484375 14.15625 20.5 10.265625 
Q 23.53125 6.390625 29.59375 6.390625 
Q 36.859375 6.390625 41.078125 11.03125 
Q 45.3125 15.671875 45.3125 23.6875 
L 45.3125 54.6875 
L 54.296875 54.6875 
L 54.296875 0 
L 45.3125 0 
L 45.3125 8.40625 
Q 42.046875 3.421875 37.71875 1 
Q 33.40625 -1.421875 27.6875 -1.421875 
Q 18.265625 -1.421875 13.375 4.4375 
Q 8.5 10.296875 8.5 21.578125 
z
M 31.109375 56 
z
" id="DejaVuSans-117"/>
        <path d="M 48.6875 27.296875 
Q 48.6875 37.203125 44.609375 42.84375 
Q 40.53125 48.484375 33.40625 48.484375 
Q 26.265625 48.484375 22.1875 42.84375 
Q 18.109375 37.203125 18.109375 27.296875 
Q 18.109375 17.390625 22.1875 11.75 
Q 26.265625 6.109375 33.40625 6.109375 
Q 40.53125 6.109375 44.609375 11.75 
Q 48.6875 17.390625 48.6875 27.296875 
z
M 18.109375 46.390625 
Q 20.953125 51.265625 25.265625 53.625 
Q 29.59375 56 35.59375 56 
Q 45.5625 56 51.78125 48.09375 
Q 58.015625 40.1875 58.015625 27.296875 
Q 58.015625 14.40625 51.78125 6.484375 
Q 45.5625 -1.421875 35.59375 -1.421875 
Q 29.59375 -1.421875 25.265625 0.953125 
Q 20.953125 3.328125 18.109375 8.203125 
L 18.109375 0 
L 9.078125 0 
L 9.078125 75.984375 
L 18.109375 75.984375 
z
" id="DejaVuSans-98"/>
       </defs>
       <use xlink:href="#DejaVuSans-84"/>
       <use x="46.333984" xlink:href="#DejaVuSans-114"/>
       <use x="85.197266" xlink:href="#DejaVuSans-101"/>
       <use x="146.720703" xlink:href="#DejaVuSans-97"/>
       <use x="208" xlink:href="#DejaVuSans-116"/>
       <use x="247.208984" xlink:href="#DejaVuSans-101"/>
       <use x="308.732422" xlink:href="#DejaVuSans-100"/>
       <use x="372.208984" xlink:href="#DejaVuSans-32"/>
       <use x="403.996094" xlink:href="#DejaVuSans-115"/>
       <use x="456.095703" xlink:href="#DejaVuSans-117"/>
       <use x="519.474609" xlink:href="#DejaVuSans-98"/>
       <use x="582.951172" xlink:href="#DejaVuSans-115"/>
       <use x="635.050781" xlink:href="#DejaVuSans-116"/>
       <use x="674.259766" xlink:href="#DejaVuSans-114"/>
       <use x="715.373047" xlink:href="#DejaVuSans-97"/>
       <use x="776.652344" xlink:href="#DejaVuSans-116"/>
       <use x="815.861328" xlink:href="#DejaVuSans-101"/>
      </g>
      <!-- (step width=0.43±0.04μm) -->
      <g transform="translate(69.686875 270.536625)scale(0.14 -0.14)">
       <defs>
        <path d="M 31 75.875 
Q 24.46875 64.65625 21.28125 53.65625 
Q 18.109375 42.671875 18.109375 31.390625 
Q 18.109375 20.125 21.3125 9.0625 
Q 24.515625 -2 31 -13.1875 
L 23.1875 -13.1875 
Q 15.875 -1.703125 12.234375 9.375 
Q 8.59375 20.453125 8.59375 31.390625 
Q 8.59375 42.28125 12.203125 53.3125 
Q 15.828125 64.359375 23.1875 75.875 
z
" id="DejaVuSans-40"/>
        <path d="M 18.109375 8.203125 
L 18.109375 -20.796875 
L 9.078125 -20.796875 
L 9.078125 54.6875 
L 18.109375 54.6875 
L 18.109375 46.390625 
Q 20.953125 51.265625 25.265625 53.625 
Q 29.59375 56 35.59375 56 
Q 45.5625 56 51.78125 48.09375 
Q 58.015625 40.1875 58.015625 27.296875 
Q 58.015625 14.40625 51.78125 6.484375 
Q 45.5625 -1.421875 35.59375 -1.421875 
Q 29.59375 -1.421875 25.265625 0.953125 
Q 20.953125 3.328125 18.109375 8.203125 
z
M 48.6875 27.296875 
Q 48.6875 37.203125 44.609375 42.84375 
Q 40.53125 48.484375 33.40625 48.484375 
Q 26.265625 48.484375 22.1875 42.84375 
Q 18.109375 37.203125 18.109375 27.296875 
Q 18.109375 17.390625 22.1875 11.75 
Q 26.265625 6.109375 33.40625 6.109375 
Q 40.53125 6.109375 44.609375 11.75 
Q 48.6875 17.390625 48.6875 27.296875 
z
" id="DejaVuSans-112"/>
        <path d="M 4.203125 54.6875 
L 13.1875 54.6875 
L 24.421875 12.015625 
L 35.59375 54.6875 
L 46.1875 54.6875 
L 57.421875 12.015625 
L 68.609375 54.6875 
L 77.59375 54.6875 
L 63.28125 0 
L 52.6875 0 
L 40.921875 44.828125 
L 29.109375 0 
L 18.5 0 
z
" id="DejaVuSans-119"/>
        <path d="M 9.421875 54.6875 
L 18.40625 54.6875 
L 18.40625 0 
L 9.421875 0 
z
M 9.421875 75.984375 
L 18.40625 75.984375 
L 18.40625 64.59375 
L 9.421875 64.59375 
z
" id="DejaVuSans-105"/>
        <path d="M 54.890625 33.015625 
L 54.890625 0 
L 45.90625 0 
L 45.90625 32.71875 
Q 45.90625 40.484375 42.875 44.328125 
Q 39.84375 48.1875 33.796875 48.1875 
Q 26.515625 48.1875 22.3125 43.546875 
Q 18.109375 38.921875 18.109375 30.90625 
L 18.109375 0 
L 9.078125 0 
L 9.078125 75.984375 
L 18.109375 75.984375 
L 18.109375 46.1875 
Q 21.34375 51.125 25.703125 53.5625 
Q 30.078125 56 35.796875 56 
Q 45.21875 56 50.046875 50.171875 
Q 54.890625 44.34375 54.890625 33.015625 
z
" id="DejaVuSans-104"/>
        <path d="M 10.59375 45.40625 
L 73.1875 45.40625 
L 73.1875 37.203125 
L 10.59375 37.203125 
z
M 10.59375 25.484375 
L 73.1875 25.484375 
L 73.1875 17.1875 
L 10.59375 17.1875 
z
" id="DejaVuSans-61"/>
        <path d="M 31.78125 66.40625 
Q 24.171875 66.40625 20.328125 58.90625 
Q 16.5 51.421875 16.5 36.375 
Q 16.5 21.390625 20.328125 13.890625 
Q 24.171875 6.390625 31.78125 6.390625 
Q 39.453125 6.390625 43.28125 13.890625 
Q 47.125 21.390625 47.125 36.375 
Q 47.125 51.421875 43.28125 58.90625 
Q 39.453125 66.40625 31.78125 66.40625 
z
M 31.78125 74.21875 
Q 44.046875 74.21875 50.515625 64.515625 
Q 56.984375 54.828125 56.984375 36.375 
Q 56.984375 17.96875 50.515625 8.265625 
Q 44.046875 -1.421875 31.78125 -1.421875 
Q 19.53125 -1.421875 13.0625 8.265625 
Q 6.59375 17.96875 6.59375 36.375 
Q 6.59375 54.828125 13.0625 64.515625 
Q 19.53125 74.21875 31.78125 74.21875 
z
" id="DejaVuSans-48"/>
        <path d="M 10.6875 12.40625 
L 21 12.40625 
L 21 0 
L 10.6875 0 
z
" id="DejaVuSans-46"/>
        <path d="M 37.796875 64.3125 
L 12.890625 25.390625 
L 37.796875 25.390625 
z
M 35.203125 72.90625 
L 47.609375 72.90625 
L 47.609375 25.390625 
L 58.015625 25.390625 
L 58.015625 17.1875 
L 47.609375 17.1875 
L 47.609375 0 
L 37.796875 0 
L 37.796875 17.1875 
L 4.890625 17.1875 
L 4.890625 26.703125 
z
" id="DejaVuSans-52"/>
        <path d="M 40.578125 39.3125 
Q 47.65625 37.796875 51.625 33 
Q 55.609375 28.21875 55.609375 21.1875 
Q 55.609375 10.40625 48.1875 4.484375 
Q 40.765625 -1.421875 27.09375 -1.421875 
Q 22.515625 -1.421875 17.65625 -0.515625 
Q 12.796875 0.390625 7.625 2.203125 
L 7.625 11.71875 
Q 11.71875 9.328125 16.59375 8.109375 
Q 21.484375 6.890625 26.8125 6.890625 
Q 36.078125 6.890625 40.9375 10.546875 
Q 45.796875 14.203125 45.796875 21.1875 
Q 45.796875 27.640625 41.28125 31.265625 
Q 36.765625 34.90625 28.71875 34.90625 
L 20.21875 34.90625 
L 20.21875 43.015625 
L 29.109375 43.015625 
Q 36.375 43.015625 40.234375 45.921875 
Q 44.09375 48.828125 44.09375 54.296875 
Q 44.09375 59.90625 40.109375 62.90625 
Q 36.140625 65.921875 28.71875 65.921875 
Q 24.65625 65.921875 20.015625 65.03125 
Q 15.375 64.15625 9.8125 62.3125 
L 9.8125 71.09375 
Q 15.4375 72.65625 20.34375 73.4375 
Q 25.25 74.21875 29.59375 74.21875 
Q 40.828125 74.21875 47.359375 69.109375 
Q 53.90625 64.015625 53.90625 55.328125 
Q 53.90625 49.265625 50.4375 45.09375 
Q 46.96875 40.921875 40.578125 39.3125 
z
" id="DejaVuSans-51"/>
        <path d="M 46 62.703125 
L 46 43.796875 
L 73.1875 43.796875 
L 73.1875 35.5 
L 46 35.5 
L 46 16.609375 
L 37.796875 16.609375 
L 37.796875 35.5 
L 10.59375 35.5 
L 10.59375 43.796875 
L 37.796875 43.796875 
L 37.796875 62.703125 
z
M 10.59375 8.296875 
L 73.1875 8.296875 
L 73.1875 0 
L 10.59375 0 
z
" id="DejaVuSans-177"/>
        <path d="M 8.5 -20.796875 
L 8.5 54.6875 
L 17.484375 54.6875 
L 17.484375 20.703125 
Q 17.484375 13.625 20.84375 10 
Q 24.21875 6.390625 30.8125 6.390625 
Q 38.03125 6.390625 41.671875 10.484375 
Q 45.3125 14.59375 45.3125 22.796875 
L 45.3125 54.6875 
L 54.296875 54.6875 
L 54.296875 12.59375 
Q 54.296875 9.671875 55.140625 8.28125 
Q 56 6.890625 57.8125 6.890625 
Q 58.25 6.890625 59.03125 7.15625 
Q 59.8125 7.421875 61.1875 8.015625 
L 61.1875 0.78125 
Q 59.1875 -0.34375 57.390625 -0.875 
Q 55.609375 -1.421875 53.90625 -1.421875 
Q 50.53125 -1.421875 48.53125 0.484375 
Q 46.53125 2.390625 45.796875 6.296875 
Q 43.359375 2.4375 39.8125 0.5 
Q 36.28125 -1.421875 31.5 -1.421875 
Q 26.515625 -1.421875 23.015625 0.484375 
Q 19.53125 2.390625 17.484375 6.203125 
L 17.484375 -20.796875 
z
" id="DejaVuSans-956"/>
        <path d="M 52 44.1875 
Q 55.375 50.25 60.0625 53.125 
Q 64.75 56 71.09375 56 
Q 79.640625 56 84.28125 50.015625 
Q 88.921875 44.046875 88.921875 33.015625 
L 88.921875 0 
L 79.890625 0 
L 79.890625 32.71875 
Q 79.890625 40.578125 77.09375 44.375 
Q 74.3125 48.1875 68.609375 48.1875 
Q 61.625 48.1875 57.5625 43.546875 
Q 53.515625 38.921875 53.515625 30.90625 
L 53.515625 0 
L 44.484375 0 
L 44.484375 32.71875 
Q 44.484375 40.625 41.703125 44.40625 
Q 38.921875 48.1875 33.109375 48.1875 
Q 26.21875 48.1875 22.15625 43.53125 
Q 18.109375 38.875 18.109375 30.90625 
L 18.109375 0 
L 9.078125 0 
L 9.078125 54.6875 
L 18.109375 54.6875 
L 18.109375 46.1875 
Q 21.1875 51.21875 25.484375 53.609375 
Q 29.78125 56 35.6875 56 
Q 41.65625 56 45.828125 52.96875 
Q 50 49.953125 52 44.1875 
z
" id="DejaVuSans-109"/>
        <path d="M 8.015625 75.875 
L 15.828125 75.875 
Q 23.140625 64.359375 26.78125 53.3125 
Q 30.421875 42.28125 30.421875 31.390625 
Q 30.421875 20.453125 26.78125 9.375 
Q 23.140625 -1.703125 15.828125 -13.1875 
L 8.015625 -13.1875 
Q 14.5 -2 17.703125 9.0625 
Q 20.90625 20.125 20.90625 31.390625 
Q 20.90625 42.671875 17.703125 53.65625 
Q 14.5 64.65625 8.015625 75.875 
z
" id="DejaVuSans-41"/>
       </defs>
       <use xlink:href="#DejaVuSans-40"/>
       <use x="39.013672" xlink:href="#DejaVuSans-115"/>
       <use x="91.113281" xlink:href="#DejaVuSans-116"/>
       <use x="130.322266" xlink:href="#DejaVuSans-101"/>
       <use x="191.845703" xlink:href="#DejaVuSans-112"/>
       <use x="255.322266" xlink:href="#DejaVuSans-32"/>
       <use x="287.109375" xlink:href="#DejaVuSans-119"/>
       <use x="368.896484" xlink:href="#DejaVuSans-105"/>
       <use x="396.679688" xlink:href="#DejaVuSans-100"/>
       <use x="460.15625" xlink:href="#DejaVuSans-116"/>
       <use x="499.365234" xlink:href="#DejaVuSans-104"/>
       <use x="562.744141" xlink:href="#DejaVuSans-61"/>
       <use x="646.533203" xlink:href="#DejaVuSans-48"/>
       <use x="710.15625" xlink:href="#DejaVuSans-46"/>
       <use x="741.943359" xlink:href="#DejaVuSans-52"/>
       <use x="805.566406" xlink:href="#DejaVuSans-51"/>
       <use x="869.189453" xlink:href="#DejaVuSans-177"/>
       <use x="952.978516" xlink:href="#DejaVuSans-48"/>
       <use x="1016.601562" xlink:href="#DejaVuSans-46"/>
       <use x="1048.388672" xlink:href="#DejaVuSans-48"/>
       <use x="1112.011719" xlink:href="#DejaVuSans-52"/>
       <use x="1175.634766" xlink:href="#DejaVuSans-956"/>
       <use x="1239.257812" xlink:href="#DejaVuSans-109"/>
       <use x="1336.669922" xlink:href="#DejaVuSans-41"/>
      </g>
     </g>
    </g>
    <g id="xtick_2">
     <g id="line2d_3">
      <g>
       <use style="stroke:#000000;stroke-width:0.8;" x="389.185" xlink:href="#mbe322fd20c" y="240.721875"/>
      </g>
     </g>
     <g id="line2d_4">
      <g>
       <use style="stroke:#000000;stroke-width:0.8;" x="389.185" xlink:href="#m4749e569b8" y="18.961875"/>
      </g>
     </g>
     <g id="text_2">
      <!-- Treated substrate -->
      <g transform="translate(327.76875 254.859687)scale(0.14 -0.14)">
       <use xlink:href="#DejaVuSans-84"/>
       <use x="46.333984" xlink:href="#DejaVuSans-114"/>
       <use x="85.197266" xlink:href="#DejaVuSans-101"/>
       <use x="146.720703" xlink:href="#DejaVuSans-97"/>
       <use x="208" xlink:href="#DejaVuSans-116"/>
       <use x="247.208984" xlink:href="#DejaVuSans-101"/>
       <use x="308.732422" xlink:href="#DejaVuSans-100"/>
       <use x="372.208984" xlink:href="#DejaVuSans-32"/>
       <use x="403.996094" xlink:href="#DejaVuSans-115"/>
       <use x="456.095703" xlink:href="#DejaVuSans-117"/>
       <use x="519.474609" xlink:href="#DejaVuSans-98"/>
       <use x="582.951172" xlink:href="#DejaVuSans-115"/>
       <use x="635.050781" xlink:href="#DejaVuSans-116"/>
       <use x="674.259766" xlink:href="#DejaVuSans-114"/>
       <use x="715.373047" xlink:href="#DejaVuSans-97"/>
       <use x="776.652344" xlink:href="#DejaVuSans-116"/>
       <use x="815.861328" xlink:href="#DejaVuSans-101"/>
      </g>
      <!-- (step width=0.11±0.01μm) -->
      <g transform="translate(292.886875 270.536625)scale(0.14 -0.14)">
       <defs>
        <path d="M 12.40625 8.296875 
L 28.515625 8.296875 
L 28.515625 63.921875 
L 10.984375 60.40625 
L 10.984375 69.390625 
L 28.421875 72.90625 
L 38.28125 72.90625 
L 38.28125 8.296875 
L 54.390625 8.296875 
L 54.390625 0 
L 12.40625 0 
z
" id="DejaVuSans-49"/>
       </defs>
       <use xlink:href="#DejaVuSans-40"/>
       <use x="39.013672" xlink:href="#DejaVuSans-115"/>
       <use x="91.113281" xlink:href="#DejaVuSans-116"/>
       <use x="130.322266" xlink:href="#DejaVuSans-101"/>
       <use x="191.845703" xlink:href="#DejaVuSans-112"/>
       <use x="255.322266" xlink:href="#DejaVuSans-32"/>
       <use x="287.109375" xlink:href="#DejaVuSans-119"/>
       <use x="368.896484" xlink:href="#DejaVuSans-105"/>
       <use x="396.679688" xlink:href="#DejaVuSans-100"/>
       <use x="460.15625" xlink:href="#DejaVuSans-116"/>
       <use x="499.365234" xlink:href="#DejaVuSans-104"/>
       <use x="562.744141" xlink:href="#DejaVuSans-61"/>
       <use x="646.533203" xlink:href="#DejaVuSans-48"/>
       <use x="710.15625" xlink:href="#DejaVuSans-46"/>
       <use x="741.943359" xlink:href="#DejaVuSans-49"/>
       <use x="805.566406" xlink:href="#DejaVuSans-49"/>
       <use x="869.189453" xlink:href="#DejaVuSans-177"/>
       <use x="952.978516" xlink:href="#DejaVuSans-48"/>
       <use x="1016.601562" xlink:href="#DejaVuSans-46"/>
       <use x="1048.388672" xlink:href="#DejaVuSans-48"/>
       <use x="1112.011719" xlink:href="#DejaVuSans-49"/>
       <use x="1175.634766" xlink:href="#DejaVuSans-956"/>
       <use x="1239.257812" xlink:href="#DejaVuSans-109"/>
       <use x="1336.669922" xlink:href="#DejaVuSans-41"/>
      </g>
     </g>
    </g>
    <g id="xtick_3">
     <g id="line2d_5">
      <g>
       <use style="stroke:#000000;stroke-width:0.8;" x="612.385" xlink:href="#mbe322fd20c" y="240.721875"/>
      </g>
     </g>
     <g id="line2d_6">
      <g>
       <use style="stroke:#000000;stroke-width:0.8;" x="612.385" xlink:href="#m4749e569b8" y="18.961875"/>
      </g>
     </g>
     <g id="text_3">
      <!-- Untreated substrate -->
      <g transform="translate(541.908125 254.859687)scale(0.14 -0.14)">
       <defs>
        <path d="M 8.6875 72.90625 
L 18.609375 72.90625 
L 18.609375 28.609375 
Q 18.609375 16.890625 22.84375 11.734375 
Q 27.09375 6.59375 36.625 6.59375 
Q 46.09375 6.59375 50.34375 11.734375 
Q 54.59375 16.890625 54.59375 28.609375 
L 54.59375 72.90625 
L 64.5 72.90625 
L 64.5 27.390625 
Q 64.5 13.140625 57.4375 5.859375 
Q 50.390625 -1.421875 36.625 -1.421875 
Q 22.796875 -1.421875 15.734375 5.859375 
Q 8.6875 13.140625 8.6875 27.390625 
z
" id="DejaVuSans-85"/>
        <path d="M 54.890625 33.015625 
L 54.890625 0 
L 45.90625 0 
L 45.90625 32.71875 
Q 45.90625 40.484375 42.875 44.328125 
Q 39.84375 48.1875 33.796875 48.1875 
Q 26.515625 48.1875 22.3125 43.546875 
Q 18.109375 38.921875 18.109375 30.90625 
L 18.109375 0 
L 9.078125 0 
L 9.078125 54.6875 
L 18.109375 54.6875 
L 18.109375 46.1875 
Q 21.34375 51.125 25.703125 53.5625 
Q 30.078125 56 35.796875 56 
Q 45.21875 56 50.046875 50.171875 
Q 54.890625 44.34375 54.890625 33.015625 
z
" id="DejaVuSans-110"/>
       </defs>
       <use xlink:href="#DejaVuSans-85"/>
       <use x="73.193359" xlink:href="#DejaVuSans-110"/>
       <use x="136.572266" xlink:href="#DejaVuSans-116"/>
       <use x="175.78125" xlink:href="#DejaVuSans-114"/>
       <use x="214.644531" xlink:href="#DejaVuSans-101"/>
       <use x="276.167969" xlink:href="#DejaVuSans-97"/>
       <use x="337.447266" xlink:href="#DejaVuSans-116"/>
       <use x="376.65625" xlink:href="#DejaVuSans-101"/>
       <use x="438.179688" xlink:href="#DejaVuSans-100"/>
       <use x="501.65625" xlink:href="#DejaVuSans-32"/>
       <use x="533.443359" xlink:href="#DejaVuSans-115"/>
       <use x="585.542969" xlink:href="#DejaVuSans-117"/>
       <use x="648.921875" xlink:href="#DejaVuSans-98"/>
       <use x="712.398438" xlink:href="#DejaVuSans-115"/>
       <use x="764.498047" xlink:href="#DejaVuSans-116"/>
       <use x="803.707031" xlink:href="#DejaVuSans-114"/>
       <use x="844.820312" xlink:href="#DejaVuSans-97"/>
       <use x="906.099609" xlink:href="#DejaVuSans-116"/>
       <use x="945.308594" xlink:href="#DejaVuSans-101"/>
      </g>
      <!-- (step width=0.28±0.03μm) -->
      <g transform="translate(516.086875 270.536625)scale(0.14 -0.14)">
       <defs>
        <path d="M 19.1875 8.296875 
L 53.609375 8.296875 
L 53.609375 0 
L 7.328125 0 
L 7.328125 8.296875 
Q 12.9375 14.109375 22.625 23.890625 
Q 32.328125 33.6875 34.8125 36.53125 
Q 39.546875 41.84375 41.421875 45.53125 
Q 43.3125 49.21875 43.3125 52.78125 
Q 43.3125 58.59375 39.234375 62.25 
Q 35.15625 65.921875 28.609375 65.921875 
Q 23.96875 65.921875 18.8125 64.3125 
Q 13.671875 62.703125 7.8125 59.421875 
L 7.8125 69.390625 
Q 13.765625 71.78125 18.9375 73 
Q 24.125 74.21875 28.421875 74.21875 
Q 39.75 74.21875 46.484375 68.546875 
Q 53.21875 62.890625 53.21875 53.421875 
Q 53.21875 48.921875 51.53125 44.890625 
Q 49.859375 40.875 45.40625 35.40625 
Q 44.1875 33.984375 37.640625 27.21875 
Q 31.109375 20.453125 19.1875 8.296875 
z
" id="DejaVuSans-50"/>
        <path d="M 31.78125 34.625 
Q 24.75 34.625 20.71875 30.859375 
Q 16.703125 27.09375 16.703125 20.515625 
Q 16.703125 13.921875 20.71875 10.15625 
Q 24.75 6.390625 31.78125 6.390625 
Q 38.8125 6.390625 42.859375 10.171875 
Q 46.921875 13.96875 46.921875 20.515625 
Q 46.921875 27.09375 42.890625 30.859375 
Q 38.875 34.625 31.78125 34.625 
z
M 21.921875 38.8125 
Q 15.578125 40.375 12.03125 44.71875 
Q 8.5 49.078125 8.5 55.328125 
Q 8.5 64.0625 14.71875 69.140625 
Q 20.953125 74.21875 31.78125 74.21875 
Q 42.671875 74.21875 48.875 69.140625 
Q 55.078125 64.0625 55.078125 55.328125 
Q 55.078125 49.078125 51.53125 44.71875 
Q 48 40.375 41.703125 38.8125 
Q 48.828125 37.15625 52.796875 32.3125 
Q 56.78125 27.484375 56.78125 20.515625 
Q 56.78125 9.90625 50.3125 4.234375 
Q 43.84375 -1.421875 31.78125 -1.421875 
Q 19.734375 -1.421875 13.25 4.234375 
Q 6.78125 9.90625 6.78125 20.515625 
Q 6.78125 27.484375 10.78125 32.3125 
Q 14.796875 37.15625 21.921875 38.8125 
z
M 18.3125 54.390625 
Q 18.3125 48.734375 21.84375 45.5625 
Q 25.390625 42.390625 31.78125 42.390625 
Q 38.140625 42.390625 41.71875 45.5625 
Q 45.3125 48.734375 45.3125 54.390625 
Q 45.3125 60.0625 41.71875 63.234375 
Q 38.140625 66.40625 31.78125 66.40625 
Q 25.390625 66.40625 21.84375 63.234375 
Q 18.3125 60.0625 18.3125 54.390625 
z
" id="DejaVuSans-56"/>
       </defs>
       <use xlink:href="#DejaVuSans-40"/>
       <use x="39.013672" xlink:href="#DejaVuSans-115"/>
       <use x="91.113281" xlink:href="#DejaVuSans-116"/>
       <use x="130.322266" xlink:href="#DejaVuSans-101"/>
       <use x="191.845703" xlink:href="#DejaVuSans-112"/>
       <use x="255.322266" xlink:href="#DejaVuSans-32"/>
       <use x="287.109375" xlink:href="#DejaVuSans-119"/>
       <use x="368.896484" xlink:href="#DejaVuSans-105"/>
       <use x="396.679688" xlink:href="#DejaVuSans-100"/>
       <use x="460.15625" xlink:href="#DejaVuSans-116"/>
       <use x="499.365234" xlink:href="#DejaVuSans-104"/>
       <use x="562.744141" xlink:href="#DejaVuSans-61"/>
       <use x="646.533203" xlink:href="#DejaVuSans-48"/>
       <use x="710.15625" xlink:href="#DejaVuSans-46"/>
       <use x="741.943359" xlink:href="#DejaVuSans-50"/>
       <use x="805.566406" xlink:href="#DejaVuSans-56"/>
       <use x="869.189453" xlink:href="#DejaVuSans-177"/>
       <use x="952.978516" xlink:href="#DejaVuSans-48"/>
       <use x="1016.601562" xlink:href="#DejaVuSans-46"/>
       <use x="1048.388672" xlink:href="#DejaVuSans-48"/>
       <use x="1112.011719" xlink:href="#DejaVuSans-51"/>
       <use x="1175.634766" xlink:href="#DejaVuSans-956"/>
       <use x="1239.257812" xlink:href="#DejaVuSans-109"/>
       <use x="1336.669922" xlink:href="#DejaVuSans-41"/>
      </g>
     </g>
    </g>
   </g>
   <g id="matplotlib.axis_2">
    <g id="ytick_1">
     <g id="line2d_7">
      <defs>
       <path d="M 0 0 
L 3.5 0 
" id="m3a12410aef" style="stroke:#000000;stroke-width:0.8;"/>
      </defs>
      <g>
       <use style="stroke:#000000;stroke-width:0.8;" x="54.385" xlink:href="#m3a12410aef" y="208.167014"/>
      </g>
     </g>
     <g id="line2d_8">
      <defs>
       <path d="M 0 0 
L -3.5 0 
" id="m24b8bbb449" style="stroke:#000000;stroke-width:0.8;"/>
      </defs>
      <g>
       <use style="stroke:#000000;stroke-width:0.8;" x="723.985" xlink:href="#m24b8bbb449" y="208.167014"/>
      </g>
     </g>
     <g id="text_4">
      <!-- 0.0 -->
      <g transform="translate(28.620625 213.485921)scale(0.14 -0.14)">
       <use xlink:href="#DejaVuSans-48"/>
       <use x="63.623047" xlink:href="#DejaVuSans-46"/>
       <use x="95.410156" xlink:href="#DejaVuSans-48"/>
      </g>
     </g>
    </g>
    <g id="ytick_2">
     <g id="line2d_9">
      <g>
       <use style="stroke:#000000;stroke-width:0.8;" x="54.385" xlink:href="#m3a12410aef" y="150.040751"/>
      </g>
     </g>
     <g id="line2d_10">
      <g>
       <use style="stroke:#000000;stroke-width:0.8;" x="723.985" xlink:href="#m24b8bbb449" y="150.040751"/>
      </g>
     </g>
     <g id="text_5">
      <!-- 0.2 -->
      <g transform="translate(28.620625 155.359658)scale(0.14 -0.14)">
       <use xlink:href="#DejaVuSans-48"/>
       <use x="63.623047" xlink:href="#DejaVuSans-46"/>
       <use x="95.410156" xlink:href="#DejaVuSans-50"/>
      </g>
     </g>
    </g>
    <g id="ytick_3">
     <g id="line2d_11">
      <g>
       <use style="stroke:#000000;stroke-width:0.8;" x="54.385" xlink:href="#m3a12410aef" y="91.914488"/>
      </g>
     </g>
     <g id="line2d_12">
      <g>
       <use style="stroke:#000000;stroke-width:0.8;" x="723.985" xlink:href="#m24b8bbb449" y="91.914488"/>
      </g>
     </g>
     <g id="text_6">
      <!-- 0.4 -->
      <g transform="translate(28.620625 97.233395)scale(0.14 -0.14)">
       <use xlink:href="#DejaVuSans-48"/>
       <use x="63.623047" xlink:href="#DejaVuSans-46"/>
       <use x="95.410156" xlink:href="#DejaVuSans-52"/>
      </g>
     </g>
    </g>
    <g id="ytick_4">
     <g id="line2d_13">
      <g>
       <use style="stroke:#000000;stroke-width:0.8;" x="54.385" xlink:href="#m3a12410aef" y="33.788225"/>
      </g>
     </g>
     <g id="line2d_14">
      <g>
       <use style="stroke:#000000;stroke-width:0.8;" x="723.985" xlink:href="#m24b8bbb449" y="33.788225"/>
      </g>
     </g>
     <g id="text_7">
      <!-- 0.6 -->
      <g transform="translate(28.620625 39.107132)scale(0.14 -0.14)">
       <defs>
        <path d="M 33.015625 40.375 
Q 26.375 40.375 22.484375 35.828125 
Q 18.609375 31.296875 18.609375 23.390625 
Q 18.609375 15.53125 22.484375 10.953125 
Q 26.375 6.390625 33.015625 6.390625 
Q 39.65625 6.390625 43.53125 10.953125 
Q 47.40625 15.53125 47.40625 23.390625 
Q 47.40625 31.296875 43.53125 35.828125 
Q 39.65625 40.375 33.015625 40.375 
z
M 52.59375 71.296875 
L 52.59375 62.3125 
Q 48.875 64.0625 45.09375 64.984375 
Q 41.3125 65.921875 37.59375 65.921875 
Q 27.828125 65.921875 22.671875 59.328125 
Q 17.53125 52.734375 16.796875 39.40625 
Q 19.671875 43.65625 24.015625 45.921875 
Q 28.375 48.1875 33.59375 48.1875 
Q 44.578125 48.1875 50.953125 41.515625 
Q 57.328125 34.859375 57.328125 23.390625 
Q 57.328125 12.15625 50.6875 5.359375 
Q 44.046875 -1.421875 33.015625 -1.421875 
Q 20.359375 -1.421875 13.671875 8.265625 
Q 6.984375 17.96875 6.984375 36.375 
Q 6.984375 53.65625 15.1875 63.9375 
Q 23.390625 74.21875 37.203125 74.21875 
Q 40.921875 74.21875 44.703125 73.484375 
Q 48.484375 72.75 52.59375 71.296875 
z
" id="DejaVuSans-54"/>
       </defs>
       <use xlink:href="#DejaVuSans-48"/>
       <use x="63.623047" xlink:href="#DejaVuSans-46"/>
       <use x="95.410156" xlink:href="#DejaVuSans-54"/>
      </g>
     </g>
    </g>
    <g id="text_8">
     <!-- Diffusion Time Constant (s) -->
     <g transform="translate(20.877187 252.48375)rotate(-90)scale(0.18 -0.18)">
      <defs>
       <path d="M 19.671875 64.796875 
L 19.671875 8.109375 
L 31.59375 8.109375 
Q 46.6875 8.109375 53.6875 14.9375 
Q 60.6875 21.78125 60.6875 36.53125 
Q 60.6875 51.171875 53.6875 57.984375 
Q 46.6875 64.796875 31.59375 64.796875 
z
M 9.8125 72.90625 
L 30.078125 72.90625 
Q 51.265625 72.90625 61.171875 64.09375 
Q 71.09375 55.28125 71.09375 36.53125 
Q 71.09375 17.671875 61.125 8.828125 
Q 51.171875 0 30.078125 0 
L 9.8125 0 
z
" id="DejaVuSans-68"/>
       <path d="M 37.109375 75.984375 
L 37.109375 68.5 
L 28.515625 68.5 
Q 23.6875 68.5 21.796875 66.546875 
Q 19.921875 64.59375 19.921875 59.515625 
L 19.921875 54.6875 
L 34.71875 54.6875 
L 34.71875 47.703125 
L 19.921875 47.703125 
L 19.921875 0 
L 10.890625 0 
L 10.890625 47.703125 
L 2.296875 47.703125 
L 2.296875 54.6875 
L 10.890625 54.6875 
L 10.890625 58.5 
Q 10.890625 67.625 15.140625 71.796875 
Q 19.390625 75.984375 28.609375 75.984375 
z
" id="DejaVuSans-102"/>
       <path d="M 30.609375 48.390625 
Q 23.390625 48.390625 19.1875 42.75 
Q 14.984375 37.109375 14.984375 27.296875 
Q 14.984375 17.484375 19.15625 11.84375 
Q 23.34375 6.203125 30.609375 6.203125 
Q 37.796875 6.203125 41.984375 11.859375 
Q 46.1875 17.53125 46.1875 27.296875 
Q 46.1875 37.015625 41.984375 42.703125 
Q 37.796875 48.390625 30.609375 48.390625 
z
M 30.609375 56 
Q 42.328125 56 49.015625 48.375 
Q 55.71875 40.765625 55.71875 27.296875 
Q 55.71875 13.875 49.015625 6.21875 
Q 42.328125 -1.421875 30.609375 -1.421875 
Q 18.84375 -1.421875 12.171875 6.21875 
Q 5.515625 13.875 5.515625 27.296875 
Q 5.515625 40.765625 12.171875 48.375 
Q 18.84375 56 30.609375 56 
z
" id="DejaVuSans-111"/>
       <path d="M 64.40625 67.28125 
L 64.40625 56.890625 
Q 59.421875 61.53125 53.78125 63.8125 
Q 48.140625 66.109375 41.796875 66.109375 
Q 29.296875 66.109375 22.65625 58.46875 
Q 16.015625 50.828125 16.015625 36.375 
Q 16.015625 21.96875 22.65625 14.328125 
Q 29.296875 6.6875 41.796875 6.6875 
Q 48.140625 6.6875 53.78125 8.984375 
Q 59.421875 11.28125 64.40625 15.921875 
L 64.40625 5.609375 
Q 59.234375 2.09375 53.4375 0.328125 
Q 47.65625 -1.421875 41.21875 -1.421875 
Q 24.65625 -1.421875 15.125 8.703125 
Q 5.609375 18.84375 5.609375 36.375 
Q 5.609375 53.953125 15.125 64.078125 
Q 24.65625 74.21875 41.21875 74.21875 
Q 47.75 74.21875 53.53125 72.484375 
Q 59.328125 70.75 64.40625 67.28125 
z
" id="DejaVuSans-67"/>
      </defs>
      <use xlink:href="#DejaVuSans-68"/>
      <use x="77.001953" xlink:href="#DejaVuSans-105"/>
      <use x="104.785156" xlink:href="#DejaVuSans-102"/>
      <use x="139.990234" xlink:href="#DejaVuSans-102"/>
      <use x="175.195312" xlink:href="#DejaVuSans-117"/>
      <use x="238.574219" xlink:href="#DejaVuSans-115"/>
      <use x="290.673828" xlink:href="#DejaVuSans-105"/>
      <use x="318.457031" xlink:href="#DejaVuSans-111"/>
      <use x="379.638672" xlink:href="#DejaVuSans-110"/>
      <use x="443.017578" xlink:href="#DejaVuSans-32"/>
      <use x="474.804688" xlink:href="#DejaVuSans-84"/>
      <use x="532.763672" xlink:href="#DejaVuSans-105"/>
      <use x="560.546875" xlink:href="#DejaVuSans-109"/>
      <use x="657.958984" xlink:href="#DejaVuSans-101"/>
      <use x="719.482422" xlink:href="#DejaVuSans-32"/>
      <use x="751.269531" xlink:href="#DejaVuSans-67"/>
      <use x="821.09375" xlink:href="#DejaVuSans-111"/>
      <use x="882.275391" xlink:href="#DejaVuSans-110"/>
      <use x="945.654297" xlink:href="#DejaVuSans-115"/>
      <use x="997.753906" xlink:href="#DejaVuSans-116"/>
      <use x="1036.962891" xlink:href="#DejaVuSans-97"/>
      <use x="1098.242188" xlink:href="#DejaVuSans-110"/>
      <use x="1161.621094" xlink:href="#DejaVuSans-116"/>
      <use x="1200.830078" xlink:href="#DejaVuSans-32"/>
      <use x="1232.617188" xlink:href="#DejaVuSans-40"/>
      <use x="1271.630859" xlink:href="#DejaVuSans-115"/>
      <use x="1323.730469" xlink:href="#DejaVuSans-41"/>
     </g>
    </g>
   </g>
   <g id="line2d_15">
    <path clip-path="url(#p128c21761c)" d="M 165.985 205.260701 
L 165.985 80.783309 
" style="fill:none;stroke:#373737;stroke-linecap:square;stroke-width:0.8;"/>
   </g>
   <g id="line2d_16">
    <path clip-path="url(#p128c21761c)" d="M 165.985 157.26294 
L 165.985 121.798653 
" style="fill:none;stroke:#373737;stroke-linecap:square;stroke-width:2.4;"/>
   </g>
   <g id="line2d_17">
    <path clip-path="url(#p128c21761c)" d="M 389.185 205.260701 
L 389.185 95.838011 
" style="fill:none;stroke:#373737;stroke-linecap:square;stroke-width:0.8;"/>
   </g>
   <g id="line2d_18">
    <path clip-path="url(#p128c21761c)" d="M 389.185 188.026264 
L 389.185 149.982625 
" style="fill:none;stroke:#373737;stroke-linecap:square;stroke-width:2.4;"/>
   </g>
   <g id="line2d_19">
    <path clip-path="url(#p128c21761c)" d="M 612.385 200.116527 
L 612.385 125.308026 
" style="fill:none;stroke:#373737;stroke-linecap:square;stroke-width:0.8;"/>
   </g>
   <g id="line2d_20">
    <path clip-path="url(#p128c21761c)" d="M 612.385 173.719938 
L 612.385 154.305766 
" style="fill:none;stroke:#373737;stroke-linecap:square;stroke-width:2.4;"/>
   </g>
   <g id="patch_3">
    <path d="M 54.385 240.721875 
L 54.385 18.961875 
" style="fill:none;stroke:#000000;stroke-linecap:square;stroke-linejoin:miter;stroke-width:0.8;"/>
   </g>
   <g id="patch_4">
    <path d="M 723.985 240.721875 
L 723.985 18.961875 
" style="fill:none;stroke:#000000;stroke-linecap:square;stroke-linejoin:miter;stroke-width:0.8;"/>
   </g>
   <g id="patch_5">
    <path d="M 54.385 240.721875 
L 723.985 240.721875 
" style="fill:none;stroke:#000000;stroke-linecap:square;stroke-linejoin:miter;stroke-width:0.8;"/>
   </g>
   <g id="patch_6">
    <path d="M 54.385 18.961875 
L 723.985 18.961875 
" style="fill:none;stroke:#000000;stroke-linecap:square;stroke-linejoin:miter;stroke-width:0.8;"/>
   </g>
   <g id="PathCollection_1">
    <defs>
     <path d="M 0 0.8 
C 0.212162 0.8 0.415664 0.715707 0.565685 0.565685 
C 0.715707 0.415664 0.8 0.212162 0.8 0 
C 0.8 -0.212162 0.715707 -0.415664 0.565685 -0.565685 
C 0.415664 -0.715707 0.212162 -0.8 0 -0.8 
C -0.212162 -0.8 -0.415664 -0.715707 -0.565685 -0.565685 
C -0.715707 -0.415664 -0.8 -0.212162 -0.8 0 
C -0.8 0.212162 -0.715707 0.415664 -0.565685 0.565685 
C -0.415664 0.715707 -0.212162 0.8 0 0.8 
z
" id="mb0f065625f" style="stroke:#373737;"/>
    </defs>
    <g clip-path="url(#p128c21761c)">
     <use style="fill:#ffffff;stroke:#373737;" x="165.985" xlink:href="#mb0f065625f" y="143.225447"/>
    </g>
   </g>
   <g id="PathCollection_2">
    <g clip-path="url(#p128c21761c)">
     <use style="fill:#ffffff;stroke:#373737;" x="389.185" xlink:href="#mb0f065625f" y="167.885514"/>
    </g>
   </g>
   <g id="PathCollection_3">
    <g clip-path="url(#p128c21761c)">
     <use style="fill:#ffffff;stroke:#373737;" x="612.385" xlink:href="#mb0f065625f" y="164.179965"/>
    </g>
   </g>
   <g id="text_9">
    <!-- 0.2234 -->
    <g transform="translate(170.449 162.707917)scale(0.14 -0.14)">
     <defs>
      <path d="M 46 36.53125 
Q 46 50.203125 43.4375 55.78125 
Q 40.875 61.375 34.8125 61.375 
Q 28.765625 61.375 26.171875 55.78125 
Q 23.578125 50.203125 23.578125 36.53125 
Q 23.578125 22.703125 26.171875 17.03125 
Q 28.765625 11.375 34.8125 11.375 
Q 40.828125 11.375 43.40625 17.03125 
Q 46 22.703125 46 36.53125 
z
M 64.796875 36.375 
Q 64.796875 18.265625 56.984375 8.421875 
Q 49.171875 -1.421875 34.8125 -1.421875 
Q 20.40625 -1.421875 12.59375 8.421875 
Q 4.78125 18.265625 4.78125 36.375 
Q 4.78125 54.546875 12.59375 64.375 
Q 20.40625 74.21875 34.8125 74.21875 
Q 49.171875 74.21875 56.984375 64.375 
Q 64.796875 54.546875 64.796875 36.375 
z
" id="DejaVuSans-Bold-48"/>
      <path d="M 10.203125 18.890625 
L 27.78125 18.890625 
L 27.78125 0 
L 10.203125 0 
z
" id="DejaVuSans-Bold-46"/>
      <path d="M 28.8125 13.8125 
L 60.890625 13.8125 
L 60.890625 0 
L 7.90625 0 
L 7.90625 13.8125 
L 34.515625 37.3125 
Q 38.09375 40.53125 39.796875 43.609375 
Q 41.5 46.6875 41.5 50 
Q 41.5 55.125 38.0625 58.25 
Q 34.625 61.375 28.90625 61.375 
Q 24.515625 61.375 19.28125 59.5 
Q 14.0625 57.625 8.109375 53.90625 
L 8.109375 69.921875 
Q 14.453125 72.015625 20.65625 73.109375 
Q 26.859375 74.21875 32.8125 74.21875 
Q 45.90625 74.21875 53.15625 68.453125 
Q 60.40625 62.703125 60.40625 52.390625 
Q 60.40625 46.4375 57.328125 41.28125 
Q 54.25 36.140625 44.390625 27.484375 
z
" id="DejaVuSans-Bold-50"/>
      <path d="M 46.578125 39.3125 
Q 53.953125 37.40625 57.78125 32.6875 
Q 61.625 27.984375 61.625 20.703125 
Q 61.625 9.859375 53.3125 4.21875 
Q 45.015625 -1.421875 29.109375 -1.421875 
Q 23.484375 -1.421875 17.84375 -0.515625 
Q 12.203125 0.390625 6.6875 2.203125 
L 6.6875 16.703125 
Q 11.96875 14.0625 17.15625 12.71875 
Q 22.359375 11.375 27.390625 11.375 
Q 34.859375 11.375 38.84375 13.953125 
Q 42.828125 16.546875 42.828125 21.390625 
Q 42.828125 26.375 38.75 28.9375 
Q 34.671875 31.5 26.703125 31.5 
L 19.1875 31.5 
L 19.1875 43.609375 
L 27.09375 43.609375 
Q 34.1875 43.609375 37.640625 45.828125 
Q 41.109375 48.046875 41.109375 52.59375 
Q 41.109375 56.78125 37.734375 59.078125 
Q 34.375 61.375 28.21875 61.375 
Q 23.6875 61.375 19.046875 60.34375 
Q 14.40625 59.328125 9.8125 57.328125 
L 9.8125 71.09375 
Q 15.375 72.65625 20.84375 73.4375 
Q 26.3125 74.21875 31.59375 74.21875 
Q 45.796875 74.21875 52.84375 69.546875 
Q 59.90625 64.890625 59.90625 55.515625 
Q 59.90625 49.125 56.53125 45.046875 
Q 53.171875 40.96875 46.578125 39.3125 
z
" id="DejaVuSans-Bold-51"/>
      <path d="M 36.8125 57.421875 
L 16.21875 26.90625 
L 36.8125 26.90625 
z
M 33.6875 72.90625 
L 54.59375 72.90625 
L 54.59375 26.90625 
L 64.984375 26.90625 
L 64.984375 13.28125 
L 54.59375 13.28125 
L 54.59375 0 
L 36.8125 0 
L 36.8125 13.28125 
L 4.5 13.28125 
L 4.5 29.390625 
z
" id="DejaVuSans-Bold-52"/>
     </defs>
     <use xlink:href="#DejaVuSans-Bold-48"/>
     <use x="69.580078" xlink:href="#DejaVuSans-Bold-46"/>
     <use x="107.568359" xlink:href="#DejaVuSans-Bold-50"/>
     <use x="177.148438" xlink:href="#DejaVuSans-Bold-50"/>
     <use x="246.728516" xlink:href="#DejaVuSans-Bold-51"/>
     <use x="316.308594" xlink:href="#DejaVuSans-Bold-52"/>
    </g>
   </g>
   <g id="text_10">
    <!-- 0.1386 -->
    <g transform="translate(393.649 179.969964)scale(0.14 -0.14)">
     <defs>
      <path d="M 11.71875 12.984375 
L 28.328125 12.984375 
L 28.328125 60.109375 
L 11.28125 56.59375 
L 11.28125 69.390625 
L 28.21875 72.90625 
L 46.09375 72.90625 
L 46.09375 12.984375 
L 62.703125 12.984375 
L 62.703125 0 
L 11.71875 0 
z
" id="DejaVuSans-Bold-49"/>
      <path d="M 34.8125 32.625 
Q 29.546875 32.625 26.703125 29.734375 
Q 23.875 26.859375 23.875 21.484375 
Q 23.875 16.109375 26.703125 13.25 
Q 29.546875 10.40625 34.8125 10.40625 
Q 40.046875 10.40625 42.828125 13.25 
Q 45.609375 16.109375 45.609375 21.484375 
Q 45.609375 26.90625 42.828125 29.765625 
Q 40.046875 32.625 34.8125 32.625 
z
M 21.09375 38.8125 
Q 14.453125 40.828125 11.078125 44.96875 
Q 7.71875 49.125 7.71875 55.328125 
Q 7.71875 64.546875 14.59375 69.375 
Q 21.484375 74.21875 34.8125 74.21875 
Q 48.046875 74.21875 54.921875 69.40625 
Q 61.8125 64.59375 61.8125 55.328125 
Q 61.8125 49.125 58.421875 44.96875 
Q 55.03125 40.828125 48.390625 38.8125 
Q 55.8125 36.765625 59.59375 32.15625 
Q 63.375 27.546875 63.375 20.515625 
Q 63.375 9.671875 56.171875 4.125 
Q 48.96875 -1.421875 34.8125 -1.421875 
Q 20.609375 -1.421875 13.359375 4.125 
Q 6.109375 9.671875 6.109375 20.515625 
Q 6.109375 27.546875 9.890625 32.15625 
Q 13.671875 36.765625 21.09375 38.8125 
z
M 25.484375 53.421875 
Q 25.484375 49.078125 27.90625 46.734375 
Q 30.328125 44.390625 34.8125 44.390625 
Q 39.203125 44.390625 41.59375 46.734375 
Q 44 49.078125 44 53.421875 
Q 44 57.765625 41.59375 60.078125 
Q 39.203125 62.40625 34.8125 62.40625 
Q 30.328125 62.40625 27.90625 60.0625 
Q 25.484375 57.71875 25.484375 53.421875 
z
" id="DejaVuSans-Bold-56"/>
      <path d="M 36.1875 35.984375 
Q 31.25 35.984375 28.78125 32.78125 
Q 26.3125 29.59375 26.3125 23.1875 
Q 26.3125 16.796875 28.78125 13.59375 
Q 31.25 10.40625 36.1875 10.40625 
Q 41.15625 10.40625 43.625 13.59375 
Q 46.09375 16.796875 46.09375 23.1875 
Q 46.09375 29.59375 43.625 32.78125 
Q 41.15625 35.984375 36.1875 35.984375 
z
M 59.421875 71 
L 59.421875 57.515625 
Q 54.78125 59.71875 50.671875 60.765625 
Q 46.578125 61.8125 42.671875 61.8125 
Q 34.28125 61.8125 29.59375 57.140625 
Q 24.90625 52.484375 24.125 43.3125 
Q 27.34375 45.703125 31.09375 46.890625 
Q 34.859375 48.09375 39.3125 48.09375 
Q 50.484375 48.09375 57.34375 41.546875 
Q 64.203125 35.015625 64.203125 24.421875 
Q 64.203125 12.703125 56.53125 5.640625 
Q 48.875 -1.421875 35.984375 -1.421875 
Q 21.78125 -1.421875 13.984375 8.171875 
Q 6.203125 17.78125 6.203125 35.40625 
Q 6.203125 53.46875 15.3125 63.796875 
Q 24.421875 74.125 40.28125 74.125 
Q 45.3125 74.125 50.046875 73.34375 
Q 54.78125 72.5625 59.421875 71 
z
" id="DejaVuSans-Bold-54"/>
     </defs>
     <use xlink:href="#DejaVuSans-Bold-48"/>
     <use x="69.580078" xlink:href="#DejaVuSans-Bold-46"/>
     <use x="107.568359" xlink:href="#DejaVuSans-Bold-49"/>
     <use x="177.148438" xlink:href="#DejaVuSans-Bold-51"/>
     <use x="246.728516" xlink:href="#DejaVuSans-Bold-56"/>
     <use x="316.308594" xlink:href="#DejaVuSans-Bold-54"/>
    </g>
   </g>
   <g id="text_11">
    <!-- 0.1514 -->
    <g transform="translate(616.849 177.37608)scale(0.14 -0.14)">
     <defs>
      <path d="M 10.59375 72.90625 
L 57.328125 72.90625 
L 57.328125 59.078125 
L 25.59375 59.078125 
L 25.59375 47.796875 
Q 27.734375 48.390625 29.90625 48.703125 
Q 32.078125 49.03125 34.421875 49.03125 
Q 47.75 49.03125 55.171875 42.359375 
Q 62.59375 35.6875 62.59375 23.78125 
Q 62.59375 11.96875 54.515625 5.265625 
Q 46.4375 -1.421875 32.078125 -1.421875 
Q 25.875 -1.421875 19.796875 -0.21875 
Q 13.71875 0.984375 7.71875 3.421875 
L 7.71875 18.21875 
Q 13.671875 14.796875 19.015625 13.078125 
Q 24.359375 11.375 29.109375 11.375 
Q 35.9375 11.375 39.859375 14.71875 
Q 43.796875 18.0625 43.796875 23.78125 
Q 43.796875 29.546875 39.859375 32.859375 
Q 35.9375 36.1875 29.109375 36.1875 
Q 25.046875 36.1875 20.453125 35.125 
Q 15.875 34.078125 10.59375 31.890625 
z
" id="DejaVuSans-Bold-53"/>
     </defs>
     <use xlink:href="#DejaVuSans-Bold-48"/>
     <use x="69.580078" xlink:href="#DejaVuSans-Bold-46"/>
     <use x="107.568359" xlink:href="#DejaVuSans-Bold-49"/>
     <use x="177.148438" xlink:href="#DejaVuSans-Bold-53"/>
     <use x="246.728516" xlink:href="#DejaVuSans-Bold-49"/>
     <use x="316.308594" xlink:href="#DejaVuSans-Bold-52"/>
    </g>
   </g>
  </g>
 </g>
 <defs>
  <clipPath id="p128c21761c">
   <rect height="221.76" width="669.6" x="54.385" y="18.961875"/>
  </clipPath>
 </defs>
</svg>
