<?xml version="1.0" encoding="utf-8" standalone="no"?>
<!DOCTYPE svg PUBLIC "-//W3C//DTD SVG 1.1//EN"
  "http://www.w3.org/Graphics/SVG/1.1/DTD/svg11.dtd">
<svg xmlns:xlink="http://www.w3.org/1999/xlink" width="742.916562pt" height="268.886312pt" viewBox="0 0 742.916562 268.886312" xmlns="http://www.w3.org/2000/svg" version="1.1">
 <metadata>
  <rdf:RDF xmlns:dc="http://purl.org/dc/elements/1.1/" xmlns:cc="http://creativecommons.org/ns#" xmlns:rdf="http://www.w3.org/1999/02/22-rdf-syntax-ns#">
   <cc:Work>
    <dc:type rdf:resource="http://purl.org/dc/dcmitype/StillImage"/>
    <dc:date>2023-03-20T17:19:02.446733</dc:date>
    <dc:format>image/svg+xml</dc:format>
    <dc:creator>
     <cc:Agent>
      <dc:title>Matplotlib v3.5.2, https://matplotlib.org/</dc:title>
     </cc:Agent>
    </dc:creator>
   </cc:Work>
  </rdf:RDF>
 </metadata>
 <defs>
  <style type="text/css">*{stroke-linejoin: round; stroke-linecap: butt}</style>
 </defs>
 <g id="figure_1">
  <g id="patch_1">
   <path d="M 0 268.886312 
L 742.916562 268.886312 
L 742.916562 0 
L 0 0 
z
" style="fill: #ffffff"/>
  </g>
  <g id="axes_1">
   <g id="patch_2">
    <path d="M 66.116563 228.96 
L 735.716563 228.96 
L 735.716563 7.2 
L 66.116563 7.2 
z
" style="fill: #ffffff"/>
   </g>
   <g id="PolyCollection_1">
    <defs>
     <path id="m35b3269bdc" d="M 178.600579 -50.006312 
L 176.832546 -50.006312 
L 176.490489 -51.822612 
L 176.054742 -53.638912 
L 175.514988 -55.455212 
L 174.865208 -57.271512 
L 174.105425 -59.087812 
L 173.24309 -60.904112 
L 172.293812 -62.720411 
L 171.281125 -64.536711 
L 170.235134 -66.353011 
L 169.190021 -68.169311 
L 168.180605 -69.985611 
L 167.238376 -71.801911 
L 166.387546 -73.61821 
L 165.641763 -75.43451 
L 165.00206 -77.25081 
L 164.456479 -79.06711 
L 163.981512 -80.88341 
L 163.545235 -82.69971 
L 163.111688 -84.51601 
L 162.645858 -86.332309 
L 162.118487 -88.148609 
L 161.509999 -89.964909 
L 160.812976 -91.781209 
L 160.032898 -93.597509 
L 159.187153 -95.413809 
L 158.302621 -97.230108 
L 157.412329 -99.046408 
L 156.551781 -100.862708 
L 155.755547 -102.679008 
L 155.054535 -104.495308 
L 154.474212 -106.311608 
L 154.033775 -108.127907 
L 153.746136 -109.944207 
L 153.61843 -111.760507 
L 153.652774 -113.576807 
L 153.847011 -115.393107 
L 154.195314 -117.209407 
L 154.688613 -119.025707 
L 155.314911 -120.842006 
L 156.059602 -122.658306 
L 156.905889 -124.474606 
L 157.835344 -126.290906 
L 158.828615 -128.107206 
L 159.86619 -129.923506 
L 160.929124 -131.739805 
L 161.999619 -133.556105 
L 163.061402 -135.372405 
L 164.09989 -137.188705 
L 165.102178 -139.005005 
L 166.056935 -140.821305 
L 166.954297 -142.637604 
L 167.785835 -144.453904 
L 168.54464 -146.270204 
L 169.225527 -148.086504 
L 169.825324 -149.902804 
L 170.343183 -151.719104 
L 170.78082 -153.535404 
L 171.142629 -155.351703 
L 171.435593 -157.168003 
L 171.668962 -158.984303 
L 171.853696 -160.800603 
L 172.001704 -162.616903 
L 172.124959 -164.433203 
L 172.234565 -166.249502 
L 172.339906 -168.065802 
L 172.447965 -169.882102 
L 172.562929 -171.698402 
L 172.686114 -173.514702 
L 172.816233 -175.331002 
L 172.949957 -177.147302 
L 173.082697 -178.963601 
L 173.20949 -180.779901 
L 173.325873 -182.596201 
L 173.42863 -184.412501 
L 173.516341 -186.228801 
L 173.58968 -188.045101 
L 173.651455 -189.8614 
L 173.706396 -191.6777 
L 173.760742 -193.494 
L 173.821665 -195.3103 
L 173.89659 -197.1266 
L 173.992458 -198.9429 
L 174.115011 -200.759199 
L 174.268158 -202.575499 
L 174.453492 -204.391799 
L 174.67003 -206.208099 
L 174.91421 -208.024399 
L 175.180169 -209.840699 
L 175.46027 -211.656999 
L 175.745818 -213.473298 
L 176.027874 -215.289598 
L 176.298054 -217.105898 
L 176.549209 -218.922198 
L 176.775921 -220.738498 
L 176.974746 -222.554798 
L 177.144232 -224.371097 
L 177.284715 -226.187397 
L 177.397979 -228.003697 
L 177.486831 -229.819997 
L 177.946294 -229.819997 
L 177.946294 -229.819997 
L 178.035146 -228.003697 
L 178.14841 -226.187397 
L 178.288893 -224.371097 
L 178.458379 -222.554798 
L 178.657204 -220.738498 
L 178.883916 -218.922198 
L 179.135071 -217.105898 
L 179.405251 -215.289598 
L 179.687307 -213.473298 
L 179.972855 -211.656999 
L 180.252956 -209.840699 
L 180.518915 -208.024399 
L 180.763095 -206.208099 
L 180.979633 -204.391799 
L 181.164967 -202.575499 
L 181.318114 -200.759199 
L 181.440667 -198.9429 
L 181.536535 -197.1266 
L 181.61146 -195.3103 
L 181.672383 -193.494 
L 181.726729 -191.6777 
L 181.78167 -189.8614 
L 181.843445 -188.045101 
L 181.916784 -186.228801 
L 182.004495 -184.412501 
L 182.107252 -182.596201 
L 182.223635 -180.779901 
L 182.350428 -178.963601 
L 182.483168 -177.147302 
L 182.616892 -175.331002 
L 182.747011 -173.514702 
L 182.870196 -171.698402 
L 182.98516 -169.882102 
L 183.093219 -168.065802 
L 183.19856 -166.249502 
L 183.308166 -164.433203 
L 183.431421 -162.616903 
L 183.579429 -160.800603 
L 183.764163 -158.984303 
L 183.997532 -157.168003 
L 184.290496 -155.351703 
L 184.652305 -153.535404 
L 185.089942 -151.719104 
L 185.607801 -149.902804 
L 186.207598 -148.086504 
L 186.888485 -146.270204 
L 187.64729 -144.453904 
L 188.478828 -142.637604 
L 189.37619 -140.821305 
L 190.330947 -139.005005 
L 191.333235 -137.188705 
L 192.371723 -135.372405 
L 193.433506 -133.556105 
L 194.504001 -131.739805 
L 195.566935 -129.923506 
L 196.60451 -128.107206 
L 197.597781 -126.290906 
L 198.527236 -124.474606 
L 199.373523 -122.658306 
L 200.118214 -120.842006 
L 200.744512 -119.025707 
L 201.237811 -117.209407 
L 201.586114 -115.393107 
L 201.780351 -113.576807 
L 201.814695 -111.760507 
L 201.686989 -109.944207 
L 201.39935 -108.127907 
L 200.958913 -106.311608 
L 200.37859 -104.495308 
L 199.677578 -102.679008 
L 198.881344 -100.862708 
L 198.020796 -99.046408 
L 197.130504 -97.230108 
L 196.245972 -95.413809 
L 195.400227 -93.597509 
L 194.620149 -91.781209 
L 193.923126 -89.964909 
L 193.314638 -88.148609 
L 192.787267 -86.332309 
L 192.321437 -84.51601 
L 191.88789 -82.69971 
L 191.451613 -80.88341 
L 190.976646 -79.06711 
L 190.431065 -77.25081 
L 189.791362 -75.43451 
L 189.045579 -73.61821 
L 188.194749 -71.801911 
L 187.25252 -69.985611 
L 186.243104 -68.169311 
L 185.197991 -66.353011 
L 184.152 -64.536711 
L 183.139313 -62.720411 
L 182.190035 -60.904112 
L 181.3277 -59.087812 
L 180.567917 -57.271512 
L 179.918137 -55.455212 
L 179.378383 -53.638912 
L 178.942636 -51.822612 
L 178.600579 -50.006312 
z
" style="stroke: #373737; stroke-width: 0.8"/>
    </defs>
    <g clip-path="url(#p92ce76bc0f)">
     <use xlink:href="#m35b3269bdc" x="0" y="268.886312" style="fill: #2b8e70; stroke: #373737; stroke-width: 0.8"/>
    </g>
   </g>
   <g id="PolyCollection_2">
    <defs>
     <path id="m6cb2c3e1d0" d="M 402.167152 -50.452283 
L 399.665973 -50.452283 
L 399.074219 -52.484142 
L 398.279185 -54.516001 
L 397.246515 -56.54786 
L 395.950164 -58.579719 
L 394.378035 -60.611578 
L 392.537155 -62.643437 
L 390.457329 -64.675295 
L 388.192265 -66.707154 
L 385.817522 -68.739013 
L 383.425151 -70.770872 
L 381.115588 -72.802731 
L 378.987918 -74.83459 
L 377.130053 -76.866449 
L 375.610399 -78.898308 
L 374.47233 -80.930166 
L 373.732188 -82.962025 
L 373.38087 -84.993884 
L 373.388353 -87.025743 
L 373.710071 -89.057602 
L 374.293824 -91.089461 
L 375.085994 -93.12132 
L 376.036147 -95.153179 
L 377.09962 -97.185037 
L 378.238132 -99.216896 
L 379.418943 -101.248755 
L 380.613297 -103.280614 
L 381.794961 -105.312473 
L 382.939485 -107.344332 
L 384.024481 -109.376191 
L 385.030845 -111.40805 
L 385.944481 -113.439909 
L 386.757895 -115.471767 
L 387.471071 -117.503626 
L 388.091172 -119.535485 
L 388.631018 -121.567344 
L 389.106587 -123.599203 
L 389.5341 -125.631062 
L 389.927342 -127.662921 
L 390.295819 -129.69478 
L 390.644095 -131.726638 
L 390.972391 -133.758497 
L 391.27815 -135.790356 
L 391.558116 -137.822215 
L 391.810348 -139.854074 
L 392.035667 -141.885933 
L 392.23823 -143.917792 
L 392.425166 -145.949651 
L 392.605449 -147.98151 
L 392.788381 -150.013368 
L 392.982101 -152.045227 
L 393.192496 -154.077086 
L 393.422736 -156.108945 
L 393.673468 -158.140804 
L 393.943529 -160.172663 
L 394.230909 -162.204522 
L 394.533651 -164.236381 
L 394.850457 -166.268239 
L 395.180825 -168.300098 
L 395.524736 -170.331957 
L 395.882001 -172.363816 
L 396.251477 -174.395675 
L 396.630409 -176.427534 
L 397.014091 -178.459393 
L 397.395992 -180.491252 
L 397.768343 -182.523111 
L 398.123089 -184.554969 
L 398.453 -186.586828 
L 398.752684 -188.618687 
L 399.019279 -190.650546 
L 399.25266 -192.682405 
L 399.455131 -194.714264 
L 399.630688 -196.746123 
L 399.784037 -198.777982 
L 399.919606 -200.80984 
L 400.040768 -202.841699 
L 400.14943 -204.873558 
L 400.246034 -206.905417 
L 400.329924 -208.937276 
L 400.399949 -210.969135 
L 400.455137 -213.000994 
L 400.495281 -215.032853 
L 400.521311 -217.064712 
L 400.535391 -219.09657 
L 400.540744 -221.128429 
L 400.541256 -223.160288 
L 400.540951 -225.192147 
L 400.543451 -227.224006 
L 400.551515 -229.255865 
L 400.566746 -231.287724 
L 400.589492 -233.319583 
L 400.618953 -235.351441 
L 400.653452 -237.3833 
L 400.690798 -239.415159 
L 400.728668 -241.447018 
L 400.764954 -243.478877 
L 400.797992 -245.510736 
L 400.826696 -247.542595 
L 400.850563 -249.574454 
L 400.869596 -251.606313 
L 400.963529 -251.606313 
L 400.963529 -251.606313 
L 400.982562 -249.574454 
L 401.006429 -247.542595 
L 401.035133 -245.510736 
L 401.068171 -243.478877 
L 401.104457 -241.447018 
L 401.142327 -239.415159 
L 401.179673 -237.3833 
L 401.214172 -235.351441 
L 401.243633 -233.319583 
L 401.266379 -231.287724 
L 401.28161 -229.255865 
L 401.289674 -227.224006 
L 401.292174 -225.192147 
L 401.291869 -223.160288 
L 401.292381 -221.128429 
L 401.297734 -219.09657 
L 401.311814 -217.064712 
L 401.337844 -215.032853 
L 401.377988 -213.000994 
L 401.433176 -210.969135 
L 401.503201 -208.937276 
L 401.587091 -206.905417 
L 401.683695 -204.873558 
L 401.792357 -202.841699 
L 401.913519 -200.80984 
L 402.049088 -198.777982 
L 402.202437 -196.746123 
L 402.377994 -194.714264 
L 402.580465 -192.682405 
L 402.813846 -190.650546 
L 403.080441 -188.618687 
L 403.380125 -186.586828 
L 403.710036 -184.554969 
L 404.064782 -182.523111 
L 404.437133 -180.491252 
L 404.819034 -178.459393 
L 405.202716 -176.427534 
L 405.581648 -174.395675 
L 405.951124 -172.363816 
L 406.308389 -170.331957 
L 406.6523 -168.300098 
L 406.982668 -166.268239 
L 407.299474 -164.236381 
L 407.602216 -162.204522 
L 407.889596 -160.172663 
L 408.159657 -158.140804 
L 408.410389 -156.108945 
L 408.640629 -154.077086 
L 408.851024 -152.045227 
L 409.044744 -150.013368 
L 409.227676 -147.98151 
L 409.407959 -145.949651 
L 409.594895 -143.917792 
L 409.797458 -141.885933 
L 410.022777 -139.854074 
L 410.275009 -137.822215 
L 410.554975 -135.790356 
L 410.860734 -133.758497 
L 411.18903 -131.726638 
L 411.537306 -129.69478 
L 411.905783 -127.662921 
L 412.299025 -125.631062 
L 412.726538 -123.599203 
L 413.202107 -121.567344 
L 413.741953 -119.535485 
L 414.362054 -117.503626 
L 415.07523 -115.471767 
L 415.888644 -113.439909 
L 416.80228 -111.40805 
L 417.808644 -109.376191 
L 418.89364 -107.344332 
L 420.038164 -105.312473 
L 421.219828 -103.280614 
L 422.414182 -101.248755 
L 423.594993 -99.216896 
L 424.733505 -97.185037 
L 425.796978 -95.153179 
L 426.747131 -93.12132 
L 427.539301 -91.089461 
L 428.123054 -89.057602 
L 428.444772 -87.025743 
L 428.452255 -84.993884 
L 428.100937 -82.962025 
L 427.360795 -80.930166 
L 426.222726 -78.898308 
L 424.703072 -76.866449 
L 422.845207 -74.83459 
L 420.717537 -72.802731 
L 418.407974 -70.770872 
L 416.015603 -68.739013 
L 413.64086 -66.707154 
L 411.375796 -64.675295 
L 409.29597 -62.643437 
L 407.45509 -60.611578 
L 405.882961 -58.579719 
L 404.58661 -56.54786 
L 403.55394 -54.516001 
L 402.758906 -52.484142 
L 402.167152 -50.452283 
z
" style="stroke: #373737; stroke-width: 0.8"/>
    </defs>
    <g clip-path="url(#p92ce76bc0f)">
     <use xlink:href="#m6cb2c3e1d0" x="0" y="268.886312" style="fill: #be631d; stroke: #373737; stroke-width: 0.8"/>
    </g>
   </g>
   <g id="PolyCollection_3">
    <defs>
     <path id="m80eac97db7" d="M 625.264445 -63.869397 
L 622.96868 -63.869397 
L 622.426767 -64.677473 
L 621.69193 -65.485549 
L 620.723923 -66.293624 
L 619.484695 -67.1017 
L 617.942131 -67.909776 
L 616.073617 -68.717852 
L 613.8687 -69.525928 
L 611.330097 -70.334003 
L 608.472551 -71.142079 
L 605.319446 -71.950155 
L 601.897663 -72.758231 
L 598.231723 -73.566307 
L 594.338656 -74.374382 
L 590.225157 -75.182458 
L 585.888303 -75.990534 
L 581.320448 -76.79861 
L 576.518014 -77.606686 
L 571.492909 -78.414761 
L 566.284517 -79.222837 
L 560.969774 -80.030913 
L 555.668898 -80.838989 
L 550.544933 -81.647065 
L 545.796232 -82.45514 
L 541.642234 -83.263216 
L 538.304072 -84.071292 
L 535.98255 -84.879368 
L 534.836563 -85.687444 
L 534.965086 -86.495519 
L 536.395371 -87.303595 
L 539.079028 -88.111671 
L 542.896499 -88.919747 
L 547.669102 -89.727823 
L 553.176786 -90.535898 
L 559.178916 -91.343974 
L 565.435203 -92.15205 
L 571.724075 -92.960126 
L 577.856488 -93.768202 
L 583.684071 -94.576277 
L 589.101554 -95.384353 
L 594.044288 -96.192429 
L 598.482275 -97.000505 
L 602.412413 -97.808581 
L 605.850502 -98.616656 
L 608.824246 -99.424732 
L 611.367893 -100.232808 
L 613.518703 -101.040884 
L 615.314957 -101.84896 
L 616.795021 -102.657035 
L 617.9969 -103.465111 
L 618.957853 -104.273187 
L 619.713787 -105.081263 
L 620.298409 -105.889339 
L 620.742256 -106.697414 
L 621.071819 -107.50549 
L 621.309 -108.313566 
L 621.471049 -109.121642 
L 621.571008 -109.929718 
L 621.618571 -110.737793 
L 621.621168 -111.545869 
L 621.585025 -112.353945 
L 621.516007 -113.162021 
L 621.420092 -113.970097 
L 621.303452 -114.778172 
L 621.172204 -115.586248 
L 621.031965 -116.394324 
L 620.887374 -117.2024 
L 620.741704 -118.010476 
L 620.596666 -118.818551 
L 620.452423 -119.626627 
L 620.30781 -120.434703 
L 620.160705 -121.242779 
L 620.008522 -122.050855 
L 619.848779 -122.85893 
L 619.679731 -123.667006 
L 619.501033 -124.475082 
L 619.314391 -125.283158 
L 619.124138 -126.091234 
L 618.937609 -126.899309 
L 618.765193 -127.707385 
L 618.619939 -128.515461 
L 618.516644 -129.323537 
L 618.470441 -130.131613 
L 618.495038 -130.939688 
L 618.600822 -131.747764 
L 618.793169 -132.55584 
L 619.071264 -133.363916 
L 619.427684 -134.171992 
L 619.848871 -134.980067 
L 620.31644 -135.788143 
L 620.809111 -136.596219 
L 621.304967 -137.404295 
L 621.783635 -138.212371 
L 622.228103 -139.020446 
L 622.625904 -139.828522 
L 622.969603 -140.636598 
L 623.256604 -141.444674 
L 623.488437 -142.25275 
L 623.669725 -143.060825 
L 623.807038 -143.868901 
L 624.426087 -143.868901 
L 624.426087 -143.868901 
L 624.5634 -143.060825 
L 624.744688 -142.25275 
L 624.976521 -141.444674 
L 625.263522 -140.636598 
L 625.607221 -139.828522 
L 626.005022 -139.020446 
L 626.44949 -138.212371 
L 626.928158 -137.404295 
L 627.424014 -136.596219 
L 627.916685 -135.788143 
L 628.384254 -134.980067 
L 628.805441 -134.171992 
L 629.161861 -133.363916 
L 629.439956 -132.55584 
L 629.632303 -131.747764 
L 629.738087 -130.939688 
L 629.762684 -130.131613 
L 629.716481 -129.323537 
L 629.613186 -128.515461 
L 629.467932 -127.707385 
L 629.295516 -126.899309 
L 629.108987 -126.091234 
L 628.918734 -125.283158 
L 628.732092 -124.475082 
L 628.553394 -123.667006 
L 628.384346 -122.85893 
L 628.224603 -122.050855 
L 628.07242 -121.242779 
L 627.925315 -120.434703 
L 627.780702 -119.626627 
L 627.636459 -118.818551 
L 627.491421 -118.010476 
L 627.345751 -117.2024 
L 627.20116 -116.394324 
L 627.060921 -115.586248 
L 626.929673 -114.778172 
L 626.813033 -113.970097 
L 626.717118 -113.162021 
L 626.6481 -112.353945 
L 626.611957 -111.545869 
L 626.614554 -110.737793 
L 626.662117 -109.929718 
L 626.762076 -109.121642 
L 626.924125 -108.313566 
L 627.161306 -107.50549 
L 627.490869 -106.697414 
L 627.934716 -105.889339 
L 628.519338 -105.081263 
L 629.275272 -104.273187 
L 630.236225 -103.465111 
L 631.438104 -102.657035 
L 632.918168 -101.84896 
L 634.714422 -101.040884 
L 636.865232 -100.232808 
L 639.408879 -99.424732 
L 642.382623 -98.616656 
L 645.820712 -97.808581 
L 649.75085 -97.000505 
L 654.188837 -96.192429 
L 659.131571 -95.384353 
L 664.549054 -94.576277 
L 670.376637 -93.768202 
L 676.50905 -92.960126 
L 682.797922 -92.15205 
L 689.054209 -91.343974 
L 695.056339 -90.535898 
L 700.564023 -89.727823 
L 705.336626 -88.919747 
L 709.154097 -88.111671 
L 711.837754 -87.303595 
L 713.268039 -86.495519 
L 713.396562 -85.687444 
L 712.250575 -84.879368 
L 709.929053 -84.071292 
L 706.590891 -83.263216 
L 702.436893 -82.45514 
L 697.688192 -81.647065 
L 692.564227 -80.838989 
L 687.263351 -80.030913 
L 681.948608 -79.222837 
L 676.740216 -78.414761 
L 671.715111 -77.606686 
L 666.912677 -76.79861 
L 662.344822 -75.990534 
L 658.007968 -75.182458 
L 653.894469 -74.374382 
L 650.001402 -73.566307 
L 646.335462 -72.758231 
L 642.913679 -71.950155 
L 639.760574 -71.142079 
L 636.903028 -70.334003 
L 634.364425 -69.525928 
L 632.159508 -68.717852 
L 630.290994 -67.909776 
L 628.74843 -67.1017 
L 627.509202 -66.293624 
L 626.541195 -65.485549 
L 625.806358 -64.677473 
L 625.264445 -63.869397 
z
" style="stroke: #373737; stroke-width: 0.8"/>
    </defs>
    <g clip-path="url(#p92ce76bc0f)">
     <use xlink:href="#m80eac97db7" x="0" y="268.886312" style="fill: #7c78ab; stroke: #373737; stroke-width: 0.8"/>
    </g>
   </g>
   <g id="matplotlib.axis_1">
    <g id="xtick_1">
     <g id="line2d_1">
      <defs>
       <path id="m5dded475bc" d="M 0 0 
L 0 -3.5 
" style="stroke: #000000; stroke-width: 0.8"/>
      </defs>
      <g>
       <use xlink:href="#m5dded475bc" x="177.716563" y="228.96" style="stroke: #000000; stroke-width: 0.8"/>
      </g>
     </g>
     <g id="line2d_2">
      <defs>
       <path id="m2442dd9bf3" d="M 0 0 
L 0 3.5 
" style="stroke: #000000; stroke-width: 0.8"/>
      </defs>
      <g>
       <use xlink:href="#m2442dd9bf3" x="177.716563" y="7.2" style="stroke: #000000; stroke-width: 0.8"/>
      </g>
     </g>
     <g id="text_1">
      <!-- Treated substrate -->
      <g transform="translate(116.300313 243.097812)scale(0.14 -0.14)">
       <defs>
        <path id="DejaVuSans-54" d="M -19 4666 
L 3928 4666 
L 3928 4134 
L 2272 4134 
L 2272 0 
L 1638 0 
L 1638 4134 
L -19 4134 
L -19 4666 
z
" transform="scale(0.015625)"/>
        <path id="DejaVuSans-72" d="M 2631 2963 
Q 2534 3019 2420 3045 
Q 2306 3072 2169 3072 
Q 1681 3072 1420 2755 
Q 1159 2438 1159 1844 
L 1159 0 
L 581 0 
L 581 3500 
L 1159 3500 
L 1159 2956 
Q 1341 3275 1631 3429 
Q 1922 3584 2338 3584 
Q 2397 3584 2469 3576 
Q 2541 3569 2628 3553 
L 2631 2963 
z
" transform="scale(0.015625)"/>
        <path id="DejaVuSans-65" d="M 3597 1894 
L 3597 1613 
L 953 1613 
Q 991 1019 1311 708 
Q 1631 397 2203 397 
Q 2534 397 2845 478 
Q 3156 559 3463 722 
L 3463 178 
Q 3153 47 2828 -22 
Q 2503 -91 2169 -91 
Q 1331 -91 842 396 
Q 353 884 353 1716 
Q 353 2575 817 3079 
Q 1281 3584 2069 3584 
Q 2775 3584 3186 3129 
Q 3597 2675 3597 1894 
z
M 3022 2063 
Q 3016 2534 2758 2815 
Q 2500 3097 2075 3097 
Q 1594 3097 1305 2825 
Q 1016 2553 972 2059 
L 3022 2063 
z
" transform="scale(0.015625)"/>
        <path id="DejaVuSans-61" d="M 2194 1759 
Q 1497 1759 1228 1600 
Q 959 1441 959 1056 
Q 959 750 1161 570 
Q 1363 391 1709 391 
Q 2188 391 2477 730 
Q 2766 1069 2766 1631 
L 2766 1759 
L 2194 1759 
z
M 3341 1997 
L 3341 0 
L 2766 0 
L 2766 531 
Q 2569 213 2275 61 
Q 1981 -91 1556 -91 
Q 1019 -91 701 211 
Q 384 513 384 1019 
Q 384 1609 779 1909 
Q 1175 2209 1959 2209 
L 2766 2209 
L 2766 2266 
Q 2766 2663 2505 2880 
Q 2244 3097 1772 3097 
Q 1472 3097 1187 3025 
Q 903 2953 641 2809 
L 641 3341 
Q 956 3463 1253 3523 
Q 1550 3584 1831 3584 
Q 2591 3584 2966 3190 
Q 3341 2797 3341 1997 
z
" transform="scale(0.015625)"/>
        <path id="DejaVuSans-74" d="M 1172 4494 
L 1172 3500 
L 2356 3500 
L 2356 3053 
L 1172 3053 
L 1172 1153 
Q 1172 725 1289 603 
Q 1406 481 1766 481 
L 2356 481 
L 2356 0 
L 1766 0 
Q 1100 0 847 248 
Q 594 497 594 1153 
L 594 3053 
L 172 3053 
L 172 3500 
L 594 3500 
L 594 4494 
L 1172 4494 
z
" transform="scale(0.015625)"/>
        <path id="DejaVuSans-64" d="M 2906 2969 
L 2906 4863 
L 3481 4863 
L 3481 0 
L 2906 0 
L 2906 525 
Q 2725 213 2448 61 
Q 2172 -91 1784 -91 
Q 1150 -91 751 415 
Q 353 922 353 1747 
Q 353 2572 751 3078 
Q 1150 3584 1784 3584 
Q 2172 3584 2448 3432 
Q 2725 3281 2906 2969 
z
M 947 1747 
Q 947 1113 1208 752 
Q 1469 391 1925 391 
Q 2381 391 2643 752 
Q 2906 1113 2906 1747 
Q 2906 2381 2643 2742 
Q 2381 3103 1925 3103 
Q 1469 3103 1208 2742 
Q 947 2381 947 1747 
z
" transform="scale(0.015625)"/>
        <path id="DejaVuSans-20" transform="scale(0.015625)"/>
        <path id="DejaVuSans-73" d="M 2834 3397 
L 2834 2853 
Q 2591 2978 2328 3040 
Q 2066 3103 1784 3103 
Q 1356 3103 1142 2972 
Q 928 2841 928 2578 
Q 928 2378 1081 2264 
Q 1234 2150 1697 2047 
L 1894 2003 
Q 2506 1872 2764 1633 
Q 3022 1394 3022 966 
Q 3022 478 2636 193 
Q 2250 -91 1575 -91 
Q 1294 -91 989 -36 
Q 684 19 347 128 
L 347 722 
Q 666 556 975 473 
Q 1284 391 1588 391 
Q 1994 391 2212 530 
Q 2431 669 2431 922 
Q 2431 1156 2273 1281 
Q 2116 1406 1581 1522 
L 1381 1569 
Q 847 1681 609 1914 
Q 372 2147 372 2553 
Q 372 3047 722 3315 
Q 1072 3584 1716 3584 
Q 2034 3584 2315 3537 
Q 2597 3491 2834 3397 
z
" transform="scale(0.015625)"/>
        <path id="DejaVuSans-75" d="M 544 1381 
L 544 3500 
L 1119 3500 
L 1119 1403 
Q 1119 906 1312 657 
Q 1506 409 1894 409 
Q 2359 409 2629 706 
Q 2900 1003 2900 1516 
L 2900 3500 
L 3475 3500 
L 3475 0 
L 2900 0 
L 2900 538 
Q 2691 219 2414 64 
Q 2138 -91 1772 -91 
Q 1169 -91 856 284 
Q 544 659 544 1381 
z
M 1991 3584 
L 1991 3584 
z
" transform="scale(0.015625)"/>
        <path id="DejaVuSans-62" d="M 3116 1747 
Q 3116 2381 2855 2742 
Q 2594 3103 2138 3103 
Q 1681 3103 1420 2742 
Q 1159 2381 1159 1747 
Q 1159 1113 1420 752 
Q 1681 391 2138 391 
Q 2594 391 2855 752 
Q 3116 1113 3116 1747 
z
M 1159 2969 
Q 1341 3281 1617 3432 
Q 1894 3584 2278 3584 
Q 2916 3584 3314 3078 
Q 3713 2572 3713 1747 
Q 3713 922 3314 415 
Q 2916 -91 2278 -91 
Q 1894 -91 1617 61 
Q 1341 213 1159 525 
L 1159 0 
L 581 0 
L 581 4863 
L 1159 4863 
L 1159 2969 
z
" transform="scale(0.015625)"/>
       </defs>
       <use xlink:href="#DejaVuSans-54"/>
       <use xlink:href="#DejaVuSans-72" x="46.333984"/>
       <use xlink:href="#DejaVuSans-65" x="85.197266"/>
       <use xlink:href="#DejaVuSans-61" x="146.720703"/>
       <use xlink:href="#DejaVuSans-74" x="208"/>
       <use xlink:href="#DejaVuSans-65" x="247.208984"/>
       <use xlink:href="#DejaVuSans-64" x="308.732422"/>
       <use xlink:href="#DejaVuSans-20" x="372.208984"/>
       <use xlink:href="#DejaVuSans-73" x="403.996094"/>
       <use xlink:href="#DejaVuSans-75" x="456.095703"/>
       <use xlink:href="#DejaVuSans-62" x="519.474609"/>
       <use xlink:href="#DejaVuSans-73" x="582.951172"/>
       <use xlink:href="#DejaVuSans-74" x="635.050781"/>
       <use xlink:href="#DejaVuSans-72" x="674.259766"/>
       <use xlink:href="#DejaVuSans-61" x="715.373047"/>
       <use xlink:href="#DejaVuSans-74" x="776.652344"/>
       <use xlink:href="#DejaVuSans-65" x="815.861328"/>
      </g>
      <!-- (step width=0.43±0.04μm) -->
      <g transform="translate(81.418437 258.77475)scale(0.14 -0.14)">
       <defs>
        <path id="DejaVuSans-28" d="M 1984 4856 
Q 1566 4138 1362 3434 
Q 1159 2731 1159 2009 
Q 1159 1288 1364 580 
Q 1569 -128 1984 -844 
L 1484 -844 
Q 1016 -109 783 600 
Q 550 1309 550 2009 
Q 550 2706 781 3412 
Q 1013 4119 1484 4856 
L 1984 4856 
z
" transform="scale(0.015625)"/>
        <path id="DejaVuSans-70" d="M 1159 525 
L 1159 -1331 
L 581 -1331 
L 581 3500 
L 1159 3500 
L 1159 2969 
Q 1341 3281 1617 3432 
Q 1894 3584 2278 3584 
Q 2916 3584 3314 3078 
Q 3713 2572 3713 1747 
Q 3713 922 3314 415 
Q 2916 -91 2278 -91 
Q 1894 -91 1617 61 
Q 1341 213 1159 525 
z
M 3116 1747 
Q 3116 2381 2855 2742 
Q 2594 3103 2138 3103 
Q 1681 3103 1420 2742 
Q 1159 2381 1159 1747 
Q 1159 1113 1420 752 
Q 1681 391 2138 391 
Q 2594 391 2855 752 
Q 3116 1113 3116 1747 
z
" transform="scale(0.015625)"/>
        <path id="DejaVuSans-77" d="M 269 3500 
L 844 3500 
L 1563 769 
L 2278 3500 
L 2956 3500 
L 3675 769 
L 4391 3500 
L 4966 3500 
L 4050 0 
L 3372 0 
L 2619 2869 
L 1863 0 
L 1184 0 
L 269 3500 
z
" transform="scale(0.015625)"/>
        <path id="DejaVuSans-69" d="M 603 3500 
L 1178 3500 
L 1178 0 
L 603 0 
L 603 3500 
z
M 603 4863 
L 1178 4863 
L 1178 4134 
L 603 4134 
L 603 4863 
z
" transform="scale(0.015625)"/>
        <path id="DejaVuSans-68" d="M 3513 2113 
L 3513 0 
L 2938 0 
L 2938 2094 
Q 2938 2591 2744 2837 
Q 2550 3084 2163 3084 
Q 1697 3084 1428 2787 
Q 1159 2491 1159 1978 
L 1159 0 
L 581 0 
L 581 4863 
L 1159 4863 
L 1159 2956 
Q 1366 3272 1645 3428 
Q 1925 3584 2291 3584 
Q 2894 3584 3203 3211 
Q 3513 2838 3513 2113 
z
" transform="scale(0.015625)"/>
        <path id="DejaVuSans-3d" d="M 678 2906 
L 4684 2906 
L 4684 2381 
L 678 2381 
L 678 2906 
z
M 678 1631 
L 4684 1631 
L 4684 1100 
L 678 1100 
L 678 1631 
z
" transform="scale(0.015625)"/>
        <path id="DejaVuSans-30" d="M 2034 4250 
Q 1547 4250 1301 3770 
Q 1056 3291 1056 2328 
Q 1056 1369 1301 889 
Q 1547 409 2034 409 
Q 2525 409 2770 889 
Q 3016 1369 3016 2328 
Q 3016 3291 2770 3770 
Q 2525 4250 2034 4250 
z
M 2034 4750 
Q 2819 4750 3233 4129 
Q 3647 3509 3647 2328 
Q 3647 1150 3233 529 
Q 2819 -91 2034 -91 
Q 1250 -91 836 529 
Q 422 1150 422 2328 
Q 422 3509 836 4129 
Q 1250 4750 2034 4750 
z
" transform="scale(0.015625)"/>
        <path id="DejaVuSans-2e" d="M 684 794 
L 1344 794 
L 1344 0 
L 684 0 
L 684 794 
z
" transform="scale(0.015625)"/>
        <path id="DejaVuSans-34" d="M 2419 4116 
L 825 1625 
L 2419 1625 
L 2419 4116 
z
M 2253 4666 
L 3047 4666 
L 3047 1625 
L 3713 1625 
L 3713 1100 
L 3047 1100 
L 3047 0 
L 2419 0 
L 2419 1100 
L 313 1100 
L 313 1709 
L 2253 4666 
z
" transform="scale(0.015625)"/>
        <path id="DejaVuSans-33" d="M 2597 2516 
Q 3050 2419 3304 2112 
Q 3559 1806 3559 1356 
Q 3559 666 3084 287 
Q 2609 -91 1734 -91 
Q 1441 -91 1130 -33 
Q 819 25 488 141 
L 488 750 
Q 750 597 1062 519 
Q 1375 441 1716 441 
Q 2309 441 2620 675 
Q 2931 909 2931 1356 
Q 2931 1769 2642 2001 
Q 2353 2234 1838 2234 
L 1294 2234 
L 1294 2753 
L 1863 2753 
Q 2328 2753 2575 2939 
Q 2822 3125 2822 3475 
Q 2822 3834 2567 4026 
Q 2313 4219 1838 4219 
Q 1578 4219 1281 4162 
Q 984 4106 628 3988 
L 628 4550 
Q 988 4650 1302 4700 
Q 1616 4750 1894 4750 
Q 2613 4750 3031 4423 
Q 3450 4097 3450 3541 
Q 3450 3153 3228 2886 
Q 3006 2619 2597 2516 
z
" transform="scale(0.015625)"/>
        <path id="DejaVuSans-b1" d="M 2944 4013 
L 2944 2803 
L 4684 2803 
L 4684 2272 
L 2944 2272 
L 2944 1063 
L 2419 1063 
L 2419 2272 
L 678 2272 
L 678 2803 
L 2419 2803 
L 2419 4013 
L 2944 4013 
z
M 678 531 
L 4684 531 
L 4684 0 
L 678 0 
L 678 531 
z
" transform="scale(0.015625)"/>
        <path id="DejaVuSans-3bc" d="M 544 -1331 
L 544 3500 
L 1119 3500 
L 1119 1325 
Q 1119 872 1334 640 
Q 1550 409 1972 409 
Q 2434 409 2667 671 
Q 2900 934 2900 1459 
L 2900 3500 
L 3475 3500 
L 3475 806 
Q 3475 619 3529 530 
Q 3584 441 3700 441 
Q 3728 441 3778 458 
Q 3828 475 3916 513 
L 3916 50 
Q 3788 -22 3673 -56 
Q 3559 -91 3450 -91 
Q 3234 -91 3106 31 
Q 2978 153 2931 403 
Q 2775 156 2548 32 
Q 2322 -91 2016 -91 
Q 1697 -91 1473 31 
Q 1250 153 1119 397 
L 1119 -1331 
L 544 -1331 
z
" transform="scale(0.015625)"/>
        <path id="DejaVuSans-6d" d="M 3328 2828 
Q 3544 3216 3844 3400 
Q 4144 3584 4550 3584 
Q 5097 3584 5394 3201 
Q 5691 2819 5691 2113 
L 5691 0 
L 5113 0 
L 5113 2094 
Q 5113 2597 4934 2840 
Q 4756 3084 4391 3084 
Q 3944 3084 3684 2787 
Q 3425 2491 3425 1978 
L 3425 0 
L 2847 0 
L 2847 2094 
Q 2847 2600 2669 2842 
Q 2491 3084 2119 3084 
Q 1678 3084 1418 2786 
Q 1159 2488 1159 1978 
L 1159 0 
L 581 0 
L 581 3500 
L 1159 3500 
L 1159 2956 
Q 1356 3278 1631 3431 
Q 1906 3584 2284 3584 
Q 2666 3584 2933 3390 
Q 3200 3197 3328 2828 
z
" transform="scale(0.015625)"/>
        <path id="DejaVuSans-29" d="M 513 4856 
L 1013 4856 
Q 1481 4119 1714 3412 
Q 1947 2706 1947 2009 
Q 1947 1309 1714 600 
Q 1481 -109 1013 -844 
L 513 -844 
Q 928 -128 1133 580 
Q 1338 1288 1338 2009 
Q 1338 2731 1133 3434 
Q 928 4138 513 4856 
z
" transform="scale(0.015625)"/>
       </defs>
       <use xlink:href="#DejaVuSans-28"/>
       <use xlink:href="#DejaVuSans-73" x="39.013672"/>
       <use xlink:href="#DejaVuSans-74" x="91.113281"/>
       <use xlink:href="#DejaVuSans-65" x="130.322266"/>
       <use xlink:href="#DejaVuSans-70" x="191.845703"/>
       <use xlink:href="#DejaVuSans-20" x="255.322266"/>
       <use xlink:href="#DejaVuSans-77" x="287.109375"/>
       <use xlink:href="#DejaVuSans-69" x="368.896484"/>
       <use xlink:href="#DejaVuSans-64" x="396.679688"/>
       <use xlink:href="#DejaVuSans-74" x="460.15625"/>
       <use xlink:href="#DejaVuSans-68" x="499.365234"/>
       <use xlink:href="#DejaVuSans-3d" x="562.744141"/>
       <use xlink:href="#DejaVuSans-30" x="646.533203"/>
       <use xlink:href="#DejaVuSans-2e" x="710.15625"/>
       <use xlink:href="#DejaVuSans-34" x="741.943359"/>
       <use xlink:href="#DejaVuSans-33" x="805.566406"/>
       <use xlink:href="#DejaVuSans-b1" x="869.189453"/>
       <use xlink:href="#DejaVuSans-30" x="952.978516"/>
       <use xlink:href="#DejaVuSans-2e" x="1016.601562"/>
       <use xlink:href="#DejaVuSans-30" x="1048.388672"/>
       <use xlink:href="#DejaVuSans-34" x="1112.011719"/>
       <use xlink:href="#DejaVuSans-3bc" x="1175.634766"/>
       <use xlink:href="#DejaVuSans-6d" x="1239.257812"/>
       <use xlink:href="#DejaVuSans-29" x="1336.669922"/>
      </g>
     </g>
    </g>
    <g id="xtick_2">
     <g id="line2d_3">
      <g>
       <use xlink:href="#m5dded475bc" x="400.916562" y="228.96" style="stroke: #000000; stroke-width: 0.8"/>
      </g>
     </g>
     <g id="line2d_4">
      <g>
       <use xlink:href="#m2442dd9bf3" x="400.916562" y="7.2" style="stroke: #000000; stroke-width: 0.8"/>
      </g>
     </g>
     <g id="text_2">
      <!-- Treated substrate -->
      <g transform="translate(339.500313 243.097812)scale(0.14 -0.14)">
       <use xlink:href="#DejaVuSans-54"/>
       <use xlink:href="#DejaVuSans-72" x="46.333984"/>
       <use xlink:href="#DejaVuSans-65" x="85.197266"/>
       <use xlink:href="#DejaVuSans-61" x="146.720703"/>
       <use xlink:href="#DejaVuSans-74" x="208"/>
       <use xlink:href="#DejaVuSans-65" x="247.208984"/>
       <use xlink:href="#DejaVuSans-64" x="308.732422"/>
       <use xlink:href="#DejaVuSans-20" x="372.208984"/>
       <use xlink:href="#DejaVuSans-73" x="403.996094"/>
       <use xlink:href="#DejaVuSans-75" x="456.095703"/>
       <use xlink:href="#DejaVuSans-62" x="519.474609"/>
       <use xlink:href="#DejaVuSans-73" x="582.951172"/>
       <use xlink:href="#DejaVuSans-74" x="635.050781"/>
       <use xlink:href="#DejaVuSans-72" x="674.259766"/>
       <use xlink:href="#DejaVuSans-61" x="715.373047"/>
       <use xlink:href="#DejaVuSans-74" x="776.652344"/>
       <use xlink:href="#DejaVuSans-65" x="815.861328"/>
      </g>
      <!-- (step width=0.11±0.01μm) -->
      <g transform="translate(304.618437 258.77475)scale(0.14 -0.14)">
       <defs>
        <path id="DejaVuSans-31" d="M 794 531 
L 1825 531 
L 1825 4091 
L 703 3866 
L 703 4441 
L 1819 4666 
L 2450 4666 
L 2450 531 
L 3481 531 
L 3481 0 
L 794 0 
L 794 531 
z
" transform="scale(0.015625)"/>
       </defs>
       <use xlink:href="#DejaVuSans-28"/>
       <use xlink:href="#DejaVuSans-73" x="39.013672"/>
       <use xlink:href="#DejaVuSans-74" x="91.113281"/>
       <use xlink:href="#DejaVuSans-65" x="130.322266"/>
       <use xlink:href="#DejaVuSans-70" x="191.845703"/>
       <use xlink:href="#DejaVuSans-20" x="255.322266"/>
       <use xlink:href="#DejaVuSans-77" x="287.109375"/>
       <use xlink:href="#DejaVuSans-69" x="368.896484"/>
       <use xlink:href="#DejaVuSans-64" x="396.679688"/>
       <use xlink:href="#DejaVuSans-74" x="460.15625"/>
       <use xlink:href="#DejaVuSans-68" x="499.365234"/>
       <use xlink:href="#DejaVuSans-3d" x="562.744141"/>
       <use xlink:href="#DejaVuSans-30" x="646.533203"/>
       <use xlink:href="#DejaVuSans-2e" x="710.15625"/>
       <use xlink:href="#DejaVuSans-31" x="741.943359"/>
       <use xlink:href="#DejaVuSans-31" x="805.566406"/>
       <use xlink:href="#DejaVuSans-b1" x="869.189453"/>
       <use xlink:href="#DejaVuSans-30" x="952.978516"/>
       <use xlink:href="#DejaVuSans-2e" x="1016.601562"/>
       <use xlink:href="#DejaVuSans-30" x="1048.388672"/>
       <use xlink:href="#DejaVuSans-31" x="1112.011719"/>
       <use xlink:href="#DejaVuSans-3bc" x="1175.634766"/>
       <use xlink:href="#DejaVuSans-6d" x="1239.257812"/>
       <use xlink:href="#DejaVuSans-29" x="1336.669922"/>
      </g>
     </g>
    </g>
    <g id="xtick_3">
     <g id="line2d_5">
      <g>
       <use xlink:href="#m5dded475bc" x="624.116562" y="228.96" style="stroke: #000000; stroke-width: 0.8"/>
      </g>
     </g>
     <g id="line2d_6">
      <g>
       <use xlink:href="#m2442dd9bf3" x="624.116562" y="7.2" style="stroke: #000000; stroke-width: 0.8"/>
      </g>
     </g>
     <g id="text_3">
      <!-- Untreated substrate -->
      <g transform="translate(553.639688 243.097812)scale(0.14 -0.14)">
       <defs>
        <path id="DejaVuSans-55" d="M 556 4666 
L 1191 4666 
L 1191 1831 
Q 1191 1081 1462 751 
Q 1734 422 2344 422 
Q 2950 422 3222 751 
Q 3494 1081 3494 1831 
L 3494 4666 
L 4128 4666 
L 4128 1753 
Q 4128 841 3676 375 
Q 3225 -91 2344 -91 
Q 1459 -91 1007 375 
Q 556 841 556 1753 
L 556 4666 
z
" transform="scale(0.015625)"/>
        <path id="DejaVuSans-6e" d="M 3513 2113 
L 3513 0 
L 2938 0 
L 2938 2094 
Q 2938 2591 2744 2837 
Q 2550 3084 2163 3084 
Q 1697 3084 1428 2787 
Q 1159 2491 1159 1978 
L 1159 0 
L 581 0 
L 581 3500 
L 1159 3500 
L 1159 2956 
Q 1366 3272 1645 3428 
Q 1925 3584 2291 3584 
Q 2894 3584 3203 3211 
Q 3513 2838 3513 2113 
z
" transform="scale(0.015625)"/>
       </defs>
       <use xlink:href="#DejaVuSans-55"/>
       <use xlink:href="#DejaVuSans-6e" x="73.193359"/>
       <use xlink:href="#DejaVuSans-74" x="136.572266"/>
       <use xlink:href="#DejaVuSans-72" x="175.78125"/>
       <use xlink:href="#DejaVuSans-65" x="214.644531"/>
       <use xlink:href="#DejaVuSans-61" x="276.167969"/>
       <use xlink:href="#DejaVuSans-74" x="337.447266"/>
       <use xlink:href="#DejaVuSans-65" x="376.65625"/>
       <use xlink:href="#DejaVuSans-64" x="438.179688"/>
       <use xlink:href="#DejaVuSans-20" x="501.65625"/>
       <use xlink:href="#DejaVuSans-73" x="533.443359"/>
       <use xlink:href="#DejaVuSans-75" x="585.542969"/>
       <use xlink:href="#DejaVuSans-62" x="648.921875"/>
       <use xlink:href="#DejaVuSans-73" x="712.398438"/>
       <use xlink:href="#DejaVuSans-74" x="764.498047"/>
       <use xlink:href="#DejaVuSans-72" x="803.707031"/>
       <use xlink:href="#DejaVuSans-61" x="844.820312"/>
       <use xlink:href="#DejaVuSans-74" x="906.099609"/>
       <use xlink:href="#DejaVuSans-65" x="945.308594"/>
      </g>
      <!-- (step width=0.28±0.03μm) -->
      <g transform="translate(527.818437 258.77475)scale(0.14 -0.14)">
       <defs>
        <path id="DejaVuSans-32" d="M 1228 531 
L 3431 531 
L 3431 0 
L 469 0 
L 469 531 
Q 828 903 1448 1529 
Q 2069 2156 2228 2338 
Q 2531 2678 2651 2914 
Q 2772 3150 2772 3378 
Q 2772 3750 2511 3984 
Q 2250 4219 1831 4219 
Q 1534 4219 1204 4116 
Q 875 4013 500 3803 
L 500 4441 
Q 881 4594 1212 4672 
Q 1544 4750 1819 4750 
Q 2544 4750 2975 4387 
Q 3406 4025 3406 3419 
Q 3406 3131 3298 2873 
Q 3191 2616 2906 2266 
Q 2828 2175 2409 1742 
Q 1991 1309 1228 531 
z
" transform="scale(0.015625)"/>
        <path id="DejaVuSans-38" d="M 2034 2216 
Q 1584 2216 1326 1975 
Q 1069 1734 1069 1313 
Q 1069 891 1326 650 
Q 1584 409 2034 409 
Q 2484 409 2743 651 
Q 3003 894 3003 1313 
Q 3003 1734 2745 1975 
Q 2488 2216 2034 2216 
z
M 1403 2484 
Q 997 2584 770 2862 
Q 544 3141 544 3541 
Q 544 4100 942 4425 
Q 1341 4750 2034 4750 
Q 2731 4750 3128 4425 
Q 3525 4100 3525 3541 
Q 3525 3141 3298 2862 
Q 3072 2584 2669 2484 
Q 3125 2378 3379 2068 
Q 3634 1759 3634 1313 
Q 3634 634 3220 271 
Q 2806 -91 2034 -91 
Q 1263 -91 848 271 
Q 434 634 434 1313 
Q 434 1759 690 2068 
Q 947 2378 1403 2484 
z
M 1172 3481 
Q 1172 3119 1398 2916 
Q 1625 2713 2034 2713 
Q 2441 2713 2670 2916 
Q 2900 3119 2900 3481 
Q 2900 3844 2670 4047 
Q 2441 4250 2034 4250 
Q 1625 4250 1398 4047 
Q 1172 3844 1172 3481 
z
" transform="scale(0.015625)"/>
       </defs>
       <use xlink:href="#DejaVuSans-28"/>
       <use xlink:href="#DejaVuSans-73" x="39.013672"/>
       <use xlink:href="#DejaVuSans-74" x="91.113281"/>
       <use xlink:href="#DejaVuSans-65" x="130.322266"/>
       <use xlink:href="#DejaVuSans-70" x="191.845703"/>
       <use xlink:href="#DejaVuSans-20" x="255.322266"/>
       <use xlink:href="#DejaVuSans-77" x="287.109375"/>
       <use xlink:href="#DejaVuSans-69" x="368.896484"/>
       <use xlink:href="#DejaVuSans-64" x="396.679688"/>
       <use xlink:href="#DejaVuSans-74" x="460.15625"/>
       <use xlink:href="#DejaVuSans-68" x="499.365234"/>
       <use xlink:href="#DejaVuSans-3d" x="562.744141"/>
       <use xlink:href="#DejaVuSans-30" x="646.533203"/>
       <use xlink:href="#DejaVuSans-2e" x="710.15625"/>
       <use xlink:href="#DejaVuSans-32" x="741.943359"/>
       <use xlink:href="#DejaVuSans-38" x="805.566406"/>
       <use xlink:href="#DejaVuSans-b1" x="869.189453"/>
       <use xlink:href="#DejaVuSans-30" x="952.978516"/>
       <use xlink:href="#DejaVuSans-2e" x="1016.601562"/>
       <use xlink:href="#DejaVuSans-30" x="1048.388672"/>
       <use xlink:href="#DejaVuSans-33" x="1112.011719"/>
       <use xlink:href="#DejaVuSans-3bc" x="1175.634766"/>
       <use xlink:href="#DejaVuSans-6d" x="1239.257812"/>
       <use xlink:href="#DejaVuSans-29" x="1336.669922"/>
      </g>
     </g>
    </g>
   </g>
   <g id="matplotlib.axis_2">
    <g id="ytick_1">
     <g id="line2d_7">
      <defs>
       <path id="m5fe25e596a" d="M 0 0 
L 3.5 0 
" style="stroke: #000000; stroke-width: 0.8"/>
      </defs>
      <g>
       <use xlink:href="#m5fe25e596a" x="66.116563" y="228.462191" style="stroke: #000000; stroke-width: 0.8"/>
      </g>
     </g>
     <g id="line2d_8">
      <defs>
       <path id="mb1d0f48498" d="M 0 0 
L -3.5 0 
" style="stroke: #000000; stroke-width: 0.8"/>
      </defs>
      <g>
       <use xlink:href="#mb1d0f48498" x="735.716563" y="228.462191" style="stroke: #000000; stroke-width: 0.8"/>
      </g>
     </g>
     <g id="text_4">
      <!-- −0.1 -->
      <g transform="translate(28.620625 233.781097)scale(0.14 -0.14)">
       <defs>
        <path id="DejaVuSans-2212" d="M 678 2272 
L 4684 2272 
L 4684 1741 
L 678 1741 
L 678 2272 
z
" transform="scale(0.015625)"/>
       </defs>
       <use xlink:href="#DejaVuSans-2212"/>
       <use xlink:href="#DejaVuSans-30" x="83.789062"/>
       <use xlink:href="#DejaVuSans-2e" x="147.412109"/>
       <use xlink:href="#DejaVuSans-31" x="179.199219"/>
      </g>
     </g>
    </g>
    <g id="ytick_2">
     <g id="line2d_9">
      <g>
       <use xlink:href="#m5fe25e596a" x="66.116563" y="195.921807" style="stroke: #000000; stroke-width: 0.8"/>
      </g>
     </g>
     <g id="line2d_10">
      <g>
       <use xlink:href="#mb1d0f48498" x="735.716563" y="195.921807" style="stroke: #000000; stroke-width: 0.8"/>
      </g>
     </g>
     <g id="text_5">
      <!-- 0.0 -->
      <g transform="translate(40.352187 201.240713)scale(0.14 -0.14)">
       <use xlink:href="#DejaVuSans-30"/>
       <use xlink:href="#DejaVuSans-2e" x="63.623047"/>
       <use xlink:href="#DejaVuSans-30" x="95.410156"/>
      </g>
     </g>
    </g>
    <g id="ytick_3">
     <g id="line2d_11">
      <g>
       <use xlink:href="#m5fe25e596a" x="66.116563" y="163.381423" style="stroke: #000000; stroke-width: 0.8"/>
      </g>
     </g>
     <g id="line2d_12">
      <g>
       <use xlink:href="#mb1d0f48498" x="735.716563" y="163.381423" style="stroke: #000000; stroke-width: 0.8"/>
      </g>
     </g>
     <g id="text_6">
      <!-- 0.1 -->
      <g transform="translate(40.352187 168.70033)scale(0.14 -0.14)">
       <use xlink:href="#DejaVuSans-30"/>
       <use xlink:href="#DejaVuSans-2e" x="63.623047"/>
       <use xlink:href="#DejaVuSans-31" x="95.410156"/>
      </g>
     </g>
    </g>
    <g id="ytick_4">
     <g id="line2d_13">
      <g>
       <use xlink:href="#m5fe25e596a" x="66.116563" y="130.84104" style="stroke: #000000; stroke-width: 0.8"/>
      </g>
     </g>
     <g id="line2d_14">
      <g>
       <use xlink:href="#mb1d0f48498" x="735.716563" y="130.84104" style="stroke: #000000; stroke-width: 0.8"/>
      </g>
     </g>
     <g id="text_7">
      <!-- 0.2 -->
      <g transform="translate(40.352187 136.159946)scale(0.14 -0.14)">
       <use xlink:href="#DejaVuSans-30"/>
       <use xlink:href="#DejaVuSans-2e" x="63.623047"/>
       <use xlink:href="#DejaVuSans-32" x="95.410156"/>
      </g>
     </g>
    </g>
    <g id="ytick_5">
     <g id="line2d_15">
      <g>
       <use xlink:href="#m5fe25e596a" x="66.116563" y="98.300656" style="stroke: #000000; stroke-width: 0.8"/>
      </g>
     </g>
     <g id="line2d_16">
      <g>
       <use xlink:href="#mb1d0f48498" x="735.716563" y="98.300656" style="stroke: #000000; stroke-width: 0.8"/>
      </g>
     </g>
     <g id="text_8">
      <!-- 0.3 -->
      <g transform="translate(40.352187 103.619562)scale(0.14 -0.14)">
       <use xlink:href="#DejaVuSans-30"/>
       <use xlink:href="#DejaVuSans-2e" x="63.623047"/>
       <use xlink:href="#DejaVuSans-33" x="95.410156"/>
      </g>
     </g>
    </g>
    <g id="ytick_6">
     <g id="line2d_17">
      <g>
       <use xlink:href="#m5fe25e596a" x="66.116563" y="65.760272" style="stroke: #000000; stroke-width: 0.8"/>
      </g>
     </g>
     <g id="line2d_18">
      <g>
       <use xlink:href="#mb1d0f48498" x="735.716563" y="65.760272" style="stroke: #000000; stroke-width: 0.8"/>
      </g>
     </g>
     <g id="text_9">
      <!-- 0.4 -->
      <g transform="translate(40.352187 71.079178)scale(0.14 -0.14)">
       <use xlink:href="#DejaVuSans-30"/>
       <use xlink:href="#DejaVuSans-2e" x="63.623047"/>
       <use xlink:href="#DejaVuSans-34" x="95.410156"/>
      </g>
     </g>
    </g>
    <g id="ytick_7">
     <g id="line2d_19">
      <g>
       <use xlink:href="#m5fe25e596a" x="66.116563" y="33.219888" style="stroke: #000000; stroke-width: 0.8"/>
      </g>
     </g>
     <g id="line2d_20">
      <g>
       <use xlink:href="#mb1d0f48498" x="735.716563" y="33.219888" style="stroke: #000000; stroke-width: 0.8"/>
      </g>
     </g>
     <g id="text_10">
      <!-- 0.5 -->
      <g transform="translate(40.352187 38.538795)scale(0.14 -0.14)">
       <defs>
        <path id="DejaVuSans-35" d="M 691 4666 
L 3169 4666 
L 3169 4134 
L 1269 4134 
L 1269 2991 
Q 1406 3038 1543 3061 
Q 1681 3084 1819 3084 
Q 2600 3084 3056 2656 
Q 3513 2228 3513 1497 
Q 3513 744 3044 326 
Q 2575 -91 1722 -91 
Q 1428 -91 1123 -41 
Q 819 9 494 109 
L 494 744 
Q 775 591 1075 516 
Q 1375 441 1709 441 
Q 2250 441 2565 725 
Q 2881 1009 2881 1497 
Q 2881 1984 2565 2268 
Q 2250 2553 1709 2553 
Q 1456 2553 1204 2497 
Q 953 2441 691 2322 
L 691 4666 
z
" transform="scale(0.015625)"/>
       </defs>
       <use xlink:href="#DejaVuSans-30"/>
       <use xlink:href="#DejaVuSans-2e" x="63.623047"/>
       <use xlink:href="#DejaVuSans-35" x="95.410156"/>
      </g>
     </g>
    </g>
    <g id="text_11">
     <!-- Characteristic Time (s) -->
     <g transform="translate(20.877187 220.131562)rotate(-90)scale(0.18 -0.18)">
      <defs>
       <path id="DejaVuSans-43" d="M 4122 4306 
L 4122 3641 
Q 3803 3938 3442 4084 
Q 3081 4231 2675 4231 
Q 1875 4231 1450 3742 
Q 1025 3253 1025 2328 
Q 1025 1406 1450 917 
Q 1875 428 2675 428 
Q 3081 428 3442 575 
Q 3803 722 4122 1019 
L 4122 359 
Q 3791 134 3420 21 
Q 3050 -91 2638 -91 
Q 1578 -91 968 557 
Q 359 1206 359 2328 
Q 359 3453 968 4101 
Q 1578 4750 2638 4750 
Q 3056 4750 3426 4639 
Q 3797 4528 4122 4306 
z
" transform="scale(0.015625)"/>
       <path id="DejaVuSans-63" d="M 3122 3366 
L 3122 2828 
Q 2878 2963 2633 3030 
Q 2388 3097 2138 3097 
Q 1578 3097 1268 2742 
Q 959 2388 959 1747 
Q 959 1106 1268 751 
Q 1578 397 2138 397 
Q 2388 397 2633 464 
Q 2878 531 3122 666 
L 3122 134 
Q 2881 22 2623 -34 
Q 2366 -91 2075 -91 
Q 1284 -91 818 406 
Q 353 903 353 1747 
Q 353 2603 823 3093 
Q 1294 3584 2113 3584 
Q 2378 3584 2631 3529 
Q 2884 3475 3122 3366 
z
" transform="scale(0.015625)"/>
      </defs>
      <use xlink:href="#DejaVuSans-43"/>
      <use xlink:href="#DejaVuSans-68" x="69.824219"/>
      <use xlink:href="#DejaVuSans-61" x="133.203125"/>
      <use xlink:href="#DejaVuSans-72" x="194.482422"/>
      <use xlink:href="#DejaVuSans-61" x="235.595703"/>
      <use xlink:href="#DejaVuSans-63" x="296.875"/>
      <use xlink:href="#DejaVuSans-74" x="351.855469"/>
      <use xlink:href="#DejaVuSans-65" x="391.064453"/>
      <use xlink:href="#DejaVuSans-72" x="452.587891"/>
      <use xlink:href="#DejaVuSans-69" x="493.701172"/>
      <use xlink:href="#DejaVuSans-73" x="521.484375"/>
      <use xlink:href="#DejaVuSans-74" x="573.583984"/>
      <use xlink:href="#DejaVuSans-69" x="612.792969"/>
      <use xlink:href="#DejaVuSans-63" x="640.576172"/>
      <use xlink:href="#DejaVuSans-20" x="695.556641"/>
      <use xlink:href="#DejaVuSans-54" x="727.34375"/>
      <use xlink:href="#DejaVuSans-69" x="785.302734"/>
      <use xlink:href="#DejaVuSans-6d" x="813.085938"/>
      <use xlink:href="#DejaVuSans-65" x="910.498047"/>
      <use xlink:href="#DejaVuSans-20" x="972.021484"/>
      <use xlink:href="#DejaVuSans-28" x="1003.808594"/>
      <use xlink:href="#DejaVuSans-73" x="1042.822266"/>
      <use xlink:href="#DejaVuSans-29" x="1094.921875"/>
     </g>
    </g>
   </g>
   <g id="line2d_21">
    <path d="M 177.716563 195.596403 
L 177.716563 89.290583 
" clip-path="url(#p92ce76bc0f)" style="fill: none; stroke: #373737; stroke-width: 0.8; stroke-linecap: square"/>
   </g>
   <g id="line2d_22">
    <path d="M 177.716563 169.678425 
L 177.716563 133.96872 
" clip-path="url(#p92ce76bc0f)" style="fill: none; stroke: #373737; stroke-width: 2.4; stroke-linecap: square"/>
   </g>
   <g id="line2d_23">
    <path d="M 400.916562 195.596403 
L 400.916562 88.217561 
" clip-path="url(#p92ce76bc0f)" style="fill: none; stroke: #373737; stroke-width: 0.8; stroke-linecap: square"/>
   </g>
   <g id="line2d_24">
    <path d="M 400.916562 185.591892 
L 400.916562 142.749704 
" clip-path="url(#p92ce76bc0f)" style="fill: none; stroke: #373737; stroke-width: 2.4; stroke-linecap: square"/>
   </g>
   <g id="line2d_25">
    <path d="M 624.116562 195.596403 
L 624.116562 167.508207 
" clip-path="url(#p92ce76bc0f)" style="fill: none; stroke: #373737; stroke-width: 0.8; stroke-linecap: square"/>
   </g>
   <g id="line2d_26">
    <path d="M 624.116562 186.448229 
L 624.116562 178.501544 
" clip-path="url(#p92ce76bc0f)" style="fill: none; stroke: #373737; stroke-width: 2.4; stroke-linecap: square"/>
   </g>
   <g id="patch_3">
    <path d="M 66.116563 228.96 
L 66.116563 7.2 
" style="fill: none; stroke: #000000; stroke-width: 0.8; stroke-linejoin: miter; stroke-linecap: square"/>
   </g>
   <g id="patch_4">
    <path d="M 735.716563 228.96 
L 735.716563 7.2 
" style="fill: none; stroke: #000000; stroke-width: 0.8; stroke-linejoin: miter; stroke-linecap: square"/>
   </g>
   <g id="patch_5">
    <path d="M 66.116563 228.96 
L 735.716563 228.96 
" style="fill: none; stroke: #000000; stroke-width: 0.8; stroke-linejoin: miter; stroke-linecap: square"/>
   </g>
   <g id="patch_6">
    <path d="M 66.116563 7.2 
L 735.716563 7.2 
" style="fill: none; stroke: #000000; stroke-width: 0.8; stroke-linejoin: miter; stroke-linecap: square"/>
   </g>
   <g id="PathCollection_1">
    <defs>
     <path id="m8cca7b6efc" d="M 0 0.8 
C 0.212162 0.8 0.415664 0.715707 0.565685 0.565685 
C 0.715707 0.415664 0.8 0.212162 0.8 0 
C 0.8 -0.212162 0.715707 -0.415664 0.565685 -0.565685 
C 0.415664 -0.715707 0.212162 -0.8 0 -0.8 
C -0.212162 -0.8 -0.415664 -0.715707 -0.565685 -0.565685 
C -0.715707 -0.415664 -0.8 -0.212162 -0.8 0 
C -0.8 0.212162 -0.715707 0.415664 -0.565685 0.565685 
C -0.415664 0.715707 -0.212162 0.8 0 0.8 
z
" style="stroke: #373737"/>
    </defs>
    <g clip-path="url(#p92ce76bc0f)">
     <use xlink:href="#m8cca7b6efc" x="177.716563" y="153.212557" style="fill: #ffffff; stroke: #373737"/>
    </g>
   </g>
   <g id="PathCollection_2">
    <g clip-path="url(#p92ce76bc0f)">
     <use xlink:href="#m8cca7b6efc" x="400.916562" y="170.12194" style="fill: #ffffff; stroke: #373737"/>
    </g>
   </g>
   <g id="PathCollection_3">
    <g clip-path="url(#p92ce76bc0f)">
     <use xlink:href="#m8cca7b6efc" x="624.116562" y="182.663022" style="fill: #ffffff; stroke: #373737"/>
    </g>
   </g>
   <g id="text_12">
    <!-- 0.1312 -->
    <g transform="translate(182.180563 166.025332)scale(0.14 -0.14)">
     <defs>
      <path id="DejaVuSans-Bold-30" d="M 2944 2338 
Q 2944 3213 2780 3570 
Q 2616 3928 2228 3928 
Q 1841 3928 1675 3570 
Q 1509 3213 1509 2338 
Q 1509 1453 1675 1090 
Q 1841 728 2228 728 
Q 2613 728 2778 1090 
Q 2944 1453 2944 2338 
z
M 4147 2328 
Q 4147 1169 3647 539 
Q 3147 -91 2228 -91 
Q 1306 -91 806 539 
Q 306 1169 306 2328 
Q 306 3491 806 4120 
Q 1306 4750 2228 4750 
Q 3147 4750 3647 4120 
Q 4147 3491 4147 2328 
z
" transform="scale(0.015625)"/>
      <path id="DejaVuSans-Bold-2e" d="M 653 1209 
L 1778 1209 
L 1778 0 
L 653 0 
L 653 1209 
z
" transform="scale(0.015625)"/>
      <path id="DejaVuSans-Bold-31" d="M 750 831 
L 1813 831 
L 1813 3847 
L 722 3622 
L 722 4441 
L 1806 4666 
L 2950 4666 
L 2950 831 
L 4013 831 
L 4013 0 
L 750 0 
L 750 831 
z
" transform="scale(0.015625)"/>
      <path id="DejaVuSans-Bold-33" d="M 2981 2516 
Q 3453 2394 3698 2092 
Q 3944 1791 3944 1325 
Q 3944 631 3412 270 
Q 2881 -91 1863 -91 
Q 1503 -91 1142 -33 
Q 781 25 428 141 
L 428 1069 
Q 766 900 1098 814 
Q 1431 728 1753 728 
Q 2231 728 2486 893 
Q 2741 1059 2741 1369 
Q 2741 1688 2480 1852 
Q 2219 2016 1709 2016 
L 1228 2016 
L 1228 2791 
L 1734 2791 
Q 2188 2791 2409 2933 
Q 2631 3075 2631 3366 
Q 2631 3634 2415 3781 
Q 2200 3928 1806 3928 
Q 1516 3928 1219 3862 
Q 922 3797 628 3669 
L 628 4550 
Q 984 4650 1334 4700 
Q 1684 4750 2022 4750 
Q 2931 4750 3382 4451 
Q 3834 4153 3834 3553 
Q 3834 3144 3618 2883 
Q 3403 2622 2981 2516 
z
" transform="scale(0.015625)"/>
      <path id="DejaVuSans-Bold-32" d="M 1844 884 
L 3897 884 
L 3897 0 
L 506 0 
L 506 884 
L 2209 2388 
Q 2438 2594 2547 2791 
Q 2656 2988 2656 3200 
Q 2656 3528 2436 3728 
Q 2216 3928 1850 3928 
Q 1569 3928 1234 3808 
Q 900 3688 519 3450 
L 519 4475 
Q 925 4609 1322 4679 
Q 1719 4750 2100 4750 
Q 2938 4750 3402 4381 
Q 3866 4013 3866 3353 
Q 3866 2972 3669 2642 
Q 3472 2313 2841 1759 
L 1844 884 
z
" transform="scale(0.015625)"/>
     </defs>
     <use xlink:href="#DejaVuSans-Bold-30"/>
     <use xlink:href="#DejaVuSans-Bold-2e" x="69.580078"/>
     <use xlink:href="#DejaVuSans-Bold-31" x="107.568359"/>
     <use xlink:href="#DejaVuSans-Bold-33" x="177.148438"/>
     <use xlink:href="#DejaVuSans-Bold-31" x="246.728516"/>
     <use xlink:href="#DejaVuSans-Bold-32" x="316.308594"/>
    </g>
   </g>
   <g id="text_13">
    <!-- 0.0793 -->
    <g transform="translate(405.380562 177.8619)scale(0.14 -0.14)">
     <defs>
      <path id="DejaVuSans-Bold-37" d="M 428 4666 
L 3944 4666 
L 3944 3988 
L 2125 0 
L 953 0 
L 2675 3781 
L 428 3781 
L 428 4666 
z
" transform="scale(0.015625)"/>
      <path id="DejaVuSans-Bold-39" d="M 641 103 
L 641 966 
Q 928 831 1190 764 
Q 1453 697 1709 697 
Q 2247 697 2547 995 
Q 2847 1294 2900 1881 
Q 2688 1725 2447 1647 
Q 2206 1569 1925 1569 
Q 1209 1569 770 1986 
Q 331 2403 331 3084 
Q 331 3838 820 4291 
Q 1309 4744 2131 4744 
Q 3044 4744 3544 4128 
Q 4044 3513 4044 2388 
Q 4044 1231 3459 570 
Q 2875 -91 1856 -91 
Q 1528 -91 1228 -42 
Q 928 6 641 103 
z
M 2125 2350 
Q 2441 2350 2600 2554 
Q 2759 2759 2759 3169 
Q 2759 3575 2600 3781 
Q 2441 3988 2125 3988 
Q 1809 3988 1650 3781 
Q 1491 3575 1491 3169 
Q 1491 2759 1650 2554 
Q 1809 2350 2125 2350 
z
" transform="scale(0.015625)"/>
     </defs>
     <use xlink:href="#DejaVuSans-Bold-30"/>
     <use xlink:href="#DejaVuSans-Bold-2e" x="69.580078"/>
     <use xlink:href="#DejaVuSans-Bold-30" x="107.568359"/>
     <use xlink:href="#DejaVuSans-Bold-37" x="177.148438"/>
     <use xlink:href="#DejaVuSans-Bold-39" x="246.728516"/>
     <use xlink:href="#DejaVuSans-Bold-33" x="316.308594"/>
    </g>
   </g>
   <g id="text_14">
    <!-- 0.0407 -->
    <g transform="translate(628.580563 186.640657)scale(0.14 -0.14)">
     <defs>
      <path id="DejaVuSans-Bold-34" d="M 2356 3675 
L 1038 1722 
L 2356 1722 
L 2356 3675 
z
M 2156 4666 
L 3494 4666 
L 3494 1722 
L 4159 1722 
L 4159 850 
L 3494 850 
L 3494 0 
L 2356 0 
L 2356 850 
L 288 850 
L 288 1881 
L 2156 4666 
z
" transform="scale(0.015625)"/>
     </defs>
     <use xlink:href="#DejaVuSans-Bold-30"/>
     <use xlink:href="#DejaVuSans-Bold-2e" x="69.580078"/>
     <use xlink:href="#DejaVuSans-Bold-30" x="107.568359"/>
     <use xlink:href="#DejaVuSans-Bold-34" x="177.148438"/>
     <use xlink:href="#DejaVuSans-Bold-30" x="246.728516"/>
     <use xlink:href="#DejaVuSans-Bold-37" x="316.308594"/>
    </g>
   </g>
  </g>
 </g>
 <defs>
  <clipPath id="p92ce76bc0f">
   <rect x="66.116563" y="7.2" width="669.6" height="221.76"/>
  </clipPath>
 </defs>
</svg>
