<?xml version="1.0" encoding="utf-8" standalone="no"?>
<!DOCTYPE svg PUBLIC "-//W3C//DTD SVG 1.1//EN"
  "http://www.w3.org/Graphics/SVG/1.1/DTD/svg11.dtd">
<!-- Created with matplotlib (https://matplotlib.org/) -->
<svg height="264.035937pt" version="1.1" viewBox="0 0 728.960937 264.035937" width="728.960937pt" xmlns="http://www.w3.org/2000/svg" xmlns:xlink="http://www.w3.org/1999/xlink">
 <metadata>
  <rdf:RDF xmlns:cc="http://creativecommons.org/ns#" xmlns:dc="http://purl.org/dc/elements/1.1/" xmlns:rdf="http://www.w3.org/1999/02/22-rdf-syntax-ns#">
   <cc:Work>
    <dc:type rdf:resource="http://purl.org/dc/dcmitype/StillImage"/>
    <dc:date>2023-03-05T11:46:57.069338</dc:date>
    <dc:format>image/svg+xml</dc:format>
    <dc:creator>
     <cc:Agent>
      <dc:title>Matplotlib v3.3.4, https://matplotlib.org/</dc:title>
     </cc:Agent>
    </dc:creator>
   </cc:Work>
  </rdf:RDF>
 </metadata>
 <defs>
  <style type="text/css">*{stroke-linecap:butt;stroke-linejoin:round;}</style>
 </defs>
 <g id="figure_1">
  <g id="patch_1">
   <path d="M 0 264.035937 
L 728.960937 264.035937 
L 728.960937 0 
L 0 0 
z
" style="fill:#ffffff;"/>
  </g>
  <g id="axes_1">
   <g id="patch_2">
    <path d="M 52.160938 228.96 
L 721.760938 228.96 
L 721.760938 7.2 
L 52.160938 7.2 
z
" style="fill:#ffffff;"/>
   </g>
   <g id="PolyCollection_1">
    <defs>
     <path d="M 163.930106 -59.427948 
L 163.591769 -59.427948 
L 163.526083 -61.025261 
L 163.440979 -62.622574 
L 163.333051 -64.219886 
L 163.199068 -65.817199 
L 163.036241 -67.414512 
L 162.842521 -69.011825 
L 162.616883 -70.609138 
L 162.359578 -72.206451 
L 162.07232 -73.803764 
L 161.758362 -75.401077 
L 161.422448 -76.99839 
L 161.070636 -78.595703 
L 160.709979 -80.193016 
L 160.348098 -81.790328 
L 159.992676 -83.387641 
L 159.650917 -84.984954 
L 159.329019 -86.582267 
L 159.031724 -88.17958 
L 158.761968 -89.776893 
L 158.520677 -91.374206 
L 158.306717 -92.971519 
L 158.116995 -94.568832 
L 157.94668 -96.166145 
L 157.789541 -97.763458 
L 157.63833 -99.360771 
L 157.485207 -100.958083 
L 157.322158 -102.555396 
L 157.141405 -104.152709 
L 156.935786 -105.750022 
L 156.699106 -107.347335 
L 156.426456 -108.944648 
L 156.114486 -110.541961 
L 155.761612 -112.139274 
L 155.368128 -113.736587 
L 154.936184 -115.3339 
L 154.469605 -116.931213 
L 153.973534 -118.528526 
L 153.453917 -120.125838 
L 152.916867 -121.723151 
L 152.368002 -123.320464 
L 151.811851 -124.917777 
L 151.251457 -126.51509 
L 150.68826 -128.112403 
L 150.122339 -129.709716 
L 149.552993 -131.307029 
L 148.979614 -132.904342 
L 148.402698 -134.501655 
L 147.824816 -136.098968 
L 147.25135 -137.69628 
L 146.690813 -139.293593 
L 146.154637 -140.890906 
L 145.656406 -142.488219 
L 145.210605 -144.085532 
L 144.831054 -145.682845 
L 144.529259 -147.280158 
L 144.312932 -148.877471 
L 144.184916 -150.474784 
L 144.14267 -152.072097 
L 144.178396 -153.66941 
L 144.279764 -155.266723 
L 144.431113 -156.864035 
L 144.614933 -158.461348 
L 144.813427 -160.058661 
L 145.00994 -161.655974 
L 145.190125 -163.253287 
L 145.342763 -164.8506 
L 145.460238 -166.447913 
L 145.538722 -168.045226 
L 145.578165 -169.642539 
L 145.58217 -171.239852 
L 145.557842 -172.837165 
L 145.515622 -174.434478 
L 145.469103 -176.03179 
L 145.434755 -177.629103 
L 145.431483 -179.226416 
L 145.479941 -180.823729 
L 145.601542 -182.421042 
L 145.817174 -184.018355 
L 146.145663 -185.615668 
L 146.602122 -187.212981 
L 147.196351 -188.810294 
L 147.931494 -190.407607 
L 148.803144 -192.00492 
L 149.799063 -193.602232 
L 150.899612 -195.199545 
L 152.078873 -196.796858 
L 153.306393 -198.394171 
L 154.549358 -199.991484 
L 155.774949 -201.588797 
L 156.952639 -203.18611 
L 158.056154 -204.783423 
L 159.06493 -206.380736 
L 159.964933 -207.978049 
L 160.748828 -209.575362 
L 161.415544 -211.172675 
L 161.969378 -212.769987 
L 162.41879 -214.3673 
L 162.775071 -215.964613 
L 163.051049 -217.561926 
L 164.470826 -217.561926 
L 164.470826 -217.561926 
L 164.746804 -215.964613 
L 165.103085 -214.3673 
L 165.552497 -212.769987 
L 166.106331 -211.172675 
L 166.773047 -209.575362 
L 167.556942 -207.978049 
L 168.456945 -206.380736 
L 169.465721 -204.783423 
L 170.569236 -203.18611 
L 171.746926 -201.588797 
L 172.972517 -199.991484 
L 174.215482 -198.394171 
L 175.443002 -196.796858 
L 176.622263 -195.199545 
L 177.722812 -193.602232 
L 178.718731 -192.00492 
L 179.590381 -190.407607 
L 180.325524 -188.810294 
L 180.919753 -187.212981 
L 181.376212 -185.615668 
L 181.704701 -184.018355 
L 181.920333 -182.421042 
L 182.041934 -180.823729 
L 182.090392 -179.226416 
L 182.08712 -177.629103 
L 182.052772 -176.03179 
L 182.006253 -174.434478 
L 181.964033 -172.837165 
L 181.939705 -171.239852 
L 181.94371 -169.642539 
L 181.983153 -168.045226 
L 182.061637 -166.447913 
L 182.179112 -164.8506 
L 182.33175 -163.253287 
L 182.511935 -161.655974 
L 182.708448 -160.058661 
L 182.906942 -158.461348 
L 183.090762 -156.864035 
L 183.242111 -155.266723 
L 183.343479 -153.66941 
L 183.379205 -152.072097 
L 183.336959 -150.474784 
L 183.208943 -148.877471 
L 182.992616 -147.280158 
L 182.690821 -145.682845 
L 182.31127 -144.085532 
L 181.865469 -142.488219 
L 181.367238 -140.890906 
L 180.831062 -139.293593 
L 180.270525 -137.69628 
L 179.697059 -136.098968 
L 179.119177 -134.501655 
L 178.542261 -132.904342 
L 177.968882 -131.307029 
L 177.399536 -129.709716 
L 176.833615 -128.112403 
L 176.270418 -126.51509 
L 175.710024 -124.917777 
L 175.153873 -123.320464 
L 174.605008 -121.723151 
L 174.067958 -120.125838 
L 173.548341 -118.528526 
L 173.05227 -116.931213 
L 172.585691 -115.3339 
L 172.153747 -113.736587 
L 171.760263 -112.139274 
L 171.407389 -110.541961 
L 171.095419 -108.944648 
L 170.822769 -107.347335 
L 170.586089 -105.750022 
L 170.38047 -104.152709 
L 170.199717 -102.555396 
L 170.036668 -100.958083 
L 169.883545 -99.360771 
L 169.732334 -97.763458 
L 169.575195 -96.166145 
L 169.40488 -94.568832 
L 169.215158 -92.971519 
L 169.001198 -91.374206 
L 168.759907 -89.776893 
L 168.490151 -88.17958 
L 168.192856 -86.582267 
L 167.870958 -84.984954 
L 167.529199 -83.387641 
L 167.173777 -81.790328 
L 166.811896 -80.193016 
L 166.451239 -78.595703 
L 166.099427 -76.99839 
L 165.763513 -75.401077 
L 165.449555 -73.803764 
L 165.162297 -72.206451 
L 164.904992 -70.609138 
L 164.679354 -69.011825 
L 164.485634 -67.414512 
L 164.322807 -65.817199 
L 164.188824 -64.219886 
L 164.080896 -62.622574 
L 163.995792 -61.025261 
L 163.930106 -59.427948 
z
" id="mba387f2300" style="stroke:#373737;stroke-width:0.8;"/>
    </defs>
    <g clip-path="url(#p1e5e56b804)">
     <use style="fill:#2b8e70;stroke:#373737;stroke-width:0.8;" x="0" xlink:href="#mba387f2300" y="264.035937"/>
    </g>
   </g>
   <g id="PolyCollection_2">
    <defs>
     <path d="M 387.805695 -45.155938 
L 386.11618 -45.155938 
L 385.887463 -47.192301 
L 385.615176 -49.228665 
L 385.296433 -51.265028 
L 384.929666 -53.301392 
L 384.51499 -55.337756 
L 384.054533 -57.374119 
L 383.552675 -59.410483 
L 383.016167 -61.446847 
L 382.454105 -63.48321 
L 381.877717 -65.519574 
L 381.299988 -67.555937 
L 380.735113 -69.592301 
L 380.197808 -71.628665 
L 379.702539 -73.665028 
L 379.262704 -75.701392 
L 378.889858 -77.737756 
L 378.593017 -79.774119 
L 378.378129 -81.810483 
L 378.24773 -83.846847 
L 378.200827 -85.88321 
L 378.23301 -87.919574 
L 378.336776 -89.955937 
L 378.50203 -91.992301 
L 378.716725 -94.028665 
L 378.967569 -96.065028 
L 379.240752 -98.101392 
L 379.522642 -100.137756 
L 379.800392 -102.174119 
L 380.062438 -104.210483 
L 380.298864 -106.246847 
L 380.501629 -108.28321 
L 380.664667 -110.319574 
L 380.783875 -112.355937 
L 380.857008 -114.392301 
L 380.883514 -116.428665 
L 380.864326 -118.465028 
L 380.801635 -120.501392 
L 380.698663 -122.537756 
L 380.559441 -124.574119 
L 380.388609 -126.610483 
L 380.191221 -128.646847 
L 379.972573 -130.68321 
L 379.738037 -132.719574 
L 379.492894 -134.755937 
L 379.24218 -136.792301 
L 378.990519 -138.828665 
L 378.741969 -140.865028 
L 378.499867 -142.901392 
L 378.266692 -144.937756 
L 378.043953 -146.974119 
L 377.832107 -149.010483 
L 377.630525 -151.046847 
L 377.437512 -153.08321 
L 377.250386 -155.119574 
L 377.065606 -157.155937 
L 376.878973 -159.192301 
L 376.685871 -161.228665 
L 376.481549 -163.265028 
L 376.261434 -165.301392 
L 376.02146 -167.337756 
L 375.758393 -169.374119 
L 375.470144 -171.410483 
L 375.156056 -173.446847 
L 374.81715 -175.48321 
L 374.456314 -177.519574 
L 374.078432 -179.555937 
L 373.690427 -181.592301 
L 373.301215 -183.628665 
L 372.921558 -185.665028 
L 372.563798 -187.701392 
L 372.24148 -189.737756 
L 371.968866 -191.774119 
L 371.760335 -193.810483 
L 371.629722 -195.846847 
L 371.589595 -197.88321 
L 371.650538 -199.919574 
L 371.820477 -201.955938 
L 372.1041 -203.992301 
L 372.502429 -206.028665 
L 373.012572 -208.065028 
L 373.627703 -210.101392 
L 374.337267 -212.137756 
L 375.127415 -214.174119 
L 375.981633 -216.210483 
L 376.881538 -218.246847 
L 377.807758 -220.28321 
L 378.740864 -222.319574 
L 379.662252 -224.355937 
L 380.554946 -226.392301 
L 381.404243 -228.428665 
L 382.198184 -230.465028 
L 382.92782 -232.501392 
L 383.587284 -234.537756 
L 384.173672 -236.574119 
L 384.68678 -238.610483 
L 385.128716 -240.646847 
L 385.503447 -242.68321 
L 385.816315 -244.719574 
L 386.073556 -246.755937 
L 387.848319 -246.755937 
L 387.848319 -246.755937 
L 388.10556 -244.719574 
L 388.418428 -242.68321 
L 388.793159 -240.646847 
L 389.235095 -238.610483 
L 389.748203 -236.574119 
L 390.334591 -234.537756 
L 390.994055 -232.501392 
L 391.723691 -230.465028 
L 392.517632 -228.428665 
L 393.366929 -226.392301 
L 394.259623 -224.355937 
L 395.181011 -222.319574 
L 396.114117 -220.28321 
L 397.040337 -218.246847 
L 397.940242 -216.210483 
L 398.79446 -214.174119 
L 399.584608 -212.137756 
L 400.294172 -210.101392 
L 400.909303 -208.065028 
L 401.419446 -206.028665 
L 401.817775 -203.992301 
L 402.101398 -201.955938 
L 402.271337 -199.919574 
L 402.33228 -197.88321 
L 402.292153 -195.846847 
L 402.16154 -193.810483 
L 401.953009 -191.774119 
L 401.680395 -189.737756 
L 401.358077 -187.701392 
L 401.000317 -185.665028 
L 400.62066 -183.628665 
L 400.231448 -181.592301 
L 399.843443 -179.555937 
L 399.465561 -177.519574 
L 399.104725 -175.48321 
L 398.765819 -173.446847 
L 398.451731 -171.410483 
L 398.163482 -169.374119 
L 397.900415 -167.337756 
L 397.660441 -165.301392 
L 397.440326 -163.265028 
L 397.236004 -161.228665 
L 397.042902 -159.192301 
L 396.856269 -157.155937 
L 396.671489 -155.119574 
L 396.484363 -153.08321 
L 396.29135 -151.046847 
L 396.089768 -149.010483 
L 395.877922 -146.974119 
L 395.655183 -144.937756 
L 395.422008 -142.901392 
L 395.179906 -140.865028 
L 394.931356 -138.828665 
L 394.679695 -136.792301 
L 394.428981 -134.755937 
L 394.183838 -132.719574 
L 393.949302 -130.68321 
L 393.730654 -128.646847 
L 393.533266 -126.610483 
L 393.362434 -124.574119 
L 393.223212 -122.537756 
L 393.12024 -120.501392 
L 393.057549 -118.465028 
L 393.038361 -116.428665 
L 393.064867 -114.392301 
L 393.138 -112.355937 
L 393.257208 -110.319574 
L 393.420246 -108.28321 
L 393.623011 -106.246847 
L 393.859437 -104.210483 
L 394.121483 -102.174119 
L 394.399233 -100.137756 
L 394.681123 -98.101392 
L 394.954306 -96.065028 
L 395.20515 -94.028665 
L 395.419845 -91.992301 
L 395.585099 -89.955937 
L 395.688865 -87.919574 
L 395.721048 -85.88321 
L 395.674145 -83.846847 
L 395.543746 -81.810483 
L 395.328858 -79.774119 
L 395.032017 -77.737756 
L 394.659171 -75.701392 
L 394.219336 -73.665028 
L 393.724067 -71.628665 
L 393.186762 -69.592301 
L 392.621887 -67.555937 
L 392.044158 -65.519574 
L 391.46777 -63.48321 
L 390.905708 -61.446847 
L 390.3692 -59.410483 
L 389.867342 -57.374119 
L 389.406885 -55.337756 
L 388.992209 -53.301392 
L 388.625442 -51.265028 
L 388.306699 -49.228665 
L 388.034412 -47.192301 
L 387.805695 -45.155938 
z
" id="m46afbcf797" style="stroke:#373737;stroke-width:0.8;"/>
    </defs>
    <g clip-path="url(#p1e5e56b804)">
     <use style="fill:#be631d;stroke:#373737;stroke-width:0.8;" x="0" xlink:href="#m46afbcf797" y="264.035937"/>
    </g>
   </g>
   <g id="PolyCollection_3">
    <defs>
     <path d="M 610.280046 -99.14756 
L 610.041829 -99.14756 
L 609.986161 -100.449448 
L 609.914723 -101.751337 
L 609.82794 -103.053225 
L 609.728555 -104.355113 
L 609.621925 -105.657001 
L 609.515807 -106.958889 
L 609.419559 -108.260778 
L 609.342805 -109.562666 
L 609.293781 -110.864554 
L 609.277753 -112.166442 
L 609.295848 -113.468331 
L 609.344623 -114.770219 
L 609.416463 -116.072107 
L 609.50071 -117.373995 
L 609.585265 -118.675884 
L 609.658314 -119.977772 
L 609.709896 -121.27966 
L 609.733111 -122.581548 
L 609.724888 -123.883436 
L 609.686314 -125.185325 
L 609.622512 -126.487213 
L 609.542098 -127.789101 
L 609.45617 -129.090989 
L 609.376903 -130.392878 
L 609.315862 -131.694766 
L 609.282303 -132.996654 
L 609.281777 -134.298542 
L 609.315348 -135.60043 
L 609.379637 -136.902319 
L 609.467647 -138.204207 
L 609.570195 -139.506095 
L 609.677568 -140.807983 
L 609.781019 -142.109872 
L 609.873807 -143.41176 
L 609.951597 -144.713648 
L 610.012246 -146.015536 
L 610.055077 -147.317424 
L 610.07984 -148.619313 
L 610.085517 -149.921201 
L 610.069125 -151.223089 
L 610.02465 -152.524977 
L 609.942243 -153.826866 
L 609.807899 -155.128754 
L 609.603869 -156.430642 
L 609.310106 -157.73253 
L 608.906931 -159.034418 
L 608.378921 -160.336307 
L 607.719605 -161.638195 
L 606.936201 -162.940083 
L 606.053239 -164.241971 
L 605.113824 -165.54386 
L 604.177546 -166.845748 
L 603.314679 -168.147636 
L 602.597207 -169.449524 
L 602.088161 -170.751413 
L 601.831399 -172.053301 
L 601.84411 -173.355189 
L 602.113807 -174.657077 
L 602.600584 -175.958965 
L 603.24412 -177.260854 
L 603.973839 -178.562742 
L 604.719945 -179.86463 
L 605.423061 -181.166518 
L 606.040726 -182.468407 
L 606.549949 -183.770295 
L 606.945962 -185.072183 
L 607.23801 -186.374071 
L 607.443311 -187.675959 
L 607.58015 -188.977848 
L 607.660675 -190.279736 
L 607.683421 -191.581624 
L 607.625287 -192.883512 
L 607.432778 -194.185401 
L 607.012917 -195.487289 
L 606.225369 -196.789177 
L 604.878779 -198.091065 
L 602.73567 -199.392953 
L 599.530758 -200.694842 
L 595.006425 -201.99673 
L 588.965741 -203.298618 
L 581.33784 -204.600506 
L 572.243774 -205.902395 
L 562.045375 -207.204283 
L 551.357837 -208.506171 
L 541.011112 -209.808059 
L 531.956069 -211.109947 
L 525.126689 -212.411836 
L 521.284542 -213.713724 
L 520.880938 -215.015612 
L 523.971203 -216.3175 
L 530.203641 -217.619389 
L 538.886302 -218.921277 
L 549.114125 -220.223165 
L 559.924222 -221.525053 
L 570.442629 -222.826941 
L 579.992421 -224.12883 
L 588.147162 -225.430718 
L 594.729827 -226.732606 
L 599.770172 -228.034494 
L 620.551703 -228.034494 
L 620.551703 -228.034494 
L 625.592048 -226.732606 
L 632.174713 -225.430718 
L 640.329454 -224.12883 
L 649.879246 -222.826941 
L 660.397653 -221.525053 
L 671.20775 -220.223165 
L 681.435573 -218.921277 
L 690.118234 -217.619389 
L 696.350672 -216.3175 
L 699.440938 -215.015612 
L 699.037333 -213.713724 
L 695.195186 -212.411836 
L 688.365806 -211.109947 
L 679.310763 -209.808059 
L 668.964038 -208.506171 
L 658.2765 -207.204283 
L 648.078101 -205.902395 
L 638.984035 -204.600506 
L 631.356134 -203.298618 
L 625.31545 -201.99673 
L 620.791117 -200.694842 
L 617.586205 -199.392953 
L 615.443096 -198.091065 
L 614.096506 -196.789177 
L 613.308958 -195.487289 
L 612.889097 -194.185401 
L 612.696588 -192.883512 
L 612.638454 -191.581624 
L 612.6612 -190.279736 
L 612.741725 -188.977848 
L 612.878564 -187.675959 
L 613.083865 -186.374071 
L 613.375913 -185.072183 
L 613.771926 -183.770295 
L 614.281149 -182.468407 
L 614.898814 -181.166518 
L 615.60193 -179.86463 
L 616.348036 -178.562742 
L 617.077755 -177.260854 
L 617.721291 -175.958965 
L 618.208068 -174.657077 
L 618.477765 -173.355189 
L 618.490476 -172.053301 
L 618.233714 -170.751413 
L 617.724668 -169.449524 
L 617.007196 -168.147636 
L 616.144329 -166.845748 
L 615.208051 -165.54386 
L 614.268636 -164.241971 
L 613.385674 -162.940083 
L 612.60227 -161.638195 
L 611.942954 -160.336307 
L 611.414944 -159.034418 
L 611.011769 -157.73253 
L 610.718006 -156.430642 
L 610.513976 -155.128754 
L 610.379632 -153.826866 
L 610.297225 -152.524977 
L 610.25275 -151.223089 
L 610.236358 -149.921201 
L 610.242035 -148.619313 
L 610.266798 -147.317424 
L 610.309629 -146.015536 
L 610.370278 -144.713648 
L 610.448068 -143.41176 
L 610.540856 -142.109872 
L 610.644307 -140.807983 
L 610.75168 -139.506095 
L 610.854228 -138.204207 
L 610.942238 -136.902319 
L 611.006527 -135.60043 
L 611.040098 -134.298542 
L 611.039572 -132.996654 
L 611.006013 -131.694766 
L 610.944972 -130.392878 
L 610.865705 -129.090989 
L 610.779777 -127.789101 
L 610.699363 -126.487213 
L 610.635561 -125.185325 
L 610.596987 -123.883436 
L 610.588764 -122.581548 
L 610.611979 -121.27966 
L 610.663561 -119.977772 
L 610.73661 -118.675884 
L 610.821165 -117.373995 
L 610.905412 -116.072107 
L 610.977252 -114.770219 
L 611.026027 -113.468331 
L 611.044122 -112.166442 
L 611.028094 -110.864554 
L 610.97907 -109.562666 
L 610.902316 -108.260778 
L 610.806068 -106.958889 
L 610.69995 -105.657001 
L 610.59332 -104.355113 
L 610.493935 -103.053225 
L 610.407152 -101.751337 
L 610.335714 -100.449448 
L 610.280046 -99.14756 
z
" id="me627743fd5" style="stroke:#373737;stroke-width:0.8;"/>
    </defs>
    <g clip-path="url(#p1e5e56b804)">
     <use style="fill:#7c78ab;stroke:#373737;stroke-width:0.8;" x="0" xlink:href="#me627743fd5" y="264.035937"/>
    </g>
   </g>
   <g id="matplotlib.axis_1">
    <g id="xtick_1">
     <g id="line2d_1">
      <defs>
       <path d="M 0 0 
L 0 3.5 
" id="mb044a5074e" style="stroke:#000000;stroke-width:0.8;"/>
      </defs>
      <g>
       <use style="stroke:#000000;stroke-width:0.8;" x="163.760938" xlink:href="#mb044a5074e" y="228.96"/>
      </g>
     </g>
     <g id="text_1">
      <!-- Treated substrate -->
      <g transform="translate(119.892188 243.558437)scale(0.1 -0.1)">
       <defs>
        <path d="M -0.296875 72.90625 
L 61.375 72.90625 
L 61.375 64.59375 
L 35.5 64.59375 
L 35.5 0 
L 25.59375 0 
L 25.59375 64.59375 
L -0.296875 64.59375 
z
" id="DejaVuSans-84"/>
        <path d="M 41.109375 46.296875 
Q 39.59375 47.171875 37.8125 47.578125 
Q 36.03125 48 33.890625 48 
Q 26.265625 48 22.1875 43.046875 
Q 18.109375 38.09375 18.109375 28.8125 
L 18.109375 0 
L 9.078125 0 
L 9.078125 54.6875 
L 18.109375 54.6875 
L 18.109375 46.1875 
Q 20.953125 51.171875 25.484375 53.578125 
Q 30.03125 56 36.53125 56 
Q 37.453125 56 38.578125 55.875 
Q 39.703125 55.765625 41.0625 55.515625 
z
" id="DejaVuSans-114"/>
        <path d="M 56.203125 29.59375 
L 56.203125 25.203125 
L 14.890625 25.203125 
Q 15.484375 15.921875 20.484375 11.0625 
Q 25.484375 6.203125 34.421875 6.203125 
Q 39.59375 6.203125 44.453125 7.46875 
Q 49.3125 8.734375 54.109375 11.28125 
L 54.109375 2.78125 
Q 49.265625 0.734375 44.1875 -0.34375 
Q 39.109375 -1.421875 33.890625 -1.421875 
Q 20.796875 -1.421875 13.15625 6.1875 
Q 5.515625 13.8125 5.515625 26.8125 
Q 5.515625 40.234375 12.765625 48.109375 
Q 20.015625 56 32.328125 56 
Q 43.359375 56 49.78125 48.890625 
Q 56.203125 41.796875 56.203125 29.59375 
z
M 47.21875 32.234375 
Q 47.125 39.59375 43.09375 43.984375 
Q 39.0625 48.390625 32.421875 48.390625 
Q 24.90625 48.390625 20.390625 44.140625 
Q 15.875 39.890625 15.1875 32.171875 
z
" id="DejaVuSans-101"/>
        <path d="M 34.28125 27.484375 
Q 23.390625 27.484375 19.1875 25 
Q 14.984375 22.515625 14.984375 16.5 
Q 14.984375 11.71875 18.140625 8.90625 
Q 21.296875 6.109375 26.703125 6.109375 
Q 34.1875 6.109375 38.703125 11.40625 
Q 43.21875 16.703125 43.21875 25.484375 
L 43.21875 27.484375 
z
M 52.203125 31.203125 
L 52.203125 0 
L 43.21875 0 
L 43.21875 8.296875 
Q 40.140625 3.328125 35.546875 0.953125 
Q 30.953125 -1.421875 24.3125 -1.421875 
Q 15.921875 -1.421875 10.953125 3.296875 
Q 6 8.015625 6 15.921875 
Q 6 25.140625 12.171875 29.828125 
Q 18.359375 34.515625 30.609375 34.515625 
L 43.21875 34.515625 
L 43.21875 35.40625 
Q 43.21875 41.609375 39.140625 45 
Q 35.0625 48.390625 27.6875 48.390625 
Q 23 48.390625 18.546875 47.265625 
Q 14.109375 46.140625 10.015625 43.890625 
L 10.015625 52.203125 
Q 14.9375 54.109375 19.578125 55.046875 
Q 24.21875 56 28.609375 56 
Q 40.484375 56 46.34375 49.84375 
Q 52.203125 43.703125 52.203125 31.203125 
z
" id="DejaVuSans-97"/>
        <path d="M 18.3125 70.21875 
L 18.3125 54.6875 
L 36.8125 54.6875 
L 36.8125 47.703125 
L 18.3125 47.703125 
L 18.3125 18.015625 
Q 18.3125 11.328125 20.140625 9.421875 
Q 21.96875 7.515625 27.59375 7.515625 
L 36.8125 7.515625 
L 36.8125 0 
L 27.59375 0 
Q 17.1875 0 13.234375 3.875 
Q 9.28125 7.765625 9.28125 18.015625 
L 9.28125 47.703125 
L 2.6875 47.703125 
L 2.6875 54.6875 
L 9.28125 54.6875 
L 9.28125 70.21875 
z
" id="DejaVuSans-116"/>
        <path d="M 45.40625 46.390625 
L 45.40625 75.984375 
L 54.390625 75.984375 
L 54.390625 0 
L 45.40625 0 
L 45.40625 8.203125 
Q 42.578125 3.328125 38.25 0.953125 
Q 33.9375 -1.421875 27.875 -1.421875 
Q 17.96875 -1.421875 11.734375 6.484375 
Q 5.515625 14.40625 5.515625 27.296875 
Q 5.515625 40.1875 11.734375 48.09375 
Q 17.96875 56 27.875 56 
Q 33.9375 56 38.25 53.625 
Q 42.578125 51.265625 45.40625 46.390625 
z
M 14.796875 27.296875 
Q 14.796875 17.390625 18.875 11.75 
Q 22.953125 6.109375 30.078125 6.109375 
Q 37.203125 6.109375 41.296875 11.75 
Q 45.40625 17.390625 45.40625 27.296875 
Q 45.40625 37.203125 41.296875 42.84375 
Q 37.203125 48.484375 30.078125 48.484375 
Q 22.953125 48.484375 18.875 42.84375 
Q 14.796875 37.203125 14.796875 27.296875 
z
" id="DejaVuSans-100"/>
        <path id="DejaVuSans-32"/>
        <path d="M 44.28125 53.078125 
L 44.28125 44.578125 
Q 40.484375 46.53125 36.375 47.5 
Q 32.28125 48.484375 27.875 48.484375 
Q 21.1875 48.484375 17.84375 46.4375 
Q 14.5 44.390625 14.5 40.28125 
Q 14.5 37.15625 16.890625 35.375 
Q 19.28125 33.59375 26.515625 31.984375 
L 29.59375 31.296875 
Q 39.15625 29.25 43.1875 25.515625 
Q 47.21875 21.78125 47.21875 15.09375 
Q 47.21875 7.46875 41.1875 3.015625 
Q 35.15625 -1.421875 24.609375 -1.421875 
Q 20.21875 -1.421875 15.453125 -0.5625 
Q 10.6875 0.296875 5.421875 2 
L 5.421875 11.28125 
Q 10.40625 8.6875 15.234375 7.390625 
Q 20.0625 6.109375 24.8125 6.109375 
Q 31.15625 6.109375 34.5625 8.28125 
Q 37.984375 10.453125 37.984375 14.40625 
Q 37.984375 18.0625 35.515625 20.015625 
Q 33.0625 21.96875 24.703125 23.78125 
L 21.578125 24.515625 
Q 13.234375 26.265625 9.515625 29.90625 
Q 5.8125 33.546875 5.8125 39.890625 
Q 5.8125 47.609375 11.28125 51.796875 
Q 16.75 56 26.8125 56 
Q 31.78125 56 36.171875 55.265625 
Q 40.578125 54.546875 44.28125 53.078125 
z
" id="DejaVuSans-115"/>
        <path d="M 8.5 21.578125 
L 8.5 54.6875 
L 17.484375 54.6875 
L 17.484375 21.921875 
Q 17.484375 14.15625 20.5 10.265625 
Q 23.53125 6.390625 29.59375 6.390625 
Q 36.859375 6.390625 41.078125 11.03125 
Q 45.3125 15.671875 45.3125 23.6875 
L 45.3125 54.6875 
L 54.296875 54.6875 
L 54.296875 0 
L 45.3125 0 
L 45.3125 8.40625 
Q 42.046875 3.421875 37.71875 1 
Q 33.40625 -1.421875 27.6875 -1.421875 
Q 18.265625 -1.421875 13.375 4.4375 
Q 8.5 10.296875 8.5 21.578125 
z
M 31.109375 56 
z
" id="DejaVuSans-117"/>
        <path d="M 48.6875 27.296875 
Q 48.6875 37.203125 44.609375 42.84375 
Q 40.53125 48.484375 33.40625 48.484375 
Q 26.265625 48.484375 22.1875 42.84375 
Q 18.109375 37.203125 18.109375 27.296875 
Q 18.109375 17.390625 22.1875 11.75 
Q 26.265625 6.109375 33.40625 6.109375 
Q 40.53125 6.109375 44.609375 11.75 
Q 48.6875 17.390625 48.6875 27.296875 
z
M 18.109375 46.390625 
Q 20.953125 51.265625 25.265625 53.625 
Q 29.59375 56 35.59375 56 
Q 45.5625 56 51.78125 48.09375 
Q 58.015625 40.1875 58.015625 27.296875 
Q 58.015625 14.40625 51.78125 6.484375 
Q 45.5625 -1.421875 35.59375 -1.421875 
Q 29.59375 -1.421875 25.265625 0.953125 
Q 20.953125 3.328125 18.109375 8.203125 
L 18.109375 0 
L 9.078125 0 
L 9.078125 75.984375 
L 18.109375 75.984375 
z
" id="DejaVuSans-98"/>
       </defs>
       <use xlink:href="#DejaVuSans-84"/>
       <use x="46.333984" xlink:href="#DejaVuSans-114"/>
       <use x="85.197266" xlink:href="#DejaVuSans-101"/>
       <use x="146.720703" xlink:href="#DejaVuSans-97"/>
       <use x="208" xlink:href="#DejaVuSans-116"/>
       <use x="247.208984" xlink:href="#DejaVuSans-101"/>
       <use x="308.732422" xlink:href="#DejaVuSans-100"/>
       <use x="372.208984" xlink:href="#DejaVuSans-32"/>
       <use x="403.996094" xlink:href="#DejaVuSans-115"/>
       <use x="456.095703" xlink:href="#DejaVuSans-117"/>
       <use x="519.474609" xlink:href="#DejaVuSans-98"/>
       <use x="582.951172" xlink:href="#DejaVuSans-115"/>
       <use x="635.050781" xlink:href="#DejaVuSans-116"/>
       <use x="674.259766" xlink:href="#DejaVuSans-114"/>
       <use x="715.373047" xlink:href="#DejaVuSans-97"/>
       <use x="776.652344" xlink:href="#DejaVuSans-116"/>
       <use x="815.861328" xlink:href="#DejaVuSans-101"/>
      </g>
      <!-- (step width=0.43±0.04μm) -->
      <g transform="translate(94.976563 254.75625)scale(0.1 -0.1)">
       <defs>
        <path d="M 31 75.875 
Q 24.46875 64.65625 21.28125 53.65625 
Q 18.109375 42.671875 18.109375 31.390625 
Q 18.109375 20.125 21.3125 9.0625 
Q 24.515625 -2 31 -13.1875 
L 23.1875 -13.1875 
Q 15.875 -1.703125 12.234375 9.375 
Q 8.59375 20.453125 8.59375 31.390625 
Q 8.59375 42.28125 12.203125 53.3125 
Q 15.828125 64.359375 23.1875 75.875 
z
" id="DejaVuSans-40"/>
        <path d="M 18.109375 8.203125 
L 18.109375 -20.796875 
L 9.078125 -20.796875 
L 9.078125 54.6875 
L 18.109375 54.6875 
L 18.109375 46.390625 
Q 20.953125 51.265625 25.265625 53.625 
Q 29.59375 56 35.59375 56 
Q 45.5625 56 51.78125 48.09375 
Q 58.015625 40.1875 58.015625 27.296875 
Q 58.015625 14.40625 51.78125 6.484375 
Q 45.5625 -1.421875 35.59375 -1.421875 
Q 29.59375 -1.421875 25.265625 0.953125 
Q 20.953125 3.328125 18.109375 8.203125 
z
M 48.6875 27.296875 
Q 48.6875 37.203125 44.609375 42.84375 
Q 40.53125 48.484375 33.40625 48.484375 
Q 26.265625 48.484375 22.1875 42.84375 
Q 18.109375 37.203125 18.109375 27.296875 
Q 18.109375 17.390625 22.1875 11.75 
Q 26.265625 6.109375 33.40625 6.109375 
Q 40.53125 6.109375 44.609375 11.75 
Q 48.6875 17.390625 48.6875 27.296875 
z
" id="DejaVuSans-112"/>
        <path d="M 4.203125 54.6875 
L 13.1875 54.6875 
L 24.421875 12.015625 
L 35.59375 54.6875 
L 46.1875 54.6875 
L 57.421875 12.015625 
L 68.609375 54.6875 
L 77.59375 54.6875 
L 63.28125 0 
L 52.6875 0 
L 40.921875 44.828125 
L 29.109375 0 
L 18.5 0 
z
" id="DejaVuSans-119"/>
        <path d="M 9.421875 54.6875 
L 18.40625 54.6875 
L 18.40625 0 
L 9.421875 0 
z
M 9.421875 75.984375 
L 18.40625 75.984375 
L 18.40625 64.59375 
L 9.421875 64.59375 
z
" id="DejaVuSans-105"/>
        <path d="M 54.890625 33.015625 
L 54.890625 0 
L 45.90625 0 
L 45.90625 32.71875 
Q 45.90625 40.484375 42.875 44.328125 
Q 39.84375 48.1875 33.796875 48.1875 
Q 26.515625 48.1875 22.3125 43.546875 
Q 18.109375 38.921875 18.109375 30.90625 
L 18.109375 0 
L 9.078125 0 
L 9.078125 75.984375 
L 18.109375 75.984375 
L 18.109375 46.1875 
Q 21.34375 51.125 25.703125 53.5625 
Q 30.078125 56 35.796875 56 
Q 45.21875 56 50.046875 50.171875 
Q 54.890625 44.34375 54.890625 33.015625 
z
" id="DejaVuSans-104"/>
        <path d="M 10.59375 45.40625 
L 73.1875 45.40625 
L 73.1875 37.203125 
L 10.59375 37.203125 
z
M 10.59375 25.484375 
L 73.1875 25.484375 
L 73.1875 17.1875 
L 10.59375 17.1875 
z
" id="DejaVuSans-61"/>
        <path d="M 31.78125 66.40625 
Q 24.171875 66.40625 20.328125 58.90625 
Q 16.5 51.421875 16.5 36.375 
Q 16.5 21.390625 20.328125 13.890625 
Q 24.171875 6.390625 31.78125 6.390625 
Q 39.453125 6.390625 43.28125 13.890625 
Q 47.125 21.390625 47.125 36.375 
Q 47.125 51.421875 43.28125 58.90625 
Q 39.453125 66.40625 31.78125 66.40625 
z
M 31.78125 74.21875 
Q 44.046875 74.21875 50.515625 64.515625 
Q 56.984375 54.828125 56.984375 36.375 
Q 56.984375 17.96875 50.515625 8.265625 
Q 44.046875 -1.421875 31.78125 -1.421875 
Q 19.53125 -1.421875 13.0625 8.265625 
Q 6.59375 17.96875 6.59375 36.375 
Q 6.59375 54.828125 13.0625 64.515625 
Q 19.53125 74.21875 31.78125 74.21875 
z
" id="DejaVuSans-48"/>
        <path d="M 10.6875 12.40625 
L 21 12.40625 
L 21 0 
L 10.6875 0 
z
" id="DejaVuSans-46"/>
        <path d="M 37.796875 64.3125 
L 12.890625 25.390625 
L 37.796875 25.390625 
z
M 35.203125 72.90625 
L 47.609375 72.90625 
L 47.609375 25.390625 
L 58.015625 25.390625 
L 58.015625 17.1875 
L 47.609375 17.1875 
L 47.609375 0 
L 37.796875 0 
L 37.796875 17.1875 
L 4.890625 17.1875 
L 4.890625 26.703125 
z
" id="DejaVuSans-52"/>
        <path d="M 40.578125 39.3125 
Q 47.65625 37.796875 51.625 33 
Q 55.609375 28.21875 55.609375 21.1875 
Q 55.609375 10.40625 48.1875 4.484375 
Q 40.765625 -1.421875 27.09375 -1.421875 
Q 22.515625 -1.421875 17.65625 -0.515625 
Q 12.796875 0.390625 7.625 2.203125 
L 7.625 11.71875 
Q 11.71875 9.328125 16.59375 8.109375 
Q 21.484375 6.890625 26.8125 6.890625 
Q 36.078125 6.890625 40.9375 10.546875 
Q 45.796875 14.203125 45.796875 21.1875 
Q 45.796875 27.640625 41.28125 31.265625 
Q 36.765625 34.90625 28.71875 34.90625 
L 20.21875 34.90625 
L 20.21875 43.015625 
L 29.109375 43.015625 
Q 36.375 43.015625 40.234375 45.921875 
Q 44.09375 48.828125 44.09375 54.296875 
Q 44.09375 59.90625 40.109375 62.90625 
Q 36.140625 65.921875 28.71875 65.921875 
Q 24.65625 65.921875 20.015625 65.03125 
Q 15.375 64.15625 9.8125 62.3125 
L 9.8125 71.09375 
Q 15.4375 72.65625 20.34375 73.4375 
Q 25.25 74.21875 29.59375 74.21875 
Q 40.828125 74.21875 47.359375 69.109375 
Q 53.90625 64.015625 53.90625 55.328125 
Q 53.90625 49.265625 50.4375 45.09375 
Q 46.96875 40.921875 40.578125 39.3125 
z
" id="DejaVuSans-51"/>
        <path d="M 46 62.703125 
L 46 43.796875 
L 73.1875 43.796875 
L 73.1875 35.5 
L 46 35.5 
L 46 16.609375 
L 37.796875 16.609375 
L 37.796875 35.5 
L 10.59375 35.5 
L 10.59375 43.796875 
L 37.796875 43.796875 
L 37.796875 62.703125 
z
M 10.59375 8.296875 
L 73.1875 8.296875 
L 73.1875 0 
L 10.59375 0 
z
" id="DejaVuSans-177"/>
        <path d="M 8.5 -20.796875 
L 8.5 54.6875 
L 17.484375 54.6875 
L 17.484375 20.703125 
Q 17.484375 13.625 20.84375 10 
Q 24.21875 6.390625 30.8125 6.390625 
Q 38.03125 6.390625 41.671875 10.484375 
Q 45.3125 14.59375 45.3125 22.796875 
L 45.3125 54.6875 
L 54.296875 54.6875 
L 54.296875 12.59375 
Q 54.296875 9.671875 55.140625 8.28125 
Q 56 6.890625 57.8125 6.890625 
Q 58.25 6.890625 59.03125 7.15625 
Q 59.8125 7.421875 61.1875 8.015625 
L 61.1875 0.78125 
Q 59.1875 -0.34375 57.390625 -0.875 
Q 55.609375 -1.421875 53.90625 -1.421875 
Q 50.53125 -1.421875 48.53125 0.484375 
Q 46.53125 2.390625 45.796875 6.296875 
Q 43.359375 2.4375 39.8125 0.5 
Q 36.28125 -1.421875 31.5 -1.421875 
Q 26.515625 -1.421875 23.015625 0.484375 
Q 19.53125 2.390625 17.484375 6.203125 
L 17.484375 -20.796875 
z
" id="DejaVuSans-956"/>
        <path d="M 52 44.1875 
Q 55.375 50.25 60.0625 53.125 
Q 64.75 56 71.09375 56 
Q 79.640625 56 84.28125 50.015625 
Q 88.921875 44.046875 88.921875 33.015625 
L 88.921875 0 
L 79.890625 0 
L 79.890625 32.71875 
Q 79.890625 40.578125 77.09375 44.375 
Q 74.3125 48.1875 68.609375 48.1875 
Q 61.625 48.1875 57.5625 43.546875 
Q 53.515625 38.921875 53.515625 30.90625 
L 53.515625 0 
L 44.484375 0 
L 44.484375 32.71875 
Q 44.484375 40.625 41.703125 44.40625 
Q 38.921875 48.1875 33.109375 48.1875 
Q 26.21875 48.1875 22.15625 43.53125 
Q 18.109375 38.875 18.109375 30.90625 
L 18.109375 0 
L 9.078125 0 
L 9.078125 54.6875 
L 18.109375 54.6875 
L 18.109375 46.1875 
Q 21.1875 51.21875 25.484375 53.609375 
Q 29.78125 56 35.6875 56 
Q 41.65625 56 45.828125 52.96875 
Q 50 49.953125 52 44.1875 
z
" id="DejaVuSans-109"/>
        <path d="M 8.015625 75.875 
L 15.828125 75.875 
Q 23.140625 64.359375 26.78125 53.3125 
Q 30.421875 42.28125 30.421875 31.390625 
Q 30.421875 20.453125 26.78125 9.375 
Q 23.140625 -1.703125 15.828125 -13.1875 
L 8.015625 -13.1875 
Q 14.5 -2 17.703125 9.0625 
Q 20.90625 20.125 20.90625 31.390625 
Q 20.90625 42.671875 17.703125 53.65625 
Q 14.5 64.65625 8.015625 75.875 
z
" id="DejaVuSans-41"/>
       </defs>
       <use xlink:href="#DejaVuSans-40"/>
       <use x="39.013672" xlink:href="#DejaVuSans-115"/>
       <use x="91.113281" xlink:href="#DejaVuSans-116"/>
       <use x="130.322266" xlink:href="#DejaVuSans-101"/>
       <use x="191.845703" xlink:href="#DejaVuSans-112"/>
       <use x="255.322266" xlink:href="#DejaVuSans-32"/>
       <use x="287.109375" xlink:href="#DejaVuSans-119"/>
       <use x="368.896484" xlink:href="#DejaVuSans-105"/>
       <use x="396.679688" xlink:href="#DejaVuSans-100"/>
       <use x="460.15625" xlink:href="#DejaVuSans-116"/>
       <use x="499.365234" xlink:href="#DejaVuSans-104"/>
       <use x="562.744141" xlink:href="#DejaVuSans-61"/>
       <use x="646.533203" xlink:href="#DejaVuSans-48"/>
       <use x="710.15625" xlink:href="#DejaVuSans-46"/>
       <use x="741.943359" xlink:href="#DejaVuSans-52"/>
       <use x="805.566406" xlink:href="#DejaVuSans-51"/>
       <use x="869.189453" xlink:href="#DejaVuSans-177"/>
       <use x="952.978516" xlink:href="#DejaVuSans-48"/>
       <use x="1016.601562" xlink:href="#DejaVuSans-46"/>
       <use x="1048.388672" xlink:href="#DejaVuSans-48"/>
       <use x="1112.011719" xlink:href="#DejaVuSans-52"/>
       <use x="1175.634766" xlink:href="#DejaVuSans-956"/>
       <use x="1239.257812" xlink:href="#DejaVuSans-109"/>
       <use x="1336.669922" xlink:href="#DejaVuSans-41"/>
      </g>
     </g>
    </g>
    <g id="xtick_2">
     <g id="line2d_2">
      <g>
       <use style="stroke:#000000;stroke-width:0.8;" x="386.960938" xlink:href="#mb044a5074e" y="228.96"/>
      </g>
     </g>
     <g id="text_2">
      <!-- Treated substrate -->
      <g transform="translate(343.092188 243.558437)scale(0.1 -0.1)">
       <use xlink:href="#DejaVuSans-84"/>
       <use x="46.333984" xlink:href="#DejaVuSans-114"/>
       <use x="85.197266" xlink:href="#DejaVuSans-101"/>
       <use x="146.720703" xlink:href="#DejaVuSans-97"/>
       <use x="208" xlink:href="#DejaVuSans-116"/>
       <use x="247.208984" xlink:href="#DejaVuSans-101"/>
       <use x="308.732422" xlink:href="#DejaVuSans-100"/>
       <use x="372.208984" xlink:href="#DejaVuSans-32"/>
       <use x="403.996094" xlink:href="#DejaVuSans-115"/>
       <use x="456.095703" xlink:href="#DejaVuSans-117"/>
       <use x="519.474609" xlink:href="#DejaVuSans-98"/>
       <use x="582.951172" xlink:href="#DejaVuSans-115"/>
       <use x="635.050781" xlink:href="#DejaVuSans-116"/>
       <use x="674.259766" xlink:href="#DejaVuSans-114"/>
       <use x="715.373047" xlink:href="#DejaVuSans-97"/>
       <use x="776.652344" xlink:href="#DejaVuSans-116"/>
       <use x="815.861328" xlink:href="#DejaVuSans-101"/>
      </g>
      <!-- (step width=0.11±0.01μm) -->
      <g transform="translate(318.176562 254.75625)scale(0.1 -0.1)">
       <defs>
        <path d="M 12.40625 8.296875 
L 28.515625 8.296875 
L 28.515625 63.921875 
L 10.984375 60.40625 
L 10.984375 69.390625 
L 28.421875 72.90625 
L 38.28125 72.90625 
L 38.28125 8.296875 
L 54.390625 8.296875 
L 54.390625 0 
L 12.40625 0 
z
" id="DejaVuSans-49"/>
       </defs>
       <use xlink:href="#DejaVuSans-40"/>
       <use x="39.013672" xlink:href="#DejaVuSans-115"/>
       <use x="91.113281" xlink:href="#DejaVuSans-116"/>
       <use x="130.322266" xlink:href="#DejaVuSans-101"/>
       <use x="191.845703" xlink:href="#DejaVuSans-112"/>
       <use x="255.322266" xlink:href="#DejaVuSans-32"/>
       <use x="287.109375" xlink:href="#DejaVuSans-119"/>
       <use x="368.896484" xlink:href="#DejaVuSans-105"/>
       <use x="396.679688" xlink:href="#DejaVuSans-100"/>
       <use x="460.15625" xlink:href="#DejaVuSans-116"/>
       <use x="499.365234" xlink:href="#DejaVuSans-104"/>
       <use x="562.744141" xlink:href="#DejaVuSans-61"/>
       <use x="646.533203" xlink:href="#DejaVuSans-48"/>
       <use x="710.15625" xlink:href="#DejaVuSans-46"/>
       <use x="741.943359" xlink:href="#DejaVuSans-49"/>
       <use x="805.566406" xlink:href="#DejaVuSans-49"/>
       <use x="869.189453" xlink:href="#DejaVuSans-177"/>
       <use x="952.978516" xlink:href="#DejaVuSans-48"/>
       <use x="1016.601562" xlink:href="#DejaVuSans-46"/>
       <use x="1048.388672" xlink:href="#DejaVuSans-48"/>
       <use x="1112.011719" xlink:href="#DejaVuSans-49"/>
       <use x="1175.634766" xlink:href="#DejaVuSans-956"/>
       <use x="1239.257812" xlink:href="#DejaVuSans-109"/>
       <use x="1336.669922" xlink:href="#DejaVuSans-41"/>
      </g>
     </g>
    </g>
    <g id="xtick_3">
     <g id="line2d_3">
      <g>
       <use style="stroke:#000000;stroke-width:0.8;" x="610.160938" xlink:href="#mb044a5074e" y="228.96"/>
      </g>
     </g>
     <g id="text_3">
      <!-- Untreated substrate -->
      <g transform="translate(559.820312 243.558437)scale(0.1 -0.1)">
       <defs>
        <path d="M 8.6875 72.90625 
L 18.609375 72.90625 
L 18.609375 28.609375 
Q 18.609375 16.890625 22.84375 11.734375 
Q 27.09375 6.59375 36.625 6.59375 
Q 46.09375 6.59375 50.34375 11.734375 
Q 54.59375 16.890625 54.59375 28.609375 
L 54.59375 72.90625 
L 64.5 72.90625 
L 64.5 27.390625 
Q 64.5 13.140625 57.4375 5.859375 
Q 50.390625 -1.421875 36.625 -1.421875 
Q 22.796875 -1.421875 15.734375 5.859375 
Q 8.6875 13.140625 8.6875 27.390625 
z
" id="DejaVuSans-85"/>
        <path d="M 54.890625 33.015625 
L 54.890625 0 
L 45.90625 0 
L 45.90625 32.71875 
Q 45.90625 40.484375 42.875 44.328125 
Q 39.84375 48.1875 33.796875 48.1875 
Q 26.515625 48.1875 22.3125 43.546875 
Q 18.109375 38.921875 18.109375 30.90625 
L 18.109375 0 
L 9.078125 0 
L 9.078125 54.6875 
L 18.109375 54.6875 
L 18.109375 46.1875 
Q 21.34375 51.125 25.703125 53.5625 
Q 30.078125 56 35.796875 56 
Q 45.21875 56 50.046875 50.171875 
Q 54.890625 44.34375 54.890625 33.015625 
z
" id="DejaVuSans-110"/>
       </defs>
       <use xlink:href="#DejaVuSans-85"/>
       <use x="73.193359" xlink:href="#DejaVuSans-110"/>
       <use x="136.572266" xlink:href="#DejaVuSans-116"/>
       <use x="175.78125" xlink:href="#DejaVuSans-114"/>
       <use x="214.644531" xlink:href="#DejaVuSans-101"/>
       <use x="276.167969" xlink:href="#DejaVuSans-97"/>
       <use x="337.447266" xlink:href="#DejaVuSans-116"/>
       <use x="376.65625" xlink:href="#DejaVuSans-101"/>
       <use x="438.179688" xlink:href="#DejaVuSans-100"/>
       <use x="501.65625" xlink:href="#DejaVuSans-32"/>
       <use x="533.443359" xlink:href="#DejaVuSans-115"/>
       <use x="585.542969" xlink:href="#DejaVuSans-117"/>
       <use x="648.921875" xlink:href="#DejaVuSans-98"/>
       <use x="712.398438" xlink:href="#DejaVuSans-115"/>
       <use x="764.498047" xlink:href="#DejaVuSans-116"/>
       <use x="803.707031" xlink:href="#DejaVuSans-114"/>
       <use x="844.820312" xlink:href="#DejaVuSans-97"/>
       <use x="906.099609" xlink:href="#DejaVuSans-116"/>
       <use x="945.308594" xlink:href="#DejaVuSans-101"/>
      </g>
      <!-- (step width=0.28±0.03μm) -->
      <g transform="translate(541.376563 254.75625)scale(0.1 -0.1)">
       <defs>
        <path d="M 19.1875 8.296875 
L 53.609375 8.296875 
L 53.609375 0 
L 7.328125 0 
L 7.328125 8.296875 
Q 12.9375 14.109375 22.625 23.890625 
Q 32.328125 33.6875 34.8125 36.53125 
Q 39.546875 41.84375 41.421875 45.53125 
Q 43.3125 49.21875 43.3125 52.78125 
Q 43.3125 58.59375 39.234375 62.25 
Q 35.15625 65.921875 28.609375 65.921875 
Q 23.96875 65.921875 18.8125 64.3125 
Q 13.671875 62.703125 7.8125 59.421875 
L 7.8125 69.390625 
Q 13.765625 71.78125 18.9375 73 
Q 24.125 74.21875 28.421875 74.21875 
Q 39.75 74.21875 46.484375 68.546875 
Q 53.21875 62.890625 53.21875 53.421875 
Q 53.21875 48.921875 51.53125 44.890625 
Q 49.859375 40.875 45.40625 35.40625 
Q 44.1875 33.984375 37.640625 27.21875 
Q 31.109375 20.453125 19.1875 8.296875 
z
" id="DejaVuSans-50"/>
        <path d="M 31.78125 34.625 
Q 24.75 34.625 20.71875 30.859375 
Q 16.703125 27.09375 16.703125 20.515625 
Q 16.703125 13.921875 20.71875 10.15625 
Q 24.75 6.390625 31.78125 6.390625 
Q 38.8125 6.390625 42.859375 10.171875 
Q 46.921875 13.96875 46.921875 20.515625 
Q 46.921875 27.09375 42.890625 30.859375 
Q 38.875 34.625 31.78125 34.625 
z
M 21.921875 38.8125 
Q 15.578125 40.375 12.03125 44.71875 
Q 8.5 49.078125 8.5 55.328125 
Q 8.5 64.0625 14.71875 69.140625 
Q 20.953125 74.21875 31.78125 74.21875 
Q 42.671875 74.21875 48.875 69.140625 
Q 55.078125 64.0625 55.078125 55.328125 
Q 55.078125 49.078125 51.53125 44.71875 
Q 48 40.375 41.703125 38.8125 
Q 48.828125 37.15625 52.796875 32.3125 
Q 56.78125 27.484375 56.78125 20.515625 
Q 56.78125 9.90625 50.3125 4.234375 
Q 43.84375 -1.421875 31.78125 -1.421875 
Q 19.734375 -1.421875 13.25 4.234375 
Q 6.78125 9.90625 6.78125 20.515625 
Q 6.78125 27.484375 10.78125 32.3125 
Q 14.796875 37.15625 21.921875 38.8125 
z
M 18.3125 54.390625 
Q 18.3125 48.734375 21.84375 45.5625 
Q 25.390625 42.390625 31.78125 42.390625 
Q 38.140625 42.390625 41.71875 45.5625 
Q 45.3125 48.734375 45.3125 54.390625 
Q 45.3125 60.0625 41.71875 63.234375 
Q 38.140625 66.40625 31.78125 66.40625 
Q 25.390625 66.40625 21.84375 63.234375 
Q 18.3125 60.0625 18.3125 54.390625 
z
" id="DejaVuSans-56"/>
       </defs>
       <use xlink:href="#DejaVuSans-40"/>
       <use x="39.013672" xlink:href="#DejaVuSans-115"/>
       <use x="91.113281" xlink:href="#DejaVuSans-116"/>
       <use x="130.322266" xlink:href="#DejaVuSans-101"/>
       <use x="191.845703" xlink:href="#DejaVuSans-112"/>
       <use x="255.322266" xlink:href="#DejaVuSans-32"/>
       <use x="287.109375" xlink:href="#DejaVuSans-119"/>
       <use x="368.896484" xlink:href="#DejaVuSans-105"/>
       <use x="396.679688" xlink:href="#DejaVuSans-100"/>
       <use x="460.15625" xlink:href="#DejaVuSans-116"/>
       <use x="499.365234" xlink:href="#DejaVuSans-104"/>
       <use x="562.744141" xlink:href="#DejaVuSans-61"/>
       <use x="646.533203" xlink:href="#DejaVuSans-48"/>
       <use x="710.15625" xlink:href="#DejaVuSans-46"/>
       <use x="741.943359" xlink:href="#DejaVuSans-50"/>
       <use x="805.566406" xlink:href="#DejaVuSans-56"/>
       <use x="869.189453" xlink:href="#DejaVuSans-177"/>
       <use x="952.978516" xlink:href="#DejaVuSans-48"/>
       <use x="1016.601562" xlink:href="#DejaVuSans-46"/>
       <use x="1048.388672" xlink:href="#DejaVuSans-48"/>
       <use x="1112.011719" xlink:href="#DejaVuSans-51"/>
       <use x="1175.634766" xlink:href="#DejaVuSans-956"/>
       <use x="1239.257812" xlink:href="#DejaVuSans-109"/>
       <use x="1336.669922" xlink:href="#DejaVuSans-41"/>
      </g>
     </g>
    </g>
   </g>
   <g id="matplotlib.axis_2">
    <g id="ytick_1">
     <g id="line2d_4">
      <defs>
       <path d="M 0 0 
L -3.5 0 
" id="mcfed9258fa" style="stroke:#000000;stroke-width:0.8;"/>
      </defs>
      <g>
       <use style="stroke:#000000;stroke-width:0.8;" x="52.160938" xlink:href="#mcfed9258fa" y="211.68164"/>
      </g>
     </g>
     <g id="text_4">
      <!-- −0.2 -->
      <g transform="translate(20.878125 215.480859)scale(0.1 -0.1)">
       <defs>
        <path d="M 10.59375 35.5 
L 73.1875 35.5 
L 73.1875 27.203125 
L 10.59375 27.203125 
z
" id="DejaVuSans-8722"/>
       </defs>
       <use xlink:href="#DejaVuSans-8722"/>
       <use x="83.789062" xlink:href="#DejaVuSans-48"/>
       <use x="147.412109" xlink:href="#DejaVuSans-46"/>
       <use x="179.199219" xlink:href="#DejaVuSans-50"/>
      </g>
     </g>
    </g>
    <g id="ytick_2">
     <g id="line2d_5">
      <g>
       <use style="stroke:#000000;stroke-width:0.8;" x="52.160938" xlink:href="#mcfed9258fa" y="184.550731"/>
      </g>
     </g>
     <g id="text_5">
      <!-- 0.0 -->
      <g transform="translate(29.257813 188.349949)scale(0.1 -0.1)">
       <use xlink:href="#DejaVuSans-48"/>
       <use x="63.623047" xlink:href="#DejaVuSans-46"/>
       <use x="95.410156" xlink:href="#DejaVuSans-48"/>
      </g>
     </g>
    </g>
    <g id="ytick_3">
     <g id="line2d_6">
      <g>
       <use style="stroke:#000000;stroke-width:0.8;" x="52.160938" xlink:href="#mcfed9258fa" y="157.419821"/>
      </g>
     </g>
     <g id="text_6">
      <!-- 0.2 -->
      <g transform="translate(29.257813 161.219039)scale(0.1 -0.1)">
       <use xlink:href="#DejaVuSans-48"/>
       <use x="63.623047" xlink:href="#DejaVuSans-46"/>
       <use x="95.410156" xlink:href="#DejaVuSans-50"/>
      </g>
     </g>
    </g>
    <g id="ytick_4">
     <g id="line2d_7">
      <g>
       <use style="stroke:#000000;stroke-width:0.8;" x="52.160938" xlink:href="#mcfed9258fa" y="130.288911"/>
      </g>
     </g>
     <g id="text_7">
      <!-- 0.4 -->
      <g transform="translate(29.257813 134.088129)scale(0.1 -0.1)">
       <use xlink:href="#DejaVuSans-48"/>
       <use x="63.623047" xlink:href="#DejaVuSans-46"/>
       <use x="95.410156" xlink:href="#DejaVuSans-52"/>
      </g>
     </g>
    </g>
    <g id="ytick_5">
     <g id="line2d_8">
      <g>
       <use style="stroke:#000000;stroke-width:0.8;" x="52.160938" xlink:href="#mcfed9258fa" y="103.158001"/>
      </g>
     </g>
     <g id="text_8">
      <!-- 0.6 -->
      <g transform="translate(29.257813 106.95722)scale(0.1 -0.1)">
       <defs>
        <path d="M 33.015625 40.375 
Q 26.375 40.375 22.484375 35.828125 
Q 18.609375 31.296875 18.609375 23.390625 
Q 18.609375 15.53125 22.484375 10.953125 
Q 26.375 6.390625 33.015625 6.390625 
Q 39.65625 6.390625 43.53125 10.953125 
Q 47.40625 15.53125 47.40625 23.390625 
Q 47.40625 31.296875 43.53125 35.828125 
Q 39.65625 40.375 33.015625 40.375 
z
M 52.59375 71.296875 
L 52.59375 62.3125 
Q 48.875 64.0625 45.09375 64.984375 
Q 41.3125 65.921875 37.59375 65.921875 
Q 27.828125 65.921875 22.671875 59.328125 
Q 17.53125 52.734375 16.796875 39.40625 
Q 19.671875 43.65625 24.015625 45.921875 
Q 28.375 48.1875 33.59375 48.1875 
Q 44.578125 48.1875 50.953125 41.515625 
Q 57.328125 34.859375 57.328125 23.390625 
Q 57.328125 12.15625 50.6875 5.359375 
Q 44.046875 -1.421875 33.015625 -1.421875 
Q 20.359375 -1.421875 13.671875 8.265625 
Q 6.984375 17.96875 6.984375 36.375 
Q 6.984375 53.65625 15.1875 63.9375 
Q 23.390625 74.21875 37.203125 74.21875 
Q 40.921875 74.21875 44.703125 73.484375 
Q 48.484375 72.75 52.59375 71.296875 
z
" id="DejaVuSans-54"/>
       </defs>
       <use xlink:href="#DejaVuSans-48"/>
       <use x="63.623047" xlink:href="#DejaVuSans-46"/>
       <use x="95.410156" xlink:href="#DejaVuSans-54"/>
      </g>
     </g>
    </g>
    <g id="ytick_6">
     <g id="line2d_9">
      <g>
       <use style="stroke:#000000;stroke-width:0.8;" x="52.160938" xlink:href="#mcfed9258fa" y="76.027091"/>
      </g>
     </g>
     <g id="text_9">
      <!-- 0.8 -->
      <g transform="translate(29.257813 79.82631)scale(0.1 -0.1)">
       <use xlink:href="#DejaVuSans-48"/>
       <use x="63.623047" xlink:href="#DejaVuSans-46"/>
       <use x="95.410156" xlink:href="#DejaVuSans-56"/>
      </g>
     </g>
    </g>
    <g id="ytick_7">
     <g id="line2d_10">
      <g>
       <use style="stroke:#000000;stroke-width:0.8;" x="52.160938" xlink:href="#mcfed9258fa" y="48.896181"/>
      </g>
     </g>
     <g id="text_10">
      <!-- 1.0 -->
      <g transform="translate(29.257813 52.6954)scale(0.1 -0.1)">
       <use xlink:href="#DejaVuSans-49"/>
       <use x="63.623047" xlink:href="#DejaVuSans-46"/>
       <use x="95.410156" xlink:href="#DejaVuSans-48"/>
      </g>
     </g>
    </g>
    <g id="ytick_8">
     <g id="line2d_11">
      <g>
       <use style="stroke:#000000;stroke-width:0.8;" x="52.160938" xlink:href="#mcfed9258fa" y="21.765271"/>
      </g>
     </g>
     <g id="text_11">
      <!-- 1.2 -->
      <g transform="translate(29.257813 25.56449)scale(0.1 -0.1)">
       <use xlink:href="#DejaVuSans-49"/>
       <use x="63.623047" xlink:href="#DejaVuSans-46"/>
       <use x="95.410156" xlink:href="#DejaVuSans-50"/>
      </g>
     </g>
    </g>
    <g id="text_12">
     <!-- Characteristic Time (s) -->
     <g transform="translate(14.798438 174.775312)rotate(-90)scale(0.1 -0.1)">
      <defs>
       <path d="M 64.40625 67.28125 
L 64.40625 56.890625 
Q 59.421875 61.53125 53.78125 63.8125 
Q 48.140625 66.109375 41.796875 66.109375 
Q 29.296875 66.109375 22.65625 58.46875 
Q 16.015625 50.828125 16.015625 36.375 
Q 16.015625 21.96875 22.65625 14.328125 
Q 29.296875 6.6875 41.796875 6.6875 
Q 48.140625 6.6875 53.78125 8.984375 
Q 59.421875 11.28125 64.40625 15.921875 
L 64.40625 5.609375 
Q 59.234375 2.09375 53.4375 0.328125 
Q 47.65625 -1.421875 41.21875 -1.421875 
Q 24.65625 -1.421875 15.125 8.703125 
Q 5.609375 18.84375 5.609375 36.375 
Q 5.609375 53.953125 15.125 64.078125 
Q 24.65625 74.21875 41.21875 74.21875 
Q 47.75 74.21875 53.53125 72.484375 
Q 59.328125 70.75 64.40625 67.28125 
z
" id="DejaVuSans-67"/>
       <path d="M 48.78125 52.59375 
L 48.78125 44.1875 
Q 44.96875 46.296875 41.140625 47.34375 
Q 37.3125 48.390625 33.40625 48.390625 
Q 24.65625 48.390625 19.8125 42.84375 
Q 14.984375 37.3125 14.984375 27.296875 
Q 14.984375 17.28125 19.8125 11.734375 
Q 24.65625 6.203125 33.40625 6.203125 
Q 37.3125 6.203125 41.140625 7.25 
Q 44.96875 8.296875 48.78125 10.40625 
L 48.78125 2.09375 
Q 45.015625 0.34375 40.984375 -0.53125 
Q 36.96875 -1.421875 32.421875 -1.421875 
Q 20.0625 -1.421875 12.78125 6.34375 
Q 5.515625 14.109375 5.515625 27.296875 
Q 5.515625 40.671875 12.859375 48.328125 
Q 20.21875 56 33.015625 56 
Q 37.15625 56 41.109375 55.140625 
Q 45.0625 54.296875 48.78125 52.59375 
z
" id="DejaVuSans-99"/>
      </defs>
      <use xlink:href="#DejaVuSans-67"/>
      <use x="69.824219" xlink:href="#DejaVuSans-104"/>
      <use x="133.203125" xlink:href="#DejaVuSans-97"/>
      <use x="194.482422" xlink:href="#DejaVuSans-114"/>
      <use x="235.595703" xlink:href="#DejaVuSans-97"/>
      <use x="296.875" xlink:href="#DejaVuSans-99"/>
      <use x="351.855469" xlink:href="#DejaVuSans-116"/>
      <use x="391.064453" xlink:href="#DejaVuSans-101"/>
      <use x="452.587891" xlink:href="#DejaVuSans-114"/>
      <use x="493.701172" xlink:href="#DejaVuSans-105"/>
      <use x="521.484375" xlink:href="#DejaVuSans-115"/>
      <use x="573.583984" xlink:href="#DejaVuSans-116"/>
      <use x="612.792969" xlink:href="#DejaVuSans-105"/>
      <use x="640.576172" xlink:href="#DejaVuSans-99"/>
      <use x="695.556641" xlink:href="#DejaVuSans-32"/>
      <use x="727.34375" xlink:href="#DejaVuSans-84"/>
      <use x="785.302734" xlink:href="#DejaVuSans-105"/>
      <use x="813.085938" xlink:href="#DejaVuSans-109"/>
      <use x="910.498047" xlink:href="#DejaVuSans-101"/>
      <use x="972.021484" xlink:href="#DejaVuSans-32"/>
      <use x="1003.808594" xlink:href="#DejaVuSans-40"/>
      <use x="1042.822266" xlink:href="#DejaVuSans-115"/>
      <use x="1094.921875" xlink:href="#DejaVuSans-41"/>
     </g>
    </g>
   </g>
   <g id="line2d_12">
    <path clip-path="url(#p1e5e56b804)" d="M 163.760938 183.194185 
L 163.760938 67.887816 
" style="fill:none;stroke:#373737;stroke-linecap:square;stroke-width:0.8;"/>
   </g>
   <g id="line2d_13">
    <path clip-path="url(#p1e5e56b804)" d="M 163.760938 133.002002 
L 163.760938 86.879451 
" style="fill:none;stroke:#373737;stroke-linecap:square;stroke-width:2.4;"/>
   </g>
   <g id="line2d_14">
    <path clip-path="url(#p1e5e56b804)" d="M 386.960938 184.550731 
L 386.960938 51.609269 
" style="fill:none;stroke:#373737;stroke-linecap:square;stroke-width:0.8;"/>
   </g>
   <g id="line2d_15">
    <path clip-path="url(#p1e5e56b804)" d="M 386.960938 147.924001 
L 386.960938 65.174728 
" style="fill:none;stroke:#373737;stroke-linecap:square;stroke-width:2.4;"/>
   </g>
   <g id="line2d_16">
    <path clip-path="url(#p1e5e56b804)" d="M 610.160938 51.609269 
L 610.160938 48.896181 
" style="fill:none;stroke:#373737;stroke-linecap:square;stroke-width:0.8;"/>
   </g>
   <g id="line2d_17">
    <path clip-path="url(#p1e5e56b804)" d="M 610.160938 50.252725 
L 610.160938 48.896181 
" style="fill:none;stroke:#373737;stroke-linecap:square;stroke-width:2.4;"/>
   </g>
   <g id="patch_3">
    <path d="M 52.160938 228.96 
L 52.160938 7.2 
" style="fill:none;stroke:#000000;stroke-linecap:square;stroke-linejoin:miter;stroke-width:0.8;"/>
   </g>
   <g id="patch_4">
    <path d="M 721.760938 228.96 
L 721.760938 7.2 
" style="fill:none;stroke:#000000;stroke-linecap:square;stroke-linejoin:miter;stroke-width:0.8;"/>
   </g>
   <g id="patch_5">
    <path d="M 52.160938 228.96 
L 721.760937 228.96 
" style="fill:none;stroke:#000000;stroke-linecap:square;stroke-linejoin:miter;stroke-width:0.8;"/>
   </g>
   <g id="patch_6">
    <path d="M 52.160938 7.2 
L 721.760937 7.2 
" style="fill:none;stroke:#000000;stroke-linecap:square;stroke-linejoin:miter;stroke-width:0.8;"/>
   </g>
   <g id="PathCollection_1">
    <defs>
     <path d="M 0 0.8 
C 0.212162 0.8 0.415664 0.715707 0.565685 0.565685 
C 0.715707 0.415664 0.8 0.212162 0.8 0 
C 0.8 -0.212162 0.715707 -0.415664 0.565685 -0.565685 
C 0.415664 -0.715707 0.212162 -0.8 0 -0.8 
C -0.212162 -0.8 -0.415664 -0.715707 -0.565685 -0.565685 
C -0.715707 -0.415664 -0.8 -0.212162 -0.8 0 
C -0.8 0.212162 -0.715707 0.415664 -0.565685 0.565685 
C -0.415664 0.715707 -0.212162 0.8 0 0.8 
z
" id="m323b491ec2" style="stroke:#373737;"/>
    </defs>
    <g clip-path="url(#p1e5e56b804)">
     <use style="fill:#ffffff;stroke:#373737;" x="163.760938" xlink:href="#m323b491ec2" y="109.940727"/>
    </g>
   </g>
   <g id="PathCollection_2">
    <g clip-path="url(#p1e5e56b804)">
     <use style="fill:#ffffff;stroke:#373737;" x="386.960938" xlink:href="#m323b491ec2" y="97.731821"/>
    </g>
   </g>
   <g id="PathCollection_3">
    <g clip-path="url(#p1e5e56b804)">
     <use style="fill:#ffffff;stroke:#373737;" x="610.160938" xlink:href="#m323b491ec2" y="48.896181"/>
    </g>
   </g>
   <g id="text_13">
    <!-- 0.55 -->
    <g transform="translate(168.224938 132.323728)scale(0.14 -0.14)">
     <defs>
      <path d="M 46 36.53125 
Q 46 50.203125 43.4375 55.78125 
Q 40.875 61.375 34.8125 61.375 
Q 28.765625 61.375 26.171875 55.78125 
Q 23.578125 50.203125 23.578125 36.53125 
Q 23.578125 22.703125 26.171875 17.03125 
Q 28.765625 11.375 34.8125 11.375 
Q 40.828125 11.375 43.40625 17.03125 
Q 46 22.703125 46 36.53125 
z
M 64.796875 36.375 
Q 64.796875 18.265625 56.984375 8.421875 
Q 49.171875 -1.421875 34.8125 -1.421875 
Q 20.40625 -1.421875 12.59375 8.421875 
Q 4.78125 18.265625 4.78125 36.375 
Q 4.78125 54.546875 12.59375 64.375 
Q 20.40625 74.21875 34.8125 74.21875 
Q 49.171875 74.21875 56.984375 64.375 
Q 64.796875 54.546875 64.796875 36.375 
z
" id="DejaVuSans-Bold-48"/>
      <path d="M 10.203125 18.890625 
L 27.78125 18.890625 
L 27.78125 0 
L 10.203125 0 
z
" id="DejaVuSans-Bold-46"/>
      <path d="M 10.59375 72.90625 
L 57.328125 72.90625 
L 57.328125 59.078125 
L 25.59375 59.078125 
L 25.59375 47.796875 
Q 27.734375 48.390625 29.90625 48.703125 
Q 32.078125 49.03125 34.421875 49.03125 
Q 47.75 49.03125 55.171875 42.359375 
Q 62.59375 35.6875 62.59375 23.78125 
Q 62.59375 11.96875 54.515625 5.265625 
Q 46.4375 -1.421875 32.078125 -1.421875 
Q 25.875 -1.421875 19.796875 -0.21875 
Q 13.71875 0.984375 7.71875 3.421875 
L 7.71875 18.21875 
Q 13.671875 14.796875 19.015625 13.078125 
Q 24.359375 11.375 29.109375 11.375 
Q 35.9375 11.375 39.859375 14.71875 
Q 43.796875 18.0625 43.796875 23.78125 
Q 43.796875 29.546875 39.859375 32.859375 
Q 35.9375 36.1875 29.109375 36.1875 
Q 25.046875 36.1875 20.453125 35.125 
Q 15.875 34.078125 10.59375 31.890625 
z
" id="DejaVuSans-Bold-53"/>
     </defs>
     <use xlink:href="#DejaVuSans-Bold-48"/>
     <use x="69.580078" xlink:href="#DejaVuSans-Bold-46"/>
     <use x="107.568359" xlink:href="#DejaVuSans-Bold-53"/>
     <use x="177.148438" xlink:href="#DejaVuSans-Bold-53"/>
    </g>
   </g>
   <g id="text_14">
    <!-- 0.64 -->
    <g transform="translate(391.424937 123.777494)scale(0.14 -0.14)">
     <defs>
      <path d="M 36.1875 35.984375 
Q 31.25 35.984375 28.78125 32.78125 
Q 26.3125 29.59375 26.3125 23.1875 
Q 26.3125 16.796875 28.78125 13.59375 
Q 31.25 10.40625 36.1875 10.40625 
Q 41.15625 10.40625 43.625 13.59375 
Q 46.09375 16.796875 46.09375 23.1875 
Q 46.09375 29.59375 43.625 32.78125 
Q 41.15625 35.984375 36.1875 35.984375 
z
M 59.421875 71 
L 59.421875 57.515625 
Q 54.78125 59.71875 50.671875 60.765625 
Q 46.578125 61.8125 42.671875 61.8125 
Q 34.28125 61.8125 29.59375 57.140625 
Q 24.90625 52.484375 24.125 43.3125 
Q 27.34375 45.703125 31.09375 46.890625 
Q 34.859375 48.09375 39.3125 48.09375 
Q 50.484375 48.09375 57.34375 41.546875 
Q 64.203125 35.015625 64.203125 24.421875 
Q 64.203125 12.703125 56.53125 5.640625 
Q 48.875 -1.421875 35.984375 -1.421875 
Q 21.78125 -1.421875 13.984375 8.171875 
Q 6.203125 17.78125 6.203125 35.40625 
Q 6.203125 53.46875 15.3125 63.796875 
Q 24.421875 74.125 40.28125 74.125 
Q 45.3125 74.125 50.046875 73.34375 
Q 54.78125 72.5625 59.421875 71 
z
" id="DejaVuSans-Bold-54"/>
      <path d="M 36.8125 57.421875 
L 16.21875 26.90625 
L 36.8125 26.90625 
z
M 33.6875 72.90625 
L 54.59375 72.90625 
L 54.59375 26.90625 
L 64.984375 26.90625 
L 64.984375 13.28125 
L 54.59375 13.28125 
L 54.59375 0 
L 36.8125 0 
L 36.8125 13.28125 
L 4.5 13.28125 
L 4.5 29.390625 
z
" id="DejaVuSans-Bold-52"/>
     </defs>
     <use xlink:href="#DejaVuSans-Bold-48"/>
     <use x="69.580078" xlink:href="#DejaVuSans-Bold-46"/>
     <use x="107.568359" xlink:href="#DejaVuSans-Bold-54"/>
     <use x="177.148438" xlink:href="#DejaVuSans-Bold-52"/>
    </g>
   </g>
   <g id="text_15">
    <!-- 1.0 -->
    <g transform="translate(614.624937 89.592546)scale(0.14 -0.14)">
     <defs>
      <path d="M 11.71875 12.984375 
L 28.328125 12.984375 
L 28.328125 60.109375 
L 11.28125 56.59375 
L 11.28125 69.390625 
L 28.21875 72.90625 
L 46.09375 72.90625 
L 46.09375 12.984375 
L 62.703125 12.984375 
L 62.703125 0 
L 11.71875 0 
z
" id="DejaVuSans-Bold-49"/>
     </defs>
     <use xlink:href="#DejaVuSans-Bold-49"/>
     <use x="69.580078" xlink:href="#DejaVuSans-Bold-46"/>
     <use x="107.568359" xlink:href="#DejaVuSans-Bold-48"/>
    </g>
   </g>
  </g>
 </g>
 <defs>
  <clipPath id="p1e5e56b804">
   <rect height="221.76" width="669.6" x="52.160938" y="7.2"/>
  </clipPath>
 </defs>
</svg>
