<?xml version="1.0" encoding="utf-8" standalone="no"?>
<!DOCTYPE svg PUBLIC "-//W3C//DTD SVG 1.1//EN"
  "http://www.w3.org/Graphics/SVG/1.1/DTD/svg11.dtd">
<!-- Created with matplotlib (https://matplotlib.org/) -->
<svg height="280.648187pt" version="1.1" viewBox="0 0 731.185 280.648187" width="731.185pt" xmlns="http://www.w3.org/2000/svg" xmlns:xlink="http://www.w3.org/1999/xlink">
 <metadata>
  <rdf:RDF xmlns:cc="http://creativecommons.org/ns#" xmlns:dc="http://purl.org/dc/elements/1.1/" xmlns:rdf="http://www.w3.org/1999/02/22-rdf-syntax-ns#">
   <cc:Work>
    <dc:type rdf:resource="http://purl.org/dc/dcmitype/StillImage"/>
    <dc:date>2022-10-28T05:06:22.458270</dc:date>
    <dc:format>image/svg+xml</dc:format>
    <dc:creator>
     <cc:Agent>
      <dc:title>Matplotlib v3.3.4, https://matplotlib.org/</dc:title>
     </cc:Agent>
    </dc:creator>
   </cc:Work>
  </rdf:RDF>
 </metadata>
 <defs>
  <style type="text/css">*{stroke-linecap:butt;stroke-linejoin:round;}</style>
 </defs>
 <g id="figure_1">
  <g id="patch_1">
   <path d="M 0 280.648187 
L 731.185 280.648187 
L 731.185 0 
L 0 0 
z
" style="fill:#ffffff;"/>
  </g>
  <g id="axes_1">
   <g id="patch_2">
    <path d="M 54.385 240.721875 
L 723.985 240.721875 
L 723.985 18.961875 
L 54.385 18.961875 
z
" style="fill:#ffffff;"/>
   </g>
   <g id="PolyCollection_1">
    <defs>
     <path d="M 166.22006 -77.262433 
L 165.74994 -77.262433 
L 165.637434 -78.408797 
L 165.488566 -79.555162 
L 165.29968 -80.701527 
L 165.070012 -81.847892 
L 164.802605 -82.994257 
L 164.504763 -84.140622 
L 164.187769 -85.286987 
L 163.86575 -86.433352 
L 163.553626 -87.579717 
L 163.264253 -88.726082 
L 163.004929 -89.872447 
L 162.773475 -91.018812 
L 162.554155 -92.165177 
L 162.313785 -93.311542 
L 161.998539 -94.457907 
L 161.532202 -95.604272 
L 160.816862 -96.750637 
L 159.737127 -97.897002 
L 158.168714 -99.043367 
L 155.991687 -100.189732 
L 153.107588 -101.336097 
L 149.458463 -102.482462 
L 145.044664 -103.628827 
L 139.937666 -104.775192 
L 134.284347 -105.921557 
L 128.300402 -107.067922 
L 122.252649 -108.214287 
L 116.432407 -109.360652 
L 111.124257 -110.507017 
L 106.575631 -111.653381 
L 102.972446 -112.799746 
L 100.424443 -113.946111 
L 98.961592 -115.092476 
L 98.540486 -116.238841 
L 99.057932 -117.385206 
L 100.368285 -118.531571 
L 102.301371 -119.677936 
L 104.678887 -120.824301 
L 107.32818 -121.970666 
L 110.093143 -123.117031 
L 112.842214 -124.263396 
L 115.473467 -125.409761 
L 117.91661 -126.556126 
L 120.131809 -127.702491 
L 122.105562 -128.848856 
L 123.844397 -129.995221 
L 125.367677 -131.141586 
L 126.701061 -132.287951 
L 127.872004 -133.434316 
L 128.908075 -134.580681 
L 129.838047 -135.727046 
L 130.694746 -136.873411 
L 131.518083 -138.019776 
L 132.356502 -139.166141 
L 133.265498 -140.312506 
L 134.302752 -141.458871 
L 135.520538 -142.605236 
L 136.956978 -143.7516 
L 138.628308 -144.897965 
L 140.524137 -146.04433 
L 142.607043 -147.190695 
L 144.816723 -148.33706 
L 147.07784 -149.483425 
L 149.309841 -150.62979 
L 151.436789 -151.776155 
L 153.395411 -152.92252 
L 155.140241 -154.068885 
L 156.645502 -155.21525 
L 157.904052 -156.361615 
L 158.92416 -157.50798 
L 159.725072 -158.654345 
L 160.332248 -159.80071 
L 160.773026 -160.947075 
L 161.07325 -162.09344 
L 161.255248 -163.239805 
L 161.337304 -164.38617 
L 161.33456 -165.532535 
L 161.261001 -166.6789 
L 161.131914 -167.825265 
L 160.966077 -168.97163 
L 160.786922 -170.117995 
L 160.622165 -171.26436 
L 160.501757 -172.410725 
L 160.454495 -173.55709 
L 160.503995 -174.703455 
L 160.664971 -175.84982 
L 160.940701 -176.996184 
L 161.322291 -178.142549 
L 161.789923 -179.288914 
L 162.315807 -180.435279 
L 162.868209 -181.581644 
L 163.415723 -182.728009 
L 163.93101 -183.874374 
L 164.393417 -185.020739 
L 164.790212 -186.167104 
L 165.116456 -187.313469 
L 165.373841 -188.459834 
L 165.568887 -189.606199 
L 165.710964 -190.752564 
L 166.259036 -190.752564 
L 166.259036 -190.752564 
L 166.401113 -189.606199 
L 166.596159 -188.459834 
L 166.853544 -187.313469 
L 167.179788 -186.167104 
L 167.576583 -185.020739 
L 168.03899 -183.874374 
L 168.554277 -182.728009 
L 169.101791 -181.581644 
L 169.654193 -180.435279 
L 170.180077 -179.288914 
L 170.647709 -178.142549 
L 171.029299 -176.996184 
L 171.305029 -175.84982 
L 171.466005 -174.703455 
L 171.515505 -173.55709 
L 171.468243 -172.410725 
L 171.347835 -171.26436 
L 171.183078 -170.117995 
L 171.003923 -168.97163 
L 170.838086 -167.825265 
L 170.708999 -166.6789 
L 170.63544 -165.532535 
L 170.632696 -164.38617 
L 170.714752 -163.239805 
L 170.89675 -162.09344 
L 171.196974 -160.947075 
L 171.637752 -159.80071 
L 172.244928 -158.654345 
L 173.04584 -157.50798 
L 174.065948 -156.361615 
L 175.324498 -155.21525 
L 176.829759 -154.068885 
L 178.574589 -152.92252 
L 180.533211 -151.776155 
L 182.660159 -150.62979 
L 184.89216 -149.483425 
L 187.153277 -148.33706 
L 189.362957 -147.190695 
L 191.445863 -146.04433 
L 193.341692 -144.897965 
L 195.013022 -143.7516 
L 196.449462 -142.605236 
L 197.667248 -141.458871 
L 198.704502 -140.312506 
L 199.613498 -139.166141 
L 200.451917 -138.019776 
L 201.275254 -136.873411 
L 202.131953 -135.727046 
L 203.061925 -134.580681 
L 204.097996 -133.434316 
L 205.268939 -132.287951 
L 206.602323 -131.141586 
L 208.125603 -129.995221 
L 209.864438 -128.848856 
L 211.838191 -127.702491 
L 214.05339 -126.556126 
L 216.496533 -125.409761 
L 219.127786 -124.263396 
L 221.876857 -123.117031 
L 224.64182 -121.970666 
L 227.291113 -120.824301 
L 229.668629 -119.677936 
L 231.601715 -118.531571 
L 232.912068 -117.385206 
L 233.429514 -116.238841 
L 233.008408 -115.092476 
L 231.545557 -113.946111 
L 228.997554 -112.799746 
L 225.394369 -111.653381 
L 220.845743 -110.507017 
L 215.537593 -109.360652 
L 209.717351 -108.214287 
L 203.669598 -107.067922 
L 197.685653 -105.921557 
L 192.032334 -104.775192 
L 186.925336 -103.628827 
L 182.511537 -102.482462 
L 178.862412 -101.336097 
L 175.978313 -100.189732 
L 173.801286 -99.043367 
L 172.232873 -97.897002 
L 171.153138 -96.750637 
L 170.437798 -95.604272 
L 169.971461 -94.457907 
L 169.656215 -93.311542 
L 169.415845 -92.165177 
L 169.196525 -91.018812 
L 168.965071 -89.872447 
L 168.705747 -88.726082 
L 168.416374 -87.579717 
L 168.10425 -86.433352 
L 167.782231 -85.286987 
L 167.465237 -84.140622 
L 167.167395 -82.994257 
L 166.899988 -81.847892 
L 166.67032 -80.701527 
L 166.481434 -79.555162 
L 166.332566 -78.408797 
L 166.22006 -77.262433 
z
" id="mbafc01b74d" style="stroke:#373737;stroke-width:0.8;"/>
    </defs>
    <g clip-path="url(#p90f1b37e14)">
     <use style="fill:#2b8e70;stroke:#373737;stroke-width:0.8;" x="0" xlink:href="#mbafc01b74d" y="280.648187"/>
    </g>
   </g>
   <g id="PolyCollection_2">
    <defs>
     <path d="M 389.278319 -50.006313 
L 389.091681 -50.006313 
L 389.038334 -52.042676 
L 388.957857 -54.07904 
L 388.8377 -56.115403 
L 388.660118 -58.151767 
L 388.400658 -60.188131 
L 388.026774 -62.224494 
L 387.497041 -64.260858 
L 386.761558 -66.297222 
L 385.764174 -68.333585 
L 384.447 -70.369949 
L 382.757292 -72.406312 
L 380.656175 -74.442676 
L 378.12802 -76.47904 
L 375.18868 -78.515403 
L 371.890603 -80.551767 
L 368.323064 -82.588131 
L 364.606633 -84.624494 
L 360.882207 -86.660858 
L 357.296302 -88.697222 
L 353.985332 -90.733585 
L 351.062011 -92.769949 
L 348.606575 -94.806313 
L 346.664349 -96.842676 
L 345.249564 -98.87904 
L 344.353756 -100.915403 
L 343.95602 -102.951767 
L 344.032119 -104.988131 
L 344.56006 -107.024494 
L 345.521021 -109.060858 
L 346.895973 -111.097222 
L 348.659686 -113.133585 
L 350.7745 -115.169949 
L 353.18622 -117.206312 
L 355.823779 -119.242676 
L 358.603138 -121.27904 
L 361.434638 -123.315403 
L 364.232083 -125.351767 
L 366.921376 -127.388131 
L 369.446757 -129.424494 
L 371.773405 -131.460858 
L 373.886174 -133.497222 
L 375.785228 -135.533585 
L 377.480032 -137.569949 
L 378.983391 -139.606313 
L 380.306985 -141.642676 
L 381.459229 -143.67904 
L 382.445528 -145.715403 
L 383.270284 -147.751767 
L 383.939617 -149.788131 
L 384.463683 -151.824494 
L 384.857712 -153.860858 
L 385.14143 -155.897222 
L 385.337029 -157.933585 
L 385.466304 -159.969949 
L 385.547825 -162.006313 
L 385.594908 -164.042676 
L 385.614931 -166.07904 
L 385.610098 -168.115403 
L 385.579337 -170.151767 
L 385.520763 -172.188131 
L 385.433993 -174.224494 
L 385.321763 -176.260858 
L 385.190512 -178.297222 
L 385.049972 -180.333585 
L 384.912006 -182.369949 
L 384.789135 -184.406312 
L 384.693127 -186.442676 
L 384.633931 -188.47904 
L 384.619018 -190.515403 
L 384.653072 -192.551767 
L 384.737863 -194.588131 
L 384.87219 -196.624494 
L 385.051823 -198.660858 
L 385.269537 -200.697222 
L 385.515353 -202.733585 
L 385.777135 -204.769949 
L 386.041624 -206.806312 
L 386.295842 -208.842676 
L 386.528692 -210.87904 
L 386.732458 -212.915403 
L 386.903884 -214.951767 
L 387.044556 -216.988131 
L 387.160464 -219.024494 
L 387.260772 -221.060858 
L 387.35605 -223.097222 
L 387.456297 -225.133585 
L 387.569189 -227.169949 
L 387.69887 -229.206312 
L 387.845517 -231.242676 
L 388.005668 -233.27904 
L 388.173198 -235.315403 
L 388.340625 -237.351767 
L 388.50048 -239.388131 
L 388.646441 -241.424494 
L 388.774061 -243.460858 
L 388.881053 -245.497222 
L 388.967165 -247.533585 
L 389.03377 -249.569949 
L 389.083321 -251.606312 
L 389.286679 -251.606312 
L 389.286679 -251.606312 
L 389.33623 -249.569949 
L 389.402835 -247.533585 
L 389.488947 -245.497222 
L 389.595939 -243.460858 
L 389.723559 -241.424494 
L 389.86952 -239.388131 
L 390.029375 -237.351767 
L 390.196802 -235.315403 
L 390.364332 -233.27904 
L 390.524483 -231.242676 
L 390.67113 -229.206312 
L 390.800811 -227.169949 
L 390.913703 -225.133585 
L 391.01395 -223.097222 
L 391.109228 -221.060858 
L 391.209536 -219.024494 
L 391.325444 -216.988131 
L 391.466116 -214.951767 
L 391.637542 -212.915403 
L 391.841308 -210.87904 
L 392.074158 -208.842676 
L 392.328376 -206.806312 
L 392.592865 -204.769949 
L 392.854647 -202.733585 
L 393.100463 -200.697222 
L 393.318177 -198.660858 
L 393.49781 -196.624494 
L 393.632137 -194.588131 
L 393.716928 -192.551767 
L 393.750982 -190.515403 
L 393.736069 -188.47904 
L 393.676873 -186.442676 
L 393.580865 -184.406312 
L 393.457994 -182.369949 
L 393.320028 -180.333585 
L 393.179488 -178.297222 
L 393.048237 -176.260858 
L 392.936007 -174.224494 
L 392.849237 -172.188131 
L 392.790663 -170.151767 
L 392.759902 -168.115403 
L 392.755069 -166.07904 
L 392.775092 -164.042676 
L 392.822175 -162.006313 
L 392.903696 -159.969949 
L 393.032971 -157.933585 
L 393.22857 -155.897222 
L 393.512288 -153.860858 
L 393.906317 -151.824494 
L 394.430383 -149.788131 
L 395.099716 -147.751767 
L 395.924472 -145.715403 
L 396.910771 -143.67904 
L 398.063015 -141.642676 
L 399.386609 -139.606313 
L 400.889968 -137.569949 
L 402.584772 -135.533585 
L 404.483826 -133.497222 
L 406.596595 -131.460858 
L 408.923243 -129.424494 
L 411.448624 -127.388131 
L 414.137917 -125.351767 
L 416.935362 -123.315403 
L 419.766862 -121.27904 
L 422.546221 -119.242676 
L 425.18378 -117.206312 
L 427.5955 -115.169949 
L 429.710314 -113.133585 
L 431.474027 -111.097222 
L 432.848979 -109.060858 
L 433.80994 -107.024494 
L 434.337881 -104.988131 
L 434.41398 -102.951767 
L 434.016244 -100.915403 
L 433.120436 -98.87904 
L 431.705651 -96.842676 
L 429.763425 -94.806313 
L 427.307989 -92.769949 
L 424.384668 -90.733585 
L 421.073698 -88.697222 
L 417.487793 -86.660858 
L 413.763367 -84.624494 
L 410.046936 -82.588131 
L 406.479397 -80.551767 
L 403.18132 -78.515403 
L 400.24198 -76.47904 
L 397.713825 -74.442676 
L 395.612708 -72.406312 
L 393.923 -70.369949 
L 392.605826 -68.333585 
L 391.608442 -66.297222 
L 390.872959 -64.260858 
L 390.343226 -62.224494 
L 389.969342 -60.188131 
L 389.709882 -58.151767 
L 389.5323 -56.115403 
L 389.412143 -54.07904 
L 389.331666 -52.042676 
L 389.278319 -50.006313 
z
" id="m36b5132698" style="stroke:#373737;stroke-width:0.8;"/>
    </defs>
    <g clip-path="url(#p90f1b37e14)">
     <use style="fill:#be631d;stroke:#373737;stroke-width:0.8;" x="0" xlink:href="#m36b5132698" y="280.648187"/>
    </g>
   </g>
   <g id="PolyCollection_3">
    <defs>
     <path d="M 613.231307 -58.434013 
L 611.538693 -58.434013 
L 611.124272 -59.301314 
L 610.563217 -60.168616 
L 609.829766 -61.035917 
L 608.903642 -61.903219 
L 607.773614 -62.77052 
L 606.440357 -63.637821 
L 604.917825 -64.505123 
L 603.23254 -65.372424 
L 601.420533 -66.239726 
L 599.522197 -67.107027 
L 597.575836 -67.974329 
L 595.611086 -68.84163 
L 593.643572 -69.708932 
L 591.672005 -70.576233 
L 589.678519 -71.443535 
L 587.632425 -72.310836 
L 585.496824 -73.178137 
L 583.236903 -74.045439 
L 580.8283 -74.91274 
L 578.263823 -75.780042 
L 575.557049 -76.647343 
L 572.741959 -77.514645 
L 569.868537 -78.381946 
L 566.995153 -79.249248 
L 564.179158 -80.116549 
L 561.46748 -80.983851 
L 558.888862 -81.851152 
L 556.448951 -82.718454 
L 554.128813 -83.585755 
L 551.886907 -84.453056 
L 549.664203 -85.320358 
L 547.39206 -86.187659 
L 545.002583 -87.054961 
L 542.441123 -87.922262 
L 539.680371 -88.789564 
L 536.734777 -89.656865 
L 533.673193 -90.524167 
L 530.626805 -91.391468 
L 527.789188 -92.25877 
L 525.405934 -93.126071 
L 523.752961 -93.993373 
L 523.105 -94.860674 
L 523.698387 -95.727975 
L 525.69428 -96.595277 
L 529.149213 -97.462578 
L 533.999051 -98.32988 
L 540.05999 -99.197181 
L 547.046957 -100.064483 
L 554.606275 -100.931784 
L 562.35675 -101.799086 
L 569.932052 -102.666387 
L 577.017504 -103.533689 
L 583.376073 -104.40099 
L 588.860883 -105.268291 
L 593.41425 -106.135593 
L 597.055616 -107.002894 
L 599.862185 -107.870196 
L 601.946689 -108.737497 
L 603.43629 -109.604799 
L 604.455614 -110.4721 
L 605.115529 -111.339402 
L 605.507813 -112.206703 
L 605.704738 -113.074005 
L 605.761842 -113.941306 
L 605.721992 -114.808608 
L 605.619112 -115.675909 
L 605.480592 -116.54321 
L 605.328122 -117.410512 
L 605.177384 -118.277813 
L 605.037419 -119.145115 
L 604.910549 -120.012416 
L 604.793494 -120.879718 
L 604.679803 -121.747019 
L 604.563209 -122.614321 
L 604.441095 -123.481622 
L 604.317137 -124.348924 
L 604.202319 -125.216225 
L 604.11402 -126.083526 
L 604.073347 -126.950828 
L 604.101439 -127.818129 
L 604.21568 -128.685431 
L 604.426768 -129.552732 
L 604.737213 -130.420034 
L 605.14145 -131.287335 
L 605.627241 -132.154637 
L 606.177802 -133.021938 
L 606.774018 -133.88924 
L 607.39627 -134.756541 
L 608.025671 -135.623843 
L 608.644781 -136.491144 
L 609.238001 -137.358445 
L 609.791894 -138.225747 
L 610.295572 -139.093048 
L 610.74113 -139.96035 
L 611.12402 -140.827651 
L 611.443201 -141.694953 
L 611.700962 -142.562254 
L 611.902389 -143.429556 
L 612.054557 -144.296857 
L 612.715443 -144.296857 
L 612.715443 -144.296857 
L 612.867611 -143.429556 
L 613.069038 -142.562254 
L 613.326799 -141.694953 
L 613.64598 -140.827651 
L 614.02887 -139.96035 
L 614.474428 -139.093048 
L 614.978106 -138.225747 
L 615.531999 -137.358445 
L 616.125219 -136.491144 
L 616.744329 -135.623843 
L 617.37373 -134.756541 
L 617.995982 -133.88924 
L 618.592198 -133.021938 
L 619.142759 -132.154637 
L 619.62855 -131.287335 
L 620.032787 -130.420034 
L 620.343232 -129.552732 
L 620.55432 -128.685431 
L 620.668561 -127.818129 
L 620.696653 -126.950828 
L 620.65598 -126.083526 
L 620.567681 -125.216225 
L 620.452863 -124.348924 
L 620.328905 -123.481622 
L 620.206791 -122.614321 
L 620.090197 -121.747019 
L 619.976506 -120.879718 
L 619.859451 -120.012416 
L 619.732581 -119.145115 
L 619.592616 -118.277813 
L 619.441878 -117.410512 
L 619.289408 -116.54321 
L 619.150888 -115.675909 
L 619.048008 -114.808608 
L 619.008158 -113.941306 
L 619.065262 -113.074005 
L 619.262187 -112.206703 
L 619.654471 -111.339402 
L 620.314386 -110.4721 
L 621.33371 -109.604799 
L 622.823311 -108.737497 
L 624.907815 -107.870196 
L 627.714384 -107.002894 
L 631.35575 -106.135593 
L 635.909117 -105.268291 
L 641.393927 -104.40099 
L 647.752496 -103.533689 
L 654.837948 -102.666387 
L 662.41325 -101.799086 
L 670.163725 -100.931784 
L 677.723043 -100.064483 
L 684.71001 -99.197181 
L 690.770949 -98.32988 
L 695.620787 -97.462578 
L 699.07572 -96.595277 
L 701.071613 -95.727975 
L 701.665 -94.860674 
L 701.017039 -93.993373 
L 699.364066 -93.126071 
L 696.980812 -92.25877 
L 694.143195 -91.391468 
L 691.096807 -90.524167 
L 688.035223 -89.656865 
L 685.089629 -88.789564 
L 682.328877 -87.922262 
L 679.767417 -87.054961 
L 677.37794 -86.187659 
L 675.105797 -85.320358 
L 672.883093 -84.453056 
L 670.641187 -83.585755 
L 668.321049 -82.718454 
L 665.881138 -81.851152 
L 663.30252 -80.983851 
L 660.590842 -80.116549 
L 657.774847 -79.249248 
L 654.901463 -78.381946 
L 652.028041 -77.514645 
L 649.212951 -76.647343 
L 646.506177 -75.780042 
L 643.9417 -74.91274 
L 641.533097 -74.045439 
L 639.273176 -73.178137 
L 637.137575 -72.310836 
L 635.091481 -71.443535 
L 633.097995 -70.576233 
L 631.126428 -69.708932 
L 629.158914 -68.84163 
L 627.194164 -67.974329 
L 625.247803 -67.107027 
L 623.349467 -66.239726 
L 621.53746 -65.372424 
L 619.852175 -64.505123 
L 618.329643 -63.637821 
L 616.996386 -62.77052 
L 615.866358 -61.903219 
L 614.940234 -61.035917 
L 614.206783 -60.168616 
L 613.645728 -59.301314 
L 613.231307 -58.434013 
z
" id="m5558be3740" style="stroke:#373737;stroke-width:0.8;"/>
    </defs>
    <g clip-path="url(#p90f1b37e14)">
     <use style="fill:#7c78ab;stroke:#373737;stroke-width:0.8;" x="0" xlink:href="#m5558be3740" y="280.648187"/>
    </g>
   </g>
   <g id="matplotlib.axis_1">
    <g id="xtick_1">
     <g id="line2d_1">
      <defs>
       <path d="M 0 0 
L 0 -3.5 
" id="m2e9fc401be" style="stroke:#000000;stroke-width:0.8;"/>
      </defs>
      <g>
       <use style="stroke:#000000;stroke-width:0.8;" x="165.985" xlink:href="#m2e9fc401be" y="240.721875"/>
      </g>
     </g>
     <g id="line2d_2">
      <defs>
       <path d="M 0 0 
L 0 3.5 
" id="m1ea92cfd02" style="stroke:#000000;stroke-width:0.8;"/>
      </defs>
      <g>
       <use style="stroke:#000000;stroke-width:0.8;" x="165.985" xlink:href="#m1ea92cfd02" y="18.961875"/>
      </g>
     </g>
     <g id="text_1">
      <!-- Treated substrate -->
      <g transform="translate(104.56875 254.859687)scale(0.14 -0.14)">
       <defs>
        <path d="M -0.296875 72.90625 
L 61.375 72.90625 
L 61.375 64.59375 
L 35.5 64.59375 
L 35.5 0 
L 25.59375 0 
L 25.59375 64.59375 
L -0.296875 64.59375 
z
" id="DejaVuSans-84"/>
        <path d="M 41.109375 46.296875 
Q 39.59375 47.171875 37.8125 47.578125 
Q 36.03125 48 33.890625 48 
Q 26.265625 48 22.1875 43.046875 
Q 18.109375 38.09375 18.109375 28.8125 
L 18.109375 0 
L 9.078125 0 
L 9.078125 54.6875 
L 18.109375 54.6875 
L 18.109375 46.1875 
Q 20.953125 51.171875 25.484375 53.578125 
Q 30.03125 56 36.53125 56 
Q 37.453125 56 38.578125 55.875 
Q 39.703125 55.765625 41.0625 55.515625 
z
" id="DejaVuSans-114"/>
        <path d="M 56.203125 29.59375 
L 56.203125 25.203125 
L 14.890625 25.203125 
Q 15.484375 15.921875 20.484375 11.0625 
Q 25.484375 6.203125 34.421875 6.203125 
Q 39.59375 6.203125 44.453125 7.46875 
Q 49.3125 8.734375 54.109375 11.28125 
L 54.109375 2.78125 
Q 49.265625 0.734375 44.1875 -0.34375 
Q 39.109375 -1.421875 33.890625 -1.421875 
Q 20.796875 -1.421875 13.15625 6.1875 
Q 5.515625 13.8125 5.515625 26.8125 
Q 5.515625 40.234375 12.765625 48.109375 
Q 20.015625 56 32.328125 56 
Q 43.359375 56 49.78125 48.890625 
Q 56.203125 41.796875 56.203125 29.59375 
z
M 47.21875 32.234375 
Q 47.125 39.59375 43.09375 43.984375 
Q 39.0625 48.390625 32.421875 48.390625 
Q 24.90625 48.390625 20.390625 44.140625 
Q 15.875 39.890625 15.1875 32.171875 
z
" id="DejaVuSans-101"/>
        <path d="M 34.28125 27.484375 
Q 23.390625 27.484375 19.1875 25 
Q 14.984375 22.515625 14.984375 16.5 
Q 14.984375 11.71875 18.140625 8.90625 
Q 21.296875 6.109375 26.703125 6.109375 
Q 34.1875 6.109375 38.703125 11.40625 
Q 43.21875 16.703125 43.21875 25.484375 
L 43.21875 27.484375 
z
M 52.203125 31.203125 
L 52.203125 0 
L 43.21875 0 
L 43.21875 8.296875 
Q 40.140625 3.328125 35.546875 0.953125 
Q 30.953125 -1.421875 24.3125 -1.421875 
Q 15.921875 -1.421875 10.953125 3.296875 
Q 6 8.015625 6 15.921875 
Q 6 25.140625 12.171875 29.828125 
Q 18.359375 34.515625 30.609375 34.515625 
L 43.21875 34.515625 
L 43.21875 35.40625 
Q 43.21875 41.609375 39.140625 45 
Q 35.0625 48.390625 27.6875 48.390625 
Q 23 48.390625 18.546875 47.265625 
Q 14.109375 46.140625 10.015625 43.890625 
L 10.015625 52.203125 
Q 14.9375 54.109375 19.578125 55.046875 
Q 24.21875 56 28.609375 56 
Q 40.484375 56 46.34375 49.84375 
Q 52.203125 43.703125 52.203125 31.203125 
z
" id="DejaVuSans-97"/>
        <path d="M 18.3125 70.21875 
L 18.3125 54.6875 
L 36.8125 54.6875 
L 36.8125 47.703125 
L 18.3125 47.703125 
L 18.3125 18.015625 
Q 18.3125 11.328125 20.140625 9.421875 
Q 21.96875 7.515625 27.59375 7.515625 
L 36.8125 7.515625 
L 36.8125 0 
L 27.59375 0 
Q 17.1875 0 13.234375 3.875 
Q 9.28125 7.765625 9.28125 18.015625 
L 9.28125 47.703125 
L 2.6875 47.703125 
L 2.6875 54.6875 
L 9.28125 54.6875 
L 9.28125 70.21875 
z
" id="DejaVuSans-116"/>
        <path d="M 45.40625 46.390625 
L 45.40625 75.984375 
L 54.390625 75.984375 
L 54.390625 0 
L 45.40625 0 
L 45.40625 8.203125 
Q 42.578125 3.328125 38.25 0.953125 
Q 33.9375 -1.421875 27.875 -1.421875 
Q 17.96875 -1.421875 11.734375 6.484375 
Q 5.515625 14.40625 5.515625 27.296875 
Q 5.515625 40.1875 11.734375 48.09375 
Q 17.96875 56 27.875 56 
Q 33.9375 56 38.25 53.625 
Q 42.578125 51.265625 45.40625 46.390625 
z
M 14.796875 27.296875 
Q 14.796875 17.390625 18.875 11.75 
Q 22.953125 6.109375 30.078125 6.109375 
Q 37.203125 6.109375 41.296875 11.75 
Q 45.40625 17.390625 45.40625 27.296875 
Q 45.40625 37.203125 41.296875 42.84375 
Q 37.203125 48.484375 30.078125 48.484375 
Q 22.953125 48.484375 18.875 42.84375 
Q 14.796875 37.203125 14.796875 27.296875 
z
" id="DejaVuSans-100"/>
        <path id="DejaVuSans-32"/>
        <path d="M 44.28125 53.078125 
L 44.28125 44.578125 
Q 40.484375 46.53125 36.375 47.5 
Q 32.28125 48.484375 27.875 48.484375 
Q 21.1875 48.484375 17.84375 46.4375 
Q 14.5 44.390625 14.5 40.28125 
Q 14.5 37.15625 16.890625 35.375 
Q 19.28125 33.59375 26.515625 31.984375 
L 29.59375 31.296875 
Q 39.15625 29.25 43.1875 25.515625 
Q 47.21875 21.78125 47.21875 15.09375 
Q 47.21875 7.46875 41.1875 3.015625 
Q 35.15625 -1.421875 24.609375 -1.421875 
Q 20.21875 -1.421875 15.453125 -0.5625 
Q 10.6875 0.296875 5.421875 2 
L 5.421875 11.28125 
Q 10.40625 8.6875 15.234375 7.390625 
Q 20.0625 6.109375 24.8125 6.109375 
Q 31.15625 6.109375 34.5625 8.28125 
Q 37.984375 10.453125 37.984375 14.40625 
Q 37.984375 18.0625 35.515625 20.015625 
Q 33.0625 21.96875 24.703125 23.78125 
L 21.578125 24.515625 
Q 13.234375 26.265625 9.515625 29.90625 
Q 5.8125 33.546875 5.8125 39.890625 
Q 5.8125 47.609375 11.28125 51.796875 
Q 16.75 56 26.8125 56 
Q 31.78125 56 36.171875 55.265625 
Q 40.578125 54.546875 44.28125 53.078125 
z
" id="DejaVuSans-115"/>
        <path d="M 8.5 21.578125 
L 8.5 54.6875 
L 17.484375 54.6875 
L 17.484375 21.921875 
Q 17.484375 14.15625 20.5 10.265625 
Q 23.53125 6.390625 29.59375 6.390625 
Q 36.859375 6.390625 41.078125 11.03125 
Q 45.3125 15.671875 45.3125 23.6875 
L 45.3125 54.6875 
L 54.296875 54.6875 
L 54.296875 0 
L 45.3125 0 
L 45.3125 8.40625 
Q 42.046875 3.421875 37.71875 1 
Q 33.40625 -1.421875 27.6875 -1.421875 
Q 18.265625 -1.421875 13.375 4.4375 
Q 8.5 10.296875 8.5 21.578125 
z
M 31.109375 56 
z
" id="DejaVuSans-117"/>
        <path d="M 48.6875 27.296875 
Q 48.6875 37.203125 44.609375 42.84375 
Q 40.53125 48.484375 33.40625 48.484375 
Q 26.265625 48.484375 22.1875 42.84375 
Q 18.109375 37.203125 18.109375 27.296875 
Q 18.109375 17.390625 22.1875 11.75 
Q 26.265625 6.109375 33.40625 6.109375 
Q 40.53125 6.109375 44.609375 11.75 
Q 48.6875 17.390625 48.6875 27.296875 
z
M 18.109375 46.390625 
Q 20.953125 51.265625 25.265625 53.625 
Q 29.59375 56 35.59375 56 
Q 45.5625 56 51.78125 48.09375 
Q 58.015625 40.1875 58.015625 27.296875 
Q 58.015625 14.40625 51.78125 6.484375 
Q 45.5625 -1.421875 35.59375 -1.421875 
Q 29.59375 -1.421875 25.265625 0.953125 
Q 20.953125 3.328125 18.109375 8.203125 
L 18.109375 0 
L 9.078125 0 
L 9.078125 75.984375 
L 18.109375 75.984375 
z
" id="DejaVuSans-98"/>
       </defs>
       <use xlink:href="#DejaVuSans-84"/>
       <use x="46.333984" xlink:href="#DejaVuSans-114"/>
       <use x="85.197266" xlink:href="#DejaVuSans-101"/>
       <use x="146.720703" xlink:href="#DejaVuSans-97"/>
       <use x="208" xlink:href="#DejaVuSans-116"/>
       <use x="247.208984" xlink:href="#DejaVuSans-101"/>
       <use x="308.732422" xlink:href="#DejaVuSans-100"/>
       <use x="372.208984" xlink:href="#DejaVuSans-32"/>
       <use x="403.996094" xlink:href="#DejaVuSans-115"/>
       <use x="456.095703" xlink:href="#DejaVuSans-117"/>
       <use x="519.474609" xlink:href="#DejaVuSans-98"/>
       <use x="582.951172" xlink:href="#DejaVuSans-115"/>
       <use x="635.050781" xlink:href="#DejaVuSans-116"/>
       <use x="674.259766" xlink:href="#DejaVuSans-114"/>
       <use x="715.373047" xlink:href="#DejaVuSans-97"/>
       <use x="776.652344" xlink:href="#DejaVuSans-116"/>
       <use x="815.861328" xlink:href="#DejaVuSans-101"/>
      </g>
      <!-- (step width=0.43±0.04μm) -->
      <g transform="translate(69.686875 270.536625)scale(0.14 -0.14)">
       <defs>
        <path d="M 31 75.875 
Q 24.46875 64.65625 21.28125 53.65625 
Q 18.109375 42.671875 18.109375 31.390625 
Q 18.109375 20.125 21.3125 9.0625 
Q 24.515625 -2 31 -13.1875 
L 23.1875 -13.1875 
Q 15.875 -1.703125 12.234375 9.375 
Q 8.59375 20.453125 8.59375 31.390625 
Q 8.59375 42.28125 12.203125 53.3125 
Q 15.828125 64.359375 23.1875 75.875 
z
" id="DejaVuSans-40"/>
        <path d="M 18.109375 8.203125 
L 18.109375 -20.796875 
L 9.078125 -20.796875 
L 9.078125 54.6875 
L 18.109375 54.6875 
L 18.109375 46.390625 
Q 20.953125 51.265625 25.265625 53.625 
Q 29.59375 56 35.59375 56 
Q 45.5625 56 51.78125 48.09375 
Q 58.015625 40.1875 58.015625 27.296875 
Q 58.015625 14.40625 51.78125 6.484375 
Q 45.5625 -1.421875 35.59375 -1.421875 
Q 29.59375 -1.421875 25.265625 0.953125 
Q 20.953125 3.328125 18.109375 8.203125 
z
M 48.6875 27.296875 
Q 48.6875 37.203125 44.609375 42.84375 
Q 40.53125 48.484375 33.40625 48.484375 
Q 26.265625 48.484375 22.1875 42.84375 
Q 18.109375 37.203125 18.109375 27.296875 
Q 18.109375 17.390625 22.1875 11.75 
Q 26.265625 6.109375 33.40625 6.109375 
Q 40.53125 6.109375 44.609375 11.75 
Q 48.6875 17.390625 48.6875 27.296875 
z
" id="DejaVuSans-112"/>
        <path d="M 4.203125 54.6875 
L 13.1875 54.6875 
L 24.421875 12.015625 
L 35.59375 54.6875 
L 46.1875 54.6875 
L 57.421875 12.015625 
L 68.609375 54.6875 
L 77.59375 54.6875 
L 63.28125 0 
L 52.6875 0 
L 40.921875 44.828125 
L 29.109375 0 
L 18.5 0 
z
" id="DejaVuSans-119"/>
        <path d="M 9.421875 54.6875 
L 18.40625 54.6875 
L 18.40625 0 
L 9.421875 0 
z
M 9.421875 75.984375 
L 18.40625 75.984375 
L 18.40625 64.59375 
L 9.421875 64.59375 
z
" id="DejaVuSans-105"/>
        <path d="M 54.890625 33.015625 
L 54.890625 0 
L 45.90625 0 
L 45.90625 32.71875 
Q 45.90625 40.484375 42.875 44.328125 
Q 39.84375 48.1875 33.796875 48.1875 
Q 26.515625 48.1875 22.3125 43.546875 
Q 18.109375 38.921875 18.109375 30.90625 
L 18.109375 0 
L 9.078125 0 
L 9.078125 75.984375 
L 18.109375 75.984375 
L 18.109375 46.1875 
Q 21.34375 51.125 25.703125 53.5625 
Q 30.078125 56 35.796875 56 
Q 45.21875 56 50.046875 50.171875 
Q 54.890625 44.34375 54.890625 33.015625 
z
" id="DejaVuSans-104"/>
        <path d="M 10.59375 45.40625 
L 73.1875 45.40625 
L 73.1875 37.203125 
L 10.59375 37.203125 
z
M 10.59375 25.484375 
L 73.1875 25.484375 
L 73.1875 17.1875 
L 10.59375 17.1875 
z
" id="DejaVuSans-61"/>
        <path d="M 31.78125 66.40625 
Q 24.171875 66.40625 20.328125 58.90625 
Q 16.5 51.421875 16.5 36.375 
Q 16.5 21.390625 20.328125 13.890625 
Q 24.171875 6.390625 31.78125 6.390625 
Q 39.453125 6.390625 43.28125 13.890625 
Q 47.125 21.390625 47.125 36.375 
Q 47.125 51.421875 43.28125 58.90625 
Q 39.453125 66.40625 31.78125 66.40625 
z
M 31.78125 74.21875 
Q 44.046875 74.21875 50.515625 64.515625 
Q 56.984375 54.828125 56.984375 36.375 
Q 56.984375 17.96875 50.515625 8.265625 
Q 44.046875 -1.421875 31.78125 -1.421875 
Q 19.53125 -1.421875 13.0625 8.265625 
Q 6.59375 17.96875 6.59375 36.375 
Q 6.59375 54.828125 13.0625 64.515625 
Q 19.53125 74.21875 31.78125 74.21875 
z
" id="DejaVuSans-48"/>
        <path d="M 10.6875 12.40625 
L 21 12.40625 
L 21 0 
L 10.6875 0 
z
" id="DejaVuSans-46"/>
        <path d="M 37.796875 64.3125 
L 12.890625 25.390625 
L 37.796875 25.390625 
z
M 35.203125 72.90625 
L 47.609375 72.90625 
L 47.609375 25.390625 
L 58.015625 25.390625 
L 58.015625 17.1875 
L 47.609375 17.1875 
L 47.609375 0 
L 37.796875 0 
L 37.796875 17.1875 
L 4.890625 17.1875 
L 4.890625 26.703125 
z
" id="DejaVuSans-52"/>
        <path d="M 40.578125 39.3125 
Q 47.65625 37.796875 51.625 33 
Q 55.609375 28.21875 55.609375 21.1875 
Q 55.609375 10.40625 48.1875 4.484375 
Q 40.765625 -1.421875 27.09375 -1.421875 
Q 22.515625 -1.421875 17.65625 -0.515625 
Q 12.796875 0.390625 7.625 2.203125 
L 7.625 11.71875 
Q 11.71875 9.328125 16.59375 8.109375 
Q 21.484375 6.890625 26.8125 6.890625 
Q 36.078125 6.890625 40.9375 10.546875 
Q 45.796875 14.203125 45.796875 21.1875 
Q 45.796875 27.640625 41.28125 31.265625 
Q 36.765625 34.90625 28.71875 34.90625 
L 20.21875 34.90625 
L 20.21875 43.015625 
L 29.109375 43.015625 
Q 36.375 43.015625 40.234375 45.921875 
Q 44.09375 48.828125 44.09375 54.296875 
Q 44.09375 59.90625 40.109375 62.90625 
Q 36.140625 65.921875 28.71875 65.921875 
Q 24.65625 65.921875 20.015625 65.03125 
Q 15.375 64.15625 9.8125 62.3125 
L 9.8125 71.09375 
Q 15.4375 72.65625 20.34375 73.4375 
Q 25.25 74.21875 29.59375 74.21875 
Q 40.828125 74.21875 47.359375 69.109375 
Q 53.90625 64.015625 53.90625 55.328125 
Q 53.90625 49.265625 50.4375 45.09375 
Q 46.96875 40.921875 40.578125 39.3125 
z
" id="DejaVuSans-51"/>
        <path d="M 46 62.703125 
L 46 43.796875 
L 73.1875 43.796875 
L 73.1875 35.5 
L 46 35.5 
L 46 16.609375 
L 37.796875 16.609375 
L 37.796875 35.5 
L 10.59375 35.5 
L 10.59375 43.796875 
L 37.796875 43.796875 
L 37.796875 62.703125 
z
M 10.59375 8.296875 
L 73.1875 8.296875 
L 73.1875 0 
L 10.59375 0 
z
" id="DejaVuSans-177"/>
        <path d="M 8.5 -20.796875 
L 8.5 54.6875 
L 17.484375 54.6875 
L 17.484375 20.703125 
Q 17.484375 13.625 20.84375 10 
Q 24.21875 6.390625 30.8125 6.390625 
Q 38.03125 6.390625 41.671875 10.484375 
Q 45.3125 14.59375 45.3125 22.796875 
L 45.3125 54.6875 
L 54.296875 54.6875 
L 54.296875 12.59375 
Q 54.296875 9.671875 55.140625 8.28125 
Q 56 6.890625 57.8125 6.890625 
Q 58.25 6.890625 59.03125 7.15625 
Q 59.8125 7.421875 61.1875 8.015625 
L 61.1875 0.78125 
Q 59.1875 -0.34375 57.390625 -0.875 
Q 55.609375 -1.421875 53.90625 -1.421875 
Q 50.53125 -1.421875 48.53125 0.484375 
Q 46.53125 2.390625 45.796875 6.296875 
Q 43.359375 2.4375 39.8125 0.5 
Q 36.28125 -1.421875 31.5 -1.421875 
Q 26.515625 -1.421875 23.015625 0.484375 
Q 19.53125 2.390625 17.484375 6.203125 
L 17.484375 -20.796875 
z
" id="DejaVuSans-956"/>
        <path d="M 52 44.1875 
Q 55.375 50.25 60.0625 53.125 
Q 64.75 56 71.09375 56 
Q 79.640625 56 84.28125 50.015625 
Q 88.921875 44.046875 88.921875 33.015625 
L 88.921875 0 
L 79.890625 0 
L 79.890625 32.71875 
Q 79.890625 40.578125 77.09375 44.375 
Q 74.3125 48.1875 68.609375 48.1875 
Q 61.625 48.1875 57.5625 43.546875 
Q 53.515625 38.921875 53.515625 30.90625 
L 53.515625 0 
L 44.484375 0 
L 44.484375 32.71875 
Q 44.484375 40.625 41.703125 44.40625 
Q 38.921875 48.1875 33.109375 48.1875 
Q 26.21875 48.1875 22.15625 43.53125 
Q 18.109375 38.875 18.109375 30.90625 
L 18.109375 0 
L 9.078125 0 
L 9.078125 54.6875 
L 18.109375 54.6875 
L 18.109375 46.1875 
Q 21.1875 51.21875 25.484375 53.609375 
Q 29.78125 56 35.6875 56 
Q 41.65625 56 45.828125 52.96875 
Q 50 49.953125 52 44.1875 
z
" id="DejaVuSans-109"/>
        <path d="M 8.015625 75.875 
L 15.828125 75.875 
Q 23.140625 64.359375 26.78125 53.3125 
Q 30.421875 42.28125 30.421875 31.390625 
Q 30.421875 20.453125 26.78125 9.375 
Q 23.140625 -1.703125 15.828125 -13.1875 
L 8.015625 -13.1875 
Q 14.5 -2 17.703125 9.0625 
Q 20.90625 20.125 20.90625 31.390625 
Q 20.90625 42.671875 17.703125 53.65625 
Q 14.5 64.65625 8.015625 75.875 
z
" id="DejaVuSans-41"/>
       </defs>
       <use xlink:href="#DejaVuSans-40"/>
       <use x="39.013672" xlink:href="#DejaVuSans-115"/>
       <use x="91.113281" xlink:href="#DejaVuSans-116"/>
       <use x="130.322266" xlink:href="#DejaVuSans-101"/>
       <use x="191.845703" xlink:href="#DejaVuSans-112"/>
       <use x="255.322266" xlink:href="#DejaVuSans-32"/>
       <use x="287.109375" xlink:href="#DejaVuSans-119"/>
       <use x="368.896484" xlink:href="#DejaVuSans-105"/>
       <use x="396.679688" xlink:href="#DejaVuSans-100"/>
       <use x="460.15625" xlink:href="#DejaVuSans-116"/>
       <use x="499.365234" xlink:href="#DejaVuSans-104"/>
       <use x="562.744141" xlink:href="#DejaVuSans-61"/>
       <use x="646.533203" xlink:href="#DejaVuSans-48"/>
       <use x="710.15625" xlink:href="#DejaVuSans-46"/>
       <use x="741.943359" xlink:href="#DejaVuSans-52"/>
       <use x="805.566406" xlink:href="#DejaVuSans-51"/>
       <use x="869.189453" xlink:href="#DejaVuSans-177"/>
       <use x="952.978516" xlink:href="#DejaVuSans-48"/>
       <use x="1016.601562" xlink:href="#DejaVuSans-46"/>
       <use x="1048.388672" xlink:href="#DejaVuSans-48"/>
       <use x="1112.011719" xlink:href="#DejaVuSans-52"/>
       <use x="1175.634766" xlink:href="#DejaVuSans-956"/>
       <use x="1239.257812" xlink:href="#DejaVuSans-109"/>
       <use x="1336.669922" xlink:href="#DejaVuSans-41"/>
      </g>
     </g>
    </g>
    <g id="xtick_2">
     <g id="line2d_3">
      <g>
       <use style="stroke:#000000;stroke-width:0.8;" x="389.185" xlink:href="#m2e9fc401be" y="240.721875"/>
      </g>
     </g>
     <g id="line2d_4">
      <g>
       <use style="stroke:#000000;stroke-width:0.8;" x="389.185" xlink:href="#m1ea92cfd02" y="18.961875"/>
      </g>
     </g>
     <g id="text_2">
      <!-- Treated substrate -->
      <g transform="translate(327.76875 254.859687)scale(0.14 -0.14)">
       <use xlink:href="#DejaVuSans-84"/>
       <use x="46.333984" xlink:href="#DejaVuSans-114"/>
       <use x="85.197266" xlink:href="#DejaVuSans-101"/>
       <use x="146.720703" xlink:href="#DejaVuSans-97"/>
       <use x="208" xlink:href="#DejaVuSans-116"/>
       <use x="247.208984" xlink:href="#DejaVuSans-101"/>
       <use x="308.732422" xlink:href="#DejaVuSans-100"/>
       <use x="372.208984" xlink:href="#DejaVuSans-32"/>
       <use x="403.996094" xlink:href="#DejaVuSans-115"/>
       <use x="456.095703" xlink:href="#DejaVuSans-117"/>
       <use x="519.474609" xlink:href="#DejaVuSans-98"/>
       <use x="582.951172" xlink:href="#DejaVuSans-115"/>
       <use x="635.050781" xlink:href="#DejaVuSans-116"/>
       <use x="674.259766" xlink:href="#DejaVuSans-114"/>
       <use x="715.373047" xlink:href="#DejaVuSans-97"/>
       <use x="776.652344" xlink:href="#DejaVuSans-116"/>
       <use x="815.861328" xlink:href="#DejaVuSans-101"/>
      </g>
      <!-- (step width=0.11±0.01μm) -->
      <g transform="translate(292.886875 270.536625)scale(0.14 -0.14)">
       <defs>
        <path d="M 12.40625 8.296875 
L 28.515625 8.296875 
L 28.515625 63.921875 
L 10.984375 60.40625 
L 10.984375 69.390625 
L 28.421875 72.90625 
L 38.28125 72.90625 
L 38.28125 8.296875 
L 54.390625 8.296875 
L 54.390625 0 
L 12.40625 0 
z
" id="DejaVuSans-49"/>
       </defs>
       <use xlink:href="#DejaVuSans-40"/>
       <use x="39.013672" xlink:href="#DejaVuSans-115"/>
       <use x="91.113281" xlink:href="#DejaVuSans-116"/>
       <use x="130.322266" xlink:href="#DejaVuSans-101"/>
       <use x="191.845703" xlink:href="#DejaVuSans-112"/>
       <use x="255.322266" xlink:href="#DejaVuSans-32"/>
       <use x="287.109375" xlink:href="#DejaVuSans-119"/>
       <use x="368.896484" xlink:href="#DejaVuSans-105"/>
       <use x="396.679688" xlink:href="#DejaVuSans-100"/>
       <use x="460.15625" xlink:href="#DejaVuSans-116"/>
       <use x="499.365234" xlink:href="#DejaVuSans-104"/>
       <use x="562.744141" xlink:href="#DejaVuSans-61"/>
       <use x="646.533203" xlink:href="#DejaVuSans-48"/>
       <use x="710.15625" xlink:href="#DejaVuSans-46"/>
       <use x="741.943359" xlink:href="#DejaVuSans-49"/>
       <use x="805.566406" xlink:href="#DejaVuSans-49"/>
       <use x="869.189453" xlink:href="#DejaVuSans-177"/>
       <use x="952.978516" xlink:href="#DejaVuSans-48"/>
       <use x="1016.601562" xlink:href="#DejaVuSans-46"/>
       <use x="1048.388672" xlink:href="#DejaVuSans-48"/>
       <use x="1112.011719" xlink:href="#DejaVuSans-49"/>
       <use x="1175.634766" xlink:href="#DejaVuSans-956"/>
       <use x="1239.257812" xlink:href="#DejaVuSans-109"/>
       <use x="1336.669922" xlink:href="#DejaVuSans-41"/>
      </g>
     </g>
    </g>
    <g id="xtick_3">
     <g id="line2d_5">
      <g>
       <use style="stroke:#000000;stroke-width:0.8;" x="612.385" xlink:href="#m2e9fc401be" y="240.721875"/>
      </g>
     </g>
     <g id="line2d_6">
      <g>
       <use style="stroke:#000000;stroke-width:0.8;" x="612.385" xlink:href="#m1ea92cfd02" y="18.961875"/>
      </g>
     </g>
     <g id="text_3">
      <!-- Untreated substrate -->
      <g transform="translate(541.908125 254.859687)scale(0.14 -0.14)">
       <defs>
        <path d="M 8.6875 72.90625 
L 18.609375 72.90625 
L 18.609375 28.609375 
Q 18.609375 16.890625 22.84375 11.734375 
Q 27.09375 6.59375 36.625 6.59375 
Q 46.09375 6.59375 50.34375 11.734375 
Q 54.59375 16.890625 54.59375 28.609375 
L 54.59375 72.90625 
L 64.5 72.90625 
L 64.5 27.390625 
Q 64.5 13.140625 57.4375 5.859375 
Q 50.390625 -1.421875 36.625 -1.421875 
Q 22.796875 -1.421875 15.734375 5.859375 
Q 8.6875 13.140625 8.6875 27.390625 
z
" id="DejaVuSans-85"/>
        <path d="M 54.890625 33.015625 
L 54.890625 0 
L 45.90625 0 
L 45.90625 32.71875 
Q 45.90625 40.484375 42.875 44.328125 
Q 39.84375 48.1875 33.796875 48.1875 
Q 26.515625 48.1875 22.3125 43.546875 
Q 18.109375 38.921875 18.109375 30.90625 
L 18.109375 0 
L 9.078125 0 
L 9.078125 54.6875 
L 18.109375 54.6875 
L 18.109375 46.1875 
Q 21.34375 51.125 25.703125 53.5625 
Q 30.078125 56 35.796875 56 
Q 45.21875 56 50.046875 50.171875 
Q 54.890625 44.34375 54.890625 33.015625 
z
" id="DejaVuSans-110"/>
       </defs>
       <use xlink:href="#DejaVuSans-85"/>
       <use x="73.193359" xlink:href="#DejaVuSans-110"/>
       <use x="136.572266" xlink:href="#DejaVuSans-116"/>
       <use x="175.78125" xlink:href="#DejaVuSans-114"/>
       <use x="214.644531" xlink:href="#DejaVuSans-101"/>
       <use x="276.167969" xlink:href="#DejaVuSans-97"/>
       <use x="337.447266" xlink:href="#DejaVuSans-116"/>
       <use x="376.65625" xlink:href="#DejaVuSans-101"/>
       <use x="438.179688" xlink:href="#DejaVuSans-100"/>
       <use x="501.65625" xlink:href="#DejaVuSans-32"/>
       <use x="533.443359" xlink:href="#DejaVuSans-115"/>
       <use x="585.542969" xlink:href="#DejaVuSans-117"/>
       <use x="648.921875" xlink:href="#DejaVuSans-98"/>
       <use x="712.398438" xlink:href="#DejaVuSans-115"/>
       <use x="764.498047" xlink:href="#DejaVuSans-116"/>
       <use x="803.707031" xlink:href="#DejaVuSans-114"/>
       <use x="844.820312" xlink:href="#DejaVuSans-97"/>
       <use x="906.099609" xlink:href="#DejaVuSans-116"/>
       <use x="945.308594" xlink:href="#DejaVuSans-101"/>
      </g>
      <!-- (step width=0.28±0.03μm) -->
      <g transform="translate(516.086875 270.536625)scale(0.14 -0.14)">
       <defs>
        <path d="M 19.1875 8.296875 
L 53.609375 8.296875 
L 53.609375 0 
L 7.328125 0 
L 7.328125 8.296875 
Q 12.9375 14.109375 22.625 23.890625 
Q 32.328125 33.6875 34.8125 36.53125 
Q 39.546875 41.84375 41.421875 45.53125 
Q 43.3125 49.21875 43.3125 52.78125 
Q 43.3125 58.59375 39.234375 62.25 
Q 35.15625 65.921875 28.609375 65.921875 
Q 23.96875 65.921875 18.8125 64.3125 
Q 13.671875 62.703125 7.8125 59.421875 
L 7.8125 69.390625 
Q 13.765625 71.78125 18.9375 73 
Q 24.125 74.21875 28.421875 74.21875 
Q 39.75 74.21875 46.484375 68.546875 
Q 53.21875 62.890625 53.21875 53.421875 
Q 53.21875 48.921875 51.53125 44.890625 
Q 49.859375 40.875 45.40625 35.40625 
Q 44.1875 33.984375 37.640625 27.21875 
Q 31.109375 20.453125 19.1875 8.296875 
z
" id="DejaVuSans-50"/>
        <path d="M 31.78125 34.625 
Q 24.75 34.625 20.71875 30.859375 
Q 16.703125 27.09375 16.703125 20.515625 
Q 16.703125 13.921875 20.71875 10.15625 
Q 24.75 6.390625 31.78125 6.390625 
Q 38.8125 6.390625 42.859375 10.171875 
Q 46.921875 13.96875 46.921875 20.515625 
Q 46.921875 27.09375 42.890625 30.859375 
Q 38.875 34.625 31.78125 34.625 
z
M 21.921875 38.8125 
Q 15.578125 40.375 12.03125 44.71875 
Q 8.5 49.078125 8.5 55.328125 
Q 8.5 64.0625 14.71875 69.140625 
Q 20.953125 74.21875 31.78125 74.21875 
Q 42.671875 74.21875 48.875 69.140625 
Q 55.078125 64.0625 55.078125 55.328125 
Q 55.078125 49.078125 51.53125 44.71875 
Q 48 40.375 41.703125 38.8125 
Q 48.828125 37.15625 52.796875 32.3125 
Q 56.78125 27.484375 56.78125 20.515625 
Q 56.78125 9.90625 50.3125 4.234375 
Q 43.84375 -1.421875 31.78125 -1.421875 
Q 19.734375 -1.421875 13.25 4.234375 
Q 6.78125 9.90625 6.78125 20.515625 
Q 6.78125 27.484375 10.78125 32.3125 
Q 14.796875 37.15625 21.921875 38.8125 
z
M 18.3125 54.390625 
Q 18.3125 48.734375 21.84375 45.5625 
Q 25.390625 42.390625 31.78125 42.390625 
Q 38.140625 42.390625 41.71875 45.5625 
Q 45.3125 48.734375 45.3125 54.390625 
Q 45.3125 60.0625 41.71875 63.234375 
Q 38.140625 66.40625 31.78125 66.40625 
Q 25.390625 66.40625 21.84375 63.234375 
Q 18.3125 60.0625 18.3125 54.390625 
z
" id="DejaVuSans-56"/>
       </defs>
       <use xlink:href="#DejaVuSans-40"/>
       <use x="39.013672" xlink:href="#DejaVuSans-115"/>
       <use x="91.113281" xlink:href="#DejaVuSans-116"/>
       <use x="130.322266" xlink:href="#DejaVuSans-101"/>
       <use x="191.845703" xlink:href="#DejaVuSans-112"/>
       <use x="255.322266" xlink:href="#DejaVuSans-32"/>
       <use x="287.109375" xlink:href="#DejaVuSans-119"/>
       <use x="368.896484" xlink:href="#DejaVuSans-105"/>
       <use x="396.679688" xlink:href="#DejaVuSans-100"/>
       <use x="460.15625" xlink:href="#DejaVuSans-116"/>
       <use x="499.365234" xlink:href="#DejaVuSans-104"/>
       <use x="562.744141" xlink:href="#DejaVuSans-61"/>
       <use x="646.533203" xlink:href="#DejaVuSans-48"/>
       <use x="710.15625" xlink:href="#DejaVuSans-46"/>
       <use x="741.943359" xlink:href="#DejaVuSans-50"/>
       <use x="805.566406" xlink:href="#DejaVuSans-56"/>
       <use x="869.189453" xlink:href="#DejaVuSans-177"/>
       <use x="952.978516" xlink:href="#DejaVuSans-48"/>
       <use x="1016.601562" xlink:href="#DejaVuSans-46"/>
       <use x="1048.388672" xlink:href="#DejaVuSans-48"/>
       <use x="1112.011719" xlink:href="#DejaVuSans-51"/>
       <use x="1175.634766" xlink:href="#DejaVuSans-956"/>
       <use x="1239.257812" xlink:href="#DejaVuSans-109"/>
       <use x="1336.669922" xlink:href="#DejaVuSans-41"/>
      </g>
     </g>
    </g>
   </g>
   <g id="matplotlib.axis_2">
    <g id="ytick_1">
     <g id="line2d_7">
      <defs>
       <path d="M 0 0 
L 3.5 0 
" id="md20df351c8" style="stroke:#000000;stroke-width:0.8;"/>
      </defs>
      <g>
       <use style="stroke:#000000;stroke-width:0.8;" x="54.385" xlink:href="#md20df351c8" y="215.029513"/>
      </g>
     </g>
     <g id="line2d_8">
      <defs>
       <path d="M 0 0 
L -3.5 0 
" id="mf6c8ed7e89" style="stroke:#000000;stroke-width:0.8;"/>
      </defs>
      <g>
       <use style="stroke:#000000;stroke-width:0.8;" x="723.985" xlink:href="#mf6c8ed7e89" y="215.029513"/>
      </g>
     </g>
     <g id="text_4">
      <!-- 0.0 -->
      <g transform="translate(28.620625 220.348419)scale(0.14 -0.14)">
       <use xlink:href="#DejaVuSans-48"/>
       <use x="63.623047" xlink:href="#DejaVuSans-46"/>
       <use x="95.410156" xlink:href="#DejaVuSans-48"/>
      </g>
     </g>
    </g>
    <g id="ytick_2">
     <g id="line2d_9">
      <g>
       <use style="stroke:#000000;stroke-width:0.8;" x="54.385" xlink:href="#md20df351c8" y="175.634747"/>
      </g>
     </g>
     <g id="line2d_10">
      <g>
       <use style="stroke:#000000;stroke-width:0.8;" x="723.985" xlink:href="#mf6c8ed7e89" y="175.634747"/>
      </g>
     </g>
     <g id="text_5">
      <!-- 0.2 -->
      <g transform="translate(28.620625 180.953653)scale(0.14 -0.14)">
       <use xlink:href="#DejaVuSans-48"/>
       <use x="63.623047" xlink:href="#DejaVuSans-46"/>
       <use x="95.410156" xlink:href="#DejaVuSans-50"/>
      </g>
     </g>
    </g>
    <g id="ytick_3">
     <g id="line2d_11">
      <g>
       <use style="stroke:#000000;stroke-width:0.8;" x="54.385" xlink:href="#md20df351c8" y="136.23998"/>
      </g>
     </g>
     <g id="line2d_12">
      <g>
       <use style="stroke:#000000;stroke-width:0.8;" x="723.985" xlink:href="#mf6c8ed7e89" y="136.23998"/>
      </g>
     </g>
     <g id="text_6">
      <!-- 0.4 -->
      <g transform="translate(28.620625 141.558887)scale(0.14 -0.14)">
       <use xlink:href="#DejaVuSans-48"/>
       <use x="63.623047" xlink:href="#DejaVuSans-46"/>
       <use x="95.410156" xlink:href="#DejaVuSans-52"/>
      </g>
     </g>
    </g>
    <g id="ytick_4">
     <g id="line2d_13">
      <g>
       <use style="stroke:#000000;stroke-width:0.8;" x="54.385" xlink:href="#md20df351c8" y="96.845214"/>
      </g>
     </g>
     <g id="line2d_14">
      <g>
       <use style="stroke:#000000;stroke-width:0.8;" x="723.985" xlink:href="#mf6c8ed7e89" y="96.845214"/>
      </g>
     </g>
     <g id="text_7">
      <!-- 0.6 -->
      <g transform="translate(28.620625 102.16412)scale(0.14 -0.14)">
       <defs>
        <path d="M 33.015625 40.375 
Q 26.375 40.375 22.484375 35.828125 
Q 18.609375 31.296875 18.609375 23.390625 
Q 18.609375 15.53125 22.484375 10.953125 
Q 26.375 6.390625 33.015625 6.390625 
Q 39.65625 6.390625 43.53125 10.953125 
Q 47.40625 15.53125 47.40625 23.390625 
Q 47.40625 31.296875 43.53125 35.828125 
Q 39.65625 40.375 33.015625 40.375 
z
M 52.59375 71.296875 
L 52.59375 62.3125 
Q 48.875 64.0625 45.09375 64.984375 
Q 41.3125 65.921875 37.59375 65.921875 
Q 27.828125 65.921875 22.671875 59.328125 
Q 17.53125 52.734375 16.796875 39.40625 
Q 19.671875 43.65625 24.015625 45.921875 
Q 28.375 48.1875 33.59375 48.1875 
Q 44.578125 48.1875 50.953125 41.515625 
Q 57.328125 34.859375 57.328125 23.390625 
Q 57.328125 12.15625 50.6875 5.359375 
Q 44.046875 -1.421875 33.015625 -1.421875 
Q 20.359375 -1.421875 13.671875 8.265625 
Q 6.984375 17.96875 6.984375 36.375 
Q 6.984375 53.65625 15.1875 63.9375 
Q 23.390625 74.21875 37.203125 74.21875 
Q 40.921875 74.21875 44.703125 73.484375 
Q 48.484375 72.75 52.59375 71.296875 
z
" id="DejaVuSans-54"/>
       </defs>
       <use xlink:href="#DejaVuSans-48"/>
       <use x="63.623047" xlink:href="#DejaVuSans-46"/>
       <use x="95.410156" xlink:href="#DejaVuSans-54"/>
      </g>
     </g>
    </g>
    <g id="ytick_5">
     <g id="line2d_15">
      <g>
       <use style="stroke:#000000;stroke-width:0.8;" x="54.385" xlink:href="#md20df351c8" y="57.450448"/>
      </g>
     </g>
     <g id="line2d_16">
      <g>
       <use style="stroke:#000000;stroke-width:0.8;" x="723.985" xlink:href="#mf6c8ed7e89" y="57.450448"/>
      </g>
     </g>
     <g id="text_8">
      <!-- 0.8 -->
      <g transform="translate(28.620625 62.769354)scale(0.14 -0.14)">
       <use xlink:href="#DejaVuSans-48"/>
       <use x="63.623047" xlink:href="#DejaVuSans-46"/>
       <use x="95.410156" xlink:href="#DejaVuSans-56"/>
      </g>
     </g>
    </g>
    <g id="text_9">
     <!-- Diffusion Time Constant (s) -->
     <g transform="translate(20.877187 252.48375)rotate(-90)scale(0.18 -0.18)">
      <defs>
       <path d="M 19.671875 64.796875 
L 19.671875 8.109375 
L 31.59375 8.109375 
Q 46.6875 8.109375 53.6875 14.9375 
Q 60.6875 21.78125 60.6875 36.53125 
Q 60.6875 51.171875 53.6875 57.984375 
Q 46.6875 64.796875 31.59375 64.796875 
z
M 9.8125 72.90625 
L 30.078125 72.90625 
Q 51.265625 72.90625 61.171875 64.09375 
Q 71.09375 55.28125 71.09375 36.53125 
Q 71.09375 17.671875 61.125 8.828125 
Q 51.171875 0 30.078125 0 
L 9.8125 0 
z
" id="DejaVuSans-68"/>
       <path d="M 37.109375 75.984375 
L 37.109375 68.5 
L 28.515625 68.5 
Q 23.6875 68.5 21.796875 66.546875 
Q 19.921875 64.59375 19.921875 59.515625 
L 19.921875 54.6875 
L 34.71875 54.6875 
L 34.71875 47.703125 
L 19.921875 47.703125 
L 19.921875 0 
L 10.890625 0 
L 10.890625 47.703125 
L 2.296875 47.703125 
L 2.296875 54.6875 
L 10.890625 54.6875 
L 10.890625 58.5 
Q 10.890625 67.625 15.140625 71.796875 
Q 19.390625 75.984375 28.609375 75.984375 
z
" id="DejaVuSans-102"/>
       <path d="M 30.609375 48.390625 
Q 23.390625 48.390625 19.1875 42.75 
Q 14.984375 37.109375 14.984375 27.296875 
Q 14.984375 17.484375 19.15625 11.84375 
Q 23.34375 6.203125 30.609375 6.203125 
Q 37.796875 6.203125 41.984375 11.859375 
Q 46.1875 17.53125 46.1875 27.296875 
Q 46.1875 37.015625 41.984375 42.703125 
Q 37.796875 48.390625 30.609375 48.390625 
z
M 30.609375 56 
Q 42.328125 56 49.015625 48.375 
Q 55.71875 40.765625 55.71875 27.296875 
Q 55.71875 13.875 49.015625 6.21875 
Q 42.328125 -1.421875 30.609375 -1.421875 
Q 18.84375 -1.421875 12.171875 6.21875 
Q 5.515625 13.875 5.515625 27.296875 
Q 5.515625 40.765625 12.171875 48.375 
Q 18.84375 56 30.609375 56 
z
" id="DejaVuSans-111"/>
       <path d="M 64.40625 67.28125 
L 64.40625 56.890625 
Q 59.421875 61.53125 53.78125 63.8125 
Q 48.140625 66.109375 41.796875 66.109375 
Q 29.296875 66.109375 22.65625 58.46875 
Q 16.015625 50.828125 16.015625 36.375 
Q 16.015625 21.96875 22.65625 14.328125 
Q 29.296875 6.6875 41.796875 6.6875 
Q 48.140625 6.6875 53.78125 8.984375 
Q 59.421875 11.28125 64.40625 15.921875 
L 64.40625 5.609375 
Q 59.234375 2.09375 53.4375 0.328125 
Q 47.65625 -1.421875 41.21875 -1.421875 
Q 24.65625 -1.421875 15.125 8.703125 
Q 5.609375 18.84375 5.609375 36.375 
Q 5.609375 53.953125 15.125 64.078125 
Q 24.65625 74.21875 41.21875 74.21875 
Q 47.75 74.21875 53.53125 72.484375 
Q 59.328125 70.75 64.40625 67.28125 
z
" id="DejaVuSans-67"/>
      </defs>
      <use xlink:href="#DejaVuSans-68"/>
      <use x="77.001953" xlink:href="#DejaVuSans-105"/>
      <use x="104.785156" xlink:href="#DejaVuSans-102"/>
      <use x="139.990234" xlink:href="#DejaVuSans-102"/>
      <use x="175.195312" xlink:href="#DejaVuSans-117"/>
      <use x="238.574219" xlink:href="#DejaVuSans-115"/>
      <use x="290.673828" xlink:href="#DejaVuSans-105"/>
      <use x="318.457031" xlink:href="#DejaVuSans-111"/>
      <use x="379.638672" xlink:href="#DejaVuSans-110"/>
      <use x="443.017578" xlink:href="#DejaVuSans-32"/>
      <use x="474.804688" xlink:href="#DejaVuSans-84"/>
      <use x="532.763672" xlink:href="#DejaVuSans-105"/>
      <use x="560.546875" xlink:href="#DejaVuSans-109"/>
      <use x="657.958984" xlink:href="#DejaVuSans-101"/>
      <use x="719.482422" xlink:href="#DejaVuSans-32"/>
      <use x="751.269531" xlink:href="#DejaVuSans-67"/>
      <use x="821.09375" xlink:href="#DejaVuSans-111"/>
      <use x="882.275391" xlink:href="#DejaVuSans-110"/>
      <use x="945.654297" xlink:href="#DejaVuSans-115"/>
      <use x="997.753906" xlink:href="#DejaVuSans-116"/>
      <use x="1036.962891" xlink:href="#DejaVuSans-97"/>
      <use x="1098.242188" xlink:href="#DejaVuSans-110"/>
      <use x="1161.621094" xlink:href="#DejaVuSans-116"/>
      <use x="1200.830078" xlink:href="#DejaVuSans-32"/>
      <use x="1232.617188" xlink:href="#DejaVuSans-40"/>
      <use x="1271.630859" xlink:href="#DejaVuSans-115"/>
      <use x="1323.730469" xlink:href="#DejaVuSans-41"/>
     </g>
    </g>
   </g>
   <g id="line2d_17">
    <path clip-path="url(#p90f1b37e14)" d="M 165.985 191.559235 
L 165.985 113.683861 
" style="fill:none;stroke:#373737;stroke-linecap:square;stroke-width:0.8;"/>
   </g>
   <g id="line2d_18">
    <path clip-path="url(#p90f1b37e14)" d="M 165.985 166.92204 
L 165.985 143.970891 
" style="fill:none;stroke:#373737;stroke-linecap:square;stroke-width:2.4;"/>
   </g>
   <g id="line2d_19">
    <path clip-path="url(#p90f1b37e14)" d="M 389.185 208.903627 
L 389.185 122.398433 
" style="fill:none;stroke:#373737;stroke-linecap:square;stroke-width:0.8;"/>
   </g>
   <g id="line2d_20">
    <path clip-path="url(#p90f1b37e14)" d="M 389.185 185.121499 
L 389.185 159.202567 
" style="fill:none;stroke:#373737;stroke-linecap:square;stroke-width:2.4;"/>
   </g>
   <g id="line2d_21">
    <path clip-path="url(#p90f1b37e14)" d="M 612.385 212.902196 
L 612.385 162.898338 
" style="fill:none;stroke:#373737;stroke-linecap:square;stroke-width:0.8;"/>
   </g>
   <g id="line2d_22">
    <path clip-path="url(#p90f1b37e14)" d="M 612.385 196.874681 
L 612.385 183.097226 
" style="fill:none;stroke:#373737;stroke-linecap:square;stroke-width:2.4;"/>
   </g>
   <g id="patch_3">
    <path d="M 54.385 240.721875 
L 54.385 18.961875 
" style="fill:none;stroke:#000000;stroke-linecap:square;stroke-linejoin:miter;stroke-width:0.8;"/>
   </g>
   <g id="patch_4">
    <path d="M 723.985 240.721875 
L 723.985 18.961875 
" style="fill:none;stroke:#000000;stroke-linecap:square;stroke-linejoin:miter;stroke-width:0.8;"/>
   </g>
   <g id="patch_5">
    <path d="M 54.385 240.721875 
L 723.985 240.721875 
" style="fill:none;stroke:#000000;stroke-linecap:square;stroke-linejoin:miter;stroke-width:0.8;"/>
   </g>
   <g id="patch_6">
    <path d="M 54.385 18.961875 
L 723.985 18.961875 
" style="fill:none;stroke:#000000;stroke-linecap:square;stroke-linejoin:miter;stroke-width:0.8;"/>
   </g>
   <g id="PathCollection_1">
    <defs>
     <path d="M 0 0.8 
C 0.212162 0.8 0.415664 0.715707 0.565685 0.565685 
C 0.715707 0.415664 0.8 0.212162 0.8 0 
C 0.8 -0.212162 0.715707 -0.415664 0.565685 -0.565685 
C 0.415664 -0.715707 0.212162 -0.8 0 -0.8 
C -0.212162 -0.8 -0.415664 -0.715707 -0.565685 -0.565685 
C -0.715707 -0.415664 -0.8 -0.212162 -0.8 0 
C -0.8 0.212162 -0.715707 0.415664 -0.565685 0.565685 
C -0.415664 0.715707 -0.212162 0.8 0 0.8 
z
" id="m3d7036cfee" style="stroke:#373737;"/>
    </defs>
    <g clip-path="url(#p90f1b37e14)">
     <use style="fill:#ffffff;stroke:#373737;" x="165.985" xlink:href="#m3d7036cfee" y="158.803333"/>
    </g>
   </g>
   <g id="PathCollection_2">
    <g clip-path="url(#p90f1b37e14)">
     <use style="fill:#ffffff;stroke:#373737;" x="389.185" xlink:href="#m3d7036cfee" y="172.005504"/>
    </g>
   </g>
   <g id="PathCollection_3">
    <g clip-path="url(#p90f1b37e14)">
     <use style="fill:#ffffff;stroke:#373737;" x="612.385" xlink:href="#m3d7036cfee" y="187.765911"/>
    </g>
   </g>
   <g id="text_10">
    <!-- 0.2854 -->
    <g transform="translate(170.449 164.712548)scale(0.14 -0.14)">
     <defs>
      <path d="M 46 36.53125 
Q 46 50.203125 43.4375 55.78125 
Q 40.875 61.375 34.8125 61.375 
Q 28.765625 61.375 26.171875 55.78125 
Q 23.578125 50.203125 23.578125 36.53125 
Q 23.578125 22.703125 26.171875 17.03125 
Q 28.765625 11.375 34.8125 11.375 
Q 40.828125 11.375 43.40625 17.03125 
Q 46 22.703125 46 36.53125 
z
M 64.796875 36.375 
Q 64.796875 18.265625 56.984375 8.421875 
Q 49.171875 -1.421875 34.8125 -1.421875 
Q 20.40625 -1.421875 12.59375 8.421875 
Q 4.78125 18.265625 4.78125 36.375 
Q 4.78125 54.546875 12.59375 64.375 
Q 20.40625 74.21875 34.8125 74.21875 
Q 49.171875 74.21875 56.984375 64.375 
Q 64.796875 54.546875 64.796875 36.375 
z
" id="DejaVuSans-Bold-48"/>
      <path d="M 10.203125 18.890625 
L 27.78125 18.890625 
L 27.78125 0 
L 10.203125 0 
z
" id="DejaVuSans-Bold-46"/>
      <path d="M 28.8125 13.8125 
L 60.890625 13.8125 
L 60.890625 0 
L 7.90625 0 
L 7.90625 13.8125 
L 34.515625 37.3125 
Q 38.09375 40.53125 39.796875 43.609375 
Q 41.5 46.6875 41.5 50 
Q 41.5 55.125 38.0625 58.25 
Q 34.625 61.375 28.90625 61.375 
Q 24.515625 61.375 19.28125 59.5 
Q 14.0625 57.625 8.109375 53.90625 
L 8.109375 69.921875 
Q 14.453125 72.015625 20.65625 73.109375 
Q 26.859375 74.21875 32.8125 74.21875 
Q 45.90625 74.21875 53.15625 68.453125 
Q 60.40625 62.703125 60.40625 52.390625 
Q 60.40625 46.4375 57.328125 41.28125 
Q 54.25 36.140625 44.390625 27.484375 
z
" id="DejaVuSans-Bold-50"/>
      <path d="M 34.8125 32.625 
Q 29.546875 32.625 26.703125 29.734375 
Q 23.875 26.859375 23.875 21.484375 
Q 23.875 16.109375 26.703125 13.25 
Q 29.546875 10.40625 34.8125 10.40625 
Q 40.046875 10.40625 42.828125 13.25 
Q 45.609375 16.109375 45.609375 21.484375 
Q 45.609375 26.90625 42.828125 29.765625 
Q 40.046875 32.625 34.8125 32.625 
z
M 21.09375 38.8125 
Q 14.453125 40.828125 11.078125 44.96875 
Q 7.71875 49.125 7.71875 55.328125 
Q 7.71875 64.546875 14.59375 69.375 
Q 21.484375 74.21875 34.8125 74.21875 
Q 48.046875 74.21875 54.921875 69.40625 
Q 61.8125 64.59375 61.8125 55.328125 
Q 61.8125 49.125 58.421875 44.96875 
Q 55.03125 40.828125 48.390625 38.8125 
Q 55.8125 36.765625 59.59375 32.15625 
Q 63.375 27.546875 63.375 20.515625 
Q 63.375 9.671875 56.171875 4.125 
Q 48.96875 -1.421875 34.8125 -1.421875 
Q 20.609375 -1.421875 13.359375 4.125 
Q 6.109375 9.671875 6.109375 20.515625 
Q 6.109375 27.546875 9.890625 32.15625 
Q 13.671875 36.765625 21.09375 38.8125 
z
M 25.484375 53.421875 
Q 25.484375 49.078125 27.90625 46.734375 
Q 30.328125 44.390625 34.8125 44.390625 
Q 39.203125 44.390625 41.59375 46.734375 
Q 44 49.078125 44 53.421875 
Q 44 57.765625 41.59375 60.078125 
Q 39.203125 62.40625 34.8125 62.40625 
Q 30.328125 62.40625 27.90625 60.0625 
Q 25.484375 57.71875 25.484375 53.421875 
z
" id="DejaVuSans-Bold-56"/>
      <path d="M 10.59375 72.90625 
L 57.328125 72.90625 
L 57.328125 59.078125 
L 25.59375 59.078125 
L 25.59375 47.796875 
Q 27.734375 48.390625 29.90625 48.703125 
Q 32.078125 49.03125 34.421875 49.03125 
Q 47.75 49.03125 55.171875 42.359375 
Q 62.59375 35.6875 62.59375 23.78125 
Q 62.59375 11.96875 54.515625 5.265625 
Q 46.4375 -1.421875 32.078125 -1.421875 
Q 25.875 -1.421875 19.796875 -0.21875 
Q 13.71875 0.984375 7.71875 3.421875 
L 7.71875 18.21875 
Q 13.671875 14.796875 19.015625 13.078125 
Q 24.359375 11.375 29.109375 11.375 
Q 35.9375 11.375 39.859375 14.71875 
Q 43.796875 18.0625 43.796875 23.78125 
Q 43.796875 29.546875 39.859375 32.859375 
Q 35.9375 36.1875 29.109375 36.1875 
Q 25.046875 36.1875 20.453125 35.125 
Q 15.875 34.078125 10.59375 31.890625 
z
" id="DejaVuSans-Bold-53"/>
      <path d="M 36.8125 57.421875 
L 16.21875 26.90625 
L 36.8125 26.90625 
z
M 33.6875 72.90625 
L 54.59375 72.90625 
L 54.59375 26.90625 
L 64.984375 26.90625 
L 64.984375 13.28125 
L 54.59375 13.28125 
L 54.59375 0 
L 36.8125 0 
L 36.8125 13.28125 
L 4.5 13.28125 
L 4.5 29.390625 
z
" id="DejaVuSans-Bold-52"/>
     </defs>
     <use xlink:href="#DejaVuSans-Bold-48"/>
     <use x="69.580078" xlink:href="#DejaVuSans-Bold-46"/>
     <use x="107.568359" xlink:href="#DejaVuSans-Bold-50"/>
     <use x="177.148438" xlink:href="#DejaVuSans-Bold-56"/>
     <use x="246.728516" xlink:href="#DejaVuSans-Bold-53"/>
     <use x="316.308594" xlink:href="#DejaVuSans-Bold-52"/>
    </g>
   </g>
   <g id="text_11">
    <!-- 0.2184 -->
    <g transform="translate(393.649 177.914719)scale(0.14 -0.14)">
     <defs>
      <path d="M 11.71875 12.984375 
L 28.328125 12.984375 
L 28.328125 60.109375 
L 11.28125 56.59375 
L 11.28125 69.390625 
L 28.21875 72.90625 
L 46.09375 72.90625 
L 46.09375 12.984375 
L 62.703125 12.984375 
L 62.703125 0 
L 11.71875 0 
z
" id="DejaVuSans-Bold-49"/>
     </defs>
     <use xlink:href="#DejaVuSans-Bold-48"/>
     <use x="69.580078" xlink:href="#DejaVuSans-Bold-46"/>
     <use x="107.568359" xlink:href="#DejaVuSans-Bold-50"/>
     <use x="177.148438" xlink:href="#DejaVuSans-Bold-49"/>
     <use x="246.728516" xlink:href="#DejaVuSans-Bold-56"/>
     <use x="316.308594" xlink:href="#DejaVuSans-Bold-52"/>
    </g>
   </g>
   <g id="text_12">
    <!-- 0.1384 -->
    <g transform="translate(616.849 193.675126)scale(0.14 -0.14)">
     <defs>
      <path d="M 46.578125 39.3125 
Q 53.953125 37.40625 57.78125 32.6875 
Q 61.625 27.984375 61.625 20.703125 
Q 61.625 9.859375 53.3125 4.21875 
Q 45.015625 -1.421875 29.109375 -1.421875 
Q 23.484375 -1.421875 17.84375 -0.515625 
Q 12.203125 0.390625 6.6875 2.203125 
L 6.6875 16.703125 
Q 11.96875 14.0625 17.15625 12.71875 
Q 22.359375 11.375 27.390625 11.375 
Q 34.859375 11.375 38.84375 13.953125 
Q 42.828125 16.546875 42.828125 21.390625 
Q 42.828125 26.375 38.75 28.9375 
Q 34.671875 31.5 26.703125 31.5 
L 19.1875 31.5 
L 19.1875 43.609375 
L 27.09375 43.609375 
Q 34.1875 43.609375 37.640625 45.828125 
Q 41.109375 48.046875 41.109375 52.59375 
Q 41.109375 56.78125 37.734375 59.078125 
Q 34.375 61.375 28.21875 61.375 
Q 23.6875 61.375 19.046875 60.34375 
Q 14.40625 59.328125 9.8125 57.328125 
L 9.8125 71.09375 
Q 15.375 72.65625 20.84375 73.4375 
Q 26.3125 74.21875 31.59375 74.21875 
Q 45.796875 74.21875 52.84375 69.546875 
Q 59.90625 64.890625 59.90625 55.515625 
Q 59.90625 49.125 56.53125 45.046875 
Q 53.171875 40.96875 46.578125 39.3125 
z
" id="DejaVuSans-Bold-51"/>
     </defs>
     <use xlink:href="#DejaVuSans-Bold-48"/>
     <use x="69.580078" xlink:href="#DejaVuSans-Bold-46"/>
     <use x="107.568359" xlink:href="#DejaVuSans-Bold-49"/>
     <use x="177.148438" xlink:href="#DejaVuSans-Bold-51"/>
     <use x="246.728516" xlink:href="#DejaVuSans-Bold-56"/>
     <use x="316.308594" xlink:href="#DejaVuSans-Bold-52"/>
    </g>
   </g>
  </g>
 </g>
 <defs>
  <clipPath id="p90f1b37e14">
   <rect height="221.76" width="669.6" x="54.385" y="18.961875"/>
  </clipPath>
 </defs>
</svg>
