<?xml version="1.0" encoding="utf-8" standalone="no"?>
<!DOCTYPE svg PUBLIC "-//W3C//DTD SVG 1.1//EN"
  "http://www.w3.org/Graphics/SVG/1.1/DTD/svg11.dtd">
<!-- Created with matplotlib (https://matplotlib.org/) -->
<svg height="268.886312pt" version="1.1" viewBox="0 0 742.916562 268.886312" width="742.916562pt" xmlns="http://www.w3.org/2000/svg" xmlns:xlink="http://www.w3.org/1999/xlink">
 <metadata>
  <rdf:RDF xmlns:cc="http://creativecommons.org/ns#" xmlns:dc="http://purl.org/dc/elements/1.1/" xmlns:rdf="http://www.w3.org/1999/02/22-rdf-syntax-ns#">
   <cc:Work>
    <dc:type rdf:resource="http://purl.org/dc/dcmitype/StillImage"/>
    <dc:date>2023-03-05T22:18:51.266576</dc:date>
    <dc:format>image/svg+xml</dc:format>
    <dc:creator>
     <cc:Agent>
      <dc:title>Matplotlib v3.3.4, https://matplotlib.org/</dc:title>
     </cc:Agent>
    </dc:creator>
   </cc:Work>
  </rdf:RDF>
 </metadata>
 <defs>
  <style type="text/css">*{stroke-linecap:butt;stroke-linejoin:round;}</style>
 </defs>
 <g id="figure_1">
  <g id="patch_1">
   <path d="M 0 268.886312 
L 742.916562 268.886312 
L 742.916562 0 
L 0 0 
z
" style="fill:#ffffff;"/>
  </g>
  <g id="axes_1">
   <g id="patch_2">
    <path d="M 66.116563 228.96 
L 735.716563 228.96 
L 735.716563 7.2 
L 66.116563 7.2 
z
" style="fill:#ffffff;"/>
   </g>
   <g id="PolyCollection_1">
    <defs>
     <path d="M 178.410578 -60.661599 
L 177.022547 -60.661599 
L 176.726485 -62.214611 
L 176.339961 -63.767622 
L 175.850303 -65.320634 
L 175.248317 -66.873645 
L 174.529908 -68.426657 
L 173.69726 -69.979668 
L 172.759267 -71.53268 
L 171.730967 -73.085691 
L 170.631942 -74.638703 
L 169.483863 -76.191714 
L 168.307608 -77.744726 
L 167.120552 -79.297737 
L 165.934642 -80.850749 
L 164.755784 -82.40376 
L 163.584759 -83.956772 
L 162.419578 -85.509783 
L 161.258791 -87.062795 
L 160.105033 -88.615806 
L 158.968025 -90.168818 
L 157.866302 -91.721829 
L 156.827289 -93.274841 
L 155.885625 -94.827852 
L 155.080056 -96.380864 
L 154.449443 -97.933875 
L 154.028568 -99.486887 
L 153.844391 -101.039898 
L 153.91326 -102.59291 
L 154.239374 -104.145922 
L 154.814546 -105.698933 
L 155.619156 -107.251945 
L 156.624034 -108.804956 
L 157.792945 -110.357968 
L 159.085357 -111.910979 
L 160.459177 -113.463991 
L 161.873237 -115.017002 
L 163.289329 -116.570014 
L 164.673726 -118.123025 
L 165.998151 -119.676037 
L 167.240231 -121.229048 
L 168.383537 -122.78206 
L 169.417286 -124.335071 
L 170.33584 -125.888083 
L 171.138072 -127.441094 
L 171.826677 -128.994106 
L 172.40746 -130.547117 
L 172.888638 -132.100129 
L 173.280143 -133.65314 
L 173.592969 -135.206152 
L 173.838536 -136.759163 
L 174.028139 -138.312175 
L 174.172471 -139.865186 
L 174.281275 -141.418198 
L 174.36313 -142.971209 
L 174.425376 -144.524221 
L 174.474161 -146.077232 
L 174.51457 -147.630244 
L 174.550785 -149.183255 
L 174.586222 -150.736267 
L 174.623601 -152.289278 
L 174.664915 -153.84229 
L 174.711326 -155.395301 
L 174.763011 -156.948313 
L 174.819032 -158.501324 
L 174.877317 -160.054336 
L 174.934807 -161.607347 
L 174.987801 -163.160359 
L 175.032507 -164.71337 
L 175.065705 -166.266382 
L 175.085434 -167.819393 
L 175.091559 -169.372405 
L 175.086099 -170.925416 
L 175.073226 -172.478428 
L 175.058912 -174.031439 
L 175.050259 -175.584451 
L 175.054628 -177.137462 
L 175.078704 -178.690474 
L 175.12766 -180.243486 
L 175.204546 -181.796497 
L 175.309992 -183.349509 
L 175.442248 -184.90252 
L 175.59752 -186.455532 
L 175.770522 -188.008543 
L 175.955132 -189.561555 
L 176.145038 -191.114566 
L 176.334302 -192.667578 
L 176.517766 -194.220589 
L 176.69129 -195.773601 
L 176.851837 -197.326612 
L 176.997429 -198.879624 
L 177.12703 -200.432635 
L 177.240375 -201.985647 
L 177.337811 -203.538658 
L 177.420139 -205.09167 
L 177.488485 -206.644681 
L 177.544192 -208.197693 
L 177.588731 -209.750704 
L 177.623623 -211.303716 
L 177.65038 -212.856727 
L 177.670443 -214.409739 
L 177.762682 -214.409739 
L 177.762682 -214.409739 
L 177.782745 -212.856727 
L 177.809502 -211.303716 
L 177.844394 -209.750704 
L 177.888933 -208.197693 
L 177.94464 -206.644681 
L 178.012986 -205.09167 
L 178.095314 -203.538658 
L 178.19275 -201.985647 
L 178.306095 -200.432635 
L 178.435696 -198.879624 
L 178.581288 -197.326612 
L 178.741835 -195.773601 
L 178.915359 -194.220589 
L 179.098823 -192.667578 
L 179.288087 -191.114566 
L 179.477993 -189.561555 
L 179.662603 -188.008543 
L 179.835605 -186.455532 
L 179.990877 -184.90252 
L 180.123133 -183.349509 
L 180.228579 -181.796497 
L 180.305465 -180.243486 
L 180.354421 -178.690474 
L 180.378497 -177.137462 
L 180.382866 -175.584451 
L 180.374213 -174.031439 
L 180.359899 -172.478428 
L 180.347026 -170.925416 
L 180.341566 -169.372405 
L 180.347691 -167.819393 
L 180.36742 -166.266382 
L 180.400618 -164.71337 
L 180.445324 -163.160359 
L 180.498318 -161.607347 
L 180.555808 -160.054336 
L 180.614093 -158.501324 
L 180.670114 -156.948313 
L 180.721799 -155.395301 
L 180.76821 -153.84229 
L 180.809524 -152.289278 
L 180.846903 -150.736267 
L 180.88234 -149.183255 
L 180.918555 -147.630244 
L 180.958964 -146.077232 
L 181.007749 -144.524221 
L 181.069995 -142.971209 
L 181.15185 -141.418198 
L 181.260654 -139.865186 
L 181.404986 -138.312175 
L 181.594589 -136.759163 
L 181.840156 -135.206152 
L 182.152982 -133.65314 
L 182.544487 -132.100129 
L 183.025665 -130.547117 
L 183.606448 -128.994106 
L 184.295053 -127.441094 
L 185.097285 -125.888083 
L 186.015839 -124.335071 
L 187.049588 -122.78206 
L 188.192894 -121.229048 
L 189.434974 -119.676037 
L 190.759399 -118.123025 
L 192.143796 -116.570014 
L 193.559888 -115.017002 
L 194.973948 -113.463991 
L 196.347768 -111.910979 
L 197.64018 -110.357968 
L 198.809091 -108.804956 
L 199.813969 -107.251945 
L 200.618579 -105.698933 
L 201.193751 -104.145922 
L 201.519865 -102.59291 
L 201.588734 -101.039898 
L 201.404557 -99.486887 
L 200.983682 -97.933875 
L 200.353069 -96.380864 
L 199.5475 -94.827852 
L 198.605836 -93.274841 
L 197.566823 -91.721829 
L 196.4651 -90.168818 
L 195.328092 -88.615806 
L 194.174334 -87.062795 
L 193.013547 -85.509783 
L 191.848366 -83.956772 
L 190.677341 -82.40376 
L 189.498483 -80.850749 
L 188.312573 -79.297737 
L 187.125517 -77.744726 
L 185.949262 -76.191714 
L 184.801183 -74.638703 
L 183.702158 -73.085691 
L 182.673858 -71.53268 
L 181.735865 -69.979668 
L 180.903217 -68.426657 
L 180.184808 -66.873645 
L 179.582822 -65.320634 
L 179.093164 -63.767622 
L 178.70664 -62.214611 
L 178.410578 -60.661599 
z
" id="mf3f8a6bc9e" style="stroke:#373737;stroke-width:0.8;"/>
    </defs>
    <g clip-path="url(#p3b1be70a27)">
     <use style="fill:#2b8e70;stroke:#373737;stroke-width:0.8;" x="0" xlink:href="#mf3f8a6bc9e" y="268.886312"/>
    </g>
   </g>
   <g id="PolyCollection_2">
    <defs>
     <path d="M 401.684388 -50.006313 
L 400.148737 -50.006313 
L 399.858783 -52.042676 
L 399.485037 -54.07904 
L 399.01321 -56.115403 
L 398.429976 -58.151767 
L 397.724264 -60.188131 
L 396.888708 -62.224494 
L 395.921125 -64.260858 
L 394.825876 -66.297222 
L 393.614919 -68.333585 
L 392.308382 -70.369949 
L 390.934512 -72.406313 
L 389.528889 -74.442676 
L 388.132899 -76.47904 
L 386.791526 -78.515403 
L 385.55062 -80.551767 
L 384.453887 -82.588131 
L 383.539875 -84.624494 
L 382.83927 -86.660858 
L 382.372772 -88.697222 
L 382.149779 -90.733585 
L 382.168005 -92.769949 
L 382.41405 -94.806313 
L 382.864847 -96.842676 
L 383.489814 -98.87904 
L 384.253446 -100.915403 
L 385.118105 -102.951767 
L 386.046696 -104.988131 
L 387.00502 -107.024494 
L 387.963595 -109.060858 
L 388.89886 -111.097222 
L 389.793706 -113.133585 
L 390.637391 -115.169949 
L 391.424931 -117.206313 
L 392.156099 -119.242676 
L 392.834191 -121.27904 
L 393.464719 -123.315403 
L 394.054154 -125.351767 
L 394.608855 -127.388131 
L 395.13423 -129.424494 
L 395.634183 -131.460858 
L 396.110851 -133.497222 
L 396.564587 -135.533585 
L 396.99416 -137.569949 
L 397.397097 -139.606313 
L 397.770123 -141.642676 
L 398.10962 -143.67904 
L 398.412077 -145.715403 
L 398.674488 -147.751767 
L 398.894676 -149.788131 
L 399.071539 -151.824494 
L 399.205202 -153.860858 
L 399.297084 -155.897222 
L 399.34988 -157.933585 
L 399.367452 -159.969949 
L 399.354652 -162.006313 
L 399.317055 -164.042676 
L 399.260643 -166.07904 
L 399.191441 -168.115403 
L 399.115139 -170.151767 
L 399.036733 -172.188131 
L 398.960231 -174.224494 
L 398.888446 -176.260858 
L 398.822907 -178.297222 
L 398.763916 -180.333585 
L 398.710731 -182.369949 
L 398.661858 -184.406313 
L 398.615433 -186.442676 
L 398.569621 -188.47904 
L 398.523002 -190.515403 
L 398.474891 -192.551767 
L 398.42555 -194.588131 
L 398.376275 -196.624494 
L 398.329355 -198.660858 
L 398.287902 -200.697222 
L 398.255589 -202.733585 
L 398.236324 -204.769949 
L 398.233892 -206.806313 
L 398.251608 -208.842676 
L 398.292015 -210.87904 
L 398.356644 -212.915403 
L 398.445862 -214.951767 
L 398.558812 -216.988131 
L 398.693453 -219.024494 
L 398.846685 -221.060858 
L 399.014555 -223.097222 
L 399.19251 -225.133585 
L 399.375696 -227.169949 
L 399.55926 -229.206313 
L 399.738628 -231.242676 
L 399.909759 -233.27904 
L 400.069326 -235.315403 
L 400.214835 -237.351767 
L 400.344674 -239.388131 
L 400.458084 -241.424494 
L 400.555084 -243.460858 
L 400.63634 -245.497222 
L 400.703018 -247.533585 
L 400.756625 -249.569949 
L 400.798853 -251.606313 
L 401.034272 -251.606313 
L 401.034272 -251.606313 
L 401.0765 -249.569949 
L 401.130107 -247.533585 
L 401.196785 -245.497222 
L 401.278041 -243.460858 
L 401.375041 -241.424494 
L 401.488451 -239.388131 
L 401.61829 -237.351767 
L 401.763799 -235.315403 
L 401.923366 -233.27904 
L 402.094497 -231.242676 
L 402.273865 -229.206313 
L 402.457429 -227.169949 
L 402.640615 -225.133585 
L 402.81857 -223.097222 
L 402.98644 -221.060858 
L 403.139672 -219.024494 
L 403.274313 -216.988131 
L 403.387263 -214.951767 
L 403.476481 -212.915403 
L 403.54111 -210.87904 
L 403.581517 -208.842676 
L 403.599233 -206.806313 
L 403.596801 -204.769949 
L 403.577536 -202.733585 
L 403.545223 -200.697222 
L 403.50377 -198.660858 
L 403.45685 -196.624494 
L 403.407575 -194.588131 
L 403.358234 -192.551767 
L 403.310123 -190.515403 
L 403.263504 -188.47904 
L 403.217692 -186.442676 
L 403.171267 -184.406313 
L 403.122394 -182.369949 
L 403.069209 -180.333585 
L 403.010218 -178.297222 
L 402.944679 -176.260858 
L 402.872894 -174.224494 
L 402.796392 -172.188131 
L 402.717986 -170.151767 
L 402.641684 -168.115403 
L 402.572482 -166.07904 
L 402.51607 -164.042676 
L 402.478473 -162.006313 
L 402.465673 -159.969949 
L 402.483245 -157.933585 
L 402.536041 -155.897222 
L 402.627923 -153.860858 
L 402.761586 -151.824494 
L 402.938449 -149.788131 
L 403.158637 -147.751767 
L 403.421048 -145.715403 
L 403.723505 -143.67904 
L 404.063002 -141.642676 
L 404.436028 -139.606313 
L 404.838965 -137.569949 
L 405.268538 -135.533585 
L 405.722274 -133.497222 
L 406.198942 -131.460858 
L 406.698895 -129.424494 
L 407.22427 -127.388131 
L 407.778971 -125.351767 
L 408.368406 -123.315403 
L 408.998934 -121.27904 
L 409.677026 -119.242676 
L 410.408194 -117.206313 
L 411.195734 -115.169949 
L 412.039419 -113.133585 
L 412.934265 -111.097222 
L 413.86953 -109.060858 
L 414.828105 -107.024494 
L 415.786429 -104.988131 
L 416.71502 -102.951767 
L 417.579679 -100.915403 
L 418.343311 -98.87904 
L 418.968278 -96.842676 
L 419.419075 -94.806313 
L 419.66512 -92.769949 
L 419.683346 -90.733585 
L 419.460353 -88.697222 
L 418.993855 -86.660858 
L 418.29325 -84.624494 
L 417.379238 -82.588131 
L 416.282505 -80.551767 
L 415.041599 -78.515403 
L 413.700226 -76.47904 
L 412.304236 -74.442676 
L 410.898613 -72.406313 
L 409.524743 -70.369949 
L 408.218206 -68.333585 
L 407.007249 -66.297222 
L 405.912 -64.260858 
L 404.944417 -62.224494 
L 404.108861 -60.188131 
L 403.403149 -58.151767 
L 402.819915 -56.115403 
L 402.348088 -54.07904 
L 401.974342 -52.042676 
L 401.684388 -50.006313 
z
" id="md6d34a6e14" style="stroke:#373737;stroke-width:0.8;"/>
    </defs>
    <g clip-path="url(#p3b1be70a27)">
     <use style="fill:#be631d;stroke:#373737;stroke-width:0.8;" x="0" xlink:href="#md6d34a6e14" y="268.886312"/>
    </g>
   </g>
   <g id="PolyCollection_3">
    <defs>
     <path d="M 625.342657 -72.597211 
L 622.890468 -72.597211 
L 622.124487 -73.286281 
L 621.006396 -73.975351 
L 619.444717 -74.664421 
L 617.3546 -75.353491 
L 614.668783 -76.042561 
L 611.346135 -76.731631 
L 607.374889 -77.420701 
L 602.769378 -78.109771 
L 597.561855 -78.79884 
L 591.793894 -79.48791 
L 585.513414 -80.17698 
L 578.782266 -80.86605 
L 571.695463 -81.55512 
L 564.407553 -82.24419 
L 557.156573 -82.93326 
L 550.273831 -83.62233 
L 544.170014 -84.311399 
L 539.294425 -85.000469 
L 536.072764 -85.689539 
L 534.836563 -86.378609 
L 535.76143 -87.067679 
L 538.829999 -87.756749 
L 543.829204 -88.445819 
L 550.382399 -89.134889 
L 558.007813 -89.823959 
L 566.188867 -90.513028 
L 574.440529 -91.202098 
L 582.359109 -91.891168 
L 589.64909 -92.580238 
L 596.127366 -93.269308 
L 601.710438 -93.958378 
L 606.392405 -94.647448 
L 610.221048 -95.336518 
L 613.276877 -96.025588 
L 615.657112 -96.714657 
L 617.464386 -97.403727 
L 618.79895 -98.092797 
L 619.753211 -98.781867 
L 620.408076 -99.470937 
L 620.831033 -100.160007 
L 621.076071 -100.849077 
L 621.185238 -101.538147 
L 621.191239 -102.227216 
L 621.12021 -102.916286 
L 620.993936 -103.605356 
L 620.831083 -104.294426 
L 620.647545 -104.983496 
L 620.456305 -105.672566 
L 620.267288 -106.361636 
L 620.087576 -107.050706 
L 619.922081 -107.739776 
L 619.774568 -108.428845 
L 619.648814 -109.117915 
L 619.549678 -109.806985 
L 619.483853 -110.496055 
L 619.460116 -111.185125 
L 619.488879 -111.874195 
L 619.580923 -112.563265 
L 619.745371 -113.252335 
L 619.987224 -113.941404 
L 620.305055 -114.630474 
L 620.689585 -115.319544 
L 621.123745 -116.008614 
L 621.584447 -116.697684 
L 622.045768 -117.386754 
L 622.482781 -118.075824 
L 622.875093 -118.764894 
L 623.209235 -119.453964 
L 623.479488 -120.143033 
L 623.687169 -120.832103 
L 623.838823 -121.521173 
L 623.943939 -122.210243 
L 624.012773 -122.899313 
L 624.05464 -123.588383 
L 624.07683 -124.277453 
L 624.084075 -124.966523 
L 624.078443 -125.655593 
L 624.059516 -126.344662 
L 624.024808 -127.033732 
L 623.970456 -127.722802 
L 623.892246 -128.411872 
L 623.786983 -129.100942 
L 623.654096 -129.790012 
L 623.497148 -130.479082 
L 623.324792 -131.168152 
L 623.150695 -131.857221 
L 622.992138 -132.546291 
L 622.867347 -133.235361 
L 622.792107 -133.924431 
L 622.776482 -134.613501 
L 622.822611 -135.302571 
L 622.924228 -135.991641 
L 623.068055 -136.680711 
L 623.236652 -137.369781 
L 623.411872 -138.05885 
L 623.57798 -138.74792 
L 623.723738 -139.43699 
L 623.843137 -140.12606 
L 623.934939 -140.81513 
L 624.298186 -140.81513 
L 624.298186 -140.81513 
L 624.389988 -140.12606 
L 624.509387 -139.43699 
L 624.655145 -138.74792 
L 624.821253 -138.05885 
L 624.996473 -137.369781 
L 625.16507 -136.680711 
L 625.308897 -135.991641 
L 625.410514 -135.302571 
L 625.456643 -134.613501 
L 625.441018 -133.924431 
L 625.365778 -133.235361 
L 625.240987 -132.546291 
L 625.08243 -131.857221 
L 624.908333 -131.168152 
L 624.735977 -130.479082 
L 624.579029 -129.790012 
L 624.446142 -129.100942 
L 624.340879 -128.411872 
L 624.262669 -127.722802 
L 624.208317 -127.033732 
L 624.173609 -126.344662 
L 624.154682 -125.655593 
L 624.14905 -124.966523 
L 624.156295 -124.277453 
L 624.178485 -123.588383 
L 624.220352 -122.899313 
L 624.289186 -122.210243 
L 624.394302 -121.521173 
L 624.545956 -120.832103 
L 624.753637 -120.143033 
L 625.02389 -119.453964 
L 625.358032 -118.764894 
L 625.750344 -118.075824 
L 626.187357 -117.386754 
L 626.648678 -116.697684 
L 627.10938 -116.008614 
L 627.54354 -115.319544 
L 627.92807 -114.630474 
L 628.245901 -113.941404 
L 628.487754 -113.252335 
L 628.652202 -112.563265 
L 628.744246 -111.874195 
L 628.773009 -111.185125 
L 628.749272 -110.496055 
L 628.683447 -109.806985 
L 628.584311 -109.117915 
L 628.458557 -108.428845 
L 628.311044 -107.739776 
L 628.145549 -107.050706 
L 627.965837 -106.361636 
L 627.77682 -105.672566 
L 627.58558 -104.983496 
L 627.402042 -104.294426 
L 627.239189 -103.605356 
L 627.112915 -102.916286 
L 627.041886 -102.227216 
L 627.047887 -101.538147 
L 627.157054 -100.849077 
L 627.402092 -100.160007 
L 627.825049 -99.470937 
L 628.479914 -98.781867 
L 629.434175 -98.092797 
L 630.768739 -97.403727 
L 632.576013 -96.714657 
L 634.956248 -96.025588 
L 638.012077 -95.336518 
L 641.84072 -94.647448 
L 646.522687 -93.958378 
L 652.105759 -93.269308 
L 658.584035 -92.580238 
L 665.874016 -91.891168 
L 673.792596 -91.202098 
L 682.044258 -90.513028 
L 690.225312 -89.823959 
L 697.850726 -89.134889 
L 704.403921 -88.445819 
L 709.403126 -87.756749 
L 712.471695 -87.067679 
L 713.396562 -86.378609 
L 712.160361 -85.689539 
L 708.9387 -85.000469 
L 704.063111 -84.311399 
L 697.959294 -83.62233 
L 691.076552 -82.93326 
L 683.825572 -82.24419 
L 676.537662 -81.55512 
L 669.450859 -80.86605 
L 662.719711 -80.17698 
L 656.439231 -79.48791 
L 650.67127 -78.79884 
L 645.463747 -78.109771 
L 640.858236 -77.420701 
L 636.88699 -76.731631 
L 633.564342 -76.042561 
L 630.878525 -75.353491 
L 628.788408 -74.664421 
L 627.226729 -73.975351 
L 626.108638 -73.286281 
L 625.342657 -72.597211 
z
" id="m16cbb67b59" style="stroke:#373737;stroke-width:0.8;"/>
    </defs>
    <g clip-path="url(#p3b1be70a27)">
     <use style="fill:#7c78ab;stroke:#373737;stroke-width:0.8;" x="0" xlink:href="#m16cbb67b59" y="268.886312"/>
    </g>
   </g>
   <g id="matplotlib.axis_1">
    <g id="xtick_1">
     <g id="line2d_1">
      <defs>
       <path d="M 0 0 
L 0 -3.5 
" id="m675d43c759" style="stroke:#000000;stroke-width:0.8;"/>
      </defs>
      <g>
       <use style="stroke:#000000;stroke-width:0.8;" x="177.716563" xlink:href="#m675d43c759" y="228.96"/>
      </g>
     </g>
     <g id="line2d_2">
      <defs>
       <path d="M 0 0 
L 0 3.5 
" id="m92262c60c1" style="stroke:#000000;stroke-width:0.8;"/>
      </defs>
      <g>
       <use style="stroke:#000000;stroke-width:0.8;" x="177.716563" xlink:href="#m92262c60c1" y="7.2"/>
      </g>
     </g>
     <g id="text_1">
      <!-- Treated substrate -->
      <g transform="translate(116.300313 243.097812)scale(0.14 -0.14)">
       <defs>
        <path d="M -0.296875 72.90625 
L 61.375 72.90625 
L 61.375 64.59375 
L 35.5 64.59375 
L 35.5 0 
L 25.59375 0 
L 25.59375 64.59375 
L -0.296875 64.59375 
z
" id="DejaVuSans-84"/>
        <path d="M 41.109375 46.296875 
Q 39.59375 47.171875 37.8125 47.578125 
Q 36.03125 48 33.890625 48 
Q 26.265625 48 22.1875 43.046875 
Q 18.109375 38.09375 18.109375 28.8125 
L 18.109375 0 
L 9.078125 0 
L 9.078125 54.6875 
L 18.109375 54.6875 
L 18.109375 46.1875 
Q 20.953125 51.171875 25.484375 53.578125 
Q 30.03125 56 36.53125 56 
Q 37.453125 56 38.578125 55.875 
Q 39.703125 55.765625 41.0625 55.515625 
z
" id="DejaVuSans-114"/>
        <path d="M 56.203125 29.59375 
L 56.203125 25.203125 
L 14.890625 25.203125 
Q 15.484375 15.921875 20.484375 11.0625 
Q 25.484375 6.203125 34.421875 6.203125 
Q 39.59375 6.203125 44.453125 7.46875 
Q 49.3125 8.734375 54.109375 11.28125 
L 54.109375 2.78125 
Q 49.265625 0.734375 44.1875 -0.34375 
Q 39.109375 -1.421875 33.890625 -1.421875 
Q 20.796875 -1.421875 13.15625 6.1875 
Q 5.515625 13.8125 5.515625 26.8125 
Q 5.515625 40.234375 12.765625 48.109375 
Q 20.015625 56 32.328125 56 
Q 43.359375 56 49.78125 48.890625 
Q 56.203125 41.796875 56.203125 29.59375 
z
M 47.21875 32.234375 
Q 47.125 39.59375 43.09375 43.984375 
Q 39.0625 48.390625 32.421875 48.390625 
Q 24.90625 48.390625 20.390625 44.140625 
Q 15.875 39.890625 15.1875 32.171875 
z
" id="DejaVuSans-101"/>
        <path d="M 34.28125 27.484375 
Q 23.390625 27.484375 19.1875 25 
Q 14.984375 22.515625 14.984375 16.5 
Q 14.984375 11.71875 18.140625 8.90625 
Q 21.296875 6.109375 26.703125 6.109375 
Q 34.1875 6.109375 38.703125 11.40625 
Q 43.21875 16.703125 43.21875 25.484375 
L 43.21875 27.484375 
z
M 52.203125 31.203125 
L 52.203125 0 
L 43.21875 0 
L 43.21875 8.296875 
Q 40.140625 3.328125 35.546875 0.953125 
Q 30.953125 -1.421875 24.3125 -1.421875 
Q 15.921875 -1.421875 10.953125 3.296875 
Q 6 8.015625 6 15.921875 
Q 6 25.140625 12.171875 29.828125 
Q 18.359375 34.515625 30.609375 34.515625 
L 43.21875 34.515625 
L 43.21875 35.40625 
Q 43.21875 41.609375 39.140625 45 
Q 35.0625 48.390625 27.6875 48.390625 
Q 23 48.390625 18.546875 47.265625 
Q 14.109375 46.140625 10.015625 43.890625 
L 10.015625 52.203125 
Q 14.9375 54.109375 19.578125 55.046875 
Q 24.21875 56 28.609375 56 
Q 40.484375 56 46.34375 49.84375 
Q 52.203125 43.703125 52.203125 31.203125 
z
" id="DejaVuSans-97"/>
        <path d="M 18.3125 70.21875 
L 18.3125 54.6875 
L 36.8125 54.6875 
L 36.8125 47.703125 
L 18.3125 47.703125 
L 18.3125 18.015625 
Q 18.3125 11.328125 20.140625 9.421875 
Q 21.96875 7.515625 27.59375 7.515625 
L 36.8125 7.515625 
L 36.8125 0 
L 27.59375 0 
Q 17.1875 0 13.234375 3.875 
Q 9.28125 7.765625 9.28125 18.015625 
L 9.28125 47.703125 
L 2.6875 47.703125 
L 2.6875 54.6875 
L 9.28125 54.6875 
L 9.28125 70.21875 
z
" id="DejaVuSans-116"/>
        <path d="M 45.40625 46.390625 
L 45.40625 75.984375 
L 54.390625 75.984375 
L 54.390625 0 
L 45.40625 0 
L 45.40625 8.203125 
Q 42.578125 3.328125 38.25 0.953125 
Q 33.9375 -1.421875 27.875 -1.421875 
Q 17.96875 -1.421875 11.734375 6.484375 
Q 5.515625 14.40625 5.515625 27.296875 
Q 5.515625 40.1875 11.734375 48.09375 
Q 17.96875 56 27.875 56 
Q 33.9375 56 38.25 53.625 
Q 42.578125 51.265625 45.40625 46.390625 
z
M 14.796875 27.296875 
Q 14.796875 17.390625 18.875 11.75 
Q 22.953125 6.109375 30.078125 6.109375 
Q 37.203125 6.109375 41.296875 11.75 
Q 45.40625 17.390625 45.40625 27.296875 
Q 45.40625 37.203125 41.296875 42.84375 
Q 37.203125 48.484375 30.078125 48.484375 
Q 22.953125 48.484375 18.875 42.84375 
Q 14.796875 37.203125 14.796875 27.296875 
z
" id="DejaVuSans-100"/>
        <path id="DejaVuSans-32"/>
        <path d="M 44.28125 53.078125 
L 44.28125 44.578125 
Q 40.484375 46.53125 36.375 47.5 
Q 32.28125 48.484375 27.875 48.484375 
Q 21.1875 48.484375 17.84375 46.4375 
Q 14.5 44.390625 14.5 40.28125 
Q 14.5 37.15625 16.890625 35.375 
Q 19.28125 33.59375 26.515625 31.984375 
L 29.59375 31.296875 
Q 39.15625 29.25 43.1875 25.515625 
Q 47.21875 21.78125 47.21875 15.09375 
Q 47.21875 7.46875 41.1875 3.015625 
Q 35.15625 -1.421875 24.609375 -1.421875 
Q 20.21875 -1.421875 15.453125 -0.5625 
Q 10.6875 0.296875 5.421875 2 
L 5.421875 11.28125 
Q 10.40625 8.6875 15.234375 7.390625 
Q 20.0625 6.109375 24.8125 6.109375 
Q 31.15625 6.109375 34.5625 8.28125 
Q 37.984375 10.453125 37.984375 14.40625 
Q 37.984375 18.0625 35.515625 20.015625 
Q 33.0625 21.96875 24.703125 23.78125 
L 21.578125 24.515625 
Q 13.234375 26.265625 9.515625 29.90625 
Q 5.8125 33.546875 5.8125 39.890625 
Q 5.8125 47.609375 11.28125 51.796875 
Q 16.75 56 26.8125 56 
Q 31.78125 56 36.171875 55.265625 
Q 40.578125 54.546875 44.28125 53.078125 
z
" id="DejaVuSans-115"/>
        <path d="M 8.5 21.578125 
L 8.5 54.6875 
L 17.484375 54.6875 
L 17.484375 21.921875 
Q 17.484375 14.15625 20.5 10.265625 
Q 23.53125 6.390625 29.59375 6.390625 
Q 36.859375 6.390625 41.078125 11.03125 
Q 45.3125 15.671875 45.3125 23.6875 
L 45.3125 54.6875 
L 54.296875 54.6875 
L 54.296875 0 
L 45.3125 0 
L 45.3125 8.40625 
Q 42.046875 3.421875 37.71875 1 
Q 33.40625 -1.421875 27.6875 -1.421875 
Q 18.265625 -1.421875 13.375 4.4375 
Q 8.5 10.296875 8.5 21.578125 
z
M 31.109375 56 
z
" id="DejaVuSans-117"/>
        <path d="M 48.6875 27.296875 
Q 48.6875 37.203125 44.609375 42.84375 
Q 40.53125 48.484375 33.40625 48.484375 
Q 26.265625 48.484375 22.1875 42.84375 
Q 18.109375 37.203125 18.109375 27.296875 
Q 18.109375 17.390625 22.1875 11.75 
Q 26.265625 6.109375 33.40625 6.109375 
Q 40.53125 6.109375 44.609375 11.75 
Q 48.6875 17.390625 48.6875 27.296875 
z
M 18.109375 46.390625 
Q 20.953125 51.265625 25.265625 53.625 
Q 29.59375 56 35.59375 56 
Q 45.5625 56 51.78125 48.09375 
Q 58.015625 40.1875 58.015625 27.296875 
Q 58.015625 14.40625 51.78125 6.484375 
Q 45.5625 -1.421875 35.59375 -1.421875 
Q 29.59375 -1.421875 25.265625 0.953125 
Q 20.953125 3.328125 18.109375 8.203125 
L 18.109375 0 
L 9.078125 0 
L 9.078125 75.984375 
L 18.109375 75.984375 
z
" id="DejaVuSans-98"/>
       </defs>
       <use xlink:href="#DejaVuSans-84"/>
       <use x="46.333984" xlink:href="#DejaVuSans-114"/>
       <use x="85.197266" xlink:href="#DejaVuSans-101"/>
       <use x="146.720703" xlink:href="#DejaVuSans-97"/>
       <use x="208" xlink:href="#DejaVuSans-116"/>
       <use x="247.208984" xlink:href="#DejaVuSans-101"/>
       <use x="308.732422" xlink:href="#DejaVuSans-100"/>
       <use x="372.208984" xlink:href="#DejaVuSans-32"/>
       <use x="403.996094" xlink:href="#DejaVuSans-115"/>
       <use x="456.095703" xlink:href="#DejaVuSans-117"/>
       <use x="519.474609" xlink:href="#DejaVuSans-98"/>
       <use x="582.951172" xlink:href="#DejaVuSans-115"/>
       <use x="635.050781" xlink:href="#DejaVuSans-116"/>
       <use x="674.259766" xlink:href="#DejaVuSans-114"/>
       <use x="715.373047" xlink:href="#DejaVuSans-97"/>
       <use x="776.652344" xlink:href="#DejaVuSans-116"/>
       <use x="815.861328" xlink:href="#DejaVuSans-101"/>
      </g>
      <!-- (step width=0.43±0.04μm) -->
      <g transform="translate(81.418437 258.77475)scale(0.14 -0.14)">
       <defs>
        <path d="M 31 75.875 
Q 24.46875 64.65625 21.28125 53.65625 
Q 18.109375 42.671875 18.109375 31.390625 
Q 18.109375 20.125 21.3125 9.0625 
Q 24.515625 -2 31 -13.1875 
L 23.1875 -13.1875 
Q 15.875 -1.703125 12.234375 9.375 
Q 8.59375 20.453125 8.59375 31.390625 
Q 8.59375 42.28125 12.203125 53.3125 
Q 15.828125 64.359375 23.1875 75.875 
z
" id="DejaVuSans-40"/>
        <path d="M 18.109375 8.203125 
L 18.109375 -20.796875 
L 9.078125 -20.796875 
L 9.078125 54.6875 
L 18.109375 54.6875 
L 18.109375 46.390625 
Q 20.953125 51.265625 25.265625 53.625 
Q 29.59375 56 35.59375 56 
Q 45.5625 56 51.78125 48.09375 
Q 58.015625 40.1875 58.015625 27.296875 
Q 58.015625 14.40625 51.78125 6.484375 
Q 45.5625 -1.421875 35.59375 -1.421875 
Q 29.59375 -1.421875 25.265625 0.953125 
Q 20.953125 3.328125 18.109375 8.203125 
z
M 48.6875 27.296875 
Q 48.6875 37.203125 44.609375 42.84375 
Q 40.53125 48.484375 33.40625 48.484375 
Q 26.265625 48.484375 22.1875 42.84375 
Q 18.109375 37.203125 18.109375 27.296875 
Q 18.109375 17.390625 22.1875 11.75 
Q 26.265625 6.109375 33.40625 6.109375 
Q 40.53125 6.109375 44.609375 11.75 
Q 48.6875 17.390625 48.6875 27.296875 
z
" id="DejaVuSans-112"/>
        <path d="M 4.203125 54.6875 
L 13.1875 54.6875 
L 24.421875 12.015625 
L 35.59375 54.6875 
L 46.1875 54.6875 
L 57.421875 12.015625 
L 68.609375 54.6875 
L 77.59375 54.6875 
L 63.28125 0 
L 52.6875 0 
L 40.921875 44.828125 
L 29.109375 0 
L 18.5 0 
z
" id="DejaVuSans-119"/>
        <path d="M 9.421875 54.6875 
L 18.40625 54.6875 
L 18.40625 0 
L 9.421875 0 
z
M 9.421875 75.984375 
L 18.40625 75.984375 
L 18.40625 64.59375 
L 9.421875 64.59375 
z
" id="DejaVuSans-105"/>
        <path d="M 54.890625 33.015625 
L 54.890625 0 
L 45.90625 0 
L 45.90625 32.71875 
Q 45.90625 40.484375 42.875 44.328125 
Q 39.84375 48.1875 33.796875 48.1875 
Q 26.515625 48.1875 22.3125 43.546875 
Q 18.109375 38.921875 18.109375 30.90625 
L 18.109375 0 
L 9.078125 0 
L 9.078125 75.984375 
L 18.109375 75.984375 
L 18.109375 46.1875 
Q 21.34375 51.125 25.703125 53.5625 
Q 30.078125 56 35.796875 56 
Q 45.21875 56 50.046875 50.171875 
Q 54.890625 44.34375 54.890625 33.015625 
z
" id="DejaVuSans-104"/>
        <path d="M 10.59375 45.40625 
L 73.1875 45.40625 
L 73.1875 37.203125 
L 10.59375 37.203125 
z
M 10.59375 25.484375 
L 73.1875 25.484375 
L 73.1875 17.1875 
L 10.59375 17.1875 
z
" id="DejaVuSans-61"/>
        <path d="M 31.78125 66.40625 
Q 24.171875 66.40625 20.328125 58.90625 
Q 16.5 51.421875 16.5 36.375 
Q 16.5 21.390625 20.328125 13.890625 
Q 24.171875 6.390625 31.78125 6.390625 
Q 39.453125 6.390625 43.28125 13.890625 
Q 47.125 21.390625 47.125 36.375 
Q 47.125 51.421875 43.28125 58.90625 
Q 39.453125 66.40625 31.78125 66.40625 
z
M 31.78125 74.21875 
Q 44.046875 74.21875 50.515625 64.515625 
Q 56.984375 54.828125 56.984375 36.375 
Q 56.984375 17.96875 50.515625 8.265625 
Q 44.046875 -1.421875 31.78125 -1.421875 
Q 19.53125 -1.421875 13.0625 8.265625 
Q 6.59375 17.96875 6.59375 36.375 
Q 6.59375 54.828125 13.0625 64.515625 
Q 19.53125 74.21875 31.78125 74.21875 
z
" id="DejaVuSans-48"/>
        <path d="M 10.6875 12.40625 
L 21 12.40625 
L 21 0 
L 10.6875 0 
z
" id="DejaVuSans-46"/>
        <path d="M 37.796875 64.3125 
L 12.890625 25.390625 
L 37.796875 25.390625 
z
M 35.203125 72.90625 
L 47.609375 72.90625 
L 47.609375 25.390625 
L 58.015625 25.390625 
L 58.015625 17.1875 
L 47.609375 17.1875 
L 47.609375 0 
L 37.796875 0 
L 37.796875 17.1875 
L 4.890625 17.1875 
L 4.890625 26.703125 
z
" id="DejaVuSans-52"/>
        <path d="M 40.578125 39.3125 
Q 47.65625 37.796875 51.625 33 
Q 55.609375 28.21875 55.609375 21.1875 
Q 55.609375 10.40625 48.1875 4.484375 
Q 40.765625 -1.421875 27.09375 -1.421875 
Q 22.515625 -1.421875 17.65625 -0.515625 
Q 12.796875 0.390625 7.625 2.203125 
L 7.625 11.71875 
Q 11.71875 9.328125 16.59375 8.109375 
Q 21.484375 6.890625 26.8125 6.890625 
Q 36.078125 6.890625 40.9375 10.546875 
Q 45.796875 14.203125 45.796875 21.1875 
Q 45.796875 27.640625 41.28125 31.265625 
Q 36.765625 34.90625 28.71875 34.90625 
L 20.21875 34.90625 
L 20.21875 43.015625 
L 29.109375 43.015625 
Q 36.375 43.015625 40.234375 45.921875 
Q 44.09375 48.828125 44.09375 54.296875 
Q 44.09375 59.90625 40.109375 62.90625 
Q 36.140625 65.921875 28.71875 65.921875 
Q 24.65625 65.921875 20.015625 65.03125 
Q 15.375 64.15625 9.8125 62.3125 
L 9.8125 71.09375 
Q 15.4375 72.65625 20.34375 73.4375 
Q 25.25 74.21875 29.59375 74.21875 
Q 40.828125 74.21875 47.359375 69.109375 
Q 53.90625 64.015625 53.90625 55.328125 
Q 53.90625 49.265625 50.4375 45.09375 
Q 46.96875 40.921875 40.578125 39.3125 
z
" id="DejaVuSans-51"/>
        <path d="M 46 62.703125 
L 46 43.796875 
L 73.1875 43.796875 
L 73.1875 35.5 
L 46 35.5 
L 46 16.609375 
L 37.796875 16.609375 
L 37.796875 35.5 
L 10.59375 35.5 
L 10.59375 43.796875 
L 37.796875 43.796875 
L 37.796875 62.703125 
z
M 10.59375 8.296875 
L 73.1875 8.296875 
L 73.1875 0 
L 10.59375 0 
z
" id="DejaVuSans-177"/>
        <path d="M 8.5 -20.796875 
L 8.5 54.6875 
L 17.484375 54.6875 
L 17.484375 20.703125 
Q 17.484375 13.625 20.84375 10 
Q 24.21875 6.390625 30.8125 6.390625 
Q 38.03125 6.390625 41.671875 10.484375 
Q 45.3125 14.59375 45.3125 22.796875 
L 45.3125 54.6875 
L 54.296875 54.6875 
L 54.296875 12.59375 
Q 54.296875 9.671875 55.140625 8.28125 
Q 56 6.890625 57.8125 6.890625 
Q 58.25 6.890625 59.03125 7.15625 
Q 59.8125 7.421875 61.1875 8.015625 
L 61.1875 0.78125 
Q 59.1875 -0.34375 57.390625 -0.875 
Q 55.609375 -1.421875 53.90625 -1.421875 
Q 50.53125 -1.421875 48.53125 0.484375 
Q 46.53125 2.390625 45.796875 6.296875 
Q 43.359375 2.4375 39.8125 0.5 
Q 36.28125 -1.421875 31.5 -1.421875 
Q 26.515625 -1.421875 23.015625 0.484375 
Q 19.53125 2.390625 17.484375 6.203125 
L 17.484375 -20.796875 
z
" id="DejaVuSans-956"/>
        <path d="M 52 44.1875 
Q 55.375 50.25 60.0625 53.125 
Q 64.75 56 71.09375 56 
Q 79.640625 56 84.28125 50.015625 
Q 88.921875 44.046875 88.921875 33.015625 
L 88.921875 0 
L 79.890625 0 
L 79.890625 32.71875 
Q 79.890625 40.578125 77.09375 44.375 
Q 74.3125 48.1875 68.609375 48.1875 
Q 61.625 48.1875 57.5625 43.546875 
Q 53.515625 38.921875 53.515625 30.90625 
L 53.515625 0 
L 44.484375 0 
L 44.484375 32.71875 
Q 44.484375 40.625 41.703125 44.40625 
Q 38.921875 48.1875 33.109375 48.1875 
Q 26.21875 48.1875 22.15625 43.53125 
Q 18.109375 38.875 18.109375 30.90625 
L 18.109375 0 
L 9.078125 0 
L 9.078125 54.6875 
L 18.109375 54.6875 
L 18.109375 46.1875 
Q 21.1875 51.21875 25.484375 53.609375 
Q 29.78125 56 35.6875 56 
Q 41.65625 56 45.828125 52.96875 
Q 50 49.953125 52 44.1875 
z
" id="DejaVuSans-109"/>
        <path d="M 8.015625 75.875 
L 15.828125 75.875 
Q 23.140625 64.359375 26.78125 53.3125 
Q 30.421875 42.28125 30.421875 31.390625 
Q 30.421875 20.453125 26.78125 9.375 
Q 23.140625 -1.703125 15.828125 -13.1875 
L 8.015625 -13.1875 
Q 14.5 -2 17.703125 9.0625 
Q 20.90625 20.125 20.90625 31.390625 
Q 20.90625 42.671875 17.703125 53.65625 
Q 14.5 64.65625 8.015625 75.875 
z
" id="DejaVuSans-41"/>
       </defs>
       <use xlink:href="#DejaVuSans-40"/>
       <use x="39.013672" xlink:href="#DejaVuSans-115"/>
       <use x="91.113281" xlink:href="#DejaVuSans-116"/>
       <use x="130.322266" xlink:href="#DejaVuSans-101"/>
       <use x="191.845703" xlink:href="#DejaVuSans-112"/>
       <use x="255.322266" xlink:href="#DejaVuSans-32"/>
       <use x="287.109375" xlink:href="#DejaVuSans-119"/>
       <use x="368.896484" xlink:href="#DejaVuSans-105"/>
       <use x="396.679688" xlink:href="#DejaVuSans-100"/>
       <use x="460.15625" xlink:href="#DejaVuSans-116"/>
       <use x="499.365234" xlink:href="#DejaVuSans-104"/>
       <use x="562.744141" xlink:href="#DejaVuSans-61"/>
       <use x="646.533203" xlink:href="#DejaVuSans-48"/>
       <use x="710.15625" xlink:href="#DejaVuSans-46"/>
       <use x="741.943359" xlink:href="#DejaVuSans-52"/>
       <use x="805.566406" xlink:href="#DejaVuSans-51"/>
       <use x="869.189453" xlink:href="#DejaVuSans-177"/>
       <use x="952.978516" xlink:href="#DejaVuSans-48"/>
       <use x="1016.601562" xlink:href="#DejaVuSans-46"/>
       <use x="1048.388672" xlink:href="#DejaVuSans-48"/>
       <use x="1112.011719" xlink:href="#DejaVuSans-52"/>
       <use x="1175.634766" xlink:href="#DejaVuSans-956"/>
       <use x="1239.257812" xlink:href="#DejaVuSans-109"/>
       <use x="1336.669922" xlink:href="#DejaVuSans-41"/>
      </g>
     </g>
    </g>
    <g id="xtick_2">
     <g id="line2d_3">
      <g>
       <use style="stroke:#000000;stroke-width:0.8;" x="400.916562" xlink:href="#m675d43c759" y="228.96"/>
      </g>
     </g>
     <g id="line2d_4">
      <g>
       <use style="stroke:#000000;stroke-width:0.8;" x="400.916562" xlink:href="#m92262c60c1" y="7.2"/>
      </g>
     </g>
     <g id="text_2">
      <!-- Treated substrate -->
      <g transform="translate(339.500313 243.097812)scale(0.14 -0.14)">
       <use xlink:href="#DejaVuSans-84"/>
       <use x="46.333984" xlink:href="#DejaVuSans-114"/>
       <use x="85.197266" xlink:href="#DejaVuSans-101"/>
       <use x="146.720703" xlink:href="#DejaVuSans-97"/>
       <use x="208" xlink:href="#DejaVuSans-116"/>
       <use x="247.208984" xlink:href="#DejaVuSans-101"/>
       <use x="308.732422" xlink:href="#DejaVuSans-100"/>
       <use x="372.208984" xlink:href="#DejaVuSans-32"/>
       <use x="403.996094" xlink:href="#DejaVuSans-115"/>
       <use x="456.095703" xlink:href="#DejaVuSans-117"/>
       <use x="519.474609" xlink:href="#DejaVuSans-98"/>
       <use x="582.951172" xlink:href="#DejaVuSans-115"/>
       <use x="635.050781" xlink:href="#DejaVuSans-116"/>
       <use x="674.259766" xlink:href="#DejaVuSans-114"/>
       <use x="715.373047" xlink:href="#DejaVuSans-97"/>
       <use x="776.652344" xlink:href="#DejaVuSans-116"/>
       <use x="815.861328" xlink:href="#DejaVuSans-101"/>
      </g>
      <!-- (step width=0.11±0.01μm) -->
      <g transform="translate(304.618437 258.77475)scale(0.14 -0.14)">
       <defs>
        <path d="M 12.40625 8.296875 
L 28.515625 8.296875 
L 28.515625 63.921875 
L 10.984375 60.40625 
L 10.984375 69.390625 
L 28.421875 72.90625 
L 38.28125 72.90625 
L 38.28125 8.296875 
L 54.390625 8.296875 
L 54.390625 0 
L 12.40625 0 
z
" id="DejaVuSans-49"/>
       </defs>
       <use xlink:href="#DejaVuSans-40"/>
       <use x="39.013672" xlink:href="#DejaVuSans-115"/>
       <use x="91.113281" xlink:href="#DejaVuSans-116"/>
       <use x="130.322266" xlink:href="#DejaVuSans-101"/>
       <use x="191.845703" xlink:href="#DejaVuSans-112"/>
       <use x="255.322266" xlink:href="#DejaVuSans-32"/>
       <use x="287.109375" xlink:href="#DejaVuSans-119"/>
       <use x="368.896484" xlink:href="#DejaVuSans-105"/>
       <use x="396.679688" xlink:href="#DejaVuSans-100"/>
       <use x="460.15625" xlink:href="#DejaVuSans-116"/>
       <use x="499.365234" xlink:href="#DejaVuSans-104"/>
       <use x="562.744141" xlink:href="#DejaVuSans-61"/>
       <use x="646.533203" xlink:href="#DejaVuSans-48"/>
       <use x="710.15625" xlink:href="#DejaVuSans-46"/>
       <use x="741.943359" xlink:href="#DejaVuSans-49"/>
       <use x="805.566406" xlink:href="#DejaVuSans-49"/>
       <use x="869.189453" xlink:href="#DejaVuSans-177"/>
       <use x="952.978516" xlink:href="#DejaVuSans-48"/>
       <use x="1016.601562" xlink:href="#DejaVuSans-46"/>
       <use x="1048.388672" xlink:href="#DejaVuSans-48"/>
       <use x="1112.011719" xlink:href="#DejaVuSans-49"/>
       <use x="1175.634766" xlink:href="#DejaVuSans-956"/>
       <use x="1239.257812" xlink:href="#DejaVuSans-109"/>
       <use x="1336.669922" xlink:href="#DejaVuSans-41"/>
      </g>
     </g>
    </g>
    <g id="xtick_3">
     <g id="line2d_5">
      <g>
       <use style="stroke:#000000;stroke-width:0.8;" x="624.116562" xlink:href="#m675d43c759" y="228.96"/>
      </g>
     </g>
     <g id="line2d_6">
      <g>
       <use style="stroke:#000000;stroke-width:0.8;" x="624.116562" xlink:href="#m92262c60c1" y="7.2"/>
      </g>
     </g>
     <g id="text_3">
      <!-- Untreated substrate -->
      <g transform="translate(553.639688 243.097812)scale(0.14 -0.14)">
       <defs>
        <path d="M 8.6875 72.90625 
L 18.609375 72.90625 
L 18.609375 28.609375 
Q 18.609375 16.890625 22.84375 11.734375 
Q 27.09375 6.59375 36.625 6.59375 
Q 46.09375 6.59375 50.34375 11.734375 
Q 54.59375 16.890625 54.59375 28.609375 
L 54.59375 72.90625 
L 64.5 72.90625 
L 64.5 27.390625 
Q 64.5 13.140625 57.4375 5.859375 
Q 50.390625 -1.421875 36.625 -1.421875 
Q 22.796875 -1.421875 15.734375 5.859375 
Q 8.6875 13.140625 8.6875 27.390625 
z
" id="DejaVuSans-85"/>
        <path d="M 54.890625 33.015625 
L 54.890625 0 
L 45.90625 0 
L 45.90625 32.71875 
Q 45.90625 40.484375 42.875 44.328125 
Q 39.84375 48.1875 33.796875 48.1875 
Q 26.515625 48.1875 22.3125 43.546875 
Q 18.109375 38.921875 18.109375 30.90625 
L 18.109375 0 
L 9.078125 0 
L 9.078125 54.6875 
L 18.109375 54.6875 
L 18.109375 46.1875 
Q 21.34375 51.125 25.703125 53.5625 
Q 30.078125 56 35.796875 56 
Q 45.21875 56 50.046875 50.171875 
Q 54.890625 44.34375 54.890625 33.015625 
z
" id="DejaVuSans-110"/>
       </defs>
       <use xlink:href="#DejaVuSans-85"/>
       <use x="73.193359" xlink:href="#DejaVuSans-110"/>
       <use x="136.572266" xlink:href="#DejaVuSans-116"/>
       <use x="175.78125" xlink:href="#DejaVuSans-114"/>
       <use x="214.644531" xlink:href="#DejaVuSans-101"/>
       <use x="276.167969" xlink:href="#DejaVuSans-97"/>
       <use x="337.447266" xlink:href="#DejaVuSans-116"/>
       <use x="376.65625" xlink:href="#DejaVuSans-101"/>
       <use x="438.179688" xlink:href="#DejaVuSans-100"/>
       <use x="501.65625" xlink:href="#DejaVuSans-32"/>
       <use x="533.443359" xlink:href="#DejaVuSans-115"/>
       <use x="585.542969" xlink:href="#DejaVuSans-117"/>
       <use x="648.921875" xlink:href="#DejaVuSans-98"/>
       <use x="712.398438" xlink:href="#DejaVuSans-115"/>
       <use x="764.498047" xlink:href="#DejaVuSans-116"/>
       <use x="803.707031" xlink:href="#DejaVuSans-114"/>
       <use x="844.820312" xlink:href="#DejaVuSans-97"/>
       <use x="906.099609" xlink:href="#DejaVuSans-116"/>
       <use x="945.308594" xlink:href="#DejaVuSans-101"/>
      </g>
      <!-- (step width=0.28±0.03μm) -->
      <g transform="translate(527.818437 258.77475)scale(0.14 -0.14)">
       <defs>
        <path d="M 19.1875 8.296875 
L 53.609375 8.296875 
L 53.609375 0 
L 7.328125 0 
L 7.328125 8.296875 
Q 12.9375 14.109375 22.625 23.890625 
Q 32.328125 33.6875 34.8125 36.53125 
Q 39.546875 41.84375 41.421875 45.53125 
Q 43.3125 49.21875 43.3125 52.78125 
Q 43.3125 58.59375 39.234375 62.25 
Q 35.15625 65.921875 28.609375 65.921875 
Q 23.96875 65.921875 18.8125 64.3125 
Q 13.671875 62.703125 7.8125 59.421875 
L 7.8125 69.390625 
Q 13.765625 71.78125 18.9375 73 
Q 24.125 74.21875 28.421875 74.21875 
Q 39.75 74.21875 46.484375 68.546875 
Q 53.21875 62.890625 53.21875 53.421875 
Q 53.21875 48.921875 51.53125 44.890625 
Q 49.859375 40.875 45.40625 35.40625 
Q 44.1875 33.984375 37.640625 27.21875 
Q 31.109375 20.453125 19.1875 8.296875 
z
" id="DejaVuSans-50"/>
        <path d="M 31.78125 34.625 
Q 24.75 34.625 20.71875 30.859375 
Q 16.703125 27.09375 16.703125 20.515625 
Q 16.703125 13.921875 20.71875 10.15625 
Q 24.75 6.390625 31.78125 6.390625 
Q 38.8125 6.390625 42.859375 10.171875 
Q 46.921875 13.96875 46.921875 20.515625 
Q 46.921875 27.09375 42.890625 30.859375 
Q 38.875 34.625 31.78125 34.625 
z
M 21.921875 38.8125 
Q 15.578125 40.375 12.03125 44.71875 
Q 8.5 49.078125 8.5 55.328125 
Q 8.5 64.0625 14.71875 69.140625 
Q 20.953125 74.21875 31.78125 74.21875 
Q 42.671875 74.21875 48.875 69.140625 
Q 55.078125 64.0625 55.078125 55.328125 
Q 55.078125 49.078125 51.53125 44.71875 
Q 48 40.375 41.703125 38.8125 
Q 48.828125 37.15625 52.796875 32.3125 
Q 56.78125 27.484375 56.78125 20.515625 
Q 56.78125 9.90625 50.3125 4.234375 
Q 43.84375 -1.421875 31.78125 -1.421875 
Q 19.734375 -1.421875 13.25 4.234375 
Q 6.78125 9.90625 6.78125 20.515625 
Q 6.78125 27.484375 10.78125 32.3125 
Q 14.796875 37.15625 21.921875 38.8125 
z
M 18.3125 54.390625 
Q 18.3125 48.734375 21.84375 45.5625 
Q 25.390625 42.390625 31.78125 42.390625 
Q 38.140625 42.390625 41.71875 45.5625 
Q 45.3125 48.734375 45.3125 54.390625 
Q 45.3125 60.0625 41.71875 63.234375 
Q 38.140625 66.40625 31.78125 66.40625 
Q 25.390625 66.40625 21.84375 63.234375 
Q 18.3125 60.0625 18.3125 54.390625 
z
" id="DejaVuSans-56"/>
       </defs>
       <use xlink:href="#DejaVuSans-40"/>
       <use x="39.013672" xlink:href="#DejaVuSans-115"/>
       <use x="91.113281" xlink:href="#DejaVuSans-116"/>
       <use x="130.322266" xlink:href="#DejaVuSans-101"/>
       <use x="191.845703" xlink:href="#DejaVuSans-112"/>
       <use x="255.322266" xlink:href="#DejaVuSans-32"/>
       <use x="287.109375" xlink:href="#DejaVuSans-119"/>
       <use x="368.896484" xlink:href="#DejaVuSans-105"/>
       <use x="396.679688" xlink:href="#DejaVuSans-100"/>
       <use x="460.15625" xlink:href="#DejaVuSans-116"/>
       <use x="499.365234" xlink:href="#DejaVuSans-104"/>
       <use x="562.744141" xlink:href="#DejaVuSans-61"/>
       <use x="646.533203" xlink:href="#DejaVuSans-48"/>
       <use x="710.15625" xlink:href="#DejaVuSans-46"/>
       <use x="741.943359" xlink:href="#DejaVuSans-50"/>
       <use x="805.566406" xlink:href="#DejaVuSans-56"/>
       <use x="869.189453" xlink:href="#DejaVuSans-177"/>
       <use x="952.978516" xlink:href="#DejaVuSans-48"/>
       <use x="1016.601562" xlink:href="#DejaVuSans-46"/>
       <use x="1048.388672" xlink:href="#DejaVuSans-48"/>
       <use x="1112.011719" xlink:href="#DejaVuSans-51"/>
       <use x="1175.634766" xlink:href="#DejaVuSans-956"/>
       <use x="1239.257812" xlink:href="#DejaVuSans-109"/>
       <use x="1336.669922" xlink:href="#DejaVuSans-41"/>
      </g>
     </g>
    </g>
   </g>
   <g id="matplotlib.axis_2">
    <g id="ytick_1">
     <g id="line2d_7">
      <defs>
       <path d="M 0 0 
L 3.5 0 
" id="me1b2def94d" style="stroke:#000000;stroke-width:0.8;"/>
      </defs>
      <g>
       <use style="stroke:#000000;stroke-width:0.8;" x="66.116563" xlink:href="#me1b2def94d" y="228.766"/>
      </g>
     </g>
     <g id="line2d_8">
      <defs>
       <path d="M 0 0 
L -3.5 0 
" id="m8b2fa7db4d" style="stroke:#000000;stroke-width:0.8;"/>
      </defs>
      <g>
       <use style="stroke:#000000;stroke-width:0.8;" x="735.716563" xlink:href="#m8b2fa7db4d" y="228.766"/>
      </g>
     </g>
     <g id="text_4">
      <!-- −0.2 -->
      <g transform="translate(28.620625 234.084907)scale(0.14 -0.14)">
       <defs>
        <path d="M 10.59375 35.5 
L 73.1875 35.5 
L 73.1875 27.203125 
L 10.59375 27.203125 
z
" id="DejaVuSans-8722"/>
       </defs>
       <use xlink:href="#DejaVuSans-8722"/>
       <use x="83.789062" xlink:href="#DejaVuSans-48"/>
       <use x="147.412109" xlink:href="#DejaVuSans-46"/>
       <use x="179.199219" xlink:href="#DejaVuSans-50"/>
      </g>
     </g>
    </g>
    <g id="ytick_2">
     <g id="line2d_9">
      <g>
       <use style="stroke:#000000;stroke-width:0.8;" x="66.116563" xlink:href="#me1b2def94d" y="190.109063"/>
      </g>
     </g>
     <g id="line2d_10">
      <g>
       <use style="stroke:#000000;stroke-width:0.8;" x="735.716563" xlink:href="#m8b2fa7db4d" y="190.109063"/>
      </g>
     </g>
     <g id="text_5">
      <!-- 0.0 -->
      <g transform="translate(40.352187 195.42797)scale(0.14 -0.14)">
       <use xlink:href="#DejaVuSans-48"/>
       <use x="63.623047" xlink:href="#DejaVuSans-46"/>
       <use x="95.410156" xlink:href="#DejaVuSans-48"/>
      </g>
     </g>
    </g>
    <g id="ytick_3">
     <g id="line2d_11">
      <g>
       <use style="stroke:#000000;stroke-width:0.8;" x="66.116563" xlink:href="#me1b2def94d" y="151.452126"/>
      </g>
     </g>
     <g id="line2d_12">
      <g>
       <use style="stroke:#000000;stroke-width:0.8;" x="735.716563" xlink:href="#m8b2fa7db4d" y="151.452126"/>
      </g>
     </g>
     <g id="text_6">
      <!-- 0.2 -->
      <g transform="translate(40.352187 156.771032)scale(0.14 -0.14)">
       <use xlink:href="#DejaVuSans-48"/>
       <use x="63.623047" xlink:href="#DejaVuSans-46"/>
       <use x="95.410156" xlink:href="#DejaVuSans-50"/>
      </g>
     </g>
    </g>
    <g id="ytick_4">
     <g id="line2d_13">
      <g>
       <use style="stroke:#000000;stroke-width:0.8;" x="66.116563" xlink:href="#me1b2def94d" y="112.795189"/>
      </g>
     </g>
     <g id="line2d_14">
      <g>
       <use style="stroke:#000000;stroke-width:0.8;" x="735.716563" xlink:href="#m8b2fa7db4d" y="112.795189"/>
      </g>
     </g>
     <g id="text_7">
      <!-- 0.4 -->
      <g transform="translate(40.352187 118.114095)scale(0.14 -0.14)">
       <use xlink:href="#DejaVuSans-48"/>
       <use x="63.623047" xlink:href="#DejaVuSans-46"/>
       <use x="95.410156" xlink:href="#DejaVuSans-52"/>
      </g>
     </g>
    </g>
    <g id="ytick_5">
     <g id="line2d_15">
      <g>
       <use style="stroke:#000000;stroke-width:0.8;" x="66.116563" xlink:href="#me1b2def94d" y="74.138252"/>
      </g>
     </g>
     <g id="line2d_16">
      <g>
       <use style="stroke:#000000;stroke-width:0.8;" x="735.716563" xlink:href="#m8b2fa7db4d" y="74.138252"/>
      </g>
     </g>
     <g id="text_8">
      <!-- 0.6 -->
      <g transform="translate(40.352187 79.457158)scale(0.14 -0.14)">
       <defs>
        <path d="M 33.015625 40.375 
Q 26.375 40.375 22.484375 35.828125 
Q 18.609375 31.296875 18.609375 23.390625 
Q 18.609375 15.53125 22.484375 10.953125 
Q 26.375 6.390625 33.015625 6.390625 
Q 39.65625 6.390625 43.53125 10.953125 
Q 47.40625 15.53125 47.40625 23.390625 
Q 47.40625 31.296875 43.53125 35.828125 
Q 39.65625 40.375 33.015625 40.375 
z
M 52.59375 71.296875 
L 52.59375 62.3125 
Q 48.875 64.0625 45.09375 64.984375 
Q 41.3125 65.921875 37.59375 65.921875 
Q 27.828125 65.921875 22.671875 59.328125 
Q 17.53125 52.734375 16.796875 39.40625 
Q 19.671875 43.65625 24.015625 45.921875 
Q 28.375 48.1875 33.59375 48.1875 
Q 44.578125 48.1875 50.953125 41.515625 
Q 57.328125 34.859375 57.328125 23.390625 
Q 57.328125 12.15625 50.6875 5.359375 
Q 44.046875 -1.421875 33.015625 -1.421875 
Q 20.359375 -1.421875 13.671875 8.265625 
Q 6.984375 17.96875 6.984375 36.375 
Q 6.984375 53.65625 15.1875 63.9375 
Q 23.390625 74.21875 37.203125 74.21875 
Q 40.921875 74.21875 44.703125 73.484375 
Q 48.484375 72.75 52.59375 71.296875 
z
" id="DejaVuSans-54"/>
       </defs>
       <use xlink:href="#DejaVuSans-48"/>
       <use x="63.623047" xlink:href="#DejaVuSans-46"/>
       <use x="95.410156" xlink:href="#DejaVuSans-54"/>
      </g>
     </g>
    </g>
    <g id="ytick_6">
     <g id="line2d_17">
      <g>
       <use style="stroke:#000000;stroke-width:0.8;" x="66.116563" xlink:href="#me1b2def94d" y="35.481315"/>
      </g>
     </g>
     <g id="line2d_18">
      <g>
       <use style="stroke:#000000;stroke-width:0.8;" x="735.716563" xlink:href="#m8b2fa7db4d" y="35.481315"/>
      </g>
     </g>
     <g id="text_9">
      <!-- 0.8 -->
      <g transform="translate(40.352187 40.800221)scale(0.14 -0.14)">
       <use xlink:href="#DejaVuSans-48"/>
       <use x="63.623047" xlink:href="#DejaVuSans-46"/>
       <use x="95.410156" xlink:href="#DejaVuSans-56"/>
      </g>
     </g>
    </g>
    <g id="text_10">
     <!-- Characteristic Time (s) -->
     <g transform="translate(20.877187 220.131562)rotate(-90)scale(0.18 -0.18)">
      <defs>
       <path d="M 64.40625 67.28125 
L 64.40625 56.890625 
Q 59.421875 61.53125 53.78125 63.8125 
Q 48.140625 66.109375 41.796875 66.109375 
Q 29.296875 66.109375 22.65625 58.46875 
Q 16.015625 50.828125 16.015625 36.375 
Q 16.015625 21.96875 22.65625 14.328125 
Q 29.296875 6.6875 41.796875 6.6875 
Q 48.140625 6.6875 53.78125 8.984375 
Q 59.421875 11.28125 64.40625 15.921875 
L 64.40625 5.609375 
Q 59.234375 2.09375 53.4375 0.328125 
Q 47.65625 -1.421875 41.21875 -1.421875 
Q 24.65625 -1.421875 15.125 8.703125 
Q 5.609375 18.84375 5.609375 36.375 
Q 5.609375 53.953125 15.125 64.078125 
Q 24.65625 74.21875 41.21875 74.21875 
Q 47.75 74.21875 53.53125 72.484375 
Q 59.328125 70.75 64.40625 67.28125 
z
" id="DejaVuSans-67"/>
       <path d="M 48.78125 52.59375 
L 48.78125 44.1875 
Q 44.96875 46.296875 41.140625 47.34375 
Q 37.3125 48.390625 33.40625 48.390625 
Q 24.65625 48.390625 19.8125 42.84375 
Q 14.984375 37.3125 14.984375 27.296875 
Q 14.984375 17.28125 19.8125 11.734375 
Q 24.65625 6.203125 33.40625 6.203125 
Q 37.3125 6.203125 41.140625 7.25 
Q 44.96875 8.296875 48.78125 10.40625 
L 48.78125 2.09375 
Q 45.015625 0.34375 40.984375 -0.53125 
Q 36.96875 -1.421875 32.421875 -1.421875 
Q 20.0625 -1.421875 12.78125 6.34375 
Q 5.515625 14.109375 5.515625 27.296875 
Q 5.515625 40.671875 12.859375 48.328125 
Q 20.21875 56 33.015625 56 
Q 37.15625 56 41.109375 55.140625 
Q 45.0625 54.296875 48.78125 52.59375 
z
" id="DejaVuSans-99"/>
      </defs>
      <use xlink:href="#DejaVuSans-67"/>
      <use x="69.824219" xlink:href="#DejaVuSans-104"/>
      <use x="133.203125" xlink:href="#DejaVuSans-97"/>
      <use x="194.482422" xlink:href="#DejaVuSans-114"/>
      <use x="235.595703" xlink:href="#DejaVuSans-97"/>
      <use x="296.875" xlink:href="#DejaVuSans-99"/>
      <use x="351.855469" xlink:href="#DejaVuSans-116"/>
      <use x="391.064453" xlink:href="#DejaVuSans-101"/>
      <use x="452.587891" xlink:href="#DejaVuSans-114"/>
      <use x="493.701172" xlink:href="#DejaVuSans-105"/>
      <use x="521.484375" xlink:href="#DejaVuSans-115"/>
      <use x="573.583984" xlink:href="#DejaVuSans-116"/>
      <use x="612.792969" xlink:href="#DejaVuSans-105"/>
      <use x="640.576172" xlink:href="#DejaVuSans-99"/>
      <use x="695.556641" xlink:href="#DejaVuSans-32"/>
      <use x="727.34375" xlink:href="#DejaVuSans-84"/>
      <use x="785.302734" xlink:href="#DejaVuSans-105"/>
      <use x="813.085938" xlink:href="#DejaVuSans-109"/>
      <use x="910.498047" xlink:href="#DejaVuSans-101"/>
      <use x="972.021484" xlink:href="#DejaVuSans-32"/>
      <use x="1003.808594" xlink:href="#DejaVuSans-40"/>
      <use x="1042.822266" xlink:href="#DejaVuSans-115"/>
      <use x="1094.921875" xlink:href="#DejaVuSans-41"/>
     </g>
    </g>
   </g>
   <g id="line2d_19">
    <path clip-path="url(#p3b1be70a27)" d="M 177.716563 189.706943 
L 177.716563 120.548414 
" style="fill:none;stroke:#373737;stroke-linecap:square;stroke-width:0.8;"/>
   </g>
   <g id="line2d_20">
    <path clip-path="url(#p3b1be70a27)" d="M 177.716563 173.860118 
L 177.716563 152.466905 
" style="fill:none;stroke:#373737;stroke-linecap:square;stroke-width:2.4;"/>
   </g>
   <g id="line2d_21">
    <path clip-path="url(#p3b1be70a27)" d="M 400.916562 189.915779 
L 400.916562 94.438454 
" style="fill:none;stroke:#373737;stroke-linecap:square;stroke-width:0.8;"/>
   </g>
   <g id="line2d_22">
    <path clip-path="url(#p3b1be70a27)" d="M 400.916562 182.030286 
L 400.916562 146.512366 
" style="fill:none;stroke:#373737;stroke-linecap:square;stroke-width:2.4;"/>
   </g>
   <g id="line2d_23">
    <path clip-path="url(#p3b1be70a27)" d="M 624.116562 189.915779 
L 624.116562 173.231838 
" style="fill:none;stroke:#373737;stroke-linecap:square;stroke-width:0.8;"/>
   </g>
   <g id="line2d_24">
    <path clip-path="url(#p3b1be70a27)" d="M 624.116562 184.533796 
L 624.116562 179.750005 
" style="fill:none;stroke:#373737;stroke-linecap:square;stroke-width:2.4;"/>
   </g>
   <g id="patch_3">
    <path d="M 66.116563 228.96 
L 66.116563 7.2 
" style="fill:none;stroke:#000000;stroke-linecap:square;stroke-linejoin:miter;stroke-width:0.8;"/>
   </g>
   <g id="patch_4">
    <path d="M 735.716563 228.96 
L 735.716563 7.2 
" style="fill:none;stroke:#000000;stroke-linecap:square;stroke-linejoin:miter;stroke-width:0.8;"/>
   </g>
   <g id="patch_5">
    <path d="M 66.116563 228.96 
L 735.716563 228.96 
" style="fill:none;stroke:#000000;stroke-linecap:square;stroke-linejoin:miter;stroke-width:0.8;"/>
   </g>
   <g id="patch_6">
    <path d="M 66.116563 7.2 
L 735.716563 7.2 
" style="fill:none;stroke:#000000;stroke-linecap:square;stroke-linejoin:miter;stroke-width:0.8;"/>
   </g>
   <g id="PathCollection_1">
    <defs>
     <path d="M 0 0.8 
C 0.212162 0.8 0.415664 0.715707 0.565685 0.565685 
C 0.715707 0.415664 0.8 0.212162 0.8 0 
C 0.8 -0.212162 0.715707 -0.415664 0.565685 -0.565685 
C 0.415664 -0.715707 0.212162 -0.8 0 -0.8 
C -0.212162 -0.8 -0.415664 -0.715707 -0.565685 -0.565685 
C -0.715707 -0.415664 -0.8 -0.212162 -0.8 0 
C -0.8 0.212162 -0.715707 0.415664 -0.565685 0.565685 
C -0.415664 0.715707 -0.212162 0.8 0 0.8 
z
" id="m07a802d73e" style="stroke:#373737;"/>
    </defs>
    <g clip-path="url(#p3b1be70a27)">
     <use style="fill:#ffffff;stroke:#373737;" x="177.716563" xlink:href="#m07a802d73e" y="164.72736"/>
    </g>
   </g>
   <g id="PathCollection_2">
    <g clip-path="url(#p3b1be70a27)">
     <use style="fill:#ffffff;stroke:#373737;" x="400.916562" xlink:href="#m07a802d73e" y="172.749572"/>
    </g>
   </g>
   <g id="PathCollection_3">
    <g clip-path="url(#p3b1be70a27)">
     <use style="fill:#ffffff;stroke:#373737;" x="624.116562" xlink:href="#m07a802d73e" y="182.240402"/>
    </g>
   </g>
   <g id="text_11">
    <!-- 0.1313 -->
    <g transform="translate(182.180563 172.341871)scale(0.14 -0.14)">
     <defs>
      <path d="M 46 36.53125 
Q 46 50.203125 43.4375 55.78125 
Q 40.875 61.375 34.8125 61.375 
Q 28.765625 61.375 26.171875 55.78125 
Q 23.578125 50.203125 23.578125 36.53125 
Q 23.578125 22.703125 26.171875 17.03125 
Q 28.765625 11.375 34.8125 11.375 
Q 40.828125 11.375 43.40625 17.03125 
Q 46 22.703125 46 36.53125 
z
M 64.796875 36.375 
Q 64.796875 18.265625 56.984375 8.421875 
Q 49.171875 -1.421875 34.8125 -1.421875 
Q 20.40625 -1.421875 12.59375 8.421875 
Q 4.78125 18.265625 4.78125 36.375 
Q 4.78125 54.546875 12.59375 64.375 
Q 20.40625 74.21875 34.8125 74.21875 
Q 49.171875 74.21875 56.984375 64.375 
Q 64.796875 54.546875 64.796875 36.375 
z
" id="DejaVuSans-Bold-48"/>
      <path d="M 10.203125 18.890625 
L 27.78125 18.890625 
L 27.78125 0 
L 10.203125 0 
z
" id="DejaVuSans-Bold-46"/>
      <path d="M 11.71875 12.984375 
L 28.328125 12.984375 
L 28.328125 60.109375 
L 11.28125 56.59375 
L 11.28125 69.390625 
L 28.21875 72.90625 
L 46.09375 72.90625 
L 46.09375 12.984375 
L 62.703125 12.984375 
L 62.703125 0 
L 11.71875 0 
z
" id="DejaVuSans-Bold-49"/>
      <path d="M 46.578125 39.3125 
Q 53.953125 37.40625 57.78125 32.6875 
Q 61.625 27.984375 61.625 20.703125 
Q 61.625 9.859375 53.3125 4.21875 
Q 45.015625 -1.421875 29.109375 -1.421875 
Q 23.484375 -1.421875 17.84375 -0.515625 
Q 12.203125 0.390625 6.6875 2.203125 
L 6.6875 16.703125 
Q 11.96875 14.0625 17.15625 12.71875 
Q 22.359375 11.375 27.390625 11.375 
Q 34.859375 11.375 38.84375 13.953125 
Q 42.828125 16.546875 42.828125 21.390625 
Q 42.828125 26.375 38.75 28.9375 
Q 34.671875 31.5 26.703125 31.5 
L 19.1875 31.5 
L 19.1875 43.609375 
L 27.09375 43.609375 
Q 34.1875 43.609375 37.640625 45.828125 
Q 41.109375 48.046875 41.109375 52.59375 
Q 41.109375 56.78125 37.734375 59.078125 
Q 34.375 61.375 28.21875 61.375 
Q 23.6875 61.375 19.046875 60.34375 
Q 14.40625 59.328125 9.8125 57.328125 
L 9.8125 71.09375 
Q 15.375 72.65625 20.84375 73.4375 
Q 26.3125 74.21875 31.59375 74.21875 
Q 45.796875 74.21875 52.84375 69.546875 
Q 59.90625 64.890625 59.90625 55.515625 
Q 59.90625 49.125 56.53125 45.046875 
Q 53.171875 40.96875 46.578125 39.3125 
z
" id="DejaVuSans-Bold-51"/>
     </defs>
     <use xlink:href="#DejaVuSans-Bold-48"/>
     <use x="69.580078" xlink:href="#DejaVuSans-Bold-46"/>
     <use x="107.568359" xlink:href="#DejaVuSans-Bold-49"/>
     <use x="177.148438" xlink:href="#DejaVuSans-Bold-51"/>
     <use x="246.728516" xlink:href="#DejaVuSans-Bold-49"/>
     <use x="316.308594" xlink:href="#DejaVuSans-Bold-51"/>
    </g>
   </g>
   <g id="text_12">
    <!-- 0.0898 -->
    <g transform="translate(405.380562 177.95742)scale(0.14 -0.14)">
     <defs>
      <path d="M 34.8125 32.625 
Q 29.546875 32.625 26.703125 29.734375 
Q 23.875 26.859375 23.875 21.484375 
Q 23.875 16.109375 26.703125 13.25 
Q 29.546875 10.40625 34.8125 10.40625 
Q 40.046875 10.40625 42.828125 13.25 
Q 45.609375 16.109375 45.609375 21.484375 
Q 45.609375 26.90625 42.828125 29.765625 
Q 40.046875 32.625 34.8125 32.625 
z
M 21.09375 38.8125 
Q 14.453125 40.828125 11.078125 44.96875 
Q 7.71875 49.125 7.71875 55.328125 
Q 7.71875 64.546875 14.59375 69.375 
Q 21.484375 74.21875 34.8125 74.21875 
Q 48.046875 74.21875 54.921875 69.40625 
Q 61.8125 64.59375 61.8125 55.328125 
Q 61.8125 49.125 58.421875 44.96875 
Q 55.03125 40.828125 48.390625 38.8125 
Q 55.8125 36.765625 59.59375 32.15625 
Q 63.375 27.546875 63.375 20.515625 
Q 63.375 9.671875 56.171875 4.125 
Q 48.96875 -1.421875 34.8125 -1.421875 
Q 20.609375 -1.421875 13.359375 4.125 
Q 6.109375 9.671875 6.109375 20.515625 
Q 6.109375 27.546875 9.890625 32.15625 
Q 13.671875 36.765625 21.09375 38.8125 
z
M 25.484375 53.421875 
Q 25.484375 49.078125 27.90625 46.734375 
Q 30.328125 44.390625 34.8125 44.390625 
Q 39.203125 44.390625 41.59375 46.734375 
Q 44 49.078125 44 53.421875 
Q 44 57.765625 41.59375 60.078125 
Q 39.203125 62.40625 34.8125 62.40625 
Q 30.328125 62.40625 27.90625 60.0625 
Q 25.484375 57.71875 25.484375 53.421875 
z
" id="DejaVuSans-Bold-56"/>
      <path d="M 10.015625 1.609375 
L 10.015625 15.09375 
Q 14.5 12.984375 18.59375 11.9375 
Q 22.703125 10.890625 26.703125 10.890625 
Q 35.109375 10.890625 39.796875 15.546875 
Q 44.484375 20.21875 45.3125 29.390625 
Q 42 26.953125 38.234375 25.734375 
Q 34.46875 24.515625 30.078125 24.515625 
Q 18.890625 24.515625 12.03125 31.03125 
Q 5.171875 37.546875 5.171875 48.1875 
Q 5.171875 59.96875 12.8125 67.046875 
Q 20.453125 74.125 33.296875 74.125 
Q 47.5625 74.125 55.375 64.5 
Q 63.1875 54.890625 63.1875 37.3125 
Q 63.1875 19.234375 54.046875 8.90625 
Q 44.921875 -1.421875 29 -1.421875 
Q 23.875 -1.421875 19.1875 -0.65625 
Q 14.5 0.09375 10.015625 1.609375 
z
M 33.203125 36.71875 
Q 38.140625 36.71875 40.625 39.90625 
Q 43.109375 43.109375 43.109375 49.515625 
Q 43.109375 55.859375 40.625 59.078125 
Q 38.140625 62.3125 33.203125 62.3125 
Q 28.265625 62.3125 25.78125 59.078125 
Q 23.296875 55.859375 23.296875 49.515625 
Q 23.296875 43.109375 25.78125 39.90625 
Q 28.265625 36.71875 33.203125 36.71875 
z
" id="DejaVuSans-Bold-57"/>
     </defs>
     <use xlink:href="#DejaVuSans-Bold-48"/>
     <use x="69.580078" xlink:href="#DejaVuSans-Bold-46"/>
     <use x="107.568359" xlink:href="#DejaVuSans-Bold-48"/>
     <use x="177.148438" xlink:href="#DejaVuSans-Bold-56"/>
     <use x="246.728516" xlink:href="#DejaVuSans-Bold-57"/>
     <use x="316.308594" xlink:href="#DejaVuSans-Bold-56"/>
    </g>
   </g>
   <g id="text_13">
    <!-- 0.0407 -->
    <g transform="translate(628.580563 184.601)scale(0.14 -0.14)">
     <defs>
      <path d="M 36.8125 57.421875 
L 16.21875 26.90625 
L 36.8125 26.90625 
z
M 33.6875 72.90625 
L 54.59375 72.90625 
L 54.59375 26.90625 
L 64.984375 26.90625 
L 64.984375 13.28125 
L 54.59375 13.28125 
L 54.59375 0 
L 36.8125 0 
L 36.8125 13.28125 
L 4.5 13.28125 
L 4.5 29.390625 
z
" id="DejaVuSans-Bold-52"/>
      <path d="M 6.6875 72.90625 
L 61.625 72.90625 
L 61.625 62.3125 
L 33.203125 0 
L 14.890625 0 
L 41.796875 59.078125 
L 6.6875 59.078125 
z
" id="DejaVuSans-Bold-55"/>
     </defs>
     <use xlink:href="#DejaVuSans-Bold-48"/>
     <use x="69.580078" xlink:href="#DejaVuSans-Bold-46"/>
     <use x="107.568359" xlink:href="#DejaVuSans-Bold-48"/>
     <use x="177.148438" xlink:href="#DejaVuSans-Bold-52"/>
     <use x="246.728516" xlink:href="#DejaVuSans-Bold-48"/>
     <use x="316.308594" xlink:href="#DejaVuSans-Bold-55"/>
    </g>
   </g>
  </g>
 </g>
 <defs>
  <clipPath id="p3b1be70a27">
   <rect height="221.76" width="669.6" x="66.116563" y="7.2"/>
  </clipPath>
 </defs>
</svg>
